<?xml version="1.0" encoding="utf-8"?>
<!-- Generator: Adobe Illustrator 22.1.0, SVG Export Plug-In . SVG Version: 6.00 Build 0)  -->
<svg version="1.1" id="Calque_1" xmlns="http://www.w3.org/2000/svg" xmlns:xlink="http://www.w3.org/1999/xlink" x="0px" y="0px"
	 viewBox="0 0 1280 1024" style="enable-background:new 0 0 1280 1024;" xml:space="preserve">
<style type="text/css">
	.st0{clip-path:url(#SVGID_2_);fill:#F9EAE0;}
	.st1{clip-path:url(#SVGID_2_);}
	.st2{fill:#EC82AD;}
	.st3{fill:#F2C8DA;}
	.st4{fill:#D3538D;}
	.st5{fill:#B83364;}
	.st6{fill:#DD5958;}
</style>
<g>
	<defs>
		<rect id="SVGID_1_" x="-93.5" y="-1.5" width="1468.5" height="1033.5"/>
	</defs>
	<clipPath id="SVGID_2_">
		<use xlink:href="#SVGID_1_"  style="overflow:visible;"/>
	</clipPath>
	<rect x="-93.4" y="-1.8" class="st0" width="1467.9" height="1033.8"/>
	<g class="st1">
		<g>
			<path class="st2" d="M515.5,687.7c-4.2-3.1,3.8,3.5,0.3,0.2c-1.3-1.2-2.7-2.4-4-3.7c-1.1-1.1-2.1-2.2-3.2-3.4
				c-0.6-0.7-4.5-4.6-1.4-1.6c3,2.9-0.9-1.5-1.5-2.5c-0.8-1.3-1.6-2.6-2.4-4c-0.7-1.4-1.4-2.8-2.1-4.1c-2.3-4.3,1.9,5.4,0.2,0.4
				c-1-2.9-2-5.8-2.7-8.9c-0.4-1.5-0.6-3-0.9-4.5c-1-5.2,0.4,5.6,0.1,0.7c-0.3-4.7-0.6-9.6-1.7-14.1c-1.7-7.2-5-12-9.5-17.6
				c-5.5-6.9-16.8-8.8-24.9-6.6c-8.4,2.3-15.8,9.3-17.9,17.9c-6.2,25.8-5.7,53,2.1,78.4c3.9,12.8,18,22.2,31.5,17.9
				c14.1-4.5,20.6-17.4,17.9-31.5c-1.7-9.1-3.5-18.2-5.2-27.4c-2.5-13.2-19.1-21.9-31.5-17.9c-14.1,4.5-20.6,17.4-17.9,31.5
				c1.7,9.1,3.5,18.2,5.2,27.4c16.4-4.5,32.9-9.1,49.3-13.6c-1.5-4.9-2.8-9.9-3.7-15c-0.1-0.8-0.7-4.9-0.2-1.1
				c0.4,3.8,0-0.4-0.1-1.1c-0.3-2.7-0.5-5.4-0.5-8.2c-0.2-4.9,0-9.7,0.4-14.6c0.1-1.1,0.5-2.5,0.4-3.6c0.6,5.1-0.4,2.9,0,0.5
				c0.5-2.7,1-5.4,1.7-8c-14.3,3.8-28.5,7.5-42.8,11.3c-1.9-1.8-3.2-3.9-4-6.4c0.4,2,0.5,1.9,0.1-0.6c0-4.9,0,1.4,0.1,2.4
				c0.4,4.8,1,9.7,2,14.4c1.6,8.2,4.8,16.1,8.4,23.7c7.3,15.3,19.1,27.5,32.6,37.4c5,3.7,14,4.2,19.7,2.6
				c5.9-1.6,12.4-6.2,15.3-11.8C531.7,709.3,527,696.1,515.5,687.7L515.5,687.7z"/>
		</g>
	</g>
	<g class="st1">
		<g>
			<path class="st2" d="M549.4,641.8c-0.7-0.8-1.4-1.6-2.1-2.4c0.7,0.9,1.3,1.8,2,2.7c-0.7-1.3-1.9-2.7-2.7-4
				c-1.7-2.7-2.8-6-4.6-8.5c0.4,1,0.9,2.1,1.3,3.1c-0.4-1-0.8-2-1.1-3c-0.5-1.5-1-3.1-1.4-4.6c-0.3-1.3-0.6-2.6-0.9-3.9
				c-1.3-6.5,0.4,4.9-0.1-0.4c-0.6-6.9-2.4-13-7.5-18.1c-4.4-4.4-11.7-7.8-18.1-7.5c-14.5,0.6-24.8,11.2-25.6,25.6
				c-2.2,39.6,11.1,77.6,24.9,114.2c15.6-6.6,31.2-13.1,46.8-19.7c-5.7-12.8-11.4-25.6-17.1-38.3c-2.4-5.5-9.8-10.2-15.3-11.8
				c-6.1-1.7-14.3-0.9-19.7,2.6c-5.5,3.5-10.3,8.8-11.8,15.3c-1.6,7.1-0.4,13.1,2.6,19.7c5.7,12.8,11.4,25.6,17.1,38.3
				c2.3,5.3,9.8,10.5,15.3,11.8c5.7,1.3,11.2,1,16.7-1.3c10.8-4.6,19.3-18.2,14.8-30.2c-6.4-17.1-12.8-34.2-17.5-51.9
				c-1.1-4.2-2.1-8.5-3-12.8c-0.5-2.4-1-4.9-1.4-7.3c-0.3-1.7-1.9-7.2-0.2-0.6c-2.2-8.5-1.5-19.2-1-27.9c-17.1,0-34.1,0-51.2,0
				c2,21.8,9.9,40.8,24.5,57.2c8.9,10,27.2,9.8,36.2,0C559.2,667.3,558.9,652.5,549.4,641.8L549.4,641.8z"/>
		</g>
	</g>
	<g class="st1">
		<g>
			<path class="st2" d="M501.2,658.9c0.8,47.6,1.5,95.2,2.3,142.9c16.7-2.3,33.5-4.5,50.2-6.8c-7.5-24.7-14.9-49.3-22.4-74
				c-3.7-12.2-15.4-20-28.1-18.3c-11.5,1.5-23.5,12.5-22.2,25.1c0.3,2.7,0.2,5.3,0.2,8c0,4.6,1-4.3,0.2-1.2
				c-0.3,1.3-0.5,2.6-0.9,3.9c-0.3,0.9-1,2.1-1,3c1.5-3.4,1.9-4.2,1-2.4c-0.2,0.5-0.5,1-0.7,1.4c-0.6,1.2-1.3,2.4-2,3.5
				c-0.9,1.5-4.3,5.3,0.2,0c13.4,1.7,26.8,3.5,40.2,5.2c-4-5.7-7.7-11.7-11-17.9c-1.5-2.8-3-5.7-4.3-8.7c-0.7-1.5-1.3-3-2-4.4
				c3.2,6.4,0.7,1.7,0.1,0.1c-4.9-12.6-8.2-25.6-10.4-38.9c-1-5.7,0.7,6.2,0,0.4c-0.2-1.6-0.4-3.2-0.5-4.8c-0.3-3.2-0.5-6.4-0.6-9.7
				c-0.3-7-0.1-14,0.4-21c0.1-1.6,0.3-3.2,0.4-4.8c0.2-1.8,1.2-7.1-0.1,0.4c0.6-3.2,1-6.4,1.6-9.6c1.4-6.9,3.2-13.6,5.3-20.3
				c4.1-12.7-4.8-28.5-17.9-31.5c-14.2-3.2-26.9,4.3-31.5,17.9c-15.5,46.1-23.5,95-24,143.7c17.1,0,34.1,0,51.2,0
				c-2.3-24-4-47.7-2.1-71.8c0.2-3.1,1.3-1.2-0.2,1c0.4-0.5,0.4-3,0.6-3.8c0.4-2.4,0.9-4.8,1.4-7.2c1-4.8,2.3-9.4,3.8-14.1
				c0.7-2.2,1.5-4.4,2.3-6.5c0.4-1.2,0.9-2.4,1.4-3.6c0.8-2.2,2-1.9-0.8,1.9c2.6-3.5,4-8.6,6.1-12.4c2.2-4,4.6-8,7.2-11.8
				c1.3-1.9,2.6-3.8,4-5.7c1.5-2,3.5-2.6-0.7,0.9c0.9-0.8,1.6-2.1,2.4-3c6-7.3,12.7-14,20-20.1c0.8-0.6,1.6-1.3,2.4-1.9
				c-4.6,4.2-2.9,2.2-1.5,1.2c2.1-1.5,4.1-3,6.3-4.4c4.1-2.8,8.4-5.3,12.8-7.7c2.2-1.2,4.4-2.3,6.7-3.3c0.4-0.2,3.8-1.8,3.8-1.7
				c0,0.1-6.1,2.4-1.5,0.7c4.9-1.9,9.9-3.6,14.9-5.1c4.5-1.3,9.1-2.4,13.7-3.3c1.4-0.3,2.7-0.5,4.1-0.7c1-0.2,4.7-0.6,0.7-0.1
				c-4.6,0.5,0.9-0.1,1.5-0.1c1.7-0.2,3.3-0.3,5-0.4c10.1-0.7,19.8,0.1,29.8,0.8c-7.8-0.5,0.2,0.1,2.2,0.5c2.5,0.5,5.1,1,7.6,1.6
				c5.2,1.3,10.4,2.8,15.4,4.6c2.8,1,5.6,2.1,8.4,3.1c1.4,0.5,4.4,1.1-1.1-0.5c1.1,0.3,2.3,1,3.3,1.4c5.2,2.3,10.3,4.9,15.3,7.5
				c9.4,5,18.6,10.6,27.5,16.5c3.8,2.5,7.5,5.2,11.2,7.9c2.9,2.1-5-4.1-0.7-0.6c0.8,0.7,1.7,1.3,2.5,2c2.1,1.7,4.1,3.4,6.1,5.2
				c3.5,3.2,6.9,6.6,10.1,10.1c1,1.1,2.8,4.5,4.1,4.8c-2.1-0.6-3.2-4.3-0.7-0.8c0.8,1.1,1.5,2.1,2.3,3.2c2.7,4,4.8,8.1,7,12.4
				c2.1,4-0.7-1.7-0.9-2.2c0.3,1.1,0.8,2.1,1.2,3.1c0.7,2.1,1.4,4.2,2,6.4c0.6,2.4,1.1,4.7,1.6,7.1c0.4,1.8,0.1,4.4-0.3-2.9
				c0.1,1.3,0.3,2.6,0.4,4c0.3,4.4,0.4,8.9,0,13.3c-0.1,0.9-0.2,1.8-0.2,2.7c-0.3,4.9,1-6.1,0.2-1.5c-0.4,2.2-0.8,4.4-1.3,6.6
				c-1.1,4.6-2.6,9-4.2,13.4c-1.1,3.2,2.9-6.2,0.8-1.8c-0.6,1.2-1.1,2.4-1.7,3.6c-1,2-2.1,3.9-3.2,5.9c-1.1,1.9-2.3,3.8-3.6,5.6
				c-0.5,0.7-1.1,1.4-1.6,2.2c3.2-5.8,2.3-2.8,0.7-1c-2.8,3.4-6,6.6-9.3,9.5c-0.8,0.7-1.7,1.4-2.6,2.1c-1.9,1.7,5.5-3.9,0.9-0.8
				c-2,1.4-4.1,2.7-6.2,3.9c12.8,7.4,25.7,14.7,38.5,22.1c-0.7-13.5,0.9-27-0.6-40.5c-1.2-11.3-3.3-22.1-7.5-32.6
				c-8.6-21.2-21.8-40.2-39.5-54.9c-17.5-14.5-37.3-25.6-59.3-31.8c-26.3-7.4-53.5-7.5-80.3-3.7c-28.6,4.1-55.8,14-81.7,26.5
				c12.8,7.4,25.7,14.7,38.5,22.1c-0.1-0.9-0.6-3.4-0.1-4.3c0,0-1.2,6.9-0.2,2.7c1.2-4.8-3.2,5.2-0.5,1c0.5-0.8,1-1.6,1.4-2.4
				c2.5-4.3-3.3,3.6-1,1.1c0.9-0.9,1.6-1.9,2.5-2.7c0.9-0.9,1.8-1.8,2.8-2.6c0.6-0.5,1.1-1,1.7-1.5c2.1-1.7,1.6-1.3-1.6,1.2
				c1.9-0.4,4.5-3.1,6.2-4.2c2.2-1.4,4.5-2.8,6.8-4.1c5.3-3.2,10.8-6.2,16.2-9.1c5.2-2.7,10.5-5.3,15.9-7.8c2.5-1.2,5.4-2.9,8.1-3.6
				c-5.3,1.4-2.8,1.1-1.2,0.5c2.2-0.9,4.4-1.8,6.6-2.6c11-4.3,22.2-8,33.6-11.2c11.8-3.3,23.7-5.8,35.7-7.8c3.9-0.7-6.5,0.6-0.5,0.1
				c1.2-0.1,2.4-0.2,3.6-0.3c3-0.2,6-0.3,9.1-0.3c1.8,0,3.6,0.2,5.4,0.3c3.6,0.1-0.2-0.9-1.4-0.3c1.8-0.9,8.4,1.9,10.3,2.5
				c0.3,0.1,2.5,1.2,3,1.1c-1.1-0.4-2.1-0.9-3.2-1.3c1,0.4,1.9,0.9,2.8,1.4c2.3,1.2,4.6,2.6,6.8,4.1c0.8,0.6,1.7,1.4,2.6,1.8
				c-5.7-3.1-1.8-1.4-0.2,0c2,1.7,4,3.6,5.9,5.5c3.8,3.8,7.4,7.9,10.8,12.1c0.4,0.5,4,4.3,1,1.2c-3-3.1,0.6,0.9,1,1.4
				c2.1,2.8,4.2,5.7,6.2,8.6c7.7,11.1,14.7,22.7,21,34.7c3,5.7,5.9,11.5,8.5,17.4c0.6,1.3,1.2,2.7,1.8,4c2.7,6.1-1.4-3.7,0.5,1.2
				c1.3,3.3,2.6,6.6,3.8,9.9c14.3-8.3,28.5-16.6,42.8-24.9c-43.1-42.7-94-75.9-149.8-99.3c-15-6.3-30.2-11.7-45.8-16.3
				c-4.5,16.4-9.1,32.9-13.6,49.3c8.3,1.2,16.4,3.1,24.3,5.9c1.9,0.7,3.9,1.7,5.8,2.2c-0.5-0.1-5.7-2.6-1.8-0.7
				c0.7,0.3,1.4,0.6,2.1,1c4,1.9,7.9,3.9,11.7,6.2c3.4,2,6.6,4.1,9.8,6.4c5,3.6-3-2.6,0.4,0.3c2,1.7,4,3.3,5.9,5.1
				c2.7,2.5,5.3,5,7.8,7.7c1.4,1.5,2.8,3.1,4.1,4.7c0.2,0.2,1.5,2.2,2,2.4c-1.4-0.6-3.3-4.5-0.7-0.8c5.2,7.1,9.3,14.7,13.1,22.6
				c1.5,3.1-1.9-4.8-0.6-1.6c0.3,0.8,0.6,1.5,0.9,2.3c0.8,2,1.5,4.1,2.2,6.2c1.4,4.1,2.5,8.4,3.5,12.6c0.5,2.1,0.9,4.3,1.3,6.4
				c0.1,0.5,0.2,2.7,0.5,3.2c-0.2-0.4-0.7-6.5-0.3-1.9c0.4,4.4,0.7,8.7,0.8,13.1c0,4.4-0.1,8.7-0.6,13.1c-0.1,0.8-0.2,1.6-0.3,2.4
				c-0.3,3.5,0.9-5.3,0.3-1.9c-0.2,1-0.3,2-0.5,3.1c-0.9,4-0.2,0.7,0.8-1.2c1.2-2.2,3.6-4.5,5.7-5.7c1.4-0.6,2.7-1.2,4.1-1.8
				c4.8-0.4,6.1-0.6,4-0.6c-3,0,6.3,1.3,3.3,0.4c-2.5-0.8,6.1,3.2,2.1,0.9c-2.4-1.4,0.1-1.1,2,1.8c-0.2-0.3-1.5-1.7-1.9-1.8
				c2.7,0.9,3.1,4.8,1.6,2.1c-1.1-2.1-1.5-5,0.1,0.9c-3.2-12.1-8.4-23.7-16.3-33.2c-6.5-7.8-19.3-8.9-27.9-5.3
				c-9,3.8-16.2,13.2-15.7,23.4c1.1,26.6,2.2,53.2,3.4,79.9c16.7-2.3,33.5-4.5,50.2-6.8c-9.7-37.4-17.6-75.2-23.7-113.3
				c-0.9-5.7-6.8-12.7-11.8-15.3c-5.2-2.7-10.5-3.8-16.3-3c-12.2,1.6-22.6,12.3-22.2,25.1c0.6,20.2,1.2,40.4,1.8,60.6
				c16.7-2.3,33.5-4.5,50.2-6.8c-10.9-34.6-21.9-69.3-32.8-103.9c-3.3-10.4-13.2-19.3-24.7-18.8c-4.5,0.2-8.9,1.4-12.9,3.5
				c-6.2,3.3-9.2,9.1-11.8,15.3c-5.9,14.2-6.4,30.4-5.5,45.5c0.9,15.2,2.2,30.4,3.3,45.6c2.3,31.1,4.6,62.2,6.9,93.3
				c16.7-2.3,33.5-4.5,50.2-6.8c-11.1-48.9-22.2-97.9-33.4-146.8c-2.8-12.4-16.1-19.9-28.1-18.3c-12.1,1.6-22.6,12.3-22.2,25.1
				c0.6,18.4,1.2,36.7,1.8,55.1c16.7-2.3,33.5-4.5,50.2-6.8c-7.4-21.2-14.9-42.5-22.3-63.7c-4.2-12.1-14.9-20.1-28.1-18.3
				c-13,1.7-21.4,12.3-22.2,25.1c-2.3,39.5-2.5,79-0.6,118.5c16.7-2.3,33.5-4.5,50.2-6.8c-3-15.7-5.8-31.5-8.3-47.4
				c-1.2-7.8-2.4-15.5-3.5-23.3c-0.1-0.8-1-7.4-0.5-3.4c0.5,4-0.3-2.6-0.4-3.4c-0.5-4.2-1.1-8.4-1.6-12.7
				c-16.7,2.3-33.5,4.5-50.2,6.8c18.2,63.2,36.4,126.4,54.6,189.5c3.5,12.3,15.5,20,28.1,18.3c12.4-1.7,22.2-12.3,22.2-25.1
				c-0.1-13,0.3-26,1.3-38.9c0.5-6.5,1.2-12.9,2-19.4c0.6-5-0.5,3.3,0,0c0.3-1.6,0.5-3.2,0.7-4.8c0.5-3.2,1.1-6.4,1.6-9.6
				c1-5.6,2.1-11.3,3.7-16.8c0.3-1,0.6-1.9,0.9-2.8c1.5-4.9-2.8,5.1-0.3,0.7c0.5-0.8,1-1.7,1.4-2.5c2.2-4-2.8,2.7-1,1.2
				c3.2-2.5,0.1-0.2-1.4,0.8c3.7-2.3-5,1.9-2.5,0.9c4.6-1.8-2.8,0.9-2.9,0.3c0.6,0,1.1,0,1.7,0c1.3,0.1,0.8,0-1.7-0.3
				c-2.6-0.4-3-0.4-1.2,0c0.4,0.1,0.7,0.2,1.1,0.3c-1.4-0.6-2.7-1.1-4.1-1.7c1.5,1,1.3,0.7-0.8-0.8c-2-1.6-2.3-1.9-1-0.6
				c-0.9-1.2-1.8-2.4-2.8-3.6c-0.6-1.4-1.1-2.8-1.7-4.3c0.7,2.5,0.5,1.3-0.4-3.6c0.5,12.8,9.3,23.4,22.2,25.1
				c12.1,1.6,25.1-5.9,28.1-18.3c4.1-17.3,9.4-34.3,16-50.8c-14.3,3.8-28.5,7.5-42.8,11.3c3.1,2.7,6.1,5.4,9.2,8.1
				c7,6.1,15.6,9.1,24.9,6.6c7.7-2.1,16.7-9.4,17.9-17.9c0.9-6.8,2.4-13.4,4.6-19.8c0.5-1.4,1-2.8,1.5-4.2c2.1-5.7-2.5,5,0.2-0.4
				c1.6-3.2,3.2-6.3,5-9.4c5.3-8.9,4.2-20.4-2-28.4c-6.4-8.2-16.8-11.6-26.9-9.2c-23.7,5.8-29.8,40.8-7.9,53.1
				c11.2,6.3,24.9,4.8,34.5-4c7.7-7,11.8-19.6,8.1-29.6c-2.4-6.4-5.7-11.7-11.8-15.3c-5.5-3.2-13.6-4.6-19.7-2.6
				c-12.2,4-22.9,18.1-17.9,31.5c3.1-7.9,6.2-15.8,9.3-23.7c4.3-1.2,8.6-2.3,12.9-3.5c3.4,0.9,6.7,1.8,10.1,2.7
				c3.1,3.1,6.1,6.1,9.2,9.2c-4.4,10.5-8.7,21-13.1,31.5c-9.6-12.5-19.3-25.1-28.9-37.6c-8.4,14-14.3,29.8-16.6,46
				c14.3-3.8,28.5-7.5,42.8-11.3c-3.1-2.7-6.1-5.4-9.2-8.1c-7-6.1-15.6-9.1-24.9-6.6c-9.3,2.6-14.4,9.3-17.9,17.9
				c-6.6,16.5-12,33.5-16,50.8c16.7,2.3,33.5,4.5,50.2,6.8c-0.9-21.7-19.7-37.9-41.4-36.5c-22.2,1.4-36.5,18.8-42.5,39
				c-5,16.9-7,35-8.8,52.5c-1.8,16.8-2.5,33.7-2.4,50.6c16.7-2.3,33.5-4.5,50.2-6.8c-18.2-63.2-36.4-126.4-54.6-189.5
				c-3.5-12.3-15.5-20-28.1-18.3c-11.3,1.5-23.7,12.5-22.2,25.1c4.2,34.7,9.5,69.3,16,103.7c2.4,12.5,16.4,19.9,28.1,18.3
				c12-1.6,22.8-12.4,22.2-25.1c-1.9-39.5-1.6-79,0.6-118.5c-16.7,2.3-33.5,4.5-50.2,6.8c7.4,21.2,14.9,42.5,22.3,63.7
				c4.2,12.1,14.9,20.1,28.1,18.3c12.1-1.6,22.6-12.3,22.2-25.1c-0.6-18.4-1.2-36.7-1.8-55.1c-16.7,2.3-33.5,4.5-50.2,6.8
				c11.1,48.9,22.2,97.9,33.4,146.8c2.8,12.4,16.1,19.9,28.1,18.3c11.8-1.6,23.1-12.4,22.2-25.1c-2.2-30.5-4.5-60.9-6.7-91.4
				c-1.1-15-2.3-30-3.3-45c-0.4-6.5-0.7-12.9-0.3-19.4c0.1-1.7,0.5-3.5,0.5-5.2c0,6.4-0.2,2.1,0.2,0c0.8-3.4,1.9-6.7,3.2-9.9
				c-16.4,0-32.9,0-49.3,0c10.9,34.6,21.9,69.3,32.8,103.9c3.9,12.2,15.3,20,28.1,18.3c12.2-1.6,22.6-12.3,22.2-25.1
				c-0.6-20.2-1.2-40.4-1.8-60.6c-16.7,2.3-33.5,4.5-50.2,6.8c6.1,38.1,14.1,75.9,23.7,113.3c3.2,12.3,15.8,20,28.1,18.3
				c12.1-1.6,22.7-12.3,22.2-25.1c-1.1-26.6-2.2-53.2-3.4-79.9c-14.6,6-29.1,12.1-43.7,18.1c-4.3-5.1-1.9-2.6-1-0.9
				c1.5,2.6,0.2,3.3-0.3-1.4c0.2,1.9,1.4,3.9,2,5.7c2.1,6.3,4.1,13,7.6,18.6c7.9,12.6,21.9,22,37.1,22c17.8,0.1,32.3-13.3,35.2-30.5
				c2-11.7,3-23.5,2.2-35.4c-1.6-24-8-47.2-19.7-68.2c-11.2-20.2-27.1-36.8-45.7-50.3c-18.8-13.8-41.8-23.2-64.8-26.6
				c-7.1-1-13.3-1.2-19.7,2.6c-5.3,3.1-10.4,9.2-11.8,15.3c-3.1,13.7,4.1,27.4,17.9,31.5c8.6,2.5,17.1,5.3,25.5,8.4
				c4.2,1.5,8.4,3.1,12.5,4.8c1.5,0.6,5.2,1.4,6.2,2.5c-3.5-1.5-4-1.7-1.5-0.6c1,0.4,2.1,0.9,3.1,1.3c16.1,7.1,31.8,15.2,47,24.1
				c7.5,4.4,14.8,9,22,13.9c3.7,2.5,7.4,5.1,11,7.7c3.5,2.5,7.8,4.9,10.8,8c-4.9-5.2,0,0,1.4,1.2c1.7,1.4,3.5,2.8,5.2,4.2
				c3.5,2.8,6.9,5.7,10.2,8.7c6.7,5.9,13.3,12,19.6,18.3c7.8,7.7,21.5,10.1,31,4c8.9-5.8,15.8-18.1,11.8-28.9
				c-10-26.6-22.5-52.2-38.4-75.8c-15.3-22.7-33.5-47.1-59.2-58.7c-30-13.6-62.3-8.2-93.1-0.3c-27.3,7-53.9,17.3-78.9,30.1
				c-14,7.2-27.8,15-40,24.9c-13.5,10.9-24.4,27.9-22.8,45.8c1.8,20,20.2,31,38.5,22.1c2.6-1.3,5.3-2.5,8-3.8c1.1-0.5,2.2-1,3.2-1.4
				c4.2-1.9-0.7,0.2-1.2,0.5c5.1-2.8,11.2-4.4,16.6-6.3c10.6-3.6,21.5-6.6,32.5-8.7c2.3-0.4,4.6-0.8,6.9-1.2c5.9-1-4.6,0.5-0.7,0.1
				c1.5-0.2,2.9-0.3,4.4-0.5c5.5-0.6,11.1-0.9,16.6-0.9c5.2,0,10.5,0.1,15.7,0.6c1.5,0.1,2.9,0.3,4.3,0.4c1.8,0.2,4.1,1.3-1.6-0.2
				c2.8,0.7,5.8,0.9,8.6,1.5c4.5,0.9,9,2.1,13.4,3.5c2.3,0.7,4.5,1.5,6.8,2.4c0.9,0.3,1.8,0.7,2.7,1.1c-7.2-2.5-2.5-1-0.8-0.3
				c8.3,3.8,16.1,8.5,23.5,13.9c3.4,2.4-1.5-1.1-1.8-1.4c0.8,0.8,1.9,1.5,2.8,2.3c1.6,1.4,3.3,2.8,4.8,4.3c3.5,3.2,6.8,6.7,9.9,10.3
				c0.6,0.7,1.2,1.5,1.8,2.2c2.6,3.2-1.2-1.5-1.4-1.8c1.1,2,2.8,3.9,4.1,5.8c2.4,3.7,4.7,7.6,6.6,11.6c0.5,1,1,2.1,1.5,3.2
				c2,4.2-2.1-5.7-0.4-0.9c0.8,2.2,1.6,4.4,2.3,6.6c0.7,2.2,1.3,4.5,1.8,6.8c0.3,1.1,0.5,2.3,0.7,3.5c1,5.7-0.3-3.9-0.1-1.2
				c1.3,13.7-0.1,27.4,0.6,41.2c1,19.2,21.1,32.1,38.5,22.1c36.8-21.2,59.8-65.3,56.5-107.7c-1.9-24.7-11.3-45.9-26.5-65.2
				c-14.2-18-33.3-31.9-52.6-44c-21.5-13.4-44.8-25.2-69.4-31.7c-24.7-6.6-49.9-7.2-75-3.5c-47.9,7.2-89.8,35-117.7,74.2
				c-13.9,19.5-23.9,42.8-28.4,66.3c-5.8,30.5-3.7,60.9-0.8,91.6c0.7,6.9,2.4,13,7.5,18.1c4.4,4.4,11.7,7.8,18.1,7.5
				c14-0.6,25.4-11.2,25.6-25.6c0.1-11.3,0.6-22.6,1.6-33.9c0.5-5.6,1.1-11.2,1.8-16.9c0.7-6.2-0.6,3.9,0,0.3
				c0.2-1.6,0.4-3.1,0.7-4.7c0.4-2.8,0.9-5.6,1.3-8.4c3.9-22.6,9.5-44.9,16.9-66.6c-16.4-4.5-32.9-9.1-49.3-13.6
				c-19.1,59-9.3,127.6,26.3,178.6c4.7,6.8,10.4,11.1,18.7,12.2c7.4,1,16.4-0.9,21.5-7c12.2-14.6,19.9-33,17.9-52.3
				c-16.7,2.3-33.5,4.5-50.2,6.8c7.5,24.7,14.9,49.3,22.4,74c3.7,12.2,15.4,20,28.1,18.3c12.3-1.7,22.4-12.3,22.2-25.1
				c-0.8-47.6-1.5-95.2-2.3-142.9c-0.2-13.4-11.6-26.2-25.6-25.6C513.1,633.9,501,644.6,501.2,658.9L501.2,658.9z"/>
		</g>
	</g>
	<g class="st1">
		<g>
			<path class="st2" d="M491,639.3c-0.2-9-0.2-18,0.2-27.1c0.2-4.3,0.7-8.5,1.1-12.8c0.4-3.6-1.1,6.8-0.2,1.6c0.2-1,0.3-2,0.5-2.9
				c0.4-2.4,0.9-4.9,1.4-7.3c0.9-3.8,1.9-7.6,3.2-11.2c0.4-1.1,0.8-2.3,1.2-3.4c1.1-3.1-2.3,5.1-0.9,2.1c1-2.2,2-4.3,3.2-6.4
				c1-1.9,2.2-3.7,3.4-5.4c0.5-0.8,1.2-1.5,1.7-2.3c-3.4,5.3-2.5,3.1-1.3,1.8c1.4-1.6,2.9-3.2,4.5-4.8c0.7-0.7,1.5-1.4,2.2-2
				c0.6-0.5,1.2-1.1,1.9-1.6c-2.9,2.1-3.5,2.7-2,1.5c3.8-2.5,7.7-5,11.8-7c1-0.5,2-0.9,2.9-1.4c4-1.9-1.1,0.5-1.6,0.6
				c2.6-0.7,5.1-2,7.7-2.9c10-3.4,20.4-6.1,30.6-8.7c11.3-2.8,22.6-5.3,34-7.3c2.5-0.4,5.1-0.8,7.6-1.2c1.2-0.2,2.6-0.5,3.8-0.6
				c-6,0.4-2.4,0.3-1.1,0.2c6.1-0.7,12.1-1.3,18.2-1.7c11.2-0.7,22.5-0.8,33.7-0.1c4.9,0.3,9.8,1,14.7,1.4c-0.5,0-6.3-1-1.9-0.2
				c1.1,0.2,2.2,0.3,3.3,0.5c2.7,0.5,5.4,1,8.1,1.5c9.6,2,19.2,4.7,28.4,8.2c1,0.4,2,0.8,3.1,1.2c4.1,1.6-1.1-0.5-1.6-0.7
				c2.2,1.1,4.5,2,6.7,3c4.7,2.2,9.2,4.7,13.6,7.3c3.7,2.2,7.4,4.6,10.9,7.2c-0.2-0.2,2.6,2,2.6,1.9c-0.3,0.3-4.7-3.7-0.7-0.5
				c2.1,1.7,4.1,3.5,6.1,5.3c3.3,3,6.4,6.2,9.4,9.6c0.9,1,2.9,4.5,4.1,4.8c-2.3-0.7-3.1-4.1-0.6-0.8c0.8,1.1,1.5,2.1,2.3,3.2
				c2.7,3.9,5.2,8,7.4,12.1c1,1.9,2,3.7,2.9,5.6c0.5,0.9,0.9,1.9,1.3,2.9c2.4,5.1-2.1-5.6-0.2-0.3c1.5,4.2,3,8.4,4.1,12.7
				c0.6,2.3,1.1,4.6,1.6,6.9c0.2,1,0.4,2,0.6,3.1c0.1,0.8,0.3,1.5,0.4,2.3c0.3,2,0.2,1-0.4-2.9c-0.3,2.4,0.5,5.3,0.6,7.8
				c0.1,2.6,0.1,5.2,0,7.8c-0.1,2.1-1.1,5.9-0.6,7.8c-0.1-0.4,1.1-6.5,0.3-2.1c-0.3,1.6-0.6,3.3-0.9,4.9c-1.1,5.4-2.6,10.7-4.5,15.8
				c-0.4,1-0.8,2-1.2,3.1c-1.8,4.7,2.4-5,0,0c-1.2,2.5-2.3,5-3.6,7.4c-5,9.7-10.9,18.8-17.3,27.6c-1.7,2.3-3.4,4.5-5,6.8
				c-2.2,3,3.9-5,0.4-0.5c-0.9,1.1-1.7,2.2-2.6,3.3c-3.7,4.6-7.4,9.1-11.2,13.6c14.3,8.3,28.5,16.6,42.8,24.9
				c19.6-51.1,21.7-109.3-0.3-159.8c-22.1-50.8-72.2-84.1-124.7-96.8c-34-8.3-69.4-9.2-104.2-6.6c8.5,8.5,17.1,17.1,25.6,25.6
				c-0.2,1.5-0.4,3-0.7,4.6c0.5-1.8,0.3-1.4-0.6,1c-0.3,0.7-0.6,1.4-0.9,2.1c1.4-2.1,0.7-1.2-2.1,2.7c2.5-2.7-5.6,3.9-0.7,0.7
				c3.9-2.5-6.2,1.9-1.6,0.7c0.8-0.2,1.6-0.5,2.4-0.7c0.8-0.2,1.6-0.4,2.5-0.6c5.3-1.1-1-0.6-1.9,0.2c1-0.9,7-0.5,8.2-0.6
				c2.6-0.2,5.2-0.3,7.8-0.5c6.5-0.4,13-0.8,19.5-1c12.3-0.5,24.7-0.7,37.1-0.2c5.8,0.2,11.7,0.6,17.5,1.2c1.6,0.2,3.2,0.4,4.8,0.5
				c4.1,0.4-6.4-1,0,0c2.8,0.4,5.5,0.9,8.3,1.4c10.1,1.9,20,4.6,29.6,8.1c1.3,0.5,2.5,0.9,3.8,1.4c0.3,0.1,0.5,0.2,0.8,0.3
				c2.5,1,2,0.8-1.6-0.7c1.1,1.3,4.3,1.9,5.9,2.7c4.8,2.3,9.5,4.9,14,7.7c2.3,1.4,4.5,2.9,6.6,4.5c0.9,0.6,1.7,1.3,2.6,1.9
				c-5.1-3.3-2.6-2.1-1.4-1c4.1,3.5,8,7,11.7,10.9c1.6,1.7,3,3.5,4.5,5.2c2.3,2.7-3.8-5.3-0.7-0.9c0.6,0.8,1.2,1.7,1.8,2.5
				c2.9,4.3,5.5,8.7,7.7,13.4c0.2,0.4,0.8,2.4,1.3,2.8c-1.5-3.7-1.8-4.4-0.8-1.8c0.2,0.5,0.4,1,0.6,1.4c1.1,2.9,2,5.8,2.8,8.8
				c0.7,2.5,1.2,5,1.7,7.5c0.1,0.8,0.2,2.2,0.5,3c-0.5-4.3-0.7-5-0.3-2.3c0,0.5,0.1,1,0.1,1.5c0.2,2.8,0.3,5.6,0.3,8.3
				c0,2.7-0.7,5.7-0.5,8.3c-0.4-5.2,0.7-4.6,0.3-2.3c-0.3,1.5-0.6,3-0.9,4.5c-0.7,3-1.6,5.9-2.7,8.8c-4.5,12.6,5.1,28.6,17.9,31.5
				c14.4,3.3,26.6-4.4,31.5-17.9c8.5-23.6,7.2-51.5-1.9-74.8c-10.4-26.3-27.3-47.2-50.3-63.6c-44.3-31.7-101.8-36.1-154.5-33.8
				c-15.3,0.7-31.6,0.5-46.6,4c-19.2,4.5-33.5,18.4-34.7,38.6c-0.8,13.1,12.4,26.6,25.6,25.6c14.4-1.1,28.9-1.6,43.4-1.2
				c6.3,0.2,12.6,0.6,18.8,1.1c1.9,0.2,3.7,0.4,5.6,0.6c0.4,0,6.6,0.9,2.2,0.2c-4.4-0.6,1.8,0.3,2.2,0.4c2.5,0.4,4.9,0.8,7.4,1.3
				c12.4,2.4,24.5,5.7,36.3,10.3c0.5,0.2,1,0.4,1.5,0.6c2.5,1,2,0.8-1.7-0.8c0.8,0.5,2.1,0.9,2.9,1.3c2.9,1.3,5.7,2.7,8.5,4.1
				c5.1,2.7,10.1,5.6,15,8.7c2.2,1.4,4.4,2.9,6.5,4.5c0.4,0.3,0.8,0.6,1.3,0.9c2.2,1.6,1.7,1.3-1.4-1.1c0.6,1,2.7,2.2,3.6,3
				c4.4,3.7,8.6,7.7,12.5,11.9c1.1,1.2,2.1,2.3,3.1,3.5c0.6,0.7,2.2,3.4,3,3.6c-0.3-0.1-3.7-5.1-1.1-1.4c0.9,1.3,1.8,2.5,2.7,3.8
				c3.4,4.9,6.4,10,9,15.2c1.3,2.5,2.2,5.2,3.6,7.6c-3.2-5.6-1.3-3.1-0.6-1.1c0.5,1.2,0.9,2.4,1.3,3.6c2.1,5.8,3.7,11.7,5.1,17.7
				c0.6,2.5,1.1,5,1.5,7.6c0.3,1.5,0.3,3.2,0.7,4.6c-0.1-0.4-0.7-6.6-0.3-2.2c0.6,6.2,1.1,12.4,1.2,18.7c0.1,6.3-0.2,12.6-0.7,18.8
				c-0.1,1.6-0.3,3.1-0.5,4.7c-0.1,1-0.2,2.1-0.4,3.1c0.5-3.9,0.7-4.9,0.4-2.9c-0.5,3.4-1.1,6.8-1.7,10.1
				c-2.5,12.9-6.2,25.5-10.9,37.7c-3.9,10.1,2.5,24,11.8,28.9c9.4,5,23.6,4.9,31-4c30.1-36.3,60.3-75.9,61.2-125.3
				c0.8-48.3-25.5-92.5-63-121.3c-36.8-28.2-84.6-39.9-130.4-39.9c-26.7,0-53.4,3.8-79.4,9.5c-23.2,5.1-47.2,10.8-68.4,21.7
				c-24.2,12.4-40.5,34.4-48.5,60.1c-7.1,22.6-7.7,47.1-7.1,70.6c0.3,13.4,11.5,26.2,25.6,25.6C479,664.3,491.3,653.7,491,639.3
				L491,639.3z"/>
		</g>
	</g>
	<g class="st1">
		<g>
			<path class="st2" d="M598.2,774.9c0.5-1.2,2-4.6,0.6-1.5c-0.5,1-0.9,2-1.4,3c-1.1,2.3-2.3,4.5-3.5,6.7c-2.3,4.1-4.8,8.2-7.5,12
				c-0.6,0.9-1.3,1.8-2,2.7c-2,2.7,0-0.4,0.9-1.2c-1.6,1.3-2.9,3.5-4.3,5.1c-3.3,3.8-6.9,7.3-10.6,10.7c14.3,3.8,28.5,7.5,42.8,11.3
				c-4.2-22-12.6-43.5-24-62.8c-5.6-9.4-18.2-15.2-28.9-11.8c-4.2,1.4-8,3.6-11.3,6.6c-5.3,4.9-6.6,11.3-7.5,18.1
				c-2.2,17-4.5,34-6.7,51c16.7-2.3,33.5-4.5,50.2-6.8c-3-13.1-6-26.2-8.9-39.2c-15.6,6.6-31.2,13.1-46.8,19.7
				c11.2,15.1,24.5,27.9,41.1,37c16.3,9,33.5,13.9,51.9,16c17.1,1.9,34.8-0.6,51-6c17.2-5.7,33.4-14.3,50.9-19.3
				c18.7-5.4,24.7-28.9,11.3-42.8c-6-6.2-12.1-12.5-18.1-18.7c-2.9-3-5.9-6-8.7-9c-0.7-0.8-1.5-1.6-2.2-2.4c0.7,0.8,1.3,1.7,2,2.5
				c-1.4-2.4-1.3-1.8,0.4,1.9c0.8,4.4,0.1,8.6-2.2,12.6c-9.6,3.9-19.3,7.8-28.9,11.8c27.2,9.3,54.5,18.6,81.7,27.8
				c10.2,3.5,23.9-2.2,28.9-11.8c5.7-10.9,3.4-21.7-4-31c-14.2-17.8-33.2-30.1-54-38.7c-2.3,16.7-4.5,33.5-6.8,50.2
				c1.3,0,2.7-0.1,4,0c1.1,0,4.5,0.8,0.6-0.1c-5.6-1.2-9.7-5-11.3-10.6c-2.5-9.1,0.7-14,5.9-18.8c2.9-2.7,0.4-0.5-0.8,0.1
				c-2.5,1.3-5,2.4-7.5,3.7c-11.1,5.4-22.2,10.8-33.2,16.2c-22.2,10.8-44.3,21.6-66.5,32.4c12.8,7.4,25.7,14.7,38.5,22.1
				c0-0.1,0-3.2-0.1-3.3c0.3,0.2-1.3,7.6-0.2,3.3c0.7-2.7-3.2,6-1.1,2.8c0.1-0.1,1.7-2.7,1.7-2.7c0.3,0.3-4.8,5.6-1.5,2.2
				c0.7-0.7,1.3-1.4,2-2.1c1.5-1.6,3.1-3,4.7-4.5c8.9-8.3,16.5-17.4,20.3-29.2c4.1-12.7-4.8-28.5-17.9-31.5
				c-14-3.2-27.1,4.2-31.5,17.9c-1.3,4.1,3.2-5.6,0.9-1.9c-0.1,0.2-1.5,2.9-1.8,2.9c0.1,0,4.7-5.5,1.5-2c-0.7,0.7-1.3,1.5-2,2.2
				c-3.2,3.3-6.7,6.3-10,9.5c-9.5,9.5-17.5,22.4-16.3,36.4c1.8,20,20.2,31,38.5,22.1c28.2-13.7,56.3-27.4,84.5-41.1
				c16-7.8,34.9-13.8,41-32.4c4-12-1.1-26.7-10.7-34.6c-9.2-7.6-20.1-10.2-31.9-10c-12.8,0.2-23.4,9.5-25.1,22.2
				c-1.8,13.6,6.4,23.1,18.3,28.1c-7.2-3-0.1,0.1,1.4,0.8c2,1,3.9,2,5.8,3.1c1.9,1.1,3.7,2.3,5.6,3.5c0.9,0.6,1.8,1.2,2.7,1.9
				c1.8,1.3,1.8,1.3,0,0c-1.7-1.3-1.7-1.3,0,0c0.8,0.7,1.7,1.4,2.5,2.1c1.7,1.4,3.3,2.9,4.8,4.4c3.1,3.1,6,6.3,8.7,9.8
				c8.3-14.3,16.6-28.5,24.9-42.8c-27.2-9.3-54.5-18.6-81.7-27.8c-9.6-3.3-24.6,1.9-28.9,11.8c-4,9.3-6,18.4-2.4,28.3
				c3.1,8.3,8.2,14.9,14.3,21.2c8.3,8.6,16.6,17.1,24.8,25.7c3.8-14.3,7.5-28.5,11.3-42.8c-15.8,4.5-30.5,11.9-45.9,17.6
				c-7.5,2.7-15,4.8-22.8,6.3c-5,0.9,6.6-0.7,0.2-0.1c-1.7,0.2-3.4,0.3-5.1,0.3c-3.4,0.1-6.9,0.1-10.3-0.2c-1.5-0.1-2.9-0.3-4.4-0.4
				c-4.6-0.4,6.6,1.2-0.5-0.2c-3.4-0.6-6.7-1.4-10-2.4c-3.2-0.9-6.5-2.8-9.7-3.4c3.6,1.6,4.5,1.9,2.7,1.2c-0.7-0.3-1.3-0.6-2-0.9
				c-1.8-0.8-3.5-1.7-5.3-2.6c-3-1.6-6-3.4-8.8-5.3c-1.2-0.8-2.4-1.7-3.6-2.5c-2.1-1.6-1.6-1.2,1.7,1.3c-0.8-0.6-1.5-1.2-2.3-1.9
				c-2.4-2.1-4.7-4.3-6.9-6.6c-1.2-1.2-2.3-2.5-3.5-3.8c-0.6-0.7-1.3-1.5-1.9-2.3c2.5,3.3,2.9,3.8,1.3,1.7
				c-7.7-10.3-19.3-15.8-31.9-10.5c-12,5.1-17.7,17.6-14.8,30.2c3,13.1,6,26.2,8.9,39.2c2.8,12.4,16.1,19.9,28.1,18.3
				c5.4-0.7,10.9-2.9,14.7-7c4.9-5.4,6.5-11,7.5-18.1c2.2-17,4.5-34,6.7-51c-15.9,4.3-31.8,8.6-47.7,12.9c2.4,4.1,4.7,8.3,6.8,12.6
				c0.9,1.8,1.7,5.1,3,6.5c-0.9-0.9-1.8-4.4-0.5-1.2c0.5,1.4,1.1,2.8,1.6,4.2c3.4,9.2,6,18.8,7.9,28.4c1.6,8.6,9.8,15.6,17.9,17.9
				c9.1,2.5,18.1-0.4,24.9-6.6c18.4-16.8,31.4-37.3,40.9-60.1c2.4-5.7,0.4-14.7-2.6-19.7c-3.1-5.3-9.2-10.4-15.3-11.8
				c-6.5-1.5-13.9-1.2-19.7,2.6C604,763.4,600.9,768.4,598.2,774.9L598.2,774.9z"/>
		</g>
	</g>
	<g class="st1">
		<g>
			<path class="st2" d="M765.8,805.3c13.7-0.7,27.4-0.7,41.1,0.2c6.4,0.4,12.8,1,19.1,1.7c1.5,0.2,7.5,1.4,0.5,0
				c1.2,0.2,2.4,0.3,3.6,0.5c3.9,0.6,7.8,1.2,11.7,1.9c13.5,2.5,26.8,5.7,39.9,9.7c5.8,1.8,11.6,3.7,17.3,5.8
				c3.2,1.1,6.3,2.3,9.4,3.6c1.4,0.6,2.8,1.1,4.2,1.7c2.6,1.1,2.3,0.9-1.1-0.4c1.1,0.5,2.1,0.9,3.2,1.4
				c10.9,4.8,21.6,10.3,31.3,17.3c0.9,0.6,4.9,2.4,1.3,0.9c-3.4-1.4,0.2,0.2,1.2,1c2,1.7,4,3.6,5.9,5.5c0.7,0.7,6.8,6.6,6.4,7.2
				c-0.1,0.2-3.1-4.5-1-1.2c1.2,1.9,2.5,3.7,3.6,5.6c1.4,2.4,2.7,4.8,3.9,7.3c0.2,0.4,2.3,4.3,2.1,4.5c0.3-0.4-2.2-5.5-0.4-0.7
				c2.3,6,4.1,12.2,5.7,18.5c1.4,5.7,2.6,11.5,3.7,17.3c0.6,3.5,1.2,7,1.8,10.5c0.3,1.6,0.5,3.2,0.7,4.8c0.2,1.5,1.4,8.9,0.3,1.9
				c5,32,5.2,65.3,3.1,97.5c-0.9,13.4,12.4,26.2,25.6,25.6c14.6-0.7,24.7-11.2,25.6-25.6c2-30.6,1.2-61.3-2.4-91.7
				c-3.6-30.2-8.1-60.8-21.5-88.4c-12.8-26.3-36.2-45.2-62.1-57.9c-26.1-12.8-54-22.5-82.5-28.7c-33.2-7.2-67.4-10.3-101.3-8.5
				c-13.3,0.7-26.2,11.3-25.6,25.6C740.8,793,751.5,806.1,765.8,805.3L765.8,805.3z"/>
		</g>
	</g>
	<g class="st1">
		<g>
			<path class="st2" d="M1012.2,1005.5c-26.2-0.1-52.3-0.1-78.5-0.2c8.5,8.5,17.1,17.1,25.6,25.6c0-1.7-0.7-7.9,0.4-9
				c-0.1,1.1-0.3,2.1-0.4,3.2c0.1-0.9,0.3-1.8,0.4-2.7c0.3-1.5,0.6-3,0.9-4.5c1.3-6,3-11.8,4.7-17.7c3.4-11.7,6.3-23.4,8.1-35.5
				c3.9-26.5,4.7-53,4.9-79.7c-17.1,0-34.1,0-51.2,0c5.9,51.4,11.8,102.7,17.6,154.1c0.8,7,2.3,12.9,7.5,18.1
				c4.4,4.4,11.7,7.8,18.1,7.5c14.2-0.6,25.1-11.2,25.6-25.6c0.5-15.2,1-30.4,1.5-45.6c0.4-13.4-12.1-26.2-25.6-25.6
				c-14.2,0.6-25.1,11.2-25.6,25.6c-0.5,15.2-1,30.4-1.5,45.6c17.1,0,34.1,0,51.2,0c-5.9-51.4-11.8-102.7-17.6-154.1
				c-0.8-7-2.3-12.9-7.5-18.1c-4.4-4.4-11.7-7.8-18.1-7.5c-14,0.6-25.5,11.2-25.6,25.6c-0.1,12.7-0.2,25.3-0.8,38
				c-0.3,6-0.7,12-1.2,18c-0.3,3.1-0.6,6.3-1,9.4c-0.2,1.8,0.2,5.8,0-0.2c0,1.5-0.5,3.2-0.7,4.7c-4.2,25.5-15.4,49.8-15.3,76
				c0,13.9,11.7,25.5,25.6,25.6c26.2,0.1,52.3,0.1,78.5,0.2c13.4,0,26.2-11.8,25.6-25.6C1037.2,1017.2,1026.5,1005.6,1012.2,1005.5
				L1012.2,1005.5z"/>
		</g>
	</g>
	<g class="st1">
		<g>
			<path class="st2" d="M988.9,965.6c-10.5-54.6-35.5-105.2-70.5-148.2c-10.3,13.4-20.7,26.8-31,40.2c5,2.7,9.9,5.7,14.7,8.8
				c2.1,1.4,4.3,2.9,6.3,4.4c1.1,0.8,2.5,1.6,3.4,2.6c-1.8-1.9-3.3-2.6-0.5-0.3c8.7,7.1,16.6,14.9,23.9,23.4
				c10.3-13.4,20.7-26.8,31-40.2c-66.8-43.8-142.8-79.3-224.2-78.8c-23.7,0.1-47.7,3.5-70.5,10.2c-10.4,3.1-19.3,13.3-18.8,24.7
				c0.5,10.5,7.5,22.7,18.8,24.7c53,9.5,106.6,22,157,41.4c2.7,1,5.3,2.1,8,3.2c5.4,2.1-4-1.8-0.6-0.3c1.3,0.6,2.6,1.1,3.9,1.7
				c5.7,2.5,11.3,5.2,16.9,8.1c11,5.7,21.7,12.2,31.8,19.5c0.4,0.3,5,3.4,1.5,1.1c-3.5-2.3,1,0.8,1.4,1.2c2.1,1.7,4.3,3.5,6.3,5.3
				c4.6,4.1,9,8.4,13.1,12.9c2,2.2,3.9,4.4,5.8,6.7c0.1,0.1,1.7,2.4,2,2.5c-0.7-0.9-1.4-1.8-2-2.6c0.6,0.9,1.3,1.7,1.9,2.6
				c3.5,4.7,6.7,9.7,9.6,14.8c1.6,2.8,3.1,5.6,4.5,8.4c0.7,1.4,1.3,2.9,2,4.3c2.4,5.1-2.1-5.6-0.1-0.3c2.2,5.9,4.3,11.8,5.7,18
				c0.7,3.1,1.3,6.1,1.8,9.2c1,5.6-0.5-6.3-0.1-0.6c0.1,1.6,0.3,3.1,0.4,4.7c0.4,6.8,0.2,13.6-0.6,20.4c14.6-6,29.1-12.1,43.7-18.1
				c-33.5-32.2-66.1-65.9-102.1-95.3c-36.5-29.7-76.6-53-121.5-67.6c-24.8-8-50.4-12.8-76.3-15.4c0,17.1,0,34.1,0,51.2
				c11.7-0.7,23.5-0.6,35.2,0.1c5.5,0.3,11.1,0.8,16.6,1.5c1.2,0.1,2.5,0.5,3.7,0.4c-5.5,0.1-3.1-0.4-1.3-0.2
				c3.4,0.5,6.7,1,10.1,1.6c22.7,3.9,44.9,9.8,66.8,17c11,3.6,21.8,7.5,32.6,11.6c5.2,2,10.5,4,15.7,6.1c2.6,1,5.2,2.1,7.8,3.2
				c1.4,0.6,2.8,1.1,4.1,1.7c0.5,0.2,1,0.4,1.6,0.6c2.6,1.1,2.1,0.9-1.4-0.6c4.5,0.8,9.7,4.2,13.9,6.2c4.6,2.2,9.1,4.5,13.5,7
				c4.4,2.5,8.6,5.1,12.7,8c0.4,0.3,5,3.5,1.4,1c-3.5-2.4,0.9,0.8,1.3,1.1c2.1,1.8,4.2,3.7,6.2,5.6c1.9,1.9,3.6,3.8,5.3,5.8
				c3,3.4-1.1-1.1-1-1.4c-0.1,0.7,2.2,3.1,2.7,3.9c1.6,2.4,3.1,5,4.4,7.5c0.3,0.7,1.1,3.3,1.7,3.6c-0.4-1.1-0.9-2.1-1.3-3.2
				c0.4,1,0.8,2,1.1,2.9c0.9,2.5,1.6,5,2.2,7.5c0.2,1,0.4,2,0.6,3c1.2,5.3-0.3-6.1-0.2-0.7c0.1,2.6,0,5.1,0,7.7c0,5.3,1-4.9,0.3-1.4
				c-0.4,1.8-0.7,3.6-1.2,5.3c8.2-6.3,16.4-12.5,24.7-18.8c-19.5,1.2-33.1,14.3-38.7,32.5c-2,6.6-2.2,13.7-2.8,20.6
				c-0.1,1.2-0.2,2.5-0.3,3.7c-0.3,3.2,1.3-6.1,0.1-1.7c-0.3,1.2-1,2.9-1.2,4.1c0.5-1.2,0.9-2.4,1.4-3.5c-1.4,2.2-0.9,1.7,1.6-1.7
				c8.3-2.2,16.6-4.4,24.9-6.6c-77.4-32-164.1-28.9-246.2-29.2c-88.6-0.3-177.1-0.6-265.7-0.9c-49.3-0.2-99.3-1.4-147.6,10.4
				c10.5,6,21,11.9,31.5,17.9c-0.9-2.4-1.7-4.9-2.3-7.4c-0.3-1.1-0.4-2.2-0.7-3.3c-0.9-3.4,0.4,5.3,0.2,1.8c-0.4-5.1-0.3-10,0-15.1
				c0.2-3.5-0.9,5.2-0.2,1.8c0.3-1.4,0.5-2.8,0.8-4.2c0.5-2.3,1-4.5,1.7-6.7c1.4-5,4-9.9,5.2-15c-0.2,0.7-2.4,5.3-0.5,1.2
				c0.5-1.1,1-2.2,1.5-3.3c1-2.2,2.1-4.3,3.2-6.5c2.4-4.8,5.1-9.5,7.8-14.1c5.2-8.9,10.5-17.7,16.2-26.3c2.7-4.2,5.6-8.3,8.5-12.4
				c0.7-1,1.4-1.9,2.1-2.8c2.7-3.6-0.3,0.6-0.8,1c2.1-1.8,3.8-4.7,5.6-6.8c6.3-7.3,13.3-13.8,20.7-20c4.3-3.6-3.6,2.6-0.6,0.5
				c0.9-0.6,1.8-1.3,2.6-1.9c1.8-1.3,3.6-2.5,5.4-3.7c4.1-2.7,8.3-5.3,12.7-7.6c4.1-2.2,8.3-4.3,12.5-6.3c1-0.5,2-0.9,3-1.4
				c4-1.8-1,0.4-1.5,0.6c2.6-0.9,5.1-2.1,7.7-3c8.8-3.3,17.8-6,26.9-8.3c10.5-2.6,21.9-5.8,32.7-6.3c-0.7,0-5.8,0.7-1.1,0.1
				c1.3-0.2,2.5-0.3,3.8-0.5c2.6-0.3,5.1-0.6,7.7-0.8c5.8-0.6,11.5-1,17.3-1.4c11.2-0.8,22.5-1.2,33.8-1.6
				c5.5-0.2,10.9-0.3,16.4-0.5c1.3,0,2.6,0,3.9-0.1c2.3-0.2,2.8,1.1-2.3-0.6c-2.1-5-4.1-9.9-6.2-14.9c-8-7-9.3-13-3.7-18
				c-0.3,0.3-0.6,0.7-0.9,1c-2,1.8-1.3,1.3,1.9-1.4c-0.7-0.3-5.2,2.7-6,3.1c-2.1,1-4.4,2.3-6.6,3c6.4-2-0.6,0.2-2.3,0.8
				c-2.8,1.1-5.7,2.1-8.5,3.1c-20,6.9-40.5,12.1-60.5,19.2c-45,15.9-87.7,37.8-126.5,65.6c-9,6.4-15.4,17.5-11.8,28.9
				c3.7,11.5,12.9,17.7,24.7,18.8c35.5,3.3,71-0.2,106.4-2.6c17.7-1.2,35.5-2.2,53.3-1.9c8.6,0.2,17.2,0.6,25.7,1.6
				c0.9,0.1,1.8,0.2,2.6,0.3c4.6,0.5-0.9-0.1-1.5-0.2c2,0.5,4.1,0.6,6.1,1c4.4,0.7,8.7,1.6,13,2.6c4,1,8,2.1,12,3.3
				c2,0.6,4,1.3,5.9,2c1.1,0.4,2.2,0.9,3.4,1.2c3.5,1.1-4.7-2.4-2.1-0.9c1.4,0.8,2.9,1.6,4.3,2.4c3.6,2.2-4.4-3.7-0.5,0
				c1.9,1.7-2.5-3.6-2.8-4.6c-1.5-3.8-0.7-1.7-0.4-0.8c-0.7-2.9-0.9-5.8-0.2-8.7c0.4-1.6,2.1-6,3.8-6.7c0,0-1.9,1.6-2,1.9
				c0.2-0.4,5.2-3.7,1.8-1.5c-1.7,1.1-3.4,2.3-5.1,3.5c-3.7,2.5-7.4,4.9-11.1,7.3c-7.2,4.6-14.6,9-22,13.2
				c-15.1,8.6-30.7,16.5-46.5,23.6c-1.6,0.7-3.2,1.4-4.9,2.1c-1.5,0.6-8.7,3.1-2,0.9c-4.2,1.4-8.2,3.4-12.3,5c-8,3.1-16,6-24.1,8.7
				c-18.5,6.2-37.3,11.4-56.3,15.4c-4.6,1-9.2,1.8-13.9,2.6c-0.7,0.1-3.8,0.6-0.1,0c4.2-0.6-1,0.1-1.9,0.2c-2.3,0.2-4.7,0.4-7,0.5
				c-2.3,0.1-4.7,0.1-7,0c-1.2,0-2.3-0.1-3.5-0.2c-0.9-0.1-6-0.5-1.8-0.1c3.7,0.3,0.8,0.1,0-0.1c-1.4-0.3-2.8-0.6-4.2-1
				c-2.5-0.7-5-1.5-7.4-2.4c0,16.4,0,32.9,0,49.3c34.6-14,70.4-25.1,107-32.9c9.1-2,18.3-3.7,27.5-5.2c4.3-0.7,8.6-1.4,12.9-2
				c1.5-0.2,9.9-1.6,2.5-0.4c2.5-0.4,4.9-0.6,7.4-0.9c18.6-2.2,37.2-3.6,55.9-4.2c-2.3-16.7-4.5-33.5-6.8-50.2
				c-3.2,0.5-6.4,1-9.6,1.5c-1.3,0.2-2.6,0.4-3.9,0.6c-6.4,0.9,3.8-0.4,0.1,0c-6.1,0.7-12.2,1.5-18.4,2c-12.3,1.2-24.6,1.9-36.9,2.2
				c-24.6,0.7-49.3-0.3-73.8-2.9c6,14.6,12.1,29.1,18.1,43.7c-1.9,1.6-3.7,2.7-0.6,0.5c1.1-0.8,2.2-1.5,3.4-2.3
				c2.1-1.3,4.2-2.5,6.4-3.6c1.1-0.6,2.7-1,3.7-1.8c-0.9,0.7-4.9,1.8-1.6,0.7c2.6-0.9,5.1-1.8,7.8-2.6c2.4-0.7,4.8-1.2,7.2-1.6
				c2.1-0.4,5.2,0.1-1.1,0.1c1.1,0,2.2-0.2,3.3-0.3c5.4-0.4,10.9-0.2,16.3,0.4c-4.3-15.9-8.6-31.8-12.9-47.7
				c-3.1,1.4-6.1,2.8-9.2,4.1c-1.7,0.8-1.1,0.5,1.9-0.8c-0.8,0.4-1.7,0.7-2.6,1c-1.4,0.6-2.8,1.1-4.3,1.7
				c-6.3,2.4-12.7,4.7-19.1,6.7c-12.9,4-26,7.3-39.3,9.7c-3,0.5-6,1-9.1,1.5c-1.2,0.2-2.4,0.4-3.6,0.5c1.1-0.1,2.1-0.3,3.2-0.4
				c-1.7,0-3.8,0.5-5.5,0.6c-6.7,0.7-13.4,1.3-20.2,1.6c-6,0.3-11.9,0.4-17.9,0.2c-4.8-0.1,1.6,0.7,2.3,0.4c-1,0.4-2.7-0.9-3.7-0.9
				c4,1.8,5.1,2.3,3.3,1.4c-1.7-1-0.8-0.2,2.8,2.3c-3-2.8,3.2,5.4,1.3,1.3c-3.1,11.7-6.1,23.3-9.2,35c4.5-3.4,9.2-6.4,14.1-9.1
				c2.5-1.3,5-2.6,7.5-3.7c4.3-2-3.7,1.3-0.7,0.3c1.3-0.5,2.6-1,3.9-1.5c5-1.8,10.2-3.2,15.4-4.2c1.4-0.3,2.8-0.5,4.1-0.7
				c5.6-1-4.3,0.3-1,0.1c3.1-0.2,6.1-0.5,9.2-0.6c-2.3-16.7-4.5-33.5-6.8-50.2c-2.3,0.8-4.6,1.5-7,2.1c-1.1,0.3-2.1,0.5-3.2,0.7
				c-0.8,0.2-4.7,0.8-0.6,0.2c4.4-0.7-0.5,0-1.5,0c-1.1,0.1-2.2,0.1-3.3,0.1c-2.5,0-4.9-0.2-7.3-0.3c-3.3-0.1,5.2,1,2,0.3
				c-1.1-0.2-2.1-0.4-3.2-0.6c-2.4-0.5-4.7-1.2-7.1-1.9c-0.9-0.3-2.1-1-3.1-1.1c1.1,0.1,4.8,2.2,1.6,0.7c-2.4-1.2-4.8-2.5-7.1-3.9
				c0,14.7,0,29.4,0,44.2c1.5-0.8,3.1-1.6,4.7-2.4c0.5-0.2,1.1-0.5,1.6-0.7c2.6-1.1,2.1-1-1.3,0.5c1.6-1.5,6-2.3,8.1-3
				c6.6-2.2,13.4-3.8,20.2-5.1c2.7-0.5,7.7-2.4,10.4-1.7c-3.1-0.8-4.5,0.5-1.6,0.2c1.8-0.2,3.5-0.4,5.3-0.6c7-0.7,14-1.3,21.1-1.7
				c29.9-2,59.9-3.3,89.8-4.4c60.3-2.1,120.6-2.6,180.8-2.5c34.1,0,68.3,0.3,102.4,0.5c-7.4-4.2-14.7-8.4-22.1-12.7
				c-0.6-1.4-1.2-2.7-1.9-4.1c0-4.5,0-9.1,0-13.6c0.8-1.4,1.7-2.8,2.5-4.2c1.1-2.9,2.9-5,5.6-6.5c-0.7,0.5-3.2,1.8,0.5-0.1
				c3.5-1.8,1-0.6-0.1-0.3c-1.3,0.2-2.5,0.6-3.8,0.9c-4.7,1.2-9.5,2.3-14.2,3.5c-9.2,2.2-18.3,4.3-27.5,6.3
				c-18.1,4-36.2,7.7-54.4,11.2c-36.7,7-73.6,13.1-110.5,18.9c-21.2,3.3-42.4,6.5-63.6,9.7c-5.7,0.9-12.7,6.8-15.3,11.8
				c-2.7,5.2-3.8,10.5-3,16.3c1.7,12.5,12.3,22.1,25.1,22.2c105.6,0.4,211.3,1.7,316.9,1.2c28.2-0.1,57.6-1.8,84.1-12.4
				c12-4.8,20.1-14.5,18.3-28.1c-1.6-11.9-12.4-23-25.1-22.2c-8.5,0.5-17,0.5-25.5-0.1c-2.2-0.2-4.5-0.4-6.7-0.6
				c-0.8-0.1-1.7-0.2-2.5-0.3c-3.5-0.4,5.3,0.8,1.8,0.3c-4.2-0.7-8.3-1.3-12.5-2.1c-16.7-3.3-33.1-8.3-49.2-13.9
				c-32.8-11.4-64.6-25.5-98-35.1c-37.7-10.9-77.1-14.3-116.2-16c-39.4-1.6-78.9-2.8-118.3-3.4c-45.1-0.7-90.2-0.2-135.2,2.9
				c-13.3,0.9-26.2,11.1-25.6,25.6c0.6,13.1,11.3,26.6,25.6,25.6c79.3-5.5,158.9-2.8,238.3,0c19.1,0.7,38.1,1.5,57.1,3.3
				c4.7,0.5,9.5,1,14.2,1.6c0.9,0.1,1.9,0.3,2.8,0.4c-6-0.4-2.6-0.4-1.1-0.1c2.5,0.4,5,0.8,7.5,1.2c9.2,1.5,18.3,3.4,27.4,5.7
				c33.7,8.6,65.6,22.5,98.2,34.4c37.7,13.7,77.5,24.7,117.9,22.1c-2.3-16.7-4.5-33.5-6.8-50.2c-11.3,4.5-22.6,6.3-34.3,8.9
				c6.4-1.4,2.4-0.3,0.6-0.1c-1.5,0.2-3,0.3-4.4,0.5c-2.7,0.2-5.4,0.4-8,0.6c-6.3,0.4-12.6,0.6-18.9,0.6
				c-25.2,0.3-50.4-0.1-75.6-0.2c-52.4-0.2-104.8-0.4-157.2-0.6c-29.8-0.1-59.7-0.2-89.5-0.4c2.3,16.7,4.5,33.5,6.8,50.2
				c80.6-12.2,161.4-24.3,240.9-42.5c11.1-2.5,22.2-5.1,33.2-8c7.5-2,14.7-5.4,19.9-11.3c8.8-9.9,10.6-23.4,4-35.1
				c-4.4-7.9-13.2-12.6-22.1-12.7c-123.2-0.8-246.5-1.7-369.6,6.1c-33.7,2.1-67.4,5.7-97.7,21.7c-17.5,9.2-15.6,34.5,0,44.2
				c23.2,14.3,53.4,18.1,79.1,9c12.1-4.3,20.1-14.9,18.3-28.1c-1.6-12.2-12.3-22.5-25.1-22.2c-28,0.8-56.1,9.5-78.6,26.4
				c-5.3,4-10.2,8.5-11.8,15.3c-1.6,7-0.5,13.2,2.6,19.7c8.4,17.8,29.5,21.2,47,20.9c17-0.3,33.9-2.1,50.7-4.7
				c32-5,62.7-15.2,92-28.8c9.8-4.5,15-18.9,11.8-28.9c-1.4-4.2-3.6-8-6.6-11.3c-4.8-5.3-11.4-6.7-18.1-7.5
				c-29.4-3.5-58,7.2-80.7,25.5c-7.8,6.3-8.9,19.5-5.3,27.9c4.2,10,12.9,14.6,23.4,15.7c52.1,5.5,104.4,3.2,156.1-5.3
				c5.7-0.9,12.7-6.8,15.3-11.8c2.7-5.2,3.8-10.5,3-16.3c-1.6-12.1-12.3-22.6-25.1-22.2c-77.6,2.5-154.8,18.4-226.8,47.5
				c-10.2,4.1-19.3,12.6-18.8,24.7c0.5,12.1,7.8,20.4,18.8,24.7c20.8,8.1,43.8,6.2,65.3,2.3c18.5-3.3,36.9-8.3,54.8-13.9
				c37-11.5,73-26.9,106.8-45.7c17.5-9.7,35.4-20.1,51.1-32.7c11.3-9.1,16.4-24.3,12.4-38.3c-3.4-11.8-13.5-21.6-24.4-26.8
				c-19.6-9.4-41.4-13.3-62.8-15.7c-19-2.2-38.1-2.1-57.2-1.3c-43.3,2-86.6,8.1-130,4c4.3,15.9,8.6,31.8,12.9,47.7
				c18.2-13.1,37.3-24.9,57.2-35.4c9.9-5.2,20-10.1,30.3-14.6c1.4-0.6,2.7-1.2,4.1-1.8c3.5-1.5-5.9,2.4-0.4,0.2c2.5-1,4.9-2,7.4-3
				c5.2-2.1,10.5-4,15.8-5.9c21.7-7.7,44-13.1,65.6-21c12.9-4.7,27.7-9.6,38-19c6.9-6.3,11.8-15.5,11.9-24.9
				c0.1-13.5-8.7-24.7-21.2-29.1c-6.8-2.4-14.3-1.8-21.4-1.6c-6.1,0.2-12.2,0.3-18.3,0.6c-12.2,0.4-24.4,1.1-36.6,2.1
				c-24.9,2.1-50,5.6-74,12.5c-21.5,6.2-42.9,15.1-61.8,27.2c-21.2,13.6-38.3,30.6-53.3,50.7c-15,20.1-28.9,42.4-39.2,65.3
				c-12.1,26.9-20,57.5-9.4,86.3c4.9,13.3,17.1,21.4,31.5,17.9c4.9-1.2,9.8-2.3,14.8-3.2c2.5-0.5,5-0.9,7.5-1.3
				c1.2-0.2,2.5-0.4,3.7-0.6c4.9-0.8-3.5,0.4-0.2,0c10.4-1.2,20.7-2.2,31.2-2.7c21-1.1,42-0.9,63-0.8c43.6,0.2,87.2,0.3,130.9,0.5
				c43.6,0.2,87.2,0.3,130.9,0.5c41.5,0.1,83.2-0.5,124.7,1.8c10.9,0.6,21.8,1.4,32.7,2.6c3,0.3,6,0.7,9,1c1.4,0.2,5,0.3-1.4-0.2
				c1.5,0.1,3,0.4,4.5,0.6c5.7,0.8,11.3,1.8,17,2.8c21.9,4.1,43.4,10.2,64.1,18.7c7.6,3.1,19.7-0.3,24.9-6.6
				c5.2-6.3,9.3-12.8,11.2-20.8c1.5-6.3,1.9-12.9,2.4-19.3c0.1-1,0.2-2,0.2-3c0.3-4.8-1.3,4.3-0.3,2.2c0.4-0.8,0.6-2.4,0.8-3.2
				c0.7-3.5-1.2,2-1.2,2.4c0.1-1.1,1.3-1.9,1.5-2.8c0.7-1.1,0.4-0.7-0.9,1.1c-1.5,1.9-1.7,2.1-0.4,0.7c2.3-2.4-2,1.6-2.4,1.8
				c-4.2,1.5-5.4,2-3.4,1.4c2-0.5,0.7-0.4-3.8,0.5c11.3-0.7,21.6-7.5,24.7-18.8c6.8-25.3,0.5-53.2-14.6-74.4
				c-14.9-20.9-35.7-35.8-58.7-46.8c-23.1-11-47.3-20.3-71.4-28.8c-23.5-8.3-47.4-15.4-71.8-20.3c-28.9-5.7-58.4-8.8-87.8-7.1
				c-13.3,0.8-26.2,11.2-25.6,25.6c0.7,15,11.3,24.2,25.6,25.6c2.6,0.3,5.2,0.5,7.8,0.8c0.3,0,0.6,0.1,0.9,0.1
				c2.8,0.4,2.3,0.3-1.6-0.2c0.5-0.2,3.2,0.5,3.4,0.5c5.1,0.8,10.3,1.7,15.4,2.7c10.2,2,20.3,4.6,30.3,7.6c10,3,19.8,6.5,29.4,10.4
				c1.3,0.5,4.3,2.1-1.3-0.6c1,0.5,2.1,0.9,3.2,1.4c2.4,1,4.8,2.1,7.1,3.2c5,2.3,9.9,4.8,14.7,7.4c9.2,4.9,18.2,10.2,26.8,15.9
				c4,2.7,8,5.4,11.9,8.3c2.2,1.6,4.4,3.2,6.6,4.9c1.3,1,4.9,3.2-0.1-0.1c1.3,0.8,2.4,1.9,3.6,2.8c17.1,13.7,33.2,28.6,49.1,43.7
				c18.9,18.1,37.7,36.3,56.6,54.4c7.5,7.2,18.4,9.3,27.9,5.3c10.1-4.3,14.5-12.9,15.7-23.4c6.2-53-22.8-106.9-62.7-140.2
				c-42.7-35.7-95.5-54.4-148.4-69.2c-31.8-8.9-64.1-16.2-96.6-22c0,16.4,0,32.9,0,49.3c9.1-2.7,18.4-4.9,27.8-6.4
				c0.9-0.1,1.8-0.3,2.7-0.4c4.7-0.7-0.8,0-1.3,0.2c2.1-0.8,5.1-0.6,7.3-0.8c4.6-0.4,9.2-0.7,13.8-0.8c9.6-0.3,19.1-0.1,28.6,0.7
				c4.2,0.3,8.7,1.5,12.9,1.3c-5.3,0.2-3.1-0.4-1.3-0.2c1.2,0.2,2.4,0.4,3.7,0.6c2.4,0.4,4.9,0.8,7.3,1.3
				c18.6,3.5,36.8,8.7,54.5,15.3c3.9,1.5,7.8,3,11.7,4.6c1.3,0.5,4.6,1.6-1.1-0.5c1.1,0.4,2.2,1,3.3,1.4c2.2,1,4.4,1.9,6.6,2.9
				c8.2,3.7,16.3,7.7,24.3,11.9c18.7,9.8,36.7,20.8,54.3,32.3c10.7,7,25.6,3,33-6.6c8.1-10.5,6.4-23.8-2-33.6
				c-16.3-18.9-36.3-35-58.2-46.9c-11.3-6.1-25.1-3.6-33,6.6c-8.3,10.7-6.2,23.6,2,33.6c1.1,1.3,2.1,2.6,3.2,4
				c2.9,3.7-2.3-3-0.4-0.5c1.9,2.5,3.7,5,5.5,7.5c3.6,5.1,7.1,10.2,10.4,15.5c6.6,10.6,12.5,21.5,17.8,32.8c1.2,2.6,2.3,5.2,3.5,7.7
				c2.3,5.1-1.8-4.6,0.1,0.1c0.6,1.6,1.3,3.1,1.9,4.7c2.3,5.8,4.3,11.7,6.2,17.6c3.8,11.8,6.8,23.9,9.2,36.1
				c2.5,13.2,19,21.9,31.5,17.9C985.1,992.5,991.7,979.7,988.9,965.6L988.9,965.6z"/>
		</g>
	</g>
	<g class="st1">
		<g>
			<path class="st2" d="M453.7,928.4c-0.5,1.3-1,2.5-1.5,3.8c-2.8,3.4-3.4,4.1-1.6,2.2c-5.6,4.9-2.8,2-0.9,0.9
				c2.8-1.6,4.3-0.5-1.2,0.3c1.2-0.2,2.7-0.9,3.9-1.3c7-2.2,14.2-4.1,21.3-5.9c13.4-3.4,27-6.3,40.6-8.6c3.4-0.6,6.8-1.1,10.2-1.7
				c1.7-0.3,3.4-0.5,5.1-0.8c0.6-0.1,1.1-0.2,1.7-0.2c2.8-0.4,2.3-0.3-1.7,0.2c2.3-1.3,7.6-1,10.3-1.3c3.4-0.4,6.9-0.7,10.3-1.1
				c14.4-1.3,28.8-2.1,43.2-2.4c13.8-0.2,27.7,0.1,41.5,0.8c6.9,0.4,13.8,0.9,20.7,1.6c3.4,0.3,6.9,0.7,10.3,1.1
				c2.3,0.3,8.5,0,10.3,1.3c-1.1-0.2-2.2-0.3-3.4-0.5c1.1,0.2,2.3,0.3,3.4,0.5c1.7,0.2,3.4,0.5,5.1,0.8c3.4,0.5,6.8,1.1,10.3,1.7
				c7.4,1.3,14.8,2.7,22.1,4.2c13.5,2.9,27,6.3,40.3,10.1c15,4.4,29.7,9.3,44.3,14.9c3.8,1.5,7.5,2.9,11.3,4.5
				c1.5,0.6,6.9,2,0.3,0.1c2.2,0.6,4.3,1.9,6.4,2.8c7.4,3.3,14.7,6.7,21.9,10.3c4.3-15.9,8.6-31.8,12.9-47.7
				c-27.1,0.8-54.3-0.5-81.2-3.5c-3.1-0.3-6.1-0.7-9.2-1.1c-1.8-0.2-3.7-0.4-5.5-0.7c6.2,1.1,2.7,0.4,1.3,0.2
				c-7.3-1.1-14.6-2.1-21.9-3.4c-13.1-2.2-26.2-4.7-39.2-7.4C642.3,892.1,589.8,877.3,537,864c-29.6-7.4-59.2-14.4-89.2-20.2
				c2,15.6,4.1,31.2,6.1,46.8c0.6-0.3,3.4-1.6,0.3-0.1c-3.3,1.6,0.3-0.1,1.1-0.4c1.7-0.6,3.4-1.3,5.1-1.8c4-1.4,8-2.6,12.1-3.7
				c8.2-2.2,16.4-3.8,24.8-5.2c1.8-0.3,3.6-0.6,5.4-0.8c0.9-0.1,1.8-0.2,2.7-0.4c-6,1.3-3,0.4-1.4,0.2c4.2-0.5,8.4-1,12.6-1.5
				c8.5-0.9,16.9-1.8,25.4-2.7c35.3-3.6,70.7-6.8,106.3-6.4c9.7,0.1,19.5,0.5,29.2,1.2c5.2,0.4,10.3,0.9,15.5,1.4
				c1,0.1,1.9,0.2,2.9,0.3c0.7,0.1,5.1,0.6,1.4,0.2c-3.7-0.5,0.5,0.1,1.4,0.2c1.6,0.2,3.2,0.5,4.8,0.7c2.3-16.7,4.5-33.5,6.8-50.2
				c-51.7-1.8-103.3-3.5-155-5.3c-13.4-0.5-26.2,12.1-25.6,25.6c0.6,14.3,11.2,25.1,25.6,25.6c51.7,1.8,103.3,3.5,155,5.3
				c12.7,0.4,23.5-10.1,25.1-22.2c1.5-11.4-5.7-26.1-18.3-28.1c-38.4-6.1-76.9-7-115.6-4.7c-37.5,2.3-75.2,5.9-112.4,11.3
				c-21.2,3.1-41.2,8.6-60.9,17.2c-9.2,4-13.4,16.5-12.2,25.5c1.3,9.3,8.5,19.4,18.3,21.3C543.3,914,648.6,951.4,759,965.4
				c30.6,3.9,61.4,5.7,92.2,4.8c10.8-0.3,22.1-7.7,24.7-18.8c2.4-10.5-1.4-23.8-11.8-28.9c-54.8-27.1-113.5-45.8-174.1-54.5
				c-62.6-9-125.3-8.5-187.7,2.2c-16.2,2.8-32.3,6.2-48.2,10.5c-9.1,2.4-18,4.9-26.7,8.8c-4.6,2-8.9,4.9-12.6,8.4
				c-5.2,4.9-7.9,10.6-10.6,17c-2.4,5.7-0.4,14.7,2.6,19.7c3.1,5.3,9.2,10.4,15.3,11.8c6.5,1.5,13.9,1.2,19.7-2.6
				C447.9,939.8,451,934.9,453.7,928.4L453.7,928.4z"/>
		</g>
	</g>
	<g class="st1">
		<g>
			<path class="st2" d="M496.3,763.1C444.8,778,394.8,799.9,349.1,828c-23.9,14.7-45.4,31.8-60.3,56c-14,22.7-23.3,49.3-29.7,75.2
				c-7.7,30.8-11.3,63-10.2,94.8c0.4,13.4,11.5,26.2,25.6,25.6c13.5-0.6,26-11.3,25.6-25.6c-0.4-13.1-0.1-26.2,1.1-39.2
				c0.3-3.1,0.6-6.2,1-9.3c0.1-1.4,0.4-5-0.2,1.2c0.2-1.5,0.4-3.1,0.7-4.6c1-6.5,2.2-12.9,3.6-19.3c2.8-12.8,6.3-25.4,10.7-37.7
				c0.9-2.6,1.9-5.3,2.9-7.9c0.8-2.1,1.5-5.6,2.9-7.4c-0.4,1-0.8,2-1.2,2.9c0.5-1.1,0.9-2.1,1.4-3.1c0.5-1,0.9-2.1,1.4-3.1
				c1.5-3.1,3-6.2,4.6-9.2c2.7-5,5.8-9.8,9-14.5c2.5-3.8-0.8,0.7-0.9,1.1c0.6-1.3,2.3-2.9,3.3-4c2-2.4,4.2-4.6,6.5-6.8
				c1.8-1.8,3.7-3.5,5.7-5.2c0.9-0.8,2.8-3,3.9-3.3c-2.6,0.6-3.5,2.6-1.1,0.9c5.1-3.7,10.2-7.2,15.6-10.6
				c20.9-13.2,42.8-25,65.3-35.3c3-1.4,6.1-2.8,9.1-4.1c1.4-0.6,2.8-1.2,4.2-1.8c5.8-2.5-5.2,2.1,0.6-0.2c6.7-2.7,13.5-5.4,20.3-8
				c13.1-4.8,26.4-9.2,39.8-13.1c12.8-3.7,22.2-18.2,17.9-31.5C523.6,767.9,510.1,759.1,496.3,763.1L496.3,763.1z"/>
		</g>
	</g>
	<g class="st1">
		<g>
			<path class="st2" d="M453.7,772.8c-46.9,6.6-91.1,28.4-126.6,59.5c-36.8,32.2-63,76.8-74.4,124.3c-6.5,26.9-8.8,55.1-5.7,82.7
				c0.8,7,2.3,12.9,7.5,18.1c4.4,4.4,11.7,7.8,18.1,7.5c12.6-0.6,27.2-11.3,25.6-25.6c-1.2-11-1.6-22.1-1.2-33.2
				c0.2-5.5,0.8-11,1.3-16.6c0.5-4.5-0.1,1.4-0.3,1.9c0.5-1.1,0.4-2.9,0.6-4.1c0.5-3,1-6,1.6-9c2.2-10.9,5.2-21.6,9-32
				c0.9-2.6,2-5.2,3-7.8c1.8-4.5-0.6,1.5-0.7,1.5c-0.1-0.1,1.9-4.2,2-4.6c2.3-5,4.8-10,7.5-14.8c2.7-4.8,5.5-9.6,8.6-14.2
				c1.4-2.1,2.8-4.1,4.2-6.2c0.8-1.1,1.6-2.3,2.4-3.4c0.5-0.7,1-1.3,1.5-2c1.2-1.5,0.7-0.9-1.5,2c1.5-0.7,3.9-4.8,5-6.1
				c1.5-1.8,3.1-3.6,4.7-5.3c3.7-4.1,7.6-8,11.5-11.7c3.6-3.4,7.4-6.7,11.2-9.8c1-0.8,2-1.6,3.1-2.5c3.4-2.7-1.1,1-1.5,1.1
				c2.4-0.8,5.5-4,7.6-5.5c8.6-6,17.6-11.3,27-16c2.6-1.3,5.2-2.5,7.8-3.7c1.2-0.5,2.4-1.1,3.6-1.6c5.2-2.3-5.6,2.2-0.3,0.2
				c5.4-2.1,10.8-4.1,16.3-5.8c11.5-3.6,23.3-6.2,35.2-7.9c5.9-0.8,12.4-6.9,15.3-11.8c3.2-5.5,4.6-13.6,2.6-19.7
				c-2-6.2-5.8-12.2-11.8-15.3C466.9,771.9,460.9,771.8,453.7,772.8L453.7,772.8z"/>
		</g>
	</g>
	<g class="st1">
		<g>
			<path class="st2" d="M297.3,1071.8c98.2-5.8,196.5-9.7,294.9-11.7c98.3-2,196.7-2.1,295.1-0.2c26.8,0.5,53.6,0.9,80.4,2.1
				c13.4,0.6,26.8,1.5,40.1,3c1.3,0.1,2.5,0.3,3.8,0.5c6.5,0.8-5.7-0.9,0.8,0.1c3.2,0.5,6.3,0.9,9.4,1.5c6.9,1.2,13.8,2.6,20.6,4.2
				c13,3.1,28.3-4.1,31.5-17.9c3-13.1-3.9-28.1-17.9-31.5c-48.3-11.6-98.5-11.8-147.8-12.8c-49.5-1.1-99-1.6-148.5-1.7
				c-98.4-0.2-196.7,1.6-295,5.2c-55.8,2.1-111.6,4.7-167.3,8c-13.3,0.8-26.2,11.2-25.6,25.6C272.3,1059.4,283,1072.6,297.3,1071.8
				L297.3,1071.8z"/>
		</g>
	</g>
	<g class="st1">
		<g>
			<path class="st3" d="M610.8,452.8c-32.6-2-64.9-1.6-95,12.7c-24.2,11.5-43.4,32.9-57.1,55.5c-14.1,23.5-23.2,50.3-29.2,77
				c-7,31.1-10.5,63.5-9.5,95.4c1,32,8,67.6,33.4,89.7c6.1,5.2,12.9,8.7,21.1,8.7c7.3,0,16.1-3.3,21.1-8.7
				c10.3-11.2,12.6-31.3,0-42.2c-1.7-1.4-3.3-2.9-4.7-4.5c-0.6-0.7-2.1-1.8-2.4-2.7c0.3,1.1,4.5,6.2,1.7,2
				c-2.6-3.8-4.6-7.9-6.4-12.1c1,2.4,2,4.8,3,7.1c-3.4-8.3-5.4-17-6.6-25.8c0.4,2.6,0.7,5.3,1.1,7.9c-3.3-25.3-1.9-51.5,1.4-76.7
				c-0.4,2.6-0.7,5.3-1.1,7.9c3.6-26.4,9.8-52.7,20.1-77.3c-1,2.4-2,4.8-3,7.1c3.2-7.4,6.7-14.5,10.7-21.5c2-3.4,4.1-6.8,6.4-10
				c1.1-1.6,2.3-3.1,3.5-4.8c-5.4,7.8-2.1,2.7-0.6,0.9c2.3-2.8,4.8-5.4,7.4-8c1.4-1.3,2.8-2.7,4.2-3.9c1.8-1.6,7.6-5.4-0.5,0.1
				c6.5-4.4,12.7-8.5,20-11.6c-2.4,1-4.8,2-7.1,3c8.2-3.3,16.7-5.4,25.5-6.7c-2.6,0.4-5.3,0.7-7.9,1.1c16.8-2.1,33.6-1.2,50.4-0.2
				c15.6,1,30.5-14.4,29.8-29.8C639.9,465.6,627.6,453.8,610.8,452.8L610.8,452.8z"/>
		</g>
	</g>
	<g class="st1">
		<g>
			<path class="st3" d="M466.6,731.9c-57.4,20.6-113.5,48.5-161.3,86.6c-21.2,16.9-40.4,38.2-51.7,63.1
				c-13.3,29.5-17.4,61.2-18,93.4c-0.6,35,0.5,70.1,2,105c0.6,15.6,13.3,30.6,29.8,29.8c15.6-0.7,30.5-13.1,29.8-29.8
				c-1-24.6-1.7-49.2-2-73.8c-0.2-22.1-0.5-44.3,2.3-66.2c-0.4,2.6-0.7,5.3-1.1,7.9c1.9-14.3,5.3-28.4,10.9-41.7c-1,2.4-2,4.8-3,7.1
				c3.3-7.6,7.3-14.7,12-21.5c1.2-1.8,2.6-3.4,3.8-5.2c-5.3,7.8-1.1,1.5,0.4-0.2c2.4-2.9,5-5.6,7.6-8.3c5.7-5.8,11.8-11.2,18.1-16.3
				c0.8-0.7,1.7-1.4,2.6-2c-3.9,3-4.6,3.5-2.2,1.7c1.7-1.3,3.5-2.6,5.3-3.9c3.3-2.4,6.7-4.7,10.1-7c30.4-20.5,63.1-37.7,96.8-52
				c-2.4,1-4.8,2-7.1,3c10.2-4.3,20.5-8.3,30.9-12c7.4-2.7,13.8-6.7,17.8-13.7c3.7-6.4,5.3-15.8,3-23
				C498.6,738.3,482.3,726.2,466.6,731.9L466.6,731.9z"/>
		</g>
	</g>
	<g class="st1">
		<g>
			<path class="st3" d="M357,968.5c0,28,0,56,0,84c0,15.6,13.7,30.6,29.8,29.8c16.2-0.7,29.8-13.1,29.8-29.8c0-28,0-56,0-84
				c0-15.6-13.7-30.6-29.8-29.8C370.7,939.4,357,951.8,357,968.5L357,968.5z"/>
		</g>
	</g>
	<g class="st1">
		<g>
			<path class="st4" d="M780.2,535.7c3.9,6.4,7.3,13.1,10.4,20c1.1,2.4-0.9-2.1,0.2,0.3c0.3,0.7,0.6,1.4,0.9,2.2
				c0.7,1.7,1.3,3.4,1.9,5.1c1.3,3.6,2.5,7.3,3.6,11.1c2.1,7.2,3.7,14.5,4.9,22c0.1,0.9,0.8,5.6,0.4,2.5c0.2,1.8,0.4,3.6,0.6,5.4
				c0.4,3.9,0.6,7.8,0.8,11.6c0.3,7.5,0.1,15-0.5,22.5c-0.1,1.8-0.3,3.6-0.5,5.4c-0.1,1-0.2,2.1-0.4,3.1c0-0.3,0.4-2.5,0.1-0.6
				c-0.6,3.8-1.2,7.7-2,11.5c-1.5,7.3-3.5,14.6-5.9,21.7c-1.2,3.4-2.4,6.8-3.8,10.2c-0.7,1.8,0-0.1,0.2-0.4
				c-0.4,0.9-0.8,1.9-1.3,2.8c-0.9,1.9-1.7,3.8-2.7,5.6c-8.5,17.1-17.5,29.8-31.3,42.4c-6.4,5.9-6.4,17.6,0,23.5
				c6.9,6.3,16.6,6.2,23.5,0c51.8-47,68.4-125.8,51.6-192c-4.7-18.4-12.1-36.3-22-52.5c-4.5-7.4-15.1-10.9-22.7-6
				C778.7,517.8,775.4,527.8,780.2,535.7L780.2,535.7z"/>
		</g>
	</g>
	<g class="st1">
		<g>
			<path class="st4" d="M808.3,779.6c31.4-0.4,59,1.7,88.6,9.8c7.1,1.9,14.1,4.2,20.9,6.7c1.7,0.6,3.4,1.3,5.1,2
				c5.5,2.1-2.7-1.3,2,0.8c3.3,1.5,6.6,3,9.8,4.6c5.5,2.8,10.9,5.8,16.2,9.1c2.6,1.6,5.2,3.3,7.7,5.1c1.3,0.9,2.5,1.8,3.8,2.7
				c0.8,0.6,1.7,1.2,2.5,1.8c-1.3-1-1.2-0.9,0.3,0.2c10,8.1,19.1,17,27.1,27.1c-1.8-2.3,0.2,0.3,0.7,0.9c0.8,1,1.5,2.1,2.2,3.1
				c1.8,2.5,3.4,5.1,5,7.7c1.6,2.6,3.1,5.3,4.5,8c0.8,1.5,1.5,3,2.3,4.5c0.3,0.6,2.7,6,1.9,4.1c5.7,13.6,9.3,28,11.8,42.4
				c1.4,8,1.9,11.6,2.7,18.5c0.9,7.9,1.7,15.9,2.3,23.8c3.1,37,4.2,74.1,3.5,111.2c-0.2,8.7,7.8,17,16.6,16.6
				c9.1-0.4,16.4-7.3,16.6-16.6c0.7-34.4-0.2-68.9-2.8-103.3c-2.4-31.8-5.2-64.7-16.2-94.9c-20.5-56.9-69.1-96-125.5-114.6
				c-35.2-11.6-72.8-15.1-109.7-14.7c-8.7,0.1-17,7.6-16.6,16.6C792.1,771.9,799,779.7,808.3,779.6L808.3,779.6z"/>
		</g>
	</g>
	<g class="st1">
		<g>
			<path class="st4" d="M891.7,949.8c-0.7-1.5,0.3,0.6,0.4,1c0.6,1.4,1.1,2.8,1.6,4.2c1,2.5,1.9,5,2.7,7.6c1.6,4.8,3.1,9.7,4.3,14.6
				c2.7,10.4,4.8,21,6.4,31.7c0.7,4.6,1,6.8,1.6,12.6c0.6,5.4,1.1,10.8,1.6,16.2c0.9,10.8,1.6,21.7,2.3,32.5
				c0.5,8.6,7.2,17,16.6,16.6c8.5-0.4,17.2-7.3,16.6-16.6c-2.9-46.8-6.7-93.6-25.5-137.1c-3.5-8-15.8-10.4-22.7-6
				C889.3,932.5,888,941.3,891.7,949.8L891.7,949.8z"/>
		</g>
	</g>
	<g class="st1">
		<g>
			<path class="st4" d="M678.8,603.3c15.6-8.4,31.8-15.5,48.6-21.1c10.4-3.5,5.9-19.9-4.5-16.4c-18.2,6.1-35.8,13.7-52.7,22.8
				C660.5,593.8,669.1,608.6,678.8,603.3L678.8,603.3z"/>
		</g>
	</g>
	<g class="st1">
		<g>
			<path class="st4" d="M585.6,594.5c-21-2.9-40.9-13.6-60.3-21.7c-4.3-1.8-9.4,1.9-10.5,6c-1.3,4.9,1.7,8.7,6,10.5
				c19.4,8.1,39.3,18.8,60.3,21.7c4.6,0.6,9.2-1.1,10.5-6C592.7,601,590.2,595.1,585.6,594.5L585.6,594.5z"/>
		</g>
	</g>
	<g class="st1">
		<g>
			<path class="st4" d="M689.4,598.2c0,10,0,20,0,30c0,11,17.1,11,17.1,0c0-10,0-20,0-30C706.5,587.3,689.4,587.2,689.4,598.2
				L689.4,598.2z"/>
		</g>
	</g>
	<g class="st1">
		<g>
			<path class="st4" d="M550.2,605.6c0,9.1,0,18.2,0,27.3c0,11,17.1,11,17.1,0c0-9.1,0-18.2,0-27.3
				C567.3,594.6,550.2,594.6,550.2,605.6L550.2,605.6z"/>
		</g>
	</g>
	<g class="st1">
		<g>
			<path class="st4" d="M605.1,717.6c5.2-10.9,18.8-12.7,29.6-13.9c5.6-0.7,11.5-1,17.1-0.1c4.5,0.8,11.2,2.5,13.4,7
				c0.7,1.4,0.5,0.5-0.1,1.2c-1.2,1.3-4.2,1.8-5.8,2.2c-6.2,1.5-12.6,2.4-18.9,3.2c-11.7,1.6-28.3,3.9-38.8-3
				c-9.2-6-17.8,8.7-8.6,14.7c8.1,5.3,18.4,6.3,27.8,6.5c9.6,0.2,19.2-1,28.6-2.5c8.1-1.3,17.2-2,24.2-6.5
				c7.4-4.7,10.7-13.4,7.5-21.6c-6.4-16.9-28.5-19.9-44.1-18.5c-17.3,1.6-38.5,5.2-46.8,22.6c-2,4.2-1.1,9.2,3.1,11.7
				C597.2,722.8,603.1,721.8,605.1,717.6L605.1,717.6z"/>
		</g>
	</g>
	<g class="st1">
		<g>
			<path class="st4" d="M620.2,727.2c8.3-5.8,18.6-6.8,27.5-1.7c9.6,5.4,18.2-9.3,8.6-14.7c-13.9-7.9-31.6-7.5-44.7,1.7
				c-3.8,2.6-5.5,7.5-3.1,11.7C610.7,727.9,616.4,729.9,620.2,727.2L620.2,727.2z"/>
		</g>
	</g>
	<g class="st1">
		<g>
			<path class="st5" d="M255.4,1051.6c-7.3-58-15.4-122.1,14.4-175.5c24.9-44.5,72.2-63.4,118.6-77.4c26.9-8.1,54.1-15.2,80.2-25.6
				c6.1-2.4,8.2-9.1,3.8-14.3C436.2,717,422,657.2,435.5,603.6c12.6-50.4,49.2-93.1,96.1-115c28.3-13.3,59.9-16.9,90.8-17.5
				c16.7-0.3,33.4,0.1,50,0.9c16.9,0.8,33.7,2.4,50.1,6.9c49.2,13.6,90.2,53.7,105.1,102.5c15.4,50.3,1.7,107.8-33.5,146.7
				c-4.5,5-9.4,9.7-14.6,14c-5.9,5-0.9,14.4,6,14.6c56.1,1.5,115.7,7.2,165.4,35.6c25.2,14.4,45.9,34.7,60.6,59.7
				c15.7,26.8,24.6,57.1,29,87.7c5.8,40.7,3.8,82.3,2,123.2c-0.5,11,16.6,10.9,17.1,0c3.2-70.8,5.5-145.3-28.1-210.1
				c-14.5-27.9-35.5-51.6-61.8-69c-24.7-16.3-53.2-26.7-82-33.1c-33.5-7.5-67.9-10.2-102.2-11.1c2,4.9,4,9.7,6,14.6
				c44.7-38,66.4-99.5,57.2-157.2c-8.9-55.5-49.1-104.8-100.5-126.9c-31.8-13.7-66.3-15.2-100.5-15.9c-34.9-0.7-70.9,0.3-104.3,11.5
				c-54.2,18.2-98.4,61.5-118.5,114.9c-21.2,56.3-12.1,122.9,21.7,172.5c4.2,6.2,8.9,12.1,13.8,17.8c1.3-4.8,2.5-9.5,3.8-14.3
				c-47.7,19.1-99.8,26.7-145.5,50.9c-23,12.2-43.3,29-57.8,50.8c-16.2,24.3-24.3,53.1-27.5,81.8c-4.2,37.2,0.6,74.6,5.2,111.5
				c0.6,4.6,3.5,8.5,8.5,8.5C251,1060.1,256,1056.2,255.4,1051.6L255.4,1051.6z"/>
		</g>
	</g>
	<g class="st1">
		<g>
			<path class="st5" d="M367.3,965.8c-0.6,28.3-0.5,56.6,0.5,84.9c0.4,10.9,17.4,11,17.1,0c-1-28.3-1.2-56.6-0.5-84.9
				C384.6,954.8,367.5,954.8,367.3,965.8L367.3,965.8z"/>
		</g>
	</g>
	<g class="st1">
		<g>
			<path class="st5" d="M910.4,937.3c21.5,31.8,31.2,71.2,25.6,109.3c-0.7,4.6,1.1,9.2,6,10.5c4,1.1,9.8-1.4,10.5-6
				c6.3-42.6-3.1-86.6-27.3-122.4C919,919.6,904.2,928.2,910.4,937.3L910.4,937.3z"/>
		</g>
	</g>
	<g class="st1">
		<g>
			<g>
				<path class="st6" d="M743.3,459.2c5.4,9.5,10.7,19.9,4,30.2c-5.6,8.6-14.9,15.6-23.2,21.4c-4.5,3.1-0.2,10.5,4.3,7.4
					c10.2-7.1,22.1-15.8,27.9-27.2c6.3-12.5,0.8-24.9-5.6-36C748,450.2,740.6,454.4,743.3,459.2L743.3,459.2z"/>
			</g>
		</g>
		<g>
			<g>
				<path class="st6" d="M763.6,456.3c0.3,10.1,1.2,21.3,8.1,29.3c8.2,9.4,23.2,10.1,34.7,12.4c5.4,1.1,7.6-7.1,2.3-8.2
					c-5.4-1.1-10.9-2.2-16.3-3.3c-4.9-1.1-10.1-2.2-13.7-5.9c-6-6.1-6.3-16.2-6.5-24.2C772,450.8,763.4,450.8,763.6,456.3
					L763.6,456.3z"/>
			</g>
		</g>
		<g>
			<g>
				<path class="st6" d="M810.6,506.7c-10.3-6.5-22.7-4.4-33.4,0.1c-10.6,4.5-23.4,12.4-21.7,25.8c0.7,5.4,9.2,5.4,8.5,0
					c-1.4-10.2,9.9-15.5,17.9-18.5c7.9-3,16.8-4.7,24.3,0C810.9,517,815.2,509.7,810.6,506.7L810.6,506.7z"/>
			</g>
		</g>
	</g>
</g>
</svg>
