<?xml version="1.0" encoding="utf-8"?>
<!-- Generator: Adobe Illustrator 22.1.0, SVG Export Plug-In . SVG Version: 6.00 Build 0)  -->
<svg version="1.1" id="Calque_1" xmlns="http://www.w3.org/2000/svg" xmlns:xlink="http://www.w3.org/1999/xlink" x="0px" y="0px"
	 viewBox="0 0 1280 1024" style="enable-background:new 0 0 1280 1024;" xml:space="preserve">
<style type="text/css">
	.st0{clip-path:url(#SVGID_2_);fill:#F9EAE0;}
	.st1{clip-path:url(#SVGID_2_);}
	.st2{fill:#79CAE1;}
	.st3{fill:#79CAE2;}
	.st4{fill:#CFE3EA;}
	.st5{fill:#2680A3;}
	.st6{fill:#4D678B;}
	.st7{fill:#ED8080;}
</style>
<g>
	<defs>
		<rect id="SVGID_1_" x="-84.5" y="-6.5" width="1465" height="1031"/>
	</defs>
	<clipPath id="SVGID_2_">
		<use xlink:href="#SVGID_1_"  style="overflow:visible;"/>
	</clipPath>
	<rect x="-84.5" y="-6.5" class="st0" width="1464.5" height="1031.4"/>
	<g class="st1">
		<g>
			<path class="st2" d="M523,681.3c-4.2-3.1,3.8,3.5,0.3,0.2c-1.3-1.2-2.7-2.4-3.9-3.7c-1.1-1.1-2.1-2.2-3.2-3.4
				c-0.6-0.7-4.5-4.6-1.4-1.6c3,2.9-0.9-1.5-1.5-2.5c-0.8-1.3-1.6-2.6-2.4-4c-0.7-1.4-1.4-2.7-2.1-4.1c-2.3-4.3,1.9,5.3,0.2,0.4
				c-1-2.9-2-5.8-2.7-8.8c-0.4-1.5-0.6-3-0.9-4.5c-1-5.2,0.4,5.6,0.1,0.7c-0.3-4.6-0.6-9.6-1.7-14c-1.7-7.2-5-11.9-9.5-17.6
				c-5.5-6.9-16.8-8.8-24.8-6.6c-8.3,2.3-15.8,9.3-17.8,17.8c-6.1,25.7-5.7,52.8,2.1,78.2c3.9,12.7,18,22.2,31.4,17.8
				c14-4.5,20.5-17.3,17.8-31.4c-1.7-9.1-3.5-18.2-5.2-27.3c-2.5-13.1-19-21.8-31.4-17.8c-14,4.5-20.5,17.3-17.8,31.4
				c1.7,9.1,3.5,18.2,5.2,27.3c16.4-4.5,32.8-9,49.2-13.6c-1.5-4.9-2.8-9.9-3.7-15c-0.1-0.8-0.7-4.9-0.2-1.1c0.4,3.8,0-0.4-0.1-1.1
				c-0.3-2.7-0.5-5.4-0.5-8.2c-0.2-4.8,0-9.7,0.4-14.5c0.1-1.1,0.5-2.5,0.4-3.6c0.6,5.1-0.4,2.9,0,0.5c0.5-2.7,1-5.4,1.7-8
				c-14.2,3.8-28.4,7.5-42.7,11.3c-1.9-1.8-3.2-3.9-4-6.3c0.4,2,0.5,1.9,0.1-0.6c0-4.9,0,1.4,0.1,2.4c0.4,4.8,1,9.7,2,14.4
				c1.6,8.2,4.8,16.1,8.4,23.6c7.3,15.3,19,27.4,32.5,37.3c5,3.7,13.9,4.2,19.7,2.6c5.9-1.6,12.3-6.2,15.3-11.7
				C539.2,702.9,534.5,689.8,523,681.3L523,681.3z"/>
		</g>
	</g>
	<g class="st1">
		<g>
			<path class="st2" d="M556.8,635.5c-0.7-0.8-1.4-1.6-2.1-2.4c0.7,0.9,1.3,1.8,2,2.6c-0.7-1.3-1.9-2.7-2.7-4
				c-1.7-2.7-2.8-5.9-4.6-8.5c0.4,1,0.9,2.1,1.3,3.1c-0.4-1-0.8-2-1.1-3c-0.5-1.5-1-3.1-1.4-4.6c-0.3-1.3-0.6-2.6-0.9-3.9
				c-1.3-6.5,0.4,4.9-0.1-0.4c-0.6-6.9-2.4-13-7.5-18c-4.4-4.4-11.7-7.8-18-7.5c-14.5,0.6-24.7,11.2-25.5,25.5
				c-2.2,39.5,11.1,77.5,24.8,113.9c15.5-6.6,31.1-13.1,46.6-19.7c-5.7-12.8-11.3-25.5-17-38.3c-2.4-5.5-9.7-10.2-15.3-11.7
				c-6.1-1.7-14.2-0.9-19.7,2.6c-5.4,3.5-10.2,8.7-11.7,15.3c-1.6,7.1-0.4,13.1,2.6,19.7c5.7,12.8,11.3,25.5,17,38.3
				c2.3,5.2,9.8,10.5,15.3,11.7c5.7,1.3,11.2,1,16.6-1.3c10.8-4.6,19.3-18.2,14.8-30.1c-6.4-17-12.8-34.2-17.4-51.8
				c-1.1-4.2-2.1-8.5-3-12.8c-0.5-2.4-1-4.9-1.4-7.3c-0.3-1.7-1.9-7.1-0.2-0.6c-2.2-8.5-1.5-19.2-1-27.9c-17,0-34,0-51,0
				c2,21.7,9.9,40.7,24.5,57c8.9,10,27.1,9.8,36.1,0C566.6,661,566.3,646.2,556.8,635.5L556.8,635.5z"/>
		</g>
	</g>
	<g class="st1">
		<g>
			<path class="st3" d="M508.8,652.6c0.8,47.5,1.5,95,2.3,142.5c16.7-2.3,33.4-4.5,50.1-6.8c-7.4-24.6-14.9-49.2-22.3-73.8
				c-3.7-12.2-15.3-20-28-18.3c-11.4,1.5-23.5,12.4-22.1,25.1c0.3,2.7,0.2,5.3,0.2,8c0,4.6,1-4.2,0.2-1.2c-0.3,1.3-0.5,2.6-0.9,3.9
				c-0.3,0.9-1,2.1-1,3c1.5-3.4,1.9-4.2,1-2.4c-0.2,0.5-0.4,1-0.7,1.4c-0.6,1.2-1.3,2.3-2,3.5c-0.9,1.5-4.3,5.3,0.2,0
				c13.4,1.7,26.7,3.4,40.1,5.2c-4-5.7-7.7-11.7-11-17.8c-1.5-2.8-3-5.7-4.3-8.6c-0.7-1.5-1.3-3-2-4.4c3.2,6.4,0.7,1.6,0.1,0.1
				c-4.9-12.6-8.1-25.6-10.4-38.9c-1-5.7,0.7,6.2,0,0.4c-0.2-1.6-0.4-3.2-0.5-4.8c-0.3-3.2-0.5-6.4-0.6-9.7c-0.3-7-0.1-14,0.4-20.9
				c0.1-1.6,0.3-3.2,0.4-4.8c0.2-1.8,1.2-7.1-0.1,0.4c0.6-3.2,1-6.4,1.6-9.5c1.4-6.9,3.2-13.6,5.3-20.3c4.1-12.7-4.8-28.4-17.8-31.4
				c-14.1-3.2-26.8,4.3-31.4,17.8c-15.5,46-23.5,94.8-23.9,143.3c17,0,34,0,51,0c-2.3-23.4-4.5-47.1-2.2-70.6
				c0.2-1.6,0.4-6.2-0.1,0.1c0.1-1.3,0.4-2.6,0.6-3.8c0.4-2.2,0.8-4.3,1.2-6.5c1.1-5.1,2.4-10.1,4-15c0.6-2,1.3-3.9,2-5.9
				c0.4-1,0.8-1.9,1.1-2.9c1.8-5.1-2,4.4-0.5,1.1c2-4.5,4.1-8.9,6.5-13.2c2.3-4.1,4.7-8,7.3-11.9c1.2-1.7,2.4-3.4,3.6-5.1
				c2.5-3.5-0.8,1.1-1.2,1.5c1.1-1,2-2.5,2.9-3.6c6-7.2,12.5-13.8,19.7-19.7c1-0.8,2-1.6,3-2.4c2.8-2.2-5.2,3.8-0.8,0.7
				c1.7-1.2,3.4-2.4,5.1-3.6c4.4-2.9,8.9-5.6,13.5-8c2.2-1.2,4.4-2.3,6.7-3.3c1-0.5,2.1-0.8,3-1.4c-5.2,2.9-3.1,1.3-1.5,0.7
				c5.2-1.9,10.4-3.8,15.7-5.3c4.5-1.3,9.1-2.3,13.7-3.2c1.1-0.2,2.2-0.4,3.3-0.6c0.3,0,0.5-0.1,0.8-0.1c2.8-0.4,2.2-0.3-1.9,0.2
				c2.1,0.6,5.9-0.6,8.2-0.8c10-0.7,19.8,0.1,29.7,0.8c-7.8-0.5,0.2,0.1,2.2,0.5c2.5,0.5,5,1,7.5,1.6c5.2,1.3,10.3,2.8,15.4,4.5
				c2.5,0.9,5,1.8,7.5,2.8c1.6,0.6,5.6,1.5-0.3-0.2c1.1,0.3,2.3,1,3.3,1.4c4.9,2.2,9.7,4.6,14.5,7.1c9.4,5,18.6,10.5,27.5,16.4
				c3.8,2.5,7.5,5.2,11.2,7.8c4.5,3.2-3.5-2.9-0.7-0.6c0.8,0.7,1.7,1.3,2.5,2c2.3,1.9,4.5,3.8,6.7,5.7c3.3,3,6.5,6.2,9.5,9.5
				c0.8,0.9,3.6,5.2,4.6,5.4c-0.3-0.1-3.7-5.1-1.1-1.4c0.9,1.3,1.8,2.5,2.7,3.9c2.5,3.7,4.7,7.6,6.6,11.6c1,2,1.4,5.2-0.5-1.5
				c0.2,0.8,0.7,1.7,1,2.5c0.8,2.1,1.4,4.2,2,6.4c0.6,2.2,1.1,4.3,1.5,6.5c0.2,0.8,0.2,1.8,0.4,2.6c-2-7.4-0.5-3.7-0.3-1.5
				c0.4,4.7,0.5,9.4,0.1,14.1c-0.1,0.9-0.1,1.8-0.2,2.7c-0.6,5.7,0.7-4.2,0.2-1.4c-0.4,2.2-0.8,4.4-1.3,6.6
				c-1.1,4.6-2.5,9.1-4.2,13.5c-0.6,1.6-2.1,3.9,1-2.4c-0.6,1.2-1.1,2.5-1.7,3.7c-1,2-2.1,4-3.2,5.9c-1.1,1.9-2.3,3.8-3.6,5.7
				c-0.5,0.7-1,1.5-1.6,2.2c-2.8,4,3.6-4.4,0.7-0.9c-2.9,3.4-6,6.6-9.3,9.6c-0.8,0.7-1.7,1.4-2.6,2.1c-2,1.7,5.4-3.9,0.9-0.8
				c-2,1.4-4.1,2.7-6.3,4c12.8,7.3,25.6,14.7,38.4,22c-0.7-13.4,0.9-27-0.6-40.4c-1.2-11.3-3.3-22-7.5-32.5
				c-8.5-21.1-21.8-40.1-39.4-54.8c-17.5-14.5-37.2-25.6-59.2-31.8c-26.2-7.4-53.4-7.5-80.1-3.7c-28.5,4-55.7,13.9-81.5,26.5
				c12.8,7.3,25.6,14.7,38.4,22c-0.1-0.9-0.6-3.4-0.1-4.3c0,0-1.2,6.9-0.2,2.7c1.2-4.8-3.2,5.2-0.5,1c0.5-0.8,1-1.6,1.4-2.4
				c2.5-4.3-3.3,3.5-1,1.1c0.9-0.9,1.6-1.9,2.5-2.7c0.7-0.7,1.4-1.4,2.2-2.1c0.8-0.7,1.5-1.3,2.3-2c2.1-1.7,1.6-1.3-1.6,1.2
				c1.7-0.4,4-2.8,5.6-3.8c2.2-1.4,4.4-2.7,6.7-4.1c5.6-3.3,11.2-6.5,17-9.5c5.2-2.7,10.5-5.3,15.9-7.8c2.6-1.2,5.3-2.9,8.1-3.6
				c-0.6,0.1-5.4,2.2-1.2,0.5c1.6-0.7,3.3-1.3,4.9-2c11.5-4.5,23.3-8.5,35.2-11.8c11.5-3.2,23-5.7,34.8-7.7c6-1-4.4,0.4-0.5,0.1
				c1.5-0.1,3-0.3,4.5-0.4c3-0.2,6-0.3,9-0.3c1.2,0,2.4,0.1,3.6,0.1c0.6,0,1.2,0.1,1.8,0.1c2.9,0.3,2.4,0.2-1.4-0.3
				c1.6-0.9,7,1.5,8.7,2c0.9,0.3,3.6,1.8,4.5,1.6c-0.6,0.1-5.5-2.7-1.8-0.6c2.3,1.3,4.6,2.5,6.8,3.9c1.1,0.7,2.2,1.5,3.3,2.2
				c3,2-4.9-4.1-0.8-0.6c2.4,2.1,4.8,4.2,7.1,6.5c3.4,3.4,6.7,7.1,9.7,10.8c0.6,0.8,2.1,3.4,3,3.8c-2-0.8-2.9-3.9-1.1-1.3
				c2.1,2.9,4.3,5.8,6.3,8.7c7.9,11.3,15.1,23,21.5,35.2c3.1,5.8,6,11.7,8.7,17.7c0.6,1.4,1.2,2.7,1.8,4.1c2.7,6.1-1.4-3.5,0.6,1.3
				c1.3,3.3,2.7,6.7,3.9,10c14.2-8.3,28.4-16.6,42.7-24.8c-43-42.6-93.8-75.8-149.5-99.1c-14.9-6.3-30.2-11.7-45.7-16.3
				c-4.5,16.4-9,32.8-13.6,49.2c8.2,1.2,16.3,3.1,24.2,5.9c1.7,0.6,3.4,1.3,5.1,1.9c3.1,1.1-4.8-2.2-1.8-0.8
				c0.9,0.4,1.9,0.8,2.8,1.3c3.8,1.8,7.5,3.7,11,5.8c3.4,2,6.6,4.1,9.8,6.4c0.3,0.2,2,1.7,2.5,1.8c-2.6-0.5-3.8-3.1-1.5-1.1
				c1.8,1.5,3.6,3,5.3,4.5c2.9,2.6,5.7,5.3,8.3,8.2c1.4,1.5,2.8,3.1,4.1,4.7c0.5,0.6,1,1.2,1.5,1.8c2,2.4-3.3-4.5-0.7-0.8
				c5.2,7.2,9.6,14.8,13.4,22.9c1.7,3.6-0.7-1.5-0.6-1.5c0.1,0,1.3,3.3,1.2,3.1c0.7,1.8,1.3,3.6,1.9,5.5c1.4,4.2,2.6,8.5,3.5,12.8
				c0.5,2.2,0.9,4.3,1.3,6.5c1.1,6.4-0.3-4.1,0.1,0.6c0.5,4.7,0.8,9.4,0.8,14.1c0,4.1-0.2,8.3-0.5,12.4c-0.1,1.1-0.4,2.2-0.4,3.3
				c0-0.6,1.1-6.3,0.2-1.9c-0.1,0.7-0.3,1.5-0.4,2.2c-0.9,4-0.2,0.7,0.8-1.2c1.3-2.3,3.4-4.2,5.6-5.7c1.9-1.3,4.1-2,6.3-2.1
				c2.5-0.2,3.1-0.3,1.7-0.3c-3,0.2,6.3,1.2,3.3,0.4c-2.8-0.8,5.6,3,2.1,0.9c-2.4-1.5,0.2-0.9,2,1.8c-0.5-0.8-3-4-0.7-0.2
				c2.2,3.6,0.6,0.9,0.2,0c-0.2-0.4-0.5-0.8-0.6-1.2c-0.9-1.8-0.5-0.9,1,2.6c0-1.7-1.5-4.1-2-5.8c-0.7-2.2-1.4-4.3-2.2-6.5
				c-3.2-8.2-6.4-14.1-12.1-20.9c-6.5-7.7-19.3-8.9-27.9-5.3c-9,3.8-16.1,13.2-15.7,23.3c1.1,26.6,2.2,53.1,3.3,79.7
				c16.7-2.3,33.4-4.5,50.1-6.8c-9.6-37.3-17.5-75-23.7-113.1c-0.9-5.7-6.8-12.6-11.7-15.3c-5.2-2.7-10.5-3.8-16.3-3
				c-12.1,1.6-22.5,12.3-22.1,25.1c0.6,20.2,1.2,40.3,1.8,60.5c16.7-2.3,33.4-4.5,50.1-6.8c-10.9-34.6-21.8-69.1-32.7-103.7
				c-3.3-10.3-13.2-19.2-24.6-18.7c-4.5,0.2-8.9,1.4-12.9,3.5c-6.2,3.3-9.2,9.1-11.7,15.3c-5.9,14.2-6.4,30.3-5.5,45.4
				c0.9,15.2,2.2,30.4,3.3,45.5c2.3,31,4.6,62.1,6.9,93.1c16.7-2.3,33.4-4.5,50.1-6.8c-11.1-48.8-22.2-97.6-33.3-146.5
				c-2.8-12.4-16-19.9-28-18.3c-12.1,1.6-22.5,12.3-22.1,25.1c0.6,18.3,1.2,36.6,1.8,55c16.7-2.3,33.4-4.5,50.1-6.8
				c-7.4-21.2-14.8-42.4-22.3-63.5c-4.2-12.1-14.9-20-28-18.3c-12.9,1.7-21.4,12.2-22.1,25.1c-2.3,39.4-2.5,78.8-0.6,118.2
				c16.7-2.3,33.4-4.5,50.1-6.8c-3-15.7-5.8-31.4-8.2-47.2c-1.2-7.7-2.4-15.5-3.4-23.2c-0.1-0.8-1-7.4-0.5-3.4
				c0.5,4-0.3-2.6-0.4-3.4c-0.5-4.2-1.1-8.4-1.6-12.6c-16.7,2.3-33.4,4.5-50.1,6.8c18.2,63,36.3,126.1,54.5,189.1
				c3.5,12.3,15.5,20,28,18.3c12.4-1.7,22.2-12.3,22.1-25.1c-0.1-13,0.3-25.9,1.3-38.8c0.5-6.5,1.2-12.9,2-19.3c0.6-5-0.5,3.3,0,0
				c0.3-1.6,0.5-3.2,0.7-4.8c0.5-3.2,1.1-6.4,1.6-9.6c1-5.6,2.1-11.2,3.7-16.7c0.3-1,0.6-1.9,0.9-2.8c1.5-4.9-2.8,5.1-0.3,0.7
				c0.5-0.8,1-1.7,1.4-2.5c2.2-4-2.8,2.7-1,1.2c3.2-2.5,0.1-0.2-1.3,0.8c3.7-2.3-5,1.9-2.5,0.9c4.6-1.8-2.8,0.9-2.9,0.3
				c0.6,0,1.1,0,1.7,0c1.3,0.1,0.8,0-1.7-0.3c-2.6-0.4-3-0.4-1.2,0c0.4,0.1,0.7,0.2,1.1,0.3c-1.4-0.6-2.7-1.1-4.1-1.7
				c1.5,1,1.3,0.7-0.8-0.8c-2-1.6-2.3-1.8-1-0.6c-0.9-1.2-1.8-2.4-2.8-3.5c-0.6-1.4-1.1-2.8-1.7-4.3c0.7,2.5,0.5,1.3-0.4-3.6
				c0.5,12.8,9.3,23.3,22.1,25.1c12.1,1.6,25.1-5.9,28-18.3c4.1-17.3,9.4-34.2,16-50.7c-14.2,3.8-28.4,7.5-42.7,11.3
				c3.1,2.7,6.1,5.4,9.2,8.1c7,6.1,15.6,9.1,24.8,6.6c7.7-2.1,16.6-9.4,17.8-17.8c0.9-6.7,2.4-13.4,4.6-19.8c0.5-1.4,1-2.8,1.5-4.2
				c2.1-5.7-2.5,5,0.2-0.4c1.6-3.2,3.2-6.3,5-9.4c5.3-8.8,4.2-20.4-2-28.3c-6.3-8.2-16.7-11.6-26.8-9.1c-23.7,5.8-29.7,40.7-7.9,53
				c11.2,6.3,24.8,4.8,34.4-4c7.6-7,11.8-19.5,8.1-29.5c-2.4-6.4-5.7-11.7-11.7-15.3c-5.5-3.2-13.5-4.6-19.7-2.6
				c-12.2,3.9-22.8,18-17.8,31.4c3.1-7.9,6.2-15.8,9.2-23.7c4.3-1.2,8.6-2.3,12.9-3.5c3.3,0.9,6.7,1.8,10,2.7
				c3.1,3.1,6.1,6.1,9.2,9.2c-4.4,10.5-8.7,21-13.1,31.5c-9.6-12.5-19.2-25-28.8-37.5c-8.3,14-14.3,29.7-16.6,45.9
				c14.2-3.8,28.4-7.5,42.7-11.3c-3.1-2.7-6.1-5.4-9.2-8.1c-7-6.1-15.6-9.1-24.8-6.6c-9.3,2.6-14.4,9.3-17.8,17.8
				c-6.6,16.5-11.9,33.4-16,50.7c16.7,2.3,33.4,4.5,50.1,6.8c-0.9-21.7-19.6-37.8-41.3-36.5c-22.2,1.4-36.5,18.7-42.4,38.9
				c-4.9,16.8-6.9,35-8.8,52.3c-1.8,16.8-2.5,33.6-2.4,50.5c16.7-2.3,33.4-4.5,50.1-6.8c-18.2-63-36.3-126.1-54.5-189.1
				c-3.5-12.3-15.5-20-28-18.3c-11.3,1.5-23.7,12.5-22.1,25.1c4.2,34.7,9.4,69.2,16,103.5c2.4,12.4,16.4,19.8,28,18.3
				c12-1.6,22.7-12.3,22.1-25.1c-1.8-39.4-1.6-78.8,0.6-118.2c-16.7,2.3-33.4,4.5-50.1,6.8c7.4,21.2,14.8,42.4,22.3,63.5
				c4.2,12.1,14.9,20,28,18.3c12.1-1.6,22.5-12.3,22.1-25.1c-0.6-18.3-1.2-36.6-1.8-55c-16.7,2.3-33.4,4.5-50.1,6.8
				c11.1,48.8,22.2,97.6,33.3,146.5c2.8,12.4,16,19.9,28,18.3c11.7-1.6,23.1-12.4,22.1-25.1c-2.2-30.4-4.5-60.8-6.7-91.1
				c-1.1-15-2.3-29.9-3.3-44.9c-0.4-6.4-0.7-12.9-0.3-19.4c0.1-1.7,0.5-3.5,0.5-5.2c0,6.4-0.2,2.1,0.2,0c0.8-3.4,1.8-6.7,3.2-9.9
				c-16.4,0-32.8,0-49.2,0c10.9,34.6,21.8,69.1,32.7,103.7c3.8,12.2,15.2,20,28,18.3c12.1-1.6,22.5-12.3,22.1-25.1
				c-0.6-20.2-1.2-40.3-1.8-60.5c-16.7,2.3-33.4,4.5-50.1,6.8c6.1,38,14,75.8,23.7,113.1c3.2,12.3,15.7,19.9,28,18.3
				c12-1.6,22.7-12.3,22.1-25.1c-1.1-26.6-2.2-53.1-3.3-79.7c-14.5,6-29,12-43.6,18c-4.2-5.1-1.9-2.6-1-0.9c1.5,2.6,0.2,3.3-0.3-1.4
				c0.2,1.9,1.4,3.9,2,5.7c2.1,6.3,4.1,12.9,7.5,18.5c7.8,12.4,21.5,21.7,36.4,22c18,0.4,32.7-13,35.7-30.4c2-11.5,3-23.2,2.3-34.9
				c-1.5-23.9-7.9-47.2-19.5-68.2c-11.2-20.3-27.1-36.9-45.7-50.4c-18.8-13.7-41.7-23.1-64.7-26.5c-7.1-1-13.2-1.2-19.7,2.6
				c-5.3,3.1-10.3,9.2-11.7,15.3c-3.1,13.7,4.1,27.3,17.8,31.4c8.6,2.5,17,5.3,25.4,8.4c4.2,1.5,8.4,3.1,12.5,4.8
				c1.5,0.6,5.2,1.4,6.2,2.5c-3.5-1.5-4-1.7-1.5-0.6c1,0.4,2,0.9,3.1,1.3c16.1,7.1,31.7,15.1,46.9,24.1c7.4,4.4,14.8,9,21.9,13.9
				c3.7,2.5,7.4,5,11,7.7c3.4,2.5,7.8,4.9,10.7,8c-4.9-5.2,0,0,1.4,1.2c1.7,1.4,3.5,2.8,5.2,4.2c3.4,2.8,6.8,5.7,10.2,8.7
				c6.7,5.9,13.2,12,19.6,18.3c7.7,7.7,21.4,10.1,30.9,4c8.9-5.8,15.8-18,11.7-28.8c-10-26.7-22.6-52.4-38.6-76.1
				c-15.2-22.5-33.2-46.6-58.7-58.1c-30-13.5-62.1-8.1-92.9-0.3c-27.2,6.9-53.7,17.2-78.7,30c-14,7.1-27.7,15-39.9,24.8
				C485.9,582,475,599,476.6,616.9c1.8,19.9,20.1,30.9,38.4,22c2.6-1.3,5.3-2.5,8-3.7c1.1-0.5,2.2-1,3.2-1.4
				c4.1-1.9-0.7,0.2-1.2,0.5c5-2.8,11.1-4.4,16.6-6.3c10.6-3.6,21.4-6.6,32.4-8.6c2.3-0.4,4.6-0.8,6.9-1.2c5.8-1-4.5,0.5-0.7,0.1
				c1.5-0.2,2.9-0.3,4.4-0.5c5.5-0.6,11-0.9,16.6-0.9c5.2,0,10.4,0.1,15.7,0.6c1.4,0.1,2.9,0.3,4.3,0.4c1.8,0.2,4.1,1.3-1.6-0.2
				c2.8,0.7,5.8,0.9,8.6,1.5c4.5,0.9,9,2.1,13.4,3.5c2.3,0.7,4.5,1.5,6.8,2.4c0.9,0.3,1.8,0.7,2.7,1.1c-7.2-2.5-2.4-1-0.8-0.3
				c8.3,3.8,16.1,8.5,23.5,13.9c3.4,2.4-1.5-1.1-1.7-1.4c0.8,0.8,1.9,1.5,2.8,2.3c1.6,1.4,3.3,2.8,4.8,4.3c3.5,3.2,6.8,6.6,9.8,10.3
				c0.6,0.7,1.2,1.5,1.8,2.2c2.6,3.2-1.2-1.5-1.4-1.8c1.1,2,2.8,3.9,4,5.8c2.4,3.7,4.6,7.6,6.6,11.5c0.5,1,1,2.1,1.5,3.2
				c2,4.2-2.1-5.7-0.4-0.9c0.8,2.2,1.6,4.4,2.2,6.6c0.7,2.2,1.3,4.5,1.8,6.8c0.3,1.1,0.5,2.3,0.7,3.4c1,5.7-0.3-3.9-0.1-1.2
				c1.3,13.7-0.1,27.4,0.6,41.1c1,19.1,21,32.1,38.4,22c36.7-21.2,59.5-64.9,56.4-107.2c-1.9-25.2-11.6-47.1-27.5-66.6
				c-14.1-17.3-32.7-30.9-51.5-42.6c-21.4-13.4-44.7-25.1-69.2-31.7c-24.6-6.6-49.7-7.2-74.8-3.4c-47.6,7.1-89.1,34.7-116.9,73.3
				c-14.1,19.6-24.3,43.1-28.9,66.8c-5.8,30.4-3.7,60.8-0.8,91.4c0.7,6.9,2.4,13,7.5,18c4.4,4.4,11.7,7.8,18,7.5
				c13.9-0.6,25.4-11.2,25.5-25.5c0.1-11.3,0.6-22.5,1.6-33.8c0.5-5.6,1.1-11.2,1.8-16.8c0.7-6.2-0.6,3.9,0,0.3
				c0.2-1.5,0.4-3.1,0.7-4.6c0.4-2.8,0.9-5.6,1.3-8.3c3.9-22.6,9.5-44.7,16.8-66.4c-16.4-4.5-32.8-9-49.2-13.6
				c-19.1,58.9-9.3,127.3,26.2,178.1c4.7,6.8,10.3,11.1,18.6,12.2c7.4,1,16.4-0.9,21.4-7c12.1-14.6,19.9-32.9,17.8-52.2
				c-16.7,2.3-33.4,4.5-50.1,6.8c7.4,24.6,14.9,49.2,22.3,73.8c3.7,12.2,15.3,20,28,18.3c12.3-1.6,22.3-12.3,22.1-25.1
				c-0.8-47.5-1.5-95-2.3-142.5c-0.2-13.3-11.6-26.1-25.5-25.5C520.6,627.7,508.5,638.3,508.8,652.6L508.8,652.6z"/>
		</g>
	</g>
	<g class="st1">
		<g>
			<path class="st2" d="M498.6,633.1c-0.2-9-0.2-18,0.2-27c0.2-4.3,0.6-8.5,1.1-12.8c0.3-3.3-0.9,5.6-0.3,2.3
				c0.2-1.2,0.4-2.5,0.6-3.7c0.4-2.4,0.9-4.8,1.4-7.3c0.9-3.8,1.9-7.5,3.2-11.2c0.3-0.9,0.7-1.8,1-2.7c1.6-4.8-2.1,4.6-0.7,1.5
				c1-2.1,2-4.3,3.2-6.4c1-1.9,2.2-3.7,3.4-5.4c0.5-0.8,1.2-1.5,1.6-2.3c-0.2,0.3-4.1,4.9-1.3,1.8c1.3-1.4,2.5-2.9,3.9-4.2
				c0.7-0.7,1.4-1.4,2.1-2c0.8-0.7,1.6-1.4,2.5-2.1c-0.9,0.7-1.7,1.3-2.6,2c4.3-2,8.1-5.4,12.4-7.5c2-1,8-2.7,1.3-0.7
				c2.6-0.8,5.1-2,7.7-2.8c9.7-3.3,19.7-5.9,29.6-8.4c11.2-2.8,22.5-5.3,33.9-7.3c2.5-0.4,5.1-0.9,7.6-1.3c1.6-0.2,3.2-0.6,4.8-0.7
				c-0.7,0-5.8,0.7-1.1,0.2c5.7-0.7,11.5-1.3,17.2-1.7c11.5-0.8,23-0.9,34.6-0.2c2.2,0.1,4.4,0.3,6.6,0.5c1.1,0.1,2.2,0.2,3.3,0.3
				c0.8,0.1,5.9,1.2,1.6,0.1c-3.9-0.9-0.3,0,0.7,0.1c1.1,0.2,2.2,0.3,3.3,0.5c2.7,0.5,5.5,1,8.2,1.5c9.5,2,18.9,4.6,27.9,8
				c1.3,0.5,2.6,1,3.9,1.5c0.3,0.1,0.5,0.2,0.8,0.3c2,0.8,2,0.8,0,0c-0.5-0.2-1-0.4-1.5-0.6c1,0.4,2,0.9,3,1.3c1,0.5,2,0.9,3,1.4
				c4.5,2.1,8.8,4.5,13.1,7c4,2.4,7.9,5,11.7,7.7c4,2.9,0.4-0.8-0.6-0.5c0.2-0.1,2.7,2.2,2.6,2.1c2.1,1.7,4.1,3.5,6.1,5.4
				c3.1,2.9,6,5.9,8.8,9c0.9,1,1.7,2,2.6,3c0.7,0.8,2.4,3.7,0.5,0.5c-2.2-3.7,0.5,0.6,0.9,1.2c0.8,1.1,1.5,2.1,2.3,3.2
				c2.5,3.7,4.8,7.5,7,11.5c1,1.8,1.9,3.7,2.9,5.6c0.6,1.2,1.1,2.4,1.6,3.6c1.3,2.9-2-5.3-0.5-1c1.6,4.4,3.1,8.8,4.3,13.4
				c0.5,2,1,4,1.4,6.1c0.5,2.3,0.8,10.5,0.6,2.4c0.2,5.2,0.8,10.3,0.7,15.5c-0.1,2.5-0.7,5.3-0.6,7.8c0-0.4,1-6.5,0.3-2.1
				c-0.3,1.6-0.6,3.3-0.9,4.9c-1.1,5.4-2.6,10.6-4.5,15.8c-0.4,1-0.8,2-1.2,3.1c-2,5.4,2.5-5.3,0,0c-1.2,2.5-2.3,5-3.6,7.4
				c-5,9.6-10.9,18.7-17.3,27.5c-1.6,2.3-3.3,4.5-5,6.7c-2.2,3,3.9-5,0.4-0.5c-0.9,1.1-1.7,2.2-2.6,3.3c-3.7,4.6-7.4,9.1-11.1,13.6
				c14.2,8.3,28.4,16.6,42.7,24.8c19.3-50.4,21.7-108,0.3-158c-22-51.4-71.9-85.1-125-98c-33.9-8.2-69.3-9.2-104-6.6
				c8.5,8.5,17,17,25.5,25.5c-0.2,1.5-0.4,3-0.7,4.5c0.5-1.8,0.3-1.4-0.6,1c-0.3,0.7-0.6,1.4-0.9,2.1c1.4-2.1,0.7-1.2-2.1,2.7
				c2.4-2.7-5.6,3.8-0.7,0.7c3.9-2.5-6.2,1.9-1.6,0.7c0.8-0.2,1.6-0.5,2.4-0.7c0.8-0.2,1.6-0.4,2.5-0.6c5.3-1.1-1-0.6-1.9,0.2
				c1-0.9,7-0.5,8.2-0.6c2.6-0.2,5.2-0.3,7.8-0.5c6.5-0.4,13-0.8,19.5-1c12.3-0.5,24.7-0.7,37-0.2c5.8,0.2,11.6,0.6,17.4,1.2
				c1.6,0.2,3.2,0.4,4.8,0.5c4.1,0.4-6.4-1,0,0c2.8,0.4,5.5,0.9,8.3,1.4c10.1,1.9,20,4.6,29.6,8.1c1.3,0.5,2.5,0.9,3.8,1.4
				c0.3,0.1,0.5,0.2,0.8,0.3c2.5,1,2,0.8-1.6-0.7c1.1,1.3,4.3,1.9,5.8,2.7c4.8,2.3,9.5,4.9,14,7.7c2.3,1.4,4.5,2.9,6.6,4.4
				c0.9,0.6,1.7,1.3,2.6,1.9c-5.1-3.3-2.6-2.1-1.4-1c4.1,3.5,8,7,11.7,10.9c1.6,1.7,3,3.5,4.5,5.2c2.3,2.7-3.8-5.3-0.7-0.9
				c0.6,0.8,1.2,1.7,1.8,2.5c2.9,4.3,5.5,8.7,7.7,13.4c0.2,0.4,0.8,2.4,1.3,2.8c-1.5-3.7-1.8-4.3-0.8-1.8c0.2,0.5,0.4,1,0.6,1.4
				c1.1,2.9,2,5.8,2.8,8.8c0.7,2.5,1.2,4.9,1.7,7.5c0.1,0.8,0.2,2.2,0.5,3c-0.5-4.3-0.6-5-0.3-2.3c0,0.5,0.1,1,0.1,1.5
				c0.5,5.5-0.7,11.2-0.2,16.6c-0.4-5.2,0.7-4.6,0.3-2.3c-0.3,1.5-0.6,3-0.9,4.5c-0.7,3-1.6,5.9-2.7,8.7
				c-4.5,12.6,5.1,28.5,17.8,31.4c14.4,3.3,26.5-4.4,31.4-17.8c8.5-23.6,7.2-51.4-1.9-74.6c-10.3-26.3-27.2-47.1-50.2-63.5
				c-44.2-31.6-101.6-36-154.1-33.7c-15.3,0.7-31.6,0.5-46.5,3.9c-19.2,4.4-33.4,18.4-34.6,38.5c-0.8,13,12.3,26.5,25.5,25.5
				c14.1-1.1,28.2-1.6,42.3-1.2c6.6,0.2,13.2,0.6,19.7,1.2c3.1,0.3,6.3,0.3,9.3,1c-6.9-1.6-0.8-0.1,0.6,0.1c2.2,0.3,4.3,0.7,6.5,1.1
				c12.7,2.4,25.3,5.8,37.4,10.5c1,0.4,2,0.8,3,1.2c-6.9-2.4-1.7-0.7-0.2,0c2.4,1.1,4.8,2.3,7.2,3.5c5.7,2.9,11.2,6.1,16.6,9.6
				c2.2,1.5,4.4,3,6.5,4.6c4.6,3.3-4.5-3.8-0.1-0.1c0.8,0.7,1.6,1.3,2.5,2c4.9,4.1,9.5,8.5,13.7,13.2c0.7,0.8,4.2,5.9,5.2,6
				c-0.7-0.9-1.4-1.8-2-2.7c0.6,0.8,1.3,1.7,1.9,2.5c0.6,0.8,1.2,1.7,1.8,2.5c3.5,5.1,6.6,10.4,9.3,15.9c1.1,2.2,2,4.8,3.2,6.9
				c-3.5-6.1-1-2.3-0.3-0.4c0.5,1.2,0.9,2.4,1.3,3.6c1.9,5.5,3.5,11.2,4.8,16.9c0.6,2.5,1,5,1.5,7.5c0.3,1.5,0.3,3.1,0.7,4.6
				c-1.7-6.6-0.5-3.5-0.2-1.4c0.7,5.9,1,11.9,1.1,17.8c0.1,6.3-0.2,12.5-0.7,18.8c-0.1,1.6-0.3,3.1-0.5,4.7c-0.1,1-0.2,2.1-0.4,3.1
				c0.6-4.2,0.7-4.9,0.3-2.1c-0.5,3.1-1,6.2-1.6,9.3c-2.5,12.8-6.2,25.4-10.9,37.6c-3.9,10,2.5,23.9,11.7,28.8
				c9.4,5,23.6,4.9,30.9-4c30.1-36.2,60.2-75.7,61-125c0.8-48.2-25.4-92.5-62.9-121.1c-37.2-28.4-85.6-40-131.9-39.7
				c-26,0.2-52,3.9-77.3,9.5c-23.3,5.1-47.7,10.8-69,22c-24,12.6-40.1,34.7-47.9,60.2c-6.8,22.3-7.4,46.5-6.9,69.7
				c0.3,13.3,11.5,26.1,25.5,25.5C486.6,658,498.9,647.4,498.6,633.1L498.6,633.1z"/>
		</g>
	</g>
	<g class="st1">
		<g>
			<path class="st3" d="M605.5,768.3c0.5-1.2,2-4.5,0.6-1.5c-0.5,1-0.9,2-1.4,3c-1.1,2.3-2.2,4.5-3.5,6.7c-2.3,4.1-4.8,8.1-7.5,12
				c-0.6,0.9-1.3,1.8-2,2.7c-2,2.7,0-0.4,0.9-1.2c-1.6,1.3-2.9,3.5-4.3,5.1c-3.3,3.8-6.9,7.3-10.6,10.7c14.2,3.8,28.4,7.5,42.7,11.3
				c-4.2-22-12.6-43.4-24-62.6c-5.5-9.4-18.1-15.2-28.8-11.7c-4.2,1.4-8,3.6-11.3,6.6c-5.3,4.9-6.6,11.3-7.5,18
				c-2.2,17-4.5,33.9-6.7,50.9c16.7-2.3,33.4-4.5,50.1-6.8c-3-13.1-5.9-26.1-8.9-39.2c-15.5,6.6-31.1,13.1-46.6,19.7
				c11.2,15,24.5,27.8,41,36.9c16.2,9,33.5,13.9,51.8,15.9c17,1.9,34.7-0.6,50.9-6c17.2-5.7,33.3-14.3,50.8-19.3
				c18.6-5.3,24.7-28.8,11.3-42.7c-6-6.2-12.1-12.5-18.1-18.7c-2.9-3-5.9-6-8.7-9c-0.7-0.8-1.5-1.6-2.2-2.4c0.7,0.8,1.3,1.7,2,2.5
				c-1.4-2.4-1.3-1.8,0.4,1.9c0.8,4.3,0.1,8.5-2.2,12.6c-9.6,3.9-19.2,7.8-28.8,11.7c27.2,9.3,54.3,18.5,81.5,27.8
				c10.2,3.5,23.8-2.2,28.8-11.7c5.7-10.9,3.4-21.7-4-30.9c-14.2-17.8-33.1-30-53.9-38.6c-2.3,16.7-4.5,33.4-6.8,50.1
				c1.3,0,2.7-0.1,4,0c1.1,0,4.4,0.8,0.6-0.1c-5.6-1.2-9.7-5-11.3-10.6c-2.5-9.1,0.7-14,5.9-18.8c2.9-2.7,0.4-0.5-0.8,0.1
				c-2.4,1.3-5,2.4-7.5,3.6c-11.1,5.4-22.1,10.8-33.2,16.1c-22.1,10.8-44.2,21.5-66.3,32.3c12.8,7.3,25.6,14.7,38.4,22
				c0-0.1,0-3.2-0.1-3.3c0.3,0.2-1.3,7.6-0.2,3.2c0.7-2.7-3.2,6-1.1,2.8c0.1-0.1,1.7-2.7,1.7-2.7c0.3,0.3-4.8,5.6-1.5,2.2
				c0.7-0.7,1.3-1.4,2-2.1c1.5-1.5,3.1-3,4.7-4.5c8.9-8.3,16.4-17.3,20.3-29.1c4.1-12.7-4.8-28.4-17.8-31.4
				c-14-3.2-27,4.2-31.4,17.8c-1.3,4.1,3.2-5.5,0.9-1.9c-0.1,0.2-1.5,2.9-1.8,2.9c0.1,0,4.7-5.5,1.5-2c-0.7,0.7-1.3,1.5-2,2.2
				c-3.2,3.3-6.7,6.3-10,9.5c-9.5,9.5-17.5,22.3-16.2,36.3c1.7,19.9,20.2,30.9,38.4,22c28.1-13.7,56.2-27.3,84.3-41
				c16-7.8,34.8-13.8,40.9-32.4c4-12-1.1-26.7-10.7-34.5c-9.2-7.6-20.1-10.2-31.8-9.9c-12.7,0.2-23.4,9.5-25.1,22.1
				c-1.8,13.5,6.3,23.1,18.3,28c-7.2-3-0.1,0.1,1.4,0.8c1.9,1,3.9,2,5.8,3.1c1.9,1.1,3.7,2.2,5.5,3.5c0.9,0.6,1.8,1.2,2.7,1.9
				c1.7,1.3,1.8,1.3,0,0c-1.7-1.3-1.7-1.3,0,0c0.8,0.7,1.7,1.4,2.5,2.1c1.6,1.4,3.2,2.9,4.8,4.4c3.1,3.1,6,6.3,8.7,9.7
				c8.3-14.2,16.6-28.4,24.8-42.7c-27.2-9.3-54.3-18.5-81.5-27.8c-9.6-3.3-24.6,1.9-28.8,11.7c-4,9.3-6,18.3-2.3,28.2
				c3.1,8.3,8.2,14.8,14.3,21.1c8.3,8.5,16.5,17.1,24.8,25.6c3.8-14.2,7.5-28.4,11.3-42.7c-15.8,4.5-30.5,11.9-45.8,17.5
				c-7.4,2.7-15,4.8-22.7,6.3c-5,0.9,6.6-0.7,0.2-0.1c-1.7,0.2-3.4,0.3-5.1,0.3c-3.4,0.1-6.8,0.1-10.3-0.2c-1.5-0.1-2.9-0.3-4.4-0.4
				c-4.6-0.4,6.6,1.1-0.5-0.2c-3.4-0.6-6.7-1.4-10-2.4c-3.2-0.9-6.5-2.8-9.7-3.3c3.6,1.6,4.5,1.9,2.7,1.1c-0.7-0.3-1.3-0.6-2-0.9
				c-1.8-0.8-3.5-1.7-5.3-2.6c-3-1.6-6-3.4-8.8-5.3c-1.2-0.8-2.4-1.7-3.6-2.5c-2.1-1.6-1.6-1.2,1.7,1.3c-0.8-0.6-1.5-1.2-2.3-1.9
				c-2.4-2.1-4.7-4.2-6.9-6.5c-1.2-1.2-2.3-2.5-3.5-3.8c-0.6-0.7-1.3-1.5-1.9-2.3c2.5,3.2,2.9,3.8,1.3,1.7
				c-7.7-10.3-19.3-15.8-31.9-10.4c-11.9,5-17.6,17.6-14.8,30.1c3,13.1,5.9,26.1,8.9,39.2c2.8,12.4,16,19.9,28,18.3
				c5.4-0.7,10.9-2.9,14.7-7c4.9-5.3,6.5-10.9,7.5-18c2.2-17,4.5-33.9,6.7-50.9c-15.9,4.3-31.7,8.6-47.6,12.9
				c2.4,4.1,4.7,8.3,6.8,12.6c0.9,1.8,1.6,5,3,6.5c-0.9-0.9-1.8-4.4-0.5-1.2c0.5,1.4,1.1,2.8,1.6,4.2c3.4,9.2,6,18.7,7.9,28.4
				c1.6,8.5,9.8,15.6,17.8,17.8c9.1,2.5,18-0.3,24.8-6.6c18.3-16.7,31.4-37.2,40.8-60c2.4-5.7,0.4-14.6-2.6-19.7
				c-3.1-5.3-9.2-10.3-15.3-11.7c-6.5-1.5-13.9-1.2-19.7,2.6C611.3,756.9,608.2,761.8,605.5,768.3L605.5,768.3z"/>
		</g>
	</g>
	<g class="st1">
		<g>
			<path class="st2" d="M772.7,798.7c13.7-0.7,27.4-0.7,41,0.2c6.4,0.4,12.7,1,19.1,1.7c1.5,0.2,7.5,1.4,0.5,0
				c1.2,0.2,2.4,0.3,3.6,0.5c3.9,0.6,7.8,1.2,11.7,1.9c13.5,2.5,26.8,5.7,39.9,9.7c5.8,1.8,11.6,3.7,17.3,5.8
				c3.1,1.1,6.3,2.3,9.4,3.6c1.4,0.6,2.8,1.1,4.2,1.7c2.6,1.1,2.2,0.9-1.1-0.4c1.1,0.5,2.1,0.9,3.2,1.4
				c10.9,4.8,21.5,10.3,31.2,17.2c0.9,0.6,4.8,2.4,1.3,0.9c-3.4-1.4,0.2,0.2,1.2,1c2,1.7,4,3.6,5.9,5.5c0.7,0.7,6.8,6.5,6.4,7.2
				c-0.1,0.2-3.1-4.5-1-1.2c1.2,1.9,2.5,3.7,3.6,5.6c1.4,2.4,2.7,4.8,3.9,7.3c0.2,0.4,2.3,4.3,2.1,4.5c0.3-0.4-2.2-5.5-0.4-0.7
				c2.3,6,4.1,12.2,5.6,18.4c1.4,5.7,2.6,11.5,3.6,17.3c0.6,3.5,1.2,6.9,1.8,10.4c0.3,1.6,0.5,3.2,0.7,4.8c0.2,1.5,1.4,8.8,0.3,1.9
				c5,31.9,5.2,65.1,3.1,97.3c-0.9,13.3,12.4,26.1,25.5,25.5c14.6-0.7,24.6-11.2,25.5-25.5c2-30.5,1.2-61.1-2.4-91.5
				c-3.6-30.1-8.1-60.6-21.5-88.2c-12.8-26.3-36.2-45.1-62-57.8c-26.1-12.8-53.9-22.5-82.3-28.7c-33.1-7.2-67.2-10.3-101.1-8.5
				c-13.3,0.7-26.2,11.2-25.5,25.5C747.8,786.4,758.5,799.4,772.7,798.7L772.7,798.7z"/>
		</g>
	</g>
	<g class="st1">
		<g>
			<path class="st2" d="M1018.6,998.4c-26.1-0.1-52.2-0.1-78.3-0.2c8.5,8.5,17,17,25.5,25.5c0-1.7-0.7-7.9,0.4-9
				c-0.1,1.1-0.3,2.1-0.4,3.2c0.1-0.9,0.3-1.8,0.4-2.7c0.3-1.5,0.6-3,0.9-4.4c1.3-5.9,3-11.8,4.7-17.6c3.4-11.7,6.3-23.4,8.1-35.4
				c3.9-26.4,4.7-52.8,4.9-79.5c-17,0-34,0-51,0c5.9,51.2,11.7,102.5,17.6,153.7c0.8,7,2.3,12.9,7.5,18c4.4,4.4,11.7,7.8,18,7.5
				c14.2-0.6,25.1-11.2,25.5-25.5c0.5-15.2,1-30.4,1.5-45.5c0.4-13.4-12-26.1-25.5-25.5c-14.2,0.6-25.1,11.2-25.5,25.5
				c-0.5,15.2-1,30.4-1.5,45.5c17,0,34,0,51,0c-5.9-51.2-11.7-102.5-17.6-153.7c-0.8-7-2.3-12.9-7.5-18c-4.4-4.4-11.7-7.8-18-7.5
				c-13.9,0.6-25.4,11.2-25.5,25.5c-0.1,12.6-0.2,25.3-0.8,37.9c-0.3,6-0.7,12-1.2,17.9c-0.3,3.1-0.6,6.3-1,9.4
				c-0.2,1.7,0.2,5.8,0-0.2c0,1.5-0.5,3.2-0.7,4.7c-4.2,25.5-15.4,49.7-15.3,75.8c0,13.8,11.7,25.5,25.5,25.5
				c26.1,0.1,52.2,0.1,78.3,0.2c13.4,0,26.1-11.8,25.5-25.5C1043.5,1010.1,1032.9,998.5,1018.6,998.4L1018.6,998.4z"/>
		</g>
	</g>
	<g class="st1">
		<g>
			<path class="st3" d="M995.4,958.6C984.9,904.1,960,853.7,925,810.8c-10.3,13.4-20.6,26.7-30.9,40.1c5,2.7,9.9,5.6,14.7,8.8
				c2.1,1.4,4.2,2.9,6.3,4.4c1.1,0.8,2.5,1.6,3.4,2.6c-1.8-1.9-3.3-2.6-0.5-0.3c8.6,7.1,16.6,14.9,23.8,23.3
				c10.3-13.4,20.6-26.7,30.9-40.1C906.1,806,830.4,770.5,749.1,771c-23.7,0.1-47.6,3.4-70.3,10.2c-10.4,3.1-19.2,13.3-18.7,24.6
				c0.5,10.5,7.5,22.6,18.7,24.6c52.6,9.4,105.6,21.8,155.6,40.9c3,1.1,5.9,2.3,8.8,3.5c1.9,0.8,5.2,1.1-0.5-0.2
				c1.6,0.4,3.3,1.4,4.7,2.1c5.8,2.6,11.4,5.3,17,8.2c10.6,5.6,20.9,11.8,30.6,18.9c1.2,0.9,6.1,3.7,0.3,0.1
				c1.2,0.7,2.3,1.8,3.4,2.7c2.3,1.9,4.6,3.9,6.9,5.9c4.3,3.9,8.5,8.1,12.4,12.4c1.8,2,3.5,4,5.2,6.1c0.3,0.4,0.7,0.8,1,1.2
				c1.7,2.1,1.3,1.7-1-1.4c0,0.4,1.8,2.4,1.9,2.6c3.4,4.7,6.6,9.6,9.5,14.7c1.6,2.8,3.1,5.6,4.5,8.4c0.7,1.4,1.3,2.9,2,4.3
				c2.3,4.8-1.8-4.9-0.1-0.3c2.2,5.9,4.2,11.8,5.7,17.9c0.8,3.3,1.4,6.6,2,10c0.6,3.6-0.6-6.8-0.2-1.4c0.1,1.8,0.3,3.6,0.4,5.4
				c0.4,6.5,0.1,13.1-0.6,19.6c14.5-6,29-12,43.6-18c-33.4-32.1-65.9-65.8-101.9-95.1c-36.2-29.5-76-52.6-120.5-67.2
				c-25-8.2-50.8-13-76.9-15.6c0,17,0,34,0,51c11.7-0.7,23.4-0.6,35.1,0.1c5.5,0.3,11,0.8,16.5,1.5c1.2,0.1,2.5,0.5,3.7,0.4
				c-5.5,0.1-3.1-0.4-1.3-0.2c3.4,0.5,6.7,1,10,1.6c22.6,3.9,44.8,9.8,66.6,16.9c10.9,3.6,21.8,7.5,32.6,11.6c5.2,2,10.4,4,15.6,6.1
				c2.6,1,5.2,2.1,7.8,3.1c1.4,0.6,2.8,1.1,4.1,1.7c0.5,0.2,1,0.4,1.6,0.6c2.6,1.1,2.1,0.9-1.4-0.6c4.5,0.8,9.7,4.2,13.9,6.2
				c4.6,2.2,9.1,4.5,13.4,6.9c4.4,2.5,8.6,5.1,12.7,8c0.4,0.3,5,3.4,1.4,1c-3.5-2.4,0.9,0.8,1.3,1.1c2.1,1.8,4.2,3.7,6.2,5.6
				c1.9,1.9,3.6,3.8,5.3,5.8c3,3.4-1.1-1.1-1-1.4c-0.1,0.7,2.2,3.1,2.7,3.9c1.6,2.4,3.1,4.9,4.4,7.5c0.3,0.7,1.1,3.3,1.7,3.6
				c-0.4-1.1-0.9-2.1-1.3-3.2c0.4,1,0.8,2,1.1,2.9c0.9,2.5,1.6,5,2.2,7.5c0.2,1,0.4,2,0.6,3c1.2,5.3-0.3-6.1-0.2-0.7
				c0.1,2.6,0,5.1,0,7.7c0,5.3,1-4.9,0.3-1.4c-0.4,1.8-0.7,3.5-1.2,5.3c8.2-6.2,16.4-12.5,24.6-18.7c-19.2,1.2-32.6,13.9-38.4,31.8
				c-2.1,6.4-2.4,13.3-2.9,20c-0.1,1.3-0.2,2.6-0.3,3.9c-0.2,3.2,1.2-5.9,0.2-1.4c-0.3,1.1-1.2,3.3-1.2,4.4c0.5-1.1,0.9-2.3,1.4-3.4
				c-1.4,2.3-0.9,1.8,1.4-1.5c8.3-2.2,16.6-4.4,24.8-6.6C879.4,976.1,793,979.2,711,978.9c-88.4-0.3-176.7-0.6-265.1-0.9
				c-49.2-0.2-99-1.4-147.2,10.3c10.5,5.9,20.9,11.9,31.4,17.8c-0.8-2.2-1.5-4.3-2.1-6.5c-0.4-1.4-0.6-2.8-0.9-4.1
				c-0.9-3.4,0.4,5.3,0.2,1.8c-0.4-5.1-0.3-10,0-15.1c0.2-3.5-0.9,5.2-0.2,1.7c0.2-1.1,0.4-2.2,0.6-3.4c0.5-2.5,1.1-5,1.8-7.5
				c1.4-5,4-9.9,5.2-14.9c-0.2,0.7-2.4,5.3-0.5,1.2c0.5-1.1,1-2.2,1.5-3.3c1-2.2,2.1-4.3,3.2-6.4c2.4-4.8,5-9.4,7.7-14.1
				c5.2-8.9,10.5-17.7,16.1-26.3c2.7-4.2,5.5-8.3,8.5-12.3c0.7-0.9,1.4-1.9,2.1-2.8c1-1.4,1.6-3.5-0.8,1c1.3-2.4,3.8-4.7,5.6-6.8
				c6.3-7.3,13.2-13.8,20.6-19.9c3.4-2.8-0.8,0.7-1.3,1c0.9-0.5,1.8-1.3,2.6-1.9c1.8-1.3,3.6-2.5,5.4-3.7c4.1-2.7,8.3-5.3,12.6-7.7
				c4.1-2.3,8.2-4.4,12.5-6.3c1.2-0.6,2.5-1.1,3.8-1.7c3.6-1.6-1.3,1-1.5,0.6c0.1,0.2,6.4-2.5,6.9-2.7c18.9-7.1,38.5-11.4,58.3-14.5
				c4.7-0.7-0.3,0-1.1,0.1c1.6-0.3,3.2-0.4,4.8-0.6c2.5-0.3,5.1-0.6,7.6-0.8c5.7-0.6,11.5-1.1,17.3-1.5c11.2-0.8,22.5-1.3,33.7-1.6
				c5.1-0.2,10.3-0.3,15.4-0.4c0.8,0,7,0.3,7.3-0.2c-1.3-0.2-2.5-0.4-3.8-0.5c-4.1-9.9-8.2-19.9-12.3-29.8c2.8-3.3,3.4-4,1.5-2
				c-0.3,0.3-0.7,0.6-1,0.9c1.6-3.4,4.3-2.8,1.8-1.7c-1.1,0.5-2.2,1.1-3.2,1.6c-2.4,1.2-4.9,2.3-7.4,3.4c-3.2,1.5,4.4-1.7,1.1-0.5
				c-1.1,0.4-2.2,0.9-3.4,1.3c-2.8,1.1-5.7,2.1-8.5,3.1c-19.7,6.9-40,12-59.7,18.9c-45.4,15.9-88.6,37.9-127.7,66
				c-9,6.4-15.4,17.4-11.7,28.8c3.7,11.4,12.9,17.6,24.6,18.7c35.4,3.3,70.8-0.2,106.1-2.6c17.7-1.2,35.4-2.2,53.2-1.9
				c8.6,0.2,17.2,0.6,25.7,1.5c0.9,0.1,1.8,0.2,2.6,0.3c4.6,0.5-0.9-0.1-1.5-0.2c2,0.5,4.1,0.6,6.1,1c4.4,0.7,8.7,1.6,13,2.6
				c4,1,8,2.1,12,3.3c2,0.6,4,1.3,5.9,2c1.1,0.4,2.2,0.9,3.4,1.2c3.4,1.1-4.7-2.4-2.1-0.9c1.4,0.8,2.9,1.6,4.3,2.4
				c3.6,2.2-4.4-3.7-0.5,0c1.9,1.7-2.5-3.6-2.8-4.6c-1.5-3.8-0.7-1.7-0.4-0.8c-0.7-2.9-0.9-5.8-0.2-8.7c0.4-1.6,2.1-6,3.8-6.7
				c0,0-1.9,1.6-2,1.9c0.2-0.4,5.2-3.7,1.8-1.5c-1.7,1.1-3.4,2.3-5.1,3.5c-3.7,2.5-7.4,4.9-11.1,7.2c-7.2,4.6-14.5,9-21.9,13.2
				c-15.1,8.6-30.6,16.5-46.4,23.6c-1.6,0.7-3.2,1.4-4.8,2.1c-1.5,0.6-8.7,3.1-2,0.9c-4.2,1.4-8.2,3.4-12.3,4.9
				c-8,3.1-16,6-24.1,8.7c-18.4,6.1-37.2,11.3-56.2,15.4c-4.6,1-9.2,1.8-13.9,2.6c-0.7,0.1-3.8,0.6-0.1,0c4.2-0.6-1,0.1-1.9,0.2
				c-2.3,0.2-4.7,0.4-7,0.5c-2.3,0.1-4.6,0.1-7,0c-1.2,0-2.3-0.1-3.5-0.2c-0.9-0.1-6-0.5-1.7-0.1c3.7,0.3,0.8,0.1,0-0.1
				c-1.4-0.3-2.8-0.6-4.2-1c-2.5-0.7-5-1.5-7.4-2.4c0,16.4,0,32.8,0,49.2c34.6-14,70.3-25,106.8-32.8c9.1-1.9,18.3-3.7,27.5-5.2
				c4.3-0.7,8.6-1.4,12.9-2c1.5-0.2,9.9-1.6,2.4-0.4c2.4-0.4,4.9-0.6,7.4-0.9c18.5-2.2,37.1-3.6,55.7-4.2
				c-2.3-16.7-4.5-33.4-6.8-50.1c-3.2,0.5-6.4,1-9.6,1.5c-1.3,0.2-2.6,0.4-3.8,0.6c-6.3,0.9,3.8-0.4,0.1,0c-6.1,0.7-12.2,1.5-18.3,2
				c-12.2,1.2-24.5,1.9-36.8,2.2c-24.6,0.7-49.2-0.3-73.6-2.9c6,14.5,12,29,18,43.6c-1.9,1.5-3.7,2.7-0.6,0.5
				c1.1-0.8,2.2-1.5,3.4-2.3c2.1-1.3,4.2-2.5,6.4-3.6c1.1-0.6,2.7-1,3.7-1.8c-0.9,0.7-4.9,1.8-1.6,0.7c2.6-0.9,5.1-1.8,7.7-2.5
				c2.4-0.7,4.7-1.2,7.1-1.6c2.1-0.4,5.2,0.1-1.1,0.1c1.1,0,2.2-0.2,3.2-0.3c5.4-0.4,10.9-0.2,16.3,0.4
				c-4.3-15.9-8.6-31.7-12.9-47.6c-3.1,1.4-6.1,2.8-9.2,4.1c-1.7,0.7-1.1,0.5,1.9-0.8c-0.8,0.4-1.7,0.7-2.5,1
				c-1.4,0.6-2.8,1.1-4.3,1.7c-6.3,2.4-12.6,4.6-19,6.7c-12.8,4-25.9,7.3-39.2,9.6c-3,0.5-6,1-9.1,1.5c-1.2,0.2-2.4,0.4-3.6,0.5
				c1-0.1,2.1-0.3,3.1-0.4c-1.7,0-3.8,0.5-5.5,0.6c-6.7,0.7-13.4,1.3-20.1,1.6c-6,0.3-11.9,0.4-17.9,0.2c-4.8-0.1,1.6,0.7,2.3,0.4
				c-1,0.4-2.7-0.9-3.7-0.9c4,1.8,5.1,2.3,3.3,1.3c-1.7-1-0.8-0.2,2.8,2.3c-3-2.8,3.2,5.4,1.3,1.3c-3.1,11.6-6.1,23.3-9.2,34.9
				c4.5-3.4,9.2-6.4,14.1-9.1c2.5-1.3,5-2.5,7.5-3.7c4.3-2-3.7,1.3-0.7,0.3c1.3-0.5,2.6-1,3.9-1.5c5-1.7,10.2-3.1,15.4-4.2
				c1.4-0.3,2.8-0.5,4.1-0.7c5.6-1-4.3,0.3-1,0.1c3.1-0.2,6.1-0.5,9.2-0.6c-2.3-16.7-4.5-33.4-6.8-50.1c-2.3,0.8-4.6,1.5-7,2.1
				c-1.1,0.3-2.1,0.5-3.2,0.7c-0.8,0.2-4.7,0.8-0.6,0.2c4.3-0.7-0.5,0-1.5,0c-1.1,0.1-2.2,0.1-3.2,0.1c-2.4,0-4.9-0.2-7.3-0.3
				c-3.3-0.1,5.2,1,2,0.3c-1.1-0.2-2.1-0.4-3.2-0.6c-2.4-0.5-4.7-1.2-7.1-1.9c-0.9-0.3-2.1-1-3.1-1.1c1.1,0.1,4.8,2.2,1.6,0.7
				c-2.4-1.2-4.8-2.5-7.1-3.9c0,14.7,0,29.4,0,44.1c1.5-0.8,3.1-1.6,4.7-2.4c0.5-0.2,1-0.5,1.6-0.7c2.5-1.1,2.1-1-1.3,0.5
				c1.6-1.5,6-2.3,8.1-3c6.6-2.2,13.4-3.8,20.2-5.1c3.2-0.6,6.3-1.1,9.5-1.6c3.8-0.6-6.6,0.8-0.7,0.1c1.7-0.2,3.5-0.4,5.2-0.6
				c7-0.7,14-1.3,21-1.7c29.7-2,59.4-3.3,89.1-4.3c60.4-2.1,120.9-2.6,181.4-2.5c33.9,0,67.8,0.3,101.7,0.5
				c-7.3-4.2-14.7-8.4-22-12.6c-0.6-1.3-1.2-2.7-1.8-4c0-4.5,0-9,0-13.6c0.8-1.4,1.7-2.8,2.5-4.1c1.1-2.9,2.9-5,5.5-6.5
				c-0.7,0.5-3.2,1.8,0.5-0.1c3.5-1.8,1-0.5-0.1-0.3c-1.3,0.2-2.5,0.6-3.8,1c-4.8,1.2-9.5,2.3-14.3,3.5c-8.9,2.1-17.8,4.2-26.7,6.1
				c-18.2,4-36.4,7.7-54.7,11.2c-36.9,7.1-73.9,13.2-111,19c-21,3.3-42,6.4-63,9.6c-5.7,0.9-12.7,6.8-15.3,11.7
				c-2.7,5.2-3.8,10.5-3,16.3c1.7,12.4,12.3,22.1,25.1,22.1c104.9,0.4,209.8,1.5,314.6,1.2c28.7-0.1,58.5-1.6,85.5-12.4
				c11.9-4.8,20.1-14.5,18.3-28c-1.6-11.8-12.3-22.9-25.1-22.1c-8.5,0.5-16.9,0.5-25.4-0.1c-2-0.1-3.9-0.3-5.9-0.5
				c-1.1-0.1-2.2-0.3-3.3-0.4c-2.9-0.3,2.7,0.4,2.6,0.4c-4.4-0.8-8.9-1.4-13.3-2.3c-16.7-3.3-33-8.3-49.1-13.9
				c-32.7-11.4-64.5-25.4-97.8-35c-37.8-10.9-77.3-14.3-116.5-15.9c-39.5-1.6-79-2.8-118.5-3.4c-44.7-0.7-89.3-0.2-133.9,2.9
				c-13.3,0.9-26.2,11.1-25.5,25.5c0.6,13,11.3,26.5,25.5,25.5c79.2-5.5,158.6-2.8,237.9,0c19.3,0.7,38.7,1.5,57.9,3.4
				c4.5,0.4,9,1,13.4,1.5c0.6,0.1,3.9,0.5,0.4,0c-3.7-0.5,0.5,0.1,1.4,0.2c2.5,0.4,5.1,0.8,7.6,1.2c9.3,1.6,18.5,3.5,27.6,5.8
				c33.6,8.7,65.5,22.6,98,34.4c37.3,13.5,76.8,24.3,116.9,21.8c-2.3-16.7-4.5-33.4-6.8-50.1c-5.6,2.2-11.3,4.1-17.2,5.6
				c-2.3,0.6-4.7,1.1-7,1.6c-1.8,0.4-3.6,0.7-5.3,1c-1.7,0.3-7.3,0.6-0.4,0.2c-11.6,0.8-23,2-34.6,2.1c-25.7,0.3-51.5-0.1-77.2-0.2
				c-52.3-0.2-104.6-0.4-156.8-0.6c-29.3-0.1-58.6-0.2-87.9-0.4c2.3,16.7,4.5,33.4,6.8,50.1c80.4-12.1,160.8-24.3,240.1-42.4
				c11.1-2.5,22.3-5.1,33.3-8c20.4-5.3,35.5-25.7,23.9-46.3c-4.4-7.8-13.1-12.6-22-12.6c-122.9-0.8-246-1.7-368.7,6.1
				c-33.6,2.1-67.2,5.7-97.5,21.7c-17.5,9.2-15.6,34.4,0,44.1c23.1,14.3,53.2,18.1,79,9c12.1-4.3,20-14.9,18.3-28
				c-1.6-12.2-12.3-22.5-25.1-22.1c-27.9,0.8-55.9,9.5-78.4,26.3c-5.3,3.9-10.2,8.5-11.7,15.3c-1.6,7-0.5,13.2,2.6,19.7
				c8.4,17.8,29.4,21.2,46.9,20.9c17-0.3,33.9-2.1,50.6-4.7c31.9-5,62.5-15.1,91.8-28.7c9.7-4.5,14.9-18.9,11.7-28.8
				c-1.4-4.2-3.6-8-6.6-11.3c-4.8-5.2-11.4-6.7-18-7.5c-29.4-3.5-57.9,7.2-80.5,25.4c-7.8,6.3-8.8,19.4-5.3,27.9
				c4.2,10,12.9,14.6,23.3,15.7c52,5.5,104.1,3.2,155.7-5.2c5.7-0.9,12.6-6.8,15.3-11.7c2.7-5.2,3.8-10.5,3-16.3
				c-1.6-12.1-12.3-22.5-25.1-22.1c-77.4,2.5-154.4,18.3-226.3,47.4c-10.2,4.1-19.3,12.6-18.7,24.6c0.5,12.1,7.8,20.4,18.7,24.6
				c20.8,8,43.7,6.1,65.1,2.3c18.5-3.3,36.8-8.3,54.7-13.9c36.9-11.5,72.8-26.9,106.6-45.6c17.5-9.7,35.3-20,50.9-32.6
				c11.3-9.1,16.3-24.2,12.3-38.2c-3.4-11.8-13.5-21.5-24.3-26.7c-19.6-9.3-41.3-13.3-62.7-15.7c-18.9-2.2-38.1-2.1-57.1-1.3
				c-43.2,2-86.4,8.1-129.7,4c4.3,15.9,8.6,31.7,12.9,47.6c18.4-13.2,37.7-25.1,57.7-35.7c10-5.3,20.2-10.1,30.6-14.7
				c0.4-0.2,5.8-2.6,1.9-0.8c-3.9,1.7,1.5-0.6,1.9-0.8c2.2-0.9,4.4-1.8,6.6-2.7c5.5-2.2,11.1-4.3,16.8-6.2c21.7-7.6,44.1-13,65.6-21
				c12.5-4.7,27.5-9.6,37.2-19.2c6.6-6.5,10.7-15.2,10.9-24.5c0.3-13.4-10-25.5-22.6-29c-6.7-1.9-14-1.2-20.9-1
				c-6.4,0.2-12.8,0.4-19.3,0.6c-12.2,0.5-24.4,1.1-36.5,2.2c-24.7,2.2-49.6,5.7-73.5,12.8c-21.5,6.4-42.7,15.3-61.5,27.6
				c-20.8,13.6-37.6,30.5-52.3,50.4c-14.8,19.9-28.4,41.9-38.6,64.5c-12.1,26.9-19.9,57.4-9.3,86.1c4.9,13.2,17,21.3,31.4,17.8
				c4.9-1.2,9.8-2.3,14.8-3.2c2.5-0.5,5-0.9,7.4-1.3c1.2-0.2,2.5-0.4,3.7-0.6c4.9-0.8-3.5,0.4-0.2,0c10.3-1.2,20.7-2.1,31.1-2.7
				c20.9-1.1,41.9-0.9,62.9-0.8c43.5,0.2,87,0.3,130.6,0.5c43.5,0.2,87,0.3,130.6,0.5c41.5,0.1,83-0.5,124.4,1.8
				c10.9,0.6,21.8,1.4,32.7,2.6c3,0.3,6,0.7,9,1c1.4,0.2,4.9,0.3-1.4-0.2c1.5,0.1,3,0.4,4.5,0.6c5.7,0.8,11.3,1.8,16.9,2.8
				c21.9,4.1,43.3,10.2,63.9,18.7c7.5,3.1,19.7-0.3,24.8-6.6c5.2-6.3,9.2-12.5,11.2-20.5c1.6-6.5,2-13.3,2.5-19.9
				c0.1-1,0.2-2.1,0.3-3.1c0.1-3.1-1.6,6.7-0.2,2.2c0.3-0.8,0.5-1.7,0.7-2.5c0.9-4.1-2.4,4.2-0.9,1.8c0.4-0.6,1-1.5,1.2-2.2
				c1-2.6-4.2,4.5-1.3,1.8c2.4-2.3-2,1.6-2.4,1.8c-4.2,1.5-5.4,2-3.4,1.4c2-0.5,0.7-0.4-3.8,0.5c11.2-0.7,21.6-7.4,24.6-18.7
				c6.8-25.3,0.5-53.1-14.6-74.2c-14.9-20.9-35.6-35.7-58.6-46.7c-23-11-47.2-20.3-71.2-28.8c-23.4-8.3-47.3-15.4-71.6-20.2
				c-28.8-5.7-58.3-8.8-87.6-7.1c-13.3,0.8-26.2,11.2-25.5,25.5c0.7,14.9,11.2,24.1,25.5,25.5c2.6,0.3,5.2,0.5,7.8,0.8
				c1,0.1,4.9,0.6,0.9,0.1c-4.5-0.6,1.3,0.2,1.8,0.3c5.2,0.8,10.4,1.7,15.5,2.7c10.3,2.1,20.5,4.6,30.5,7.7
				c9.8,3,19.4,6.4,28.8,10.2c1.9,0.8,5.2,1.1-0.4-0.2c1,0.2,2.3,1,3.2,1.4c2.1,0.9,4.3,1.9,6.4,2.9c5,2.4,10,4.8,14.9,7.4
				c9,4.8,17.8,10,26.3,15.7c4.5,3,9,6.1,13.4,9.3c2,1.4,3.9,2.9,5.8,4.4c3.7,2.8-0.5-0.2-0.8-0.7c0.8,1.1,3.2,2.5,4.3,3.4
				c16.8,13.5,32.7,28.2,48.3,43.1c18.9,18,37.6,36.2,56.4,54.3c7.5,7.2,18.3,9.3,27.9,5.3c10.1-4.3,14.5-12.9,15.7-23.3
				c6.1-52.4-22.2-105.5-61.3-138.8c-42.7-36.4-96.1-55.3-149.4-70.1c-31.7-8.8-63.9-16.1-96.4-21.9c0,16.4,0,32.8,0,49.2
				c9.1-2.7,18.4-4.9,27.8-6.4c0.9-0.1,1.8-0.3,2.7-0.4c4.7-0.7-0.8,0-1.3,0.2c2.1-0.8,5.1-0.6,7.3-0.8c4.6-0.4,9.2-0.7,13.8-0.8
				c9.5-0.3,19.1-0.1,28.6,0.7c4.2,0.3,8.7,1.5,12.9,1.3c-5.3,0.2-3.1-0.4-1.3-0.2c1.2,0.2,2.4,0.4,3.7,0.6c2.4,0.4,4.9,0.8,7.3,1.3
				c18.5,3.4,36.7,8.7,54.4,15.3c3.9,1.5,7.8,3,11.7,4.6c1.3,0.5,4.6,1.6-1.1-0.5c1.1,0.4,2.2,1,3.3,1.4c2.2,1,4.4,1.9,6.6,2.9
				c8.2,3.7,16.3,7.7,24.2,11.9c18.6,9.8,36.6,20.7,54.2,32.3c10.7,7,25.5,3,32.9-6.6c8.1-10.5,6.4-23.7-2-33.5
				c-16.2-18.9-36.2-34.9-58.1-46.8c-11.2-6.1-25.1-3.6-32.9,6.6c-8.3,10.7-6.2,23.5,2,33.5c1.1,1.3,2.1,2.6,3.2,4
				c2.9,3.7-2.2-3-0.4-0.5c1.9,2.5,3.7,5,5.5,7.5c3.6,5.1,7,10.2,10.3,15.5c6.6,10.5,12.5,21.5,17.8,32.7c1.2,2.6,2.3,5.1,3.5,7.7
				c2.3,5-1.8-4.6,0.1,0.1c0.6,1.6,1.3,3.1,1.9,4.7c2.3,5.8,4.3,11.6,6.2,17.5c3.8,11.8,6.8,23.9,9.2,36.1
				c2.5,13.1,19,21.8,31.4,17.8C991.6,985.5,998.1,972.7,995.4,958.6L995.4,958.6z"/>
		</g>
	</g>
	<g class="st1">
		<g>
			<path class="st3" d="M461.3,921.4c-0.5,1.3-1,2.5-1.5,3.8c-2.8,3.4-3.4,4.1-1.6,2.2c-5.6,4.9-2.8,2-0.9,0.9
				c2.7-1.6,4.3-0.5-1.2,0.3c1.2-0.2,2.7-0.9,3.9-1.3c7-2.2,14.1-4.1,21.3-5.9c13.4-3.4,26.9-6.3,40.5-8.6c3.4-0.6,6.8-1.1,10.2-1.7
				c1.7-0.3,3.4-0.5,5.1-0.8c0.6-0.1,1.1-0.2,1.7-0.2c2.8-0.4,2.3-0.3-1.7,0.2c2.3-1.3,7.6-1,10.3-1.3c3.4-0.4,6.9-0.7,10.3-1.1
				c14.3-1.3,28.7-2.1,43.1-2.4c13.8-0.2,27.6,0.1,41.4,0.8c6.9,0.4,13.8,0.9,20.7,1.6c3.4,0.3,6.9,0.7,10.3,1.1
				c2.3,0.3,8.5,0,10.3,1.2c-1.1-0.2-2.2-0.3-3.4-0.5c1.1,0.2,2.3,0.3,3.4,0.5c1.7,0.2,3.4,0.5,5.1,0.8c3.4,0.5,6.8,1.1,10.2,1.7
				c7.4,1.3,14.7,2.7,22,4.2c13.5,2.9,26.9,6.2,40.2,10.1c14.9,4.3,29.7,9.3,44.1,14.9c3.8,1.4,7.5,2.9,11.2,4.5
				c1.5,0.6,6.9,2,0.3,0.1c2.1,0.6,4.3,1.8,6.3,2.8c7.4,3.3,14.7,6.7,21.9,10.3c4.3-15.9,8.6-31.7,12.9-47.6
				c-27.1,0.8-54.1-0.5-81-3.5c-3.1-0.3-6.1-0.7-9.1-1.1c-1.8-0.2-3.7-0.4-5.5-0.7c6.2,1.1,2.7,0.4,1.3,0.2
				c-7.3-1.1-14.6-2.1-21.9-3.4c-13.1-2.2-26.1-4.7-39.1-7.4c-53.2-11.1-105.6-25.8-158.3-39c-29.5-7.4-59.1-14.4-89-20.1
				c2,15.5,4.1,31.1,6.1,46.6c0.6-0.3,3.4-1.6,0.3-0.1c-3.3,1.6,0.3-0.1,1.1-0.4c1.7-0.6,3.4-1.3,5.1-1.8c4-1.4,8-2.6,12-3.6
				c8.1-2.2,16.4-3.8,24.7-5.2c1.8-0.3,3.6-0.6,5.4-0.8c0.9-0.1,1.8-0.2,2.7-0.4c-6,1.3-2.9,0.4-1.4,0.2c4.2-0.5,8.4-1,12.6-1.5
				c8.4-0.9,16.9-1.8,25.3-2.7c35.2-3.6,70.6-6.8,106-6.4c9.7,0.1,19.4,0.5,29.1,1.2c5.2,0.4,10.3,0.9,15.5,1.4
				c1,0.1,1.9,0.2,2.9,0.3c0.7,0.1,5.1,0.6,1.4,0.2c-3.7-0.5,0.5,0.1,1.4,0.2c1.6,0.2,3.2,0.5,4.8,0.7c2.3-16.7,4.5-33.4,6.8-50.1
				c-51.5-1.8-103.1-3.5-154.6-5.3c-13.4-0.5-26.1,12.1-25.5,25.5c0.6,14.2,11.2,25,25.5,25.5c51.5,1.8,103.1,3.5,154.6,5.3
				c12.7,0.4,23.4-10,25.1-22.1c1.5-11.4-5.7-26-18.3-28c-38.3-6.1-76.7-7-115.4-4.6c-37.4,2.3-75.1,5.9-112.1,11.3
				c-21.2,3.1-41.1,8.5-60.8,17.1c-9.1,4-13.4,16.5-12.2,25.4c1.3,9.3,8.4,19.3,18.3,21.2c108.8,20.8,213.9,58,324.1,72
				c30.5,3.9,61.3,5.7,92,4.8c10.8-0.3,22.1-7.6,24.6-18.7c2.4-10.5-1.4-23.7-11.7-28.8c-54.7-27.1-113.3-45.7-173.7-54.4
				c-62.5-8.9-125-8.4-187.3,2.1c-16.2,2.7-32.2,6.2-48.1,10.4c-9.1,2.4-18,4.9-26.6,8.7c-4.6,2-8.9,4.9-12.6,8.4
				c-5.2,4.9-7.9,10.5-10.6,17c-2.4,5.7-0.4,14.6,2.6,19.7c3.1,5.3,9.2,10.3,15.3,11.7c6.5,1.5,13.9,1.2,19.7-2.6
				C455.6,932.8,458.6,927.9,461.3,921.4L461.3,921.4z"/>
		</g>
	</g>
	<g class="st1">
		<g>
			<path class="st2" d="M503.9,756.5c-51.2,14.8-100.7,36.5-146.2,64.3c-24.1,14.8-45.8,31.9-60.9,56.3
				c-14.2,22.9-23.5,49.8-29.9,75.9c-7.5,30.5-11,62.3-10,93.6c0.4,13.3,11.4,26.2,25.5,25.5c13.5-0.6,26-11.2,25.5-25.5
				c-0.4-13-0.1-26.1,1.1-39.1c0.3-2.8,0.5-5.6,0.9-8.3c0.2-1.7,1.1-6-0.1,0.3c0.2-1.2,0.3-2.5,0.5-3.7c1-6.8,2.2-13.5,3.7-20.2
				c2.6-12.1,6-24.1,10-35.9c2-5.7,4.5-11.3,6.4-17c-2,6-0.9,2.2-0.2,0.6c0.6-1.3,1.2-2.6,1.8-3.9c1.5-3.1,3-6.2,4.6-9.2
				c2.4-4.5,5.1-8.9,8-13.1c0.9-1.4,4.6-5.2,0.1-0.3c0.8-0.8,1.4-1.8,2.1-2.6c2.2-2.7,4.6-5.2,7.1-7.7c2.1-2,4.3-4,6.5-5.9
				c0.9-0.8,1.8-1.5,2.7-2.2c4.7-3.9-4.6,3.2,0.4-0.3c4.8-3.4,9.6-6.8,14.6-9.9c20.9-13.2,42.8-25,65.3-35.3c3.3-1.5,6.6-3,10-4.5
				c1.1-0.5,2.2-1,3.3-1.4c5.2-2.3-4.3,1.7,0.6-0.2c6.7-2.7,13.5-5.4,20.3-7.9c13.1-4.8,26.3-9.2,39.7-13
				c12.8-3.7,22.1-18.2,17.8-31.4C531.1,761.4,517.6,752.6,503.9,756.5L503.9,756.5z"/>
		</g>
	</g>
	<g class="st1">
		<g>
			<path class="st2" d="M461.4,766.2c-46.8,6.5-90.9,28.3-126.3,59.4c-36.7,32.2-62.8,76.6-74.2,124c-6.5,26.9-8.7,55-5.7,82.5
				c0.8,7,2.3,12.9,7.5,18c4.4,4.4,11.7,7.8,18,7.5c12.6-0.6,27.1-11.3,25.5-25.5c-1.2-11-1.6-22.1-1.2-33.1
				c0.2-5.5,0.7-11,1.3-16.5c0.5-4.5-0.1,1.4-0.3,1.9c0.5-1.1,0.4-2.9,0.6-4.1c0.5-3,1-6,1.6-9c2.2-10.8,5.2-21.5,8.9-31.9
				c0.9-2.6,2-5.2,3-7.7c1.8-4.5-0.6,1.5-0.7,1.5c-0.1-0.1,1.9-4.2,2-4.5c2.3-5,4.8-10,7.5-14.8c2.7-4.8,5.5-9.6,8.6-14.2
				c1.4-2.1,2.8-4.1,4.2-6.2c0.8-1.1,1.6-2.2,2.4-3.4c0.5-0.7,1-1.3,1.5-2c1.2-1.5,0.7-0.9-1.5,2c1.5-0.7,3.9-4.8,5-6.1
				c1.5-1.8,3.1-3.5,4.7-5.3c3.7-4.1,7.5-8,11.5-11.7c3.6-3.4,7.3-6.7,11.2-9.8c1-0.8,2-1.6,3-2.5c3.4-2.7-1,1-1.5,1.1
				c2.4-0.8,5.4-4,7.6-5.5c8.6-6,17.6-11.3,26.9-16c2.6-1.3,5.2-2.5,7.8-3.7c1.2-0.5,2.4-1.1,3.6-1.6c5.2-2.3-5.6,2.2-0.3,0.2
				c5.4-2.1,10.7-4.1,16.2-5.8c11.5-3.6,23.2-6.2,35.1-7.9c5.9-0.8,12.4-6.9,15.3-11.7c3.2-5.5,4.6-13.5,2.6-19.7
				c-2-6.2-5.8-12.1-11.7-15.3C474.5,765.4,468.6,765.2,461.4,766.2L461.4,766.2z"/>
		</g>
	</g>
	<g class="st1">
		<g>
			<path class="st3" d="M305.3,1064.5c98-5.8,196-9.7,294.2-11.7c98.1-2,196.3-2.1,294.4-0.2c26.7,0.5,53.5,0.9,80.2,2.1
				c13.4,0.6,26.7,1.5,40,3c1.3,0.1,2.5,0.3,3.8,0.5c6.5,0.8-5.7-0.9,0.8,0.1c3.1,0.5,6.3,0.9,9.4,1.5c6.9,1.2,13.7,2.6,20.6,4.2
				c13,3.1,28.3-4.1,31.4-17.8c3-13.1-3.9-28.1-17.8-31.4c-48.2-11.5-98.2-11.7-147.5-12.8c-49.4-1.1-98.8-1.6-148.2-1.7
				c-98.1-0.2-196.3,1.5-294.4,5.2c-55.7,2.1-111.3,4.7-166.9,8c-13.3,0.8-26.2,11.2-25.5,25.5
				C280.4,1052.2,291,1065.4,305.3,1064.5L305.3,1064.5z"/>
		</g>
	</g>
	<g class="st1">
		<g>
			<path class="st4" d="M618.2,446.9c-32.6-2-64.7-1.6-94.8,12.7c-24.1,11.5-43.3,32.8-56.9,55.4c-14.1,23.5-23.1,50.2-29.1,76.8
				c-7,31.1-10.5,63.3-9.4,95.2c1,32,8,67.5,33.4,89.5c6,5.2,12.8,8.7,21.1,8.7c7.3,0,16-3.2,21.1-8.7c10.3-11.2,12.6-31.2,0-42.1
				c-1.7-1.4-3.2-2.9-4.7-4.5c-0.6-0.7-2.1-1.8-2.4-2.7c0.3,1.1,4.5,6.2,1.7,2c-2.6-3.8-4.6-7.8-6.4-12c1,2.4,2,4.7,3,7.1
				c-3.3-8.3-5.4-16.9-6.6-25.8c0.4,2.6,0.7,5.3,1.1,7.9c-3.3-25.2-1.9-51.4,1.4-76.5c-0.4,2.6-0.7,5.3-1.1,7.9
				c3.6-26.3,9.8-52.6,20.1-77.1c-1,2.4-2,4.7-3,7.1c3.1-7.3,6.6-14.5,10.7-21.4c2-3.4,4.1-6.7,6.4-10c1.1-1.6,2.3-3.1,3.5-4.7
				c-5.4,7.8-2.1,2.7-0.5,0.9c2.3-2.8,4.8-5.4,7.4-8c1.4-1.3,2.8-2.6,4.2-3.9c1.8-1.6,7.6-5.4-0.5,0.1c6.5-4.4,12.7-8.5,19.9-11.5
				c-2.4,1-4.7,2-7.1,3c8.2-3.3,16.7-5.4,25.4-6.7c-2.6,0.4-5.3,0.7-7.9,1.1c16.7-2.1,33.5-1.2,50.3-0.2c15.6,1,30.5-14.4,29.8-29.8
				C647.2,459.8,634.8,448,618.2,446.9L618.2,446.9z"/>
		</g>
	</g>
	<g class="st1">
		<g>
			<path class="st4" d="M474.2,725.4C417,746,361,773.8,313.3,811.8c-21.2,16.9-40.4,38.1-51.6,62.9c-13.3,29.4-17.4,61.1-17.9,93.2
				c-0.6,34.9,0.5,69.9,2,104.8c0.6,15.5,13.2,30.5,29.8,29.8c15.6-0.7,30.5-13.1,29.8-29.8c-1-24.5-1.7-49.1-1.9-73.6
				c-0.2-22-0.5-44.2,2.3-66.1c-0.4,2.6-0.7,5.3-1.1,7.9c1.9-14.3,5.2-28.3,10.9-41.7c-1,2.4-2,4.7-3,7.1
				c3.3-7.5,7.2-14.7,11.9-21.5c1.2-1.8,2.6-3.4,3.8-5.2c-5.3,7.8-1.1,1.5,0.4-0.2c2.4-2.9,5-5.6,7.6-8.3c5.7-5.8,11.7-11.2,18-16.3
				c0.8-0.7,1.7-1.4,2.5-2c-3.9,3-4.6,3.5-2.2,1.7c1.7-1.3,3.5-2.6,5.2-3.9c3.3-2.4,6.6-4.7,10-7c30.4-20.4,62.9-37.6,96.6-51.9
				c-2.4,1-4.7,2-7.1,3c10.2-4.3,20.4-8.3,30.8-12c7.4-2.7,13.7-6.7,17.8-13.7c3.7-6.4,5.3-15.8,3-22.9
				C506.2,731.8,489.9,719.8,474.2,725.4L474.2,725.4z"/>
		</g>
	</g>
	<g class="st1">
		<g>
			<path class="st4" d="M364.9,961.5c0,27.9,0,55.9,0,83.8c0,15.6,13.7,30.5,29.8,29.8c16.1-0.7,29.8-13.1,29.8-29.8
				c0-27.9,0-55.9,0-83.8c0-15.6-13.7-30.5-29.8-29.8C378.5,932.5,364.9,944.8,364.9,961.5L364.9,961.5z"/>
		</g>
	</g>
	<g class="st1">
		<g>
			<path class="st5" d="M794.1,525.6c30.5,50.5,33.2,116.6,6.9,169.6c-8.2,16.5-18.9,31.6-32.5,44c-8.1,7.4,3.9,19.4,12,12
				c49.4-44.9,65.4-120.1,49.5-183.4c-4.5-17.8-11.7-35.1-21.2-50.8C803.1,507.7,788.4,516.2,794.1,525.6L794.1,525.6z"/>
		</g>
	</g>
	<g class="st1">
		<g>
			<path class="st5" d="M815.2,765c56.5-0.7,115.9,8.9,161.6,44.6c20.1,15.7,36.6,36,46.5,59.6c11.3,27.3,14.6,57.2,17,86.5
				c3.1,36.9,4.2,73.9,3.4,110.9c-0.2,11,16.8,11,17,0c0.7-34-0.2-68.1-2.7-102.1c-2.4-31.6-5.2-64.1-16.1-94
				c-19.7-54-66.7-91.1-120.3-108.5c-34.2-11.1-70.6-14.5-106.4-14.1C804.2,748.1,804.2,765.1,815.2,765L815.2,765z"/>
		</g>
	</g>
	<g class="st1">
		<g>
			<path class="st5" d="M905.3,938.8c16.9,39,19.4,82.3,22,124.2c0.7,10.9,17.7,11,17,0c-2.8-45.1-6.2-90.8-24.3-132.8
				c-1.8-4.2-8-5.2-11.6-3.1C904,929.7,903.5,934.6,905.3,938.8L905.3,938.8z"/>
		</g>
	</g>
	<g class="st1">
		<g>
			<path class="st5" d="M685.9,597.2c15.6-8.4,31.7-15.5,48.5-21.1c10.3-3.5,5.9-19.9-4.5-16.4c-18.1,6.1-35.7,13.7-52.6,22.8
				C667.7,587.7,676.3,602.4,685.9,597.2L685.9,597.2z"/>
		</g>
	</g>
	<g class="st1">
		<g>
			<path class="st5" d="M593,588.3c-21-2.9-40.8-13.5-60.2-21.6c-4.2-1.8-9.4,1.9-10.5,5.9c-1.3,4.9,1.7,8.7,5.9,10.5
				c19.3,8.1,39.2,18.7,60.2,21.6c4.5,0.6,9.1-1.1,10.5-5.9C600,594.8,597.6,589,593,588.3L593,588.3z"/>
		</g>
	</g>
	<g class="st1">
		<g>
			<path class="st5" d="M696.5,592.1c0,10,0,19.9,0,29.9c0,10.9,17,11,17,0c0-10,0-19.9,0-29.9C713.5,581.1,696.5,581.1,696.5,592.1
				L696.5,592.1z"/>
		</g>
	</g>
	<g class="st1">
		<g>
			<path class="st5" d="M557.7,599.4c0,9.1,0,18.2,0,27.2c0,10.9,17,11,17,0c0-9.1,0-18.2,0-27.2
				C574.7,588.4,557.7,588.4,557.7,599.4L557.7,599.4z"/>
		</g>
	</g>
	<g class="st1">
		<g>
			<path class="st5" d="M627.5,720.8c8.3-5.8,18.5-6.8,27.4-1.7c9.5,5.4,18.1-9.3,8.6-14.7c-13.8-7.8-31.5-7.5-44.6,1.7
				C610,712.3,618.5,727.1,627.5,720.8L627.5,720.8z"/>
		</g>
	</g>
	<g class="st1">
		<g>
			<path class="st6" d="M265.8,1045.7c-7.8-58-16.1-122.6,14.7-175.8c25-43.3,72-61.8,117.4-75.9c26.3-8.2,52.9-15.4,78.3-25.8
				c6-2.5,8.3-9,3.8-14.2c-36.2-41.2-51-100.3-38.4-153.7c12.1-51.1,48.8-94.7,96.1-116.9c28.1-13.2,59.5-17,90.2-17.8
				c16.6-0.4,33.3-0.2,49.9,0.5c16.8,0.7,33.5,2.2,49.7,6.6c48.9,13.3,89.9,52.8,105.2,101c15.8,50,2.8,107.6-32.1,146.7
				c-4.5,5-9.3,9.7-14.4,14.1c-5.8,5-0.9,14.4,6,14.5c56.1,1,115.9,6.1,165.7,34.2c25.3,14.3,46.3,34.5,61.1,59.5
				c15.9,26.7,24.8,56.9,29.4,87.4c6,40.3,4.4,81.4,2.9,121.9c-0.4,11,16.6,10.9,17,0c2.5-70.4,4.2-144.4-29.5-208.6
				c-14.6-27.9-35.8-51.6-62.2-68.7c-24.7-16.1-53.1-26.2-81.8-32.5c-33.7-7.3-68.3-9.7-102.7-10.3c2,4.8,4,9.7,6,14.5
				c44.1-38.2,65.3-99.3,55.8-156.6c-9.2-55.7-49.6-104.4-101.2-126.3c-31.6-13.4-65.9-14.7-99.8-15.1
				c-34.9-0.5-70.9,0.8-104.2,12.1C494.7,479,450.6,522.6,431,576.3c-20.7,56.4-11.1,122.8,23.1,172c4.3,6.2,8.9,12.1,13.9,17.7
				c1.3-4.7,2.5-9.5,3.8-14.2c-47.4,19.5-99.3,27.5-144.7,52c-22.9,12.3-43,29.3-57.3,51.2c-15.9,24.4-23.8,53.1-26.8,81.9
				c-3.9,37.9,1.4,75.9,6.5,113.4c0.6,4.6,6.5,7,10.5,5.9C264.8,1054.8,266.4,1050.3,265.8,1045.7L265.8,1045.7z"/>
		</g>
	</g>
	<g class="st1">
		<g>
			<path class="st6" d="M375.1,958.8c-0.6,28.2-0.5,56.5,0.5,84.7c0.4,10.9,17.4,11,17,0c-1-28.2-1.2-56.5-0.5-84.7
				C392.4,947.8,375.4,947.8,375.1,958.8L375.1,958.8z"/>
		</g>
	</g>
	<g class="st1">
		<g>
			<path class="st6" d="M917,930.3c21.5,31.7,31.1,71,25.6,109c-0.7,4.5,1.1,9.1,5.9,10.5c4,1.1,9.8-1.4,10.5-5.9
				c6.2-42.6-3.1-86.4-27.3-122.2C925.6,912.7,910.8,921.2,917,930.3L917,930.3z"/>
		</g>
	</g>
	<g class="st1">
		<g>
			<g>
				<path class="st7" d="M740.5,451.4c5.4,9.5,10.6,19.9,4,30.1c-5.6,8.6-14.8,15.6-23.1,21.3c-4.5,3.1-0.2,10.5,4.3,7.3
					c10.2-7.1,22-15.8,27.8-27.1c6.3-12.4,0.8-24.8-5.6-35.9C745.1,442.3,737.8,446.6,740.5,451.4L740.5,451.4z"/>
			</g>
		</g>
		<g>
			<g>
				<path class="st7" d="M760.7,448.5c0.3,10.3,1.2,21.6,8.4,29.6c8.2,9.1,23.1,9.7,34.3,12c5.3,1.1,7.6-7.1,2.3-8.2
					c-5.2-1.1-10.3-2.1-15.5-3.2c-4.9-1-10.2-2.1-14-5.7c-6.4-6-6.7-16.4-6.9-24.6C769.1,443,760.6,443,760.7,448.5L760.7,448.5z"/>
			</g>
		</g>
		<g>
			<g>
				<path class="st7" d="M807.6,498.8c-10.3-6.5-22.6-4.4-33.3,0.1c-10.6,4.5-23.4,12.3-21.6,25.7c0.7,5.3,9.2,5.4,8.5,0
					c-1.4-10.2,9.8-15.4,17.8-18.5c7.9-3,16.7-4.7,24.3,0C807.9,509,812.2,501.7,807.6,498.8L807.6,498.8z"/>
			</g>
		</g>
	</g>
</g>
</svg>
