<?xml version="1.0" encoding="utf-8"?>
<!-- Generator: Adobe Illustrator 22.1.0, SVG Export Plug-In . SVG Version: 6.00 Build 0)  -->
<svg version="1.1" id="Calque_1" xmlns="http://www.w3.org/2000/svg" xmlns:xlink="http://www.w3.org/1999/xlink" x="0px" y="0px"
	 viewBox="0 0 1280 1024" style="enable-background:new 0 0 1280 1024;" xml:space="preserve">
<style type="text/css">
	.st0{clip-path:url(#SVGID_2_);fill:#F9EAE0;}
	.st1{clip-path:url(#SVGID_2_);}
	.st2{fill:#F4A776;}
	.st3{fill:#FBD8C5;}
	.st4{fill:#C5774F;}
	.st5{fill:#936645;}
	.st6{fill:#ED8080;}
</style>
<g>
	<defs>
		<rect id="SVGID_1_" x="-89.5" y="-3.5" width="1456" height="1029"/>
	</defs>
	<clipPath id="SVGID_2_">
		<use xlink:href="#SVGID_1_"  style="overflow:visible;"/>
	</clipPath>
	<rect x="-89.3" y="-3" class="st0" width="1456.3" height="1025.6"/>
	<g class="st1">
		<g>
			<path class="st2" d="M524.8,681c-4.2-3.1,3.8,3.5,0.3,0.2c-1.3-1.2-2.7-2.4-3.9-3.6c-1.1-1.1-2.1-2.2-3.1-3.4
				c-0.6-0.7-4.5-4.5-1.4-1.6c3,2.9-0.9-1.5-1.5-2.5c-0.8-1.3-1.6-2.6-2.3-4c-0.7-1.3-1.4-2.7-2.1-4.1c-2.2-4.3,1.9,5.3,0.2,0.4
				c-1-2.9-2-5.8-2.7-8.8c-0.4-1.5-0.6-3-0.9-4.5c-1-5.2,0.4,5.6,0.1,0.7c-0.3-4.6-0.6-9.5-1.7-14c-1.7-7.1-5-11.9-9.5-17.5
				c-5.5-6.8-16.7-8.7-24.7-6.5c-8.3,2.3-15.7,9.2-17.7,17.7c-6.1,25.6-5.7,52.5,2.1,77.7c3.9,12.7,17.9,22,31.2,17.7
				c13.9-4.5,20.4-17.2,17.7-31.2c-1.7-9-3.4-18.1-5.2-27.1c-2.5-13.1-18.9-21.7-31.2-17.7c-13.9,4.5-20.4,17.2-17.7,31.2
				c1.7,9,3.4,18.1,5.2,27.1c16.3-4.5,32.6-9,48.9-13.5c-1.5-4.9-2.8-9.9-3.7-14.9c-0.1-0.8-0.7-4.9-0.2-1.1c0.4,3.8,0-0.4-0.1-1.1
				c-0.3-2.7-0.5-5.4-0.5-8.1c-0.2-4.8,0-9.6,0.4-14.5c0.1-1.1,0.5-2.5,0.4-3.6c0.6,5.1-0.4,2.9,0,0.5c0.5-2.7,1-5.3,1.7-8
				c-14.1,3.7-28.3,7.5-42.4,11.2c-1.9-1.7-3.2-3.8-3.9-6.3c0.4,2,0.5,1.8,0.1-0.6c0-4.9,0,1.4,0.1,2.4c0.4,4.8,1,9.6,2,14.3
				c1.6,8.2,4.7,16,8.3,23.5c7.2,15.2,18.9,27.3,32.3,37.1c5,3.7,13.9,4.1,19.6,2.6c5.9-1.6,12.3-6.2,15.2-11.7
				C540.9,702.5,536.3,689.4,524.8,681L524.8,681z"/>
		</g>
	</g>
	<g class="st1">
		<g>
			<path class="st2" d="M558.5,635.5c-0.6-0.6-1.1-1.2-1.6-1.9c-1.2-1.5-0.7-0.8,1.4,1.9c-0.7-1.4-2-2.8-2.8-4.1
				c-0.7-1.2-1.4-2.4-2.1-3.6c-0.4-0.7-0.8-1.5-1.2-2.2c-0.9-2-1-2-0.1,0c0.8,2,0.8,2,0,0c-0.2-0.5-0.4-1-0.6-1.6
				c-0.5-1.6-1-3.1-1.5-4.7c-0.4-1.6-0.7-3.2-1.1-4.8c-1.2-5,0.5,5.7,0,0.2c-0.6-6.9-2.4-12.9-7.4-17.9c-4.4-4.4-11.6-7.7-17.9-7.4
				c-14.4,0.6-24.6,11.2-25.4,25.4c-2.2,39.3,11,77,24.7,113.2c15.5-6.5,30.9-13,46.4-19.6c-5.6-12.7-11.3-25.4-16.9-38
				c-2.4-5.4-9.7-10.2-15.2-11.7c-6.1-1.7-14.2-0.9-19.6,2.6c-5.4,3.5-10.2,8.7-11.7,15.2c-1.6,7.1-0.4,13,2.6,19.6
				c5.6,12.7,11.3,25.4,16.9,38c2.3,5.2,9.8,10.4,15.2,11.7c5.7,1.3,11.1,1,16.5-1.3c10.7-4.5,19.2-18.1,14.7-29.9
				c-6.4-16.9-12.7-34-17.3-51.5c-1.1-4.2-2.1-8.4-3-12.7c-0.5-2.4-1-4.9-1.4-7.3c-0.3-1.7-1.9-7.1-0.2-0.6
				c-2.2-8.5-1.5-19.1-1-27.7c-16.9,0-33.8,0-50.8,0c2,21.6,9.8,40.5,24.3,56.7c8.9,9.9,27,9.7,35.9,0
				C568.2,660.7,567.9,646.1,558.5,635.5L558.5,635.5z"/>
		</g>
	</g>
	<g class="st1">
		<g>
			<path class="st2" d="M510.7,652.4c0.8,47.2,1.5,94.5,2.3,141.7c16.6-2.2,33.2-4.5,49.8-6.7c-7.4-24.5-14.8-48.9-22.2-73.4
				c-3.7-12.1-15.3-19.9-27.8-18.2c-11.4,1.5-23.3,12.4-22,24.9c0.3,2.7,0.2,5.2,0.2,7.9c0,4.6,1-4.2,0.2-1.2
				c-0.3,1.3-0.5,2.6-0.9,3.9c-0.3,0.9-1,2.1-1,3c1.5-3.3,1.8-4.1,1-2.4c-0.2,0.5-0.4,1-0.7,1.4c-0.6,1.2-1.2,2.3-2,3.5
				c-0.9,1.5-4.2,5.3,0.2,0c13.3,1.7,26.6,3.4,39.9,5.1c-4-5.7-7.6-11.6-10.9-17.7c-1.5-2.8-2.9-5.7-4.3-8.6c-0.7-1.4-1.3-3-2-4.4
				c3.2,6.4,0.7,1.6,0.1,0.1c-4.9-12.5-8.1-25.4-10.4-38.6c-1-5.7,0.7,6.1,0,0.4c-0.2-1.6-0.4-3.2-0.5-4.8c-0.3-3.2-0.5-6.4-0.6-9.6
				c-0.3-6.9-0.1-13.9,0.4-20.8c0.1-1.6,0.3-3.2,0.4-4.8c0.2-1.8,1.2-7-0.1,0.4c0.6-3.2,1-6.3,1.6-9.5c1.3-6.8,3.1-13.5,5.3-20.1
				c4.1-12.6-4.8-28.3-17.7-31.2c-14-3.2-26.7,4.2-31.2,17.7c-15.4,45.8-23.4,94.2-23.8,142.5c16.9,0,33.8,0,50.8,0
				c-2.2-23.3-4.5-46.8-2.1-70.2c0.2-1.6,0.4-6.2-0.1,0.1c0.1-1.2,0.4-2.6,0.6-3.8c0.4-2.2,0.8-4.3,1.2-6.4c1-4.8,2.3-9.5,3.8-14.2
				c0.7-2.2,1.5-4.4,2.3-6.6c0.4-1,0.7-1.9,1.1-2.9c1.5-4-0.5,1.4-0.8,1.8c2.7-4.3,4.3-9.4,6.8-13.9c2.1-3.8,4.4-7.6,6.8-11.2
				c1.3-1.9,2.7-3.8,4-5.7c0.9-1.2,3-3.5-1.2,1.4c1-1.2,1.9-2.4,2.9-3.6c5.9-7.1,12.5-13.7,19.6-19.6c0.8-0.7,1.6-1.3,2.4-1.9
				c3.3-2.8-1.1,1.1-1.5,1.1c1.7-0.3,4.8-3.5,6.3-4.5c4.2-2.8,8.5-5.4,12.9-7.7c2.2-1.2,4.5-2.3,6.7-3.3c0.6-0.3,3.3-1.9,3.8-1.7
				c-0.1,0-6,2.3-1.4,0.6c4.7-1.8,9.4-3.4,14.2-4.8c4.8-1.4,9.7-2.5,14.6-3.4c1.7-0.3,5.1-0.2,6.6-1.1c-1.1,0.2-2.3,0.3-3.4,0.5
				c0.8-0.1,1.7-0.2,2.5-0.3c1.7-0.2,3.3-0.3,5-0.4c4.7-0.3,9.5-0.4,14.2-0.3c2.5,0.1,5,0.2,7.5,0.4c1.1,0.1,2.2,0.2,3.3,0.3
				c0.9,0.1,6.9,0.6,2.4,0.2c-4.5-0.3,0.9,0.2,1.6,0.3c1.1,0.2,2.2,0.4,3.3,0.6c2.3,0.4,4.5,0.9,6.7,1.5c5.7,1.4,11.4,3.1,17,5.1
				c2.2,0.8,4.4,1.7,6.6,2.5c4.2,1.6-0.6-0.2-1.1-0.5c0.9,0.6,2.2,1,3.3,1.4c5.4,2.4,10.7,5.1,16,7.9c9.1,4.9,17.9,10.2,26.5,15.9
				c3.8,2.5,7.4,5.2,11.1,7.8c2.9,2.1-4.9-4-0.7-0.6c0.8,0.7,1.7,1.3,2.5,2c2,1.7,4,3.4,6,5.2c3.5,3.2,6.9,6.5,10,10.1
				c1.4,1.5,2.6,3.3,4.1,4.8c-4-4-2.1-2.9-1.1-1.4c0.9,1.3,1.8,2.5,2.7,3.8c2.6,3.9,4.9,8,6.9,12.3c0.8,1.6,1.5,4.5-0.8-2.2
				c0.3,0.8,0.7,1.7,1,2.5c0.8,2.1,1.4,4.2,2,6.4c0.6,2.1,1.1,4.3,1.5,6.5c0.2,0.9,0.8,5.4,0.2,0.6c-0.6-4.9,0,0.2,0.1,1.3
				c0.4,4.4,0.4,8.9,0.1,13.3c-0.1,1.1-0.2,2.2-0.3,3.3c-0.4,4.6,1.1-6.3,0.2-1.4c-0.4,2.2-0.8,4.4-1.3,6.6c-1,4.4-2.4,8.6-4,12.8
				c-0.6,1.6-2.1,3.8,1-2.4c-0.6,1.2-1.1,2.4-1.7,3.6c-1,2-2,4-3.2,5.9c-1.1,1.9-2.3,3.8-3.6,5.6c-0.5,0.7-1,1.4-1.5,2.2
				c-2.8,4,3.7-4.3,0.7-0.9c-3,3.3-5.9,6.6-9.3,9.5c-0.8,0.7-1.7,1.4-2.6,2.1c-1.9,1.7,5.4-3.9,0.9-0.8c-2,1.4-4.1,2.7-6.2,3.9
				c12.7,7.3,25.5,14.6,38.2,21.9c-0.7-13.1,0.8-26.3-0.5-39.4c-1.1-11.3-3.2-22.1-7.4-32.6c-8.5-21-21.4-39.9-38.9-54.5
				c-17.4-14.6-37.3-25.7-59.3-32c-25.7-7.3-52.5-7.5-78.8-3.8c-28.7,3.9-56.1,13.8-82.1,26.4c12.7,7.3,25.5,14.6,38.2,21.9
				c-0.1-0.9-0.6-3.4-0.1-4.2c0,0-1.2,6.9-0.2,2.7c1.1-4.7-2.5,4.4-0.8,1.6c0.6-1,1.2-2,1.7-3c2.3-4.3-3.2,3.5-0.9,1.1
				c0.8-0.9,1.6-1.8,2.5-2.7c0.7-0.7,1.4-1.4,2.2-2.1c0.6-0.5,5.4-4.9,2.1-1.9c-3.1,2.9,0.4-0.2,1.1-0.7c0.8-0.6,1.6-1.1,2.5-1.6
				c2.4-1.6,4.9-3,7.3-4.5c5.6-3.4,11.3-6.5,17.1-9.6c5-2.6,10.1-5.1,15.2-7.5c2.4-1.1,4.9-2.2,7.3-3.3c5.7-2.5-5.2,2.1,0.5-0.2
				c1.7-0.7,3.3-1.3,5-2c11.1-4.3,22.4-8.1,33.8-11.3c11.8-3.3,23.7-5.8,35.8-7.9c3.9-0.7-6.5,0.6-0.5,0.1c1.2-0.1,2.4-0.2,3.6-0.3
				c3-0.2,6-0.3,9-0.3c1.8,0,3.6,0.2,5.4,0.3c3.6,0.1-0.2-0.9-1.4-0.3c1.8-0.8,8.5,1.9,10.2,2.5c1,0.3,2,0.8,3,1.1
				c-6-1.8-2.9-1.2-1.1-0.3c2.3,1.2,4.6,2.5,6.8,4c0.5,0.4,2.7,2.3,3.2,2.3c-1.3,0.2-4.1-3.4-1.4-1c2.4,2.1,4.8,4.2,7.1,6.4
				c3.8,3.8,7.3,7.8,10.7,12c0.7,0.8,1.3,1.7,2,2.5c-4.3-5.1-1.5-2-0.5-0.6c2,2.6,3.9,5.3,5.7,8c7.8,11.2,15,22.9,21.4,35
				c3.1,5.8,5.9,11.7,8.6,17.6c0.7,1.6,1.4,3.3,2.2,4.9c2.1,4.7-1.9-4.7,0.2,0.5c1.3,3.3,2.6,6.6,3.9,10
				c14.1-8.2,28.3-16.5,42.4-24.7c-42.6-42.2-93-75.2-148.3-98.4c-15-6.3-30.2-11.7-45.8-16.4c-4.5,16.3-9,32.6-13.5,48.9
				c8.2,1.2,16.2,3.1,24.1,5.8c1.7,0.6,3.4,1.3,5.1,1.9c3.1,1.1-4.8-2.2-1.8-0.8c0.9,0.4,1.9,0.8,2.8,1.3c3.7,1.7,7.4,3.7,11,5.8
				c3.3,2,6.6,4.1,9.8,6.3c0.3,0.2,1.9,1.7,2.5,1.8c-2.6-0.5-3.7-3-1.5-1.1c1.8,1.5,3.6,3,5.3,4.5c2.9,2.6,5.7,5.3,8.3,8.1
				c1.4,1.5,2.8,3.1,4.1,4.6c0.5,0.6,1,1.2,1.5,1.8c2,2.4-3.3-4.5-0.6-0.8c5.2,7.2,9.5,14.7,13.3,22.7c1.7,3.6-0.7-1.5-0.6-1.5
				c0.1,0,1.3,3.3,1.2,3.1c0.7,1.8,1.3,3.6,1.9,5.4c1.4,4.2,2.6,8.4,3.5,12.7c0.5,2.1,0.9,4.3,1.3,6.5c1.1,6.4-0.3-4,0.1,0.6
				c0.5,4.7,0.8,9.3,0.8,14c0,4.1-0.2,8.3-0.5,12.4c-0.1,1.1-0.4,2.2-0.4,3.3c0-0.6,1-6.2,0.2-1.8c-0.1,0.7-0.3,1.5-0.4,2.2
				c-0.9,3.9-0.2,0.7,0.8-1.2c1.3-2.3,3.4-4.2,5.6-5.7c1.9-1.3,4-2,6.3-2.1c2.5-0.2,3-0.3,1.7-0.3c-3,0.2,6.3,1.2,3.3,0.4
				c-2.8-0.8,5.6,3,2.1,0.9c-2.4-1.5,0.2-0.9,2,1.7c-0.5-0.8-3-4-0.7-0.2c2.2,3.6,0.6,0.9,0.2,0c-0.2-0.4-0.5-0.8-0.6-1.2
				c-0.8-1.7-0.5-0.9,1,2.6c0-1.7-1.5-4-2-5.7c-0.7-2.2-1.4-4.3-2.2-6.4c-3.2-8.2-6.4-14.1-12-20.8c-6.4-7.7-19.2-8.9-27.7-5.2
				c-8.9,3.8-16,13.1-15.6,23.2c1.1,26.4,2.2,52.8,3.3,79.2c16.6-2.2,33.2-4.5,49.8-6.7c-9.6-37.1-17.4-74.6-23.5-112.4
				c-0.9-5.6-6.7-12.6-11.7-15.2c-5.1-2.7-10.4-3.8-16.2-3c-12.1,1.6-22.4,12.2-22,24.9c0.6,20.1,1.2,40.1,1.8,60.2
				c16.6-2.2,33.2-4.5,49.8-6.7c-10.8-34.4-21.7-68.7-32.5-103.1c-3.2-10.3-13.1-19.1-24.5-18.6c-4.5,0.2-8.8,1.4-12.8,3.5
				c-6.2,3.3-9.1,9.1-11.7,15.2c-5.8,14.1-6.4,30.1-5.5,45.2c0.9,15.1,2.2,30.2,3.3,45.3c2.3,30.9,4.5,61.7,6.8,92.6
				c16.6-2.2,33.2-4.5,49.8-6.7c-11-48.5-22.1-97.1-33.1-145.6c-2.8-12.3-15.9-19.8-27.8-18.2c-12,1.6-22.4,12.2-22,24.9
				c0.6,18.2,1.2,36.4,1.8,54.7c16.6-2.2,33.2-4.5,49.8-6.7c-7.4-21.1-14.8-42.1-22.1-63.2c-4.2-12-14.8-19.9-27.8-18.2
				c-12.9,1.7-21.3,12.2-22,24.9c-2.2,39.1-2.5,78.4-0.6,117.5c16.6-2.2,33.2-4.5,49.8-6.7c-3-15.6-5.7-31.3-8.2-47
				c-1.2-7.7-2.3-15.4-3.4-23.1c-0.1-0.8-1-7.3-0.5-3.4c0.5,3.9-0.3-2.6-0.4-3.4c-0.5-4.2-1.1-8.4-1.6-12.6
				c-16.6,2.2-33.2,4.5-49.8,6.7c18.1,62.7,36.1,125.4,54.2,188.1c3.5,12.2,15.4,19.9,27.8,18.2c12.3-1.7,22.1-12.2,22-24.9
				c-0.1-12.9,0.3-25.8,1.3-38.6c0.5-6.4,1.2-12.8,2-19.2c0.6-5-0.5,3.3,0,0c0.3-1.6,0.5-3.2,0.7-4.8c0.5-3.2,1-6.4,1.6-9.5
				c1-5.6,2.1-11.2,3.7-16.6c0.3-0.9,0.6-1.9,0.9-2.8c1.5-4.9-2.8,5.1-0.3,0.7c0.5-0.8,1-1.7,1.4-2.5c2.1-3.9-2.8,2.7-1,1.2
				c3.2-2.5,0.1-0.2-1.3,0.8c3.7-2.3-4.9,1.9-2.5,0.9c4.5-1.8-2.8,0.9-2.9,0.3c0.6,0,1.1,0,1.7,0c1.3,0.1,0.8,0-1.7-0.3
				c-2.6-0.4-3-0.4-1.2,0c0.4,0.1,0.7,0.2,1.1,0.3c-1.4-0.6-2.7-1.1-4.1-1.7c1.5,0.9,1.3,0.7-0.8-0.8c-1.9-1.6-2.3-1.8-1-0.6
				c-0.9-1.2-1.8-2.4-2.7-3.5c-0.6-1.4-1.1-2.8-1.7-4.2c0.7,2.5,0.5,1.3-0.4-3.6c0.5,12.7,9.2,23.2,22,24.9
				c12,1.6,24.9-5.8,27.8-18.2c4-17.2,9.4-34,15.9-50.4c-14.1,3.7-28.3,7.5-42.4,11.2c3,2.7,6.1,5.4,9.1,8
				c6.9,6.1,15.5,9.1,24.7,6.5c7.7-2.1,16.6-9.3,17.7-17.7c0.9-6.7,2.4-13.3,4.6-19.7c0.5-1.4,1-2.8,1.5-4.1
				c2.1-5.6-2.5,4.9,0.2-0.4c1.6-3.1,3.2-6.3,5-9.3c5.2-8.8,4.2-20.2-2-28.2c-6.3-8.2-16.6-11.5-26.7-9.1
				c-23.6,5.7-29.6,40.5-7.8,52.7c11.2,6.3,24.7,4.8,34.2-4c7.6-7,11.8-19.4,8-29.4c-2.4-6.3-5.6-11.6-11.7-15.2
				c-5.4-3.2-13.5-4.5-19.6-2.6c-12.1,3.9-22.7,17.9-17.7,31.2c3.1-7.8,6.1-15.7,9.2-23.5c4.3-1.2,8.5-2.3,12.8-3.5
				c3.3,0.9,6.6,1.8,10,2.7c3,3,6.1,6.1,9.1,9.1c-4.3,10.4-8.7,20.9-13,31.3c-9.6-12.4-19.1-24.9-28.7-37.3
				c-8.3,13.9-14.2,29.6-16.5,45.6c14.1-3.7,28.3-7.5,42.4-11.2c-3-2.7-6.1-5.4-9.1-8c-6.9-6.1-15.5-9.1-24.7-6.5
				c-9.3,2.6-14.3,9.2-17.7,17.7c-6.6,16.4-11.9,33.2-15.9,50.4c16.6,2.2,33.2,4.5,49.8,6.7c-0.9-21.6-19.5-37.6-41.1-36.3
				c-22.1,1.4-36.3,18.6-42.2,38.7c-4.9,16.7-6.9,34.8-8.7,52c-1.8,16.7-2.5,33.4-2.4,50.2c16.6-2.2,33.2-4.5,49.8-6.7
				c-18.1-62.7-36.1-125.4-54.2-188.1c-3.5-12.2-15.4-19.9-27.8-18.2c-11.3,1.5-23.5,12.4-22,24.9c4.2,34.5,9.4,68.8,15.9,102.9
				c2.4,12.4,16.3,19.7,27.8,18.2c11.9-1.6,22.6-12.3,22-24.9c-1.8-39.2-1.6-78.4,0.6-117.5c-16.6,2.2-33.2,4.5-49.8,6.7
				c7.4,21.1,14.8,42.1,22.1,63.2c4.2,12,14.8,19.9,27.8,18.2c12-1.6,22.4-12.2,22-24.9c-0.6-18.2-1.2-36.4-1.8-54.7
				c-16.6,2.2-33.2,4.5-49.8,6.7c11,48.5,22.1,97.1,33.1,145.6c2.8,12.3,15.9,19.8,27.8,18.2c11.7-1.6,22.9-12.3,22-24.9
				c-2.2-30.2-4.4-60.4-6.7-90.6c-1.1-14.9-2.3-29.7-3.3-44.6c-0.4-6.4-0.7-12.8-0.3-19.3c0.1-1.7,0.5-3.5,0.5-5.2
				c0,6.3-0.2,2.1,0.2,0c0.8-3.4,1.8-6.6,3.2-9.8c-16.3,0-32.6,0-48.9,0c10.8,34.4,21.7,68.7,32.5,103.1
				c3.8,12.1,15.1,19.9,27.8,18.2c12.1-1.6,22.4-12.2,22-24.9c-0.6-20.1-1.2-40.1-1.8-60.2c-16.6,2.2-33.2,4.5-49.8,6.7
				c6.1,37.8,14,75.3,23.5,112.4c3.2,12.3,15.7,19.8,27.8,18.2c12-1.6,22.5-12.2,22-24.9c-1.1-26.4-2.2-52.8-3.3-79.2
				c-14.4,6-28.9,12-43.3,17.9c-4.2-5.1-1.9-2.6-1-0.9c1.5,2.6,0.2,3.3-0.3-1.4c0.2,1.8,1.4,3.9,2,5.7c2.1,6.2,4,12.9,7.5,18.4
				c7.7,12.4,21.4,21.6,36.2,21.9c17.9,0.4,32.5-12.9,35.5-30.3c2-11.5,3-23.1,2.2-34.7c-1.5-23.8-7.9-46.9-19.4-67.8
				c-11.1-20.1-26.9-36.7-45.4-50.2c-18.7-13.6-41.4-23-64.3-26.4c-7-1-13.2-1.2-19.6,2.6c-5.3,3.1-10.3,9.1-11.7,15.2
				c-3.1,13.6,4.1,27.2,17.7,31.2c8.6,2.5,17.1,5.3,25.5,8.4c4.2,1.5,8.4,3.1,12.5,4.8c1.9,0.8,4.6,1.4,6.2,2.5
				c-3.5-1.5-4-1.7-1.4-0.6c1,0.4,2.1,0.9,3.1,1.3c15.9,7,31.3,14.9,46.2,23.8c7.7,4.6,15.3,9.3,22.7,14.4c3.2,2.2,6.4,4.4,9.6,6.7
				c3.4,2.5,7.9,4.9,10.8,8c-2.9-2.3-3.3-2.6-1.2-0.9c0.9,0.7,1.8,1.4,2.6,2.1c1.7,1.4,3.5,2.8,5.2,4.2c3.5,2.8,6.9,5.7,10.2,8.7
				c6.7,5.9,13.3,12,19.6,18.3c7.7,7.6,21.3,10,30.8,4c8.9-5.7,15.7-17.9,11.7-28.7c-10-26.6-22.5-52.1-38.4-75.7
				c-15.1-22.4-33-46.3-58.4-57.8c-29.8-13.5-62-8.1-92.7-0.2c-26.8,6.9-53,17-77.6,29.6c-14,7.1-27.8,15-40.1,24.9
				c-13.4,10.8-24.2,27.7-22.6,45.5c1.8,19.8,20,30.7,38.2,21.9c2.7-1.3,5.3-2.6,8-3.8c1.1-0.5,2.2-1,3.2-1.4
				c4.1-1.8-0.6,0.2-1.1,0.5c5.1-2.8,11.2-4.4,16.7-6.3c10.4-3.5,21-6.4,31.8-8.4c2.6-0.5,5.2-0.9,7.8-1.3c1.8-0.3,4.2,0.2-1.5,0.2
				c1.1,0,2.4-0.3,3.5-0.4c5.8-0.6,11.7-0.9,17.5-1c5.3,0,10.5,0.2,15.8,0.6c1.2,0.1,2.3,0.2,3.5,0.3c4.9,0.5-1.3-0.3-1.5-0.2
				c1.8-0.7,7.7,1.3,9.5,1.7c4.5,1,8.9,2.1,13.3,3.5c2.1,0.7,4.1,1.4,6.1,2.2c0.8,0.3,1.8,0.8,2.7,1.1c-6.8-1.8-2.7-1.1-0.8-0.3
				c8.3,3.8,16.1,8.6,23.5,14c1.4,1,3.1,3-1.7-1.3c0.7,0.6,1.5,1.2,2.2,1.8c1.8,1.5,3.6,3.1,5.4,4.8c3.1,2.9,6.1,6,8.9,9.3
				c0.8,0.9,1.5,1.8,2.3,2.7c2.2,2.6-3.8-5.3-0.9-1.2c1.1,1.5,2.2,3.1,3.2,4.6c2.6,3.9,4.9,8,7,12.2c0.4,0.8,0.8,1.7,1.2,2.5
				c2.2,4.7-2.2-5.8-0.4-0.9c0.8,2.2,1.6,4.4,2.3,6.6c0.7,2.5,1.4,5,1.9,7.5c0.2,1.2,0.4,2.3,0.7,3.5c0.9,4.6-0.5-6.2-0.1-1.1
				c0.9,13.4-0.1,26.8,0.6,40.2c1,19,20.9,31.9,38.2,21.9c36.5-21,59.2-64.6,56.1-106.6c-1.9-24.9-11.4-46.3-26.8-65.6
				c-14-17.5-32.8-31.2-51.7-43c-20.8-13-43.4-24.4-67.1-31c-25-7-50.5-7.6-76-3.9c-47.3,6.9-88.7,34.5-116.4,72.9
				c-14.2,19.7-24.4,43.3-28.8,67.2c-5.5,30.1-3.5,59.9-0.6,90.1c0.7,6.9,2.4,12.9,7.4,17.9c4.4,4.4,11.6,7.7,17.9,7.4
				c13.9-0.6,25.2-11.1,25.4-25.4c0.1-11.4,0.6-22.7,1.6-34.1c0.5-5.7,1.1-11.3,1.8-17c0.4-3.3-0.1-0.6-0.2,1.1
				c0.1-1.6,0.4-3.1,0.7-4.7c0.4-2.8,0.9-5.6,1.4-8.4c3.8-22.4,9.5-44.5,16.7-66c-16.3-4.5-32.6-9-48.9-13.5
				c-19,58.5-9.2,126.6,26,177.2c4.7,6.7,10.3,11,18.5,12.1c7.4,1,16.3-0.9,21.3-7c12.1-14.5,19.8-32.7,17.7-51.9
				c-16.6,2.2-33.2,4.5-49.8,6.7c7.4,24.5,14.8,48.9,22.2,73.4c3.7,12.1,15.3,19.9,27.8,18.2c12.2-1.6,22.2-12.2,22-24.9
				c-0.8-47.2-1.5-94.5-2.3-141.7c-0.2-13.3-11.5-26-25.4-25.4C522.5,627.7,510.4,638.2,510.7,652.4L510.7,652.4z"/>
		</g>
	</g>
	<g class="st1">
		<g>
			<path class="st2" d="M500.5,633c-0.2-8.9-0.2-17.9,0.2-26.8c0.2-4,0.6-8,1-12c0.5-5.3-0.8,5.1-0.2,1.6c0.2-1,0.3-2,0.5-2.9
				c0.4-2.4,0.9-4.8,1.4-7.2c0.9-4,2-8,3.3-11.9c0.3-0.9,0.7-1.8,1-2.7c1.3-3.9-0.8,1.8-0.9,2.1c1.1-2.1,2-4.3,3.1-6.4
				c1-1.9,2.1-3.7,3.3-5.4c0.5-0.8,1.1-1.5,1.6-2.3c1.8-2.6-3.5,4.1-1.4,1.8c1.4-1.6,2.8-3.2,4.4-4.8c0.7-0.7,1.4-1.3,2.1-2
				c0.6-0.6,1.2-1.1,1.9-1.6c1.5-1.2,0.8-0.7-1.9,1.4c-0.1-1.5,9.8-6.1,11.3-6.9c1.2-0.6,2.5-1.2,3.8-1.8c3-1.5-4.6,1.8-1.5,0.6
				c2.6-1,5.2-2,7.9-2.9c9.9-3.4,20-6,30.1-8.5c11.2-2.8,22.4-5.2,33.8-7.2c2.5-0.4,5-0.8,7.6-1.2c1-0.1,3-0.2,3.8-0.6
				c-3,1.6-3.7,0.5-1.1,0.2c5.7-0.7,11.4-1.3,17.1-1.7c11.4-0.8,22.9-0.9,34.4-0.2c2.2,0.1,4.4,0.3,6.6,0.5c1.1,0.1,2.2,0.2,3.3,0.3
				c0.8,0.1,5.9,1.2,1.6,0.1c-3.8-0.9-0.3,0,0.7,0.1c1.4,0.2,2.7,0.4,4.1,0.7c2.4,0.4,4.9,0.9,7.3,1.4c9.4,2,18.7,4.6,27.8,7.9
				c1.3,0.5,2.6,1,3.8,1.5c0.3,0.1,0.5,0.2,0.8,0.3c2,0.8,2,0.8,0,0c-0.5-0.2-1-0.4-1.5-0.6c0.8,0.3,1.5,0.7,2.3,1
				c1.2,0.6,2.5,1.1,3.7,1.7c4.4,2.1,8.8,4.5,13,7c4,2.4,7.9,5,11.6,7.7c0.9,0.7,3.1,3.1,0.7,0.5c-2.5-2.6-0.2-0.1,0.6,0.6
				c2.1,1.7,4.1,3.5,6.1,5.3c3.3,3,6.4,6.2,9.3,9.5c0.9,1,2.9,4.4,4,4.8c-2.3-0.7-3.1-4.1-0.6-0.8c0.8,1.1,1.5,2.1,2.3,3.2
				c2.7,3.9,5.1,7.9,7.4,12c1,1.8,1.9,3.7,2.8,5.6c0.4,0.9,0.9,1.9,1.3,2.8c2.3,5.1-2-5.6-0.2-0.3c1.4,3.9,2.8,7.8,3.9,11.8
				c0.6,2.2,1.2,4.5,1.6,6.8c0.2,1,0.4,2,0.6,3c0.2,0.9,1.2,6.6,0.4,2c-0.7-4-0.1-0.6,0,0.5c0.1,1.5,0.3,3.1,0.3,4.6
				c0.1,2.3,0.2,4.6,0.1,7c0,2.6-0.3,5.2-0.4,7.7c-0.3,5.4,0.9-4.9,0.2-1.3c-0.2,1.4-0.4,2.7-0.7,4.1c-1,5.4-2.5,10.8-4.4,16
				c-0.4,1-0.7,2.1-1.1,3.1c-0.7,1.8-3.2,5.6,0,0.1c-1.4,2.4-2.3,5.1-3.6,7.5c-5.1,10-11.2,19.4-17.8,28.5c-1.6,2.2-3.2,4.9-5.1,6.8
				c0.4-0.4,3.6-4.6,0.8-1.1c-0.9,1.1-1.8,2.2-2.6,3.3c-3.7,4.6-7.5,9.2-11.2,13.7c14.1,8.2,28.3,16.5,42.4,24.7
				c19.4-50.5,21.6-108.3-0.2-158.3c-22-50.5-71.5-83.6-123.8-96.3c-33.8-8.2-68.9-9.2-103.4-6.6c8.5,8.5,16.9,16.9,25.4,25.4
				c-0.2,1.5-0.4,3-0.6,4.4c0.5-1.8,0.4-1.4-0.5,1c-0.4,1.1-5.5,7.4-2.8,4.6c2-2,0.7,1.1-2.4,1.9c0.2-0.1,1.8-0.9,2.1-1.2
				c-3.5,3.2-5.1,1.7-2,0.9c1-0.3,2.1-0.6,3.1-0.9c0.8-0.2,1.7-0.3,2.6-0.5c4.8-1.1-6.5,0.5-1.7,0.2c12-0.7,24-1.6,36.1-2
				c11.9-0.5,23.9-0.6,35.8-0.1c5.8,0.3,11.6,0.7,17.3,1.3c1.6,0.2,3.3,0.2,4.8,0.5c-0.7-0.2-5.7-0.9-1-0.1c2.8,0.4,5.6,0.9,8.3,1.4
				c10.2,1.9,20.2,4.6,29.9,8.2c1.3,0.5,2.5,1,3.8,1.5c4.6,1.8-0.7,0.6-0.8-0.4c0.1,0.7,5,2.3,5.9,2.7c4.8,2.4,9.6,5,14.1,7.9
				c2,1.3,4,2.7,6,4.1c4.1,2.9-0.8,0.1-0.6-0.6c0,0.1,2.7,2.2,2.5,2c4.1,3.4,8,7.1,11.6,11.1c1.2,1.3,2.5,3.8,4,4.7
				c-3.3-1.9-2.7-3.6-0.7-0.9c0.7,1,1.5,2.1,2.2,3.2c2.7,4.1,5.1,8.3,7.2,12.7c1.1,2.3,0.6,4.3-0.4-1.2c0.3,1.4,1.2,2.9,1.6,4.3
				c0.9,2.4,1.6,4.8,2.3,7.3c0.7,2.4,1.2,4.9,1.7,7.4c0.1,0.8,0.8,5.8,0.3,1.1c-0.5-4.7,0,0.9,0.1,1.9c0.4,5.3-0.1,10.5-0.3,15.8
				c0.3-8-0.1-0.4-0.7,2.1c-0.7,3-1.6,5.8-2.6,8.7c-4.5,12.5,5.1,28.3,17.7,31.2c14.3,3.3,26.4-4.3,31.2-17.7
				c8.5-23.5,7.2-51.1-1.9-74.2c-10.2-26-26.9-46.5-49.5-62.8c-44-31.7-101.2-36.1-153.6-33.8c-15.3,0.7-31.7,0.4-46.6,4
				c-18.9,4.5-32.9,18.3-34.1,38.2c-0.8,13,12.3,26.4,25.4,25.4c13.7-1,27.4-1.6,41.2-1.2c6.9,0.2,13.7,0.5,20.5,1.2
				c3,0.3,6.3,0.4,9.3,1c-6.9-1.5-0.8-0.1,0.6,0.1c1.8,0.3,3.7,0.6,5.5,0.9c12.5,2.3,24.8,5.6,36.6,10.1c1.2,0.5,3.2,1.7,4.4,1.8
				c-1-0.4-2.1-0.9-3.1-1.3c1,0.4,1.9,0.9,2.9,1.3c2.4,1.1,4.8,2.2,7.2,3.4c5.2,2.6,10.3,5.5,15.1,8.7c2.7,1.7,5.2,3.6,7.8,5.4
				c2.4,1.7,0,1.4-1.4-1.1c0.5,1,2.8,2.2,3.7,3c4.4,3.7,8.6,7.7,12.6,11.9c1,1,5,7.1,6.2,7.2c-0.3,0-3.7-5.1-1.1-1.4
				c0.9,1.3,1.8,2.5,2.7,3.8c3.2,4.7,6.1,9.5,8.7,14.6c0.7,1.4,1.4,2.7,2,4.1c0.9,2,1.5,6-0.1-0.4c0.6,2.4,1.9,4.8,2.7,7.2
				c1.9,5.3,3.4,10.7,4.7,16.2c0.6,2.8,1.2,5.5,1.7,8.3c0.2,1.3,0.4,2.5,0.6,3.8c0.9,5.6-0.6-6.2-0.1-0.6c0.5,5.7,1,11.4,1.1,17.1
				c0.1,6.8-0.2,13.6-0.8,20.4c-0.1,1-0.2,2.1-0.3,3.1c-0.2,1.8-1.7,9.1-0.1,1.1c-0.6,3.1-1,6.2-1.6,9.4
				c-2.5,12.9-6.2,25.5-10.9,37.8c-3.8,10,2.5,23.8,11.7,28.7c9.3,4.9,23.4,4.9,30.8-4c30.2-36.4,60.6-76.3,60.7-125.9
				c0.1-47.4-25.6-90.7-62.6-118.8c-36.8-28-84.5-39.6-130.2-39.5c-26.1,0.1-52.4,3.9-77.9,9.4c-23.3,5.1-47.6,10.8-68.8,22
				c-23.9,12.7-40,34.9-47.6,60.5c-6.6,22-7.2,45.8-6.7,68.6c0.3,13.3,11.5,26,25.4,25.4C488.6,657.8,500.8,647.2,500.5,633
				L500.5,633z"/>
		</g>
	</g>
	<g class="st1">
		<g>
			<path class="st2" d="M606.9,767.5c0.5-1.2,2-4.5,0.6-1.5c-0.5,1-0.9,2-1.4,3c-1.1,2.2-2.2,4.4-3.4,6.6c-2.3,4.1-4.8,8.1-7.5,11.9
				c-0.6,0.9-1.3,1.8-1.9,2.7c-2,2.7,0-0.4,0.9-1.2c-1.6,1.3-2.9,3.5-4.3,5.1c-3.3,3.7-6.8,7.2-10.5,10.6
				c14.1,3.7,28.3,7.5,42.4,11.2c-4.2-21.9-12.5-43.1-23.9-62.3c-5.5-9.3-18-15.1-28.7-11.7c-4.2,1.4-8,3.6-11.2,6.5
				c-5.3,4.8-6.5,11.3-7.4,17.9c-2.2,16.9-4.5,33.7-6.7,50.6c16.6-2.2,33.2-4.5,49.8-6.7c-3-13-5.9-26-8.9-38.9
				c-15.5,6.5-30.9,13-46.4,19.6c10.8,14.6,23.6,26.9,39.5,36c16.2,9.3,33.6,14.3,52.1,16.5c17,2,34.7-0.4,50.8-5.7
				c17.3-5.7,33.5-14.3,51-19.3c18.5-5.3,24.5-28.6,11.2-42.4c-6-6.2-12-12.4-18-18.6c-2.9-3-5.8-5.9-8.7-9
				c-0.7-0.8-1.5-1.6-2.1-2.4c0.7,0.8,1.3,1.7,2,2.5c-1.4-2.4-1.2-1.8,0.4,1.9c0.8,4.3,0.1,8.5-2.2,12.5
				c-9.6,3.9-19.1,7.8-28.7,11.7c27,9.2,54,18.4,81,27.6c10.2,3.5,23.7-2.2,28.7-11.7c5.7-10.8,3.4-21.5-4-30.8
				c-14.1-17.7-32.9-29.8-53.6-38.4c-2.2,16.6-4.5,33.2-6.7,49.8c1.3,0,2.7-0.1,4,0c1.1,0,4.4,0.7,0.6-0.1
				c-5.6-1.2-9.7-4.9-11.2-10.5c-2.5-9,0.7-13.9,5.9-18.7c2.9-2.7,0.4-0.5-0.8,0.1c-2.4,1.3-4.9,2.4-7.4,3.6
				c-11,5.4-22,10.7-33,16.1c-22,10.7-44,21.4-66,32.1c12.7,7.3,25.5,14.6,38.2,21.9c0-0.1,0-3.2-0.1-3.2c0.3,0.2-1.3,7.5-0.2,3.2
				c0.7-2.7-3.2,5.9-1.1,2.8c0.1-0.1,1.7-2.7,1.7-2.7c0.3,0.3-4.8,5.5-1.5,2.2c0.7-0.7,1.3-1.4,2-2.1c1.5-1.5,3.1-3,4.7-4.5
				c8.9-8.3,16.4-17.2,20.1-29c4.1-12.6-4.8-28.3-17.7-31.2c-13.9-3.2-26.9,4.2-31.2,17.7c-1.3,4.1,3.2-5.5,0.8-1.9
				c-0.1,0.2-1.5,2.9-1.8,2.9c0.1,0,4.7-5.5,1.5-2c-0.7,0.7-1.3,1.5-2,2.2c-3.2,3.3-6.7,6.2-9.9,9.5c-9.5,9.4-17.4,22.2-16.1,36.1
				c1.7,19.8,20,30.7,38.2,21.9c27.9-13.6,55.9-27.2,83.8-40.8c15.9-7.7,34.6-13.7,40.7-32.2c3.9-11.9-1.1-26.5-10.6-34.3
				c-9.2-7.6-19.9-10.1-31.7-9.9c-12.7,0.2-23.2,9.5-24.9,22c-1.8,13.5,6.3,22.9,18.2,27.8c-7.1-2.9-0.1,0.1,1.3,0.8
				c1.9,1,3.8,2,5.7,3.1c1.9,1.1,3.7,2.2,5.5,3.4c0.9,0.6,1.8,1.2,2.7,1.8c1.7,1.3,1.8,1.3,0,0c-1.7-1.3-1.7-1.3,0,0
				c0.8,0.7,1.7,1.4,2.5,2.1c1.6,1.4,3.2,2.9,4.8,4.4c3.1,3,6,6.3,8.7,9.7c8.2-14.1,16.5-28.3,24.7-42.4c-27-9.2-54-18.4-81-27.6
				c-9.5-3.2-24.4,1.9-28.7,11.7c-4,9.3-6,18.2-2.3,28c3.1,8.3,8.2,14.7,14.2,21c8.2,8.5,16.4,17,24.6,25.5
				c3.7-14.1,7.5-28.3,11.2-42.4c-16.1,4.6-31.1,12.2-46.8,17.9c-3.9,1.4-7.9,2.7-11.9,3.7c-3.6,0.9-7.4,1.2-11,2.3
				c1.3-0.2,2.6-0.4,3.9-0.5c-1,0.1-1.9,0.2-2.9,0.3c-1.7,0.1-3.4,0.2-5.1,0.3c-3.4,0.1-6.8,0-10.2-0.2c-1.7-0.1-3.4-0.4-5.1-0.5
				c7.6,0.4,3,0.4,1,0c-3.4-0.6-6.7-1.4-9.9-2.4c-3.1-0.9-6.5-2.8-9.7-3.3c3.8,1.6,4.5,1.9,2,0.8c-0.7-0.3-1.3-0.6-2-0.9
				c-1.5-0.7-3.1-1.5-4.6-2.3c-3-1.6-5.9-3.4-8.8-5.3c-1.2-0.8-2.4-1.7-3.6-2.5c-2.1-1.6-1.6-1.2,1.7,1.3c-0.8-0.6-1.5-1.2-2.2-1.9
				c-2.6-2.2-5.1-4.6-7.4-7c-1-1.1-2-2.1-2.9-3.2c-4.5-5.3,2.1,3-0.6-0.6c-7.6-10.3-19.2-15.7-31.7-10.4
				c-11.9,5-17.5,17.5-14.7,29.9c3,13,5.9,26,8.9,38.9c2.8,12.3,15.9,19.8,27.8,18.2c5.3-0.7,10.8-2.9,14.6-7
				c4.9-5.3,6.5-10.9,7.4-17.9c2.2-16.9,4.5-33.7,6.7-50.6c-15.8,4.3-31.5,8.5-47.3,12.8c2.4,4.1,4.7,8.2,6.8,12.5
				c0.9,1.8,1.6,5,3,6.4c-0.9-0.9-1.7-4.4-0.5-1.1c0.5,1.4,1.1,2.8,1.6,4.1c3.4,9.2,6,18.6,7.8,28.2c1.6,8.5,9.7,15.5,17.7,17.7
				c9,2.5,17.9-0.3,24.7-6.5c18.2-16.6,31.2-37,40.6-59.7c2.3-5.6,0.4-14.5-2.6-19.6c-3.1-5.3-9.1-10.3-15.2-11.7
				c-6.5-1.5-13.8-1.2-19.6,2.6C612.6,756.1,609.6,761,606.9,767.5L606.9,767.5z"/>
		</g>
	</g>
	<g class="st1">
		<g>
			<path class="st2" d="M773.1,797.7c13.4-0.7,26.9-0.7,40.3,0.1c6.7,0.4,13.4,1,20.1,1.8c1.2,0.1,2.5,0.2,3.6,0.5
				c-7-1.5-0.9-0.1,0.5,0.1c3.6,0.5,7.2,1.2,10.9,1.8c13.2,2.4,26.3,5.6,39.2,9.5c6.1,1.9,12.2,3.9,18.3,6.1
				c3.2,1.2,6.3,2.4,9.4,3.6c1.1,0.5,2.3,0.9,3.4,1.4c2.6,1.1,2.3,0.9-1-0.4c1.1,0.5,2.1,0.9,3.2,1.4c11.2,5,21.7,10.8,31.8,17.7
				c4.6,3.1-3.3-2.8-0.6-0.5c1,0.9,2.1,1.7,3.1,2.6c2.1,1.8,4,3.7,5.9,5.6c1.1,1.2,2.2,2.4,3.3,3.6c0.4,0.4,0.7,0.8,1.1,1.3
				c1.7,2.1,1.4,1.7-0.9-1.2c0.8-0.2,4.9,7.4,5.3,8.3c1.4,2.4,2.6,4.8,3.8,7.3c0.2,0.5,0.5,1,0.7,1.5c1.1,2.5,0.9,2-0.6-1.5
				c0.1,0,1.3,3.3,1.2,3.1c2.3,6.3,4.2,12.7,5.7,19.2c1.3,5.4,2.4,10.9,3.4,16.3c0.6,3.2,1.1,6.4,1.6,9.6c0.3,1.9,0.6,3.8,0.9,5.7
				c0.2,1.3,0.4,2.6,0.6,3.8c-0.4-3.2-0.5-3.9-0.3-1.9c3.9,31.8,5.1,63.8,3,95.8c-0.9,13.3,12.3,26,25.4,25.4
				c14.5-0.6,24.5-11.2,25.4-25.4c1.9-30,1.2-60.1-2.3-90c-3.6-30.3-8-61-21.5-88.7c-12.7-26-35.8-44.7-61.3-57.3
				c-26.2-12.9-54.3-22.6-82.8-28.8c-32.7-7-66.4-10-99.7-8.3c-13.2,0.7-26,11.2-25.4,25.4C748.4,785.5,759,798.4,773.1,797.7
				L773.1,797.7z"/>
		</g>
	</g>
	<g class="st1">
		<g>
			<path class="st2" d="M1017.6,996.3c-26-0.1-51.9-0.1-77.9-0.2c8.5,8.5,16.9,16.9,25.4,25.4c0-1.7-0.7-7.8,0.4-9
				c-0.1,1.1-0.3,2.1-0.4,3.2c0.1-0.9,0.3-1.8,0.4-2.7c0.3-1.5,0.6-2.9,0.9-4.4c1.2-5.6,2.8-11.1,4.4-16.7
				c3.4-11.8,6.4-23.5,8.2-35.6c4-26.4,4.7-52.9,5-79.5c-16.9,0-33.8,0-50.8,0c5.8,51,11.7,101.9,17.5,152.9
				c0.8,6.9,2.3,12.8,7.4,17.9c4.4,4.4,11.6,7.7,17.9,7.4c14.1-0.6,24.9-11.1,25.4-25.4c0.5-15.1,1-30.2,1.5-45.3
				c0.4-13.3-12-26-25.4-25.4c-14.1,0.6-24.9,11.1-25.4,25.4c-0.5,15.1-1,30.2-1.5,45.3c16.9,0,33.8,0,50.8,0
				c-5.8-51-11.7-101.9-17.5-152.9c-0.8-6.9-2.3-12.8-7.4-17.9c-4.4-4.4-11.6-7.7-17.9-7.4c-13.8,0.6-25.3,11.1-25.4,25.4
				c-0.1,12.5-0.2,25-0.8,37.5c-0.3,6.1-0.7,12.1-1.2,18.2c-0.3,3.2-0.7,6.4-1,9.5c-0.5,5,0.6-3.3,0-0.1c-0.3,1.6-0.5,3.2-0.7,4.7
				c-4.2,25.1-15.2,49.1-15.1,74.9c0,13.7,11.6,25.3,25.4,25.4c26,0.1,51.9,0.1,77.9,0.2c13.3,0,26-11.7,25.4-25.4
				C1042.4,1007.9,1031.9,996.4,1017.6,996.3L1017.6,996.3z"/>
		</g>
	</g>
	<g class="st1">
		<g>
			<path class="st2" d="M994.5,956.7c-10.4-54.2-35.2-104.4-70-147c-10.3,13.3-20.5,26.6-30.8,39.9c5,2.7,9.9,5.6,14.6,8.8
				c2.1,1.4,4.2,2.9,6.3,4.4c1.1,0.8,2.5,1.6,3.4,2.5c-1.8-1.9-3.2-2.5-0.5-0.3c8.6,7,16.5,14.8,23.7,23.2
				c10.3-13.3,20.5-26.6,30.8-39.9c-66.3-43.4-141.6-78.7-222.5-78.2c-23.5,0.1-47.4,3.4-69.9,10.2c-10.3,3.1-19.1,13.2-18.6,24.5
				c0.5,10.5,7.4,22.5,18.6,24.5c52.3,9.3,105,21.7,154.7,40.7c2.7,1,5.3,2.1,8,3.2c0.5,0.2,1.1,0.4,1.6,0.7
				c2.6,1.1,2.1,0.9-1.3-0.6c1,0.2,2.3,1,3.1,1.4c5.7,2.5,11.4,5.2,17,8.1c11.1,5.7,21.9,12.2,31.9,19.5c0.5,0.4,2.3,1.4,2.7,2
				c-0.8-0.6-1.6-1.3-2.4-1.9c0.9,0.7,1.8,1.4,2.7,2.1c2.2,1.7,4.3,3.5,6.4,5.4c4.4,3.9,8.6,8,12.6,12.4c1.8,2,3.6,4,5.3,6.1
				c0.3,0.4,2.6,3.8,3,3.8c-1.2,0-3.4-4.5-0.6-0.6c3.5,4.8,6.7,9.7,9.6,14.8c1.6,2.8,3.1,5.6,4.5,8.5c0.6,1.2,1.2,2.4,1.7,3.6
				c0.4,1,0.9,1.9,1.3,2.9c-1.4-3.4-1.8-4.2-1-2.4c2.2,6,4.3,11.9,5.7,18c0.7,3.1,1.3,6.2,1.8,9.2c0.7,3.6-0.6-6.7-0.2-1.3
				c0.2,1.8,0.3,3.6,0.5,5.5c0.4,6.6,0.1,13.2-0.6,19.7c14.4-6,28.9-12,43.3-17.9c-33.3-32-65.7-65.6-101.6-94.8
				c-36.1-29.4-75.9-52.4-120.4-66.9c-24.6-8-49.9-12.7-75.6-15.2c0,16.9,0,33.8,0,50.8c11.7-0.7,23.5-0.6,35.2,0.1
				c5.2,0.3,10.5,0.8,15.7,1.4c1.5,0.2,3.1,0.2,4.6,0.6c-0.7-0.2-5.9-0.9-1.2-0.2c3.1,0.5,6.1,0.9,9.2,1.4c22.7,3.9,45,9.8,66.8,17
				c11.3,3.7,22.5,7.7,33.5,12c5,1.9,9.9,3.8,14.8,5.8c2.6,1,5.2,2.1,7.8,3.2c1.1,0.4,2.2,0.9,3.3,1.3c1,0.4,2.1,0.9,3.1,1.3
				c-1-0.4-2-0.8-3-1.3c9.4,4.4,18.9,8.3,27.9,13.5c4.3,2.5,8.5,5.1,12.6,8c0.2,0.2,0.4,0.3,0.7,0.5c2.2,1.6,1.8,1.3-1.2-1
				c0.3,0,2.5,2.1,2.6,2.1c2.1,1.8,4.2,3.6,6.1,5.6c1.9,1.8,3.5,3.8,5.3,5.8c3.6,4-2.6-3.7-0.6-0.8c0.9,1.3,1.8,2.6,2.7,3.9
				c1.4,2.2,2.7,4.5,3.9,6.8c0.3,0.7,1.1,3.2,1.7,3.5c-0.4-1.1-0.9-2.1-1.3-3.2c0.4,1,0.8,1.9,1.1,2.9c0.9,2.4,1.6,4.9,2.2,7.4
				c0.2,1,0.4,2,0.6,3c1.1,5.1-0.3-5.5-0.1-0.7c0.1,2.6,0,5.1,0,7.6c0,5.3,1-4.8,0.3-1.4c-0.4,1.8-0.7,3.5-1.2,5.3
				c8.2-6.2,16.3-12.4,24.5-18.6c-19.1,1.2-32.4,13.8-38.2,31.6c-2.1,6.4-2.4,13.2-2.9,19.9c-0.1,1.3-0.2,2.6-0.3,3.9
				c-0.2,3.2,1.2-5.8,0.2-1.4c-0.3,1.1-1.2,3.2-1.2,4.3c0.5-1.1,0.9-2.2,1.4-3.4c-1.4,2.2-0.9,1.8,1.4-1.5
				c8.2-2.2,16.5-4.4,24.7-6.5c-76.3-31.5-161.5-28.7-242.5-29c-88.1-0.3-176.2-0.6-264.3-0.9c-49.3-0.2-99.3-1.5-147.5,10.3
				c10.4,5.9,20.8,11.8,31.2,17.7c-0.8-2.1-1.5-4.3-2.1-6.5c-0.4-1.4-0.6-2.7-0.9-4.1c-0.9-3.3,0.4,5.2,0.2,1.8
				c-0.4-5.1-0.3-9.9,0-15c0.2-3.5-0.9,5.2-0.2,1.7c0.2-1.1,0.4-2.2,0.6-3.3c0.5-2.5,1.1-5,1.8-7.5c1.3-4.7,2.7-10.6,5.2-14.9
				c-0.3,0.5-2.4,5.3-0.4,1.2c0.5-1.1,1-2.2,1.5-3.2c1-2.2,2.1-4.3,3.2-6.4c2.4-4.7,5-9.4,7.7-14c5.1-8.7,10.4-17.4,15.9-25.9
				c2.8-4.3,5.7-8.5,8.7-12.6c0.7-1,1.4-1.9,2.1-2.9c2-2.8-2.9,3.6-0.7,0.9c1.9-2.3,3.8-4.6,5.7-6.9c3.3-3.8,6.7-7.4,10.3-10.8
				c1-0.9,10.4-10.1,11.1-9.6c0.1,0-5.2,3.8-1.3,1c0.9-0.6,1.8-1.3,2.6-1.9c1.8-1.3,3.6-2.5,5.4-3.7c4.1-2.7,8.3-5.2,12.6-7.5
				c3.8-2.1,7.7-4,11.7-5.9c1-0.5,2-0.9,3-1.3c5.1-2.3-4.2,1.7-0.8,0.3c2.3-0.9,4.6-1.8,6.9-2.7c9-3.3,18.2-6.1,27.5-8.4
				c10.1-2.5,21.2-5.5,31.6-6c-0.7,0-5.8,0.7-1.1,0.1c1.3-0.2,2.5-0.3,3.8-0.5c2.5-0.3,5.1-0.6,7.6-0.8c5.7-0.6,11.4-1,17.2-1.4
				c10.8-0.7,21.7-1.2,32.5-1.5c5.4-0.2,10.9-0.3,16.3-0.5c1.3,0,2.6-0.1,3.8-0.1c0.3,0,0.6,0,1,0c2.1,0.1,2,0-0.4-0.3
				c-0.6-0.1-1.3-0.2-1.9-0.3c-15.4-12.7-18.7-23.5-9.8-32.6c-0.8,0.4-3.6,4-0.5,0.7c2.5-2.6,0.8-0.8-0.5-0.1
				c-1.1,0.6-2.2,1.1-3.2,1.6c-2.3,1.1-5.3,1.9-7.4,3.4c0.6-0.4,5.3-2.1,1.1-0.5c-1.1,0.4-2.2,0.9-3.4,1.3c-2.8,1.1-5.6,2.1-8.5,3.1
				c-19.3,6.7-39.2,11.7-58.5,18.5c-45.1,15.8-88.1,37.7-127,65.6c-8.9,6.4-15.3,17.3-11.7,28.7c3.7,11.4,12.8,17.5,24.5,18.6
				c35.1,3.3,70.4-0.2,105.4-2.6c17.4-1.2,34.9-2.2,52.4-1.9c8.6,0.1,17.2,0.6,25.7,1.5c0.9,0.1,1.8,0.2,2.6,0.3
				c4.6,0.5-0.9-0.1-1.5-0.2c2,0.4,4.1,0.6,6.1,0.9c4.4,0.7,8.7,1.6,13,2.6c4,1,8,2.1,12,3.3c2,0.6,4,1.3,5.9,2
				c0.8,0.3,1.7,0.6,2.5,0.9c4.8,1.7-3.8-2-1.3-0.6c1.4,0.8,2.9,1.6,4.3,2.4c3.4,2.1-4.1-4.1-0.5,0c1.8,2-2.2-2.9-2-2.6
				c-0.1-0.3-1.9-6.3-1.2-2.7c-1.1-5.5-0.5-10.3,3.1-14.8c-0.5,0.6-2.7,2.2,0.2,0c3.2-2.3,0.1-0.2-0.7,0.4c-1.7,1.2-3.4,2.3-5.1,3.4
				c-3.6,2.4-7.3,4.8-11,7.2c-7.2,4.5-14.4,8.9-21.8,13.1c-14.8,8.4-29.9,16.1-45.4,23c-1.6,0.7-3.2,1.4-4.8,2.1
				c-0.7,0.3-7,3-3.4,1.5c3.6-1.6-2.6,1-3.5,1.4c-2.2,0.9-4.3,1.7-6.5,2.6c-7.9,3.1-15.9,6-23.9,8.7c-18,6.1-36.4,11.2-55,15.2
				c-4.7,1-9.4,1.9-14.2,2.7c-4.6,0.8,0.7-0.1,1.4-0.1c-1.2,0-2.4,0.3-3.6,0.4c-2.7,0.3-5.4,0.5-8.1,0.6c-2.4,0.1-4.8,0.1-7.1,0
				c-0.9,0-1.8-0.1-2.7-0.1c-0.9-0.1-6.1-0.6-1.9-0.1c3.6,0.4,0.6,0.1-0.1-0.1c-1.4-0.3-2.9-0.6-4.3-1c-2.6-0.7-5.1-1.5-7.6-2.5
				c0,16.3,0,32.6,0,48.9c34.4-13.9,69.9-24.9,106.2-32.6c8.8-1.9,17.7-3.6,26.6-5.1c4.9-0.8,9.8-1.6,14.8-2.3
				c1.8-0.3,3.7-0.6,5.6-0.8c-7.4,0.9,1.1-0.1,2.5-0.3c18.6-2.2,37.2-3.6,55.9-4.2c-2.2-16.6-4.5-33.2-6.7-49.8
				c-3.2,0.5-6.4,1-9.7,1.5c-1.3,0.2-2.6,0.4-3.9,0.6c-5,0.7,3.2-0.4,0,0c-5.8,0.7-11.6,1.4-17.5,1.9c-12.3,1.2-24.7,1.9-37.1,2.3
				c-24.4,0.7-48.9-0.3-73.2-2.9c6,14.4,12,28.9,17.9,43.3c-1.9,1.5-3.6,2.7-0.6,0.5c1.1-0.8,2.2-1.5,3.4-2.3
				c2.1-1.3,4.2-2.5,6.3-3.6c1.1-0.6,2.7-1,3.6-1.8c-0.9,0.7-4.8,1.8-1.6,0.7c2.6-0.9,5.1-1.8,7.7-2.5c2.3-0.6,4.7-1.2,7.1-1.6
				c2.1-0.4,5.2,0.1-1.1,0.1c1.1,0,2.2-0.2,3.2-0.3c5.4-0.4,10.8-0.2,16.2,0.4c-4.3-15.8-8.5-31.5-12.8-47.3c-3,1.4-6.1,2.8-9.2,4.1
				c-1.7,0.7-1.1,0.5,1.9-0.8c-0.8,0.3-1.7,0.7-2.5,1c-1.4,0.6-2.8,1.1-4.2,1.7c-6.2,2.4-12.6,4.6-18.9,6.6
				c-12.8,4-25.8,7.2-38.9,9.6c-3,0.5-6,1-9,1.5c-1.2,0.2-2.4,0.4-3.6,0.5c1-0.1,2.1-0.3,3.1-0.4c-1.7,0-3.7,0.5-5.4,0.6
				c-6.6,0.7-13.3,1.2-20,1.5c-5.9,0.3-11.8,0.4-17.8,0.2c-4.7-0.1,1.6,0.7,2.2,0.4c-1,0.4-2.6-0.9-3.7-0.9c3.9,1.8,5,2.3,3.3,1.3
				c-1.7-1-0.8-0.2,2.7,2.3c-3-2.8,3.2,5.4,1.3,1.3c-3,11.6-6.1,23.1-9.1,34.7c4.6-3.4,9.3-6.5,14.4-9.2c2.3-1.2,4.6-2.3,6.9-3.4
				c2.8-1.4-5,1.8-0.5,0.2c1.3-0.5,2.7-1,4-1.5c5.1-1.8,10.4-3.2,15.7-4.2c1.4-0.3,2.8-0.5,4.2-0.7c3.3-0.6-6.6,0.6-0.8,0.2
				c2.8-0.2,5.7-0.4,8.5-0.5c-2.2-16.6-4.5-33.2-6.7-49.8c-2.3,0.8-4.6,1.5-7,2.1c-1,0.3-2.1,0.5-3.2,0.7c-0.8,0.2-4.7,0.8-0.6,0.2
				c4.3-0.7-0.5,0-1.4,0c-1.1,0.1-2.2,0.1-3.2,0.1c-2.4,0-4.8-0.2-7.3-0.3c-3.3-0.1,5.2,1,1.9,0.3c-1-0.2-2.1-0.4-3.2-0.6
				c-2.4-0.5-4.7-1.1-7-1.9c-0.9-0.3-2.1-1-3-1.1c1.1,0.1,4.7,2.2,1.6,0.7c-2.4-1.2-4.8-2.5-7.1-3.9c0,14.6,0,29.2,0,43.8
				c1.5-0.8,3.1-1.6,4.6-2.3c0.5-0.2,1-0.5,1.6-0.7c2.5-1.1,2.1-1-1.3,0.5c1.4-1.4,6.2-2.3,8.1-3c6.6-2.2,13.3-3.8,20.1-5.1
				c2.8-0.5,5.7-1,8.6-1.4c6.1-1-5.9,0.6,0.2,0c1.7-0.2,3.5-0.4,5.2-0.6c6.7-0.7,13.3-1.2,20-1.7c29.9-2,59.9-3.4,89.9-4.4
				c59.8-2,119.6-2.5,179.4-2.5c33.9,0,67.8,0.3,101.7,0.5c-7.3-4.2-14.6-8.4-21.9-12.6c-0.6-1.3-1.2-2.7-1.8-4c0-4.5,0-9,0-13.5
				c0.8-1.4,1.7-2.7,2.5-4.1c1-2.8,2.9-5,5.5-6.4c-0.7,0.4-3.2,1.7,0.5-0.1c3.5-1.8,1-0.5-0.1-0.3c-1.3,0.2-2.5,0.6-3.8,0.9
				c-4.7,1.2-9.5,2.3-14.2,3.5c-8.8,2.1-17.7,4.1-26.6,6.1c-18.1,4-36.2,7.7-54.4,11.2c-36.7,7-73.5,13.1-110.4,18.9
				c-20.9,3.3-41.7,6.4-62.6,9.6c-5.6,0.8-12.6,6.8-15.2,11.7c-2.7,5.1-3.8,10.4-3,16.2c1.7,12.4,12.2,22,24.9,22
				c104.6,0.4,209.2,1.6,313.8,1.2c28.2-0.1,57.6-1.7,84.1-12.3c11.9-4.8,20-14.4,18.2-27.8c-1.6-11.8-12.3-22.8-24.9-22
				c-8.5,0.5-17,0.5-25.5-0.1c-2-0.1-3.9-0.3-5.9-0.5c-1.1-0.1-2.2-0.3-3.3-0.4c-2.8-0.3,2.6,0.3,2.6,0.4c-0.5-0.7-4.7-0.7-5.8-0.9
				c-2.5-0.4-5-0.9-7.5-1.4c-16.5-3.3-32.5-8.2-48.4-13.7c-32.5-11.3-64.1-25.3-97.2-34.8c-37.6-10.9-77-14.3-116-15.9
				c-39.2-1.6-78.4-2.8-117.6-3.4c-44.5-0.7-89-0.2-133.3,2.9c-13.2,0.9-26,11-25.4,25.4c0.6,13,11.2,26.4,25.4,25.4
				c78.7-5.5,157.7-2.7,236.5,0c19.2,0.7,38.4,1.5,57.6,3.3c4.5,0.4,8.9,0.9,13.4,1.5c0.6,0.1,3.9,0.5,0.4,0
				c-3.7-0.5,0.5,0.1,1.4,0.2c2.5,0.4,5.1,0.8,7.6,1.2c9.2,1.6,18.4,3.5,27.5,5.8c33.4,8.7,65,22.4,97.4,34.2
				c37.1,13.5,76.4,24.2,116.2,21.7c-2.2-16.6-4.5-33.2-6.7-49.8c-5.6,2.2-11.3,4.1-17.1,5.6c-2.3,0.6-4.7,1.1-7,1.6
				c-1.8,0.4-3.5,0.7-5.3,1c-1.7,0.3-7.1,1.8-0.4,0.2c-5.1,1.2-11,1.2-16.2,1.5c-6.1,0.4-12.1,0.5-18.2,0.6
				c-25.4,0.3-50.8-0.1-76.2-0.2c-52-0.2-104-0.4-156-0.6c-29.3-0.1-58.7-0.2-88-0.4c2.2,16.6,4.5,33.2,6.7,49.8
				c79.9-12.1,159.9-24.1,238.8-42.1c11.1-2.5,22.1-5.1,33.1-8c20.3-5.3,35.3-25.5,23.8-46c-4.4-7.8-13.1-12.5-21.9-12.6
				c-122.2-0.8-244.6-1.7-366.6,6.1c-33.4,2.1-66.9,5.7-97,21.5c-17.4,9.2-15.5,34.2,0,43.8c23,14.2,52.9,18,78.5,8.9
				c12-4.2,19.9-14.8,18.2-27.8c-1.6-12.1-12.2-22.4-24.9-22c-27.7,0.8-55.6,9.5-78,26.2c-5.2,3.9-10.1,8.4-11.7,15.2
				c-1.6,7-0.5,13.1,2.6,19.6c8.3,17.7,29.2,21,46.6,20.8c16.9-0.3,33.7-2,50.3-4.7c31.7-5,62.2-15,91.3-28.6
				c9.7-4.5,14.9-18.8,11.7-28.7c-1.4-4.2-3.6-8-6.5-11.2c-4.8-5.2-11.3-6.6-17.9-7.4c-29.2-3.5-57.6,7.2-80.1,25.3
				c-7.8,6.3-8.8,19.3-5.2,27.7c4.2,9.9,12.8,14.5,23.2,15.6c51.7,5.4,103.6,3.2,154.8-5.2c5.7-0.9,12.6-6.7,15.2-11.7
				c2.7-5.1,3.8-10.4,3-16.2c-1.6-12-12.2-22.4-24.9-22c-77,2.5-153.6,18.2-225,47.2c-10.1,4.1-19.2,12.5-18.6,24.5
				c0.5,12,7.7,20.3,18.6,24.5c20.9,8.1,43.9,6.1,65.4,2.2c18.2-3.3,36.2-8.2,53.8-13.7c36.7-11.4,72.4-26.7,106-45.3
				c16.6-9.2,33.3-19,48.4-30.6c12.2-9.4,19.1-24.3,14.6-39.8c-3.5-11.8-13.3-21.3-24.2-26.6c-19.5-9.4-41.4-13.2-62.7-15.7
				c-18.7-2.1-37.5-2.1-56.3-1.2c-43,1.9-86,8-129,4c4.3,15.8,8.5,31.5,12.8,47.3c18.3-13.1,37.5-25,57.4-35.5
				c10-5.2,20.1-10.1,30.4-14.6c1-0.4,2.2-1.1,3.3-1.4c-5.9,1.9-1.9,0.8-0.3,0.2c2.5-1,4.9-2,7.4-3c5.5-2.2,11.1-4.2,16.7-6.2
				c21.6-7.6,43.9-12.9,65.3-20.9c12.5-4.7,26.5-9.5,36.5-18.7c6.6-6,11.7-15.7,11.3-24.8c-0.6-13.2-8.9-24.8-21.8-28.6
				c-6.8-2-13.6-1.5-20.5-1.3c-6.4,0.2-12.8,0.4-19.2,0.6c-11.8,0.4-23.6,1-35.4,2c-24.7,2.1-49.6,5.5-73.4,12.4
				c-21.4,6.2-42.6,15-61.3,27c-21.2,13.6-38.3,30.7-53.3,50.8c-14.7,19.8-28.4,41.8-38.5,64.3c-12,26.7-19.8,57-9.3,85.7
				c4.9,13.2,16.9,21.2,31.2,17.7c4.9-1.2,9.9-2.3,14.9-3.2c2.5-0.5,5-0.9,7.5-1.3c1.3-0.2,2.5-0.4,3.8-0.6c4.9-0.8-3.4,0.4-0.1,0
				c10.5-1.2,20.9-2.1,31.4-2.6c20.8-1,41.7-0.8,62.6-0.8c43.5,0.2,87.1,0.3,130.6,0.5c43.2,0.2,86.4,0.3,129.6,0.5
				c41,0.1,82-0.5,122.9,1.8c10.8,0.6,21.7,1.5,32.5,2.6c2.7,0.3,5.4,0.6,8.1,0.9c4.6,0.5-0.7-0.1-1.4-0.2c1.8,0.3,3.6,0.5,5.3,0.8
				c5.3,0.8,10.6,1.7,15.9,2.7c21.8,4.1,43.1,10.1,63.6,18.6c7.5,3.1,19.6-0.3,24.7-6.5c5.1-6.3,9.1-12.4,11.1-20.4
				c1.6-6.4,2-13.2,2.5-19.8c0.1-1,0.2-2.1,0.3-3.1c0.1-3.1-1.6,6.6-0.2,2.2c0.3-0.8,0.5-1.7,0.7-2.5c0.9-4-2.4,4.2-0.9,1.8
				c0.4-0.6,0.9-1.5,1.2-2.2c1-2.6-4.2,4.5-1.3,1.8c2.4-2.3-2,1.6-2.4,1.8c-4.2,1.5-5.3,2-3.4,1.4c2-0.5,0.7-0.4-3.8,0.5
				c11.2-0.7,21.4-7.4,24.5-18.6c6.8-25.1,0.6-52.8-14.5-73.8c-14.9-20.7-35.4-35.5-58.3-46.4c-22.5-10.7-46-19.8-69.4-28.1
				c-23.5-8.4-47.4-15.5-71.9-20.4c-28.8-5.8-58.4-8.9-87.9-7.2c-13.2,0.8-26,11.1-25.4,25.4c0.7,14.9,11.2,24,25.4,25.4
				c2.6,0.3,5.2,0.5,7.8,0.8c1,0.1,4.8,0.6,0.9,0.1c-4.5-0.6,1.3,0.2,1.8,0.3c5.2,0.8,10.3,1.7,15.4,2.7c10,2,19.8,4.5,29.5,7.4
				c9.7,2.9,19.3,6.3,28.7,10.1c0.4,0.2,5.7,2.5,1.8,0.7c-3.4-1.6,0.1,0.1,1,0.4c2.4,1.1,4.8,2.1,7.1,3.2c4.7,2.2,9.4,4.5,14,7
				c9.2,4.9,18.2,10.2,26.9,16c4.1,2.7,8.1,5.5,12,8.3c2.2,1.6,4.4,3.3,6.6,4.9c2.8,2.1-3.5-2.8-0.8-0.6c1.4,1.1,2.9,2.3,4.3,3.4
				c17,13.6,33,28.5,48.8,43.5c18.6,17.8,37.1,35.7,55.7,53.5c7.4,7.1,18.2,9.2,27.7,5.2c10-4.2,14.4-12.8,15.6-23.2
				c6.2-52.6-22.7-106-62.2-139.1c-42.3-35.4-94.7-54-147.2-68.6c-31.6-8.8-63.6-16-95.8-21.8c0,16.3,0,32.6,0,48.9
				c9.1-2.7,18.3-4.9,27.6-6.4c0.9-0.1,1.8-0.3,2.7-0.4c4.7-0.7-0.8,0-1.3,0.2c2-0.8,5.1-0.6,7.3-0.8c4.6-0.4,9.1-0.7,13.7-0.8
				c9.5-0.3,19-0.1,28.4,0.7c4.2,0.3,8.7,1.4,12.8,1.3c-5.3,0.2-3.1-0.4-1.3-0.2c1.2,0.2,2.4,0.4,3.6,0.6c2.4,0.4,4.8,0.8,7.3,1.3
				c18.4,3.4,36.5,8.6,54.1,15.2c3.9,1.5,7.8,3,11.6,4.6c1.3,0.5,4.5,1.6-1.1-0.5c1.1,0.4,2.2,0.9,3.3,1.4c2.2,1,4.4,1.9,6.5,2.9
				c8.1,3.7,16.2,7.7,24.1,11.8c18.5,9.7,36.4,20.6,53.9,32.1c10.6,6.9,25.4,3,32.7-6.5c8.1-10.4,6.4-23.6-2-33.3
				c-16.1-18.8-36-34.7-57.8-46.6c-11.2-6.1-24.9-3.6-32.7,6.5c-8.2,10.6-6.1,23.4,2,33.3c1.1,1.3,2.1,2.6,3.2,4
				c2.9,3.6-2.2-3-0.3-0.4c1.9,2.5,3.7,5,5.5,7.5c3.6,5.1,7.1,10.3,10.4,15.6c6.4,10.4,12.3,21.1,17.4,32.1c1.3,2.8,2.4,5.8,3.8,8.5
				c-1.3-2.3-1.6-4-0.3-0.6c0.5,1.3,1.1,2.6,1.6,4c2.3,5.8,4.4,11.7,6.3,17.6c3.8,11.9,6.9,24,9.3,36.2
				c2.5,13.1,18.9,21.7,31.2,17.7C990.7,983.4,997.2,970.7,994.5,956.7L994.5,956.7z"/>
		</g>
	</g>
	<g class="st1">
		<g>
			<path class="st2" d="M463.5,919.8c-0.5,1.2-1,2.5-1.5,3.7c-2.8,3.4-3.4,4.1-1.6,2.2c-5.5,4.8-2.8,2-0.9,0.9
				c2.7-1.6,4.3-0.5-1.2,0.3c1.2-0.2,2.6-0.9,3.8-1.3c7-2.2,14.2-4.1,21.3-5.9c13.4-3.4,27-6.3,40.6-8.6c5.8-1,12.9-3.1,18.8-2.9
				c-6.8-0.2-1.9,0.3,0.1,0c1.7-0.2,3.4-0.4,5.2-0.6c4-0.5,8-0.9,12.1-1.2c13.8-1.3,27.6-2,41.5-2.3c13.9-0.2,27.7,0,41.5,0.8
				c6.9,0.4,13.8,0.9,20.7,1.6c2.9,0.3,5.7,0.6,8.6,0.9c3.6,0.4,8.7,0.1,12,1.4c-1.1-0.1-2.2-0.3-3.3-0.4c1.1,0.2,2.3,0.3,3.4,0.5
				c1.7,0.2,3.4,0.5,5.1,0.8c3.4,0.5,6.8,1.1,10.3,1.7c6.8,1.2,13.6,2.5,20.4,3.9c13.6,2.9,27,6.2,40.3,10.1
				c15,4.3,29.7,9.3,44.3,14.9c3.8,1.5,7.5,2.9,11.3,4.5c1.4,0.6,6.9,2.3,0.3,0.1c2.2,0.7,4.3,1.8,6.4,2.8c7.4,3.3,14.7,6.7,22,10.3
				c4.3-15.8,8.5-31.5,12.8-47.3c-26.8,0.8-53.7-0.5-80.4-3.4c-3.4-0.4-6.7-0.8-10.1-1.2c-1.2-0.2-2.4-0.3-3.7-0.5
				c-6.4-0.8,5.8,0.8-0.6-0.1c-6.7-1-13.4-2-20.1-3.1c-13.4-2.2-26.8-4.8-40.1-7.6c-52.5-11-104.1-25.4-156.1-38.5
				c-29.6-7.5-59.3-14.5-89.3-20.2c2,15.5,4,30.9,6.1,46.4c0.6-0.3,3.4-1.6,0.3-0.1c-3.3,1.6,0.3-0.1,1.1-0.4c1.7-0.6,3.4-1.2,5-1.8
				c3.9-1.4,7.9-2.6,12-3.6c7.8-2.1,15.7-3.7,23.7-5c2.1-0.3,4.2-0.7,6.2-1c0.9-0.1,1.8-0.2,2.7-0.4c0,0-5.2,0.7-2.3,0.3
				c4.2-0.5,8.4-1,12.5-1.5c8.4-0.9,16.8-1.8,25.3-2.7c35.1-3.6,70.3-6.8,105.6-6.5c10.1,0.1,20.2,0.5,30.2,1.3
				c4.9,0.4,9.7,0.8,14.6,1.4c1,0.1,1.9,0.2,2.9,0.3c0.7,0.1,5,0.6,1.5,0.2c-3.6-0.5,0.6,0.1,1.5,0.2c1.6,0.2,3.2,0.5,4.8,0.8
				c2.2-16.6,4.5-33.2,6.7-49.8c-51.2-1.8-102.5-3.5-153.7-5.3c-13.3-0.5-26,12-25.4,25.4c0.6,14.1,11.1,24.9,25.4,25.4
				c51.2,1.8,102.5,3.5,153.7,5.3c12.6,0.4,23.3-10,24.9-22c1.5-11.3-5.7-25.8-18.2-27.8c-38.1-6.1-76.4-7-114.9-4.6
				c-37.4,2.3-75.1,5.8-112.2,11.4c-20.8,3.1-40.3,8.5-59.6,16.9c-9.1,4-13.3,16.4-12.1,25.3c1.2,9.3,8.4,19.2,18.2,21.1
				c108.6,20.7,213.3,58,323.3,71.7c30,3.8,60.2,5.5,90.5,4.6c10.8-0.3,22-7.6,24.5-18.6c2.4-10.5-1.4-23.6-11.7-28.7
				c-54.3-26.9-112.5-45.4-172.4-54c-62.3-8.9-124.7-8.4-186.8,2.2c-16.2,2.8-32.3,6.3-48.2,10.5c-8.8,2.4-17.4,4.8-25.8,8.5
				c-4.6,2-8.8,4.9-12.5,8.3c-5.2,4.8-7.8,10.5-10.5,16.9c-2.3,5.6-0.4,14.5,2.6,19.6c3.1,5.3,9.1,10.3,15.2,11.7
				c6.5,1.5,13.8,1.2,19.6-2.6C457.8,931.1,460.8,926.2,463.5,919.8L463.5,919.8z"/>
		</g>
	</g>
	<g class="st1">
		<g>
			<path class="st2" d="M505.8,755.8c-50.9,14.7-100.2,36.3-145.3,64c-24,14.7-45.6,31.8-60.6,56c-14.1,22.8-23.3,49.6-29.7,75.5
				c-7.5,30.3-10.9,61.9-9.9,93.1c0.4,13.3,11.4,26,25.4,25.4c13.4-0.6,25.8-11.2,25.4-25.4c-0.4-13-0.1-26,1.1-38.9
				c0.2-2.8,0.5-5.5,0.9-8.3c0.2-1.7,1.1-6-0.1,0.3c0.2-1.2,0.3-2.5,0.5-3.7c1-6.7,2.2-13.4,3.7-20.1c2.6-12.1,5.9-24,10-35.7
				c2-5.7,4.5-11.2,6.4-16.9c-2,6-0.9,2.2-0.2,0.6c0.6-1.3,1.2-2.6,1.8-3.9c1.4-3.1,3-6.1,4.6-9.1c2.4-4.5,5.1-8.8,8-13
				c0.9-1.4,4.6-5.2,0.1-0.3c0.8-0.8,1.4-1.8,2.1-2.6c2.2-2.7,4.6-5.2,7.1-7.6c2.1-2,4.2-4,6.5-5.9c0.9-0.8,1.8-1.5,2.7-2.2
				c4.6-3.9-4.5,3.2,0.4-0.3c4.8-3.4,9.6-6.7,14.6-9.9c20.8-13.2,42.6-24.9,65-35.1c3.3-1.5,6.6-3,9.9-4.4c1.1-0.5,2.2-1,3.3-1.4
				c5.2-2.3-4.2,1.7,0.6-0.2c6.7-2.7,13.4-5.4,20.2-7.9c13-4.8,26.2-9.1,39.5-13c12.7-3.7,22-18.1,17.7-31.2
				C532.9,760.6,519.5,751.8,505.8,755.8L505.8,755.8z"/>
		</g>
	</g>
	<g class="st1">
		<g>
			<path class="st2" d="M463.5,765.4c-96.1,13.4-176.8,88.3-199.4,182.3c-6.4,26.7-8.7,54.7-5.7,82.1c0.8,6.9,2.3,12.8,7.4,17.9
				c4.4,4.4,11.6,7.7,17.9,7.4c12.5-0.6,26.9-11.2,25.4-25.4c-1.2-10.9-1.6-21.9-1.2-32.9c0.2-5.5,0.7-11,1.3-16.4
				c0.2-2.4,1.4-2.4-0.3,1.8c0.5-1.1,0.4-2.8,0.6-4.1c0.5-3,1-6,1.6-8.9c2.2-10.8,5.1-21.4,8.9-31.7c0.8-2.3,1.7-4.6,2.6-6.9
				c0.6-1.6,2.6-5.1-0.3,0.7c0.5-1,0.9-2,1.3-3c2.5-5.5,5.2-10.9,8.1-16.2c2.4-4.3,4.9-8.6,7.6-12.7c1.5-2.3,3-4.6,4.6-6.8
				c0.6-0.9,1.3-1.8,1.9-2.7c0.6-0.9,1.3-1.8,2-2.7c1.3-1.7,1.3-1.8,0,0c-0.3,0.4-0.7,0.9-1,1.3c0.6-0.8,1.3-1.6,2-2.5
				c0.7-0.8,1.3-1.6,2-2.4c1.7-2,3.4-4,5.2-5.9c3.5-3.9,7.2-7.6,11-11.3c3.8-3.6,7.7-7.1,11.8-10.4c0.8-0.7,1.6-1.3,2.4-2
				c4.3-3.6-4.7,3.4-0.2,0.1c2.1-1.6,4.2-3.1,6.4-4.6c8.6-6,17.6-11.4,26.9-16.2c2.8-1.4,5.6-2.8,8.5-4.1c1-0.4,1.9-0.9,2.9-1.3
				c5.2-2.3-5.5,2.2-0.3,0.1c5.4-2.1,10.8-4.1,16.3-5.8c11.5-3.6,23.3-6.2,35.2-7.9c5.8-0.8,12.3-6.8,15.2-11.7
				c3.2-5.4,4.5-13.5,2.6-19.6c-2-6.1-5.8-12.1-11.7-15.2C476.6,764.6,470.7,764.4,463.5,765.4L463.5,765.4z"/>
		</g>
	</g>
	<g class="st1">
		<g>
			<path class="st3" d="M619.4,447.9c-32.4-2-64.4-1.6-94.2,12.6c-24,11.5-43.1,32.6-56.6,55.1c-13.7,22.8-22.6,48.7-28.5,74.6
				c-7.3,31.5-10.8,64.2-9.8,96.5c1,31.8,7.9,67.1,33.2,89c6,5.2,12.8,8.7,20.9,8.7c7.3,0,15.9-3.2,20.9-8.7
				c10.2-11.1,12.5-31,0-41.9c-1.7-1.5-3.3-3-4.8-4.6c-0.7-0.7-1.3-1.5-1.9-2.2c-2.1-2.3,4.4,6.4,1.6,1.9c-2.4-3.7-4.5-7.5-6.3-11.5
				c1,2.4,2,4.7,3,7.1c-3.7-8.8-5.8-18.1-7.1-27.6c0.4,2.6,0.7,5.2,1.1,7.9c-3.1-24.8-1.7-50.3,1.6-75c-0.4,2.6-0.7,5.2-1.1,7.9
				c3.6-26.2,9.7-52.3,20-76.7c-1,2.4-2,4.7-3,7.1c3.1-7.3,6.6-14.4,10.6-21.3c2-3.4,4.1-6.7,6.3-9.9c1.1-1.6,2.3-3.1,3.4-4.7
				c-5.4,7.7-2,2.7-0.5,0.9c2.3-2.7,4.8-5.4,7.3-7.9c1.4-1.3,2.8-2.6,4.2-3.9c1.8-1.6,7.5-5.4-0.5,0.1c6.4-4.4,12.6-8.4,19.8-11.5
				c-2.4,1-4.7,2-7.1,3c8.2-3.3,16.6-5.4,25.3-6.6c-2.6,0.4-5.2,0.7-7.9,1.1c16.6-2.1,33.3-1.2,50-0.2c15.5,1,30.3-14.3,29.6-29.6
				C648.3,460.7,636,448.9,619.4,447.9L619.4,447.9z"/>
		</g>
	</g>
	<g class="st1">
		<g>
			<path class="st3" d="M476.3,724.8c-56.5,20.3-111.5,47.7-158.8,84.9c-21.6,17-41.2,38.4-52.6,63.7
				c-13.1,29.2-17.2,60.5-17.8,92.2c-0.7,34.8,0.5,69.7,2,104.5c0.6,15.5,13.2,30.3,29.6,29.6c15.5-0.7,30.3-13,29.6-29.6
				c-1-24.4-1.7-48.8-1.9-73.2c-0.2-22.2-0.5-44.5,2.4-66.6c-0.4,2.6-0.7,5.2-1.1,7.9c1.9-13.9,5.2-27.5,10.6-40.4
				c-1,2.4-2,4.7-3,7.1c3.3-7.5,7.2-14.7,11.9-21.5c1.2-1.7,2.6-3.4,3.7-5.2c-5.2,7.8-1.1,1.5,0.4-0.2c2.4-2.8,4.9-5.6,7.6-8.3
				c5.6-5.8,11.7-11.1,17.9-16.2c0.8-0.7,1.7-1.4,2.5-2c-3.9,3-4.6,3.5-2.1,1.7c1.7-1.3,3.5-2.6,5.2-3.9c3.3-2.4,6.6-4.7,10-6.9
				c30.2-20.3,62.6-37.4,96-51.6c-2.4,1-4.7,2-7.1,3c10.1-4.3,20.3-8.2,30.6-11.9c7.4-2.6,13.6-6.7,17.7-13.6
				c3.7-6.3,5.3-15.7,3-22.8C508.1,731.2,491.9,719.2,476.3,724.8L476.3,724.8z"/>
		</g>
	</g>
	<g class="st1">
		<g>
			<path class="st2" d="M371.8,959.6c0,27.8,0,55.6,0,83.3c0,13.3,11.7,26,25.4,25.4c13.7-0.6,25.4-11.2,25.4-25.4
				c0-27.8,0-55.6,0-83.3c0-13.3-11.7-26-25.4-25.4C383.5,934.9,371.8,945.4,371.8,959.6L371.8,959.6z"/>
		</g>
	</g>
	<g class="st1">
		<g>
			<path class="st4" d="M779.8,534.7c3.9,6.5,7.2,13.1,10.4,19.9c1.2,2.5-1.1-2.7-1-2.5c0.3,1,0.8,1.9,1.2,2.9
				c0.7,1.7,1.3,3.4,1.9,5.1c1.3,3.6,2.5,7.3,3.6,11.1c2,7,3.6,14,4.8,21.2c0.3,1.9,0.7,8.9,0.2,0.9c0.1,1.5,0.4,3.1,0.5,4.6
				c0.4,3.9,0.6,7.7,0.8,11.6c0.3,7.5,0.1,15-0.5,22.5c-0.1,1.8-0.3,3.6-0.5,5.4c-0.6,5.8,0.7-4.4,0,0.2c-0.6,3.8-1.3,7.7-2.1,11.5
				c-1.6,7.3-3.5,14.6-6,21.7c-1.2,3.4-2.7,6.7-3.8,10.2c-0.1,0.2,2.2-5,1-2.5c-0.3,0.7-0.6,1.4-0.9,2.1c-0.9,1.9-1.7,3.8-2.7,5.6
				c-3.9,7.9-8.4,15.4-13.5,22.6c-0.5,0.7-1,1.4-1.5,2.1c-2.7,3.8,2.2-2.7,0.2-0.3c-1.5,1.8-2.9,3.6-4.5,5.4
				c-3.3,3.7-6.8,7.2-10.4,10.6c-9.9,9-9.8,26.9,0,35.9c10.5,9.7,25.4,9.5,35.9,0c53.6-48.7,70.8-130.3,53.6-198.8
				c-4.8-19.1-12.6-37.7-22.8-54.6c-6.9-11.4-23.1-16.6-34.7-9.1C777.5,507.4,772.4,522.6,779.8,534.7L779.8,534.7z"/>
		</g>
	</g>
	<g class="st1">
		<g>
			<path class="st4" d="M815.4,781.1c15.2-0.2,30.5,0.3,45.7,1.8c1.8,0.2,3.6,0.4,5.4,0.6c1.7,0.2,7.3,0,0.5,0
				c3.5,0,7.4,1.1,10.8,1.7c7.8,1.4,15.5,3.1,23.1,5.2c7,1.9,14,4.1,20.8,6.7c1.1,0.4,2.3,0.9,3.4,1.3c1.9,0.8,6.3,3.7,0.2,0
				c3,1.8,6.7,3,9.9,4.5c5.6,2.8,11,5.8,16.3,9c2.6,1.6,5.2,3.3,7.8,5.1c1.3,0.9,2.5,1.8,3.8,2.7c0.8,0.6,1.7,1.2,2.5,1.8
				c2.1,1.6,1.7,1.2-1.4-1.1c1.5,2.2,5.1,4.1,7.1,5.9c2.3,2,4.6,4.1,6.8,6.3c2.2,2.2,4.3,4.4,6.4,6.7c2.1,2.3,4.4,6.5,7,8.2
				c-3.7-2.4-2.5-3.3-0.7-0.9c0.8,1,1.5,2.1,2.2,3.1c1.8,2.5,3.5,5.1,5.1,7.7c1.6,2.6,3.1,5.3,4.6,8.1c0.8,1.5,1.6,3,2.3,4.6
				c0.5,1.1,1,2.2,1.5,3.2c1.1,2.6,1,2.2-0.5-1.1c1.8,2.8,2.7,6.9,3.7,10c1.1,3.4,2.2,6.8,3.1,10.2c2.1,7.5,3.7,15.1,5,22.7
				c0.6,3.5,1.1,7.1,1.7,10.6c0.9,6.2-0.7-5.9,0,0.4c0.2,1.8,0.4,3.6,0.6,5.4c0.8,7.4,1.5,14.8,2.1,22.1
				c3.1,36.7,4.2,73.5,3.4,110.3c-0.3,13.3,11.9,26,25.4,25.4c14-0.6,25.1-11.1,25.4-25.4c0.7-33.8-0.2-67.7-2.7-101.5
				c-2.5-32.8-5.2-66.8-16.6-98c-10.6-29-27.8-54.9-51.2-75.1c-23.5-20.3-50.7-35-80.2-44.6c-35.3-11.5-73.3-15.1-110.3-14.6
				c-13.3,0.2-26,11.6-25.4,25.4C790.6,769.3,801.1,781.3,815.4,781.1L815.4,781.1z"/>
		</g>
	</g>
	<g class="st1">
		<g>
			<path class="st2" d="M890.4,945.6c-0.6-1.5-1.6-4-0.5-1.1c0.6,1.4,1.1,2.8,1.6,4.2c0.9,2.2,1.7,4.5,2.4,6.8
				c1.7,5.1,3.3,10.3,4.6,15.5c2.7,10.2,4.7,20.6,6.2,31c0.2,1.2,0.2,2.5,0.5,3.6c-0.4-1.5-0.6-4.7-0.2-1.3c0.3,2.7,0.7,5.4,1,8.1
				c0.6,5.1,1.1,10.3,1.5,15.4c0.9,10.9,1.6,21.8,2.3,32.7c0.8,13.2,11.1,26,25.4,25.4c13.1-0.6,26.3-11.2,25.4-25.4
				c-1.5-24.1-3.3-48.1-6.9-72c-3.6-23.9-10.1-46.5-19.6-68.6c-2.3-5.4-9.7-10.2-15.2-11.7c-6.1-1.7-14.2-0.9-19.6,2.6
				c-5.4,3.5-10.2,8.7-11.7,15.2C886.2,933.1,887.5,939,890.4,945.6L890.4,945.6z"/>
		</g>
	</g>
	<g class="st1">
		<g>
			<path class="st4" d="M717.4,604.4c-16.4,0-32.8,0-49.2,0c-10.9,0-10.9,16.9,0,16.9c16.4,0,32.8,0,49.2,0
				C728.3,621.4,728.3,604.4,717.4,604.4L717.4,604.4z"/>
		</g>
	</g>
	<g class="st1">
		<g>
			<path class="st4" d="M603.5,605.9c-17.4,0-34.8,0-52.2,0c-10.9,0-10.9,16.9,0,16.9c17.4,0,34.8,0,52.2,0
				C614.4,622.8,614.4,605.9,603.5,605.9L603.5,605.9z"/>
		</g>
	</g>
	<g class="st1">
		<g>
			<path class="st4" d="M699.4,621.7c0,3.7,0,7.3,0,11c0,4.4,3.9,8.7,8.5,8.5c4.6-0.2,8.5-3.7,8.5-8.5c0-3.7,0-7.3,0-11
				c0-4.4-3.9-8.7-8.5-8.5C703.3,613.5,699.4,617,699.4,621.7L699.4,621.7z"/>
		</g>
	</g>
	<g class="st1">
		<g>
			<path class="st4" d="M580.4,618.8c-0.3,5,0.1,9.8,1,14.7c0.7,4.4,6.4,7.2,10.4,5.9c4.7-1.5,6.7-5.7,5.9-10.4
				c-0.5-3,0.1,1.4-0.2-1.6c-0.1-1-0.2-1.9-0.2-2.9c-0.1-1.9,0-3.9,0.1-5.8c0.3-4.4-4.1-8.7-8.5-8.5
				C584,610.5,580.6,614,580.4,618.8L580.4,618.8z"/>
		</g>
	</g>
	<g class="st1">
		<g>
			<path class="st4" d="M670.7,719.1c4.8-4.9,12.5-7.3,19-4.4c4.2,1.9,9.1,1.2,11.6-3c2.1-3.6,1.2-9.7-3-11.6c-13.5-6-29-3.8-39.5,7
				C651.2,715,663.1,727,670.7,719.1L670.7,719.1z"/>
		</g>
	</g>
	<g class="st1">
		<g>
			<path class="st5" d="M266.8,1042c-7.3-58-15.5-122.4,15.1-175.5c25-43.5,72-61.8,117.7-75.6c26.4-8,53.1-14.9,78.7-25.2
				c6.1-2.4,8.2-9,3.7-14.1c-35.5-41.1-49.6-99.7-36.9-152.5c12.1-50.3,48.3-93.1,94.8-115.2c28.1-13.3,59.5-17.2,90.3-17.7
				c16.7-0.3,33.5,0.1,50.2,0.9c16.5,0.8,33,2.4,49,6.7c48.8,13.2,89.6,52.8,104.8,101.1c15.7,50,2.2,107.4-32.9,146.2
				c-4.5,5-9.4,9.7-14.6,14.1c-5.9,5-0.9,14.3,6,14.4c55.8,1.5,115.1,7.1,164.4,35.5c25,14.4,45.7,34.8,60.2,59.8
				c15.5,26.6,24.2,56.8,28.5,87.2c5.6,40.1,3.6,80.9,1.8,121.3c-0.5,10.9,16.4,10.9,16.9,0c3.1-70,5.4-143.6-27.5-207.7
				c-14.3-27.9-35.2-51.6-61.3-68.9c-24.4-16.2-52.6-26.5-81.1-33c-33.4-7.6-67.8-10.2-102-11.1c2,4.8,4,9.6,6,14.4
				c44.3-37.7,65.9-98.7,56.7-155.9c-8.8-55.1-48.6-104-99.6-125.9c-31.7-13.6-66-15.1-100.1-15.9c-35.1-0.7-71.2,0.3-104.7,11.9
				c-53.5,18.5-97.1,61.6-116.6,114.7c-20.4,55.6-11.3,121.1,22,169.8c4.2,6.2,8.8,12.1,13.6,17.7c1.2-4.7,2.5-9.4,3.7-14.1
				c-47.2,18.9-98.7,26.5-144,50.3c-22.8,12-42.8,28.5-57.3,49.9c-16.2,24-24.4,52.5-27.7,81c-4.3,37.1,0.4,74.6,5.1,111.4
				c0.6,4.5,3.5,8.5,8.5,8.5C262.4,1050.5,267.3,1046.6,266.8,1042L266.8,1042z"/>
		</g>
	</g>
	<g class="st1">
		<g>
			<path class="st5" d="M377.8,956.9c-0.6,28.1-0.5,56.2,0.5,84.2c0.4,10.9,17.3,10.9,16.9,0c-1-28.1-1.2-56.2-0.5-84.2
				C395,946,378,946,377.8,956.9L377.8,956.9z"/>
		</g>
	</g>
	<g class="st1">
		<g>
			<path class="st5" d="M916.6,928.6c21.3,31.5,31,70.6,25.4,108.4c-0.7,4.5,1.1,9.1,5.9,10.4c4,1.1,9.7-1.4,10.4-5.9
				c6.2-42.3-3.1-85.9-27.1-121.5C925.2,911.1,910.5,919.6,916.6,928.6L916.6,928.6z"/>
		</g>
	</g>
	<g class="st1">
		<g>
			<g>
				<path class="st6" d="M751,442c5.4,9.4,10.6,19.7,4,30c-5.5,8.6-14.7,15.5-23,21.2c-4.4,3.1-0.2,10.4,4.3,7.3
					c10.2-7,21.9-15.7,27.6-27c6.3-12.4,0.8-24.7-5.5-35.7C755.7,433,748.3,437.3,751,442L751,442z"/>
			</g>
		</g>
		<g>
			<g>
				<path class="st6" d="M771.2,439.1c0.3,10.2,1.2,21.5,8.4,29.4c8.1,9,22.9,9.7,34.1,12c5.3,1.1,7.6-7.1,2.2-8.2
					c-5.1-1.1-10.3-2.1-15.4-3.2c-4.9-1-10.2-2.1-13.9-5.6c-6.4-6-6.7-16.3-6.9-24.4C779.5,433.7,771,433.7,771.2,439.1L771.2,439.1
					z"/>
			</g>
		</g>
		<g>
			<g>
				<path class="st6" d="M817.8,489.2c-10.5-6.6-23.1-4.2-33.9,0.5c-10.3,4.4-22.4,12.3-20.7,25.2c0.7,5.3,9.2,5.4,8.5,0
					c-1.3-10,9.4-15.1,17.2-18.2c8-3.2,17-5,24.6-0.2C818.1,499.4,822.4,492,817.8,489.2L817.8,489.2z"/>
			</g>
		</g>
	</g>
</g>
</svg>
