<?xml version="1.0" encoding="utf-8"?>
<!-- Generator: Adobe Illustrator 23.0.3, SVG Export Plug-In . SVG Version: 6.00 Build 0)  -->
<svg version="1.1" id="Calque_1" xmlns="http://www.w3.org/2000/svg" xmlns:xlink="http://www.w3.org/1999/xlink" x="0px" y="0px"
	 viewBox="0 0 1280 1024" style="enable-background:new 0 0 1280 1024;" xml:space="preserve">
<style type="text/css">
	.st0{fill:#F9EAE0;}
	.st1{fill:#F6C2DB;}
	.st2{fill:#CAE7F0;}
	.st3{fill:#FDFDFF;}
	.st4{fill:#FDE8CF;}
	.st5{fill:#D7AD75;}
	.st6{fill:#B7D7A5;}
	.st7{fill:#E7EFD4;}
	.st8{fill:#86B46A;}
	.st9{fill:#C9A481;}
	.st10{fill:#F2CCA9;}
	.st11{fill:#FBE9F3;}
	.st12{fill:#C8AE93;}
	.st13{fill:#EF8CB3;}
	.st14{fill:#F9D4E5;}
	.st15{fill:#D56B96;}
	.st16{fill:#DBA26A;}
	.st17{fill:#F2D5B7;}
	.st18{fill:none;stroke:#8E6B42;stroke-width:7.1245;stroke-miterlimit:10;}
	.st19{fill:#8E6B42;}
	.st20{fill:#F197BF;}
	.st21{fill:#FBE5F0;}
	.st22{fill:#EC82AD;}
	.st23{fill:none;}
	.st24{font-family:'Montserrat-Black';}
	.st25{font-size:45px;}
</style>
<rect x="-94.1" y="-6.9" class="st0" width="1474.1" height="1042.9"/>
<path class="st1" d="M430.2,744c-34.3-44.1-54.7-99.6-54.7-159.7c0-143.8,116.6-260.4,260.5-260.4s260.4,116.6,260.4,260.4
	c0,61.5-21.4,118.1-57.1,162.7"/>
<path class="st2" d="M718.9,335.7c15.7-12.8,31.6-7,44.2,7.7c2.7,3.2,4.6,5.2,8.9,6c5.5,1,9.9,4.8,13.9,8.8
	c2.8,7.2-1.3,14.7,1.2,21.9c3.9,11.4-2.5,20.7-14.9,20.8c-17.8,0.2-35.6-0.1-53.3-0.1C718.9,379.1,718.9,357.4,718.9,335.7z"/>
<path class="st3" d="M718.9,335.7c0,21.7,0,43.3-0.1,65.1c-19.5,0-39,0-58.5,0.1c-13.3-7.3-14.5-15.5-3.9-26.9
	c1.6-1.7,2.5-3.7,3.2-5.7c3.5-9.5,10.5-14.1,20.5-14c4.3,0.1,7.2-1,10-4.5c5.2-6.7,12.7-8.3,20.9-8.3
	C715.6,342.1,715.2,336.1,718.9,335.7z"/>
<g>
	<path class="st3" d="M533,432.8c-12.7-8.3-14.5-14.7-7.9-28c1.6-1,3.1-1.9,3.7-3.9c0.7-8.7,2.3-17,9.5-23
		c8.9-2.1,15.8-5.8,20.7-14.8c5.4-10.1,16.3-12.3,27.5-10.5c0,26.6,0.1,53.3,0.1,79.9C568.7,432.6,550.8,432.8,533,432.8z"/>
	<path class="st2" d="M586.5,432.5c0-26.6-0.1-53.3-0.1-79.9c7.5,0.1,12.1,5.2,17,9.8c0.6,0.6,1.1,1.2,1.6,1.8l-0.1-0.1
		c2.3,3.6,1.4,9.4,7.4,10.3c7.8,0.3,13.8,4,18.6,9.9c1.1,3.4,2.8,6.6,2.5,10.3c-0.2,3.6,1.3,5.1,4.8,4.5c4,0.5,6.9,3.2,10.1,5.2
		c0.1,1.4,0.4,2.7,1.8,3.4l-0.1-0.1c0.2,2.8,0.6,5.6,0.6,8.3c0,9.9-6.1,16.6-15.8,16.7C618.8,432.9,602.7,432.6,586.5,432.5z"/>
	<path class="st3" d="M462.4,400.8c-10.9-5.5-12.3-10.2-6.1-20.9c1.2-2.1,1.2-4.1,1.6-6.3c0.6-3.5,1.1-8.1,4.5-9.4
		c8.6-3.2,13.8-9.7,19.7-16c3.8-4,9.8-6.4,15.9-2.8c-0.1,18.3-0.2,36.7-0.3,55C485.9,400.6,474.1,400.7,462.4,400.8z"/>
	<path class="st2" d="M497.6,400.5c0.1-18.3,0.2-36.7,0.3-55c0.6,0.1,1.1,0.1,1.7,0.1c8.4,1,9,10.3,14.2,13.5
		c5.2,3.2,13.5,3.2,15.4,10.1c1.5,5.5,2.3,9.4,9,8.6c-7.2,6-8.8,14.3-9.5,23C518.4,400.8,508,400.6,497.6,400.5z"/>
</g>
<path class="st4" d="M376.8,564.9h520c0,0,3.2,66-20.3,118.3H395.1C395.1,683.2,368.2,618.6,376.8,564.9z"/>
<g>
	<g>
		<g>
			<path class="st5" d="M435.4,585.3c-0.1-5-0.1-9.9-0.1-14.8c0-2.3-0.1-4.5-0.1-6.8c0-2.4-0.6-5.6-0.1-7.9
				c-0.7,0.7-1.4,1.4-2.1,2.1c1-0.3,2.7-0.1,3.8,0c-1-1-2-2-3-3c-0.1,9.9-0.3,19.8-0.4,29.8c-0.1,3.9,5.9,3.9,5.9,0
				c0.1-9.9,0.3-19.8,0.4-29.8c0-1.7-1.4-3-3-3c-1.8,0-3.6-0.3-5.4,0.3c-1,0.3-1.9,1.1-2.1,2.1c-1.1,4.5-0.1,10.2-0.1,14.9
				c0.1,5.4,0.1,10.8,0.1,16.2C429.5,589.2,435.4,589.2,435.4,585.3L435.4,585.3z"/>
		</g>
	</g>
	<g>
		<g>
			<path class="st6" d="M430.8,550.3c-1,0.2-7.3,1-5.7-1.4c0.7-1,0.5-2.8-0.5-3.6c-6.4-5.9-7.2-17.5-4.7-25.4
				c0.8-2.3,1.7-4.5,3.8-5.9c1.7-1.1,3.6-1.9,5.4-2.8c2-1,4.6-2.5,6.8-1c1.5,1,2.3,3.1,2.9,4.8c1.4,3.5,2.3,9,5.2,11.7
				c1.2,1.2,3.1,1.4,4.3,2.7c1.7,1.7,2.1,4.1,2.1,6.3c0.1,3.8-0.4,10.2-3.9,12.3c-4,2.5-9.7,3-14.3,3.2c-3.8,0.1-3.9,6.1,0,5.9
				c8.6-0.3,20.5-2,22.8-11.8c1-4.4,1.9-9.4,0.9-13.9c-0.5-1.9-1.3-3.9-2.5-5.4c-1.4-1.8-3.2-2.3-4.8-3.6c-1.6-1.4-2.3-4.8-3-6.8
				c-0.8-2.1-1.6-4.2-2.6-6.2c-1.9-3.6-5.2-6.1-9.4-5.9c-4.2,0.3-8.6,2.9-12.2,5c-4.1,2.3-6.2,6.4-7.4,10.8
				c-2.6,9.7-1.2,22.9,6.5,30c-0.1-1.2-0.3-2.4-0.5-3.6c-1.9,2.7-1.2,6.3,1.1,8.5c3,3,7.5,2.5,11.3,1.7
				C436.1,555.2,434.6,549.5,430.8,550.3L430.8,550.3z"/>
		</g>
	</g>
	<g>
		<g>
			<path class="st6" d="M436.4,550.2c-2.9,0.6-5.6-0.8-7-3.4c-1.1,1.4-2.2,2.9-3.4,4.3c5,2,10.2,2.8,15.6,2.2c3-0.3,4.4-5.2,0.8-5.9
				c-3.1-0.6-6.2-1-9.3-1.6c-2.4-0.4-7.4-0.3-6-4.1c0.9-2.5,3.8-3.7,6.2-2.3c1,0.6,1.2,2.1,1.7,0.6c-0.6-0.5-0.7-1.1-0.3-1.7
				c0.3-0.3,0.7-0.3,1.1-0.3c1.4,0.1,1,0.8,1,1.9c-0.6,0.4-0.6,0.8,0,1c0.4,0.6,0.9,0.6,1.6,0.1c0.7-0.1,1.3,0,1.9,0.3
				c0.8,0.3,1.4,0.8,1.8,1.4c0.5-0.1,0.9-0.2,1.4-0.3c-0.8,0.3-1.4,0.8-2,1.4c-1.9,1.2-5.2,2.5-7.4,1.3c-1.1-0.6-1.9-1.9-1.9-3.2
				c0.1-0.9,0.4-1.7,1.1-2.3c1.7-0.6,1.7-1,0-1c-0.3-0.7-0.6-1.4-0.9-2.1c-0.5-0.6-1-1.1-1.7-1.5c-0.6-0.6-0.9-1.4-0.9-2.3
				c-0.1-1.3,0.8-2.6,1.7-3.5c1.9-1.9,4.6-2.3,7.1-2.3c2.1,0,4.8,0.3,6.6,1.6c1.7,1.2,2.8,3.9,0.4,5.1c1.4,0.3,2.7,0.7,4.1,1
				c-0.5-1.2-1.1-1.1-1.9,0.3c-0.7-0.3-1.4-0.6-2.1-0.9c1.5,1.5,1.5,6.1,1.4,8.3c0,1.2,0.1,3.4-1,4.1c-1.4,1-1.7-0.5-1.9-1.7
				c-0.3-2.3-0.6-4.8-0.3-7.1c0.1-1,0.3-2,0.6-3c0.3-0.8,1.9-2.7,1-2.9c-0.6-0.5-1.2-0.9-1.8-1.4c0.1,0.1,0.1,0.3,0.2,0.4
				c0.1-1.2,0.3-2.4,0.5-3.6c-2.3,2.2-4.1-2.3-4.3-3.9c-1.7,0.7-3.4,1.4-5.1,2.1c3.4,3.7-2.9,8.5-6.5,6.2c-1.2-0.8-2.2-3-0.6-3.9
				c2.1-1.1,1.7,2.5,1.5,3.4c0.3,0.6,0.3,0.5,0.1-0.2c-0.2-0.7-0.3-1.4-0.3-2.1c0.1-0.5,0.1-1,0.2-1.5c-0.8,0.3-1.7,0.6-2.5,0.8
				c-0.3,0.4-0.2,2-0.3,2.6c-0.2,0.8-0.4,1.7-0.8,2.5c-0.8,1.8-2,2.5-3.4,3.7c0.3,0.1,0.6,0.2,0.8,0.3c-0.2-0.3-0.3-0.7-0.6-1
				c0-0.8-0.4-2.8,1.2-2.2c3.7,1.2,5-4.3,1.6-5.7c-1.1-0.5-1.4-4.3-1.4-5.1c-0.1-1.4,0.1-4.7,2.2-5c1.4-0.1,2.8,1.9,2.3,3.1
				c-0.4,1-1.8,0.7-1.2-0.2c-0.3,0.5,0.7,1.2,0.1,1.9c0.7-0.3,1.4-0.6,2.1-0.9c-0.2,0-0.4,0-0.7,0c0.7,0.3,1.4,0.6,2.1,0.9
				c-1-1-0.6-2.3-0.9-3.3c-0.2-0.7,0-1.6-0.6,0.3c1.9,0.3,3.9,0.6,5.9,0.8c0.1-2,0.3-5.4,2.1-6.9c0.1-0.3,0.3-0.5,0.4-0.8
				c0.4,0.6,0.8,1.1,0.9,1.8c0.1,0.3,0.1,0.6,0.2,0.8c1.1-0.8,1.7-1.9,1.5-3.2c-1.9,0.3-3.9,0.6-5.9,0.8c0.2,0.7,1.2,5,0.8,5.2
				c0.8-0.1,1.5-0.2,2.3-0.3c-2.2-0.5-2.7-5.6-2.7-7.2c-1.2,1-2.5,1.9-3.8,2.9c0.4,0.1-1.4-2.8-1.4-2.8c-0.8-2.5-4-2.9-5.4-0.7
				c-3.7,5.7-8.1,13.2-8.7,20.1c-0.6,6.8,5,9.2,10.7,9.9c-0.8-1.5-1.7-3-2.5-4.5c-3.2,4.3-3.2,9.6-3,14.7c1.7-0.7,3.4-1.4,5.1-2.1
				c-6.9-5.7-6.8-14.9-6.7-23.2c0.1-3.9-5.9-3.9-5.9,0c-0.1,9.8,0.3,20.6,8.5,27.4c1.9,1.5,5.2,0.7,5.1-2.1
				c-0.2-4.1-0.3-8.2,2.2-11.6c1.5-2-0.6-4.3-2.5-4.5c-1.7-0.2-4.1-0.4-4.7-2.3c-0.6-1.8,0.7-4.5,1.3-6.1c1.7-4.5,3.9-8.6,6.4-12.6
				c-1.8-0.2-3.7-0.5-5.4-0.7c1.4,4.3,5.9,8.1,10.4,5.2c3.9-2.5,2.9-8.8-1.7-9.7c-1.9-0.4-3.8,0.8-3.8,2.9c0,4.3,1.9,12.7,7.4,13
				c6,0.3,5-8.8,3.9-12.3c-1-3.2-5.7-2.5-5.9,0.8c-0.2,3.9,1.4,8.8,6.3,8.2c4.7-0.6,4.5-5.6,3.1-9c-1.7-3.7-5.6-6-9.3-3.4
				s-5.1,8.1-5.2,12.4c-0.1,3.4,5,4,5.9,0.8c1.1-4-0.7-9.2-5.7-9c-4.7,0.3-6.1,5.7-5.4,9.6c0.6,3.4,4.4,8.6,7.9,4.5
				c2.6-3.2,1.2-9.2-2.1-11.3c-9.2-5.7-12.3,13.8-2.3,13.5c9.5-0.3,8.5-15.9-0.4-16.6c-11.2-0.9-11.9,18.1-3.3,21.7
				c0.6-1.9,1-3.8,1.6-5.7c-5-1.6-9.3,2.8-8.8,7.8s4.5,8.5,9.3,5.8c4.5-2.5,6.7-7.9,7-12.8c0.1-2.1-0.1-4.5-1.9-6
				c-1.9-1.5-4.6-1.4-6.2,0.6c-2.7,3.4-1.9,11.3,2.3,13.2c5.1,2.3,8.6-4.2,8.5-8.4c-0.1-4.9-4.6-8.1-9.2-6.7
				c-4.6,1.4-6.3,6.8-4.3,11c6.3,12.7,27.4-0.7,17.2-11.8c-1.7-1.8-5.4-0.5-5.1,2.1c0.4,3.7,1.7,7.4,5.2,9.4
				c3.1,1.7,6.8,1.2,9.3-1.2c1-0.9,1-2.5,0.5-3.6c-1.4-2.8-4.9-2.3-7-0.3c-2.5,2.4-3.8,5.8-4.2,9.2c-0.7,5.4-0.6,16.8,7.3,16.4
				c9.2-0.5,8.2-13.2,6.5-19.2c-0.8-2.9-2.8-6.1-6.3-4.5c-3.6,1.6-3,5.7-1,8.3c1,1.3,2.5,1.9,4.1,1c4.2-2.1,5.4-7.6,3.2-11.6
				c-2.6-4.8-8.7-6.3-13.8-6.1c-5.7,0.2-11.5,2.8-13.6,8.5c-1.8,5,0.8,10.8,6.1,12.2c4,1,10.8-3.2,6.6-7.4
				c-3.8-3.9-9.7,1.7-10.7,5.5c-3.4,12.5,15.9,15.5,21,5.9c2.1-4.1-1-10.2-6.1-9c-4.9,1.2-5.2,9.4-0.8,11.4c4.8,2.1,8.7-3.3,7-7.6
				c-1.9-4.8-8.1-6.7-12.5-4.8c-4.1,1.8-6.3,8.1-1.2,10.3c4.6,2,9-2.5,9-7c0-4.8-4.5-8-9.1-6.8c-4.8,1.2-6.8,6.6-4.1,10.8
				c2.7,4.1,11,4.8,11.4-1.4c0.5-5.7-6.9-9.4-11.6-8.6c-5.8,1-10,7.2-8.3,12.8c0.9,3,3.3,4.4,6.3,5c4.4,0.9,8.8,1.5,13.2,2.3
				c0.3-1.9,0.6-3.9,0.8-5.9c-4.9,0.6-9.4-0.1-14-2c-2.5-1-4.6,2.3-3.4,4.3c3,4.9,8.2,7.1,13.8,6.1
				C441.7,555.3,440.1,549.5,436.4,550.2L436.4,550.2z"/>
		</g>
	</g>
	<g>
		<g>
			<path class="st7" d="M434.3,503.4c-6.4,0.2-11.4,4.1-15.9,8.4c-1.9,1.9-3.8,4.1-4.5,6.7c-0.4,1.4-0.3,2.8-0.2,4.2
				c0.1,1.8-0.3,2.7-1,4.3c-1,2.1-1.9,4.2-1,6.5c0.3,1.1,1.7,2.1,1.9,3.2c0.1,1-1,2.5-1.2,3.6c-0.5,2.4,0.2,4.5,1.7,6.5
				c1.1,1.5,3.7,3.2,3.4,5.2c-0.2,1.6,1.5,3,3,3c1.2-0.1,2.7,2.8,3.8,3.6c1.6,1,3.2,1.2,4.9,0.7c3.7-1.2,2.1-6.9-1.6-5.7
				c-0.3,0.1-2.8-3-3.2-3.3c-1.2-0.9-2.4-1.2-3.9-1.2c1,1,2,2,3,3c0.2-1.9-0.4-3.5-1.4-5c-1-1.4-3-2.8-3.6-4.4
				c-0.6-1.9,1.1-4,1.2-5.9c0-0.8-0.1-1.7-0.4-2.4c-0.3-0.8-1.7-1.9-1.9-2.6c-0.2-1.3,1.9-4.1,2.3-5.5c0.6-2.5-0.6-4.8,0.7-7.1
				c1.2-2.2,3.6-4.1,5.4-5.6c2.5-2.1,5.4-3.9,8.8-4C438.1,509.2,438.1,503.3,434.3,503.4L434.3,503.4z"/>
		</g>
	</g>
	<g>
		<g>
			<path class="st8" d="M441.8,515c-0.7,1.9-0.7,3.9,0.2,5.7c0.4,0.9,1,1.7,1.7,2.3s1.9,1,2.5,1.6c0.6,0.7,0.6,1.9,0.8,2.8
				c0.4,1.2,1.1,2.3,1.8,3.4c0.9,1.4,3.4,4.2,1.5,5.8c-1.2,1-1.2,3.2,0,4.2c5.2,4.6-10.3,11.9-12.8,14.4c-2.6,2.8,1.6,7,4.2,4.2
				c1.9-2,4.5-2.8,6.7-4.3c2.5-1.7,4.4-3.9,6.3-6.1c3.1-3.9,4-8.8-0.1-12.5c0,1.4,0,2.8,0,4.2c3.8-3.3,2.3-8.4,0-12.1
				c-0.8-1.3-1.7-2.4-2.1-3.9c-0.3-1.1-0.3-2.1-0.9-3.1c-1.2-2-5-2.4-4-5.1C448.8,513,443,511.4,441.8,515L441.8,515z"/>
		</g>
	</g>
	<g>
		<g>
			<path class="st9" d="M435.7,562.7c0,7-0.2,13.9-0.5,20.9c-0.1,3.9,5.8,3.8,5.9,0c0.3-7,0.4-13.9,0.5-20.9
				C441.7,558.9,435.8,558.9,435.7,562.7L435.7,562.7z"/>
		</g>
	</g>
	<g>
		<g>
			<path class="st10" d="M427,560.7c-0.2,8.2-0.3,16.5-0.6,24.7c-0.1,3.9,5.9,3.9,5.9,0c0.2-8.2,0.3-16.5,0.6-24.7
				C433,556.9,427.1,556.9,427,560.7L427,560.7z"/>
		</g>
	</g>
</g>
<g>
	<g>
		<g>
			<path class="st5" d="M675.4,585.3c-0.1-5-0.1-9.9-0.1-14.8c0-2.3-0.1-4.5-0.1-6.8c0-2.4-0.6-5.6-0.1-7.9
				c-0.7,0.7-1.4,1.4-2.1,2.1c1-0.3,2.7-0.1,3.8,0c-1-1-2-2-3-3c-0.1,9.9-0.3,19.8-0.4,29.8c-0.1,3.9,5.9,3.9,5.9,0
				c0.1-9.9,0.3-19.8,0.4-29.8c0-1.7-1.4-3-3-3c-1.8,0-3.6-0.3-5.4,0.3c-1,0.3-1.9,1.1-2.1,2.1c-1.1,4.5-0.1,10.2-0.1,14.9
				c0.1,5.4,0.1,10.8,0.1,16.2C669.5,589.2,675.4,589.2,675.4,585.3L675.4,585.3z"/>
		</g>
	</g>
	<g>
		<g>
			<path class="st6" d="M670.9,550.3c-1,0.2-7.3,1-5.7-1.4c0.7-1,0.5-2.8-0.5-3.6c-6.4-5.9-7.2-17.5-4.7-25.4
				c0.8-2.3,1.7-4.5,3.8-5.9c1.7-1.1,3.6-1.9,5.4-2.8c2-1,4.6-2.5,6.8-1c1.5,1,2.3,3.1,2.9,4.8c1.4,3.5,2.3,9,5.2,11.7
				c1.2,1.2,3.1,1.4,4.3,2.7c1.7,1.7,2.1,4.1,2.1,6.3c0.1,3.8-0.4,10.2-3.9,12.3c-4,2.5-9.7,3-14.3,3.2c-3.8,0.1-3.9,6.1,0,5.9
				c8.6-0.3,20.5-2,22.8-11.8c1-4.4,1.9-9.4,0.9-13.9c-0.5-1.9-1.3-3.9-2.5-5.4c-1.4-1.8-3.2-2.3-4.8-3.6c-1.6-1.4-2.3-4.8-3-6.8
				c-0.8-2.1-1.6-4.2-2.6-6.2c-1.9-3.6-5.2-6.1-9.4-5.9c-4.2,0.3-8.6,2.9-12.2,5c-4.1,2.3-6.2,6.4-7.4,10.8
				c-2.6,9.7-1.2,22.9,6.5,30c-0.1-1.2-0.3-2.4-0.5-3.6c-1.9,2.7-1.2,6.3,1.1,8.5c3,3,7.5,2.5,11.3,1.7
				C676.2,555.2,674.6,549.5,670.9,550.3L670.9,550.3z"/>
		</g>
	</g>
	<g>
		<g>
			<path class="st6" d="M676.5,550.2c-2.9,0.6-5.6-0.8-7-3.4c-1.1,1.4-2.2,2.9-3.4,4.3c5,2,10.2,2.8,15.6,2.2c3-0.3,4.4-5.2,0.8-5.9
				c-3.1-0.6-6.2-1-9.3-1.6c-2.4-0.4-7.4-0.3-6-4.1c0.9-2.5,3.8-3.7,6.2-2.3c1,0.6,1.2,2.1,1.7,0.6c-0.6-0.5-0.7-1.1-0.3-1.7
				c0.3-0.3,0.7-0.3,1.1-0.3c1.4,0.1,1,0.8,1,1.9c-0.6,0.4-0.6,0.8,0,1c0.4,0.6,0.9,0.6,1.6,0.1c0.7-0.1,1.3,0,1.9,0.3
				c0.8,0.3,1.4,0.8,1.8,1.4c0.5-0.1,0.9-0.2,1.4-0.3c-0.8,0.3-1.4,0.8-2,1.4c-1.9,1.2-5.2,2.5-7.4,1.3c-1.1-0.6-1.9-1.9-1.9-3.2
				c0.1-0.9,0.4-1.7,1.1-2.3c1.7-0.6,1.7-1,0-1c-0.3-0.7-0.6-1.4-0.9-2.1c-0.5-0.6-1-1.1-1.7-1.5c-0.6-0.6-0.9-1.4-0.9-2.3
				c-0.1-1.3,0.8-2.6,1.7-3.5c1.9-1.9,4.6-2.3,7.1-2.3c2.1,0,4.8,0.3,6.6,1.6c1.7,1.2,2.8,3.9,0.4,5.1c1.4,0.3,2.7,0.7,4.1,1
				c-0.5-1.2-1.1-1.1-1.9,0.3c-0.7-0.3-1.4-0.6-2.1-0.9c1.5,1.5,1.5,6.1,1.4,8.3c0,1.2,0.1,3.4-1,4.1c-1.4,1-1.7-0.5-1.9-1.7
				c-0.3-2.3-0.6-4.8-0.3-7.1c0.1-1,0.3-2,0.6-3c0.3-0.8,1.9-2.7,1-2.9c-0.6-0.5-1.2-0.9-1.8-1.4c0.1,0.1,0.1,0.3,0.2,0.4
				c0.1-1.2,0.3-2.4,0.5-3.6c-2.3,2.2-4.1-2.3-4.3-3.9c-1.7,0.7-3.4,1.4-5.1,2.1c3.4,3.7-2.9,8.5-6.5,6.2c-1.2-0.8-2.2-3-0.6-3.9
				c2.1-1.1,1.7,2.5,1.5,3.4c0.3,0.6,0.3,0.5,0.1-0.2s-0.3-1.4-0.3-2.1c0.1-0.5,0.1-1,0.2-1.5c-0.8,0.3-1.7,0.6-2.5,0.8
				c-0.3,0.4-0.2,2-0.3,2.6c-0.2,0.8-0.4,1.7-0.8,2.5c-0.8,1.8-2,2.5-3.4,3.7c0.3,0.1,0.6,0.2,0.8,0.3c-0.2-0.3-0.3-0.7-0.6-1
				c0-0.8-0.4-2.8,1.2-2.2c3.7,1.2,5-4.3,1.6-5.7c-1.1-0.5-1.4-4.3-1.4-5.1c-0.1-1.4,0.1-4.7,2.2-5c1.4-0.1,2.8,1.9,2.3,3.1
				c-0.4,1-1.8,0.7-1.2-0.2c-0.3,0.5,0.7,1.2,0.1,1.9c0.7-0.3,1.4-0.6,2.1-0.9c-0.2,0-0.4,0-0.7,0c0.7,0.3,1.4,0.6,2.1,0.9
				c-1-1-0.6-2.3-0.9-3.3c-0.2-0.7,0-1.6-0.6,0.3c1.9,0.3,3.9,0.6,5.9,0.8c0.1-2,0.3-5.4,2.1-6.9c0.1-0.3,0.3-0.5,0.4-0.8
				c0.4,0.6,0.8,1.1,0.9,1.8c0.1,0.3,0.1,0.6,0.2,0.8c1.1-0.8,1.7-1.9,1.5-3.2c-1.9,0.3-3.9,0.6-5.9,0.8c0.2,0.7,1.2,5,0.8,5.2
				c0.8-0.1,1.5-0.2,2.3-0.3c-2.2-0.5-2.7-5.6-2.7-7.2c-1.2,1-2.5,1.9-3.8,2.9c0.4,0.1-1.4-2.8-1.4-2.8c-0.8-2.5-4-2.9-5.4-0.7
				c-3.7,5.7-8.1,13.2-8.7,20.1c-0.6,6.8,5,9.2,10.7,9.9c-0.8-1.5-1.7-3-2.5-4.5c-3.2,4.3-3.2,9.6-3,14.7c1.7-0.7,3.4-1.4,5.1-2.1
				c-6.9-5.7-6.8-14.9-6.7-23.2c0.1-3.9-5.9-3.9-5.9,0c-0.1,9.8,0.3,20.6,8.5,27.4c1.9,1.5,5.2,0.7,5.1-2.1
				c-0.2-4.1-0.3-8.2,2.2-11.6c1.5-2-0.6-4.3-2.5-4.5c-1.7-0.2-4.1-0.4-4.7-2.3c-0.6-1.8,0.7-4.5,1.3-6.1c1.7-4.5,3.9-8.6,6.4-12.6
				c-1.8-0.2-3.7-0.5-5.4-0.7c1.4,4.3,5.9,8.1,10.4,5.2c3.9-2.5,2.9-8.8-1.7-9.7c-1.9-0.4-3.8,0.8-3.8,2.9c0,4.3,1.9,12.7,7.4,13
				c6,0.3,5-8.8,3.9-12.3c-1-3.2-5.7-2.5-5.9,0.8c-0.2,3.9,1.4,8.8,6.3,8.2c4.7-0.6,4.5-5.6,3.1-9c-1.7-3.7-5.6-6-9.3-3.4
				s-5.1,8.1-5.2,12.4c-0.1,3.4,5,4,5.9,0.8c1.1-4-0.7-9.2-5.7-9c-4.7,0.3-6.1,5.7-5.4,9.6c0.6,3.4,4.4,8.6,7.9,4.5
				c2.6-3.2,1.2-9.2-2.1-11.3c-9.2-5.7-12.3,13.8-2.3,13.5c9.5-0.3,8.5-15.9-0.4-16.6c-11.2-0.9-11.9,18.1-3.3,21.7
				c0.6-1.9,1-3.8,1.6-5.7c-5-1.6-9.3,2.8-8.8,7.8s4.5,8.5,9.3,5.8c4.5-2.5,6.7-7.9,7-12.8c0.1-2.1-0.1-4.5-1.9-6
				c-1.9-1.5-4.6-1.4-6.2,0.6c-2.7,3.4-1.9,11.3,2.3,13.2c5.1,2.3,8.6-4.2,8.5-8.4c-0.1-4.9-4.6-8.1-9.2-6.7
				c-4.6,1.4-6.3,6.8-4.3,11c6.3,12.7,27.4-0.7,17.2-11.8c-1.7-1.8-5.4-0.5-5.1,2.1c0.4,3.7,1.7,7.4,5.2,9.4
				c3.1,1.7,6.8,1.2,9.3-1.2c1-0.9,1-2.5,0.5-3.6c-1.4-2.8-4.9-2.3-7-0.3c-2.5,2.4-3.8,5.8-4.2,9.2c-0.7,5.4-0.6,16.8,7.3,16.4
				c9.2-0.5,8.2-13.2,6.5-19.2c-0.8-2.9-2.8-6.1-6.3-4.5c-3.6,1.6-3,5.7-1,8.3c1,1.3,2.5,1.9,4.1,1c4.2-2.1,5.4-7.6,3.2-11.6
				c-2.6-4.8-8.7-6.3-13.8-6.1c-5.7,0.2-11.5,2.8-13.6,8.5c-1.8,5,0.8,10.8,6.1,12.2c4,1,10.8-3.2,6.6-7.4
				c-3.8-3.9-9.7,1.7-10.7,5.5c-3.4,12.5,15.9,15.5,21,5.9c2.1-4.1-1-10.2-6.1-9c-4.9,1.2-5.2,9.4-0.8,11.4c4.8,2.1,8.7-3.3,7-7.6
				c-1.9-4.8-8.1-6.7-12.5-4.8c-4.1,1.8-6.3,8.1-1.2,10.3c4.6,2,9-2.5,9-7c0-4.8-4.5-8-9.1-6.8c-4.8,1.2-6.8,6.6-4.1,10.8
				c2.7,4.1,11,4.8,11.4-1.4c0.5-5.7-6.9-9.4-11.6-8.6c-5.8,1-10,7.2-8.3,12.8c0.9,3,3.3,4.4,6.3,5c4.4,0.9,8.8,1.5,13.2,2.3
				c0.3-1.9,0.6-3.9,0.8-5.9c-4.9,0.6-9.4-0.1-14-2c-2.5-1-4.6,2.3-3.4,4.3c3,4.9,8.2,7.1,13.8,6.1
				C681.8,555.3,680.2,549.5,676.5,550.2L676.5,550.2z"/>
		</g>
	</g>
	<g>
		<g>
			<path class="st7" d="M674.3,503.4c-6.4,0.2-11.4,4.1-15.9,8.4c-1.9,1.9-3.8,4.1-4.5,6.7c-0.4,1.4-0.3,2.8-0.2,4.2
				c0.1,1.8-0.3,2.7-1,4.3c-1,2.1-1.9,4.2-1,6.5c0.3,1.1,1.7,2.1,1.9,3.2c0.1,1-1,2.5-1.2,3.6c-0.5,2.4,0.2,4.5,1.7,6.5
				c1.1,1.5,3.7,3.2,3.4,5.2c-0.2,1.6,1.5,3,3,3c1.2-0.1,2.7,2.8,3.8,3.6c1.6,1,3.2,1.2,4.9,0.7c3.7-1.2,2.1-6.9-1.6-5.7
				c-0.3,0.1-2.8-3-3.2-3.3c-1.2-0.9-2.4-1.2-3.9-1.2c1,1,2,2,3,3c0.2-1.9-0.4-3.5-1.4-5c-1-1.4-3-2.8-3.6-4.4
				c-0.6-1.9,1.1-4,1.2-5.9c0-0.8-0.1-1.7-0.4-2.4c-0.3-0.8-1.7-1.9-1.9-2.6c-0.2-1.3,1.9-4.1,2.3-5.5c0.6-2.5-0.6-4.8,0.7-7.1
				c1.2-2.2,3.6-4.1,5.4-5.6c2.5-2.1,5.4-3.9,8.8-4C678.1,509.2,678.1,503.3,674.3,503.4L674.3,503.4z"/>
		</g>
	</g>
	<g>
		<g>
			<path class="st8" d="M681.8,515c-0.7,1.9-0.7,3.9,0.2,5.7c0.4,0.9,1,1.7,1.7,2.3s1.9,1,2.5,1.6c0.6,0.7,0.6,1.9,0.8,2.8
				c0.4,1.2,1.1,2.3,1.8,3.4c0.9,1.4,3.4,4.2,1.5,5.8c-1.2,1-1.2,3.2,0,4.2c5.2,4.6-10.3,11.9-12.8,14.4c-2.6,2.8,1.6,7,4.2,4.2
				c1.9-2,4.5-2.8,6.7-4.3c2.5-1.7,4.4-3.9,6.3-6.1c3.1-3.9,4-8.8-0.1-12.5c0,1.4,0,2.8,0,4.2c3.8-3.3,2.3-8.4,0-12.1
				c-0.8-1.3-1.7-2.4-2.1-3.9c-0.3-1.1-0.3-2.1-0.9-3.1c-1.2-2-5-2.4-4-5.1C688.8,513,683.1,511.4,681.8,515L681.8,515z"/>
		</g>
	</g>
	<g>
		<g>
			<path class="st9" d="M675.8,562.7c0,7-0.2,13.9-0.5,20.9c-0.1,3.9,5.8,3.8,5.9,0c0.3-7,0.4-13.9,0.5-20.9
				C681.8,558.9,675.8,558.9,675.8,562.7L675.8,562.7z"/>
		</g>
	</g>
	<g>
		<g>
			<path class="st10" d="M667,560.7c-0.2,8.2-0.3,16.5-0.6,24.7c-0.1,3.9,5.9,3.9,5.9,0c0.2-8.2,0.3-16.5,0.6-24.7
				C673,556.9,667.1,556.9,667,560.7L667,560.7z"/>
		</g>
	</g>
</g>
<g>
	<g>
		<g>
			<path class="st5" d="M486.3,585.3c-0.1-5-0.1-9.9-0.1-14.8c0-2.3-0.1-4.5-0.1-6.8c0-2.4-0.6-5.6-0.1-7.9
				c-0.7,0.7-1.4,1.4-2.1,2.1c1-0.3,2.7-0.1,3.8,0c-1-1-2-2-3-3c-0.1,9.9-0.3,19.8-0.4,29.8c-0.1,3.9,5.9,3.9,5.9,0
				c0.1-9.9,0.3-19.8,0.4-29.8c0-1.7-1.4-3-3-3c-1.8,0-3.6-0.3-5.4,0.3c-1,0.3-1.9,1.1-2.1,2.1c-1.1,4.5-0.1,10.2-0.1,14.9
				c0.1,5.4,0.1,10.8,0.1,16.2C480.4,589.2,486.4,589.2,486.3,585.3L486.3,585.3z"/>
		</g>
	</g>
	<g>
		<g>
			<path class="st6" d="M481.8,550.3c-1,0.2-7.3,1-5.7-1.4c0.7-1,0.5-2.8-0.5-3.6c-6.4-5.9-7.2-17.5-4.7-25.4
				c0.8-2.3,1.7-4.5,3.8-5.9c1.7-1.1,3.6-1.9,5.4-2.8c2-1,4.6-2.5,6.8-1c1.5,1,2.3,3.1,2.9,4.8c1.4,3.5,2.3,9,5.2,11.7
				c1.2,1.2,3.1,1.4,4.3,2.7c1.7,1.7,2.1,4.1,2.1,6.3c0.1,3.8-0.4,10.2-3.9,12.3c-4,2.5-9.7,3-14.3,3.2c-3.8,0.1-3.9,6.1,0,5.9
				c8.6-0.3,20.5-2,22.8-11.8c1-4.4,1.9-9.4,0.9-13.9c-0.5-1.9-1.3-3.9-2.5-5.4c-1.4-1.8-3.2-2.3-4.8-3.6c-1.6-1.4-2.3-4.8-3-6.8
				c-0.8-2.1-1.6-4.2-2.6-6.2c-1.9-3.6-5.2-6.1-9.4-5.9c-4.2,0.3-8.6,2.9-12.2,5c-4.1,2.3-6.2,6.4-7.4,10.8
				c-2.6,9.7-1.2,22.9,6.5,30c-0.1-1.2-0.3-2.4-0.5-3.6c-1.9,2.7-1.2,6.3,1.1,8.5c3,3,7.5,2.5,11.3,1.7
				C487.1,555.2,485.6,549.5,481.8,550.3L481.8,550.3z"/>
		</g>
	</g>
	<g>
		<g>
			<path class="st6" d="M487.4,550.2c-2.9,0.6-5.6-0.8-7-3.4c-1.1,1.4-2.2,2.9-3.4,4.3c5,2,10.2,2.8,15.6,2.2c3-0.3,4.4-5.2,0.8-5.9
				c-3.1-0.6-6.2-1-9.3-1.6c-2.4-0.4-7.4-0.3-6-4.1c0.9-2.5,3.8-3.7,6.2-2.3c1,0.6,1.2,2.1,1.7,0.6c-0.6-0.5-0.7-1.1-0.3-1.7
				c0.3-0.3,0.7-0.3,1.1-0.3c1.4,0.1,1,0.8,1,1.9c-0.6,0.4-0.6,0.8,0,1c0.4,0.6,0.9,0.6,1.6,0.1c0.7-0.1,1.3,0,1.9,0.3
				c0.8,0.3,1.4,0.8,1.8,1.4c0.5-0.1,0.9-0.2,1.4-0.3c-0.8,0.3-1.4,0.8-2,1.4c-1.9,1.2-5.2,2.5-7.4,1.3c-1.1-0.6-1.9-1.9-1.9-3.2
				c0.1-0.9,0.4-1.7,1.1-2.3c1.7-0.6,1.7-1,0-1c-0.3-0.7-0.6-1.4-0.9-2.1c-0.5-0.6-1-1.1-1.7-1.5c-0.6-0.6-0.9-1.4-0.9-2.3
				c-0.1-1.3,0.8-2.6,1.7-3.5c1.9-1.9,4.6-2.3,7.1-2.3c2.1,0,4.8,0.3,6.6,1.6c1.7,1.2,2.8,3.9,0.4,5.1c1.4,0.3,2.7,0.7,4.1,1
				c-0.5-1.2-1.1-1.1-1.9,0.3c-0.7-0.3-1.4-0.6-2.1-0.9c1.5,1.5,1.5,6.1,1.4,8.3c0,1.2,0.1,3.4-1,4.1c-1.4,1-1.7-0.5-1.9-1.7
				c-0.3-2.3-0.6-4.8-0.3-7.1c0.1-1,0.3-2,0.6-3c0.3-0.8,1.9-2.7,1-2.9c-0.6-0.5-1.2-0.9-1.8-1.4c0.1,0.1,0.1,0.3,0.2,0.4
				c0.1-1.2,0.3-2.4,0.5-3.6c-2.3,2.2-4.1-2.3-4.3-3.9c-1.7,0.7-3.4,1.4-5.1,2.1c3.4,3.7-2.9,8.5-6.5,6.2c-1.2-0.8-2.2-3-0.6-3.9
				c2.1-1.1,1.7,2.5,1.5,3.4c0.3,0.6,0.3,0.5,0.1-0.2c-0.2-0.7-0.3-1.4-0.3-2.1c0.1-0.5,0.1-1,0.2-1.5c-0.8,0.3-1.7,0.6-2.5,0.8
				c-0.3,0.4-0.2,2-0.3,2.6c-0.2,0.8-0.4,1.7-0.8,2.5c-0.8,1.8-2,2.5-3.4,3.7c0.3,0.1,0.6,0.2,0.8,0.3c-0.2-0.3-0.3-0.7-0.6-1
				c0-0.8-0.4-2.8,1.2-2.2c3.7,1.2,5-4.3,1.6-5.7c-1.1-0.5-1.4-4.3-1.4-5.1c-0.1-1.4,0.1-4.7,2.2-5c1.4-0.1,2.8,1.9,2.3,3.1
				c-0.4,1-1.8,0.7-1.2-0.2c-0.3,0.5,0.7,1.2,0.1,1.9c0.7-0.3,1.4-0.6,2.1-0.9c-0.2,0-0.4,0-0.7,0c0.7,0.3,1.4,0.6,2.1,0.9
				c-1-1-0.6-2.3-0.9-3.3c-0.2-0.7,0-1.6-0.6,0.3c1.9,0.3,3.9,0.6,5.9,0.8c0.1-2,0.3-5.4,2.1-6.9c0.1-0.3,0.3-0.5,0.4-0.8
				c0.4,0.6,0.8,1.1,0.9,1.8c0.1,0.3,0.1,0.6,0.2,0.8c1.1-0.8,1.7-1.9,1.5-3.2c-1.9,0.3-3.9,0.6-5.9,0.8c0.2,0.7,1.2,5,0.8,5.2
				c0.8-0.1,1.5-0.2,2.3-0.3c-2.2-0.5-2.7-5.6-2.7-7.2c-1.2,1-2.5,1.9-3.8,2.9c0.4,0.1-1.4-2.8-1.4-2.8c-0.8-2.5-4-2.9-5.4-0.7
				c-3.7,5.7-8.1,13.2-8.7,20.1c-0.6,6.8,5,9.2,10.7,9.9c-0.8-1.5-1.7-3-2.5-4.5c-3.2,4.3-3.2,9.6-3,14.7c1.7-0.7,3.4-1.4,5.1-2.1
				c-6.9-5.7-6.8-14.9-6.7-23.2c0.1-3.9-5.9-3.9-5.9,0c-0.1,9.8,0.3,20.6,8.5,27.4c1.9,1.5,5.2,0.7,5.1-2.1
				c-0.2-4.1-0.3-8.2,2.2-11.6c1.5-2-0.6-4.3-2.5-4.5c-1.7-0.2-4.1-0.4-4.7-2.3c-0.6-1.8,0.7-4.5,1.3-6.1c1.7-4.5,3.9-8.6,6.4-12.6
				c-1.8-0.2-3.7-0.5-5.4-0.7c1.4,4.3,5.9,8.1,10.4,5.2c3.9-2.5,2.9-8.8-1.7-9.7c-1.9-0.4-3.8,0.8-3.8,2.9c0,4.3,1.9,12.7,7.4,13
				c6,0.3,5-8.8,3.9-12.3c-1-3.2-5.7-2.5-5.9,0.8c-0.2,3.9,1.4,8.8,6.3,8.2c4.7-0.6,4.5-5.6,3.1-9c-1.7-3.7-5.6-6-9.3-3.4
				c-3.7,2.6-5.1,8.1-5.2,12.4c-0.1,3.4,5,4,5.9,0.8c1.1-4-0.7-9.2-5.7-9c-4.7,0.3-6.1,5.7-5.4,9.6c0.6,3.4,4.4,8.6,7.9,4.5
				c2.6-3.2,1.2-9.2-2.1-11.3c-9.2-5.7-12.3,13.8-2.3,13.5c9.5-0.3,8.5-15.9-0.4-16.6c-11.2-0.9-11.9,18.1-3.3,21.7
				c0.6-1.9,1-3.8,1.6-5.7c-5-1.6-9.3,2.8-8.8,7.8s4.5,8.5,9.3,5.8c4.5-2.5,6.7-7.9,7-12.8c0.1-2.1-0.1-4.5-1.9-6
				c-1.9-1.5-4.6-1.4-6.2,0.6c-2.7,3.4-1.9,11.3,2.3,13.2c5.1,2.3,8.6-4.2,8.5-8.4c-0.1-4.9-4.6-8.1-9.2-6.7
				c-4.6,1.4-6.3,6.8-4.3,11c6.3,12.7,27.4-0.7,17.2-11.8c-1.7-1.8-5.4-0.5-5.1,2.1c0.4,3.7,1.7,7.4,5.2,9.4
				c3.1,1.7,6.8,1.2,9.3-1.2c1-0.9,1-2.5,0.5-3.6c-1.4-2.8-4.9-2.3-7-0.3c-2.5,2.4-3.8,5.8-4.2,9.2c-0.7,5.4-0.6,16.8,7.3,16.4
				c9.2-0.5,8.2-13.2,6.5-19.2c-0.8-2.9-2.8-6.1-6.3-4.5c-3.6,1.6-3,5.7-1,8.3c1,1.3,2.5,1.9,4.1,1c4.2-2.1,5.4-7.6,3.2-11.6
				c-2.6-4.8-8.7-6.3-13.8-6.1c-5.7,0.2-11.5,2.8-13.6,8.5c-1.8,5,0.8,10.8,6.1,12.2c4,1,10.8-3.2,6.6-7.4
				c-3.8-3.9-9.7,1.7-10.7,5.5c-3.4,12.5,15.9,15.5,21,5.9c2.1-4.1-1-10.2-6.1-9c-4.9,1.2-5.2,9.4-0.8,11.4c4.8,2.1,8.7-3.3,7-7.6
				c-1.9-4.8-8.1-6.7-12.5-4.8c-4.1,1.8-6.3,8.1-1.2,10.3c4.6,2,9-2.5,9-7c0-4.8-4.5-8-9.1-6.8c-4.8,1.2-6.8,6.6-4.1,10.8
				c2.7,4.1,11,4.8,11.4-1.4c0.5-5.7-6.9-9.4-11.6-8.6c-5.8,1-10,7.2-8.3,12.8c0.9,3,3.3,4.4,6.3,5c4.4,0.9,8.8,1.5,13.2,2.3
				c0.3-1.9,0.6-3.9,0.8-5.9c-4.9,0.6-9.4-0.1-14-2c-2.5-1-4.6,2.3-3.4,4.3c3,4.9,8.2,7.1,13.8,6.1
				C492.7,555.3,491.1,549.5,487.4,550.2L487.4,550.2z"/>
		</g>
	</g>
	<g>
		<g>
			<path class="st7" d="M485.2,503.4c-6.4,0.2-11.4,4.1-15.9,8.4c-1.9,1.9-3.8,4.1-4.5,6.7c-0.4,1.4-0.3,2.8-0.2,4.2
				c0.1,1.8-0.3,2.7-1,4.3c-1,2.1-1.9,4.2-1,6.5c0.3,1.1,1.7,2.1,1.9,3.2c0.1,1-1,2.5-1.2,3.6c-0.5,2.4,0.2,4.5,1.7,6.5
				c1.1,1.5,3.7,3.2,3.4,5.2c-0.2,1.6,1.5,3,3,3c1.2-0.1,2.7,2.8,3.8,3.6c1.6,1,3.2,1.2,4.9,0.7c3.7-1.2,2.1-6.9-1.6-5.7
				c-0.3,0.1-2.8-3-3.2-3.3c-1.2-0.9-2.4-1.2-3.9-1.2c1,1,2,2,3,3c0.2-1.9-0.4-3.5-1.4-5c-1-1.4-3-2.8-3.6-4.4
				c-0.6-1.9,1.1-4,1.2-5.9c0-0.8-0.1-1.7-0.4-2.4c-0.3-0.8-1.7-1.9-1.9-2.6c-0.2-1.3,1.9-4.1,2.3-5.5c0.6-2.5-0.6-4.8,0.7-7.1
				c1.2-2.2,3.6-4.1,5.4-5.6c2.5-2.1,5.4-3.9,8.8-4C489,509.2,489.1,503.3,485.2,503.4L485.2,503.4z"/>
		</g>
	</g>
	<g>
		<g>
			<path class="st8" d="M492.7,515c-0.7,1.9-0.7,3.9,0.2,5.7c0.4,0.9,1,1.7,1.7,2.3s1.9,1,2.5,1.6c0.6,0.7,0.6,1.9,0.8,2.8
				c0.4,1.2,1.1,2.3,1.8,3.4c0.9,1.4,3.4,4.2,1.5,5.8c-1.2,1-1.2,3.2,0,4.2c5.2,4.6-10.3,11.9-12.8,14.4c-2.6,2.8,1.6,7,4.2,4.2
				c1.9-2,4.5-2.8,6.7-4.3c2.5-1.7,4.4-3.9,6.3-6.1c3.1-3.9,4-8.8-0.1-12.5c0,1.4,0,2.8,0,4.2c3.8-3.3,2.3-8.4,0-12.1
				c-0.8-1.3-1.7-2.4-2.1-3.9c-0.3-1.1-0.3-2.1-0.9-3.1c-1.2-2-5-2.4-4-5.1C499.8,513,494,511.4,492.7,515L492.7,515z"/>
		</g>
	</g>
	<g>
		<g>
			<path class="st9" d="M486.7,562.7c0,7-0.2,13.9-0.5,20.9c-0.1,3.9,5.8,3.8,5.9,0c0.3-7,0.4-13.9,0.5-20.9
				C492.7,558.9,486.7,558.9,486.7,562.7L486.7,562.7z"/>
		</g>
	</g>
	<g>
		<g>
			<path class="st10" d="M477.9,560.7c-0.2,8.2-0.3,16.5-0.6,24.7c-0.1,3.9,5.9,3.9,5.9,0c0.2-8.2,0.3-16.5,0.6-24.7
				C484,556.9,478,556.9,477.9,560.7L477.9,560.7z"/>
		</g>
	</g>
</g>
<g>
	<g>
		<g>
			<path class="st5" d="M866.3,585.3c-0.1-5-0.1-9.9-0.1-14.8c0-2.3-0.1-4.5-0.1-6.8c0-2.4-0.6-5.6-0.1-7.9
				c-0.7,0.7-1.4,1.4-2.1,2.1c1-0.3,2.7-0.1,3.8,0c-1-1-2-2-3-3c-0.1,9.9-0.3,19.8-0.4,29.8c-0.1,3.9,5.9,3.9,5.9,0
				c0.1-9.9,0.3-19.8,0.4-29.8c0-1.7-1.4-3-3-3c-1.8,0-3.6-0.3-5.4,0.3c-1,0.3-1.9,1.1-2.1,2.1c-1.1,4.5-0.1,10.2-0.1,14.9
				c0.1,5.4,0.1,10.8,0.1,16.2C860.3,589.2,866.3,589.2,866.3,585.3L866.3,585.3z"/>
		</g>
	</g>
	<g>
		<g>
			<path class="st6" d="M861.7,550.3c-1,0.2-7.3,1-5.7-1.4c0.7-1,0.5-2.8-0.5-3.6c-6.4-5.9-7.2-17.5-4.7-25.4
				c0.8-2.3,1.7-4.5,3.8-5.9c1.7-1.1,3.6-1.9,5.4-2.8c2-1,4.6-2.5,6.8-1c1.5,1,2.3,3.1,2.9,4.8c1.4,3.5,2.3,9,5.2,11.7
				c1.2,1.2,3.1,1.4,4.3,2.7c1.7,1.7,2.1,4.1,2.1,6.3c0.1,3.8-0.4,10.2-3.9,12.3c-4,2.5-9.7,3-14.3,3.2c-3.8,0.1-3.9,6.1,0,5.9
				c8.6-0.3,20.5-2,22.8-11.8c1-4.4,1.9-9.4,0.9-13.9c-0.5-1.9-1.3-3.9-2.5-5.4c-1.4-1.8-3.2-2.3-4.8-3.6c-1.6-1.4-2.3-4.8-3-6.8
				c-0.8-2.1-1.6-4.2-2.6-6.2c-1.9-3.6-5.2-6.1-9.4-5.9c-4.2,0.3-8.6,2.9-12.2,5c-4.1,2.3-6.2,6.4-7.4,10.8
				c-2.6,9.7-1.2,22.9,6.5,30c-0.1-1.2-0.3-2.4-0.5-3.6c-1.9,2.7-1.2,6.3,1.1,8.5c3,3,7.5,2.5,11.3,1.7
				C867.1,555.2,865.5,549.5,861.7,550.3L861.7,550.3z"/>
		</g>
	</g>
	<g>
		<g>
			<path class="st6" d="M867.3,550.2c-2.9,0.6-5.6-0.8-7-3.4c-1.1,1.4-2.2,2.9-3.4,4.3c5,2,10.2,2.8,15.6,2.2c3-0.3,4.4-5.2,0.8-5.9
				c-3.1-0.6-6.2-1-9.3-1.6c-2.4-0.4-7.4-0.3-6-4.1c0.9-2.5,3.8-3.7,6.2-2.3c1,0.6,1.2,2.1,1.7,0.6c-0.6-0.5-0.7-1.1-0.3-1.7
				c0.3-0.3,0.7-0.3,1.1-0.3c1.4,0.1,1,0.8,1,1.9c-0.6,0.4-0.6,0.8,0,1c0.4,0.6,0.9,0.6,1.6,0.1c0.7-0.1,1.3,0,1.9,0.3
				c0.8,0.3,1.4,0.8,1.8,1.4c0.5-0.1,0.9-0.2,1.4-0.3c-0.8,0.3-1.4,0.8-2,1.4c-1.9,1.2-5.2,2.5-7.4,1.3c-1.1-0.6-1.9-1.9-1.9-3.2
				c0.1-0.9,0.4-1.7,1.1-2.3c1.7-0.6,1.7-1,0-1c-0.3-0.7-0.6-1.4-0.9-2.1c-0.5-0.6-1-1.1-1.7-1.5c-0.6-0.6-0.9-1.4-0.9-2.3
				c-0.1-1.3,0.8-2.6,1.7-3.5c1.9-1.9,4.6-2.3,7.1-2.3c2.1,0,4.8,0.3,6.6,1.6c1.7,1.2,2.8,3.9,0.4,5.1c1.4,0.3,2.7,0.7,4.1,1
				c-0.5-1.2-1.1-1.1-1.9,0.3c-0.7-0.3-1.4-0.6-2.1-0.9c1.5,1.5,1.5,6.1,1.4,8.3c0,1.2,0.1,3.4-1,4.1c-1.4,1-1.7-0.5-1.9-1.7
				c-0.3-2.3-0.6-4.8-0.3-7.1c0.1-1,0.3-2,0.6-3c0.3-0.8,1.9-2.7,1-2.9c-0.6-0.5-1.2-0.9-1.8-1.4c0.1,0.1,0.1,0.3,0.2,0.4
				c0.1-1.2,0.3-2.4,0.5-3.6c-2.3,2.2-4.1-2.3-4.3-3.9c-1.7,0.7-3.4,1.4-5.1,2.1c3.4,3.7-2.9,8.5-6.5,6.2c-1.2-0.8-2.2-3-0.6-3.9
				c2.1-1.1,1.7,2.5,1.5,3.4c0.3,0.6,0.3,0.5,0.1-0.2s-0.3-1.4-0.3-2.1c0.1-0.5,0.1-1,0.2-1.5c-0.8,0.3-1.7,0.6-2.5,0.8
				c-0.3,0.4-0.2,2-0.3,2.6c-0.2,0.8-0.4,1.7-0.8,2.5c-0.8,1.8-2,2.5-3.4,3.7c0.3,0.1,0.6,0.2,0.8,0.3c-0.2-0.3-0.3-0.7-0.6-1
				c0-0.8-0.4-2.8,1.2-2.2c3.7,1.2,5-4.3,1.6-5.7c-1.1-0.5-1.4-4.3-1.4-5.1c-0.1-1.4,0.1-4.7,2.2-5c1.4-0.1,2.8,1.9,2.3,3.1
				c-0.4,1-1.8,0.7-1.2-0.2c-0.3,0.5,0.7,1.2,0.1,1.9c0.7-0.3,1.4-0.6,2.1-0.9c-0.2,0-0.4,0-0.7,0c0.7,0.3,1.4,0.6,2.1,0.9
				c-1-1-0.6-2.3-0.9-3.3c-0.2-0.7,0-1.6-0.6,0.3c1.9,0.3,3.9,0.6,5.9,0.8c0.1-2,0.3-5.4,2.1-6.9c0.1-0.3,0.3-0.5,0.4-0.8
				c0.4,0.6,0.8,1.1,0.9,1.8c0.1,0.3,0.1,0.6,0.2,0.8c1.1-0.8,1.7-1.9,1.5-3.2c-1.9,0.3-3.9,0.6-5.9,0.8c0.2,0.7,1.2,5,0.8,5.2
				c0.8-0.1,1.5-0.2,2.3-0.3c-2.2-0.5-2.7-5.6-2.7-7.2c-1.2,1-2.5,1.9-3.8,2.9c0.4,0.1-1.4-2.8-1.4-2.8c-0.8-2.5-4-2.9-5.4-0.7
				c-3.7,5.7-8.1,13.2-8.7,20.1c-0.6,6.8,5,9.2,10.7,9.9c-0.8-1.5-1.7-3-2.5-4.5c-3.2,4.3-3.2,9.6-3,14.7c1.7-0.7,3.4-1.4,5.1-2.1
				c-6.9-5.7-6.8-14.9-6.7-23.2c0.1-3.9-5.9-3.9-5.9,0c-0.1,9.8,0.3,20.6,8.5,27.4c1.9,1.5,5.2,0.7,5.1-2.1
				c-0.2-4.1-0.3-8.2,2.2-11.6c1.5-2-0.6-4.3-2.5-4.5c-1.7-0.2-4.1-0.4-4.7-2.3c-0.6-1.8,0.7-4.5,1.3-6.1c1.7-4.5,3.9-8.6,6.4-12.6
				c-1.8-0.2-3.7-0.5-5.4-0.7c1.4,4.3,5.9,8.1,10.4,5.2c3.9-2.5,2.9-8.8-1.7-9.7c-1.9-0.4-3.8,0.8-3.8,2.9c0,4.3,1.9,12.7,7.4,13
				c6,0.3,5-8.8,3.9-12.3c-1-3.2-5.7-2.5-5.9,0.8c-0.2,3.9,1.4,8.8,6.3,8.2c4.7-0.6,4.5-5.6,3.1-9c-1.7-3.7-5.6-6-9.3-3.4
				s-5.1,8.1-5.2,12.4c-0.1,3.4,5,4,5.9,0.8c1.1-4-0.7-9.2-5.7-9c-4.7,0.3-6.1,5.7-5.4,9.6c0.6,3.4,4.4,8.6,7.9,4.5
				c2.6-3.2,1.2-9.2-2.1-11.3c-9.2-5.7-12.3,13.8-2.3,13.5c9.5-0.3,8.5-15.9-0.4-16.6c-11.2-0.9-11.9,18.1-3.3,21.7
				c0.6-1.9,1-3.8,1.6-5.7c-5-1.6-9.3,2.8-8.8,7.8s4.5,8.5,9.3,5.8c4.5-2.5,6.7-7.9,7-12.8c0.1-2.1-0.1-4.5-1.9-6
				c-1.9-1.5-4.6-1.4-6.2,0.6c-2.7,3.4-1.9,11.3,2.3,13.2c5.1,2.3,8.6-4.2,8.5-8.4c-0.1-4.9-4.6-8.1-9.2-6.7
				c-4.6,1.4-6.3,6.8-4.3,11c6.3,12.7,27.4-0.7,17.2-11.8c-1.7-1.8-5.4-0.5-5.1,2.1c0.4,3.7,1.7,7.4,5.2,9.4
				c3.1,1.7,6.8,1.2,9.3-1.2c1-0.9,1-2.5,0.5-3.6c-1.4-2.8-4.9-2.3-7-0.3c-2.5,2.4-3.8,5.8-4.2,9.2c-0.7,5.4-0.6,16.8,7.3,16.4
				c9.2-0.5,8.2-13.2,6.5-19.2c-0.8-2.9-2.8-6.1-6.3-4.5c-3.6,1.6-3,5.7-1,8.3c1,1.3,2.5,1.9,4.1,1c4.2-2.1,5.4-7.6,3.2-11.6
				c-2.6-4.8-8.7-6.3-13.8-6.1c-5.7,0.2-11.5,2.8-13.6,8.5c-1.8,5,0.8,10.8,6.1,12.2c4,1,10.8-3.2,6.6-7.4
				c-3.8-3.9-9.7,1.7-10.7,5.5c-3.4,12.5,15.9,15.5,21,5.9c2.1-4.1-1-10.2-6.1-9c-4.9,1.2-5.2,9.4-0.8,11.4c4.8,2.1,8.7-3.3,7-7.6
				c-1.9-4.8-8.1-6.7-12.5-4.8c-4.1,1.8-6.3,8.1-1.2,10.3c4.6,2,9-2.5,9-7c0-4.8-4.5-8-9.1-6.8c-4.8,1.2-6.8,6.6-4.1,10.8
				c2.7,4.1,11,4.8,11.4-1.4c0.5-5.7-6.9-9.4-11.6-8.6c-5.8,1-10,7.2-8.3,12.8c0.9,3,3.3,4.4,6.3,5c4.4,0.9,8.8,1.5,13.2,2.3
				c0.3-1.9,0.6-3.9,0.8-5.9c-4.9,0.6-9.4-0.1-14-2c-2.5-1-4.6,2.3-3.4,4.3c3,4.9,8.2,7.1,13.8,6.1
				C872.7,555.3,871.1,549.5,867.3,550.2L867.3,550.2z"/>
		</g>
	</g>
	<g>
		<g>
			<path class="st7" d="M865.2,503.4c-6.4,0.2-11.4,4.1-15.9,8.4c-1.9,1.9-3.8,4.1-4.5,6.7c-0.4,1.4-0.3,2.8-0.2,4.2
				c0.1,1.8-0.3,2.7-1,4.3c-1,2.1-1.9,4.2-1,6.5c0.3,1.1,1.7,2.1,1.9,3.2c0.1,1-1,2.5-1.2,3.6c-0.5,2.4,0.2,4.5,1.7,6.5
				c1.1,1.5,3.7,3.2,3.4,5.2c-0.2,1.6,1.5,3,3,3c1.2-0.1,2.7,2.8,3.8,3.6c1.6,1,3.2,1.2,4.9,0.7c3.7-1.2,2.1-6.9-1.6-5.7
				c-0.3,0.1-2.8-3-3.2-3.3c-1.2-0.9-2.4-1.2-3.9-1.2c1,1,2,2,3,3c0.2-1.9-0.4-3.5-1.4-5c-1-1.4-3-2.8-3.6-4.4
				c-0.6-1.9,1.1-4,1.2-5.9c0-0.8-0.1-1.7-0.4-2.4c-0.3-0.8-1.7-1.9-1.9-2.6c-0.2-1.3,1.9-4.1,2.3-5.5c0.6-2.5-0.6-4.8,0.7-7.1
				c1.2-2.2,3.6-4.1,5.4-5.6c2.5-2.1,5.4-3.9,8.8-4C868.9,509.2,869,503.3,865.2,503.4L865.2,503.4z"/>
		</g>
	</g>
	<g>
		<g>
			<path class="st8" d="M872.7,515c-0.7,1.9-0.7,3.9,0.2,5.7c0.4,0.9,1,1.7,1.7,2.3s1.9,1,2.5,1.6c0.6,0.7,0.6,1.9,0.8,2.8
				c0.4,1.2,1.1,2.3,1.8,3.4c0.9,1.4,3.4,4.2,1.5,5.8c-1.2,1-1.2,3.2,0,4.2c5.2,4.6-10.3,11.9-12.8,14.4c-2.6,2.8,1.6,7,4.2,4.2
				c1.9-2,4.5-2.8,6.7-4.3c2.5-1.7,4.4-3.9,6.3-6.1c3.1-3.9,4-8.8-0.1-12.5c0,1.4,0,2.8,0,4.2c3.8-3.3,2.3-8.4,0-12.1
				c-0.8-1.3-1.7-2.4-2.1-3.9c-0.3-1.1-0.3-2.1-0.9-3.1c-1.2-2-5-2.4-4-5.1C879.7,513,873.9,511.4,872.7,515L872.7,515z"/>
		</g>
	</g>
	<g>
		<g>
			<path class="st9" d="M866.7,562.7c0,7-0.2,13.9-0.5,20.9c-0.1,3.9,5.8,3.8,5.9,0c0.3-7,0.4-13.9,0.5-20.9
				C872.6,558.9,866.7,558.9,866.7,562.7L866.7,562.7z"/>
		</g>
	</g>
	<g>
		<g>
			<path class="st10" d="M857.9,560.7c-0.2,8.2-0.3,16.5-0.6,24.7c-0.1,3.9,5.9,3.9,5.9,0c0.2-8.2,0.3-16.5,0.6-24.7
				C863.9,556.9,857.9,556.9,857.9,560.7L857.9,560.7z"/>
		</g>
	</g>
</g>
<g>
	<g>
		<g>
			<path class="st5" d="M825.8,607.5c-0.1-5-0.1-9.9-0.1-14.8c0-2.3-0.1-4.5-0.1-6.8c0-2.4-0.6-5.6-0.1-7.9
				c-0.7,0.7-1.4,1.4-2.1,2.1c1-0.3,2.7-0.1,3.8,0c-1-1-2-2-3-3c-0.1,9.9-0.3,19.8-0.4,29.8c-0.1,3.9,5.9,3.9,5.9,0
				c0.1-9.9,0.3-19.8,0.4-29.8c0-1.7-1.4-3-3-3c-1.8,0-3.6-0.3-5.4,0.3c-1,0.3-1.9,1.1-2.1,2.1c-1.1,4.5-0.1,10.2-0.1,14.9
				c0.1,5.4,0.1,10.8,0.1,16.2C819.9,611.3,825.8,611.3,825.8,607.5L825.8,607.5z"/>
		</g>
	</g>
	<g>
		<g>
			<path class="st6" d="M821.3,572.4c-1,0.2-7.3,1-5.7-1.4c0.7-1,0.5-2.8-0.5-3.6c-6.4-5.9-7.2-17.5-4.7-25.4
				c0.8-2.3,1.7-4.5,3.8-5.9c1.7-1.1,3.6-1.9,5.4-2.8c2-1,4.6-2.5,6.8-1c1.5,1,2.3,3.1,2.9,4.8c1.4,3.5,2.3,9,5.2,11.7
				c1.2,1.2,3.1,1.4,4.3,2.7c1.7,1.7,2.1,4.1,2.1,6.3c0.1,3.8-0.4,10.2-3.9,12.3c-4,2.5-9.7,3-14.3,3.2c-3.8,0.1-3.9,6.1,0,5.9
				c8.6-0.3,20.5-2,22.8-11.8c1-4.4,1.9-9.4,0.9-13.9c-0.5-1.9-1.3-3.9-2.5-5.4c-1.4-1.8-3.2-2.3-4.8-3.6c-1.6-1.4-2.3-4.8-3-6.8
				c-0.8-2.1-1.6-4.2-2.6-6.2c-1.9-3.6-5.2-6.1-9.4-5.9c-4.2,0.3-8.6,2.9-12.2,5c-4.1,2.3-6.2,6.4-7.4,10.8
				c-2.6,9.7-1.2,22.9,6.5,30c-0.1-1.2-0.3-2.4-0.5-3.6c-1.9,2.7-1.2,6.3,1.1,8.5c3,3,7.5,2.5,11.3,1.7
				C826.6,577.3,825,571.6,821.3,572.4L821.3,572.4z"/>
		</g>
	</g>
	<g>
		<g>
			<path class="st6" d="M826.8,572.3c-2.9,0.6-5.6-0.8-7-3.4c-1.1,1.4-2.2,2.9-3.4,4.3c5,2,10.2,2.8,15.6,2.2c3-0.3,4.4-5.2,0.8-5.9
				c-3.1-0.6-6.2-1-9.3-1.6c-2.4-0.4-7.4-0.3-6-4.1c0.9-2.5,3.8-3.7,6.2-2.3c1,0.6,1.2,2.1,1.7,0.6c-0.6-0.5-0.7-1.1-0.3-1.7
				c0.3-0.3,0.7-0.3,1.1-0.3c1.4,0.1,1,0.8,1,1.9c-0.6,0.4-0.6,0.8,0,1c0.4,0.6,0.9,0.6,1.6,0.1c0.7-0.1,1.3,0,1.9,0.3
				c0.8,0.3,1.4,0.8,1.8,1.4c0.5-0.1,0.9-0.2,1.4-0.3c-0.8,0.3-1.4,0.8-2,1.4c-1.9,1.2-5.2,2.5-7.4,1.3c-1.1-0.6-1.9-1.9-1.9-3.2
				c0.1-0.9,0.4-1.7,1.1-2.3c1.7-0.6,1.7-1,0-1c-0.3-0.7-0.6-1.4-0.9-2.1c-0.5-0.6-1-1.1-1.7-1.5c-0.6-0.6-0.9-1.4-0.9-2.3
				c-0.1-1.3,0.8-2.6,1.7-3.5c1.9-1.9,4.6-2.3,7.1-2.3c2.1,0,4.8,0.3,6.6,1.6c1.7,1.2,2.8,3.9,0.4,5.1c1.4,0.3,2.7,0.7,4.1,1
				c-0.5-1.2-1.1-1.1-1.9,0.3c-0.7-0.3-1.4-0.6-2.1-0.9c1.5,1.5,1.5,6.1,1.4,8.3c0,1.2,0.1,3.4-1,4.1c-1.4,1-1.7-0.5-1.9-1.7
				c-0.3-2.3-0.6-4.8-0.3-7.1c0.1-1,0.3-2,0.6-3c0.3-0.8,1.9-2.7,1-2.9c-0.6-0.5-1.2-0.9-1.8-1.4c0.1,0.1,0.1,0.3,0.2,0.4
				c0.1-1.2,0.3-2.4,0.5-3.6c-2.3,2.2-4.1-2.3-4.3-3.9c-1.7,0.7-3.4,1.4-5.1,2.1c3.4,3.7-2.9,8.5-6.5,6.2c-1.2-0.8-2.2-3-0.6-3.9
				c2.1-1.1,1.7,2.5,1.5,3.4c0.3,0.6,0.3,0.5,0.1-0.2s-0.3-1.4-0.3-2.1c0.1-0.5,0.1-1,0.2-1.5c-0.8,0.3-1.7,0.6-2.5,0.8
				c-0.3,0.4-0.2,2-0.3,2.6c-0.2,0.8-0.4,1.7-0.8,2.5c-0.8,1.8-2,2.5-3.4,3.7c0.3,0.1,0.6,0.2,0.8,0.3c-0.2-0.3-0.3-0.7-0.6-1
				c0-0.8-0.4-2.8,1.2-2.2c3.7,1.2,5-4.3,1.6-5.7c-1.1-0.5-1.4-4.3-1.4-5.1c-0.1-1.4,0.1-4.7,2.2-5c1.4-0.1,2.8,1.9,2.3,3.1
				c-0.4,1-1.8,0.7-1.2-0.2c-0.3,0.5,0.7,1.2,0.1,1.9c0.7-0.3,1.4-0.6,2.1-0.9c-0.2,0-0.4,0-0.7,0c0.7,0.3,1.4,0.6,2.1,0.9
				c-1-1-0.6-2.3-0.9-3.3c-0.2-0.7,0-1.6-0.6,0.3c1.9,0.3,3.9,0.6,5.9,0.8c0.1-2,0.3-5.4,2.1-6.9c0.1-0.3,0.3-0.5,0.4-0.8
				c0.4,0.6,0.8,1.1,0.9,1.8c0.1,0.3,0.1,0.6,0.2,0.8c1.1-0.8,1.7-1.9,1.5-3.2c-1.9,0.3-3.9,0.6-5.9,0.8c0.2,0.7,1.2,5,0.8,5.2
				c0.8-0.1,1.5-0.2,2.3-0.3c-2.2-0.5-2.7-5.6-2.7-7.2c-1.2,1-2.5,1.9-3.8,2.9c0.4,0.1-1.4-2.8-1.4-2.8c-0.8-2.5-4-2.9-5.4-0.7
				c-3.7,5.7-8.1,13.2-8.7,20.1c-0.6,6.8,5,9.2,10.7,9.9c-0.8-1.5-1.7-3-2.5-4.5c-3.2,4.3-3.2,9.6-3,14.7c1.7-0.7,3.4-1.4,5.1-2.1
				c-6.9-5.7-6.8-14.9-6.7-23.2c0.1-3.9-5.9-3.9-5.9,0c-0.1,9.8,0.3,20.6,8.5,27.4c1.9,1.5,5.2,0.7,5.1-2.1
				c-0.2-4.1-0.3-8.2,2.2-11.6c1.5-2-0.6-4.3-2.5-4.5c-1.7-0.2-4.1-0.4-4.7-2.3c-0.6-1.8,0.7-4.5,1.3-6.1c1.7-4.5,3.9-8.6,6.4-12.6
				c-1.8-0.2-3.7-0.5-5.4-0.7c1.4,4.3,5.9,8.1,10.4,5.2c3.9-2.5,2.9-8.8-1.7-9.7c-1.9-0.4-3.8,0.8-3.8,2.9c0,4.3,1.9,12.7,7.4,13
				c6,0.3,5-8.8,3.9-12.3c-1-3.2-5.7-2.5-5.9,0.8c-0.2,3.9,1.4,8.8,6.3,8.2c4.7-0.6,4.5-5.6,3.1-9c-1.7-3.7-5.6-6-9.3-3.4
				s-5.1,8.1-5.2,12.4c-0.1,3.4,5,4,5.9,0.8c1.1-4-0.7-9.2-5.7-9c-4.7,0.3-6.1,5.7-5.4,9.6c0.6,3.4,4.4,8.6,7.9,4.5
				c2.6-3.2,1.2-9.2-2.1-11.3c-9.2-5.7-12.3,13.8-2.3,13.5c9.5-0.3,8.5-15.9-0.4-16.6c-11.2-0.9-11.9,18.1-3.3,21.7
				c0.6-1.9,1-3.8,1.6-5.7c-5-1.6-9.3,2.8-8.8,7.8s4.5,8.5,9.3,5.8c4.5-2.5,6.7-7.9,7-12.8c0.1-2.1-0.1-4.5-1.9-6
				c-1.9-1.5-4.6-1.4-6.2,0.6c-2.7,3.4-1.9,11.3,2.3,13.2c5.1,2.3,8.6-4.2,8.5-8.4c-0.1-4.9-4.6-8.1-9.2-6.7
				c-4.6,1.4-6.3,6.8-4.3,11c6.3,12.7,27.4-0.7,17.2-11.8c-1.7-1.8-5.4-0.5-5.1,2.1c0.4,3.7,1.7,7.4,5.2,9.4
				c3.1,1.7,6.8,1.2,9.3-1.2c1-0.9,1-2.5,0.5-3.6c-1.4-2.8-4.9-2.3-7-0.3c-2.5,2.4-3.8,5.8-4.2,9.2c-0.7,5.4-0.6,16.8,7.3,16.4
				c9.2-0.5,8.2-13.2,6.5-19.2c-0.8-2.9-2.8-6.1-6.3-4.5c-3.6,1.6-3,5.7-1,8.3c1,1.3,2.5,1.9,4.1,1c4.2-2.1,5.4-7.6,3.2-11.6
				c-2.6-4.8-8.7-6.3-13.8-6.1c-5.7,0.2-11.5,2.8-13.6,8.5c-1.8,5,0.8,10.8,6.1,12.2c4,1,10.8-3.2,6.6-7.4
				c-3.8-3.9-9.7,1.7-10.7,5.5c-3.4,12.5,15.9,15.5,21,5.9c2.1-4.1-1-10.2-6.1-9c-4.9,1.2-5.2,9.4-0.8,11.4c4.8,2.1,8.7-3.3,7-7.6
				c-1.9-4.8-8.1-6.7-12.5-4.8c-4.1,1.8-6.3,8.1-1.2,10.3c4.6,2,9-2.5,9-7c0-4.8-4.5-8-9.1-6.8c-4.8,1.2-6.8,6.6-4.1,10.8
				c2.7,4.1,11,4.8,11.4-1.4c0.5-5.7-6.9-9.4-11.6-8.6c-5.8,1-10,7.2-8.3,12.8c0.9,3,3.3,4.4,6.3,5c4.4,0.9,8.8,1.5,13.2,2.3
				c0.3-1.9,0.6-3.9,0.8-5.9c-4.9,0.6-9.4-0.1-14-2c-2.5-1-4.6,2.3-3.4,4.3c3,4.9,8.2,7.1,13.8,6.1
				C832.2,577.4,830.6,571.6,826.8,572.3L826.8,572.3z"/>
		</g>
	</g>
	<g>
		<g>
			<path class="st7" d="M824.7,525.5c-6.4,0.2-11.4,4.1-15.9,8.4c-1.9,1.9-3.8,4.1-4.5,6.7c-0.4,1.4-0.3,2.8-0.2,4.2
				c0.1,1.8-0.3,2.7-1,4.3c-1,2.1-1.9,4.2-1,6.5c0.3,1.1,1.7,2.1,1.9,3.2c0.1,1-1,2.5-1.2,3.6c-0.5,2.4,0.2,4.5,1.7,6.5
				c1.1,1.5,3.7,3.2,3.4,5.2c-0.2,1.6,1.5,3,3,3c1.2-0.1,2.7,2.8,3.8,3.6c1.6,1,3.2,1.2,4.9,0.7c3.7-1.2,2.1-6.9-1.6-5.7
				c-0.3,0.1-2.8-3-3.2-3.3c-1.2-0.9-2.4-1.2-3.9-1.2c1,1,2,2,3,3c0.2-1.9-0.4-3.5-1.4-5c-1-1.4-3-2.8-3.6-4.4
				c-0.6-1.9,1.1-4,1.2-5.9c0-0.8-0.1-1.7-0.4-2.4c-0.3-0.8-1.7-1.9-1.9-2.6c-0.2-1.3,1.9-4.1,2.3-5.5c0.6-2.5-0.6-4.8,0.7-7.1
				c1.2-2.2,3.6-4.1,5.4-5.6c2.5-2.1,5.4-3.9,8.8-4C828.5,531.3,828.6,525.4,824.7,525.5L824.7,525.5z"/>
		</g>
	</g>
	<g>
		<g>
			<path class="st8" d="M832.2,537.1c-0.7,1.9-0.7,3.9,0.2,5.7c0.4,0.9,1,1.7,1.7,2.3s1.9,1,2.5,1.6c0.6,0.7,0.6,1.9,0.8,2.8
				c0.4,1.2,1.1,2.3,1.8,3.4c0.9,1.4,3.4,4.2,1.5,5.8c-1.2,1-1.2,3.2,0,4.2c5.2,4.6-10.3,11.9-12.8,14.4c-2.6,2.8,1.6,7,4.2,4.2
				c1.9-2,4.5-2.8,6.7-4.3c2.5-1.7,4.4-3.9,6.3-6.1c3.1-3.9,4-8.8-0.1-12.5c0,1.4,0,2.8,0,4.2c3.8-3.3,2.3-8.4,0-12.1
				c-0.8-1.3-1.7-2.4-2.1-3.9c-0.3-1.1-0.3-2.1-0.9-3.1c-1.2-2-5-2.4-4-5.1C839.2,535.1,833.5,533.5,832.2,537.1L832.2,537.1z"/>
		</g>
	</g>
	<g>
		<g>
			<path class="st9" d="M826.1,584.9c0,7-0.2,13.9-0.5,20.9c-0.1,3.9,5.8,3.8,5.9,0c0.3-7,0.4-13.9,0.5-20.9
				C832.1,581,826.2,581,826.1,584.9L826.1,584.9z"/>
		</g>
	</g>
	<g>
		<g>
			<path class="st10" d="M817.4,582.9c-0.2,8.2-0.3,16.5-0.6,24.7c-0.1,3.9,5.9,3.9,5.9,0c0.2-8.2,0.3-16.5,0.6-24.7
				C823.4,579,817.5,579,817.4,582.9L817.4,582.9z"/>
		</g>
	</g>
</g>
<g>
	<g>
		<path class="st11" d="M436.4,706.2c1.4-1.7,2.5-4.8,5.7-3.2c1.4,0.7,2.9,2.6,4,3.8c0.7,0.7,1.9,0.7,2.5,0c1-1.1,2.5-3.3,3.9-4
			c2.2-1.1,4,1.5,5.2,3.2c0.8,1,2.3,1.2,3.1,0c0.6-1,2.5-5,3.8-5.1c1.2-0.1,3.7,3.1,4.5,4.1c1.5,1.8,4.1-0.8,2.5-2.5
			c-1.6-1.9-4.6-5.5-7.4-5.3c-3,0.2-5.2,4.9-6.5,7c1,0,2.1,0,3.1,0c-1.6-2.1-4.2-6-7.2-6s-5.8,4.1-7.5,6.1c0.8,0,1.7,0,2.5,0
			c-2-2.1-4.9-5.7-7.9-6.1c-3.4-0.4-5,3.2-6.8,5.4C432.4,705.5,434.9,708,436.4,706.2L436.4,706.2z"/>
	</g>
</g>
<g>
	<g>
		<path class="st11" d="M479.8,732.5c1.4-1.7,2.5-4.8,5.7-3.2c1.4,0.7,2.9,2.6,4,3.8c0.7,0.7,1.9,0.7,2.5,0c1-1.1,2.5-3.3,3.9-4
			c2.2-1.1,4,1.5,5.2,3.2c0.8,1,2.3,1.2,3.1,0c0.6-1,2.5-5,3.8-5.1c1.2-0.1,3.7,3.1,4.5,4.1c1.5,1.8,4.1-0.8,2.5-2.5
			c-1.6-1.9-4.6-5.5-7.4-5.3c-3,0.2-5.2,4.9-6.5,7c1,0,2.1,0,3.1,0c-1.6-2.1-4.2-6-7.2-6s-5.8,4.1-7.5,6.1c0.8,0,1.7,0,2.5,0
			c-2-2.1-4.9-5.7-7.9-6.1c-3.4-0.4-5,3.2-6.8,5.4C475.8,731.7,478.3,734.3,479.8,732.5L479.8,732.5z"/>
	</g>
</g>
<g>
	<g>
		<path class="st11" d="M634.1,734.8c1.4-1.7,2.5-4.8,5.7-3.2c1.4,0.7,2.9,2.6,4,3.8c0.7,0.7,1.9,0.7,2.5,0c1-1.1,2.5-3.3,3.9-4
			c2.2-1.1,4,1.5,5.2,3.2c0.8,1,2.3,1.2,3.1,0c0.6-1,2.5-5,3.8-5.1c1.2-0.1,3.7,3.1,4.5,4.1c1.5,1.8,4.1-0.8,2.5-2.5
			c-1.6-1.9-4.6-5.5-7.4-5.3c-3,0.2-5.2,4.9-6.5,7c1,0,2.1,0,3.1,0c-1.6-2.1-4.2-6-7.2-6s-5.8,4.1-7.5,6.1c0.8,0,1.7,0,2.5,0
			c-2-2.1-4.9-5.7-7.9-6.1c-3.4-0.4-5,3.2-6.8,5.4C630.1,734.1,632.7,736.6,634.1,734.8L634.1,734.8z"/>
	</g>
</g>
<g>
	<g>
		<path class="st11" d="M817.7,703.7c1.4-1.7,2.5-4.8,5.7-3.2c1.4,0.7,2.9,2.6,4,3.8c0.7,0.7,1.9,0.7,2.5,0c1-1.1,2.5-3.3,3.9-4
			c2.2-1.1,4,1.5,5.2,3.2c0.8,1,2.3,1.2,3.1,0c0.6-1,2.5-5,3.8-5.1c1.2-0.1,3.7,3.1,4.5,4.1c1.5,1.8,4.1-0.8,2.5-2.5
			c-1.6-1.9-4.6-5.5-7.4-5.3c-3,0.2-5.2,4.9-6.5,7c1,0,2.1,0,3.1,0c-1.6-2.1-4.2-6-7.2-6s-5.8,4.1-7.5,6.1c0.8,0,1.7,0,2.5,0
			c-2-2.1-4.9-5.7-7.9-6.1c-3.4-0.4-5,3.2-6.8,5.4C813.7,702.9,816.2,705.5,817.7,703.7L817.7,703.7z"/>
	</g>
</g>
<g>
	<g>
		<path class="st11" d="M800.2,731c1.4-1.7,2.5-4.8,5.7-3.2c1.4,0.7,2.9,2.6,4,3.8c0.7,0.7,1.9,0.7,2.5,0c1-1.1,2.5-3.3,3.9-4
			c2.2-1.1,4,1.5,5.2,3.2c0.8,1,2.3,1.2,3.1,0c0.6-1,2.5-5,3.8-5.1c1.2-0.1,3.7,3.1,4.5,4.1c1.5,1.8,4.1-0.8,2.5-2.5
			c-1.6-1.9-4.6-5.5-7.4-5.3c-3,0.2-5.2,4.9-6.5,7c1,0,2.1,0,3.1,0c-1.6-2.1-4.2-6-7.2-6s-5.8,4.1-7.5,6.1c0.8,0,1.7,0,2.5,0
			c-2-2.1-4.9-5.7-7.9-6.1c-3.4-0.4-5,3.2-6.8,5.4C796.2,730.3,798.8,732.8,800.2,731L800.2,731z"/>
	</g>
</g>
<g>
	<g>
		<path class="st12" d="M403.9,604.6c3.9,0,3.9-5.9,0-5.9C400,598.6,400,604.6,403.9,604.6L403.9,604.6z"/>
	</g>
</g>
<g>
	<g>
		<path class="st12" d="M438.7,662c3.9,0,3.9-5.9,0-5.9C434.8,656,434.8,662,438.7,662L438.7,662z"/>
	</g>
</g>
<g>
	<g>
		<path class="st12" d="M463,601.9c3.9,0,3.9-5.9,0-5.9C459.2,596,459.2,601.9,463,601.9L463,601.9z"/>
	</g>
</g>
<g>
	<g>
		<path class="st12" d="M882.3,601c3.9,0,3.9-5.9,0-5.9S878.5,601,882.3,601L882.3,601z"/>
	</g>
</g>
<g>
	<g>
		<path class="st12" d="M837.9,623.7c3.9,0,3.9-5.9,0-5.9C834.1,617.7,834.1,623.7,837.9,623.7L837.9,623.7z"/>
	</g>
</g>
<g>
	<g>
		<path class="st12" d="M831.9,664.6c3.9,0,3.9-5.9,0-5.9C828,658.6,828,664.6,831.9,664.6L831.9,664.6z"/>
	</g>
</g>
<g>
	<g>
		<path class="st12" d="M861.4,648c3.9,0,3.9-5.9,0-5.9C857.6,642.1,857.6,648,861.4,648L861.4,648z"/>
	</g>
</g>
<g>
	<g>
		<path class="st12" d="M410.9,647.2c3.9,0,3.9-5.9,0-5.9S407,647.2,410.9,647.2L410.9,647.2z"/>
	</g>
</g>
<g>
	<g>
		<path class="st13" d="M635.1,636.8c-24.3-11.7-47.7-25.1-70-40.2c-2.6-1.8-5.2-3.6-7.9-5.4c-1.1-0.8-2.3-1.7-3.4-2.5
			c-0.6-0.5-1.3-1-1.9-1.4c-0.5-0.3-2.1-1.7-0.9-0.7c-5-3.9-9.9-8-14.5-12.4c-4.4-4.2-8.6-8.7-12.5-13.5c-0.1-0.2-1.6-2.1-0.8-1
			c0.8,1-0.6-0.9-0.8-1.1c-0.8-1.1-1.6-2.2-2.3-3.3c-1.8-2.7-3.5-5.5-5.1-8.3c-1.4-2.5-2.7-5.1-3.8-7.7c0.8,1.9-0.8-2.1-1-2.5
			c-0.6-1.4-1-2.9-1.4-4.3c-0.9-2.9-1.7-5.9-2.2-8.8c-0.1-0.8-0.3-1.5-0.4-2.3c0-0.1-0.3-2-0.1-0.7c0.1,1.4-0.1-1-0.1-1.2
			c-0.1-1-0.1-1.9-0.2-2.8c-0.1-2.7-0.1-5.3,0.1-8c0.1-0.7,0.1-1.4,0.2-2c0.1-1.8-0.3,1.9-0.1,0.1c0.3-1.5,0.5-3,0.8-4.5
			c0.6-2.5,1.2-5,2.1-7.4c0.3-0.8,1.4-3.6,0.5-1.4c0.6-1.4,1.2-2.8,2-4.1c1.2-2.2,2.5-4.4,3.9-6.5c0.4-0.6,0.8-1.1,1.2-1.7
			c-1.4,1.8-0.3,0.4,0,0.1c1-1.1,2-2.3,3-3.3c0.8-0.8,1.7-1.7,2.5-2.4c0.5-0.4,1-0.8,1.5-1.3c-1.7,1.4-0.4,0.3,0,0.1
			c2.5-1.6,4.9-3.1,7.6-4.3c2.2-1,1-0.4,0.6-0.3c0.8-0.3,1.5-0.6,2.3-0.8c1.6-0.6,3.2-1,4.8-1.4c3.2-0.8,6.5-1.4,9.7-2
			c0.3-0.1,2.3-0.3,0.5-0.1c0.8-0.1,1.7-0.2,2.4-0.3c1.4-0.1,2.9-0.3,4.3-0.3c3.5-0.2,7-0.3,10.5-0.2c1.7,0.1,3.3,0.1,4.9,0.3
			c0.8,0.1,1.7,0.1,2.4,0.2c3.9,0.4-1.1-0.2,1.1,0.1c3.7,0.6,7.2,1.3,10.8,2.3c1.8,0.5,3.5,1.1,5.2,1.7c0.8,0.3,1.5,0.6,2.3,0.9
			c-1.1-0.4-0.6-0.3,0.2,0.1c2.8,1.3,5.5,2.8,8.2,4.5c1.3,0.8,2.5,1.8,3.9,2.6c1.5,1-1.3-1.2,0.1,0.1c0.6,0.6,1.3,1.1,2,1.7
			c2.3,2.1,4.5,4.3,6.5,6.6c0.4,0.6,0.9,1,1.3,1.6c-0.7-0.9-0.6-0.8,0,0.1c0.9,1.2,1.7,2.5,2.5,3.9s1.5,2.7,2.2,4.1
			c0.3,0.6,0.6,1.2,0.8,1.9c-0.8-1.9,0,0.2,0.3,1c1.7,4.5,5,7.9,9.9,8.5c4.4,0.6,9.7-1.4,11.9-5.7c2.7-5.4,5.5-10.6,8.7-15.6
			c1.4-2.3,3-4.5,4.5-6.8c1.3-1.9,0.4-0.6,0.1-0.2c0.4-0.6,0.9-1.1,1.4-1.7c1-1.2,2.1-2.5,3.2-3.7c1.9-2.1,3.9-4.1,6.1-5.9
			c0.5-0.4,3-2.4,1.3-1.2c1.4-1,2.9-2.1,4.3-3c1.2-0.8,2.4-1.4,3.7-2.1c0.6-0.3,1.3-0.6,1.9-1c0,0,1.8-0.8,0.8-0.4
			c-1.2,0.5,1.2-0.4,1.4-0.6c0.8-0.3,1.5-0.6,2.3-0.8c1.7-0.6,3.4-1,5.2-1.4c1.6-0.3,3.2-0.6,4.8-1c0.3-0.1,2.3-0.3,0.4-0.1
			c0.8-0.1,1.6-0.2,2.4-0.3c3.2-0.3,6.5-0.5,9.7-0.5c3.2-0.1,6.5,0,9.6,0.3c0.4,0,5,0.6,2.8,0.2c1.8,0.3,3.6,0.6,5.3,1
			c1.6,0.3,3.1,0.8,4.6,1.4c0.2,0.1,2.5,1,1.4,0.5c-1-0.4,0.7,0.3,0.7,0.3c1.4,0.7,2.7,1.4,4,2.2c0.6,0.4,1.3,0.8,1.9,1.2
			c0.1,0.1,2.9,2.2,1.2,0.9c4.8,3.9,8.9,8.4,12.7,13.2c0.5,0.6,1,1.2,1.4,1.8c-0.3-0.4-1.1-1.5,0.3,0.3c0.9,1.2,1.8,2.5,2.7,3.8
			c1.7,2.5,3.4,5.2,4.9,7.9c0.8,1.4,1.4,2.7,2.1,4.1c0.2,0.3,1.9,4.4,1.2,2.4c1.2,3,2.2,6.2,3,9.4c0.2,0.8,0.3,1.6,0.5,2.3
			c0.1,0.3,0.5,2.7,0.3,1.4c-0.2-1.2,0.1,0.7,0.1,0.8c0.1,0.8,0.1,1.6,0.2,2.3c0.2,3.4,0.2,6.8-0.1,10.1c-0.1,0.8-0.1,1.6-0.2,2.4
			c-0.1,2,0.3-1.6-0.1,0.4c-0.3,1.6-0.6,3.2-0.9,4.8c-0.7,3.3-1.7,6.6-2.7,9.9c-0.5,1.5-1.1,3-1.7,4.5c-0.1,0.2-0.9,2.1-0.2,0.5
			c-0.3,0.8-0.6,1.4-1,2.2c-1.4,2.9-2.8,5.7-4.5,8.5c-1.6,2.8-3.3,5.4-5.1,8.1c-0.9,1.3-1.8,2.6-2.8,3.9c-0.5,0.6-1,1.3-1.4,1.9
			c-0.2,0.3-0.5,0.6-0.7,1c0.5-0.7,0.6-0.7,0-0.1c-8.2,10.3-17.4,19.8-26.8,28.9C695.8,621,674,638.4,648.5,655
			c-5.2,3.4-7.9,10.7-4.3,16.3c3.4,5.2,10.7,7.9,16.3,4.3c25-16.3,48.6-34.8,70.2-55.3c21.4-20.3,42.3-42.5,53-70.4
			c5.5-14.4,7.2-29.9,5-45.1c-2.1-14.1-8.8-27.3-17.2-38.6c-9-12.2-19.4-23.8-33.6-29.8c-13.9-5.9-30.3-6.4-45.1-4.6
			c-17.1,2.1-32.3,8.3-44.9,20.1c-11,10.3-19,23.5-25.7,36.9c7.2,1,14.5,1.9,21.7,2.8c-9.4-26.4-33.6-44.5-60.9-49.2
			c-15.5-2.7-31.4-2.3-46.7,1.1c-13.6,3-26.6,9.5-35.8,20.1c-18.3,20.8-22.7,50.1-14.3,76.2c9,28,29.3,49.4,52.2,66.9
			c26.1,19.8,55.1,36.4,84.5,50.7c5.6,2.7,13.1,1.7,16.3-4.3C642.2,647.8,641.1,639.7,635.1,636.8L635.1,636.8z"/>
	</g>
</g>
<g>
	<g>
		<path class="st13" d="M661,656.1c-8-7.4-15.9-14.7-23.9-22.1c-0.8,6.2-1.6,12.5-2.4,18.7c8.5-5.4,17.2-10.3,26.3-14.7
			c2.2-1,4.5-2.1,6.8-3c0.6-0.3,1.1-0.5,1.7-0.8c-0.8,0.3-0.8,0.3,0,0c1.2-0.5,2.3-0.9,3.4-1.4c4.8-1.9,9.6-3.6,14.5-5.2
			c-4.5-5.9-9-11.6-13.4-17.5c-0.7,1.3-1.5,2.5-2.3,3.7c-0.8,1.1-0.8,1.2-0.1,0.2c-0.5,0.6-0.9,1.1-1.4,1.7
			c-1.7,1.9-3.5,3.7-5.4,5.4c-1.1,1-2.3,1.9-3.4,2.8c1.6-1.2-0.8,0.6-1.1,0.8c-2.3,1.7-4.8,3.4-7.2,5.1c5.4,5.4,10.8,10.8,16.3,16.3
			c0.6-1.3,1.3-2.6,2.1-3.9c0.4-0.6,0.8-1.2,1.2-1.8c-0.8,1-0.7,1,0.2-0.1c1-1,2-2.1,3.2-3c-1.8,1.5,1.7-1,2.1-1.2
			c-5.9-4.5-11.6-9-17.5-13.4c-0.4,1.1-0.4,1.3-0.1,0.5c0.3-0.8,0.2-0.7-0.3,0.3c1.3-1,0.2-0.6-0.3,0.3c-0.8,1.3,1.9-1.4-0.3,0.3
			c-1.9,1.4,1.6-0.3-0.8,0.4c3,7.2,6.1,14.5,9.2,21.7c13.6-9.9,27.3-19.7,40.8-29.8c13.4-10,25.1-20.7,34.5-34.6
			c8.6-12.7,14.9-26.9,20.3-41.4c2.9-7.7,5.9-15.4,6.8-23.7c1-8.1-0.6-16.3-3.7-23.7c-6.1-14.6-15.6-29.6-28.4-39.2
			c-13.8-10.3-31.9-10.5-47.8-5.1c-15,5.2-28.6,13.9-40.4,24.4c-5.6,5-11.4,10.6-15.4,17c-3.6,5.5-3.9,12-1,17.9
			c1.7,3.5,4.2,6.7,6.4,9.9c10.7,15.5,22.1,30.5,34,45.1c5.5,6.8,11,13.7,17.1,19.9c7.7,7.7,17,12.3,28,10.3
			c8.8-1.7,11.5-14.1,5.2-19.8c-6.2-5.7-12.1-11.7-17.7-18.1c-2.8-3.2-5.4-6.4-8.1-9.7c1.3,1.7-0.7-0.9-1-1.2
			c-0.7-0.9-1.4-1.9-2.1-2.8c-1.2-1.7-2.5-3.4-3.7-5.2c-4.8-7-9.2-14.2-13.2-21.6c-2-3.7-3.9-7.5-5.7-11.3c-0.9-1.9-1.7-3.9-2.5-5.8
			c0.9,2.1-0.6-1.3-0.6-1.4c-0.4-1-0.8-2.1-1.2-3.2c-6.6,3.9-13.2,7.7-19.8,11.6c25,23.2,49,47.6,72.2,72.7
			c9,9.8,26.3-3.1,18.7-14.4c-10.1-14.8-20.1-29.6-30.1-44.5c-9.4-13.9-19.7-27.5-26.9-42.6c-5.4,5.4-10.8,10.8-16.3,16.3
			c12.8,7.9,25.3,16.3,37.3,25.4c2.1,1.7,4.1,3.1,7,5.4c3,2.3,5.9,4.8,8.7,7.2c5.9,5,11.6,10.1,17.3,15.4c4.5,4.3,12.4,4.8,16.8,0
			c4.8-5.2,4.1-11.6,0-16.8c-19.6-25.2-39.2-50.4-58.8-75.7c-3.9,6.6-7.7,13.2-11.6,19.8c1.2,0.6,1.2,0.5,0,0
			c0.6,0.3,1.2,0.6,1.9,0.8c1.2,0.6,2.5,1.2,3.7,1.7c2.5,1.2,4.9,2.5,7.3,3.9c4.8,2.7,9.4,5.7,13.8,9.1c-2.1-1.6,1.2,1,1.6,1.4
			c1,0.9,2.1,1.8,3.1,2.7c1.8,1.6,3.5,3.2,5.2,5c1.9,1.9,3.7,4,5.4,6.1c0.8,1,0.8,1,0,0c0.4,0.6,0.8,1.1,1.2,1.7
			c0.8,1.1,1.5,2.2,2.3,3.3c1.4,2.3,2.8,4.5,4.1,7c0.6,1.2,1.2,2.4,1.8,3.7c0.6,1.2,0.6,1.2,0-0.1c0.3,0.6,0.5,1.2,0.8,1.9
			c0.8,2.2,1.6,4.5,2.2,6.8c0.1,0.5,1,4.5,0.8,2.8c0.1,0.8,0.1,1.7,0.1,2.5c0.3-1.1,0.2-0.9-0.1,0.6c0.7-1.4,0.7-1.4,0-0.2
			c1-1.1,1-1.2,0.1-0.2c1.6-1.2,2.5-0.9,4.2-1.3c1,0.5,0.9,0.4-0.4-0.2c-0.8-0.4-1.4-0.8-2.2-1.2c-1.6-0.9-3.1-1.8-4.6-2.6
			c-6.2-3.5-12.4-7.1-18.6-10.6c-9.1-5.2-20,3.4-17.5,13.4c1.2,5,2.5,10.1,3.4,15.2c0.2,1.2,0.4,2.3,0.6,3.4
			c0.1,0.6,0.2,1.2,0.3,1.7c-0.1-0.5-0.2-2.1,0,0.3c0.3,2.5,0.5,5,0.6,7.4s-0.1,4.9-0.2,7.3c0,0.1-0.1,2,0,0.6s-0.1,0.8-0.2,1.2
			c-0.2,1.2-0.5,2.5-0.8,3.8c-0.3,1-0.6,2.1-1,3.2c-0.7,2.1-0.2,0.8,0,0.3c-0.2,0.5-0.5,1-0.7,1.5c-0.5,1-1,2-1.6,3
			c-0.3,0.5-0.6,0.9-0.8,1.4c0-0.1-1.8,2.5-1,1.4c0.6-0.8-1.2,1.2-1.4,1.7c-0.8,0.9-1.7,1.8-2.6,2.6c-0.8,0.8-1.6,1.4-2.4,2.1
			c-0.1,0.1-1.4,1.2-0.5,0.4c1-0.8-0.8,0.6-1,0.7c-4,2.8-8.2,5.3-12.5,7.6c-4.9,2.5-9.9,5-14.9,7.2c-1.2,0.6-2.3,1-3.4,1.5
			c-0.6,0.3-1.2,0.5-1.7,0.8c0.3-0.1,1.2-0.5-0.1,0c-2.8,1.1-5.5,2.2-8.3,3.2c-12.1,4.5-24.4,8.3-36.9,11.3
			c4.9,2.8,9.8,5.5,14.6,8.3c0.5,1.5,0.3,2.8-0.3,4c-0.4,0.8-0.3,0.7,0.2-0.3c-1.1,1.3-0.2,0.3,0.5-0.4c1.5-1.5,3.2-2.8,4.8-4.1
			c1.7-1.4,3.5-2.8,5.3-4.3c0.4-0.3,2.2-1.7,1-0.8c1-0.8,2-1.5,3-2.2c7.1-5.3,14.3-10.3,21.8-15.2c15.1-9.6,30.9-18.2,47.2-25.5
			c-5.4-1.4-10.8-2.8-16.3-4.3c-1.2-3-1.1-3.7-0.2-6.2c-0.7,1.9,1.2-0.9-0.5,0.6c-1.9,1.6,1.5-0.6-0.8,0.7c-0.8,0.4-1.4,0.9-2.2,1.2
			c-4.7,2.4-6.8,3-11.6,4.9c-9.2,3.7-18.5,6.9-27.9,9.8c-18.9,5.8-38.2,10-57.8,12.7c3.9,6.6,7.7,13.2,11.6,19.8
			c7.2-5.8,13-10.2,20.9-16c7.4-5.4,14.9-10.6,22.5-15.7c15.4-10.3,31.2-19.9,47.3-28.9c-5.9-4.5-11.6-9-17.5-13.4
			c-0.4,2.3,0.8-0.7,1.2-1.2c-1.7,2.1,1.9-0.8-0.6,0.6c-1.9,1-3.7,1.9-5.6,2.8c-5,2.1-10,4.3-15,6.4c-9.6,4.1-19.2,8.1-28.7,12.2
			c-9.6,4.1-19.2,8.1-28.7,12.2c-4.3,1.9-8.3,3.9-11.7,7c-2.1,1.9-3.8,4.3-5.4,6.5c-0.1,0.2-2.4,2.8-0.8,1.1c-0.5,0.6-1,1-1.4,1.5
			c1-0.8,1.2-0.8,0.5-0.4c-0.7,0.4-1.4,0.8-2.1,1.2c2.5-1.3-0.3-0.1-0.8,0.1c-2.7,1,2.2,0.1-0.7,0.2c-1,0-2,0-3,0
			c-2.2,0-0.3,0,0.2,0.1c-1-0.2-2-0.4-3-0.6c-0.4-0.1-3.5-1.2-0.9-0.1c-1.4-0.6-2.6-1.3-3.9-2.1c-3-1.9-4.7-3.4-8.1-7
			c-3.3-3.5-6.3-7.3-9.4-11c-6.4-7.7-13-15.4-19.2-23.2c-0.8-0.9-1.5-1.9-2.2-2.8c1.3,1.7-1-1.4-1-1.4c-1.3-1.7-2.5-3.5-3.7-5.3
			c-2.7-4.1-5.2-8.3-7.2-12.8c0.2,0.5,0.6,1.7-0.1-0.3c-0.3-1-0.8-2.1-1.1-3.1c-0.7-2.1-1.1-4.3-1.6-6.4c-0.8-3.4,0.1,2.3-0.2-1.2
			c-0.1-0.8-0.1-1.4-0.1-2.2c-0.1-2.5-0.1-5.1,0.2-7.6c-0.3,2.8,0.2-0.8,0.3-1.1c0.1-0.7,0.3-1.4,0.6-2.1c0.3-1,0.6-2.1,1-3
			c-0.9,2.4,0.5-0.8,0.6-1c0.6-1,1.1-1.9,1.7-2.8c1.7-2.8-1.4,1.2,0.9-1.1c1.6-1.7,3.1-3.2,4.8-4.7c2.6-2.3-1.8,1,1.2-0.9
			c1-0.6,1.9-1.2,2.8-1.9c1.6-1,3.2-1.9,4.8-2.8c1.9-1,3.9-1.9,5.9-2.9c3.2-1.4-2.1,0.8,1.2-0.5c1-0.3,2.1-0.8,3-1.1
			c4.1-1.4,8.3-2.5,12.6-3.4c0.7-0.1,1.4-0.3,2.1-0.4c0.3-0.1,3.9-0.5,1.2-0.2c2.5-0.3,5-0.5,7.6-0.6c4-0.1,7.9,0.1,11.9,0.5
			c3.5,0.3-2.3-0.5,1.1,0.1c0.7,0.1,1.4,0.3,2.1,0.3c2.5,0.5,4.9,1,7.3,1.8c1.9,0.6,3.7,1.2,5.6,1.9c0.6,0.2,2.7,1.2,0.6,0.2
			c1,0.4,1.9,0.9,2.9,1.4c4,2,7.8,4.3,11.3,7c-1.8-1.4,1.2,1,1.2,1c0.9,0.8,1.7,1.5,2.6,2.3c1.4,1.3,2.8,2.6,4.2,4
			c3.3,3.3,6.3,6.8,9.3,10.4c1.5,1.8,3,3.7,4.4,5.5c-1.4-1.8,1,1.2,1,1.3c0.7,0.9,1.4,1.9,2.1,2.8c2.8,3.7,5.7,7.4,8.3,11.3
			c2.4,3.5,4.5,7.2,6.4,11c1.6,3.2-0.6-2,0.6,1.4c0.3,0.9,0.6,1.8,0.9,2.7c0.1,0.3,0.8,2.8,0.8,2.8c-0.1-0.7-0.1-1.4,0.2-2.1
			c0.5-1.7,1.4-3,2.8-3.8c-2.3,1.6,2.3-0.5-0.5,0.3c-1,0.3-1.9,0.6-2.9,0.9c-1.9,0.6-3.9,1.2-5.8,1.8c-4.6,1.5-9.2,3.2-13.7,5
			c-18.3,7.3-35.8,16.5-51.8,28.1c-1.6,1.2-3.2,2.4-4.8,3.5c-1,0.7-2,1.3-3,1.9c2.1-1.1-1.2,0.8-1.4,0.4c-0.3-0.5,3,0.1,2.7,0.3
			c-0.2,0.2-3.2-2.2-1.2-0.7c-1.9-1.5-3.7-3.2-5.6-5c-7.2-6.5-14-13.5-20.4-20.7c-1.6-1.9-3.2-3.7-4.8-5.6c-0.8-0.9-1.4-1.8-2.2-2.8
			c-2.3-3,0.7,1-0.6-0.8c-2.9-3.9-5.7-7.9-7.9-12.3c-0.9-1.7-1.8-3.4-2.5-5.2c0.9,2.1-0.5-1.4-0.5-1.4c-0.3-1.1-0.8-2.1-1-3.2
			c-0.5-1.7-0.8-3.4-1.2-5.2c-0.7-3.4,0,2.3-0.1-1.1c-0.1-1.4-0.2-2.9-0.1-4.3c0-1.1,0.1-2.1,0.1-3.2c0.1-2.3,0-0.6-0.1,0
			c0.3-2.1,0.8-4.2,1.4-6.2c0.1-0.3,1.5-3.4,0.3-1.1c0.5-1,1-1.9,1.4-2.8c0.3-0.6,0.8-1.2,1.2-1.8c0.8-1.1,0.8-1.2,0-0.1
			c0.4-0.6,0.9-1,1.4-1.5c0.7-0.8,1.5-1.4,2.2-2.1c2.3-2.2-1.9,1,0.8-0.7c1.4-1,2.8-1.9,4.4-2.7c0.9-0.5,1.9-1,2.8-1.3
			c-2.5,1,0.8-0.2,1-0.3c2-0.7,4-1.2,6.1-1.7c1-0.2,2.1-0.4,3.1-0.6c-2.8,0.5,0.6-0.1,1-0.1c2.1-0.2,4.3-0.3,6.3-0.3
			c1.8,0,3.6,0.1,5.4,0.2c1.1,0.1,2.1,0.2,3.2,0.3c1.4,0.1,1.4,0.1,0,0c0.7,0.1,1.4,0.2,2.1,0.3c3.9,0.7,7.6,1.7,11.4,2.9
			c1.7,0.6,3.4,1.2,5,1.8c0.3,0.1,3.5,1.5,1.1,0.5c1.3,0.6,2.6,1.2,3.9,1.8c3.6,1.8,7.1,3.7,10.4,5.9c1.9,1.2,3.7,2.4,5.4,3.7
			c0.8,0.6,1.5,1,2.2,1.6c0.4,0.3,0.9,0.7,1.3,1c-1-0.8-0.9-0.7,0.2,0.1c6.8,5.4,13,11.4,18.7,17.8c1.3,1.5,2.7,3,3.9,4.5
			c-1.4-1.9,0.6,1.1,0.7,1.2c1.2,2.1,0-0.1-0.1-1c-0.3-4.1,0.9-2.1,1.4-4c0.3-0.3,0.6-0.5,0.8-0.8c-0.6,0.3-1.2,0.6-1.7,0.9
			c-2.8,1.3-5.6,2.5-8.4,3.7c-9.6,4.2-19.2,8.5-28.8,12.7s-19.2,8.5-28.8,12.7c-1.2,0.6-2.5,1.2-3.8,1.7c2.5-1-1.3,0.5-1.3,0.3
			c-0.1-0.2,2.8,0,3.1,0.6c-0.1-0.1-1.4-0.8-1.7-1c2.1,1.5-0.4-0.6-0.7-0.8c-0.8-0.8-1.7-1.6-2.4-2.4c-1.9-1.9-3.7-3.9-5.4-5.9
			c-0.5-0.6-1-1.2-1.5-1.7c-0.1-0.1-2.3-3-1-1.2c-1.4-1.8-2.6-3.7-3.8-5.7c-1-1.7-1.8-3.3-2.7-5c-1.7-3.1,0.6,2-0.6-1.3
			c-0.5-1.4-1-2.7-1.3-4.1c-0.3-1-0.5-2.1-0.7-3.1c-0.5-2.3-0.1-0.5-0.1,0c-0.2-2.1-0.3-4.2-0.2-6.3c0-0.4,0.5-3.8,0-1
			c0.2-1,0.4-2.1,0.6-3c0.2-0.7,0.4-1.3,0.6-2c0.5-1.3,0.5-1.3-0.1,0c0.3-0.6,0.6-1.2,0.9-1.9c0.5-0.9,1-1.8,1.6-2.6
			c-1.4,2.1,0.4-0.5,0.8-0.8c0.6-0.6,1.3-1.2,1.9-1.8c1.2-1.3-2.1,1.2,0.5-0.3c1.8-1.1,3.5-2.2,5.4-3c-2.4,1,0.8-0.2,1.1-0.3
			c1-0.3,2.1-0.6,3-0.9c1-0.3,2.1-0.5,3.1-0.7c0.3-0.1,3.9-0.5,1-0.2c1.9-0.2,3.9-0.3,5.8-0.3c1.9-0.1,3.7,0,5.7,0.1
			c1,0.1,2.1,0.1,3,0.2c0.7,0.1,1.4,0.1,2,0.2c-1.4-0.2-1.5-0.2-0.1,0c3.7,0.7,7.3,1.5,10.9,2.6c1.7,0.5,3.2,1.1,4.8,1.7
			c3.2,1.2-2.1-1,1,0.3c1.2,0.6,2.5,1.2,3.7,1.8c3.4,1.7,6.6,3.7,9.6,5.8c0.8,0.6,1.7,1.2,2.5,1.8c-2.1-1.6,0.6,0.5,0.8,0.7
			c1.6,1.3,3.1,2.7,4.5,4.1c1.4,1.4,2.9,2.9,4.2,4.4c0.7,0.8,1.3,1.6,2,2.3c0.3,0.3,1.3,1.8,0,0c2.4,3.3,4.6,6.8,6.5,10.4
			c3.4-6,6.8-11.9,10.3-17.9c-29.9-0.5-60,4.5-88,15.1c4.9,2.8,9.8,5.5,14.6,8.3c-1.7,5.4-1.9,7-0.7,5c0.3-0.6,0.3-0.6,0-0.1
			c-1,1.1,1.2-1.2,1.4-1.4c1.4-1.4,2.8-2.9,4.3-4.3c2.9-2.8,5.9-5.7,8.9-8.3c2.9-2.5,5.8-5.1,8.8-7.5c0.8-0.6,1.6-1.3,2.3-1.9
			c0.2-0.1,2.5-1.9,1.7-1.3c-0.7,0.6,1.7-1.3,1.7-1.3c0.8-0.6,1.7-1.2,2.5-1.8c6.4-4.7,13-9,19.8-13c1.8-1,3.6-2,5.4-3
			c0.8-0.3,1.4-0.7,2.2-1c3.4-1.6-1.9,0.6,1.7-0.7c1.7-0.6,3.4-1.2,5.2-1.6c0.7-0.1,2.7-0.6,1-0.3c1.2-0.2,2.4-0.2,3.7-0.2
			c-2.8-6.8-5.6-13.5-8.4-20.3c-10.8,11.5-22.1,22.5-33.9,32.9c-5.9,5.1-11.8,10.1-17.8,15c-5.6,4.4-11,8.5-17.7,13.3
			c5.9,4.5,11.6,9,17.5,13.4c0.3-1.3,0.7-2.5,1.2-3.8c-0.9,2.3,0.6-0.9,1-1.6c0.3-0.4,0.6-0.8,0.8-1.2c0.8-1.5-1.2,1.3-0.1,0.1
			c1-1,2.1-2.1,3.1-3.2c0.4-0.4,1.7-1.1-0.1,0c0.6-0.3,1.1-0.8,1.7-1.1c0.4-0.3,3.3-1.8,2.1-1.2c-1.4,0.7,0.5-0.2,0.9-0.3
			c0.6-0.2,1.2-0.4,1.9-0.6c0.5-0.1,1-0.2,1.4-0.3c2-0.4,0,0.1-0.8-0.2c-0.5-0.1-3.2-1.5-3-2.3c0,0.2,0.7,1.2,0.8,1.4
			c0.3,0.6,0.6,1.2,0.9,1.9c0.8,1.6-0.5-1.7,0,0c0.8,2.6,1.5,5.2,2.1,7.9c0.4,1.8-0.1-1.9,0-0.1c0,0.7,0.1,1.4,0.1,2.1
			c0.1,1.2,0.1,2.4,0,3.6c0,0.8-0.6,4.5-0.1,1.9c-0.3,1.5-0.6,3-1,4.4c-0.3,1.1-0.7,2.3-1.2,3.3c1-2.3-0.6,1-1,1.7
			c-0.3,0.6-2.6,3.6-1,1.7c-0.9,1-1.9,2.1-2.9,3c-0.3,0.3-0.7,0.6-1,0.9c1.7-1.6,0.7-0.5,0.1-0.2c-1,0.7-2.1,1.3-3.2,1.9
			c-0.6,0.3-1.1,0.6-1.7,0.8c0.4-0.2,2.3-0.8,0.2-0.1c-1.2,0.3-2.3,0.8-3.6,1c-0.6,0.1-1.2,0.2-1.9,0.3c2.5-0.6,1.1-0.1,0.4-0.1
			c-1.2,0-2.5,0.1-3.7,0.1c-0.5,0-0.9-0.1-1.4-0.1c-1.7-0.1,2,0.6,0.4,0.1c-1.2-0.5-2.7-0.7-4-1.1c-0.8-0.3-1.4-1,0.3,0.1
			c-0.5-0.3-1.1-0.6-1.7-0.9c-0.6-0.3-1-0.7-1.6-1c0.1,0.1,1.4,1.3,0.5,0.3c-1-0.9-1.9-1.9-2.9-2.8c-1-0.8,0.1,0.3,0.3,0.5
			c-0.6-0.8-1.2-1.7-1.7-2.5c-0.6-1-1.2-2.1-1.7-3.1c-0.1-0.3-1-2.3-0.4-0.9s-0.2-0.7-0.3-1c-0.9-2.6-1.6-5.3-2.1-8.1
			c-0.1-0.7-0.2-1.4-0.3-2.1c-0.4-1.8,0.2,1.9,0,0.1c-0.1-1.2-0.3-2.5-0.4-3.8c-0.3-3.5-0.4-7-0.4-10.6c0-3.1,0.1-6.2,0.4-9.3
			c0.1-1.7,0.3-3.3,0.6-5c-0.1,0.6-0.3,1.9,0.1-0.6c0.1-1,0.3-2.1,0.6-3.1c1.2-6.3,2.8-12.5,5-18.7c0.6-1.6,1.2-3.1,1.8-4.7
			c0.1-0.3,1.1-2.1,0.1-0.3c0.3-0.6,0.6-1.2,0.9-1.8c0.6-1.1,1.2-2.1,1.9-3.1c0.2-0.3,1.5-2,0.6-0.9c-1,1.2,0.9-0.9,1-1.1
			c0.5-0.5,1-0.9,1.4-1.4c-0.3,0.3-1.9,1.3-0.1,0.2c1-0.6,1.4-0.2-0.3,0.1c0.4-0.1,1.6-0.7,0.1-0.2c-2,0.7,1.5-0.1-0.5-0.1
			c-2.1,0,1.4,0.6-0.3-0.1c-1.8-0.8,1.3,1.1-0.1-0.1c-1.2-1,0.8,1,0.9,1c-1.5-1.7,0.2,0.6,0.6,1.3c0.3,0.6,0.6,1.2,0.9,1.8
			c0.9,1.6-0.7-1.9,0,0c1.1,3.2,2.3,6.5,3.2,9.8c0.8,2.8,1.3,5.5,1.8,8.3c0.1,0.8,0.3,1.6,0.4,2.4c-0.3-1.9,0,0.1,0.1,0.4
			c0.1,1.8,0.3,3.7,0.4,5.4c0.2,3.7,0.1,7.3-0.1,10.9c-0.1,1.8-0.3,3.7-0.5,5.4c0.2-1.9-0.3,2.2-0.5,2.8c-0.7,3.6-1.5,7.1-2.6,10.6
			c-0.2,0.8-0.6,1.5-0.8,2.3c0.6-1.4,0.8-1.7,0.3-0.8c-0.3,0.6-0.3,0.6,0.2-0.1c0.1-0.1,0.3-0.3,0.4-0.5c5.4-2.9,9.4-2.8,12.1,0.4
			c0.8,1.1,1,2.1,0.3,0.3c-2.6-7.3-4.7-14.7-5.9-22.4c-0.1-0.6-0.2-1.2-0.3-1.9c-0.1-0.8-0.1-0.8,0,0c-0.1-0.4-0.1-0.8-0.1-1.3
			c-0.2-1.9-0.4-3.9-0.5-5.8c-0.3-4.1-0.3-8.1-0.1-12.3c-7.8,1-15.6,2.1-23.4,3.2c0.6,2.8-0.6-1.6,0.1,0.9c-0.1,1.4-0.1,1.4,0.1-0.1
			c-0.1,0.5-0.2,1-0.3,1.5c-0.3,0.8-0.1,0.7,0.3-0.4c-0.2,0.5-0.5,0.9-0.7,1.4c-0.3,0.5-0.6,0.9-0.8,1.3c0.8-1,0.8-1.1-0.1-0.1
			c6.6,1.7,13.2,3.5,19.8,5.2c-0.6-2.2-1.2-4.4-1.7-6.7c-0.1-0.6-0.4-2.8-0.2-1.2c-0.1-1.2-0.3-2.5-0.3-3.7c-0.1-1-0.1-1.9-0.1-2.9
			c-0.1-2.2-0.5-0.3-0.2,0.2c-0.1-0.1,0.5-2.4,0.6-2.5c-0.2,0.5-0.3,0.9-0.6,1.4c0.6-0.9,0.6-0.9-0.1,0c-2.3,1.7-4.1,3.7-7.5,2.5
			c-0.5-0.1-2.6-1.7-1.7-0.8c0.9,1-0.8-1.5,0.3,0.3c0.6,1,1.2,2.1,1.7,3.2c0.1,0.3,0.3,0.8,0.5,1.1c-0.3-0.8-0.4-0.8-0.1-0.1
			c0.3,1,0.6,1.9,0.9,2.9c0.3,1.2,0.6,2.3,0.8,3.5c-0.3-2.1,0,1.2,0,1.7c0.3,6.2,5.3,12.2,11.9,11.9c6.2-0.3,12.1-5.2,11.9-11.9
			c-0.3-8.1-2.3-16.1-6.4-23.2c-4.5-7.9-13.2-14.3-22.7-11.3c-17.3,5.5-13.9,28.6-10.1,41.9c2.5,8.5,13.5,11.6,19.8,5.2
			c7.3-7.4,9.9-17.6,7.7-27.6c-1.2-5.8-7.5-9.2-13-8.5c-5.9,0.8-10.1,5.7-10.3,11.6c-0.3,9.6,0.6,19.3,2.2,28.9
			c1.5,8.8,3.8,18.1,7.8,26.1c2.7,5.3,7.9,9.5,14.1,9.5c6.2,0,11.3-3.7,14.3-8.9c4.4-7.8,5.7-18.1,6.8-26.9
			c2-16.9-0.3-34.7-6.8-50.5c-3.6-8.7-9-16.7-18.7-19.2c-9.6-2.4-19.2,2.5-25.2,9.9c-11.1,13.9-15.2,33.4-17.1,50.6
			c-1.8,16.4-1,34.2,5.9,49.4c6.7,14.9,21.7,24.8,38.2,23.6c17.3-1.3,31.6-11.6,38.1-27.6c3.5-8.7,4.1-18.1,2.8-27.2
			c-1.3-8.9-5-21-13.6-25.4c-9.5-4.8-22.1-1-30.3,5.1c-7.8,5.8-13.7,13.6-16.1,23.2c-1.1,4.7,0.4,9.5,4.3,12.5
			c3.5,2.7,9.4,3.7,13.2,0.9c26.8-19.2,51.8-40.8,74.4-64.9c6.8-7.2,2.2-20.6-8.4-20.3c-20.2,0.5-38.5,13.4-54,25.2
			c-7.9,6-15.6,12.3-22.9,19.1c-7.4,6.9-20.5,17.1-16,28.7c2.2,5.6,8.1,10.8,14.6,8.3c13.3-5,27.1-8.8,41.1-11.2
			c1.7-0.3,3.4-0.6,5.1-0.8c0.8-0.1,1.7-0.3,2.5-0.3c-1.3,0.2,0.3,0,0.7-0.1c3.4-0.4,6.8-0.8,10.3-1c7.3-0.6,14.6-0.8,22-0.6
			c9.4,0.1,14.3-10.1,10.3-17.9c-9.1-17.2-24.3-31.5-42.1-39.6c-18.2-8.3-40.2-12.1-59.6-5.6c-10.7,3.7-20.7,10.6-25.6,21.1
			c-4.9,10.5-5.8,21.9-3.1,33.1c2.6,11,9,20.7,16.1,29.2c7.8,9.3,17.2,19.6,30.5,17.2c6-1.1,11.9-4.6,17.5-7.1
			c5.7-2.5,11.3-5,17-7.4c11.1-4.9,22.1-9.8,33.2-14.6c5.3-2.3,11.9-4.2,16-8.4c6.1-6.1,6.5-14.3,3.2-21.8c-2.2-5.1-6.3-9.4-10-13.4
			c-3.3-3.7-6.8-7.2-10.5-10.5c-15.1-13.8-33-25.2-52.9-30.4c-19.5-5-43.5-4.8-60.4,7.4c-9.2,6.7-16.1,15.9-18.7,27.1
			c-2.5,10.6-1.9,22.1,1.7,32.4c7.3,21.4,23.8,39.2,39.8,54.7c9.2,8.9,19.2,20,33.4,16.5c5.9-1.4,10.6-5.2,15.4-8.7
			c4.5-3.2,9-6.2,13.7-9c9.2-5.6,18.7-10.5,28.6-14.8c-1.4,0.6,1.2-0.5,1.7-0.7c1.3-0.6,2.6-1,3.9-1.6c2.5-1,5-1.9,7.4-2.7
			c5.1-1.8,10.3-3,15.3-5.2c27.6-11.6-0.5-46.9-11.2-61c-13.6-17.8-28.3-34-49.6-42.6c-19.1-7.7-41.3-7.9-60.9-2.2
			c-20.8,5.9-42.9,18.7-49.2,40.8c-6.3,21.8,3.1,44.1,16.1,61.4c7.1,9.4,14.8,18.4,22.4,27.5c7.4,8.8,14.4,18,24,24.5
			c9,6.2,21.2,8.9,31.9,5.7c6.1-1.9,11.2-5.3,15-10.3c0.9-1.1,1.8-2.2,2.5-3.4c0.8-1.1-0.1,0-0.2,0.2c0.3-0.4,0.7-0.8,1.1-1.2
			c0.2-0.2,1.9-1.7,0.8-0.8c-1,0.8,0.4-0.2,0.6-0.3c1.1-0.6,2.2-1.2,3.3-1.8c10.7-5.1,21.8-9.4,32.8-14c11-4.7,22.1-9.4,33.1-14.1
			c9.9-4.2,23.7-8.1,25.8-20.5c0.8-4.8-0.2-9.4-4.3-12.5c-3.8-3-9-3.3-13.2-0.9c-33.6,18.7-65.5,40.2-95.5,64.2
			c-3.9,3.1-4.5,10.3-1.9,14.4c3.1,4.8,7.9,6.2,13.4,5.4c22.5-3.1,44.7-8.2,66.3-15.4c11.2-3.7,22.1-8,32.9-12.7
			c4.8-2.1,9.4-4.8,12.9-8.8c5.7-6.6,6.5-13.9,3.1-21.8c-1-2.4-4.6-4.9-7.1-5.4c-3.3-0.8-6.1-0.2-9.2,1.2
			c-18.2,8.2-35.8,17.8-52.4,28.9c-8.8,5.8-17.2,12.1-25.4,18.5c-9.4,7.4-19.2,14.9-16.5,28.3c1.3,6.5,8.8,9.7,14.6,8.3
			c24.3-5.8,48-14.5,70.1-26c9.7-5,19.5-11.2,26.5-19.6c8.3-10,12.4-21.9,13-34.8c0.6-13.3-2.5-26.7-5.7-39.4
			c-5.9,4.5-11.6,9-17.5,13.4c5.8,3.3,11.6,6.6,17.4,9.9c6.2,3.6,12.5,8.1,20.1,7.9c8.3-0.1,15-5.9,18.1-13.3c3-7,1.9-14.7-0.1-21.8
			c-6.2-21.7-20.8-39.4-38.6-52.8c-9.8-7.4-20.7-13-32-17.6c-4.6-1.9-11.2,1.2-13.4,5.4c-2.7,5.1-1.5,10.1,1.9,14.4
			c19.6,25.2,39.2,50.4,58.8,75.7c5.6-5.6,11.2-11.2,16.8-16.8c-23-21.5-48.2-40.7-75.1-57.1c-4.3-2.6-10.9-1.9-14.4,1.9
			c-3.8,4.1-4.3,9.4-1.9,14.4c7.3,15.2,17.6,28.7,26.9,42.6c10.1,14.8,20.1,29.6,30.1,44.5c6.2-4.8,12.5-9.6,18.7-14.4
			c-23.4-25.4-47.3-49.7-72.4-73c-3.7-3.4-9.9-4.8-14.4-1.9c-4.1,2.7-7.4,8.5-5.4,13.4c13.5,34.5,34.4,65.7,61.7,90.8
			c1.7-6.6,3.5-13.2,5.2-19.8c2.3-0.4,0.8-0.1,0.1-0.1c2-0.1,1.1,0.2,0.2-0.1c-2.1-0.7-0.4-0.1,0,0.1c-0.6-0.3-1.2-0.7-1.8-1
			c-1.9-1-0.7-0.4-0.2,0c-0.6-0.4-1.1-1-1.7-1.4c-1.4-1.2-2.6-2.5-3.9-3.9c-4.7-5.2-9.2-10.6-13.6-16c-2.2-2.6-4.3-5.3-6.5-8
			c-1.1-1.3-2.1-2.7-3.2-4.1c-0.6-0.7-1-1.4-1.6-2c-0.5-0.6-0.6-0.7-0.1-0.1c-0.3-0.3-0.6-0.7-0.8-1c-4.4-5.8-8.8-11.6-13-17.6
			c-2-2.8-4-5.6-5.9-8.4c-1-1.4-1.9-2.8-2.9-4.3c-0.6-0.8-2.5-4.9-3.4-5.2c0.7,0.2,0.1,5.2,0.2,5.6c0,0-1.8,2.1,0.3-0.3
			c1-1.2,1.9-2.3,3-3.4c2.1-2.4,4.4-4.7,6.8-6.9c2.2-2.1,4.5-4.1,6.8-5.9c1.5-1.2-1.2,1,0.3-0.2c0.6-0.5,1.2-0.9,1.8-1.4
			c1.4-1,2.8-2,4.2-2.9c2.5-1.7,5.1-3.2,7.8-4.7c1.3-0.8,2.7-1.4,4-2.1c0.7-0.3,1.4-0.7,2.1-1c0,0,3.4-1.4,1.6-0.7
			c3-1.2,6.1-2.2,9.2-3c1.5-0.4,3.1-0.7,4.7-1c-0.6,0.1-2,0.1,0.3,0c1-0.1,1.9-0.1,3-0.1c0.8,0,1.6,0,2.3,0c0.3,0,2.7,0.2,1.3,0.1
			s1,0.2,1.3,0.3c0.8,0.1,1.5,0.3,2.3,0.6c0.8,0.2,1.4,0.5,2.2,0.7c1.9,0.6-1.3-0.7,0.3,0.1c1.4,0.8,2.8,1.6,4.2,2.5
			c1.9,1.2,0.6,0.4,0.2,0.1c0.7,0.6,1.4,1.2,2.1,1.8c1.1,1,2.1,2.1,3.1,3.1c0.5,0.6,1,1.1,1.4,1.7c0.2,0.2,1.7,2,0.8,1
			c-0.8-1,0.6,0.8,0.8,1c0.6,0.8,1.1,1.5,1.6,2.3c3.7,5.4,7.2,11.1,10,17.1c-0.8-1.8,0.8,2.3,1,2.6c0.5,1.5,0.8,3,1.2,4.5
			c0.1,0.3,0.4,2.3,0.1,0.3c0.1,0.8,0.1,1.5,0.2,2.3c0,0.8,0,1.6,0,2.3c0,0.3-0.3,3.2-0.1,2c0.2-1.3-0.3,1.2-0.3,1.4
			c-0.2,0.8-0.4,1.6-0.6,2.3c-0.4,1.6-1,3.1-1.4,4.7c-1.1,3.2-2.2,6.3-3.4,9.4c-1.1,2.9-2.2,5.8-3.4,8.7c-0.9,2.2-0.3,0.9-0.1,0.4
			c-0.3,0.7-0.6,1.4-0.9,2.1c-0.8,1.8-1.6,3.6-2.4,5.3c-2.8,5.8-5.8,11.4-9.2,16.8c-0.9,1.4-1.9,2.9-2.9,4.3
			c-0.4,0.6-0.9,1.2-1.3,1.9c0,0.1-2.2,3-0.9,1.3c-2.2,2.9-4.7,5.7-7.2,8.3c-2.7,2.8-5.6,5.4-8.5,7.9c-1.4,1.2-2.9,2.3-4.3,3.5
			c-1.6,1.2,1.1-0.8-0.6,0.4c-0.8,0.6-1.7,1.2-2.5,1.9c-13.5,10.1-27.2,19.8-40.8,29.8c-4.8,3.5-7.3,9-4.9,14.9
			c2.2,5.2,8.3,8.7,14.1,6.9c9.2-2.9,15.6-9.4,18.7-18.5c3.4-9.9-8.9-18.6-17.5-13.4c-7.3,4.4-13.5,10.8-17.2,18.5
			c-2.2,4.6-2.2,10.7,1.9,14.4c3.7,3.4,10,4.9,14.4,1.9c11.3-7.8,22.7-16.1,29.6-28.3c4.9-8.7-3.3-20.7-13.4-17.5
			c-20.5,6.6-40.2,15.8-58.4,27.4c-6.2,4-8.3,13.3-2.4,18.7c8,7.4,15.9,14.7,23.9,22.1c4.5,4.2,12.3,4.9,16.8,0
			C665.2,668.4,665.9,660.7,661,656.1L661,656.1z"/>
	</g>
</g>
<g>
	<g>
		<path class="st14" d="M557.3,443.3c-25.8,1.4-49.9,17.2-61.7,40.2c-6.3,12.1-9.2,25.7-7.8,39.4c1.7,15.9,7.3,30.6,15.1,44.4
			c7.9,14,18.1,27,31.9,35.6c5.3,3.3,13.3,1.3,16.3-4.3c3.1-5.8,1.4-12.7-4.3-16.3c-1.2-0.8-2.5-1.6-3.7-2.4
			c-0.3-0.2-1.7-1.4-0.2-0.1c-0.6-0.5-1.1-1-1.7-1.4c-2.2-1.9-4.3-4-6.3-6.2c-0.9-1-1.7-1.9-2.5-3c-1.2-1.4,1,1.3-0.2-0.2
			c-0.5-0.6-0.9-1.2-1.3-1.8c-1.7-2.4-3.4-4.9-4.9-7.4c-3.4-5.4-6.4-11.2-9-17c-0.6-1.2-0.1-0.3,0,0c-0.3-0.8-0.6-1.5-0.9-2.3
			c-0.6-1.5-1.1-3.1-1.6-4.6c-1-3.1-1.8-6.3-2.5-9.4c-0.1-0.4-0.8-4.9-0.5-2.8c-0.2-1.6-0.3-3.2-0.3-4.8c-0.1-3,0.1-6,0.3-9
			c-0.2,2.7,0.1-0.8,0.3-1.6c0.2-1.1,0.5-2.2,0.8-3.3c0.3-1.1,0.6-2.1,1-3.2c0.2-0.6,0.4-1.2,0.6-1.8c0,0,1.1-2.8,0.5-1.2
			c-0.6,1.4,0.2-0.4,0.3-0.8c0.3-0.6,0.6-1.2,0.8-1.7c0.5-1,1-2,1.6-3c0.6-1.1,1.3-2.2,2-3.3c0.3-0.6,0.7-1.1,1.1-1.6
			c0.2-0.3,1.8-2.4,0.8-1.1c-0.8,1,1.2-1.4,1.5-1.8c0.8-1,1.7-1.9,2.6-2.8c1.8-1.9,3.8-3.5,5.7-5.2c-1.9,1.7,1.2-0.8,1.9-1.3
			c1.2-0.8,2.4-1.6,3.7-2.3c1.2-0.8,2.5-1.4,3.8-2.1c0.6-0.3,1.2-0.6,1.7-0.8c1.6-0.8-2.6,1,0.3-0.1c2.5-1,5.2-1.8,7.8-2.4
			c1.4-0.3,2.8-0.6,4.3-0.8c-2.5,0.5-0.9,0.1-0.3,0.1c1-0.1,1.9-0.1,2.9-0.2c6.2-0.3,12.2-5.2,11.9-11.9
			C569,449.1,564,443,557.3,443.3L557.3,443.3z"/>
	</g>
</g>
<g>
	<g>
		<path class="st14" d="M575.8,630.8c5.4,2.9,10.5,6.2,15.4,9.8c1.2,0.9,2.4,1.8,3.6,2.7c0.6,0.4,1.2,0.9,1.8,1.4
			c1.5,1.2-1.2-1,0.3,0.2c3,2.3,6,4.7,9,7c10.3,7.9,20.7,14.9,32.7,19.8c5.8,2.3,13.3-2.5,14.6-8.3c1.6-6.9-2.1-12.1-8.3-14.6
			c2.2,0.9-1.8-0.8-2.2-1c-1.3-0.6-2.6-1.3-3.9-2c-2.5-1.4-5.1-3-7.5-4.5c-2.5-1.7-4.9-3.3-7.2-5.1c-1.2-0.9-2.3-1.8-3.6-2.7
			c-0.6-0.5-1.2-0.9-1.8-1.4c1,0.8,0.8,0.7-0.2-0.2c-9.9-7.6-19.6-15.6-30.7-21.5c-5.5-2.9-13.2-1.6-16.3,4.3
			C568.7,620.1,570,627.7,575.8,630.8L575.8,630.8z"/>
	</g>
</g>
<g>
	<g>
		<path class="st15" d="M753,484.2c1.7,1.4,3.4,2.8,4.9,4.4c0.4,0.5,2.8,3.4,1.1,1.2c0.7,1,1.4,2,2.1,3c0.6,0.9,1.1,1.9,1.6,2.8
			s1.4,3.2,0.6,1c1,2.3,1.7,4.7,2.3,7.2c0.3,1.1,0.5,2.1,0.7,3.2s0.3,3.4,0.2,1.1c0.1,2.5,0.4,5.1,0.3,7.7c0,2.3-0.3,4.5-0.4,6.8
			c0.3-3-0.2,1-0.3,1.6c-0.3,1.2-0.6,2.5-0.8,3.8c-0.6,2.2-1.2,4.4-2.1,6.6c-0.3,0.8-0.6,1.4-0.8,2.2c0.2-0.5,0.8-1.8-0.1,0.3
			c-0.6,1.4-1.3,2.8-2,4.2c-2.6,5.2-5.8,10.1-9.2,14.8c-0.5,0.6-0.9,1.2-1.4,1.9c0,0-1.2,1.5-0.5,0.7c0.8-1-0.7,0.9-0.9,1.1
			c-0.3,0.5-0.8,0.9-1.1,1.4c-2,2.4-4,4.8-6.1,7.2c-3.9,4.4-7.9,8.7-11.9,13c-10.6,11.2-21.2,22.4-31.8,33.6
			c-4.3,4.5-4.8,12.4,0,16.8c4.6,4.3,12.3,4.8,16.8,0c10.2-10.8,20.4-21.5,30.6-32.3c9.2-9.7,18.3-19.5,26.2-30.3
			c14.7-20.1,23.2-44.2,18.1-69.2c-2.5-12.3-9.1-24.5-19.2-32.3c-4.9-3.8-12.1-5.2-16.8,0C749.1,471.6,747.8,480.1,753,484.2
			L753,484.2z"/>
	</g>
</g>
<g>
	<g>
		<g>
			<g>
				<g>
					<g>
						<path class="st16" d="M608.9,651.4c-16.8,0.8-32.9,5.2-47.8,12.9c-4.3,2.2-6.5,7.6-5.9,12.2c0.7,5,4.1,8.6,8.8,10.2
							c7.3,2.5,15.5,2.5,22.8,0.1c-3.2-7.5-6.3-15-9.4-22.5c-5.8,3.4-11.6,6.8-17.7,9.7c-1.4,0.6-1.5,0.7-0.5,0.3
							c-0.8,0.3-1.5,0.6-2.3,0.9c-1.5,0.6-3.1,1.1-4.7,1.5c-1.2,0.3-2.3,0.6-3.6,0.9c-0.8,0.1-1.6,0.3-2.4,0.4
							c1.2-0.1,1.1-0.1-0.3,0c-1.7,0.1-3.2,0.1-4.8,0.1c-0.8,0-1.6-0.1-2.4-0.2c1.2,0.1,1.2,0.1-0.3-0.1c-1.6-0.4-3.2-0.8-4.7-1.4
							c1,0.4,0.9,0.3-0.3-0.2c-1.2-0.8-1.1-0.6,0.3,0.3c-1.2-2.3,1,2.1-0.1,0.1c-1-1.9,0.8,2.8-0.2-0.6c-0.6-1.9-0.9-4-1.5-5.9
							c-2.1-6.5-5.9-11.7-11.7-15.4c-5.9-3.7-12.9-5.9-19.4-8.3c-0.8-0.3-1.5-0.6-2.2-0.9c1.1,0.5,1,0.4-0.3-0.1
							c-1.1-0.5-2.1-1-3.2-1.6c-2.8-1.4-5.4-3.2-7.9-5c-1.2-0.9-1.2-1-0.3-0.3c-0.6-0.5-1.2-1-1.9-1.5c-1.2-1-2.5-2.1-3.7-3.1
							c-2.4-2.1-4.8-4.3-7.2-6.5c-5,6.4-9.9,12.8-14.9,19.3c3.7,1.9,7.1,3.9,10.4,6.3c0.6,0.3,2.9,2.2,0.6,0.4
							c0.8,0.6,1.5,1.2,2.3,1.8c1.3,1.1,2.7,2.3,3.9,3.4c5.4,4.9,10.3,10.2,15.4,15.4c11.3,11.4,24,21.2,39.8,25.2
							c6.2,1.6,13.6-2,15.1-8.5c1.4-6.3-1.9-13.4-8.5-15.1c-1.9-0.5-3.9-1-5.7-1.7c-0.6-0.2-3.4-1.4-0.6-0.2c-0.7-0.3-1.4-0.6-2.1-1
							c-3.1-1.5-6.1-3.4-9-5.4c-0.5-0.3-2.8-2.3-0.3-0.3c-0.7-0.6-1.4-1.1-2.1-1.7c-1.2-1-2.5-2.1-3.7-3.3c-2.5-2.3-5-4.8-7.4-7.3
							c-10.8-11.1-21.7-22.2-35.7-29.2c-5.5-2.8-12-1.9-15.9,3.2c-3.6,4.6-3.6,11.9,1,16.1c8.1,7.4,16.3,15.1,26.1,20.3
							c5.2,2.8,10.7,4.7,16.1,6.8c1.1,0.4,2.2,0.8,3.3,1.3c2.3,0.9,0.8,0.3,0.3,0.1c0.6,0.3,1.1,0.5,1.7,0.8
							c1.1,0.6,2.1,1.1,3.2,1.7c0.5,0.3,1,0.6,1.4,0.9c-0.8-0.6-1.1-1.1-0.3-0.1c-1.4-1.8-0.6-0.6,0.1,0.6c0.8,1.1-0.6-1-0.5-1.1
							c0,0,0.3,1,0.3,1.1c0.4,1.6,0.8,3.2,1.2,4.8c1.3,4.8,3.7,9.3,7.4,12.6c10.1,8.7,25.2,9.4,37.7,6.9
							c12.7-2.5,24.3-9.4,35.2-15.9c5.3-3.1,7.4-9.7,5-15.3c-2.3-5.3-8.7-9.1-14.5-7.1c-1.2,0.4-2.3,0.7-3.4,1c2.1-0.6-0.9,0-1.4,0
							c-0.6,0-3.7-0.6-1.4-0.1c-1.2-0.3-2.3-0.6-3.4-1c1,7.5,1.9,15,3,22.5c1.5-0.8,3-1.5,4.5-2.2c0.8-0.3,1.5-0.7,2.3-1
							c-1.2,0.5,0.1,0,0.6-0.2c3.3-1.2,6.6-2.3,10.1-3.3c3.2-0.8,6.4-1.6,9.6-2.1c0.2-0.1,2.5-0.3,1.4-0.2c-1.2,0.1,1.2-0.1,1.4-0.1
							c1.9-0.2,3.7-0.3,5.5-0.3c6.4-0.3,12.6-5.4,12.3-12.3C620.9,657.3,615.7,651.1,608.9,651.4L608.9,651.4z"/>
					</g>
				</g>
				<g>
					<g>
						<path class="st16" d="M480.7,653.4c20.1,0.6,40.1,1.4,60.2,2.2c9.6,0.3,19.1,0.8,28.7,1.1c5,0.2,10.1,0.3,15.1,0.6
							c2.7,0.1,5.3,0.2,8,0.3c1.4,0.1,2.8,0.1,4.3,0.1c0.3,0,0.8,0.1,1.1,0.1c-1.8-0.1-3.4-0.6-5-1.4c-1.4-1.4-3-3-4.4-4.4
							c0,0,0,0.1,0.1,0.1c-0.4-3.2-0.8-6.3-1.2-9.4c-0.1,0.5,1.6-3.6,1.1-2.6c-0.3,0.5-1.1,2.5-1.3,3c-1.2,3.7-0.1,7.9,2.2,10.9
							c2.5,3.3,6.1,4.8,10.1,5.7c-1.8-6.8-3.6-13.6-5.4-20.5c-4.2,4.3-6.2,10.1-4.8,16.1c0.4,1.8,1.3,3.4,2.3,5
							c0.2,0.3,0.4,0.6,0.6,0.9c1.9,2.3-0.8-6.9-1.1-4.5c0.6-2.1,1.1-4.1,1.7-6.2c-0.5,1,0.1,0.6,1.6-1.5c0.8-1.3,1.9-2.1,3.4-2.5
							c-0.6,0.6-2.3,0.8-3.1,1c-2.3,0.8-4.6,1.4-7,2.1c-4.4,1.2-8.9,2.3-13.4,3.2c-4.5,1-9,1.7-13.5,2.3c2.3-0.3-1.3,0.1-1.4,0.2
							c-0.9,0.1-1.8,0.2-2.7,0.3c-1.8,0.2-3.6,0.3-5.4,0.5c-3,0.2-6.1,0.1-9.1,0c-2.4-0.1,0-0.4,0.5,0.1c-0.2-0.2-2.1-0.3-2.3-0.4
							c-1.3-0.3-2.5-0.6-3.9-1c-0.8-0.3-1.5-0.6-2.3-0.8c-2.1-0.8,1.5,0.8,0.2,0.1c-1.4-0.8-3-1.4-4.5-2.3
							c-3.5-1.9-6.9-4.2-10.2-6.5c-5.3-3.7-13.9-1.1-16.8,4.4c-3.3,6.3-1.2,12.9,4.4,16.8c8.2,5.8,17.3,11.3,27.3,13.2
							c10.5,2,20.9,0.8,31.4-0.6c12.5-1.7,24.9-4.5,36.9-8.5c7.9-2.6,14.5-8.5,12.1-17.7c-0.5-1.9-1.3-3.4-2.4-5
							c-0.8-1.2-0.8-2.5,0.2,0.9c0.4,1.5,0.4,3.1,0.1,4.6c-2.6,3.8-3.2,4.9-1.7,3.2c6.1-6.3,3.9-18.5-5.4-20.5
							c-0.6-0.1-1.7-0.6-2.3-0.6c-0.7-0.2-0.5-0.1,0.8,0.3c1.2,0.4,2.3,1.1,3.2,2.1c1,1.8,2.1,3.6,3.2,5.4c0-0.1,0-0.1-0.1-0.1
							c0,2.2,0,4.3,0,6.5c-1.4,2.6-1.7,3.5-1.1,2.6c0.6-0.9,1-1.9,1.3-3c0.8-2.8,0.5-5.4-0.6-8.1c-1.6-3.7-4.6-6.3-8.5-7.3
							c-5.8-1.5-12.6-0.8-18.5-1c-11.3-0.4-22.5-0.8-33.8-1.2c-22.9-0.9-45.8-1.8-68.8-2.5c-6.4-0.2-12.5,5.8-12.3,12.3
							C468.7,647.9,473.8,653.1,480.7,653.4L480.7,653.4z"/>
					</g>
				</g>
				<g>
					<g>
						<path class="st16" d="M443.3,643.6c4.3,2.3,8.3,5,12.1,7.9c-1.6-1.2,1.2,1,1.4,1.1c0.8,0.6,1.6,1.2,2.4,1.9
							c1.8,1.4,3.6,2.8,5.3,4.2c6.6,5.2,13.1,10.8,19.7,16c13.6,10.7,27.8,19.1,44.6,23.8c6.2,1.7,13.6-2.1,15.1-8.5
							c1.5-6.5-1.9-13.2-8.5-15.1c-2.2-0.6-4.4-1.3-6.5-2c-1-0.3-2.1-0.7-3-1.1c-0.3-0.1-3-1.2-1.4-0.6c1.5,0.6-1-0.5-1.3-0.6
							c-0.9-0.4-1.8-0.8-2.7-1.3c-1.7-0.8-3.4-1.8-5.1-2.8c-3-1.7-5.9-3.7-8.8-5.7c-1.6-1.1-3.1-2.3-4.6-3.4c1.3,1,0.8,0.6-0.2-0.1
							c-0.8-0.6-1.6-1.2-2.3-1.9c-6.5-5.2-12.8-10.5-19.3-15.6c-7.9-6.1-15.4-12.8-24.3-17.5c-5.7-3-13.6-1.7-16.8,4.4
							C435.9,632.5,437.3,640.5,443.3,643.6L443.3,643.6z"/>
					</g>
				</g>
				<g>
					<g>
						<path class="st16" d="M579.2,685.2c0.8,0,1.7,0,2.5,0.1c-0.1,0,3.2,0.4,2.1,0.2c-1.1-0.2,1.2,0.3,1.4,0.3c1,0.2,2,0.4,3,0.7
							c3.4,0.9,6.8,2.1,10.2,3.3c3.6,1.3,7.2,2.8,10.7,4.1c0.3,0.1,2.5,1.1,1.2,0.5c-1.4-0.7,0.8,0.5,1,0.6c0.8,0.5,1.5,1,2.3,1.4
							c4.9,3.2,10.5,3.3,15.9,1.2c3.6-1.4,7.2-3,10.5-4.8c1.5-0.8,3-1.7,4.5-2.3c-1.6,0.8-0.3,0.1,0.6-0.1c0.7-0.2,2.8-0.3,0.4-0.1
							c-2.9-7-5.8-14-8.7-21c-0.8,0.8-1.7,1.6-2.5,2.3c-2.5,2.3,1.8-1.1-1,0.8c-1.7,1.1-3.4,2.2-5.2,3.1c-1,0.5-2.1,0.8-0.5,0.3
							c-1,0.3-2,0.7-3,1s-2.1,0.5-3,0.7c-2.3,0.5,1.1,0.1-0.3,0c-1.9-0.1-3.8,0.1-5.7-0.1c2.8,0.2,0.1-0.1-0.6-0.3
							c-0.3-0.1-0.6-0.1-0.8-0.3c-1.3-0.5-1-0.3,0.8,0.3c-0.1-0.2-1.4-0.8-1.5-0.9c-2.1-1.2,0.6,0.1,0.6,0.6c0-0.4-2.2-2.2-2.6-2.6
							c-5.3-5.7-11.1-9.1-19-10.1c-9.9-1.2-20.2,2.2-28.3,7.6c-5.3,3.6-8.1,11-4.4,16.8c3.4,5.3,11.1,8.3,16.8,4.4
							c1.9-1.3,4-2.5,6.1-3.4c-1.9,0.8,0.9-0.2,1.4-0.3c0.9-0.3,1.9-0.4,2.8-0.6c0.9-0.1,0.8-0.1-0.5,0.1c0.6-0.1,1.1-0.1,1.7-0.1
							c0.9,0,1.7,0.1,2.6,0c2.8,0-2-0.7,0.1,0.1c2.6,1-0.1-0.5-0.3-0.3c0.1-0.1,1.7,1,1.7,1c-0.1,0.1-2.5-2.4-0.6-0.3
							c0.8,0.8,1.5,1.6,2.3,2.4c2.2,2.4,4.6,4.6,7.4,6.3c8.2,5,18.7,5.1,27.8,3.2c9.5-2.1,18.2-7.5,24.9-14.3
							c7.2-7.2,2.2-21.6-8.7-21c-8.4,0.5-14.6,4.7-22,8.1c-1,0.4-2.5,1-0.6,0.3c-0.5,0.2-1,0.4-1.5,0.6c-0.3,0.1-0.8,0.2-1.2,0.3
							c-0.9,0.2-0.6,0.1,0.8-0.1c0.8-0.2,1.7-0.2,2.5,0c0.8,0.1,3.3,0.8,3.4,1.1c-0.1-0.2-0.6-0.4-0.8-0.6c-0.7-0.6-1.4-1-2.2-1.4
							c-6.3-3.7-14.1-6-21-8.5c-7.7-2.8-15.7-4.7-23.9-4.8c-6.4-0.1-12.5,5.7-12.3,12.3C567.2,679.6,572.3,685.1,579.2,685.2
							L579.2,685.2z"/>
					</g>
				</g>
				<g>
					<g>
						<path class="st16" d="M645.4,690.9c4-0.3,8.1-0.6,12.1-0.7c2.1-0.1,4.2-0.1,6.3,0.1c1,0.1,2.1,0.1,3.2,0.2
							c0.7,0.1,1.9,0.1,0.5,0c8.2,1,15.7,5,23.5,7.5c5.4,1.8,10.5,3,16.1,0.8c3.2-1.2,6.3-2.5,9.5-3.7c1.9-0.7,3.7-1.4,5.7-1.9
							c1-0.3,1.4-0.2,0.1-0.1c1.2-0.1,2.3,0,3.4,0.1c6.4,0.8,12.5-6.2,12.3-12.3c-0.3-7.4-5.4-11.4-12.3-12.3
							c-8.1-1-16.1,2.8-23.4,5.7c-1.1,0.4-2.2,0.8-3.3,1.3c-0.6,0.3-2.1,0.4,0.3,0.1c1-0.1,1.8-0.7,3.2,0.2c-2-1.2-5.4-1.7-7.6-2.3
							c-3.9-1.3-7.5-3-11.3-4.3c-4.1-1.4-8.4-2.3-12.7-2.8c-8.5-1.2-17.1-0.7-25.7,0c-6.4,0.5-12.6,5.3-12.3,12.3
							C633.5,684.9,638.6,691.4,645.4,690.9L645.4,690.9z"/>
					</g>
				</g>
				<g>
					<g>
						<path class="st16" d="M723.7,667.3c-20.6,1.9-41.2,2.4-61.8,0.1c-1.1-0.1-2.2-0.3-3.3-0.4c-1.4-0.2-1.4-0.2-0.1,0
							c-0.6-0.1-1.1-0.1-1.7-0.2c-2.4-0.3-4.9-0.8-7.3-1.2c-5.1-0.8-10.1-1.9-15.2-2.9c-5.4-1.2-10.9-2.3-16.3-3.7
							c-1.2-0.3-2.5-0.6-3.7-1c-0.8-0.2-3.2-1.5-0.6-0.1c-0.8-0.5-1.7-0.9-2.5-1.4c2.3,1.4-0.6-0.8-1.1-1.6
							c-1.8,6.8-3.6,13.6-5.4,20.5c2.6-0.6,5.3-1,7.9-1.4c1.3-0.2,2.6-0.4,4-0.6c-1.9,0.3,2.1-0.3,2.1-0.2c5.3-0.6,10.7-1,16-1.3
							c10.7-0.6,21.4-0.7,32.1-0.8c0-8.2,0-16.3,0-24.5c-1.4,0.1-2.7,0-4.1,0c-0.9-0.1-0.8-0.1,0.4,0.1c-0.8-0.1-1.5-0.3-2.3-0.5
							c-2.3-0.6-4.5-1.3-6.8-2.1c-5.2-1.9-10.1-4.1-15.4-5.5c-11.5-3.1-23.6-3.5-35.5-3.9c2.1,7.6,4.1,15.2,6.2,22.9
							c0.6-0.5,1.2-0.9,1.9-1.2c-1.3,0.4-1.3,0.4,0.1,0c1-0.2,3.2-0.6,1-0.3c2.5-0.2,5-0.1,7.6,0.1c6.1,0.3,12.1,0.8,18.1,1.2
							c11,0.8,21.9,1.6,32.9,2.4c10.6,0.8,21.3,1.6,32,2.3c5.9,0.4,11.8,0.8,17.6,1.2c3,0.2,6,0.6,9,0.6c0.9,0.1,0.8,0.1-0.2-0.1
							c0.8,0.1,1.6,0.3,2.4,0.5c1.6,0.3,3.2,0.9,4.7,1.5c-2.8-5-5.7-10.1-8.5-15.1c0.9-2.8,2.6-4.6,5.2-5.2c-0.5,0.2-1,0.3-1.5,0.4
							c-1.2,0.3-2.5,0.6-3.8,0.8c-2.7,0.6-5.4,1.2-8.1,1.7c-2.3,0.5-4.8,0.9-7.1,1.3c-0.3,0.1-4.1,0.6-2.2,0.3
							c1.9-0.3-1.7,0.2-2.1,0.2c-9.9,1-19.7,0.5-29.5-0.5c-6.4-0.6-12.5,6.1-12.3,12.3c0.3,7.2,5.4,11.6,12.3,12.3
							c12.3,1.2,24.3,1.3,36.5-0.4c5.6-0.8,11.1-1.9,16.5-3.1c3.4-0.8,6.8-1.4,10-2.8c4.9-2.1,8.1-6,9.7-11
							c2.3-6.8-2.8-12.7-8.5-15.1c-6.4-2.7-13.5-2.8-20.3-3.3c-6.3-0.4-12.7-0.8-19-1.2c-11.2-0.8-22.5-1.7-33.6-2.5
							c-11.4-0.9-22.8-1.7-34.3-2.5c-12.4-0.8-27.6-3.9-38.5,3.9c-4.3,3.1-7.4,8.3-5.7,13.9c1.7,5.2,6.3,8.9,11.9,9
							c5.5,0.1,11,0.3,16.5,0.8c0.4,0.1,5.1,0.6,3,0.3c1.2,0.2,2.5,0.4,3.8,0.6c2.8,0.6,5.4,1.2,8.1,2c10.7,3.4,20.6,8.9,32.2,8.1
							c6.4-0.4,12.6-5.4,12.3-12.3c-0.3-6.6-5.4-12.3-12.3-12.3c-23,0.2-46,0.7-68.6,5.3c-4.1,0.8-7.5,4.7-8.5,8.5
							c-1.3,4.6,0.4,8.3,3.2,11.9c7.2,9.3,20.6,11,31.4,13.3c11.4,2.5,22.8,4.5,34.4,5.9c21.6,2.8,43.4,2.4,65.1,0.3
							c6.3-0.6,12.6-5.2,12.3-12.3C735.7,673.4,730.6,666.6,723.7,667.3L723.7,667.3z"/>
					</g>
				</g>
				<g>
					<g>
						<path class="st16" d="M669.3,688.4c12.3,13.4,31.7,16.9,47.8,8.5c5.7-3,7.9-11.4,4.4-16.8c-3.7-5.8-10.7-7.6-16.8-4.4
							c-0.6,0.3-1.2,0.6-1.8,0.9c1.4-0.6,1.5-0.7,0.2-0.2c-1.2,0.3-2.5,0.8-3.7,0.9c3.4-0.1-0.8-0.1-1.4-0.1c-0.6,0-1.2-0.1-1.9-0.1
							c1.7,0.2,1.9,0.2,0.4,0c-1.2-0.3-2.5-0.7-3.7-1.1c2.9,1-0.9-0.5-1.5-0.9c-0.6-0.3-3.7-2.9-1.7-1c-1-1-2.1-1.9-3-2.9
							c-4.3-4.8-13-4.8-17.4,0C664.7,676,664.6,683.3,669.3,688.4L669.3,688.4z"/>
					</g>
				</g>
				<g>
					<g>
						<path class="st16" d="M631.5,695.8c7.8,0.8,15.5,0.1,23.2-1.4c1.7-0.3,3.4-0.8,5.1-1.1c0.4-0.1,3.9-0.5,1.9-0.3
							c0.6-0.1,5.2,0.2,3-0.1c1.7,0.2,3.3,0.7,4.9,1.1c13.9,3.4,28,5,42.2,3.7c6.4-0.6,12.6-5.2,12.3-12.3
							c-0.3-6.1-5.4-12.9-12.3-12.3c-7,0.6-14,0.7-21,0c-0.9-0.1-1.7-0.2-2.6-0.3c1.1,0.1,0.9,0.1-0.6-0.1c-1.3-0.2-2.6-0.4-3.9-0.7
							c-3.4-0.7-6.7-1.6-10.1-2.3c-7.9-1.8-15.1-1.2-22.9,0.6c-6.5,1.4-11.5,1.9-19.2,1.1c-6.4-0.7-12.5,6.1-12.3,12.3
							C619.5,690.8,624.6,695.1,631.5,695.8L631.5,695.8z"/>
					</g>
				</g>
				<g>
					<g>
						<path class="st16" d="M712.3,700.3c4.4-0.5,8.4-1.2,11.7-4.3c2.8-2.8,4.1-6.2,4.3-10.1c0-0.3,0.1-1,0-1.3
							c1.1,2.3-2,5.8-3.6,7.2c-1.2,0.6-1.2,0.6,0.2,0.1c0.7-0.2,1.4-0.5,2.1-0.7c1.1-0.3,2.1-0.5,3.2-0.8c-2.4,0.6,0.5,0,1.1,0
							c0.7,0,1.4,0,2.1,0.1c-1.3-0.2-1.5-0.2-0.6-0.1c0.7,0.2,3.7,1.7,1.7,0.4c0.1,0.1,3.1,2,1.4,0.8c2.8,2.1,5.3,4.3,8.5,5.9
							c3.2,1.5,6.5,2.5,9.9,3.2c0-7.9,0-15.8,0-23.6c-0.7,0.3-1.4,0.6-2.1,0.8c1.4-0.1,1.4-0.2,0-0.2c1.2,0.2,1.4,0.2,0.6,0.1
							c-0.6-0.1-1.1-0.3-1.7-0.4c-0.7-0.2-1.4-0.5-2.1-0.8c0.8,0.3,0.8,0.3,0.1,0c-1.3-0.6-2.6-1.2-4-1.9c-3.2-1.4-6.4-2.8-9.9-3.3
							c-1.2-0.2-2.3-0.3-3.5-0.5c-0.8-0.1-1.5-0.3-2.3-0.5c-1.4-0.4-1.5-0.5-0.3-0.1c-5.7-2.9-13.6-1.7-16.8,4.4
							c-3,5.6-1.7,13.7,4.4,16.8c3.8,1.9,7.3,2.8,11.4,3.4c1.6,0.3,3.1,0.6,4.7,1c0.2,0.1,2.3,0.9,1.4,0.5c-1-0.4,2,1,1.9,1
							c7.6,3.6,16.4,6.8,24.7,3.4c4.9-2,9.3-6.1,9-11.9c-0.2-5.2-3.6-10.6-9-11.9c-1.6-0.3-3.1-0.8-4.7-1.2c-3-0.9,1.2,0.9-1.5-0.8
							c-1.2-0.8-1.3-0.9-0.4-0.1c-0.6-0.5-1.2-1-1.9-1.5c-1.4-1.1-2.8-2.3-4.4-3.3c-5.5-3.4-12.3-4.8-18.7-4.2
							c-6.8,0.6-14.9,2.3-20.2,7c-2.3,2.1-4.1,4.8-4.8,7.9c-0.3,1.4-0.5,2.8-0.5,4.2c0.1,5.7,3.8-8.7,8.5-9.2
							c-6.3,0.7-12.6,5.2-12.3,12.3C700.3,694.1,705.5,701,712.3,700.3L712.3,700.3z"/>
					</g>
				</g>
				<g>
					<g>
						<path class="st16" d="M722,688.6c6.3,0,12.7,0,19,0c1.5,0,3.1,0.1,4.5,0c4.8,0.3,2.8-2.3-6.2-7.9c0,0.5,0,0.9,0,1.4
							c-0.3,3.2-0.3,6.5-0.6,9.6c-0.3,6.6,5.7,11.1,11.6,11.6c10.3,0.8,19.2-6.2,25.8-13.4c6.3-7,12.3-14.2,18.5-21.3
							c3.1-3.6,4.3-8.1,2.4-12.7c-1.7-4-6-7.4-10.6-7.1c-15.3,1-30.6,1.2-45.9,0.7c1,7.6,2.1,15.2,3.1,22.7
							c10.9-4.2,19.1-4.2,30.9-4.5c0-7.7,0-15.4,0-23.2c-5.2,0.3-10.4,0.6-15.6,0.3c-1.2-0.1-2.4-0.1-3.6-0.3
							c2.1,0.2-1.2-0.2-1.7-0.3c-2.8-0.6-5.4-1.4-8-2.5c-1,7.6-2.1,15.2-3.1,22.7c15.9,0.5,28.9,2.2,44.3,5.8
							c5.9,1.4,12.8-1.8,14.3-8.1c1.4-5.9-1.8-12.8-8.1-14.3c-16.5-3.9-33.5-6.1-50.5-6.6c-5.8-0.2-10.6,4.5-11.4,10.1
							c-0.8,6.1,2.9,10.5,8.3,12.7c11,4.5,23.3,4.3,35,3.7c6.1-0.3,11.9-5.1,11.6-11.6c-0.3-6.1-5.1-11.8-11.6-11.6
							c-12.5,0.3-25.3,0.8-37.1,5.4c-5.4,2.1-9.1,6.6-8.3,12.7c0.8,5.8,5.6,9.9,11.4,10.1c15.3,0.5,30.6,0.3,45.9-0.7
							c-2.8-6.6-5.4-13.2-8.2-19.8c-5.4,6.2-10.8,12.5-16.1,18.7c-2.3,2.6-4.6,5.2-7.3,7.5c-1.4,1.2,1.2-0.8-0.4,0.3
							c-0.8,0.5-1.6,1-2.4,1.4c1.1-0.6,0.3-0.3-0.3,0.1c1.1-0.1,1.2-0.1,0.4,0c-0.6,0-1.1,0-1.7-0.1c3.9,3.9,7.7,7.7,11.6,11.6
							c0.2-3.9,0.8-8,0.4-11.9c-0.7-7.4-5.4-13.2-13-14.1c-4.5-0.6-9.2-0.2-13.6-0.3c-4.5,0-9.2,0-13.7,0c-6.1,0-11.9,5.3-11.6,11.6
							C710.7,683.3,715.5,688.6,722,688.6L722,688.6z"/>
					</g>
				</g>
				<g>
					<g>
						<path class="st16" d="M803.8,658.7c1-1.8,1.9-3.2,3.4-4.6c-4.5-2.7-9.1-5.3-13.6-8c5.1-2.5,6.4-3.7,3.9-3.5c-0.7,0-1.3,0-2,0
							c-1.1,0-2.2,0.1-3.3,0.1c-2.4,0.1-4.8,0.1-7.3,0.1c-4.8,0.1-9.7,0.1-14.5,0.2c-10.5,0.2-10.5,16.5,0,16.3
							c7-0.1,14.1-0.2,21.2-0.3c6.7-0.1,16.5,0.1,17.8-8.6c0.6-3.7-0.3-7.2-3.8-9.2c-3.2-1.9-7.3-1.2-9.9,1.3c-2.4,2.3-4.4,5-6,7.9
							C784.7,659.6,798.8,667.9,803.8,658.7L803.8,658.7z"/>
					</g>
				</g>
				<g>
					<g>
						<path class="st17" d="M440.1,633.6c9.1,9.9,19.3,18.5,29.9,26.6c5.1,3.9,10.3,7.6,15.6,11.2c4.9,3.4,10.4,6.4,15,10.1
							c3.3,2.7,4.5,5.8,7.2,9.5c3.8,5.2,8.7,8.1,14.7,10.3c12.8,4.5,27.6,5.8,40.6,0.9c6.8-2.5,12.7-6.8,19.6-9
							c4.6-1.4,8.4-1.3,11.7,2.5c2.9,3.3,8.6,3,11.6,0c3.3-3.3,2.9-8.2,0-11.6c-9.3-10.6-23.6-9-35.1-3.7
							c-5.7,2.5-10.8,5.9-16.9,7.4c-5.5,1.4-11.4,1.4-17,0.3c-3-0.6-6.1-1.4-9-2.3c-2.4-0.8-4.6-1.9-5.9-3c-0.1-0.1-1.2-1.4-0.6-0.6
							c0.6,0.6-0.2-0.3-0.3-0.4c-0.6-0.8-1.1-1.7-1.6-2.5c-1.4-2.3-2.8-4.4-4.5-6.4c-4.1-4.9-10.1-8.1-15.3-11.6
							c-5.3-3.6-10.6-7.2-15.8-11c-11.6-8.5-22.6-17.8-32.4-28.3C444.4,614.3,432.9,625.9,440.1,633.6L440.1,633.6z"/>
					</g>
				</g>
				<g>
					<g>
						<path class="st17" d="M598.9,696.7c3.7,0.9,4.2,1,7.3,3.2c2.8,1.9,5.9,2.6,9.2,2.8c10.1,0.4,19.7-3.7,29.2-6.5
							c17.8-5.4,35.8-2.2,51.2,8.3c3.7,2.5,9.1,0.7,11.2-3c2.3-4.1,0.8-8.7-3-11.2c-16.9-11.4-37.9-15.9-57.9-11.4
							c-9.5,2.1-18.7,7-28.5,7.5c-0.8,0.1-1.7,0.1-2.5,0c-0.8,0,1.6,0.2-0.4-0.1c0.9,0.1,1.4,0.8,0.3,0c-0.3-0.3-0.8-0.6-1.1-0.8
							c-3.2-2.1-6.9-3.5-10.7-4.4c-4.3-1-8.9,1.3-10.1,5.7C592,690.8,594.6,695.7,598.9,696.7L598.9,696.7z"/>
					</g>
				</g>
				<g>
					<g>
						<path class="st17" d="M698.8,705.5c8,1.9,14.7-1.7,21.2-6.1c2.7-1.8,5.2-3.9,7.8-5.9c0.4-0.3,0.8-0.7,1.2-1
							c1.7-1.4-0.8,0.4,0.2-0.2c0.3-0.2,0.7-0.4,1-0.6c0.8-0.6-1.8,0.5-0.1,0.1c1.1-0.3-0.1,0.1-0.5,0.1c0.9,0.1,0.4-0.1-0.2-0.1
							c1.2,0.2,2.5,0.6,3.7,1.1c2.8,1,5.2,2.7,7.7,4.2c7,4.2,14.2,6.8,22.4,6.8c10.5-0.1,10.5-16.5,0-16.3
							c-12.7,0.1-21.3-12.7-34.2-11.9c-5.4,0.3-9.2,3.5-13.1,6.8c-2.1,1.7-4.3,3.2-6.6,4.7c-1.7,1.1-4.4,3.2-6.1,2.8
							c-4.3-1-8.9,1.3-10.1,5.7C691.9,699.6,694.4,704.5,698.8,705.5L698.8,705.5z"/>
					</g>
				</g>
				<path class="st18" d="M453.7,646.3l-24-23.9l385.9,18.7l-1,2.1c-8.3,16.8-19,31.6-31.6,43.7l-19.2,18.3c0,0-12.1,2.1-21.8-3.2
					c-3-1.7-6.1-2.6-9.3-3.3c-7.9-1.7-20.5-3.4-25.6,1.3c0,0-0.6,9.8-19,2.5c0,0-30.9-13-45.3-4.5c0,0-5.3,15.4-25.4,3.5
					c0,0-20.4-14-36.5-7.7c0,0-38.5,24.2-64.9,4.5C516,698.2,501.8,685.5,453.7,646.3z"/>
				<ellipse class="st19" cx="628.7" cy="670.1" rx="8.5" ry="9.8"/>
				<ellipse class="st19" cx="730.9" cy="670.1" rx="8.5" ry="9.8"/>
				
					<ellipse transform="matrix(0.1549 -0.9879 0.9879 0.1549 -88.429 1236.823)" class="st19" cx="678.7" cy="670.1" rx="10.2" ry="8.2"/>
			</g>
			<g>
				<g>
					<path class="st20" d="M510.6,730.6c11.9,2.5,23.5,1.7,35.2-1.2c9.6-2.3,19-5.8,28.7-8c1-0.2,2.1-0.5,3.2-0.7
						c0.6-0.1,4.9-0.8,2.1-0.4c-2.7,0.4,0.9-0.1,1.5-0.1c1.4-0.1,2.8-0.1,4.3-0.1c1,0,2.1,0.1,3.2,0.1c3.9,0.3-2.4-0.6,0.4,0.1
						c1,0.2,2,0.4,3,0.8c0.4,0.1,0.9,0.3,1.3,0.5c1.7,0.5-3.6-2-1.2-0.4c0.6,0.4,1.3,0.8,2,1.2c0.3,0.2,0.6,0.4,0.9,0.6
						c1.4,0.8-2.3-1.6-1.9-1.5c1,0.1,2.6,2.3,3.4,3c3.9,3.4,7.9,6.3,13,7.6c12.7,3.4,23.6-3.1,34.5-8.5c0.4-0.2,1.2-0.4,1.5-0.8
						c-0.3,0.3-3.4,1.2-0.9,0.5c1-0.3,1.9-0.6,2.8-0.8c0.5-0.1,1-0.1,1.4-0.3c1.7-0.4-2.1,0.3-2,0.3c1.2,0.2,2.6-0.1,3.8-0.1
						c1,0,1.9,0.1,2.9,0.1c2.8,0.2-3.7-0.7-0.1,0.1c2.3,0.4,4.5,1,6.8,1.7c8.8,2.5,17.2,6.3,26.2,8.3c11.6,2.6,26.9,3.9,36.1-5.1
						c3.2-3.2,5.9-9.1,5.1-13.7c0-0.2,0-0.5,0-0.7c0-1.4-0.3-0.3-1,3.2c-0.1,2.5-1.2,4.4-3.2,5.8c1.2-1.2-4.2,4.3-4.4,3.3
						c0-0.1,2.8-0.7,3-0.8c0.3-0.1,1.6-0.1,1.8-0.3c-0.4,0.5-3.3,0.3-0.8,0.1c1.6-0.1,3.2-0.1,4.8-0.1c0.6,0,1.2,0.1,1.8,0.1
						c0.5,0,3.2,0.4,0.8,0c-2.3-0.3-0.2,0,0.2,0.1c1,0.2,2,0.3,3,0.6c3,0.7,5.9,1.6,8.8,2.6c0.6,0.2,1.2,0.4,1.8,0.7
						c0.4,0.1,2.8,1.3,1,0.3c-2-1,0.5,0.2,1,0.4c0.8,0.3,1.5,0.7,2.3,1.1c6,2.8,11.8,6.1,17.6,9.4c7.4,4.3,18.3,2,22.4-5.9
						c4.1-7.8,2.1-17.8-5.9-22.4c-21.3-12.1-46.9-25.4-72.1-17.6c-8.5,2.6-16.1,9.9-15.5,19.5c0,0.4-0.1,1,0.1,1.4
						c1.2-2,2.3-4.1,3.5-6.1c0.4-3.5,2-5.7,4.8-6.6c0.4-0.2,0.8-0.3,1.2-0.6c-0.5,0.1-1,0.3-1.5,0.3c-1.7,0.5,1.9-0.2,1.9-0.2
						c-0.5,0-1,0.1-1.4,0.1c-1.3,0.1-2.6,0.1-3.9,0c-0.7,0-4-0.4-1.2,0s-1-0.2-1.7-0.3c-2.3-0.5-4.5-1-6.8-1.7
						c-4.4-1.3-8.8-2.9-13.1-4.4c-9.3-3.2-19.4-6.2-29.4-5.4c-7.1,0.6-13,2.3-19.4,5.3c-2.3,1.1-4.4,2.3-6.6,3.5
						c-0.5,0.3-1,0.5-1.5,0.8c-2.5,1.4,0.3-0.2,0.8-0.3c-1,0-2.5,0.9-3.6,1.2c-3.6,0.9,3,0.1,0.5,0.1c-0.3,0-0.8-0.1-1.1,0
						c-1.4,0.3,2.8,0,2.7,0.4c-0.1,0.3-4.3-1.5-0.3,0.1c3,1.2,0.7,0.1-0.1-0.3c-2.1-1.2,3.4,2.9,1.2,1c-0.5-0.4-0.9-0.8-1.4-1.2
						c-2-1.8-4.1-3.5-6.3-5.1c-8.8-6.5-20.8-8.3-31.4-7.4c-12.1,1-23.6,4.5-35.1,8c-2.8,0.8-5.7,1.6-8.5,2.3
						c-1.2,0.3-2.5,0.6-3.7,0.8c-0.6,0.1-1,0.2-1.6,0.3s-3.8,0.6-1,0.2c2.7-0.3-1.4,0.1-2.1,0.2c-1.4,0.1-2.8,0.1-4.2,0.1
						c-1.2,0-2.5-0.1-3.7-0.2c-2.2-0.1,3.4,0.6,1.2,0.2c-0.9-0.2-1.8-0.3-2.6-0.6c-8.3-1.8-18.1,2.5-20.1,11.4
						C497.3,718.7,501.7,728.6,510.6,730.6L510.6,730.6z"/>
				</g>
			</g>
		</g>
	</g>
	<g>
		<g>
			<path class="st21" d="M504.7,700.8c19.4,2.6,37.8-3,56.6-7c8.5-1.8,17.1-3.1,25.8-2.8c4.2,0.1,8.3,0.7,12.4,1.8
				c4.3,1.2,8.2,3.2,12.3,5c3.7,1.7,7.2,2.3,11.2,1.2c4.6-1.2,9-2.9,13.7-3.8c9-1.8,18.3-2,27.3-0.7c4.4,0.6,8.8,1.7,13.1,3
				c4.3,1.4,8.5,3.2,13,4.3c9.2,2.1,18.5-1,27.6-2.4c19.4-3.2,40.1-2.3,54.9,12.2c3.8,3.7,9.6-2.1,5.8-5.8
				c-12.5-12.3-29.6-16.9-46.7-16.1c-9.9,0.5-19.3,2.6-29,4.2c-4.4,0.8-8.5,0.7-12.7-0.6c-4.8-1.4-9.4-3.4-14.3-4.7
				c-8.9-2.3-18.3-3.4-27.4-2.9c-9.4,0.5-17.8,2.9-26.8,5.4c-4.3,1.2-7.6-1.4-11.4-3.1c-4.2-1.9-8.5-3.2-13-4.1
				c-8.6-1.5-17.4-1.2-26.1-0.1c-21.3,2.9-42.5,12.1-64.2,9.1c-2.2-0.3-4.3,0.6-5,2.8C501.3,697.7,502.5,700.5,504.7,700.8
				L504.7,700.8z"/>
		</g>
	</g>
</g>
<g>
	<g>
		<path class="st22" d="M809.6,243.2c4-4,7.9-8.1,11.9-12.1c3.6-3.7-2-9.2-5.6-5.6c-4,4-7.9,8.1-11.9,12.1
			C800.4,241.2,806,246.8,809.6,243.2L809.6,243.2z"/>
	</g>
</g>
<g>
	<g>
		<path class="st22" d="M816.4,257.6c5.2-2.1,10.5-4.1,15.7-6.2c4.7-1.9,2.6-9.5-2.1-7.6c-5.2,2.1-10.5,4.1-15.7,6.2
			C809.6,251.8,811.7,259.5,816.4,257.6L816.4,257.6z"/>
	</g>
</g>
<g>
	<g>
		<path class="st22" d="M814.7,272c5.6,0.8,11.2,1.7,16.7,2.5c5,0.8,7.2-6.9,2.1-7.6c-5.6-0.8-11.2-1.7-16.7-2.5
			C811.8,263.6,809.7,271.2,814.7,272L814.7,272z"/>
	</g>
</g>
<g>
	<g>
		<path class="st22" d="M471.7,239.9c-3.7-3.7-7.4-7.4-11-11.2c-3.3-3.4-8.5,1.9-5.2,5.2c3.7,3.7,7.4,7.4,11,11.2
			C469.8,248.5,475,243.3,471.7,239.9L471.7,239.9z"/>
	</g>
</g>
<g>
	<g>
		<path class="st22" d="M462.1,251.4c-4.9-1.9-9.8-3.9-14.6-5.8c-4.4-1.7-6.3,5.4-1.9,7.1c4.9,1.9,9.8,3.9,14.6,5.8
			C464.5,260.3,466.5,253.2,462.1,251.4L462.1,251.4z"/>
	</g>
</g>
<g>
	<g>
		<path class="st22" d="M459.8,264.8c-5.2,0.8-10.4,1.5-15.6,2.3c-4.7,0.7-2.7,7.8,1.9,7.1c5.2-0.8,10.4-1.5,15.6-2.3
			C466.4,271.2,464.4,264.1,459.8,264.8L459.8,264.8z"/>
	</g>
</g>
<rect x="495.5" y="253.6" class="st23" width="282" height="46.5"/>
<text transform="matrix(1 0 0 1 498.8879 287.0043)" class="st22 st24 st25">YOU WON !</text>
</svg>
