<?xml version="1.0" encoding="utf-8"?>
<!-- Generator: Adobe Illustrator 22.1.0, SVG Export Plug-In . SVG Version: 6.00 Build 0)  -->
<svg version="1.1" id="Calque_1" xmlns="http://www.w3.org/2000/svg" xmlns:xlink="http://www.w3.org/1999/xlink" x="0px" y="0px"
	 viewBox="0 0 127.5 92.5" style="enable-background:new 0 0 127.5 92.5;" xml:space="preserve">
<style type="text/css">
	.st0{fill:#A0D5DD;}
	.st1{fill:#73BEBC;}
	.st2{fill:#82BDC4;}
	.st3{fill:none;}
	.st4{fill:#FFFFFF;}
	.st5{font-family:'JosefinSans-Regular';}
	.st6{font-size:31.6895px;}
</style>
<g>
	<g>
		<g>
			<g>
				<path class="st0" d="M87.9,56.6C78.4,57.2,69,55,59.6,56.1c-3.5,0.4-6.8,1.1-10,2.5c-4.1,1.8-6.9,4.7-10.3,7.3
					c-1.8,1.4-4.3,3.2-6.4,1.3c-1.2-1.1-2-4-2.7-5.5c-1.8-3.9-3.5-7.9-4.3-12.1c-1.7-8.1,0.4-20,10.7-20.5c-1.5-2-3.1-4.1-4.6-6.1
					c-3.4,15.1-6.4,30.3-9.1,45.5c3.1,0.4,6.3,0.9,9.4,1.3c0-6.1,0-12.2,0-18.3c0-4.4-1.6-12.6,1.6-16.2c-2.7-1.1-5.5-2.3-8.2-3.4
					c-1,13.5-1.7,27.2,2.5,40.2c1.1,3.5,5.4,4.7,8,2.1c7.5-7.2,16.5-16,27.8-15c6.2,0.5,12.5,3.2,18.4,5c6.7,2,13.4,4.1,20,6.1
					c2.5,0.8,5.2-0.9,5.9-3.4c1.9-6.3,3.7-12.7,5.5-19.1c1.3-4.8,4.6-11.7,1-16.2c-3.1-3.9-9-4.6-13.6-5.3
					c-6.5-0.9-13.1-1.8-19.7-2.6c-13.1-1.5-26.3-2.1-39.4-0.4c-5,0.6-10.1,1.4-11.6,7c-1.6,5.8-1.5,12.6-1.2,18.6
					c0.2,3.4,4,6.3,7.2,4.1c4-2.8,8.4-4.7,13.3-5.5c2.2-0.4,4.4-0.4,6.6-0.3c1.4,0.1,2.8,0.6,4.2,0.5c0.4,0.1,0.9,0.2,1.3,0.3
					c1.4,0.5,1.4-0.5-0.1-3.2c1.1-0.5,2.3-0.9,3.4-1.4c-0.3,0-0.6,0-1-0.1c-6.2-0.4-6.2,9.2,0,9.6c4.2,0.3,7.4-3.4,6.9-7.5
					c-0.6-4.9-5.3-6.6-9.5-7.3c-10.5-1.8-21.1,0.6-29.9,6.6c2.4,1.4,4.8,2.8,7.2,4.1c-0.2-4.2-1.2-11,0.6-14.9
					c-0.1-1.2,0.1-1.4,0.7-0.7c1.5-0.3,3-0.5,4.5-0.6c1.9-0.2,3.9-0.4,5.8-0.5c10-0.6,20.1,0,30.1,1.1c5.1,0.5,10.1,1.2,15.2,1.9
					c2.3,0.3,4.6,0.6,6.9,1c1,0.2,2,0.4,3,0.7c1.7,1,2.1,1.1,1.4,0.4c-0.2-0.5-1.5,4.4-1.7,5.2c-0.7,2.4-1.3,4.9-2,7.3
					c-1.4,4.9-2.8,9.7-4.2,14.5c2-1.1,3.9-2.2,5.9-3.4c-7.6-2.3-15.3-4.7-22.9-7c-6.9-2.1-14.1-4.9-21.5-4.5
					C48.1,50,38.2,58.8,29.5,67.1c2.7,0.7,5.4,1.4,8,2.1c-3.9-12.3-3.1-25-2.2-37.7c0.3-4.1-5.5-6.4-8.2-3.4
					C22.7,33,22.6,39,22.6,45.3c0,8,0,16.1,0.1,24.1c0,5.2,8.5,6.8,9.4,1.3c2.7-15.2,5.7-30.4,9.1-45.5c0.7-2.9-1.4-6.2-4.6-6.1
					c-10.9,0.5-18.9,9-20.5,19.6c-1.7,11,2.8,23.7,8.6,33c2.6,4.1,7,6.1,11.8,5.5c5.9-0.8,9.3-5.2,14-8.4
					c10.6-7.4,25.7-2.1,37.6-2.9C94,65.8,94,56.2,87.9,56.6L87.9,56.6z"/>
			</g>
		</g>
		<g>
			<g>
				<path class="st0" d="M87.5,33.9c-8.5,0-17,0-25.5,0c-3.9,0-7.9,0-11.8,0c-2,0-3.9,0-5.9,0c-2.5,0-2.2-0.2-4.2-0.9
					c-5.9-2.1-10.4,2.2-14.7,6.1c-5,4.6-9,10.1-12.2,16c2.8,0,5.5,0,8.3,0c-2.6-4.8-2.7-9.7-0.7-14.7c-2.7,0.7-5.4,1.4-8,2.1
					c8.3,10,19.1,20.9,33.4,18.1c7-1.4,12.2-6.6,18.9-8.8c7.7-2.5,13,0,19,4.8c3.9,3.1,9.4,7.4,14.6,5.1c5.7-2.5,9-11.5,10.5-17.1
					c1.3-4.9,1.8-12.3-5-13c-2.8-0.3-5.3,1.4-7.7,2.5c-3.9,1.7-7.5,2.9-11.8,1.8c-4.1-1.1-7.9-2.9-12-3.6c-3.9-0.7-8-1-12-1.1
					C51.5,31,42.2,32,33.2,29.9c0,3.1,0,6.2,0,9.3c5.3-1,10.8,0.5,16,1.4c5.1,0.9,10.1,1.8,15.2,2.8c10.1,1.9,20.2,3.9,30.3,5.8
					c-1-0.7-1.9-1.5-2.9-2.2c1.7-2.9,1.4-3.9-1-3c-1,0.1-2.1,0.3-3.1,0.4c-1.8,0.3-3.7,0.6-5.5,0.9c-4.3,0.8-8.5,1.9-12.6,3.1
					c-7.5,2.2-14.5,5.7-21.9,8.1c-1.6,0.5-3.3,1-5,1.3C41.5,58,40.3,58.1,39,58c-2-0.8-2.5-0.5-1.5,0.9c0.2,1.6,0.7,1.6,1.6,0
					c0.7-0.8,1.5-1.6,2.3-2.4c1.2-1.2,2.4-2.3,3.6-3.4c5.9-5.2,12.7-9.1,19.9-12.2c-2.4-1.8-4.7-3.6-7.1-5.4
					c-0.1,0.3-0.2,0.5-0.3,0.8c0.7-1,1.5-1.9,2.2-2.9c0.8,0.1,1.7,0.1,2.5,0.2c0,2.8,0,5.5,0,8.3c11.5-5.9,24.5-8,37.2-5.7
					c6,1.1,8.6-8.2,2.6-9.3c-15.4-2.8-30.7-0.5-44.6,6.7c-3.2,1.7-3.1,6.6,0,8.3c4.1,2.3,8.1,0.4,9.7-3.9c1.7-4.4-3.7-6.9-7.1-5.4
					c-8,3.4-15.3,8-21.9,13.7c-4.1,3.5-13.3,10.5-9.8,16.9c3.7,6.8,16.1,4.3,21.8,2.4c8.6-2.8,16.7-6.8,25.5-9.1
					c4.8-1.3,9.6-2.3,14.5-3c3.1-0.4,6.6-0.4,9-2.8c2.4-2.3,2.8-6.1,0.8-8.8c-2.5-3.4-8.5-3.3-12.3-4.1c-9.5-1.8-18.9-3.7-28.4-5.4
					c-9.3-1.7-19.3-4.6-28.7-2.7c-4.7,0.9-4.5,8.2,0,9.3c15.8,3.7,32.3-0.7,47.8,4.8c7.4,2.6,13.5,2.6,20.8-0.6
					c0.7-0.3,1.5-0.6,2.2-1c2.5-0.5,2.3-1.7-0.7-3.5c-0.3,0.2-1.1,4.4-1.2,4.8c-0.7,2.1-1.6,4-2.7,5.9c-0.4,0.8-0.9,1.5-1.4,2.2
					c0.2,1.2-0.3,1.2-1.5,0.1c-2.8-0.9-5.6-4.4-8-6.1c-2.3-1.7-4.9-3.1-7.7-3.9c-6.9-2-14.3-0.5-20.7,2.5
					c-6.8,3.2-12.2,8.6-20.2,6.2c-7.6-2.2-13-9.1-17.8-15c-2.5-3.1-6.9-0.9-8,2.1c-2.9,7.4-2.1,15.2,1.7,22.1c1.7,3.1,6.6,3.2,8.3,0
					c2.8-5.3,6.2-10,10.6-14.1c1.2-1.1,2.9-2,3.9-3.2c1.6-0.7,1.8-1.1,0.3-1.1c-1.3-0.4-1.3-0.2,0,0.6c1.8,1.4,4.7,1.3,6.8,1.3
					c14.7,0.1,29.4,0,44.2,0C93.7,43.5,93.7,33.9,87.5,33.9L87.5,33.9z"/>
			</g>
		</g>
		<g>
			<g>
				<path class="st0" d="M27.5,15.4c-5.7,10.3-12,22.6-13.6,34.4c-1.4,10.6,7.8,20.5,15,27.1c4.6,4.2,11.4-2.6,6.8-6.8
					c-6.1-5.6-14-13.3-11.6-22.2c2.7-9.7,6.8-18.9,11.6-27.7C38.7,14.8,30.4,9.9,27.5,15.4L27.5,15.4z"/>
			</g>
		</g>
		<g>
			<g>
				<path class="st1" d="M40.6,77.1c1.2-3.3,9.7-5.4,12.7-6.3c5.3-1.5,10.7-2.1,16.2-2.1c11.6,0,23,3,34.1,6.2
					c6,1.7,8.5-7.6,2.6-9.3c-13.7-4-28.1-7.4-42.5-6.3c-10.5,0.8-28,4-32.2,15.2C29.1,80.3,38.4,82.8,40.6,77.1L40.6,77.1z"/>
			</g>
		</g>
		<g>
			<g>
				<path class="st1" d="M109.1,71.5c3-13.8,6-27.8,4.3-42c-0.7-6.1-10.3-6.1-9.6,0c1.5,13.4-1.1,26.4-4,39.4
					C98.5,75,107.8,77.6,109.1,71.5L109.1,71.5z"/>
			</g>
		</g>
		<g>
			<g>
				<path class="st2" d="M120,25.2c-11.6-9.9-28.4-11.5-43-12.8c-8.2-0.7-16.5-0.9-24.8-0.4c-2.2,0.1-4.4,0.3-6.7,0.5
					c-1.5,0.1-4.7,1.2-6,0.6c-2.8-1.1-4.6-7-6-9.5c-1.9-3.3-6.3-2.9-8.3,0c-4.9,7.2-9.3,14.8-13,22.7c-1.9,4.1-3.7,8.2-5.3,12.4
					c-1.4,3.7-3.4,7.8-3.8,11.8c-0.6,7.3,7,14,11.4,19c5.9,6.8,12.3,13,19.2,18.8c2.9,2.5,8.4,1.1,8.2-3.4
					c-0.7-14.1,21.6-12.3,30.7-12.3c11.8,0,23.7,1.1,33.8,7.7c2.1,1.3,5.5,0.5,6.6-1.7c7.8-16.3,11.3-34,9.8-52
					c-0.5-6.1-10.1-6.2-9.6,0c1.3,16.3-1.5,32.4-8.5,47.2c2.2-0.6,4.4-1.1,6.6-1.7c-13.4-8.7-29.7-9.3-45.2-8.9
					c-7.9,0.2-16.6,0.2-23.6,4.4C36.3,71.3,32,77.8,32.4,85.1c2.7-1.1,5.5-2.3,8.2-3.4c-5.7-4.9-11.2-10-16.3-15.6
					c-3.8-4.2-12.7-11.4-10.8-17.3c4.7-14.3,11.7-27.7,20.1-40.2c-2.8,0-5.5,0-8.3,0c3,5.4,5.8,13.8,13.1,14.3c3.9,0.3,8.1-0.7,12-1
					c4.4-0.3,8.9-0.4,13.4-0.3c9.1,0.1,18.2,0.9,27.2,2.5c7.8,1.4,16.2,2.9,22.4,8.2C117.9,35.9,124.7,29.2,120,25.2L120,25.2z"/>
			</g>
		</g>
	</g>
	<rect x="27.9" y="26.5" class="st3" width="105.9" height="70.1"/>
	<text transform="matrix(1 0 0 1 27.8886 51.0921)" class="st4 st5 st6">Back</text>
</g>
</svg>
