<?xml version="1.0" encoding="utf-8"?>
<!-- Generator: Adobe Illustrator 23.0.3, SVG Export Plug-In . SVG Version: 6.00 Build 0)  -->
<svg version="1.1" id="Calque_1" xmlns="http://www.w3.org/2000/svg" xmlns:xlink="http://www.w3.org/1999/xlink" x="0px" y="0px"
	 viewBox="0 0 145.3 292.7" style="enable-background:new 0 0 145.3 292.7;" xml:space="preserve">
<style type="text/css">
	.st0{fill:#79CAE2;}
	.st1{fill:#CFE3EA;}
	.st2{fill:#2680A3;}
	.st3{fill:#4D678B;}
</style>
<g>
	<g>
		<g>
			<path class="st0" d="M57.2,53.6C54.7,49.1,47,44,51.3,37.9c2.6-3.7,10.9-7.1,14.5-3.8c1.7,1.5,5.2,5.1,4.5,7.5
				c-0.6,2.2-5,3.8-7,4.8c-1.5,0.7-3,1.4-4.7,1.8c-0.9,0.1-0.8,0.2,0.3,0.4c-0.1-0.4-0.2-0.9-0.3-1.3c0.3-1.2,0.1-1.6-0.5-1.1
				c-0.6,0.2-0.5,0.3,0.1,0.1c1.3,0.9,1.4,0.9,1.6,2.8c0.6,4,5.7,6.2,9.2,5.2c4.3-1.2,5.8-5.2,5.2-9.2c-1.4-9.2-10.5-15.3-19.6-13.4
				c-9.8,2-12.8,11.4-10.4,20.2c2.5,9.5,11.4,13.1,20.4,10c7.7-2.7,17.5-7.5,19.9-16c2.6-8.9-2.9-17.7-9.2-23.5
				C68.5,16.2,59,16.7,51,20.2s-14.9,9.4-15.6,18.5c-0.3,4.2,0.1,8.6,1.6,12.5c1.6,4.1,5.1,6.2,7.1,9.8
				C48.9,69.6,61.9,62.1,57.2,53.6L57.2,53.6z"/>
		</g>
	</g>
	<g>
		<g>
			<path class="st0" d="M54.9,53.5c-7-1.5-13.7,0.9-18.2,6.6c-4.6,5.9-6,13.7-7.8,20.8c-1.9,7.5-3.5,15.1-4.5,22.7
				c-0.9,7-1.1,14.4-4.1,20.9c4.6,0.6,9.1,1.2,13.7,1.8c-1.8-6.8-2-13.7-1.9-20.8c0-6.6,0.1-13.2,2.1-19.5
				c3.3-10.4,12.1-18.5,22.4-21.5c9.2-2.7,5.3-17.2-4-14.5C38,54.3,26.2,65,20.7,79.3c-3,7.7-3.5,16.3-3.6,24.5
				c-0.1,8.9,0.1,17.8,2.4,26.5c1.6,5.8,10.9,7.8,13.7,1.8c5-10.8,4.9-22.5,7.1-34.1c1.2-6,2.7-11.9,4.2-17.8
				c0.6-2.2,2.3-13.1,6.3-12.2C60.3,70,64.3,55.5,54.9,53.5L54.9,53.5z"/>
		</g>
	</g>
	<g>
		<g>
			<path class="st0" d="M47.8,86.3c4.7-6.9,11.6-11.5,19.6-13.7c6.2-1.7,7.3-10.4,1.8-13.7c-1.3-0.8-2.6-1.5-3.9-2.3
				c-1.8-1-3.1-3-0.7,0.3c0.3,1.3,0.7,2.5,1,3.8c0-0.3,0-0.6,0.1-0.9c-0.7,1.8-1.5,3.5-2.2,5.3c0.6-0.7,2.5-1.2,3.5-1.5
				c3.2-1.1,5.5-3.8,5.5-7.2c0.1-5.1-1.2-9.8-4-14.1c-3.6-5.7-14.9-4.1-14,3.8c2.2,19.3,22.8,24.1,33.2,38.1
				c5.5,7.4,6.6,16.1,7.1,25.1c0.6,10.4,1.2,20.7,1.7,31.1c0.4,8,12.9,10.7,14.7,2c3.9-18.6,2.9-38.2-2-56.5
				c-2-7.6-5.2-15.1-10.5-21c-5.9-6.5-14.2-9.4-22.5-11.8c-9.3-2.7-13.3,11.8-4,14.5c5.9,1.7,12.1,3.4,16.2,8.3
				c4,4.8,5.7,11.1,7.1,17c3.4,14.9,4.4,30.5,1.3,45.5c4.9,0.7,9.8,1.3,14.7,2c-0.6-10.4-1.1-20.7-1.7-31.1
				c-0.6-9.4-1.6-18.7-5.9-27.2c-3.7-7.5-9.8-13.8-16.3-19c-3.6-2.9-7.4-5.3-11.1-8.1c-2.8-2.1-6.6-5.1-7.1-8.9
				c-4.7,1.3-9.3,2.5-14,3.8c1.4,2.2,1.9,3.9,1.9,6.5c1.8-2.4,3.7-4.8,5.5-7.2c-5.2,1.8-11.9,4.1-12.3,10.6c-0.4,6.6,6.1,9.2,11,12
				c0.6-4.6,1.2-9.1,1.8-13.7c-11.9,3.2-21.7,10.5-28.6,20.6C29.4,86.8,42.4,94.3,47.8,86.3L47.8,86.3z"/>
		</g>
	</g>
	<g>
		<g>
			<path class="st0" d="M78.1,67.4c11.3-2.2,22.6,5.3,25.5,16.3c3.8,14.7-2.6,30.5-3.5,45.2c-0.6,9.6,14.4,9.6,15,0
				c1.2-19.2,9.3-38.8-0.2-57.3C107.3,56.9,90,49.8,74.1,52.9C64.6,54.8,68.6,69.2,78.1,67.4L78.1,67.4z"/>
		</g>
	</g>
	<g>
		<g>
			<path class="st0" d="M35.4,100.6c-0.1,5.4-4.4,10.2-7.3,14.5c-3.4,5-6.4,10.5-10.9,14.6c4.2,2.4,8.4,4.9,12.5,7.3
				c1.5-9,5.4-17.2,9.5-25.3c3.4-6.8,7.4-13.7,13.7-18.2C64.2,85.4,79,85,91.7,89.8c8,3,13.2-9.7,5.8-13.7
				c-11.4-6.1-24.4-5.6-37-5.9c1.3,4.7,2.5,9.3,3.8,14c4.4-2,9.6-2,14.1-0.4c1.2,0.4,2.4,1,3.5,1.7c0.6,0.4,1.9,1.8,2.4,1.9
				c1.2,0.2,1.7-1.5,0.5-2.1c-0.6-0.3-4.3,0.2-4.8,0.2c-14.2,0.3-28.5-0.4-42.7-1c0.7,4.9,1.3,9.8,2,14.7c9.2-2.4,18.5-3.6,28-3.2
				c4.2,0.2,8.4,0.6,12.6,1.4c2.2,0.4,4.3,1,6.4,1.7c0.8,0.3,4.3,2.2,4.2,1.5c0-1.3,0-2.7,0-4c3.1-2.7,3.2-3.4,0.4-2.3
				c-0.9,0.2-1.8,0.4-2.7,0.5c-1.8,0.2-3.7,0.3-5.6,0.4c-4.2,0.1-8.4,0-12.6,0c-8.5,0-17.1-0.1-25.6-0.3c0,5,0,10,0,15
				c7.9-0.5,15.8-1.1,23.7-0.3c5.3,0.5,15.6,1.6,16.6,8.3c-0.1,0.5,0,0.5,0.3-0.1c0.7-0.8,0.2-1-1.4-0.5c-1.6-0.3-3.4,0-5-0.1
				c-3.7-0.2-7.5-0.7-11-2.1c-5.2-2-9.9-6.2-10-12.1c-5,0-10,0-15,0c0.2,7.5-0.1,15-0.9,22.5c4.7-1.3,9.3-2.5,14-3.8
				c-1.6-3.2-3.2-6.5-4.8-9.7c-3.9-7.9-15.5-2.2-13.7,5.8c0.8,3.5,2.1,6.7,3.8,9.9c4.7,8.5,17.6,0.9,13-7.6c-1.1-2-1.8-4-2.3-6.3
				c-4.6,1.9-9.1,3.9-13.7,5.8c1.6,3.2,3.2,6.5,4.8,9.7c3.6,7.4,13.3,2.8,14-3.8c0.8-7.5,1.1-15,0.9-22.5c-0.3-9.6-15.2-9.7-15,0
				c0.2,12.1,8.6,21.7,19.5,26c5.8,2.3,12,3.1,18.2,3.3c6.3,0.2,13.1,0.2,17-5.6c7.8-11.5-2.8-24.8-13.5-28.9
				c-12.3-4.7-26.5-3.7-39.4-2.8c-9.6,0.6-9.7,14.8,0,15c13,0.2,26.1,0.7,39.1,0.2c5.3-0.2,11.7-0.5,16.4-3.2
				c4.9-2.9,6.7-8.9,3.6-13.8c-5.7-9.1-21.1-10.8-30.7-11.7c-12.6-1.2-25.4,0.1-37.7,3.3c-8.4,2.2-6.3,14.4,2,14.7
				c11.6,0.5,23.3,1,34.9,1.1c9.3,0,23.5,1.3,26.9-10.1c2.8-9.7-6.7-17.1-14.5-20.3c-9.2-3.8-19-3.1-27.9,1
				c-7.1,3.3-3.1,13.8,3.8,14c9.6,0.2,20.7-0.9,29.5,3.8c1.9-4.6,3.9-9.1,5.8-13.7c-16.2-6-35.9-4.8-50.3,5.2
				c-8.1,5.6-13.8,13.4-18.3,22.1c-5,9.6-10,19.7-11.8,30.5c-1.2,7.2,6.7,12.7,12.5,7.3c5.8-5.4,9.9-12.6,14.2-19.2
				c4.3-6.4,8.2-12.6,8.3-20.5C50.5,90.9,35.5,90.9,35.4,100.6L35.4,100.6z"/>
		</g>
	</g>
	<g>
		<g>
			<path class="st0" d="M65.6,114.9c0,0.1-0.1,0.3-0.1,0.4c-2.5,8.1,9.7,13.3,13.7,5.8c0.9-1.6,1.5-3.1,2-4.9
				c1.1-3.9-1.3-8.2-5.2-9.2c-5.4-1.4-12.3-2.1-17.3-4.8c-1.3,4.7-2.5,9.3-3.8,14c6-0.6,12-0.5,17.9,0.9c4.2,1,10.9,2.4,13.5,6.3
				c5.4,7.9,18.4,0.4,13-7.6c-9-13.2-29.6-16.1-44.4-14.6c-6.9,0.7-10.9,10.1-3.8,14c6.3,3.4,14,4.5,20.8,6.3
				c-1.7-3.1-3.5-6.2-5.2-9.2c-0.2,0.4-0.3,0.8-0.5,1.3c4.6,1.9,9.1,3.9,13.7,5.8c0-0.1,0.1-0.3,0.1-0.4
				C82.9,109.6,68.4,105.6,65.6,114.9L65.6,114.9z"/>
		</g>
	</g>
	<g>
		<g>
			<path class="st0" d="M42.3,259.4c-1.3,0.1-5.1,0.9-5.7,0.6c1.5,1.1,3,2.3,4.5,3.4c-0.2-0.3-0.3-0.6-0.5-0.8
				c0.3,1.3,0.7,2.5,1,3.8c-0.3-4.3,3.8-8.8,5-12.9c1.6-5.5,1-11.3,0.6-16.9c-0.8-12.8-1.2-25.5-1.4-38.3c-0.1-12.5,0-24.9,0.1-37.4
				c0.1-6.6,0.2-13.1,0.4-19.7c0.1-5.2-0.4-10.8,2.6-15.3c5.4-8-7.6-15.6-13-7.6c-3.8,5.7-4.4,12.3-4.6,18.9
				c-0.2,7.5-0.3,15.1-0.4,22.6c-0.2,15.4-0.4,30.8,0,46.2c0.2,7.5,0.4,15.1,0.8,22.6c0.3,6.4,2.2,14.6,0.4,20.8
				c-1.8,5.8-5.9,10.4-5.5,16.9c0.5,9.1,9.1,8.7,15.7,8c4-0.4,7.5-3.1,7.5-7.5C49.8,263.1,46.3,258.9,42.3,259.4L42.3,259.4z"/>
		</g>
	</g>
	<g>
		<g>
			<path class="st0" d="M53,265.5c-0.4-9.3,2.5-18,4.6-26.9c2.2-9,3.5-18.2,5.2-27.3c1.6-8.3,3.4-16.7,6.7-24.5
				c1.5-3.5,3.3-6.8,5.3-10c1.4-2.2,4.3-7.2,7-7.7c-1.3,0-2.7,0-4,0c2.2,0.3,4.4,7.2,5.2,9.3c1.6,4.4,2.7,8.9,3.4,13.5
				c1.5,9,1.5,18.2,1.5,27.3c0.1,9.6,0.2,19.1,1.5,28.6c1.2,8.9,3.1,19.8,8.8,27c5.6,7.2,16.9,8,21.7-0.5c5-8.8-1.6-16.6-5.4-24.1
				c-4.3-8.6-5.3-18-6.5-27.4c-1.3-10.3-3.6-20.3-6.1-30.4c-2.8-10.9-5.2-21.7-5.7-33c-0.5-11.9-0.4-23.9-0.6-35.8
				c-4.9,0.7-9.8,1.3-14.7,2c1.7,11.1,2.1,22.4,1.7,33.6c-0.4,9.7,14.6,9.6,15,0c0.5-12.6-0.4-25.1-2.2-37.6
				c-1.3-8.5-14.8-6.3-14.7,2c0.2,13.7-0.2,27.6,0.9,41.4c1.1,13.9,4.9,27.2,8.2,40.6c3.1,13,3.3,26.6,6.9,39.5
				c1.7,6,4.2,11.8,7.4,17.1c0.2,0.4,2.4,5.2,2.7,5.3c1.1-0.6,2.2-1.1,3.3-1.7c-0.3-0.6-0.7-1.3-1-1.9c-0.7-1.5-1.2-3-1.8-4.6
				c-8-24.2-1.9-50.6-7.1-75.4c-2.1-9.8-6.8-27.1-18.4-29.3c-11.6-2.1-20.6,14.5-24.6,23.1c-6.2,13.5-8.6,27.9-11.1,42.4
				c-2.6,15-8.8,30.1-8.1,45.5C38.5,275.1,53.5,275.2,53,265.5L53,265.5z"/>
		</g>
	</g>
	<g>
		<g>
			<path class="st0" d="M101.7,197.4c-0.7-27-0.3-54,1-80.9c0.3-5.4-5-7.9-9.5-7.2c-13.6,2.1-22.8,19-27.4,30.6
				c-2.3,5.8-5.9,14.6-2.9,20.7c3.2,6.5,11.7,8.3,18,5.7c6.2-2.5,10.6-9.6,9.2-16.4c-1.7-8.4-10-8.3-16.6-6.1
				c-13.8,4.4-23.2,15-28.4,28.2c-6.3,15.9-7.5,34.2-8.7,51c5,0,10,0,15,0c0.3-16.4,0.9-32.8,1.8-49.1c0.4-7.9,1-15.7,1.6-23.5
				c0.6-7.7,0.7-15.6,3.5-22.8c-4.8,0-9.6,0-14.5,0c2.3,11.2,2.9,22.5,1.9,33.8c-0.7,8.4,13.1,10.3,14.7,2
				c2.3-11.7,7.7-21.9,16.2-30.2c-4.3-1.8-8.5-3.5-12.8-5.3c-0.3,6.7-3.3,12.4-8.2,16.9c4.2,1.1,8.4,2.2,12.5,3.3
				c-1.5-8.7-1.6-17.8-0.2-26.5c-4.9-0.7-9.8-1.3-14.7-2c0.1,1.1,0.3,2.2,0.4,3.4c0.5,4,3.1,7.5,7.5,7.5c3.7,0,8-3.5,7.5-7.5
				c-0.1-1.1-0.3-2.2-0.4-3.4c-0.4-3.7-2.5-6.9-6.5-7.4c-3.4-0.4-7.6,1.6-8.2,5.4c-1.9,11.6-1.8,22.9,0.2,34.5
				c1,5.9,8.8,6.8,12.5,3.3c7.8-7.2,12.1-17,12.6-27.6c0.3-6.7-8.3-9.7-12.8-5.3c-10.2,10-17.3,22.8-20.1,36.8
				c4.9,0.7,9.8,1.3,14.7,2c1.1-12.7,0.2-25.3-2.4-37.8c-1.7-8-12-6.2-14.5,0c-2.8,7.3-3.1,15.2-3.7,22.9c-0.7,8.5-1.3,17-1.8,25.5
				c-1,17-1.6,34.1-1.9,51.1c-0.2,9.7,14.3,9.5,15,0c1-14,2.1-28.5,6.3-42c1.7-5.5,4.2-11,8.2-15.3c2-2.1,4.1-3.9,6.7-5.3
				c1.3-0.8,2.7-1.4,4.1-1.9c0.8-0.3,4.3-1,3.5-1.2c-1.5-1.1-3-2.3-4.5-3.4c0-1.9-0.1-2.4-0.2-1.5c-0.1,0.3-0.4,0.3-0.8,0
				c1.4,4,2.2,4.5,2.4,1.7c0.2-1.1,0.5-2.1,0.8-3.2c1-3.6,2.3-7.2,4.1-10.5c3-5.9,8.1-15.5,15.2-16.6c-3.2-2.4-6.3-4.8-9.5-7.2
				c-1.4,27-1.7,53.9-1,80.9C87,207,102,207,101.7,197.4L101.7,197.4z"/>
		</g>
	</g>
	<g>
		<g>
			<path class="st0" d="M96.8,187.5c0.4-11.8-4.3-23.2-12.7-31.4c-6.9-6.7-17.5,3.9-10.6,10.6c5.8,5.6,8.6,12.7,8.4,20.8
				C81.5,197.1,96.5,197.1,96.8,187.5L96.8,187.5z"/>
		</g>
	</g>
	<g>
		<g>
			<path class="st1" d="M64.9,15.6c-10.8-1.8-22.1,1.3-29,10.1c-7.5,9.7-4.5,20,1.9,29.2c0.6-2.3,1.2-4.6,1.8-6.8
				c-6.4,3.2-12.6,7.1-16.2,13.5c-3.7,6.8-4.1,14.7-4.5,22.2c-1,18.9-1.9,37.7-2.8,56.6c-0.3,6.4,9.7,6.4,10,0
				c0.8-16.2,1.6-32.4,2.4-48.6c0.3-7,0.1-14.4,2-21.2c2.1-7.3,7.7-10.7,14.1-13.9c2.3-1.1,3.3-4.7,1.8-6.8
				c-4-5.8-7.6-11.9-2.5-18.3c4.2-5.3,11.7-7.4,18.3-6.3C68.5,26.4,71.2,16.7,64.9,15.6L64.9,15.6z"/>
		</g>
	</g>
	<g>
		<g>
			<path class="st1" d="M31.6,116.9c1.1,17.9,2.2,35.7,2.8,53.6c0.5,16.7,1.2,33.8-0.6,50.5c-0.8,7.3-2.3,14.7-5,21.5
				c-2.9,7.1-8.6,13.2-9.7,20.9c-0.9,5.8,1,12.3,6.4,15.3s11.6,1.2,15.1-3.6c3.8-5.2-4.9-10.2-8.6-5c-1.7,2.4-3.1-4.1-3.1-4.6
				c0.3-3.2,2.1-5.9,3.7-8.6c3.1-5.2,5.7-10.6,7.5-16.4c3.7-11.7,4.4-24.2,4.7-36.4c0.6-29.1-1.3-58.1-3.1-87.1
				C41.2,110.5,31.2,110.4,31.6,116.9L31.6,116.9z"/>
		</g>
	</g>
	<g>
		<g>
			<path class="st1" d="M77.4,179.7c4,19.5,8.1,38.9,12.1,58.4c2,9.5,3.3,19.5,6.1,28.9c2.1,7.3,6.9,12.4,14,15.1
				c6,2.3,8.6-7.4,2.7-9.6c-7.8-2.9-8-12.5-9.4-19.5c-1.7-8.4-3.5-16.9-5.2-25.3c-3.5-16.9-7-33.8-10.5-50.6
				C85.8,170.8,76.1,173.4,77.4,179.7L77.4,179.7z"/>
		</g>
	</g>
	<g>
		<g>
			<path class="st2" d="M85,61.9c13.1,5.9,16.5,20.6,18.1,33.7c1.8,15.3,1.9,30.7,2,46.1c0,6.4,10,6.4,10,0
				c-0.1-17.7-0.2-35.4-3-52.9c-2.2-14.2-8.2-29.2-22.1-35.5C84.2,50.7,79.1,59.3,85,61.9L85,61.9z"/>
		</g>
	</g>
	<g>
		<g>
			<path class="st2" d="M90.8,127.5c2.3,25.3,6,50.5,11.1,75.4c2.5,12.2,5.3,24.4,8.5,36.5c1.6,6.2,3.3,12.4,5.1,18.5
				c0.9,3.1,5.5,15.2-1,15.3c-6.4,0-6.4,10,0,10c5.2,0,9.6-3,11.8-7.7c2.7-5.6,1.2-11.7-0.4-17.4c-4.1-14.2-7.9-28.4-11.2-42.7
				c-6.6-28.9-11.2-58.2-13.9-87.8C100.2,121.2,90.2,121.1,90.8,127.5L90.8,127.5z"/>
		</g>
	</g>
	<g>
		<g>
			<path class="st2" d="M68.6,30.2c0.5,3.7,1,7.4,1.4,11.1c0.2,1.6,0.4,3.1,0.5,4.7c0.1,1.9-1.1,3.8,1.4,3.8c-6.4,0.1-6.4,10.1,0,10
				c13.2-0.3,7.5-22.3,6.6-29.6C77.8,23.9,67.8,23.8,68.6,30.2L68.6,30.2z"/>
		</g>
	</g>
	<g>
		<g>
			<path class="st2" d="M30.9,97c0,3.9,0,7.8,0,11.7c0,6.4,10,6.4,10,0c0-3.9,0-7.8,0-11.7C40.9,90.5,30.9,90.5,30.9,97L30.9,97z"/>
		</g>
	</g>
	<g>
		<g>
			<path class="st2" d="M72.4,169.8c-8.3-3-14,4.6-15.2,11.9c-1.6,9.5-2.4,19.2-3.9,28.7c-3,20-6.6,39.8-10.8,59.6
				c-1.3,6.3,8.3,9,9.6,2.7c3.4-15.9,6.4-31.9,9-48c1.3-7.7,2.4-15.4,3.5-23.2c0.4-3,1.9-23.2,5.1-22
				C75.8,181.7,78.4,172,72.4,169.8L72.4,169.8z"/>
		</g>
	</g>
	<g>
		<g>
			<path class="st2" d="M58.2,34.7c0,1.7,0,3.3,0,5c0,2.4,3.8,2.4,3.8,0c0-1.7,0-3.3,0-5C61.9,32.3,58.2,32.3,58.2,34.7L58.2,34.7z"
				/>
		</g>
	</g>
	<g>
		<g>
			<path class="st2" d="M48.8,34.6c0,1.8,0,3.6,0,5.4c0,2.4,3.8,2.4,3.8,0c0-1.8,0-3.6,0-5.4C52.6,32.2,48.8,32.2,48.8,34.6
				L48.8,34.6z"/>
		</g>
	</g>
	<g>
		<g>
			<path class="st3" d="M25.2,60.2c-6.8,5.3-9,13.7-9.9,22c-1.3,11.8-1.2,23.9-1,35.8c0.1,5.8,0.1,11.8,0.7,17.6
				c0.4,3.5,1.4,7.1,4.4,9.2c7.5,5.2,11.8-3.5,12.6-9.6c0.4-3.2-4.6-3.2-5,0c-0.1,1-0.3,3.7-1.2,4.5c-4.6,4.2-5.7-2.8-5.9-4.8
				c-0.4-3.7-0.4-7.4-0.5-11.1c-0.2-7.7-0.2-15.4-0.1-23.1c0.3-11.9-1.1-28.7,9.3-36.9C31.3,61.8,27.7,58.3,25.2,60.2L25.2,60.2z"/>
		</g>
	</g>
	<g>
		<g>
			<path class="st3" d="M30.5,95.2c1.6,24.2,2.7,48.4,3.4,72.7c0.4,12,0.6,23.9,0.8,35.9c0.1,11.3,1.2,23.2-0.7,34.4
				c-0.9,5.1-2.7,9.5-5.5,13.8c-2.5,3.8-5.6,7.5-6.6,12c-1.6,7,2.9,12.9,9.6,14.6c7.2,1.9,14.8-1.3,19.6-6.8
				c6.2-7.1,5.9-17.2,6.6-26.1c1-11.7,2-23.5,2.9-35.2c0.5-5.5,0.9-11.1,1.4-16.6c0.5-5.4,0-12.9,4.2-17c6.8-6.8,11.8,3.9,13.1,9.3
				c1.3,5.6,2.4,11.2,3.6,16.8c2.4,11.7,4.5,23.5,5.4,35.5c1.2,15.8-1,41.4,20,45.1c7.1,1.3,14.7-2.4,17.8-9.1
				c3.9-8.4-2.7-17.4-4.9-25.5c-6.7-25.1-10.1-51.6-12.8-77.4c-2.7-26.3-3.9-52.7-3.6-79.2c0-3.2-5-3.2-5,0
				c-0.5,43.4,3.1,86.9,10.8,129.6c1.8,10.3,3.6,20.8,6.6,30.8c1.3,4.4,3.7,8.5,4.8,12.9c1.5,5.7-1.9,10.9-7.4,12.6
				c-11.6,3.6-18.8-9.4-20.1-18.9c-1.4-10.4-0.9-21.1-2.3-31.5c-1.3-10.4-3.3-20.7-5.4-31c-1.7-8-2.2-19-9.1-24.5
				c-5.3-4.2-12.2-2.8-16.2,2.4c-5.2,6.9-4.3,17.8-5,25.9c-0.9,11.1-1.8,22.2-2.8,33.2c-0.4,5.2-0.9,10.4-1.3,15.6
				c-0.5,5.6-0.5,11.8-3.5,16.8c-2.5,4.1-7.1,7.3-11.9,7.7c-4.7,0.4-10.6-2-10.5-7.4c0-4.5,3.9-8.7,6.3-12.2c2.6-3.9,4.5-8,5.6-12.5
				c2.5-10.7,1.5-22.3,1.4-33.3c-0.1-12.3-0.4-24.6-0.7-36.9c-0.7-25.6-1.9-51.1-3.5-76.6C35.3,92,30.3,91.9,30.5,95.2L30.5,95.2z"
				/>
		</g>
	</g>
	<g>
		<g>
			<path class="st3" d="M89.4,57.9c16.9,3.2,22,21.3,23,36.2c0.6,8.1,0.6,16.3,0.4,24.5c-0.1,4.1-0.3,8.2-0.6,12.3
				c-0.1,1.9-0.3,3.8-0.5,5.7c-0.1,1.3-0.2,2.5-0.4,3.8c0.1,1.6-0.6,2.9-2,3.8c-0.1-3.2-5.1-3.2-5,0c0.1,3.1,2.4,5.2,5.5,5.1
				c3.8-0.1,5.5-3.6,6.2-6.9c2.3-12.2,2-25.6,1.7-38c-0.5-19.5-3.7-46.7-27.1-51.2C87.6,52.4,86.2,57.3,89.4,57.9L89.4,57.9z"/>
		</g>
	</g>
	<g>
		<g>
			<path class="st3" d="M27.6,64c5.5-4.1,11.5-6.8,18.2-8.1c3.2-0.6,1.8-5.4-1.3-4.8c-7.1,1.4-13.7,4.3-19.4,8.6
				C22.6,61.6,25.1,66,27.6,64L27.6,64z"/>
		</g>
	</g>
	<g>
		<g>
			<path class="st3" d="M92.6,53.9c-2.7-0.9-5.4-1.6-8.2-2c-1.1-0.1-8.1,0-8,0.1c-1.9-2.6-6.2-0.1-4.3,2.5c1.7,2.4,3.9,2.1,6.6,2.1
				c4.3-0.1,8.5,0.7,12.6,2.1C94.3,59.8,95.6,55,92.6,53.9L92.6,53.9z"/>
		</g>
	</g>
	<g>
		<g>
			<path class="st3" d="M46.8,49.2c-9.1-1.8-11-11.9-7.6-19.4c3.6-7.8,10.5-11,18.8-10.5c7.5,0.4,15,3.9,18.5,10.8
				c3.9,7.7,1.7,16.3-4.4,22c-2.4,2.2,1.2,5.7,3.5,3.5c7.7-7.2,10.2-18.5,5.2-28.1C76,18.1,65.2,13.7,55,14.2
				c-10.9,0.6-19.4,7.4-21.9,18.2C30.9,41.7,35.6,52,45.5,54C48.6,54.7,50,49.9,46.8,49.2L46.8,49.2z"/>
		</g>
	</g>
</g>
</svg>
