<?xml version="1.0" encoding="utf-8"?>
<!-- Generator: Adobe Illustrator 23.0.3, SVG Export Plug-In . SVG Version: 6.00 Build 0)  -->
<svg version="1.1" id="Calque_1" xmlns="http://www.w3.org/2000/svg" xmlns:xlink="http://www.w3.org/1999/xlink" x="0px" y="0px"
	 viewBox="0 0 110.4 308.1" style="enable-background:new 0 0 110.4 308.1;" xml:space="preserve">
<style type="text/css">
	.st0{fill:#79CAE2;}
	.st1{fill:#3A9BB9;}
	.st2{fill:#BBE1EF;}
	.st3{fill:#4D678B;}
</style>
<g>
	<g>
		<g>
			<path class="st0" d="M57.4,49.9c-0.2-1.1,0.1-2.6-0.9-1.5c0.4-0.5,3.4-1.4,4-1.4c1.7,0.1,1.3,0.4,1.8,2.5
				c0.5,2.2,1.2,5.3,0.3,7.5c-0.3,0.8-1.8,2.8-2.6,3.1c-1.7,0.7,0,0.6-1.5-0.4c-2.1-1.4-3.8-5-4.9-7.2c-0.6-1.2-1-2.4-1.4-3.7
				c-0.3-0.9-0.5-1.8-0.6-2.8c0,0.3-0.1,0.6-0.1,0.9c1.9-0.6,4.8-0.4,6,1.4c0.6,0.8,0.4,1.6,0.7,2.5c0,0.1,0,0.2,0,0.3
				c-1.4,1.5-0.4,2.5,3,3c0.6-9.5-14.2-9.5-14.8,0c-0.5,7.9,7.2,13.6,14.7,12c7.6-1.6,12.3-9.2,11.9-16.7
				c-0.7-15.6-23.8-24.7-33.6-11.3c-4.9,6.7-1.6,15.9,1.8,22.6c3.3,6.5,9.1,13.9,16.9,14.6c8,0.7,15.4-5.8,18.2-12.9
				c2.6-6.5,1.6-15.5-1.4-21.7c-4-8.3-13-10-21.2-7.1C44,37.1,41.2,44,43.1,53.8C44.9,63.1,59.2,59.2,57.4,49.9L57.4,49.9z"/>
		</g>
	</g>
	<g>
		<g>
			<path class="st0" d="M46.3,53.8c-0.4,9.7-0.7,19.3-1.1,29c-0.3,9.5,14.4,9.5,14.8,0c0.1-1.3,0.2-2.6,0.5-3.9
				c0.1-0.6,0.3-1.1,0.5-1.6c0.5-1.3,0.2-1.1-0.9,0.4c-1.9,0.2-3.8,0.5-5.7,0.7c-3.7-0.9-2.5-3.1-2.7,0.8c1.8-2.4,3.6-4.8,5.4-7.1
				c0.8,0.4,1,0.5,0.5,0c-0.4-0.4-0.8-0.8-1.1-1.2c-0.6-0.6-1.2-1.3-1.8-1.8c-2.3-2-5-3.3-8.1-3.8c-6.1-1.1-12.7,0.3-18.7,0.8
				c2.5,2.5,4.9,4.9,7.4,7.4c0.6-8,0.5-16.3,2.2-24.2c1.5-6.9,5.1-12.6,13-11.9c18.9,1.6,17.6,27.3,16,40.3c2.5-2.5,4.9-4.9,7.4-7.4
				c-4.4,0.3-8.8-1.7-10.4-6.1c-0.8-2.3-0.3-4.9-0.9-7.3c-0.7-3.1-2.4-5.9-5.1-7.7c-4.4-3-12.4-3.2-17.4-1.6
				c-6.8,2.1-9.9,8-10.9,14.6c4.9,0.7,9.7,1.3,14.6,2c-0.3-3.8-0.4-7.7,0.2-11.5c0.2-1.4,1.4-9,2.5-9.6c-1.2,0.3-2.5,0.7-3.7,1
				c0.4,0,0.8,0,1.1,0c-1.2-0.3-2.5-0.7-3.7-1c4.5,1.9,6.9,11.4,8.5,15.6c2.4,6.5,4.8,12.9,8.6,18.7c2.7,4.1,10.4,5.5,12.8,0
				c0.7-1.5,0.9-1.9,2.3-2.9c3.8-2.9,2.3-9.5-1.5-11.6c-8.8-4.9-18.7-7.2-28.7-6.4c-9.4,0.8-9.5,15.6,0,14.8
				c7.6-0.6,14.6,0.7,21.3,4.4c-0.5-3.9-1-7.8-1.5-11.6c-2,1.6-3.6,3.6-4.6,5.9c4.3,0,8.5,0,12.8,0c-7.6-11.5-8.6-29.2-19.9-38.1
				c-7.8-6.1-14.9-0.4-17.9,7.3c-3.1,7.9-4.1,16.6-3.4,25c0.3,3.7,2.6,6.8,6.4,7.3c3.3,0.4,7.6-1.7,8.1-5.3c0.2-1.3,0.2-3.8,1.2-4.5
				c0.5-0.3,2-0.1,2.6,0c0.8,0,1.5,0.1,2.3,0.2c-0.5-0.5-1-1.1-1.5-1.6c-0.5,0.3,0.6,6.5,0.7,6.6c0.5,2.1,1.4,4.3,2.5,6.2
				c4.6,7.8,13.5,12.7,22.6,12.2c4.4-0.3,6.9-3.2,7.4-7.4c1.5-12.5,1.8-25.3-4-36.8c-5.2-10.4-15.1-17.7-26.9-18.4
				c-11.4-0.6-21,6.1-25.3,16.4c-4.3,10.6-3.9,23.3-4.7,34.5c-0.3,3.8,3.6,7.7,7.4,7.4c3.9-0.3,7.8-0.7,11.7-1c2.6-0.2,4-0.5,6,1
				c4.8,3.7,8.7,8.2,15.5,5.5c3.3-1.3,5.2-3.6,5.4-7.1c0.4-6.7-2.6-16.3-11.1-15.2C47,65.3,45.4,76.3,45.1,83c4.9,0,9.9,0,14.8,0
				c0.4-9.7,0.7-19.3,1.1-29C61.5,44.2,46.6,44.2,46.3,53.8L46.3,53.8z"/>
		</g>
	</g>
	<g>
		<g>
			<path class="st0" d="M40.2,85.5c-0.6,13.9-0.8,28,3.9,41.3c4.5-1.9,9-3.8,13.5-5.7c-5.3-7.6-7.6-15.8-7-25c-4.9,0-9.9,0-14.8,0
				c-0.2,11.3,0.4,23.8,4,34.6c3.7,11,18.8,7.5,26.6,3.2c10.2-5.7,9.5-17.5,7.4-27.4C71.6,96.1,66.6,86.9,60,78.7
				c-4.1-5.1-12.8-0.8-12.6,5.2c0.5,16.8,1,33.7,1.5,50.5c4.9,0,9.9,0,14.8,0c-0.5-3.9-1.1-7.7-1.9-11.6c-2-9.3-16.3-5.4-14.3,3.9
				c0.5,2.5,1.1,5.1,1.4,7.6c0.5,4,3,7.4,7.4,7.4c3.9,0,7.5-3.4,7.4-7.4c-0.5-16.8-1-33.7-1.5-50.5c-4.2,1.7-8.4,3.5-12.6,5.2
				c4,4.9,7,10.6,8.8,16.6c1.1,3.6,4.2,12.8,0.7,15.4c-2.1,1.5-5.2,1-7.4,2c-2.3-0.2-2.2,0.3,0.4,1.6c2,2.2,2.5,2.1,1.5-0.3
				c-0.1-1.7-0.9-3.9-1.2-5.6c-1.4-7.5-1.8-15-1.6-22.6c0.2-9.6-14.2-9.4-14.8,0c-0.7,11.5,2.5,23,9,32.4c4.5,6.4,16.6,2.7,13.5-5.7
				c-4.3-12.1-3.9-24.7-3.4-37.4C55.4,76,40.6,76,40.2,85.5L40.2,85.5z"/>
		</g>
	</g>
	<g>
		<g>
			<path class="st0" d="M56.5,158.3c-0.6-4.6-1.2-9.1-1.8-13.7c-0.3-2-0.5-3.9-0.8-5.9c-0.6-4.7,0.5-2.4-2-1
				c-3.4-0.9-6.8-1.8-10.1-2.7c8.2,11.8,16.1,23.8,23.8,36c4.4,7,15.9,2.6,13.5-5.7c-1.1-4-2.3-7.9-3.4-11.9
				c-0.5-1.8-1.1-3.7-1.6-5.5c-0.3-0.9-0.5-1.8-0.8-2.7c-0.1-2-0.5-2.2-1.1-0.5c8.6-4,1.1-16.8-7.5-12.8c-6.5,3-7.4,10.1-5.9,16.4
				c1.7,7,4,14,6,20.9c4.5-1.9,9-3.8,13.5-5.7c-7.6-12.2-15.6-24.2-23.8-36c-2.3-3.4-6.4-4.7-10.1-2.7c-4.8,2.6-6,7.7-5.4,12.8
				c0.8,6.8,1.8,13.7,2.6,20.5c0.5,4,3,7.4,7.4,7.4C52.7,165.8,57,162.3,56.5,158.3L56.5,158.3z"/>
		</g>
	</g>
	<g>
		<g>
			<path class="st0" d="M61.3,240.9c-3.3-14.3-6.9-28.9-8.5-43.5c-0.7-6.8-0.7-13.5,1-20.1c1.8-7.2,4.2-14.3,6.3-21.4
				c-4.9-0.7-9.7-1.3-14.6-2c1.2,11.3-4.3,22.8-6.2,33.8c-2,11.7-2.7,23.5-2.1,35.4c0.5,9.5,15.3,9.5,14.8,0
				c-0.6-11.8,0-23.6,2.3-35.1c2.2-11.2,7.3-22.5,6.1-34.1c-0.9-8-12-10.5-14.6-2c-4.5,15.1-9.5,29.5-7.8,45.5s5.4,31.8,9,47.5
				C49.1,254.1,63.4,250.2,61.3,240.9L61.3,240.9z"/>
		</g>
	</g>
	<g>
		<g>
			<path class="st0" d="M49.1,172.2c1.3,6.7,5.6,12.1,8.1,18.3c2.7,6.7,4.4,13.8,6.1,20.8c1.9,7.9,15.5,6.5,14.6-2
				c-2-18.2-7.1-35.6-12.6-52.9c-4.1,2.4-8.3,4.8-12.4,7.2c9.4,10.5,15.5,23.6,16.5,37.7c1.1,15.9-2.1,31.8-0.9,47.8
				c0.7,9.5,14.3,9.6,14.8,0c0.2-3.5,0.4-7,0.6-10.5c0.5-9.5-14.3-9.5-14.8,0c-0.2,3.5-0.4,7-0.6,10.5c4.9,0,9.9,0,14.8,0
				c-1.3-17.8,2.7-35.6,0.3-53.4c-2.1-16.1-9.4-30.5-20.2-42.5c-4.9-5.5-14.6,0.3-12.4,7.2c5.1,16,10.3,32.2,12.1,49
				c4.9-0.7,9.7-1.3,14.6-2c-1.7-7-3.4-14.1-6.1-20.8c-2.4-6.1-6.9-11.9-8.1-18.3C61.6,158.9,47.3,162.8,49.1,172.2L49.1,172.2z"/>
		</g>
	</g>
	<g>
		<g>
			<path class="st0" d="M72.3,204.7c-0.1,14.9-0.2,29.8-0.2,44.8c-0.1,12.8,0.2,26.7,10.5,35.9c7.1,6.3,17.6-4.1,10.5-10.5
				c-8.5-7.5-6.2-21.2-6.1-31.4c0.1-12.9,0.1-25.9,0.2-38.8C87.2,195.1,72.4,195.1,72.3,204.7L72.3,204.7z"/>
		</g>
	</g>
	<g>
		<g>
			<path class="st0" d="M46.6,228.2c-1.9,10-0.6,20.1,4.5,28.9c2.4,4.1,5.5,7.5,9,10.7c2.2,1.9,2.7,1.4,1.9,4.1
				c-0.8,2.8-1.9,5.6-3.2,8.2c4.6,1.2,9.2,2.5,13.8,3.7c0.5-18.9-6.7-38.1-11.3-56.2c-2.4-9.2-16.7-5.3-14.3,3.9
				c2.2,8.5,4.4,17.1,6.6,25.6c2.3,8.8,4.5,17.5,4.2,26.7c-0.2,7,10.6,10.5,13.8,3.7c2.4-5.1,5.3-10.9,5.6-16.6
				c0.3-5.8-2.5-10-6.7-13.8c-7.3-6.5-11.6-15.3-9.7-25.2C62.7,222.8,48.5,218.8,46.6,228.2L46.6,228.2z"/>
		</g>
	</g>
	<g>
		<g>
			<path class="st0" d="M27,165.6c-0.5-12.4-2.3-25.6-0.5-37.9c1.7-11.3,7.2-21.4,15.2-29.4c2.3-2.2-1.2-5.7-3.5-3.5
				c-8.2,8.2-14.1,18.6-16.2,30c-2.4,13.2-0.5,27.4,0.1,40.8C22.1,168.8,27.1,168.8,27,165.6L27,165.6z"/>
		</g>
	</g>
	<g>
		<g>
			<path class="st0" d="M27.1,146.9c-0.5-6.8-0.6-14,2.7-20.2c0.6-1.2,1.6-3.1,2.6-3.8c1.6-1.2,0.6-1.2,2.3,0.1
				c2.4,1.8,3.7,6.3,4.4,9c1.5-0.6,3-1.3,4.5-1.9c-3.9-7.5-6.1-15.4-6.6-23.8c-0.2-2.9-3.8-3.2-4.9-0.7c-2.4,6-4.8,12-7.2,18
				c-1.2,3,3.6,4.2,4.8,1.3c2.4-6,4.8-12,7.2-18c-1.6-0.2-3.2-0.4-4.9-0.7c0.5,9.3,2.9,18,7.2,26.3c1.3,2.5,5.2,0.8,4.5-1.9
				c-1.4-5.4-7-18.8-13.8-12.3c-7.8,7.4-8.6,18.5-7.8,28.6C22.4,150,27.4,150.1,27.1,146.9L27.1,146.9z"/>
		</g>
	</g>
	<g>
		<g>
			<path class="st0" d="M69.6,118.2c1.7,9.9,6.8,18.3,11.6,27c2.5,4.5,4.8,9.1,6.5,14.1c1.2,3.5,2.3,6.5,5.5,8.5
				c1.8,1,4.4-0.7,3.6-2.8c-7.4-21-14.8-42-22.1-63c-1-3-5.8-1.7-4.8,1.3c7.4,21,14.8,42,22.1,63c1.2-0.9,2.4-1.9,3.6-2.8
				c-3.2-1.9-3.8-7.5-5.2-10.7c-1.7-4-3.7-7.8-5.8-11.6c-4.3-7.8-8.8-15.5-10.3-24.4C73.8,113.8,69.1,115.1,69.6,118.2L69.6,118.2z"
				/>
		</g>
	</g>
	<g>
		<g>
			<path class="st0" d="M81.7,133.7c-2.7-6.7-5.4-13.4-8.2-20.1c-1.2-2.9-6-1.6-4.8,1.3c2.8,6.7,5.5,13.4,8.2,20.1
				C78.1,138,82.9,136.7,81.7,133.7L81.7,133.7z"/>
		</g>
	</g>
	<g>
		<g>
			<path class="st1" d="M58.3,92.1c7.9,8.7,11.3,19.4,8.1,31c-1.6,5.6-5.8,10.7-6.4,16.4c-0.6,5.6,1.3,12.5,3.2,17.7
				c2.3,6.3,5.4,12.2,7.2,18.7c1.9,6.6,3.1,13.5,4.3,20.2c2.6,14.5,5,29,7.1,43.5c0.9,6.3,10.4,3.6,9.5-2.6
				c-2.1-14.9-4.5-29.7-7.2-44.5c-1.3-7.4-2.7-14.8-5-22c-2.1-6.6-5.7-12.7-7.5-19.4c-0.7-2.7-1.7-5.9-1.8-8.7
				c-0.2-3.5,2.1-6.3,3.5-9.4c2.4-5.4,3.9-10.9,4.3-16.8c0.8-11.9-4.4-22.5-12.2-31.1C61,80.4,54,87.4,58.3,92.1L58.3,92.1z"/>
		</g>
	</g>
	<g>
		<g>
			<path class="st1" d="M47.3,189.5c-2,16.4-0.2,33.3,5.6,48.8c5.6,15.1,18.3,30.8,14.4,47.8c-1.4,6.2,8.1,8.8,9.5,2.6
				c4-17.4-5.3-32.2-12.1-47.5c-7.3-16.2-9.5-34.1-7.4-51.7C57.9,183.2,48,183.2,47.3,189.5L47.3,189.5z"/>
		</g>
	</g>
	<g>
		<g>
			<path class="st1" d="M63.2,43.4c1.5,3.3,3.2,7.1,2.7,10.8c-0.6,4-3.4,6.7-5.3,10c-4.5,7.8-2.8,16.1,0.7,23.9
				c2.6,5.8,11.1,0.8,8.5-5c-2.1-4.6-3.1-9.2-0.7-13.9c1.8-3.5,4.4-6.2,5.6-10c2.4-7.2,0.1-14.2-3-20.8
				C69.1,32.6,60.6,37.6,63.2,43.4L63.2,43.4z"/>
		</g>
	</g>
	<g>
		<g>
			<path class="st2" d="M50.2,43.5c6.4,0,6.4-9.9,0-9.9C43.9,33.6,43.9,43.5,50.2,43.5L50.2,43.5z"/>
		</g>
	</g>
	<g>
		<g>
			<path class="st2" d="M48.9,33.7C36.8,35.5,33.1,49,36.7,59.3c2,5.8,6.1,10.8,4.5,17.3c-1.5,6-5.7,11.3-8.6,16.6
				c-11.8,22-16.6,47.5-13.6,72.4c0.8,6.2,10.6,6.3,9.9,0c-2.7-22.6,1-45.6,11.5-65.8c4.6-8.8,12-17.6,11.2-28.2
				c-0.6-7.5-14-26.3,0.1-28.4C57.8,42.3,55.1,32.8,48.9,33.7L48.9,33.7z"/>
		</g>
	</g>
	<g>
		<g>
			<path class="st2" d="M36,140c1.9,13.3,3,26.3,1.3,39.7c-1.6,13.2-4.4,26.3-2.5,39.7c1.7,11.9,6.6,23,12.4,33.5
				c3,5.4,6.5,10.5,9.4,15.9c3.5,6.4,2.7,12.8,1.5,19.7c-1.1,6.2,8.4,8.9,9.5,2.6c1.1-6,2.1-12.1,1-18.1c-1.1-6.2-4.8-11.5-8-16.8
				c-6.8-11.3-13.4-23.1-15.8-36.3c-2.5-13.7,0.9-27.6,2.5-41.2c1.7-14,0.2-27.6-1.8-41.4C44.6,131.1,35.1,133.8,36,140L36,140z"/>
		</g>
	</g>
	<g>
		<g>
			<path class="st2" d="M34.4,74.5c-0.2-8.7-0.2-17.5,0.1-26.2c0.2-5.8,1.1-19.1,10.2-17.1c6.2,1.3,8.9-8.2,2.6-9.5
				c-10.8-2.3-19.4,5.7-21.6,15.9c-2.6,11.8-1.4,25-1.1,37C24.6,80.9,34.5,80.9,34.4,74.5L34.4,74.5z"/>
		</g>
	</g>
	<g>
		<g>
			<path class="st1" d="M44.2,103.3c-3.9-0.4-6.7,3.6-6.6,7.2c0.1,4,3.5,6.6,7.3,6.1c2.4-0.3,1.4-3.9-1-3.6c-3.6,0.5-3.4-6.4,0.3-6
				C46.5,107.3,46.5,103.5,44.2,103.3L44.2,103.3z"/>
		</g>
	</g>
	<g>
		<g>
			<path class="st1" d="M58.7,103.9c-4.1,0-7.7,3.4-6.9,7.7c0.8,4.3,5.1,6.1,9.1,5.6c2.4-0.3,1.4-3.9-1-3.6
				c-1.8,0.3-3.9-0.5-4.4-2.4c-0.5-2.1,1.3-3.5,3.2-3.5C61.1,107.6,61.1,103.9,58.7,103.9L58.7,103.9z"/>
		</g>
	</g>
	<g>
		<g>
			<path class="st1" d="M57.3,51.3c1.3-1.2,3.2-1.4,4.5-0.2c1.2,1,3-0.7,1.7-1.7c-2.4-2.1-5.7-2-8,0.2
				C54.4,50.6,56.2,52.4,57.3,51.3L57.3,51.3z"/>
		</g>
	</g>
	<g>
		<g>
			<path class="st1" d="M48,49.4c-1.3,0-2.4-0.3-3.7,0.1c-1.1,0.4-2,1.1-2.6,2.1c-0.8,1.4,1.3,2.6,2.1,1.2c1-1.6,2.5-1,4.1-1
				C49.6,51.8,49.6,49.4,48,49.4L48,49.4z"/>
		</g>
	</g>
	<g>
		<g>
			<path class="st1" d="M42.4,51c-0.1,0-0.1,0.1-0.2,0c0.1,0-0.1-0.1,0,0c-1.2-1.1-2.9,0.7-1.7,1.7c0.7,0.7,1.7,0.9,2.7,0.6
				c0.6-0.2,1-0.9,0.9-1.5C43.7,51.2,43,50.7,42.4,51L42.4,51z"/>
		</g>
	</g>
	<g>
		<g>
			<path class="st1" d="M44.7,51c0-0.5,0-1-0.2-1.5c-0.2-0.6-0.9-1-1.5-0.9c-0.6,0.2-1.1,0.9-0.9,1.5c0.1,0.3,0.1,0.5,0.1,0.9
				c-0.1,0.7,0.6,1.2,1.2,1.2C44.2,52.2,44.7,51.7,44.7,51L44.7,51z"/>
		</g>
	</g>
	<g>
		<g>
			<path class="st1" d="M61,48.5c0-0.2,0-0.3,0-0.5c0-1.6-2.5-1.6-2.5,0c0,0.2,0,0.3,0,0.5C58.5,50.1,61,50.1,61,48.5L61,48.5z"/>
		</g>
	</g>
	<g>
		<g>
			<path class="st1" d="M62.4,50.9c0.5,0,1-0.1,1.5-0.4c1.3-0.8,0.1-3-1.2-2.1c-0.2,0.1,0,0.1-0.2,0.1c-0.7,0-1.2,0.6-1.2,1.2
				C61.1,50.4,61.7,50.9,62.4,50.9L62.4,50.9z"/>
		</g>
	</g>
	<g>
		<g>
			<path class="st1" d="M58.1,49.8c0,1.4,0.2,2.7,0.4,4.1c0.1,0.7,0.9,1,1.5,0.9c0.7-0.2,1-0.9,0.9-1.5c-0.2-1.1-0.3-2.3-0.3-3.4
				C60.6,48.2,58.1,48.2,58.1,49.8L58.1,49.8z"/>
		</g>
	</g>
	<g>
		<g>
			<path class="st1" d="M43.7,51.3c-0.1,1.3,0,2.6,0.3,3.9c0.3,1.6,2.7,0.9,2.4-0.7c-0.2-1.1-0.3-2.1-0.2-3.2
				C46.3,49.8,43.8,49.8,43.7,51.3L43.7,51.3z"/>
		</g>
	</g>
	<g>
		<g>
			<path class="st3" d="M45.6,83.5c2-9.7,0.3-19-4.8-27.5c-1.7-2.8-3.5-5.5-2.7-9c0.6-2.7,2.2-5.2,4.2-7.1c3.5-3.4,8.6-5.1,13.5-4.8
				C66.2,35.7,73.6,47.3,69.7,57c-1.9,4.7-5.6,8.5-7.1,13.4c-1.5,4.6-1.2,9.4-0.2,14.1c0.7,3.1,5.4,1.8,4.8-1.3
				c-0.8-3.8-1-7.7,0.2-11.5c1.2-3.6,3.6-6.4,5.4-9.7c2.4-4.3,3.5-8.9,2.7-13.8c-1.6-9.7-9.7-17.6-19.6-18
				c-9.5-0.4-19.5,5.4-22.2,14.8c-1.6,5.5,0.6,9.6,3.4,14.2c4.2,7,5.6,15,4,23.1C40.2,85.3,44.9,86.6,45.6,83.5L45.6,83.5z"/>
		</g>
	</g>
	<g>
		<g>
			<path class="st3" d="M39.6,85.1c-8.4,12.1-11.2,27.5-7.1,41.7c2.7,9.3,6.8,17.2,6.9,27.2c0.1,8.9-1.7,17.6-3.1,26.3
				c-2.5,15.9-2.4,31.4,2.3,46.8c4.5,15,12.3,28.7,22.2,40.9c2,2.5,5.5-1,3.5-3.5c-10-12.3-17.7-26.5-21.8-41.9
				c-4.2-15.7-3.1-30.6-0.5-46.4c1.2-7.3,2.5-14.8,2.4-22.2c-0.1-7.6-2-14.5-4.7-21.6c-5.8-15.4-5.4-30.9,4.2-44.7
				C45.7,85,41.4,82.5,39.6,85.1L39.6,85.1z"/>
		</g>
	</g>
	<g>
		<g>
			<path class="st3" d="M63.5,85.6c4.4,7.1,7.4,15,8.3,23.4c0.8,7.6-0.3,15.1-1.4,22.6c-0.9,6.7-1.7,13.4-0.7,20.1
				c1.1,7.4,4.8,13.9,7.4,20.8c11,28.5,11.3,59.6,8,89.5c-0.4,3.2,4.6,3.1,4.9,0c3.4-30.3,3-62-8.2-90.8c-2.9-7.5-7-14.6-7.6-22.8
				c-0.6-7.9,1-15.7,2-23.4c1.9-14.9-0.6-29.1-8.5-41.9C66.1,80.4,61.8,82.9,63.5,85.6L63.5,85.6z"/>
		</g>
	</g>
	<g>
		<g>
			<path class="st3" d="M61,264.9c-0.3,6.5-1,13-1,19.4c0,3.5,0.5,7,4,8.6c9.2,4,12.9-9.5,15.2-15.3c1.2-3-3.6-4.2-4.8-1.3
				c-1,2.5-1.9,5.1-3,7.5c-0.5,1.2-2.2,4.6-3.9,4.6c-2.3,0-2.7-3.6-2.6-5c0.3-6.2,0.7-12.3,1-18.5C66.2,261.7,61.2,261.7,61,264.9
				L61,264.9z"/>
		</g>
	</g>
	<g>
		<g>
			<path class="st3" d="M57.1,185.9c5.1,15.4,8,31.4,8.6,47.7c0.2,6.9,0.1,13.9,1.7,20.8c1.5,6.6,4.8,12.8,7.9,18.8
				c2.4,4.6,5.2,9.6,9.7,12.5c3.1,2,8,3.5,11.3,1c8.4-6.4-5.5-22.5-9.9-27.4c-2.1-2.4-5.6,1.1-3.5,3.5c3.5,3.9,6.5,8.1,8.9,12.8
				c1.2,2.3,3.3,6.6-0.3,7.4c-2.2,0.4-5.2-2.4-6.5-3.8c-3.2-3.5-5.3-8.1-7.4-12.2c-2.5-5-4.8-10.1-5.8-15.6c-2.1-11-1-22.6-2.4-33.7
				c-1.4-11.2-4-22.2-7.5-33C60.9,181.6,56.1,182.9,57.1,185.9L57.1,185.9z"/>
		</g>
	</g>
	<g>
		<g>
			<path class="st3" d="M55.8,185.9c-2.9,11.2-1.5,22.5,1.2,33.6c2.8,11.9,6.1,23.6,9.2,35.4c0.8,3.1,5.6,1.8,4.8-1.3
				c-2.8-10.6-5.7-21.1-8.3-31.7c-2.9-11.4-5.1-23.1-2.1-34.7C61.4,184.1,56.6,182.8,55.8,185.9L55.8,185.9z"/>
		</g>
	</g>
	<g>
		<g>
			<path class="st3" d="M36.4,83.1c-18.3,21.2-17.2,50.7-17.9,77c-0.1,3.7-1.6,10.5,3.2,12.2c3.7,1.3,6.7-1.7,7.8-5
				c4.2-12.9-0.4-27,5-39.9c1.2-2.9-3.5-4.2-4.8-1.3c-3.7,8.7-3.3,18-3.6,27.3c-0.1,2.7-0.2,5.5-0.6,8.2c-0.1,0.8-0.1,3-0.7,3.7
				c-1,1.3-1.1,0.9-1.6-0.2c-0.9-1.8,0.2-6.8,0.3-9c0.1-3,0.2-6,0.3-9c0.7-21.1,1.6-43.8,16.1-60.6C42,84.2,38.5,80.7,36.4,83.1
				L36.4,83.1z"/>
		</g>
	</g>
	<g>
		<g>
			<path class="st3" d="M65.1,86.5c14.6,25.9,24.4,54,28.9,83.4c0.8-1,1.6-2.1,2.4-3.1c-4.6,0.2-5.9-5.7-7.2-8.9
				c-1.2-3-2.5-6.1-3.7-9.1c-2.5-6.1-4.9-12.1-7.4-18.2c-1.2-2.9-6-1.6-4.8,1.3c3.7,9.1,7.4,18.2,11.1,27.2
				c2.3,5.7,4.6,12.9,12,12.5c1.7-0.1,2.6-1.5,2.4-3.1c-4.6-29.8-14.6-58.4-29.4-84.6C67.8,81.2,63.6,83.7,65.1,86.5L65.1,86.5z"/>
		</g>
	</g>
	<g>
		<g>
			<path class="st3" d="M42.3,18.7c-10.1,0.9-15.9,13.4-19,21.8c-4.4,12.2-4.7,25.4-4.8,38.2c0,1.4,1.1,2.4,2.5,2.5
				c6,0.1,11.9,0.2,17.9,0.1c3.2,0,3.2-5,0-4.9c-6,0.1-11.9,0-17.9-0.1c0.8,0.8,1.6,1.6,2.5,2.5c0.1-10.2,0.3-20.6,2.7-30.5
				c1.1-4.6,2.8-9.1,5.1-13.3c2.2-4,5.9-10.7,11.1-11.2C45.4,23.4,45.5,18.4,42.3,18.7L42.3,18.7z"/>
		</g>
	</g>
	<g>
		<g>
			<path class="st3" d="M43.3,23.7c12.4-2.2,30.4,2.1,34.9,15.5c2.1,6.5,2.2,14,2.9,20.7c0.8,7.1,1.6,14.2,2.4,21.3
				c0.6-0.8,1.2-1.6,1.8-2.4c-6.4,1.4-12.7,1.6-19.1,0.6c-3.1-0.5-4.4,4.3-1.3,4.8c7.3,1.2,14.5,1,21.8-0.6c1-0.2,1.9-1.4,1.8-2.4
				c-1.1-9.7-2.2-19.4-3.2-29.1c-0.8-7.1-1.1-14.7-5.4-20.7C71.7,20,55.3,16.5,42.1,18.9C38.9,19.5,40.2,24.3,43.3,23.7L43.3,23.7z"
				/>
		</g>
	</g>
</g>
</svg>
