<?xml version="1.0" encoding="utf-8"?>
<!-- Generator: Adobe Illustrator 23.0.3, SVG Export Plug-In . SVG Version: 6.00 Build 0)  -->
<svg version="1.1" id="Calque_1" xmlns="http://www.w3.org/2000/svg" xmlns:xlink="http://www.w3.org/1999/xlink" x="0px" y="0px"
	 viewBox="0 0 259 308.1" style="enable-background:new 0 0 259 308.1;" xml:space="preserve">
<style type="text/css">
	.st0{fill:#F4A776;}
	.st1{fill:#FBD8C5;}
	.st2{fill:#C5774F;}
	.st3{fill:#936645;}
	.st4{fill:#79CAE2;}
	.st5{fill:#CFE3EA;}
	.st6{fill:#2680A3;}
	.st7{fill:#4D678B;}
</style>
<g>
	<g>
		<g>
			<path class="st0" d="M165.5,57.1c-2.5,0-5.1,0-7.6,0c-1,0-1.9,0-2.9,0c-2.3-0.2-1.5,0.6,2.5,2.5c-0.6,0.5,0-3.4,0.2-3.7
				c2.3-3.9,10.7-5.6,14.7-3.8c2,0.9,3.1,3.2,3.7,5.3c0.4,1.5,0.5,2.5,0.5,4.1c0,1.1,0,2.3-0.1,3.4c0.9-0.8,1.1-1.4,0.6-1.9
				c0.4,0.7-7.1,0.7-7.9,0.5c-0.4-0.1-3.1-1.5-3.2-1.5c-0.1-0.2-0.3-0.3-0.4-0.5c-0.2,0.6,0,1.1,0.3,1.5c-0.9,1.5-1.7,2.9-2.6,4.4
				c0.3-0.3,0.6-0.6,0.9-0.8c-1.5,0.9-2.9,1.7-4.4,2.6c-1.7,0.6,3.2-0.6,2.8-0.3c-0.7,0.5-1.7-3.1-0.4,0.7
				c2.5,7.3,14.4,10.9,18.3,2.4c1-2.1,1.9-4.2,2.3-6.5c0.9-5.3-1.4-10.8-7-12.3c-4.8-1.3-11.4,1.6-12.3,7c-0.2,0.6-0.3,1.1-0.2,1.7
				c6.1,0.8,12.2,1.6,18.3,2.4c-3.1-9.1-8.9-15.2-19-15.4c-9-0.2-16.9,4.5-16.6,14.5c0.6,19.1,26.9,24.5,40.8,17.1
				c15.8-8.4,11.6-33.2-0.5-43.1c-12.5-10.3-34.7-6.7-44.2,6.2c-5.2,7.1-6.7,17-2.4,24.9c5.4,10.1,16.1,8.6,25.9,8.5
				C178.4,77,178.4,57,165.5,57.1L165.5,57.1z"/>
		</g>
	</g>
	<g>
		<g>
			<path class="st0" d="M171.5,73.2c-18.7-6.9-33.3,9.5-39.9,24.9c-7.7,18-13.4,36.4-10.1,56.1c1.8,11.2,20,8.5,19.6-2.7
				c-0.3-9.1-0.6-18.1-0.2-27.2c0.3-6.7,0.6-14.5,4.2-20.3c3.6-5.7,11-8.1,17.2-9.8c8.2-2.3,16.6-3.2,25.2-2.9
				c14.5,0.4,27.3,4.8,35,17.7c8.1,13.5,7.1,29.7,2.1,44.2c4.9-2,9.8-4,14.7-6c-14.3-9.3-32.1-8.2-48.4-10c-8.7-0.9-17.4-2.4-26-4.3
				c-6.6-1.4-15.3-2.3-20.3-7.3c-2.4,5.7-4.7,11.4-7.1,17.1c32.1-1.6,64.1,0.3,96.1,2.3c11.2,0.7,13.7-17.3,2.7-19.6
				c-14.3-3-28.6-6-42.8-9c-12.6-2.6-26.6-4.1-38.3-9.6c-1.7,6.2-3.4,12.4-5,18.6c27-3.4,54.6-3.7,81.7,0c4.5,0.6,8.8-0.4,11.3-4.6
				c2.3-3.9,1.5-8.8-1.6-12.1c-9.5-10.3-20.6-20.5-35.4-21.4c-8.3-0.5-16.5,2.2-24.6,3.6c-3.6,0.6-7.1,1-10.7,1.4
				c-1.9,0.2-3.8,0.3-5.8,0.4c-1.3,0.1-2.6,0.1-3.8,0.2c-2.4-0.2-2.6,0-0.5,0.6c1.2,1.2,2.4,2.4,3.6,3.6c-0.2-0.3-0.4-0.6-0.7-1
				c0.5,1.7,0.9,3.4,1.4,5c0,0.3-0.1,0.6-0.1,0.9c-0.9,1.5-1.7,2.9-2.6,4.4c-0.7,0.7-1.4,1-2.3,1c5.4-0.5,10-4.2,10-10
				c0-5-4.6-10.5-10-10c-4.8,0.4-9.6,1.8-12.6,5.9c-3.5,4.8-3.1,11.5,1.2,15.8c4.1,4.1,10.2,3.9,15.5,3.6c5.7-0.3,11.4-0.9,17-1.7
				c5.1-0.7,10.1-1.6,15.1-2.6c4.2-0.9,8.2-1.7,12.4-0.5c7.7,2.2,13.6,9.3,18.8,14.9c3.2-5.6,6.5-11.1,9.7-16.7
				c-29-3.9-58-4.4-87-0.7c-4.4,0.6-8.4,2.7-9.6,7.3c-1.1,4,0.6,9.4,4.6,11.3c13,6.1,27.2,8.3,41.1,11.2c14.9,3.1,29.8,6.3,44.8,9.4
				c0.9-6.5,1.8-13.1,2.7-19.6c-32-2-64.1-3.9-96.1-2.3c-8.5,0.4-13.4,10.7-7.1,17.1c5.9,5.9,13.6,8.8,21.5,10.7
				c9.4,2.3,18.9,4.1,28.5,5.4c9.3,1.3,18.6,2,28,2.7c7.3,0.6,14.4,1.8,20.7,5.8c5.7,3.7,12.7-0.2,14.7-6
				c10-28.8,3.3-65.8-26.1-80.6c-15.2-7.6-33.7-7.8-50.1-5.3c-15.1,2.3-32.9,8.2-40.5,22.7c-8.8,16.6-6.6,38.2-6,56.3
				c6.5-0.9,13.1-1.8,19.6-2.7c-2.1-13,2.4-26.4,7.2-38.3c2.8-7.1,8.3-21.8,18.3-18.1c5.1,1.9,11-2.1,12.3-7
				C180,79.9,176.6,75.1,171.5,73.2L171.5,73.2z"/>
		</g>
	</g>
	<g>
		<g>
			<path class="st0" d="M132.6,143.3c0.1,10.8,2.8,21.3,8,30.8c2.7,4.9,6.2,9.4,10,13.4c0.5,0.5,1.3,1,1.6,1.6
				c-0.8-1.3-0.2,0.9-0.2,1.8c0,3.3,0,6.5,0,9.8c0,12.4,0.1,24.8,0,37.2c-0.1,10.6-2.2,20.7-9.1,29.1c-3.4,4.2-4.1,10.1,0,14.1
				c3.5,3.5,10.7,4.2,14.1,0c8.3-10.1,13.3-21.6,14.6-34.7c1.3-13.1,0.4-26.7,0.4-39.9c0-6.3,0.4-12.6-0.1-18.9
				c-0.5-7.4-4.8-11.3-9.4-16.6c-6.6-7.7-9.9-17.7-10-27.7C152.5,130.4,132.5,130.4,132.6,143.3L132.6,143.3z"/>
		</g>
	</g>
	<g>
		<g>
			<path class="st0" d="M147.3,152.2c-1.4,9.5-0.3,17.7,3.7,26.4c1.6,3.5,6.4,5.3,10,4.8c4.2-0.6,6.8-3.3,8.3-7.2
				c-0.5,0.7-1,1.4-1.5,2c-1.7,0.5-3.4,0.9-5,1.4c0.4,0,0.9,0,1.3,0c-1.7-0.5-3.4-0.9-5-1.4c0.4,0.2,0.7,0.4,1.1,0.6
				c-1.2-1.2-2.4-2.4-3.6-3.6c-1-1.9,0.2,2.8,0.2,2.9c0.2,1.5,0.5,3,0.7,4.5c0.6,4.5,2.7,8.4,7.3,9.6c4.2,1.1,9.2-0.7,11.3-4.6
				c1.3-2.4,7.4-3.4,8.7-2.7c0.8,0.4,4.2,4.2,5.8,5.6c2.8,2.5,5.5,5.1,8.3,7.6c6,5.5,13.9,2.5,16.7-4.4c2.7-6.5,4-14,0.3-20.4
				c-1.6-2.9-4-5-6.7-6.8c-1.8-1.2-3.9-1.9-5.3-3.5c-0.7,5.2-1.3,10.5-2,15.7c3.3-1.8,6.5-3.6,9.8-5.3c9.1-5,4.5-18.2-5-18.6
				c-16.7-0.8-33.5-0.8-50.2,0.1c0,6.7,0,13.3,0,20c5.9-0.8,11.7-0.8,17.6,0c5.4,0.7,10-5.1,10-10c0-6-4.6-9.3-10-10
				c-5.9-0.7-11.7-0.7-17.6,0c-5.4,0.7-10,4.1-10,10c0,5.2,4.6,10.3,10,10c16.7-0.8,33.5-0.8,50.2-0.1c-1.7-6.2-3.4-12.4-5-18.6
				c-3.3,1.8-6.5,3.6-9.8,5.3c-5.9,3.2-6.2,11.1-2,15.7c1.4,1.6,3.1,2.9,4.9,4c0.6,0.4,3.3,2.4,3.9,2.3c0.6,0.2,0.7,0.3,0.5,0.4
				c-0.7-2-1-2.5-0.7-1.4c-0.3,0.1-1.8,5.5-2,6.1c5.6-1.5,11.1-2.9,16.7-4.4c-8.2-7.5-16.6-18.8-28.6-19.1
				c-9.9-0.2-20.7,3.4-25.6,12.6c6.2,1.7,12.4,3.4,18.6,5c-0.9-7.2-0.7-17.2-7.7-21.4c-8.8-5.2-16.5,1.7-19.6,9.6
				c6.1-0.8,12.2-1.6,18.3-2.4c-1.5-3.3-2.2-7.3-1.7-11c0.8-5.3-1.3-10.7-7-12.3C154.8,143.9,148.1,146.8,147.3,152.2L147.3,152.2z"
				/>
		</g>
	</g>
	<g>
		<g>
			<path class="st0" d="M198.2,185.9c0,11.1-0.1,22.1-0.1,33.2c0,9.8-1.2,20.6,1.3,30.2c2.5,9.5,9.4,14.2,16.4,20.2
				c1.6,1.3-0.3,1.5,0.5,0.3c0.3-0.5,1.4-2.1,1.6-2.6c0.4-1.3,0.7,1.5-0.4-0.4c-0.9-1.6-2-4.9-2.6-7.2c-3-12.5-22.3-7.2-19.3,5.3
				c2.9,12.1,11.5,23.7,25.3,21.9c15.6-2.1,19.1-19.4,9.8-30.4c-3.3-3.9-9.3-6-11.5-10.7c-2.1-4.3-1.2-10.4-1.1-14.9
				c0-15,0.1-29.9,0.1-44.9C218.2,173.1,198.2,173.1,198.2,185.9L198.2,185.9z"/>
		</g>
	</g>
	<g>
		<g>
			<path class="st0" d="M179.4,187.9c3.7-1.8,8.5,0.8,11.4,3.5c4.9,4.6,6.4,12,7.3,18.4c2.4,16.8,3,34.1,4.4,51
				c6.2-1.7,12.4-3.4,18.6-5c-1.5-2-2.5-3.5-2.6-6c-0.3-12.9-19.5-12.9-20,0c-0.2,5.3-0.1,10.7,0.3,16c0.4,5.4,4.3,10,10,10
				c5.1,0,10.4-4.6,10-10c-0.9-11.4-1.1-22.8-0.8-34.2c0.4-12.9-19.6-12.9-20,0c-0.4,11.4-0.1,22.8,0.8,34.2c6.7,0,13.3,0,20,0
				c-0.4-5.3-0.5-10.7-0.3-16c-6.7,0-13.3,0-20,0c0.1,5.8,1.7,11.5,5.3,16.1c2.8,3.6,6.6,5.9,11.3,4.6c4-1.1,7.7-5.3,7.3-9.6
				c-1-11.5-1.9-23-2.9-34.4c-0.9-10.5-1.2-21.5-4.5-31.6c-6.3-19.1-25.9-33.9-45.9-24.2c-4.9,2.4-6.2,9.3-3.6,13.7
				C168.7,189.3,174.6,190.3,179.4,187.9L179.4,187.9z"/>
		</g>
	</g>
	<g>
		<g>
			<path class="st1" d="M138.7,46c-1.8,6.9-3.3,14.3-0.1,21c3.1,6.5,9.4,9.3,15.9,11.7c6.1,2.2,8.7-7.5,2.7-9.6
				c-3.9-1.4-8.4-2.9-9.9-7.2c-1.5-4.2,0-9,1.1-13.1C150,42.5,140.3,39.8,138.7,46L138.7,46z"/>
		</g>
	</g>
	<g>
		<g>
			<path class="st1" d="M150.7,79.8c-10.6-1.4-20.2,5.6-25.3,14.5c-5.7,10.1-7.4,22.4-10,33.5c-1.5,6.3,8.2,8.9,9.6,2.7
				c3.1-13.2,5.9-43.4,25.6-40.7C157,90.7,157,80.7,150.7,79.8L150.7,79.8z"/>
		</g>
	</g>
	<g>
		<g>
			<path class="st1" d="M135.5,122c-4.3,10.5-5,21.2-0.9,31.9c4,10.6,11.1,19.4,18.2,28.1c4.1,5,11.1-2.1,7.1-7.1
				c-6-7.3-12.2-14.8-15.7-23.7c-3.5-9.2-2.7-17.6,0.9-26.6C147.5,118.7,137.8,116.1,135.5,122L135.5,122z"/>
		</g>
	</g>
	<g>
		<g>
			<path class="st1" d="M145.6,206.6c1,13.1,2.9,26.4,2.9,39.5c0,6.4-2.3,9.6-6.2,14.4c-3.5,4.3-5.7,9.4-3.9,14.9
				c2,6.1,11.7,3.5,9.6-2.7c-1.6-4.8,5.8-9.7,7.8-13.6c2.3-4.5,2.8-9.7,2.6-14.6c-0.4-12.6-1.9-25.3-2.9-37.9
				C155.1,200.2,145.1,200.2,145.6,206.6L145.6,206.6z"/>
		</g>
	</g>
	<g>
		<g>
			<path class="st2" d="M186.9,59.3c-1.7,3.9-1.9,8.5-3.9,12.2c-1.5,2.9-0.2,6.4,3,7.3c15.8,4.9,30.1,11.8,39.8,25.7
				c9.2,13.1,13.6,29.6,11.1,45.5c-1,6.3,8.6,9,9.6,2.7c3-18.6-1.3-37.7-12.1-53.2c-11.3-16.2-27.4-24.6-45.8-30.3
				c1,2.4,2,4.9,3,7.3c2-3.9,2.2-8.2,3.9-12.2C198.1,58.5,189.5,53.4,186.9,59.3L186.9,59.3z"/>
		</g>
	</g>
	<g>
		<g>
			<path class="st2" d="M207.4,102.3c10.7,25.7,20.3,59.7-1.1,82.9c-4.4,4.7,2.7,11.8,7.1,7.1c24.1-26.1,16-63.1,3.7-92.6
				C214.6,93.8,204.9,96.3,207.4,102.3L207.4,102.3z"/>
		</g>
	</g>
	<g>
		<g>
			<path class="st2" d="M207.7,232.3c-0.5,8.4-0.8,17,2.3,25c1.3,3.4,3.1,6.4,5.4,9.2c1.2,1.5,2.5,2.9,3.8,4.3
				c0.4,0.4,4.4,5.4,3.8,5.5c-6.4,0.5-6.4,10.5,0,10c4.5-0.4,8.4-2.9,9.6-7.6c1.3-5.3-1.7-10.1-5.1-13.8c-3.9-4.2-7.4-7.9-8.9-13.6
				c-1.7-6.2-1.2-12.7-0.8-19C218,225.8,208,225.9,207.7,232.3L207.7,232.3z"/>
		</g>
	</g>
	<g>
		<g>
			<path class="st2" d="M170.6,45.8c-0.1,1.8-0.1,3.5,0.1,5.3c0.1,1,0.8,1.9,1.9,1.9c0.9,0,2-0.9,1.9-1.9c-0.1-1.8-0.2-3.5-0.1-5.3
				C174.4,43.4,170.7,43.4,170.6,45.8L170.6,45.8z"/>
		</g>
	</g>
	<g>
		<g>
			<path class="st2" d="M155.8,46.3c0.2,1.9,0.4,3.8,0.6,5.8c0.1,1,0.8,1.9,1.9,1.9c0.9,0,2-0.9,1.9-1.9c-0.2-1.9-0.4-3.8-0.6-5.8
				c-0.1-1-0.8-1.9-1.9-1.9C156.7,44.4,155.7,45.3,155.8,46.3L155.8,46.3z"/>
		</g>
	</g>
	<g>
		<g>
			<path class="st3" d="M143.8,74.5c-10,3.4-18.5,8.7-22.9,18.7c-5.6,12.7-5.9,26.8-8,40.3c-0.5,3.4-0.6,6.6-0.3,9.9
				c0.5,5.5,0.6,12.1,4,16.8c2.6,3.5,7.1,5.7,11.4,4c4.5-1.8,6.2-6.7,7.3-11.1c0.8-3.1-4.1-4.5-4.8-1.3c-0.5,2.1-1,4.5-2.5,6.1
				c-2.8,3.1-6.2,1.4-8-1.9c-2.2-3.9-2.1-9.4-2.4-13.8c-0.4-5.4,0.8-10.6,1.5-16c1.3-10.6,2.2-21.5,6.6-31.3
				c3.8-8.5,11.1-12.8,19.6-15.7C148.1,78.3,146.8,73.4,143.8,74.5L143.8,74.5z"/>
		</g>
	</g>
	<g>
		<g>
			<path class="st3" d="M144.3,94.5c-10.6,15.1-17.2,33.7-14.6,52.3c2.2,15.9,11,30.6,25,38.8c2.8,1.6,5.3-2.7,2.5-4.3
				c-13.3-7.8-21.5-22.2-22.8-37.4c-1.5-16.8,4.8-33.2,14.3-46.7C150.5,94.4,146.2,91.9,144.3,94.5L144.3,94.5z"/>
		</g>
	</g>
	<g>
		<g>
			<path class="st3" d="M208.3,97.5c16.6,9.2,16.7,30,13.6,46.3c-2.7,14.6-6,31.2-18.3,40.9c-2.5,2,1,5.5,3.5,3.5
				c14.2-11.3,18.1-31.9,20.5-48.9c2.4-17.1-0.3-37.1-16.9-46.2C208,91.6,205.5,96,208.3,97.5L208.3,97.5z"/>
		</g>
	</g>
	<g>
		<g>
			<path class="st3" d="M194.1,75.6c11.2-0.5,20.6,4.8,28.3,12.6c7.5,7.6,11.7,15.3,15.1,25.3c2.5,7.3,5.2,14.8,4.9,22.7
				c-0.2,4.6-1.2,9.2-2.3,13.7c-0.6,2.4-1.1,4.9-2,7.3c-1.2,3.3-5.1,8.8-8.9,4.9c-2.2-2.3-5.8,1.2-3.5,3.5c3.3,3.4,8.5,3.5,12.3,0.6
				c4.7-3.6,5.9-10.4,7.2-15.8c2.6-10.7,2.8-20.4-0.5-31c-3.8-12.5-8-23.6-17.2-33.1c-9-9.4-20-16.3-33.4-15.7
				C190.8,70.7,190.8,75.7,194.1,75.6L194.1,75.6z"/>
		</g>
	</g>
	<g>
		<g>
			<path class="st3" d="M139.3,172.2c2.8,18.2,5,36.5,6.7,54.9c0.4,4.2,0.7,8.5,1.1,12.7c0.3,4.2,2.2,10.9-0.7,14.5
				c-1.9,2.3-4.6,3.8-6.3,6.4c-1.8,2.6-2.9,5.6-3.4,8.7c-0.8,4.9,0,11,4.6,13.8c5.6,3.4,12.2-0.7,17-3.6c5.2-3.1,10.4-6.6,14.1-11.5
				c4.1-5.4,4.9-11.6,5-18.2c0.2-8.9,0-17.9-0.5-26.8c-0.3-6.2-4.3-24.1,4.4-25.8c7.7-1.5,7.2,15.7,7.6,20.4
				c0.8,8.9,1.4,17.8,1.9,26.7c0.3,7.1,0,14.7,2.4,21.5c2,5.9,6.1,10.5,11.2,14c4.9,3.4,11.4,7,17.5,5.2c5.3-1.5,8.9-6.7,9.5-12
				c0.9-7.6-3.4-13.7-7.4-19.6c-5.8-8.5-5.8-17.7-5-27.7c1.6-20.1,3.8-40.2,6.4-60.2c0.4-3.2-4.6-3.1-5,0
				c-2.1,16.1-3.9,32.3-5.4,48.5c-1.3,14.3-3.9,29.3,4.7,41.9c4,5.8,10,13.7,5.3,20.9c-5.4,8.2-16.7,0.5-21.7-4.3
				c-5.8-5.6-6.7-13.1-7-20.8c-0.4-7.9-0.7-15.7-1.3-23.6c-0.6-7.7-1.1-15.5-2.2-23.1c-0.6-4.2-1.7-9-5.3-11.6
				c-4-2.9-9.2-1.7-12.5,1.7c-4.3,4.4-4,10.7-3.7,16.4c0.5,8,1,15.9,1.1,23.9c0.1,7.6,1.3,16.8-1.1,24.1
				c-2.1,6.5-8.1,10.9-13.6,14.4c-2.7,1.7-5.9,4-9,4.8c-6.8,1.7-8.1-5-6.8-10.1c1.1-4.3,3.7-7.2,7-10.1c2.3-2,3.8-3.9,4-7.1
				c0.6-8.6-1.2-18-1.9-26.5c-1.7-18.2-3.9-36.2-6.7-54.3C143.6,167.7,138.8,169.1,139.3,172.2L139.3,172.2z"/>
		</g>
	</g>
	<g>
		<g>
			<path class="st3" d="M156.1,70.1c-10.5,0.7-19.1-8.5-18.3-18.9c0.9-11.6,10.9-19.9,21.9-21.4c11-1.6,25,2.2,29.4,13.4
				c3.1,8,4.3,22.5-4.8,27.2c-2.8,1.5-0.3,5.8,2.5,4.3c11.7-6.1,11-23.8,6.5-34.3c-5.7-13.2-22.3-17.7-35.5-15.5
				c-13.2,2.3-24.7,13-25.1,26.9c-0.4,12.7,10.5,24.1,23.4,23.2C159.3,74.9,159.4,69.9,156.1,70.1L156.1,70.1z"/>
		</g>
	</g>
</g>
<g>
	<g>
		<g>
			<path class="st4" d="M47.6,59.7c-2.5-4.5-10.2-9.6-5.9-15.7c2.6-3.7,10.9-7.1,14.5-3.8c1.7,1.5,5.2,5.1,4.5,7.5
				c-0.6,2.2-5,3.8-7,4.8c-1.5,0.7-3,1.4-4.7,1.8c-0.9,0.1-0.8,0.2,0.3,0.4c-0.1-0.4-0.2-0.9-0.3-1.3c0.3-1.2,0.1-1.6-0.5-1.1
				c-0.6,0.2-0.5,0.3,0.1,0.1c1.3,0.9,1.4,0.9,1.6,2.8c0.6,4,5.7,6.2,9.2,5.2c4.3-1.2,5.8-5.2,5.2-9.2C63.2,42,54.1,35.9,45,37.8
				c-9.8,2-12.8,11.4-10.4,20.2C37.1,67.5,46,71.1,55,68c7.7-2.7,17.5-7.5,19.9-16c2.6-8.9-2.9-17.7-9.2-23.5
				c-6.8-6.2-16.3-5.7-24.3-2.2s-14.9,9.4-15.6,18.5c-0.3,4.2,0.1,8.6,1.6,12.5c1.6,4.1,5.1,6.2,7.1,9.8
				C39.3,75.7,52.3,68.2,47.6,59.7L47.6,59.7z"/>
		</g>
	</g>
	<g>
		<g>
			<path class="st4" d="M45.3,59.6c-7-1.5-13.7,0.9-18.2,6.6c-4.6,5.9-6,13.7-7.8,20.8c-1.9,7.5-3.5,15.1-4.5,22.7
				c-0.9,7-1.1,14.4-4.1,20.9c4.6,0.6,9.1,1.2,13.7,1.8c-1.8-6.8-2-13.7-1.9-20.8c0-6.6,0.1-13.2,2.1-19.5
				C27.9,81.7,36.7,73.6,47,70.6c9.2-2.7,5.3-17.2-4-14.5c-14.6,4.3-26.4,15-31.9,29.3c-3,7.7-3.5,16.3-3.6,24.5
				c-0.1,8.9,0.1,17.8,2.4,26.5c1.6,5.8,10.9,7.8,13.7,1.8c5-10.8,4.9-22.5,7.1-34.1c1.2-6,2.7-11.9,4.2-17.8
				c0.6-2.2,2.3-13.1,6.3-12.2C50.7,76.1,54.7,61.6,45.3,59.6L45.3,59.6z"/>
		</g>
	</g>
	<g>
		<g>
			<path class="st4" d="M38.2,92.4c4.7-6.9,11.6-11.5,19.6-13.7C64,77,65.1,68.3,59.6,65c-1.3-0.8-2.6-1.5-3.9-2.3
				c-1.8-1-3.1-3-0.7,0.3c0.3,1.3,0.7,2.5,1,3.8c0-0.3,0-0.6,0.1-0.9c-0.7,1.8-1.5,3.5-2.2,5.3c0.6-0.7,2.5-1.2,3.5-1.5
				c3.2-1.1,5.5-3.8,5.5-7.2c0.1-5.1-1.2-9.8-4-14.1c-3.6-5.7-14.9-4.1-14,3.8c2.2,19.3,22.8,24.1,33.2,38.1
				c5.5,7.4,6.6,16.1,7.1,25.1c0.6,10.4,1.2,20.7,1.7,31.1c0.4,8,12.9,10.7,14.7,2c3.9-18.6,2.9-38.2-2-56.5
				c-2-7.6-5.2-15.1-10.5-21c-5.9-6.5-14.2-9.4-22.5-11.8c-9.3-2.7-13.3,11.8-4,14.5c5.9,1.7,12.1,3.4,16.2,8.3
				c4,4.8,5.7,11.1,7.1,17c3.4,14.9,4.4,30.5,1.3,45.5c4.9,0.7,9.8,1.3,14.7,2c-0.6-10.4-1.1-20.7-1.7-31.1
				c-0.6-9.4-1.6-18.7-5.9-27.2c-3.7-7.5-9.8-13.8-16.3-19c-3.6-2.9-7.4-5.3-11.1-8.1c-2.8-2.1-6.6-5.1-7.1-8.9
				c-4.7,1.3-9.3,2.5-14,3.8c1.4,2.2,1.9,3.9,1.9,6.5c1.8-2.4,3.7-4.8,5.5-7.2c-5.2,1.8-11.9,4.1-12.3,10.6c-0.4,6.6,6.1,9.2,11,12
				c0.6-4.6,1.2-9.1,1.8-13.7C41.8,67.4,32,74.7,25.1,84.8C19.8,92.9,32.8,100.4,38.2,92.4L38.2,92.4z"/>
		</g>
	</g>
	<g>
		<g>
			<path class="st4" d="M68.5,73.5c11.3-2.2,22.6,5.3,25.5,16.3c3.8,14.7-2.6,30.5-3.5,45.2c-0.6,9.6,14.4,9.6,15,0
				c1.2-19.2,9.3-38.8-0.2-57.3C97.7,63,80.4,55.9,64.5,59C55,60.9,59,75.3,68.5,73.5L68.5,73.5z"/>
		</g>
	</g>
	<g>
		<g>
			<path class="st4" d="M25.8,106.7c-0.1,5.4-4.4,10.2-7.3,14.5c-3.4,5-6.4,10.5-10.9,14.6c4.2,2.4,8.4,4.9,12.5,7.3
				c1.5-9,5.4-17.2,9.5-25.3C33,111,37,104.1,43.3,99.6c11.3-8.1,26.1-8.5,38.8-3.7c8,3,13.2-9.7,5.8-13.7
				c-11.4-6.1-24.4-5.6-37-5.9c1.3,4.7,2.5,9.3,3.8,14c4.4-2,9.6-2,14.1-0.4c1.2,0.4,2.4,1,3.5,1.7c0.6,0.4,1.9,1.8,2.4,1.9
				c1.2,0.2,1.7-1.5,0.5-2.1c-0.6-0.3-4.3,0.2-4.8,0.2c-14.2,0.3-28.5-0.4-42.7-1c0.7,4.9,1.3,9.8,2,14.7c9.2-2.4,18.5-3.6,28-3.2
				c4.2,0.2,8.4,0.6,12.6,1.4c2.2,0.4,4.3,1,6.4,1.7c0.8,0.3,4.3,2.2,4.2,1.5c0-1.3,0-2.7,0-4c3.1-2.7,3.2-3.4,0.4-2.3
				c-0.9,0.2-1.8,0.4-2.7,0.5c-1.8,0.2-3.7,0.3-5.6,0.4c-4.2,0.1-8.4,0-12.6,0c-8.5,0-17.1-0.1-25.6-0.3c0,5,0,10,0,15
				c7.9-0.5,15.8-1.1,23.7-0.3c5.3,0.5,15.6,1.6,16.6,8.3c-0.1,0.5,0,0.5,0.3-0.1c0.7-0.8,0.2-1-1.4-0.5c-1.6-0.3-3.4,0-5-0.1
				c-3.7-0.2-7.5-0.7-11-2.1c-5.2-2-9.9-6.2-10-12.1c-5,0-10,0-15,0c0.2,7.5-0.1,15-0.9,22.5c4.7-1.3,9.3-2.5,14-3.8
				c-1.6-3.2-3.2-6.5-4.8-9.7c-3.9-7.9-15.5-2.2-13.7,5.8c0.8,3.5,2.1,6.7,3.8,9.9c4.7,8.5,17.6,0.9,13-7.6c-1.1-2-1.8-4-2.3-6.3
				c-4.6,1.9-9.1,3.9-13.7,5.8c1.6,3.2,3.2,6.5,4.8,9.7c3.6,7.4,13.3,2.8,14-3.8c0.8-7.5,1.1-15,0.9-22.5c-0.3-9.6-15.2-9.7-15,0
				c0.2,12.1,8.6,21.7,19.5,26c5.8,2.3,12,3.1,18.2,3.3c6.3,0.2,13.1,0.2,17-5.6c7.8-11.5-2.8-24.8-13.5-28.9
				c-12.3-4.7-26.5-3.7-39.4-2.8c-9.6,0.6-9.7,14.8,0,15c13,0.2,26.1,0.7,39.1,0.2c5.3-0.2,11.7-0.5,16.4-3.2
				c4.9-2.9,6.7-8.9,3.6-13.8c-5.7-9.1-21.1-10.8-30.7-11.7c-12.6-1.2-25.4,0.1-37.7,3.3c-8.4,2.2-6.3,14.4,2,14.7
				c11.6,0.5,23.3,1,34.9,1.1c9.3,0,23.5,1.3,26.9-10.1c2.8-9.7-6.7-17.1-14.5-20.3c-9.2-3.8-19-3.1-27.9,1
				c-7.1,3.3-3.1,13.8,3.8,14c9.6,0.2,20.7-0.9,29.5,3.8c1.9-4.6,3.9-9.1,5.8-13.7c-16.2-6-35.9-4.8-50.3,5.2
				C27.7,92.2,22,100,17.5,108.7c-5,9.6-10,19.7-11.8,30.5c-1.2,7.2,6.7,12.7,12.5,7.3s9.9-12.6,14.2-19.2
				c4.3-6.4,8.2-12.6,8.3-20.5C40.9,97,25.9,97,25.8,106.7L25.8,106.7z"/>
		</g>
	</g>
	<g>
		<g>
			<path class="st4" d="M56,121c0,0.1-0.1,0.3-0.1,0.4c-2.5,8.1,9.7,13.3,13.7,5.8c0.9-1.6,1.5-3.1,2-4.9c1.1-3.9-1.3-8.2-5.2-9.2
				c-5.4-1.4-12.3-2.1-17.3-4.8c-1.3,4.7-2.5,9.3-3.8,14c6-0.6,12-0.5,17.9,0.9c4.2,1,10.9,2.4,13.5,6.3c5.4,7.9,18.4,0.4,13-7.6
				c-9-13.2-29.6-16.1-44.4-14.6c-6.9,0.7-10.9,10.1-3.8,14c6.3,3.4,14,4.5,20.8,6.3c-1.7-3.1-3.5-6.2-5.2-9.2
				c-0.2,0.4-0.3,0.8-0.5,1.3c4.6,1.9,9.1,3.9,13.7,5.8c0-0.1,0.1-0.3,0.1-0.4C73.3,115.7,58.8,111.7,56,121L56,121z"/>
		</g>
	</g>
	<g>
		<g>
			<path class="st4" d="M32.7,265.5c-1.3,0.1-5.1,0.9-5.7,0.6c1.5,1.1,3,2.3,4.5,3.4c-0.2-0.3-0.3-0.6-0.5-0.8
				c0.3,1.3,0.7,2.5,1,3.8c-0.3-4.3,3.8-8.8,5-12.9c1.6-5.5,1-11.3,0.6-16.9c-0.8-12.8-1.2-25.5-1.4-38.3c-0.1-12.5,0-24.9,0.1-37.4
				c0.1-6.6,0.2-13.1,0.4-19.7c0.1-5.2-0.4-10.8,2.6-15.3c5.4-8-7.6-15.6-13-7.6c-3.8,5.7-4.4,12.3-4.6,18.9
				c-0.2,7.5-0.3,15.1-0.4,22.6c-0.2,15.4-0.4,30.8,0,46.2c0.2,7.5,0.4,15.1,0.8,22.6c0.3,6.4,2.2,14.6,0.4,20.8
				c-1.8,5.8-5.9,10.4-5.5,16.9c0.5,9.1,9.1,8.7,15.7,8c4-0.4,7.5-3.1,7.5-7.5C40.2,269.2,36.7,265,32.7,265.5L32.7,265.5z"/>
		</g>
	</g>
	<g>
		<g>
			<path class="st4" d="M43.4,271.6c-0.4-9.3,2.5-18,4.6-26.9c2.2-9,3.5-18.2,5.2-27.3c1.6-8.3,3.4-16.7,6.7-24.5
				c1.5-3.5,3.3-6.8,5.3-10c1.4-2.2,4.3-7.2,7-7.7c-1.3,0-2.7,0-4,0c2.2,0.3,4.4,7.2,5.2,9.3c1.6,4.4,2.7,8.9,3.4,13.5
				c1.5,9,1.5,18.2,1.5,27.3c0.1,9.6,0.2,19.1,1.5,28.6c1.2,8.9,3.1,19.8,8.8,27c5.6,7.2,16.9,8,21.7-0.5c5-8.8-1.6-16.6-5.4-24.1
				c-4.3-8.6-5.3-18-6.5-27.4c-1.3-10.3-3.6-20.3-6.1-30.4c-2.8-10.9-5.2-21.7-5.7-33c-0.5-11.9-0.4-23.9-0.6-35.8
				c-4.9,0.7-9.8,1.3-14.7,2c1.7,11.1,2.1,22.4,1.7,33.6c-0.4,9.7,14.6,9.6,15,0c0.5-12.6-0.4-25.1-2.2-37.6
				c-1.3-8.5-14.8-6.3-14.7,2c0.2,13.7-0.2,27.6,0.9,41.4c1.1,13.9,4.9,27.2,8.2,40.6c3.1,13,3.3,26.6,6.9,39.5
				c1.7,6,4.2,11.8,7.4,17.1c0.2,0.4,2.4,5.2,2.7,5.3c1.1-0.6,2.2-1.1,3.3-1.7c-0.3-0.6-0.7-1.3-1-1.9c-0.7-1.5-1.2-3-1.8-4.6
				c-8-24.2-1.9-50.6-7.1-75.4c-2.1-9.8-6.8-27.1-18.4-29.3c-11.6-2.1-20.6,14.5-24.6,23.1c-6.2,13.5-8.6,27.9-11.1,42.4
				c-2.6,15-8.8,30.1-8.1,45.5C28.9,281.2,43.9,281.3,43.4,271.6L43.4,271.6z"/>
		</g>
	</g>
	<g>
		<g>
			<path class="st4" d="M92.1,203.5c-0.7-27-0.3-54,1-80.9c0.3-5.4-5-7.9-9.5-7.2c-13.6,2.1-22.8,19-27.4,30.6
				c-2.3,5.8-5.9,14.6-2.9,20.7c3.2,6.5,11.7,8.3,18,5.7c6.2-2.5,10.6-9.6,9.2-16.4c-1.7-8.4-10-8.3-16.6-6.1
				c-13.8,4.4-23.2,15-28.4,28.2c-6.3,15.9-7.5,34.2-8.7,51c5,0,10,0,15,0c0.3-16.4,0.9-32.8,1.8-49.1c0.4-7.9,1-15.7,1.6-23.5
				c0.6-7.7,0.7-15.6,3.5-22.8c-4.8,0-9.6,0-14.5,0c2.3,11.2,2.9,22.5,1.9,33.8c-0.7,8.4,13.1,10.3,14.7,2
				c2.3-11.7,7.7-21.9,16.2-30.2c-4.3-1.8-8.5-3.5-12.8-5.3c-0.3,6.7-3.3,12.4-8.2,16.9c4.2,1.1,8.4,2.2,12.5,3.3
				c-1.5-8.7-1.6-17.8-0.2-26.5c-4.9-0.7-9.8-1.3-14.7-2c0.1,1.1,0.3,2.2,0.4,3.4c0.5,4,3.1,7.5,7.5,7.5c3.7,0,8-3.5,7.5-7.5
				c-0.1-1.1-0.3-2.2-0.4-3.4c-0.4-3.7-2.5-6.9-6.5-7.4c-3.4-0.4-7.6,1.6-8.2,5.4c-1.9,11.6-1.8,22.9,0.2,34.5
				c1,5.9,8.8,6.8,12.5,3.3c7.8-7.2,12.1-17,12.6-27.6c0.3-6.7-8.3-9.7-12.8-5.3c-10.2,10-17.3,22.8-20.1,36.8
				c4.9,0.7,9.8,1.3,14.7,2c1.1-12.7,0.2-25.3-2.4-37.8c-1.7-8-12-6.2-14.5,0c-2.8,7.3-3.1,15.2-3.7,22.9c-0.7,8.5-1.3,17-1.8,25.5
				c-1,17-1.6,34.1-1.9,51.1c-0.2,9.7,14.3,9.5,15,0c1-14,2.1-28.5,6.3-42c1.7-5.5,4.2-11,8.2-15.3c2-2.1,4.1-3.9,6.7-5.3
				c1.3-0.8,2.7-1.4,4.1-1.9c0.8-0.3,4.3-1,3.5-1.2c-1.5-1.1-3-2.3-4.5-3.4c0-1.9-0.1-2.4-0.2-1.5c-0.1,0.3-0.4,0.3-0.8,0
				c1.4,4,2.2,4.5,2.4,1.7c0.2-1.1,0.5-2.1,0.8-3.2c1-3.6,2.3-7.2,4.1-10.5c3-5.9,8.1-15.5,15.2-16.6c-3.2-2.4-6.3-4.8-9.5-7.2
				c-1.4,27-1.7,53.9-1,80.9C77.4,213.1,92.4,213.1,92.1,203.5L92.1,203.5z"/>
		</g>
	</g>
	<g>
		<g>
			<path class="st4" d="M87.2,193.6c0.4-11.8-4.3-23.2-12.7-31.4c-6.9-6.7-17.5,3.9-10.6,10.6c5.8,5.6,8.6,12.7,8.4,20.8
				C71.9,203.2,86.9,203.2,87.2,193.6L87.2,193.6z"/>
		</g>
	</g>
	<g>
		<g>
			<path class="st5" d="M55.3,21.7c-10.8-1.8-22.1,1.3-29,10.1c-7.5,9.7-4.5,20,1.9,29.2c0.6-2.3,1.2-4.6,1.8-6.8
				c-6.4,3.2-12.6,7.1-16.2,13.5c-3.7,6.8-4.1,14.7-4.5,22.2c-1,18.9-1.9,37.7-2.8,56.6c-0.3,6.4,9.7,6.4,10,0
				c0.8-16.2,1.6-32.4,2.4-48.6c0.3-7,0.1-14.4,2-21.2C23,69.4,28.6,66,35,62.8c2.3-1.1,3.3-4.7,1.8-6.8c-4-5.8-7.6-11.9-2.5-18.3
				c4.2-5.3,11.7-7.4,18.3-6.3C58.9,32.5,61.6,22.8,55.3,21.7L55.3,21.7z"/>
		</g>
	</g>
	<g>
		<g>
			<path class="st5" d="M22,123c1.1,17.9,2.2,35.7,2.8,53.6c0.5,16.7,1.2,33.8-0.6,50.5c-0.8,7.3-2.3,14.7-5,21.5
				c-2.9,7.1-8.6,13.2-9.7,20.9c-0.9,5.8,1,12.3,6.4,15.3s11.6,1.2,15.1-3.6c3.8-5.2-4.9-10.2-8.6-5c-1.7,2.4-3.1-4.1-3.1-4.6
				c0.3-3.2,2.1-5.9,3.7-8.6c3.1-5.2,5.7-10.6,7.5-16.4c3.7-11.7,4.4-24.2,4.7-36.4c0.6-29.1-1.3-58.1-3.1-87.1
				C31.6,116.6,21.6,116.5,22,123L22,123z"/>
		</g>
	</g>
	<g>
		<g>
			<path class="st5" d="M67.8,185.8c4,19.5,8.1,38.9,12.1,58.4c2,9.5,3.3,19.5,6.1,28.9c2.1,7.3,6.9,12.4,14,15.1
				c6,2.3,8.6-7.4,2.7-9.6c-7.8-2.9-8-12.5-9.4-19.5c-1.7-8.4-3.5-16.9-5.2-25.3c-3.5-16.9-7-33.8-10.5-50.6
				C76.2,176.9,66.5,179.5,67.8,185.8L67.8,185.8z"/>
		</g>
	</g>
	<g>
		<g>
			<path class="st6" d="M75.4,68c13.1,5.9,16.5,20.6,18.1,33.7c1.8,15.3,1.9,30.7,2,46.1c0,6.4,10,6.4,10,0
				c-0.1-17.7-0.2-35.4-3-52.9c-2.2-14.2-8.2-29.2-22.1-35.5C74.6,56.8,69.5,65.4,75.4,68L75.4,68z"/>
		</g>
	</g>
	<g>
		<g>
			<path class="st6" d="M81.2,133.6c2.3,25.3,6,50.5,11.1,75.4c2.5,12.2,5.3,24.4,8.5,36.5c1.6,6.2,3.3,12.4,5.1,18.5
				c0.9,3.1,5.5,15.2-1,15.3c-6.4,0-6.4,10,0,10c5.2,0,9.6-3,11.8-7.7c2.7-5.6,1.2-11.7-0.4-17.4c-4.1-14.2-7.9-28.4-11.2-42.7
				c-6.6-28.9-11.2-58.2-13.9-87.8C90.6,127.3,80.6,127.2,81.2,133.6L81.2,133.6z"/>
		</g>
	</g>
	<g>
		<g>
			<path class="st6" d="M59,36.3c0.5,3.7,1,7.4,1.4,11.1c0.2,1.6,0.4,3.1,0.5,4.7c0.1,1.9-1.1,3.8,1.4,3.8c-6.4,0.1-6.4,10.1,0,10
				c13.2-0.3,7.5-22.3,6.6-29.6C68.2,30,58.2,29.9,59,36.3L59,36.3z"/>
		</g>
	</g>
	<g>
		<g>
			<path class="st6" d="M21.3,103.1c0,3.9,0,7.8,0,11.7c0,6.4,10,6.4,10,0c0-3.9,0-7.8,0-11.7C31.3,96.6,21.3,96.6,21.3,103.1
				L21.3,103.1z"/>
		</g>
	</g>
	<g>
		<g>
			<path class="st6" d="M62.8,175.9c-8.3-3-14,4.6-15.2,11.9c-1.6,9.5-2.4,19.2-3.9,28.7c-3,20-6.6,39.8-10.8,59.6
				c-1.3,6.3,8.3,9,9.6,2.7c3.4-15.9,6.4-31.9,9-48c1.3-7.7,2.4-15.4,3.5-23.2c0.4-3,1.9-23.2,5.1-22
				C66.2,187.8,68.8,178.1,62.8,175.9L62.8,175.9z"/>
		</g>
	</g>
	<g>
		<g>
			<path class="st6" d="M48.6,40.8c0,1.7,0,3.3,0,5c0,2.4,3.8,2.4,3.8,0c0-1.7,0-3.3,0-5C52.3,38.4,48.6,38.4,48.6,40.8L48.6,40.8z"
				/>
		</g>
	</g>
	<g>
		<g>
			<path class="st6" d="M39.2,40.7c0,1.8,0,3.6,0,5.4c0,2.4,3.8,2.4,3.8,0c0-1.8,0-3.6,0-5.4C43,38.3,39.2,38.3,39.2,40.7L39.2,40.7
				z"/>
		</g>
	</g>
	<g>
		<g>
			<path class="st7" d="M15.6,66.3c-6.8,5.3-9,13.7-9.9,22c-1.3,11.8-1.2,23.9-1,35.8c0.1,5.8,0.1,11.8,0.7,17.6
				c0.4,3.5,1.4,7.1,4.4,9.2c7.5,5.2,11.8-3.5,12.6-9.6c0.4-3.2-4.6-3.2-5,0c-0.1,1-0.3,3.7-1.2,4.5c-4.6,4.2-5.7-2.8-5.9-4.8
				c-0.4-3.7-0.4-7.4-0.5-11.1c-0.2-7.7-0.2-15.4-0.1-23.1C10,94.9,8.6,78.1,19,69.9C21.7,67.9,18.1,64.4,15.6,66.3L15.6,66.3z"/>
		</g>
	</g>
	<g>
		<g>
			<path class="st7" d="M20.9,101.3c1.6,24.2,2.7,48.4,3.4,72.7c0.4,12,0.6,23.9,0.8,35.9c0.1,11.3,1.2,23.2-0.7,34.4
				c-0.9,5.1-2.7,9.5-5.5,13.8c-2.5,3.8-5.6,7.5-6.6,12c-1.6,7,2.9,12.9,9.6,14.6c7.2,1.9,14.8-1.3,19.6-6.8
				c6.2-7.1,5.9-17.2,6.6-26.1c1-11.7,2-23.5,2.9-35.2c0.5-5.5,0.9-11.1,1.4-16.6c0.5-5.4,0-12.9,4.2-17c6.8-6.8,11.8,3.9,13.1,9.3
				c1.3,5.6,2.4,11.2,3.6,16.8c2.4,11.7,4.5,23.5,5.4,35.5c1.2,15.8-1,41.4,20,45.1c7.1,1.3,14.7-2.4,17.8-9.1
				c3.9-8.4-2.7-17.4-4.9-25.5c-6.7-25.1-10.1-51.6-12.8-77.4c-2.7-26.3-3.9-52.7-3.6-79.2c0-3.2-5-3.2-5,0
				c-0.5,43.4,3.1,86.9,10.8,129.6c1.8,10.3,3.6,20.8,6.6,30.8c1.3,4.4,3.7,8.5,4.8,12.9c1.5,5.7-1.9,10.9-7.4,12.6
				c-11.6,3.6-18.8-9.4-20.1-18.9c-1.4-10.4-0.9-21.1-2.3-31.5c-1.3-10.4-3.3-20.7-5.4-31c-1.7-8-2.2-19-9.1-24.5
				c-5.3-4.2-12.2-2.8-16.2,2.4c-5.2,6.9-4.3,17.8-5,25.9C46,217.9,45.1,229,44.1,240c-0.4,5.2-0.9,10.4-1.3,15.6
				c-0.5,5.6-0.5,11.8-3.5,16.8c-2.5,4.1-7.1,7.3-11.9,7.7c-4.7,0.4-10.6-2-10.5-7.4c0-4.5,3.9-8.7,6.3-12.2c2.6-3.9,4.5-8,5.6-12.5
				c2.5-10.7,1.5-22.3,1.4-33.3c-0.1-12.3-0.4-24.6-0.7-36.9c-0.7-25.6-1.9-51.1-3.5-76.6C25.7,98.1,20.7,98,20.9,101.3L20.9,101.3z
				"/>
		</g>
	</g>
	<g>
		<g>
			<path class="st7" d="M79.8,64c16.9,3.2,22,21.3,23,36.2c0.6,8.1,0.6,16.3,0.4,24.5c-0.1,4.1-0.3,8.2-0.6,12.3
				c-0.1,1.9-0.3,3.8-0.5,5.7c-0.1,1.3-0.2,2.5-0.4,3.8c0.1,1.6-0.6,2.9-2,3.8c-0.1-3.2-5.1-3.2-5,0c0.1,3.1,2.4,5.2,5.5,5.1
				c3.8-0.1,5.5-3.6,6.2-6.9c2.3-12.2,2-25.6,1.7-38C107.6,91,104.4,63.8,81,59.3C78,58.5,76.6,63.4,79.8,64L79.8,64z"/>
		</g>
	</g>
	<g>
		<g>
			<path class="st7" d="M18,70.1c5.5-4.1,11.5-6.8,18.2-8.1c3.2-0.6,1.8-5.4-1.3-4.8c-7.1,1.4-13.7,4.3-19.4,8.6
				C13,67.7,15.5,72.1,18,70.1L18,70.1z"/>
		</g>
	</g>
	<g>
		<g>
			<path class="st7" d="M83,60c-2.7-0.9-5.4-1.6-8.2-2c-1.1-0.1-8.1,0-8,0.1c-1.9-2.6-6.2-0.1-4.3,2.5c1.7,2.4,3.9,2.1,6.6,2.1
				c4.3-0.1,8.5,0.7,12.6,2.1C84.7,65.9,86,61.1,83,60L83,60z"/>
		</g>
	</g>
	<g>
		<g>
			<path class="st7" d="M37.2,55.3c-9.1-1.8-11-11.9-7.6-19.4c3.6-7.8,10.5-11,18.8-10.5c7.5,0.4,15,3.9,18.5,10.8
				c3.9,7.7,1.7,16.3-4.4,22c-2.4,2.2,1.2,5.7,3.5,3.5c7.7-7.2,10.2-18.5,5.2-28.1c-4.8-9.4-15.6-13.8-25.8-13.3
				C34.5,20.9,26,27.7,23.5,38.5c-2.2,9.3,2.5,19.6,12.4,21.6C39,60.8,40.4,56,37.2,55.3L37.2,55.3z"/>
		</g>
	</g>
</g>
</svg>
