<?xml version="1.0" encoding="utf-8"?>
<!-- Generator: Adobe Illustrator 22.1.0, SVG Export Plug-In . SVG Version: 6.00 Build 0)  -->
<svg version="1.1" id="Calque_1" xmlns="http://www.w3.org/2000/svg" xmlns:xlink="http://www.w3.org/1999/xlink" x="0px" y="0px"
	 viewBox="0 0 358.3 136.2" style="enable-background:new 0 0 358.3 136.2;" xml:space="preserve">
<style type="text/css">
	.st0{fill:#DBA26A;}
	.st1{fill:#F2D5B7;}
	.st2{fill:none;stroke:#8E6B42;stroke-width:3.9937;stroke-miterlimit:10;}
	.st3{fill:#8E6B42;}
	.st4{fill:#ABD4F2;}
	.st5{fill:#CAE8FB;}
</style>
<g>
	<g>
		<g>
			<g>
				<g>
					<g>
						<path class="st0" d="M170.3,45.2c-13.7,0.7-26.6,4.3-38.9,10.5c-8.1,4.1-5.3,15.8,2.4,18.2c6.1,2,12.5,2,18.6,0
							c-2.6-6.1-5.1-12.2-7.7-18.2c-7.8,4.6-16.1,10-25.3,11.1c-3.1,0.4-8.6,0.4-11.1-1.7c1.2,1,0.3-0.3,0-1.4
							c-0.4-1.6-0.8-3.2-1.4-4.7C103,48.6,92.8,45.2,83.3,41.6c-9.1-3.4-15.9-9.4-23-15.9c-4,5.2-8.1,10.5-12.1,15.7
							C59.1,47,66.8,55.8,75.3,64.3c9.1,9.1,19.2,16.6,31.8,19.9c12.4,3.2,17.8-16,5.3-19.3c-10.7-2.8-18.2-9.8-25.8-17.6
							C78,38.5,69.3,29.8,58.2,24.1c-9.7-5-20.8,7.6-12.1,15.7C55,48,64,55.4,75.4,59.9c3.6,1.4,9.8,2.7,12.5,5.4
							c-0.5-0.5,0,0.1,0.3,0.6c0.4,0.8,0.5,1.8,0.7,2.6c0.6,2.2,1.2,4.4,2.3,6.4c5.5,10.3,19.2,12.9,29.9,11.6
							c12.3-1.4,23.1-7.4,33.6-13.7c9.5-5.6,3.3-21.8-7.7-18.2c-3,1-4.9,1-7.9,0c0.8,6.1,1.6,12.2,2.4,18.2c9-4.6,18.7-7.3,28.8-7.8
							C183.1,64.5,183.2,44.5,170.3,45.2L170.3,45.2z"/>
					</g>
				</g>
				<g>
					<g>
						<path class="st0" d="M66.1,46.8c16.4,0.5,32.7,1.1,49.1,1.8c7.9,0.3,15.8,0.6,23.6,0.9c4.3,0.2,8.5,0.3,12.8,0.4
							c1.9,0.1,3.8,0.1,5.8,0.2c1.1,0,2.3,0.1,3.4,0.1c1.6,0.1,1.2,0.1-1-0.2c-2.3-2.3-4.6-4.6-7-7v0.1c0.3-2.6,0.7-5.1,1-7.7
							c-5,7.4,1.8,14.5,8.9,16.1c-1.5-5.6-2.9-11.1-4.4-16.7c-2.9,3.3-4.7,6.9-4.1,11.4c0.3,1.8,0.8,3.3,1.7,5
							c0.6,1.1,1.1,2.9,0.4,0.1c0-1.8,0-3.5,0-5.3c0,0.1-0.1,0.3-0.1,0.4c0.9-1.5,1.7-2.9,2.6-4.4c3.2-1.5,3.5-1.8,0.8-0.8
							c-0.6,0.2-1.2,0.4-1.8,0.6c-1.8,0.6-3.6,1.1-5.4,1.6c-3.6,1-7.3,1.9-11,2.6c-5.9,1.2-12,2.2-18,2.5
							c-10.1,0.6-16.6-2.7-25.4-8.9c-4.4-3.1-11.1-0.8-13.7,3.6c-2.9,5-0.9,10.6,3.6,13.7c6.5,4.6,13.7,8.9,21.6,10.6
							c8.3,1.8,16.5,0.9,24.9-0.2c10.6-1.4,21.3-3.6,31.5-7.1c4.5-1.6,8.5-3.9,9.8-8.9c0.7-2.8,0.2-5.6-1.1-8.1
							c-0.2-0.4-0.5-0.8-0.8-1.2c-2.4-3.1,4.1,1-1.2,7c4.7-5.3,3.3-14.9-4.4-16.7c-2.4-0.7-2-0.2,1.4,1.5c1,2.4,1.9,4.7,2.9,7.1
							c0-0.1,0-0.1,0-0.2c-0.5,1.7-0.9,3.4-1.4,5c2.5-4.5,1.7-10-2.4-13.2c-3.7-2.8-8.7-2.4-13.1-2.5c-10.1-0.3-20.2-0.7-30.3-1.1
							c-19.7-0.7-39.3-1.5-59-2.2C53.2,26.4,53.2,46.4,66.1,46.8L66.1,46.8z"/>
					</g>
				</g>
				<g>
					<g>
						<path class="st0" d="M35.6,38.9c12.5,6.7,22.9,17.1,34,25.8c10.9,8.5,22.2,15,35.6,18.9c12.4,3.5,17.7-15.7,5.3-19.3
							c-26-7.5-41.7-30.2-64.8-42.7C34.4,15.5,24.3,32.8,35.6,38.9L35.6,38.9z"/>
					</g>
				</g>
				<g>
					<g>
						<path class="st0" d="M146.2,72.7c9.6,0.3,20.2,4.7,28.4,9.4c3.7,2.1,7.5,2.4,11.6,1c2.7-0.9,5.4-2.2,8-3.5c1.7-0.9,4-2.8,6-3
							c-2.4-5.7-4.7-11.4-7.1-17c-4,4-9.1,7-15,6.8c-1.3,0-2.4-0.3-3.7-0.6c1.1,0.3-1.3-1.3,0,0c-1.3-1.3-2.4-2.6-3.7-3.8
							c-10.1-9.9-25.8-7.4-36.7-0.2c-10.7,7-0.7,24.3,10.1,17.2c2.6-1.7,5.2-3.2,8.3-3.6c0.7-0.1,2.7-0.1,2.9-0.1
							c1.8,0.3,0.1-0.3,1.3,0.6c-1.6-1.2,0.3,0.4,0.6,0.8c0.7,0.8,1.4,1.5,2.1,2.3c1.9,1.9,4,3.5,6.4,4.7
							c14.1,6.9,31.1,0.5,41.5-9.9c5.8-5.7,1.8-17.8-7.1-17c-6.4,0.6-11.2,3.3-16.8,6.1c-0.8,0.4-1.8,0.6-2.5,1.1
							c-3.1,1.9-0.5-4.4,4.3,1.3c-0.7-0.9-2.6-1.7-3.6-2.2c-10.5-5.4-23.5-9.9-35.4-10.2C133.3,52.3,133.3,72.3,146.2,72.7
							L146.2,72.7z"/>
					</g>
				</g>
				<g>
					<g>
						<path class="st0" d="M200.1,77.3c6.2-0.5,12.6-1.1,18.8-0.2c6.4,0.9,12.4,4,18.5,6c4.1,1.4,8,2.2,12.2,0.8
							c5.1-1.7,10.4-5.3,15.9-4.8c5.4,0.5,10-4.9,10-10c0-5.8-4.6-9.5-10-10c-6.8-0.6-13.1,2.3-19.3,4.8c-0.5,0.2-2.1,0.6-2.6,1
							c-1.6,1.3,3.8,0.9,2.6,0.1c-1.7-1.2-4.9-1.5-6.9-2.2c-6.6-2.3-12.6-4.7-19.7-5.6c-6.5-0.8-13.1-0.3-19.7,0.1
							c-5.4,0.4-10,4.3-10,10C190.1,72.4,194.7,77.7,200.1,77.3L200.1,77.3z"/>
					</g>
				</g>
				<g>
					<g>
						<path class="st0" d="M263.7,58.1c-16.4,1.5-32.8,1.9-49.2,0.2c-7.4-0.8-14.8-2.1-22.1-3.6c-4.2-0.9-8.4-1.8-12.7-2.8
							c-3.3-0.8-6.1-1.1-8.3-3.8c-1.5,5.6-2.9,11.1-4.4,16.7c16.6-3.3,33.6-3.4,50.5-3.6c0-6.7,0-13.3,0-20
							c-8.3,0.4-16-4.8-23.9-6.8c-9.1-2.3-18.6-2.6-27.9-2.9c1.7,6.2,3.4,12.4,5,18.6c3.2-2.1,6.8-1.4,10.5-1.1
							c5,0.3,9.9,0.6,14.9,1c8.4,0.6,16.8,1.2,25.1,1.9c8.3,0.6,16.7,1.3,25,1.9c8.9,0.6,19.3-0.2,27.6,3.1c-2.3-4.1-4.6-8.2-7-12.3
							c-0.1,0.3-0.3,0.7-0.4,1c0.9-1.5,1.7-2.9,2.6-4.4c2.2-0.9,2.4-1,0.8-0.5c-1.2,0.3-2.4,0.5-3.6,0.8c-2.2,0.5-4.3,0.9-6.5,1.4
							c-3,0.6-6.1,1.2-9.2,1.5c-7.9,0.8-15.7,0.3-23.5-0.4c-5.4-0.5-10,4.9-10,10c0,5.8,4.6,9.5,10,10c10.4,1,20.5,1,30.9-0.5
							c4.9-0.7,9.8-1.8,14.6-2.8c6.8-1.5,11-4.1,13.7-10.7c2.2-5.4-2.5-10.5-7-12.3c-9.5-3.7-21.1-2.9-31.2-3.6
							c-9.5-0.7-18.9-1.4-28.4-2.1c-9.3-0.7-18.7-1.4-28-2c-10.2-0.7-21.9-2.9-31,3.2c-8.1,5.5-5.2,18.4,5,18.6
							c8.8,0.2,17.6,0.4,26.1,3.1c8.6,2.8,16.4,6.9,25.7,6.5c12.8-0.6,12.9-20.1,0-20c-18.7,0.2-37.4,0.6-55.8,4.3
							c-8,1.6-8.8,11.4-4.4,16.7c6,7.3,15.8,8.7,24.5,10.6c9.2,2,18.5,3.7,27.9,4.9c18,2.3,36,2.1,54,0.4c5.4-0.5,10-4.2,10-10
							C273.7,63,269.1,57.6,263.7,58.1L263.7,58.1z"/>
					</g>
				</g>
				<g>
					<g>
						<path class="st0" d="M219.4,75.2c10.3,10.9,25.5,13.6,38.9,6.9c11.5-5.8,1.4-23-10.1-17.2c-5.4,2.7-10.8,0.3-14.7-3.8
							C224.7,51.8,210.6,65.9,219.4,75.2L219.4,75.2z"/>
					</g>
				</g>
				<g>
					<g>
						<path class="st0" d="M188.7,81.3c6,0.6,11.9,0.2,17.8-1c4.9-0.9,8.4-1.8,13.3-0.6c11.2,2.7,22.6,4,34.2,3
							c5.4-0.5,10-4.3,10-10c0-5-4.6-10.5-10-10c-5.6,0.5-11.2,0.6-16.8,0c-5.3-0.5-10.4-2.1-15.7-3.1c-11.1-2.1-21.6,2.7-32.8,1.6
							c-5.4-0.5-10,5-10,10C178.7,77.1,183.3,80.8,188.7,81.3L188.7,81.3z"/>
					</g>
				</g>
				<g>
					<g>
						<path class="st0" d="M257.1,84.6c4.7-0.7,8.7-3.8,10-8.4c-0.2,0.7,0.7-3.2,0.4-3.9c-4.3,5-4.8,6.7-1.5,5.3
							c1-0.3,2-0.5,3.1-0.7c2.8-0.3,4.2,0.7,6.3,2.3c4.1,3.1,8.2,4.9,13.2,6.1c0-6.4,0-12.8,0-19.3c-1.8,0.6-1.3,0.7-3.5-0.1
							c-2-0.7-3.9-1.8-5.8-2.6c-2-0.8-3.8-1.5-5.9-1.9c-1.6-0.3-3.8-0.2-5.3-0.9c-4.9-2.3-10.8-1.4-13.7,3.6
							c-2.5,4.3-1.3,11.4,3.6,13.7c5.3,2.5,11,2.7,16.3,5.1c6.3,2.9,12.8,5,19.7,2.5c8.7-3.1,10.3-16.9,0-19.3
							c-1.9-0.4-3.7-0.8-5.4-1.8c-2-1.2-3.7-3-5.8-4.2c-4.9-2.8-10.6-3.5-16.1-2.8c-5,0.6-10.9,1.9-14.7,5.4
							c-3.4,3.1-4.1,6.6-4.5,10.9c0.5-1.7,0.9-3.4,1.4-5c0.3-0.4,0.6-0.7,0.9-1.1c1.5-0.9,2.9-1.7,4.4-2.6c-0.7,0.3-1.5,0.5-2.3,0.5
							c-5.3,0.8-8.3,7.6-7,12.3C246.4,83.4,251.7,85.4,257.1,84.6L257.1,84.6z"/>
					</g>
				</g>
				<g>
					<g>
						<path class="st0" d="M262.3,75.4c7.1,0,14.3-0.4,21.4,0.1c-1.6-0.4-3.2-0.9-4.8-1.3c0.4,0.2,0.7,0.3,1.1,0.5
							c-1.1-1.1-2.3-2.3-3.4-3.4c-1.1-1.6-0.4,0.8-0.5,2c-0.1,1.6-0.2,3.1-0.3,4.7c-0.3,5.3,4.6,9.2,9.4,9.4
							c8.1,0.4,14.9-4.5,20.3-10.1c5.5-5.8,10.5-12.1,15.7-18.1c4.9-5.7,2.1-16.6-6.7-16.1c-12.4,0.8-24.9,1-37.3,0.6
							c0.8,6.2,1.7,12.3,2.5,18.5c8.2-3.1,16.5-3.5,25.2-3.7c0-6.3,0-12.6,0-18.9c-8.1,0.4-15.8,0.8-23.4-2.3
							c-0.8,6.2-1.7,12.3-2.5,18.5c12.2,0.4,24.2,2,36.1,4.7c11.8,2.7,16.9-15.5,5-18.2c-13.5-3.1-27.2-4.9-41.1-5.4
							c-4.6-0.2-8.7,3.7-9.3,8.2c-0.6,5,2.3,8.6,6.8,10.3c9.1,3.6,18.9,3.5,28.5,3c12-0.7,12.2-19.2,0-18.9
							c-10.2,0.3-20.5,0.8-30.2,4.4s-8.6,18.2,2.5,18.5c12.4,0.4,24.9,0.2,37.3-0.6c-2.2-5.4-4.4-10.7-6.7-16.1
							c-4.1,4.7-8.1,9.4-12.2,14.1c-2.5,2.9-6.3,8.7-10.5,8.6c3.1,3.1,6.3,6.3,9.4,9.4c0.5-8.1,1.4-18.2-8.6-21
							c-3.5-1-7.5-0.4-11.1-0.4c-4.3,0-8.6,0-12.9,0C250.2,56.6,250.2,75.4,262.3,75.4L262.3,75.4z"/>
					</g>
				</g>
				<g>
					<g>
						<path class="st0" d="M328.9,51.1c0.8-1.5,1.6-2.5,2.8-3.7c-3.7-2.2-7.4-4.3-11.1-6.5c4.5-2.3,5.1-3.3,1.8-2.8
							c-0.6,0-1.3,0-1.9,0c-2.2,0-4.4,0.1-6.6,0.1c-4.1,0.1-8.2,0.1-12.2,0.2c-8.6,0.1-8.6,13.5,0,13.3c6.6-0.1,13.2-0.2,19.8-0.3
							c5.3-0.1,10.5-1.1,12-6.9c1.6-6.4-6.3-11.2-11.1-6.5c-1.9,1.9-3.5,4-4.9,6.4C313.2,51.8,324.7,58.5,328.9,51.1L328.9,51.1z"/>
					</g>
				</g>
				<g>
					<g>
						<path class="st1" d="M33,30.8c9.3,10,19.9,18.6,31,26.5c5.7,4.1,11.7,7.7,17.3,11.8c3.9,2.9,5.3,7.3,8.6,10.7
							c8.3,8.7,24.3,10.4,35.6,8.7c6.8-1.1,12.6-4.2,18.6-7.2c4.7-2.3,10.3-4.5,14.4,0c5.8,6.3,15.2-3.1,9.4-9.4
							c-9-9.9-21.6-6.5-32.1-1.3c-6.5,3.3-12.4,5.5-19.8,5.1c-5-0.3-13.2-1.4-16.7-5.3c-3.1-3.5-4.8-7.7-8.6-10.8
							c-5.1-4.2-11.1-7.5-16.5-11.3c-11.5-8-22.4-16.7-31.9-27C36.5,15.1,27.1,24.5,33,30.8L33,30.8z"/>
					</g>
				</g>
				<g>
					<g>
						<path class="st1" d="M162.2,82c4.8,1.2,8.1,4.6,13.2,4.8c7.7,0.4,15.2-2.6,22.4-4.8c15.2-4.8,30-2.7,43.3,6.2
							c7.1,4.8,13.8-6.7,6.7-11.5c-13.3-8.9-29.3-12.6-45.2-9.7c-8.1,1.5-15.6,5.4-23.7,6.4c-2.7,0.3-2.9,0.4-4.5-0.6
							c-2.6-1.7-5.6-2.8-8.6-3.5C157.4,67.2,153.9,80,162.2,82L162.2,82z"/>
					</g>
				</g>
				<g>
					<g>
						<path class="st1" d="M243.4,89.2c5.8,1.1,10.5-0.6,15.4-3.8c2.3-1.5,4.5-3.1,6.6-4.8c1-0.8,2.6-2.6,3.6-2.8
							c2.2-0.4,8.2,4.2,10.4,5.5c5.1,2.8,10.4,4.3,16.3,4.4c8.6,0,8.6-13.3,0-13.3c-10.1,0-17-9.8-27.2-9.7c-3.9,0-6.8,1.9-9.7,4.2
							c-2.5,2-8.4,8-11.9,7.4C238.6,74.8,235,87.6,243.4,89.2L243.4,89.2z"/>
					</g>
				</g>
				<path class="st2" d="M44,41L24.5,21.5l314,15.3l-0.8,1.7C331,52.2,322.2,64.3,312,74l-15.6,14.9c0,0-9.9,1.7-17.7-2.7
					c-2.4-1.3-5-2.1-7.5-2.7c-6.4-1.3-16.7-2.7-20.8,1.1c0,0-0.5,8-15.5,2c0,0-25.1-10.5-36.9-3.7c0,0-4.3,12.5-20.7,2.9
					c0,0-16.6-11.4-29.7-6.3c0,0-31.3,19.7-52.8,3.7C94.8,83.2,83.2,73,44,41z"/>
				<ellipse class="st3" cx="186.4" cy="60.4" rx="6.9" ry="8"/>
				<ellipse class="st3" cx="269.6" cy="60.4" rx="6.9" ry="8"/>
				
					<ellipse transform="matrix(0.1549 -0.9879 0.9879 0.1549 132.2654 275.4759)" class="st3" cx="227.2" cy="60.4" rx="8.3" ry="6.6"/>
			</g>
			<g>
				<g>
					<path class="st4" d="M90.4,109.6c14.9,3.1,28.6-0.8,42.8-5c3-0.9,6.1-1.8,9.1-2.4c3.4-0.8,4.2-1,7.9-1.1c1.5,0,3.1,0,4.6,0.2
						c-1.2-0.2,1.9,0.6,2.4,0.7c-1.8-0.6,0.5,0.4,1.2,0.8c2,1.1-1.3-1.2,0.8,0.7c4.7,4.4,9.9,7.6,16.5,8c8,0.5,14.9-3.3,21.7-6.9
						c1.3-0.6,1.4-0.8,2.6-1.2c0.6-0.2,3.8-0.6,1.9-0.5c1.4-0.1,2.8,0,4.1,0c-1.8-0.1,2,0.4,2.7,0.5c6,1.4,11.7,3.7,17.5,5.6
						c7.2,2.3,14.9,4.2,22.5,3.4c5.1-0.5,10.2-1.5,14-5.4c1.8-1.9,3.1-4.3,3.8-6.8c0.3-1.1,0.4-2.7,0.5-3.9c0.1-3.1-0.3,2.4-1.2,3.8
						c-1.6,1.6-3.2,3.2-4.8,4.8c-2.2,1.5,1.9-0.4,2.3-0.5c1.7-0.2,3.4-0.2,5.1,0c2.9,0.2,6.1,1.2,9.2,2.2c7.3,2.4,14,6.4,20.6,10.2
						c14.9,8.5,28.3-14.5,13.4-23c-12.5-7.1-25.4-13.9-39.8-15.6c-6.7-0.8-13.8-0.5-20.2,1.8c-3.8,1.4-7.2,3.7-9.3,7.3
						c-1.4,2.4-1.8,4.6-2,7.4c-0.1,1.5-0.7,2.5,0.3-0.9c1.1-2,2.3-3.9,3.4-5.9c1.1-1.3,2.4-2,3.9-2.1c-0.9,0.1-1.9,0.1-2.8,0.1
						c-0.9,0-1.9-0.1-2.8-0.2c1,0.1,1,0.1,0,0c-3.6-0.7-7.1-1.8-10.5-2.9c-6.5-2.2-12.8-4.7-19.5-5.8c-8.9-1.5-17.3-0.7-25.5,3
						c-2.7,1.2-6.7,3.3-8.7,4.4c-1.8,0.4-2,0.5-0.5,0.3c-1.6,0-1.5,0.1,0.5,0.3c-1.4-0.7,0.9,0.3,0.7,0.5c0.9,0.7,0.9,0.7,0-0.1
						c-0.5-0.4-0.9-0.8-1.4-1.2c-1.6-1.4-3.2-2.8-5-4c-2.9-2-6.3-3.5-9.8-4.4c-8.3-2.2-17-1.5-25.3,0.1c-7.2,1.4-14.2,3.9-21.3,5.9
						c-3.5,1-7.1,2-10.6,2.4c1-0.2,0.7-0.2-1,0c-1,0.1-2,0.1-3,0.1c-2.5,0-2.4-0.1-4-0.4C90.4,82.4,83,86,81,93.2
						C79.3,99.8,83.3,108.1,90.4,109.6L90.4,109.6z"/>
				</g>
			</g>
		</g>
	</g>
	<g>
		<g>
			<path class="st5" d="M86.4,85.5c19.8,2.5,38.3-6.1,57.8-7.8c9.5-0.9,18.1,0.3,26.7,4.4c3.4,1.6,6.5,2.9,10.3,2.1
				c4.5-0.9,8.7-2.7,13.2-3.5c10-1.7,20.3-1.1,30,1.7c8.3,2.4,14.8,5.4,23.7,3.9c19.4-3.2,39.8-7.2,55.5,7.9c3.1,3,7.8-1.7,4.7-4.7
				c-9.7-9.3-22.4-13.3-35.7-13.2c-8,0.1-15.9,1.6-23.7,3.1c-4.1,0.8-7.8,1.2-11.9,0.1c-4-1-7.7-2.7-11.7-3.8
				c-14.4-3.9-29-3-43.1,1.3c-4.5,1.4-7.1-0.3-11.2-2.1c-3.4-1.5-7-2.6-10.7-3.2c-6.7-1.1-13.4-1-20.1-0.1
				c-18,2.4-35.4,9.7-53.9,7.4C82.2,78.3,82.2,84.9,86.4,85.5L86.4,85.5z"/>
		</g>
	</g>
</g>
</svg>
