<?xml version="1.0" encoding="utf-8"?>
<!-- Generator: Adobe Illustrator 23.0.3, SVG Export Plug-In . SVG Version: 6.00 Build 0)  -->
<svg version="1.1" id="Calque_1" xmlns="http://www.w3.org/2000/svg" xmlns:xlink="http://www.w3.org/1999/xlink" x="0px" y="0px"
	 viewBox="0 0 259 308.1" style="enable-background:new 0 0 259 308.1;" xml:space="preserve">
<style type="text/css">
	.st0{fill:#79CAE2;}
	.st1{fill:#3A9BB9;}
	.st2{fill:#BBE1EF;}
	.st3{fill:#4D678B;}
	.st4{fill:#F4A776;}
	.st5{fill:#FBD8C5;}
	.st6{fill:#C5774F;}
	.st7{fill:#9B6137;}
</style>
<g>
	<g>
		<g>
			<path class="st0" d="M52.6,79.9c-0.2-1,0.1-2.3-0.8-1.3c0.4-0.4,3-1.2,3.5-1.2c1.5,0.1,1.1,0.4,1.6,2.2c0.4,1.9,1.1,4.7,0.3,6.6
				c-0.3,0.7-1.6,2.5-2.3,2.7c-1.5,0.6,0,0.5-1.3-0.4c-1.8-1.2-3.3-4.4-4.3-6.3c-0.5-1.1-0.9-2.1-1.2-3.2c-0.3-0.8-0.4-1.6-0.5-2.5
				c0,0.3-0.1,0.5-0.1,0.8c1.7-0.5,4.2-0.4,5.3,1.2c0.5,0.7,0.4,1.4,0.6,2.2c0,0.1,0,0.2,0,0.3c-1.2,1.3-0.4,2.2,2.6,2.6
				c0.5-8.3-12.5-8.3-13,0c-0.4,6.9,6.3,11.9,12.9,10.5c6.7-1.4,10.8-8.1,10.4-14.7c-0.6-13.7-20.9-21.7-29.5-9.9
				c-4.3,5.9-1.4,14,1.6,19.8c2.9,5.7,8,12.2,14.8,12.8c7,0.6,13.5-5.1,16-11.3c2.3-5.7,1.4-13.6-1.2-19c-3.5-7.3-11.4-8.8-18.6-6.2
				c-8.5,3.1-11,9.1-9.3,17.7C41.6,91.5,54.2,88,52.6,79.9L52.6,79.9z"/>
		</g>
	</g>
	<g>
		<g>
			<path class="st0" d="M42.9,83.3c-0.4,8.5-0.6,16.9-1,25.4c-0.3,8.3,12.6,8.3,13,0c0.1-1.1,0.2-2.3,0.4-3.4c0.1-0.5,0.3-1,0.4-1.4
				c0.4-1.1,0.2-1-0.8,0.4c-1.7,0.2-3.3,0.4-5,0.6c-3.2-0.8-2.2-2.7-2.4,0.7c1.6-2.1,3.2-4.2,4.7-6.2c0.7,0.4,0.9,0.4,0.4,0
				c-0.4-0.4-0.7-0.7-1-1.1c-0.5-0.5-1.1-1.1-1.6-1.6c-2-1.8-4.4-2.9-7.1-3.3c-5.4-1-11.1,0.3-16.4,0.7c2.2,2.2,4.3,4.3,6.5,6.5
				c0.5-7,0.4-14.3,1.9-21.2c1.3-6.1,4.5-11.1,11.4-10.4c16.6,1.4,15.4,24,14,35.4c2.2-2.2,4.3-4.3,6.5-6.5
				c-3.9,0.3-7.7-1.5-9.1-5.4c-0.7-2-0.3-4.3-0.8-6.4c-0.6-2.7-2.1-5.2-4.5-6.8c-3.9-2.6-10.9-2.8-15.3-1.4c-6,1.8-8.7,7-9.6,12.8
				c4.3,0.6,8.5,1.1,12.8,1.8c-0.3-3.3-0.4-6.8,0.2-10.1c0.2-1.2,1.2-7.9,2.2-8.4c-1.1,0.3-2.2,0.6-3.2,0.9c0.4,0,0.7,0,1,0
				c-1.1-0.3-2.2-0.6-3.2-0.9c3.9,1.7,6.1,10,7.5,13.7c2.1,5.7,4.2,11.3,7.5,16.4c2.4,3.6,9.1,4.8,11.2,0c0.6-1.3,0.8-1.7,2-2.5
				c3.3-2.5,2-8.3-1.3-10.2C56.7,87,48,85,39.3,85.7c-8.2,0.7-8.3,13.7,0,13c6.7-0.5,12.8,0.6,18.7,3.9c-0.4-3.4-0.9-6.8-1.3-10.2
				c-1.8,1.4-3.2,3.2-4,5.2c3.8,0,7.5,0,11.2,0c-6.7-10.1-7.5-25.6-17.5-33.4c-6.8-5.4-13.1-0.4-15.7,6.4c-2.7,6.9-3.6,14.6-3,21.9
				c0.3,3.2,2.3,6,5.6,6.4c2.9,0.4,6.7-1.5,7.1-4.7c0.2-1.1,0.2-3.3,1.1-3.9c0.4-0.3,1.8-0.1,2.3,0c0.7,0,1.3,0.1,2,0.2
				c-0.4-0.4-0.9-1-1.3-1.4C44,89.3,45,94.7,45,94.8c0.4,1.8,1.2,3.8,2.2,5.4c4,6.8,11.8,11.1,19.8,10.7c3.9-0.3,6.1-2.8,6.5-6.5
				c1.3-11,1.6-22.2-3.5-32.3C65.5,63,56.8,56.6,46.4,56c-10-0.5-18.4,5.4-22.2,14.4c-3.8,9.3-3.4,20.4-4.1,30.3
				c-0.3,3.3,3.2,6.8,6.5,6.5c3.4-0.3,6.8-0.6,10.3-0.9c2.3-0.2,3.5-0.4,5.3,0.9c4.2,3.2,7.6,7.2,13.6,4.8c2.9-1.1,4.6-3.2,4.7-6.2
				c0.4-5.9-2.3-14.3-9.7-13.3c-7.3,1-8.7,10.6-9,16.5c4.3,0,8.7,0,13,0c0.4-8.5,0.6-16.9,1-25.4C56.2,74.9,43.1,74.9,42.9,83.3
				L42.9,83.3z"/>
		</g>
	</g>
	<g>
		<g>
			<path class="st0" d="M37.5,111.1c-0.5,12.2-0.7,24.6,3.4,36.2c3.9-1.7,7.9-3.3,11.8-5c-4.7-6.7-6.7-13.9-6.1-21.9
				c-4.3,0-8.7,0-13,0c-0.2,9.9,0.4,20.9,3.5,30.4c3.2,9.7,16.5,6.6,23.3,2.8c9-5,8.3-15.4,6.5-24c-1.9-9.1-6.3-17.2-12.1-24.4
				c-3.6-4.5-11.2-0.7-11.1,4.6c0.4,14.7,0.9,29.6,1.3,44.3c4.3,0,8.7,0,13,0c-0.4-3.4-1-6.8-1.7-10.2c-1.8-8.2-14.3-4.7-12.5,3.4
				c0.4,2.2,1,4.5,1.2,6.7c0.4,3.5,2.6,6.5,6.5,6.5c3.4,0,6.6-3,6.5-6.5c-0.4-14.7-0.9-29.6-1.3-44.3c-3.7,1.5-7.4,3.1-11.1,4.6
				c3.5,4.3,6.1,9.3,7.7,14.6c1,3.2,3.7,11.2,0.6,13.5c-1.8,1.3-4.6,0.9-6.5,1.8c-2-0.2-1.9,0.3,0.4,1.4c1.8,1.9,2.2,1.8,1.3-0.3
				c-0.1-1.5-0.8-3.4-1.1-4.9c-1.2-6.6-1.6-13.2-1.4-19.8c0.2-8.4-12.5-8.2-13,0c-0.6,10.1,2.2,20.2,7.9,28.4
				c3.9,5.6,14.6,2.4,11.8-5c-3.8-10.6-3.4-21.7-3-32.8C50.8,102.8,37.8,102.8,37.5,111.1L37.5,111.1z"/>
		</g>
	</g>
	<g>
		<g>
			<path class="st0" d="M51.8,175c-0.5-4-1.1-8-1.6-12c-0.3-1.8-0.4-3.4-0.7-5.2c-0.5-4.1,0.4-2.1-1.8-0.9c-3-0.8-6-1.6-8.9-2.4
				c7.2,10.4,14.1,20.9,20.9,31.6c3.9,6.1,14,2.3,11.8-5c-1-3.5-2-6.9-3-10.4c-0.4-1.6-1-3.2-1.4-4.8c-0.3-0.8-0.4-1.6-0.7-2.4
				c-0.1-1.8-0.4-1.9-1-0.4c7.5-3.5,1-14.7-6.6-11.2c-5.7,2.6-6.5,8.9-5.2,14.4c1.5,6.1,3.5,12.3,5.3,18.3c3.9-1.7,7.9-3.3,11.8-5
				C64.3,168.9,57.2,158.3,50,148c-2-3-5.6-4.1-8.9-2.4c-4.2,2.3-5.3,6.8-4.7,11.2c0.7,6,1.6,12,2.3,18c0.4,3.5,2.6,6.5,6.5,6.5
				C48.5,181.6,52.2,178.5,51.8,175L51.8,175z"/>
		</g>
	</g>
	<g>
		<g>
			<path class="st0" d="M56,247.5c-2.9-12.5-6.1-25.4-7.5-38.2c-0.6-6-0.6-11.8,0.9-17.6c1.6-6.3,3.7-12.5,5.5-18.8
				c-4.3-0.6-8.5-1.1-12.8-1.8c1.1,9.9-3.8,20-5.4,29.7c-1.8,10.3-2.4,20.6-1.8,31.1c0.4,8.3,13.4,8.3,13,0c-0.5-10.4,0-20.7,2-30.8
				c1.9-9.8,6.4-19.7,5.4-29.9c-0.8-7-10.5-9.2-12.8-1.8c-3.9,13.3-8.3,25.9-6.8,39.9s4.7,27.9,7.9,41.7
				C45.3,259.1,57.9,255.6,56,247.5L56,247.5z"/>
		</g>
	</g>
	<g>
		<g>
			<path class="st0" d="M45.3,187.2c1.1,5.9,4.9,10.6,7.1,16.1c2.4,5.9,3.9,12.1,5.4,18.3c1.7,6.9,13.6,5.7,12.8-1.8
				c-1.8-16-6.2-31.2-11.1-46.4c-3.6,2.1-7.3,4.2-10.9,6.3c8.2,9.2,13.6,20.7,14.5,33.1c1,14-1.8,27.9-0.8,41.9
				c0.6,8.3,12.5,8.4,13,0c0.2-3.1,0.4-6.1,0.5-9.2c0.4-8.3-12.5-8.3-13,0c-0.2,3.1-0.4,6.1-0.5,9.2c4.3,0,8.7,0,13,0
				c-1.1-15.6,2.4-31.2,0.3-46.9c-1.8-14.1-8.2-26.8-17.7-37.3c-4.3-4.8-12.8,0.3-10.9,6.3c4.5,14,9,28.3,10.6,43
				c4.3-0.6,8.5-1.1,12.8-1.8c-1.5-6.1-3-12.4-5.4-18.3c-2.1-5.4-6.1-10.4-7.1-16.1C56.3,175.5,43.7,179,45.3,187.2L45.3,187.2z"/>
		</g>
	</g>
	<g>
		<g>
			<path class="st0" d="M65.7,215.7c-0.1,13.1-0.2,26.2-0.2,39.3c-0.1,11.2,0.2,23.4,9.2,31.5c6.2,5.5,15.4-3.6,9.2-9.2
				c-7.5-6.6-5.4-18.6-5.4-27.6c0.1-11.3,0.1-22.7,0.2-34C78.7,207.3,65.8,207.3,65.7,215.7L65.7,215.7z"/>
		</g>
	</g>
	<g>
		<g>
			<path class="st0" d="M43.1,236.3c-1.7,8.8-0.5,17.6,3.9,25.4c2.1,3.6,4.8,6.6,7.9,9.4c1.9,1.7,2.4,1.2,1.7,3.6
				c-0.7,2.5-1.7,4.9-2.8,7.2c4,1.1,8.1,2.2,12.1,3.2c0.4-16.6-5.9-33.4-9.9-49.3c-2.1-8.1-14.7-4.7-12.5,3.4
				c1.9,7.5,3.9,15,5.8,22.5c2,7.7,3.9,15.4,3.7,23.4c-0.2,6.1,9.3,9.2,12.1,3.2c2.1-4.5,4.7-9.6,4.9-14.6c0.3-5.1-2.2-8.8-5.9-12.1
				c-6.4-5.7-10.2-13.4-8.5-22.1C57.2,231.6,44.8,228.1,43.1,236.3L43.1,236.3z"/>
		</g>
	</g>
	<g>
		<g>
			<path class="st0" d="M25.9,181.4c-0.4-10.9-2-22.5-0.4-33.3c1.5-9.9,6.3-18.8,13.3-25.8c2-1.9-1.1-5-3.1-3.1
				c-7.2,7.2-12.4,16.3-14.2,26.3c-2.1,11.6-0.4,24,0.1,35.8C21.6,184.2,26,184.2,25.9,181.4L25.9,181.4z"/>
		</g>
	</g>
	<g>
		<g>
			<path class="st0" d="M26,165c-0.4-6-0.5-12.3,2.4-17.7c0.5-1.1,1.4-2.7,2.3-3.3c1.4-1.1,0.5-1.1,2,0.1c2.1,1.6,3.2,5.5,3.9,7.9
				c1.3-0.5,2.6-1.1,3.9-1.7c-3.4-6.6-5.4-13.5-5.8-20.9c-0.2-2.5-3.3-2.8-4.3-0.6c-2.1,5.3-4.2,10.5-6.3,15.8
				c-1.1,2.6,3.2,3.7,4.2,1.1c2.1-5.3,4.2-10.5,6.3-15.8c-1.4-0.2-2.8-0.4-4.3-0.6c0.4,8.2,2.5,15.8,6.3,23.1
				c1.1,2.2,4.6,0.7,3.9-1.7c-1.2-4.7-6.1-16.5-12.1-10.8c-6.8,6.5-7.5,16.2-6.8,25.1C21.9,167.7,26.3,167.8,26,165L26,165z"/>
		</g>
	</g>
	<g>
		<g>
			<path class="st0" d="M63.3,139.8c1.5,8.7,6,16.1,10.2,23.7c2.2,3.9,4.2,8,5.7,12.4c1.1,3.1,2,5.7,4.8,7.5
				c1.6,0.9,3.9-0.6,3.2-2.5c-6.5-18.4-13-36.9-19.4-55.3c-0.9-2.6-5.1-1.5-4.2,1.1c6.5,18.4,13,36.9,19.4,55.3
				c1.1-0.8,2.1-1.7,3.2-2.5c-2.8-1.7-3.3-6.6-4.6-9.4c-1.5-3.5-3.2-6.8-5.1-10.2c-3.8-6.8-7.7-13.6-9-21.4
				C67,136,62.9,137.1,63.3,139.8L63.3,139.8z"/>
		</g>
	</g>
	<g>
		<g>
			<path class="st0" d="M73.9,153.4c-2.4-5.9-4.7-11.8-7.2-17.6c-1.1-2.5-5.3-1.4-4.2,1.1c2.5,5.9,4.8,11.8,7.2,17.6
				C70.8,157.2,75,156,73.9,153.4L73.9,153.4z"/>
		</g>
	</g>
	<g>
		<g>
			<path class="st1" d="M53.4,116.9c6.9,7.6,9.9,17,7.1,27.2c-1.4,4.9-5.1,9.4-5.6,14.4c-0.5,4.9,1.1,11,2.8,15.5
				c2,5.5,4.7,10.7,6.3,16.4c1.7,5.8,2.7,11.8,3.8,17.7c2.3,12.7,4.4,25.4,6.2,38.2c0.8,5.5,9.1,3.2,8.3-2.3
				C80.5,231,78.4,218,76,205c-1.1-6.5-2.4-13-4.4-19.3c-1.8-5.8-5-11.1-6.6-17c-0.6-2.4-1.5-5.2-1.6-7.6c-0.2-3.1,1.8-5.5,3.1-8.2
				c2.1-4.7,3.4-9.6,3.8-14.7c0.7-10.4-3.9-19.7-10.7-27.3C55.7,106.6,49.6,112.8,53.4,116.9L53.4,116.9z"/>
		</g>
	</g>
	<g>
		<g>
			<path class="st1" d="M43.7,202.4c-1.8,14.4-0.2,29.2,4.9,42.8c4.9,13.3,16.1,27,12.6,41.9c-1.2,5.4,7.1,7.7,8.3,2.3
				c3.5-15.3-4.7-28.3-10.6-41.7c-6.4-14.2-8.3-29.9-6.5-45.4C53,196.9,44.3,196.9,43.7,202.4L43.7,202.4z"/>
		</g>
	</g>
	<g>
		<g>
			<path class="st1" d="M57.7,74.2c1.3,2.9,2.8,6.2,2.4,9.5c-0.5,3.5-3,5.9-4.7,8.8c-3.9,6.8-2.5,14.1,0.6,21
				c2.3,5.1,9.7,0.7,7.5-4.4c-1.8-4-2.7-8.1-0.6-12.2c1.6-3.1,3.9-5.4,4.9-8.8c2.1-6.3,0.1-12.5-2.6-18.3
				C62.9,64.7,55.4,69.1,57.7,74.2L57.7,74.2z"/>
		</g>
	</g>
	<g>
		<g>
			<path class="st2" d="M46.3,74.3c5.6,0,5.6-8.7,0-8.7C40.7,65.6,40.7,74.3,46.3,74.3L46.3,74.3z"/>
		</g>
	</g>
	<g>
		<g>
			<path class="st2" d="M45.1,65.7c-10.6,1.6-13.9,13.4-10.7,22.5c1.8,5.1,5.4,9.5,3.9,15.2c-1.3,5.3-5,9.9-7.5,14.6
				c-10.4,19.3-14.6,41.7-11.9,63.5c0.7,5.4,9.3,5.5,8.7,0c-2.4-19.8,0.9-40,10.1-57.7c4-7.7,10.5-15.4,9.8-24.7
				C47,92.3,35.2,75.8,47.6,74C52.9,73.2,50.6,64.9,45.1,65.7L45.1,65.7z"/>
		</g>
	</g>
	<g>
		<g>
			<path class="st2" d="M33.8,158.9c1.7,11.7,2.6,23.1,1.1,34.8c-1.4,11.6-3.9,23.1-2.2,34.8c1.5,10.4,5.8,20.2,10.9,29.4
				c2.6,4.7,5.7,9.2,8.2,14c3.1,5.6,2.4,11.2,1.3,17.3c-1,5.4,7.4,7.8,8.3,2.3c1-5.3,1.8-10.6,0.9-15.9c-1-5.4-4.2-10.1-7-14.7
				c-6-9.9-11.8-20.3-13.9-31.9c-2.2-12,0.8-24.2,2.2-36.2c1.5-12.3,0.2-24.2-1.6-36.3C41.4,151.1,33,153.5,33.8,158.9L33.8,158.9z"
				/>
		</g>
	</g>
	<g>
		<g>
			<path class="st2" d="M32.4,101.5c-0.2-7.6-0.2-15.4,0.1-23c0.2-5.1,1-16.8,9-15c5.4,1.1,7.8-7.2,2.3-8.3c-9.5-2-17,5-19,14
				c-2.3,10.4-1.2,21.9-1,32.5C23.8,107.1,32.5,107.1,32.4,101.5L32.4,101.5z"/>
		</g>
	</g>
	<g>
		<g>
			<path class="st1" d="M41,126.7c-3.4-0.4-5.9,3.2-5.8,6.3c0.1,3.5,3.1,5.8,6.4,5.4c2.1-0.3,1.2-3.4-0.9-3.2
				c-3.2,0.4-3-5.6,0.3-5.3C43,130.2,43,126.9,41,126.7L41,126.7z"/>
		</g>
	</g>
	<g>
		<g>
			<path class="st1" d="M53.7,127.3c-3.6,0-6.8,3-6.1,6.8s4.5,5.4,8,4.9c2.1-0.3,1.2-3.4-0.9-3.2c-1.6,0.3-3.4-0.4-3.9-2.1
				c-0.4-1.8,1.1-3.1,2.8-3.1C55.8,130.5,55.8,127.3,53.7,127.3L53.7,127.3z"/>
		</g>
	</g>
	<g>
		<g>
			<path class="st1" d="M52.5,81.1c1.1-1.1,2.8-1.2,3.9-0.2c1.1,0.9,2.6-0.6,1.5-1.5c-2.1-1.8-5-1.8-7,0.2
				C50,80.5,51.5,82.1,52.5,81.1L52.5,81.1z"/>
		</g>
	</g>
	<g>
		<g>
			<path class="st1" d="M44.3,79.4c-1.1,0-2.1-0.3-3.2,0.1c-1,0.4-1.8,1-2.3,1.8c-0.7,1.2,1.1,2.3,1.8,1.1c0.9-1.4,2.2-0.9,3.6-0.9
				C45.7,81.5,45.7,79.4,44.3,79.4L44.3,79.4z"/>
		</g>
	</g>
	<g>
		<g>
			<path class="st1" d="M39.4,80.8c-0.1,0-0.1,0.1-0.2,0c0.1,0-0.1-0.1,0,0c-1.1-1-2.5,0.6-1.5,1.5c0.6,0.6,1.5,0.8,2.4,0.5
				c0.5-0.2,0.9-0.8,0.8-1.3C40.6,81,40,80.6,39.4,80.8L39.4,80.8z"/>
		</g>
	</g>
	<g>
		<g>
			<path class="st1" d="M41.4,80.8c0-0.4,0-0.9-0.2-1.3c-0.2-0.5-0.8-0.9-1.3-0.8c-0.5,0.2-1,0.8-0.8,1.3c0.1,0.3,0.1,0.4,0.1,0.8
				c-0.1,0.6,0.5,1.1,1.1,1.1C41,81.9,41.4,81.5,41.4,80.8L41.4,80.8z"/>
		</g>
	</g>
	<g>
		<g>
			<path class="st1" d="M55.7,78.6c0-0.2,0-0.3,0-0.4c0-1.4-2.2-1.4-2.2,0c0,0.2,0,0.3,0,0.4C53.6,80.1,55.7,80.1,55.7,78.6
				L55.7,78.6z"/>
		</g>
	</g>
	<g>
		<g>
			<path class="st1" d="M57,80.8c0.4,0,0.9-0.1,1.3-0.4c1.1-0.7,0.1-2.6-1.1-1.8c-0.2,0.1,0,0.1-0.2,0.1c-0.6,0-1.1,0.5-1.1,1.1
				C55.8,80.3,56.4,80.8,57,80.8L57,80.8z"/>
		</g>
	</g>
	<g>
		<g>
			<path class="st1" d="M53.2,79.8c0,1.2,0.2,2.4,0.4,3.6c0.1,0.6,0.8,0.9,1.3,0.8c0.6-0.2,0.9-0.8,0.8-1.3c-0.2-1-0.3-2-0.3-3
				C55.4,78.4,53.2,78.4,53.2,79.8L53.2,79.8z"/>
		</g>
	</g>
	<g>
		<g>
			<path class="st1" d="M40.6,81.1c-0.1,1.1,0,2.3,0.3,3.4c0.3,1.4,2.4,0.8,2.1-0.6c-0.2-1-0.3-1.8-0.2-2.8
				C42.9,79.8,40.7,79.8,40.6,81.1L40.6,81.1z"/>
		</g>
	</g>
	<g>
		<g>
			<path class="st3" d="M42.2,109.4c1.8-8.5,0.3-16.7-4.2-24.1c-1.5-2.5-3.1-4.8-2.4-7.9c0.5-2.4,1.9-4.6,3.7-6.2
				c3.1-3,7.5-4.5,11.8-4.2c9.1,0.5,15.6,10.7,12.2,19.2c-1.7,4.1-4.9,7.5-6.2,11.8c-1.3,4-1.1,8.2-0.2,12.4
				c0.6,2.7,4.7,1.6,4.2-1.1c-0.7-3.3-0.9-6.8,0.2-10.1c1.1-3.2,3.2-5.6,4.7-8.5c2.1-3.8,3.1-7.8,2.4-12.1
				c-1.4-8.5-8.5-15.4-17.2-15.8c-8.3-0.4-17.1,4.7-19.5,13c-1.4,4.8,0.5,8.4,3,12.5c3.7,6.1,4.9,13.2,3.5,20.3
				C37.5,110.9,41.6,112.1,42.2,109.4L42.2,109.4z"/>
		</g>
	</g>
	<g>
		<g>
			<path class="st3" d="M37,110.8c-7.4,10.6-9.8,24.1-6.2,36.6c2.4,8.2,6,15.1,6.1,23.9c0.1,7.8-1.5,15.4-2.7,23.1
				c-2.2,14-2.1,27.6,2,41.1c3.9,13.2,10.8,25.2,19.5,35.9c1.8,2.2,4.8-0.9,3.1-3.1c-8.8-10.8-15.5-23.3-19.1-36.8
				c-3.7-13.8-2.7-26.9-0.4-40.7c1.1-6.4,2.2-13,2.1-19.5c-0.1-6.7-1.8-12.7-4.1-19c-5.1-13.5-4.7-27.1,3.7-39.2
				C42.3,110.7,38.6,108.5,37,110.8L37,110.8z"/>
		</g>
	</g>
	<g>
		<g>
			<path class="st3" d="M57.9,111.2c3.9,6.2,6.5,13.2,7.3,20.5c0.7,6.7-0.3,13.3-1.2,19.8c-0.8,5.9-1.5,11.8-0.6,17.6
				c1,6.5,4.2,12.2,6.5,18.3c9.7,25,9.9,52.3,7,78.5c-0.4,2.8,4,2.7,4.3,0c3-26.6,2.6-54.4-7.2-79.7c-2.5-6.6-6.1-12.8-6.7-20
				c-0.5-6.9,0.9-13.8,1.8-20.5c1.7-13.1-0.5-25.5-7.5-36.8C60.2,106.6,56.5,108.8,57.9,111.2L57.9,111.2z"/>
		</g>
	</g>
	<g>
		<g>
			<path class="st3" d="M55.7,268.5c-0.3,5.7-0.9,11.4-0.9,17c0,3.1,0.4,6.1,3.5,7.5c8.1,3.5,11.3-8.3,13.3-13.4
				c1.1-2.6-3.2-3.7-4.2-1.1c-0.9,2.2-1.7,4.5-2.6,6.6c-0.4,1.1-1.9,4-3.4,4c-2,0-2.4-3.2-2.3-4.4c0.3-5.4,0.6-10.8,0.9-16.2
				C60.3,265.7,55.9,265.7,55.7,268.5L55.7,268.5z"/>
		</g>
	</g>
	<g>
		<g>
			<path class="st3" d="M52.3,199.2c4.5,13.5,7,27.6,7.5,41.9c0.2,6.1,0.1,12.2,1.5,18.3c1.3,5.8,4.2,11.2,6.9,16.5
				c2.1,4,4.6,8.4,8.5,11c2.7,1.8,7,3.1,9.9,0.9c7.4-5.6-4.8-19.7-8.7-24c-1.8-2.1-4.9,1-3.1,3.1c3.1,3.4,5.7,7.1,7.8,11.2
				c1.1,2,2.9,5.8-0.3,6.5c-1.9,0.4-4.6-2.1-5.7-3.3c-2.8-3.1-4.7-7.1-6.5-10.7c-2.2-4.4-4.2-8.9-5.1-13.7
				c-1.8-9.7-0.9-19.8-2.1-29.6c-1.2-9.8-3.5-19.5-6.6-29C55.7,195.4,51.5,196.6,52.3,199.2L52.3,199.2z"/>
		</g>
	</g>
	<g>
		<g>
			<path class="st3" d="M51.2,199.2c-2.5,9.8-1.3,19.7,1.1,29.5c2.5,10.4,5.4,20.7,8.1,31.1c0.7,2.7,4.9,1.6,4.2-1.1
				c-2.5-9.3-5-18.5-7.3-27.8c-2.5-10-4.5-20.3-1.8-30.5C56.1,197.6,51.9,196.5,51.2,199.2L51.2,199.2z"/>
		</g>
	</g>
	<g>
		<g>
			<path class="st3" d="M34.2,109c-16.1,18.6-15.1,44.5-15.7,67.6c-0.1,3.2-1.4,9.2,2.8,10.7c3.2,1.1,5.9-1.5,6.8-4.4
				c3.7-11.3-0.4-23.7,4.4-35c1.1-2.5-3.1-3.7-4.2-1.1c-3.2,7.6-2.9,15.8-3.2,24c-0.1,2.4-0.2,4.8-0.5,7.2c-0.1,0.7-0.1,2.6-0.6,3.2
				c-0.9,1.1-1,0.8-1.4-0.2c-0.8-1.6,0.2-6,0.3-7.9c0.1-2.6,0.2-5.3,0.3-7.9c0.6-18.5,1.4-38.4,14.1-53.2
				C39.1,110,36,106.9,34.2,109L34.2,109z"/>
		</g>
	</g>
	<g>
		<g>
			<path class="st3" d="M59.3,112c12.8,22.7,21.4,47.4,25.4,73.2c0.7-0.9,1.4-1.8,2.1-2.7c-4,0.2-5.2-5-6.3-7.8
				c-1.1-2.6-2.2-5.4-3.2-8c-2.2-5.4-4.3-10.6-6.5-16c-1.1-2.5-5.3-1.4-4.2,1.1c3.2,8,6.5,16,9.7,23.9c2,5,4,11.3,10.5,11
				c1.5-0.1,2.3-1.3,2.1-2.7c-4-26.2-12.8-51.2-25.8-74.2C61.7,107.3,58,109.5,59.3,112L59.3,112z"/>
		</g>
	</g>
	<g>
		<g>
			<path class="st3" d="M39.3,52.5c-8.9,0.8-14,11.8-16.7,19.1c-3.9,10.7-4.1,22.3-4.2,33.5c0,1.2,1,2.1,2.2,2.2
				c5.3,0.1,10.4,0.2,15.7,0.1c2.8,0,2.8-4.4,0-4.3c-5.3,0.1-10.4,0-15.7-0.1c0.7,0.7,1.4,1.4,2.2,2.2c0.1-9,0.3-18.1,2.4-26.8
				c1-4,2.5-8,4.5-11.7c1.9-3.5,5.2-9.4,9.7-9.8C42.1,56.6,42.1,52.2,39.3,52.5L39.3,52.5z"/>
		</g>
	</g>
	<g>
		<g>
			<path class="st3" d="M40.2,56.9c10.9-1.9,26.7,1.8,30.6,13.6c1.8,5.7,1.9,12.3,2.5,18.2c0.7,6.2,1.4,12.5,2.1,18.7
				c0.5-0.7,1.1-1.4,1.6-2.1c-5.6,1.2-11.1,1.4-16.8,0.5c-2.7-0.4-3.9,3.8-1.1,4.2c6.4,1.1,12.7,0.9,19.1-0.5
				c0.9-0.2,1.7-1.2,1.6-2.1c-1-8.5-1.9-17-2.8-25.5c-0.7-6.2-1-12.9-4.7-18.2c-7.2-10-21.6-13.1-33.2-11
				C36.4,53.2,37.5,57.4,40.2,56.9L40.2,56.9z"/>
		</g>
	</g>
</g>
<g>
	<g>
		<g>
			<path class="st4" d="M145.8,94.8c-1.9-3.4-3.7-6.9-5.3-10.5c-0.7-1.5-1.3-2.9-1.9-4.4c-0.3-1-0.8-1.9-1.1-3
				c-0.4-2.2-0.9-1.7-1.2,1.6c-1.3,0.8-2.5,1.5-3.8,2.3c0.5-0.3,3.5-0.6,3.8-1c0.2,0,0.3,0,0.5-0.1c-0.7-0.6-1.3-1.2-2-1.8
				c0,0,0.6,2.5,0.6,2.7c0.2,0.5,0.2,1,0,1.4c0.5-1,0.3-0.9-0.3,0.2c-4.9,5.2-4.4,12.8-1.7,18.9c1.9,4.3,8.2,5.3,11.9,3.1
				c4.4-2.6,5.1-7.6,3.1-11.9c0.4,0.9,0,1,0.4,0.3c1.1-2.1,2.7-3.6,3.4-6c1.1-3.8,0.7-8.3-0.3-12.1c-2.4-9.1-10-13.2-19-11.8
				c-9.2,1.4-15.2,8.1-12.6,17.7c2.2,8,6.4,16,10.5,23.2C136.2,113.4,151.3,104.6,145.8,94.8L145.8,94.8z"/>
		</g>
	</g>
	<g>
		<g>
			<path class="st4" d="M129.6,106.1c-4.3,11-5.2,23-4.4,34.7c0.4,5,0.9,10.3,3.6,14.6c3.3,5.2,9.7,8.2,15.8,6.4
				c12-3.3,15.3-16.6,13.9-27.5c-1.6-11.5-5.7-22.9-10.1-33.6c-1.7-4.4-5.8-7.4-10.7-6.1c-4.1,1.1-7.8,6.4-6.1,10.7
				c3,7.4,5.7,15,7.8,22.7c0.9,3.3,1.9,6.8,2.1,10.3c0.1,1.5,0.2,2.9-0.3,4.4c0.1-0.2-1.4,3.2-1.4,2.8c0-1,3,0.4,3.2,0.3
				c0.4-0.3,0-0.9-0.2-1.9c-0.4-2.5-0.6-6.8-0.6-10c-0.1-7.9,1.1-15.5,4-22.9c1.7-4.4-1.9-9.6-6.1-10.7
				C135.4,98.7,131.3,101.8,129.6,106.1L129.6,106.1z"/>
		</g>
	</g>
	<g>
		<g>
			<path class="st4" d="M124.6,155.7c0.9,8.3,2.4,16.3,5.1,24.2c1.6,4.8,8,8.8,12.8,5.2c11.5-8.7,16.9-22.2,12.9-36.4
				c-5.3,2.3-10.6,4.4-15.9,6.7c0.1,0.2,0.1,0.3,0.2,0.4c0-3,0-5.8,0-8.8c-0.1,0.1-0.2,0.3-0.3,0.3c-6.1,9.5,9,18.2,15.1,8.8
				c2-3.1,1.5-6.4,0.1-9.6c-1.7-3.9-7.3-5.1-10.9-3.6c-3.9,1.7-6.3,6-5.1,10.3c1.7,6,0.3,12.8-4.9,16.7c4.3,1.7,8.5,3.5,12.8,5.2
				c-2.1-6.4-3.7-12.9-4.4-19.6c-0.5-4.7-3.7-8.7-8.7-8.7C129,147,124.1,151,124.6,155.7L124.6,155.7z"/>
		</g>
	</g>
	<g>
		<g>
			<path class="st4" d="M133.1,181.9c-0.5,5.8,0,11.4,1,17.2c1.9,9.8,17,7.2,17.1-2.4c0.1-6.4,0.2-12.9,0.3-19.3
				c-5.7,0.8-11.4,1.6-17.1,2.4c1.1,3.1,2.2,6.2,3.3,9.3c3.1,8.8,17.5,8,17.1-2.4c-0.1-3.4-0.6-6.8-1.5-10.1
				c-2.5-9.5-17.2-7.6-17.1,2.4c0,15.3,2.5,30.6,7.7,45c2.8-3.7,5.6-7.3,8.4-11.1c-4.9,0.5-9.8,0.9-14.7,1c-0.4,0-3-0.2-3.3,0.1
				c1-1.5,4.5,9.1,4.4,2.3c0-2.4,0.1-4.7,0.4-7.1c1.1-9.4,3.6-18.6,3.4-28.1c-5.7,0.8-11.4,1.6-17.1,2.4c3.2,9,5.4,18.3,6.3,27.8
				c0.4,4.7,3.7,8.7,8.7,8.7c4.4,0,9.1-4,8.7-8.7c-1-11.1-3.1-22-6.9-32.4c-3.1-8.9-17.3-8-17.1,2.4c0.3,12.6-4.6,24.9-3.7,37.6
				c0.5,7.1,4.5,12.3,11.9,12.8c6.2,0.4,12.8-0.5,19-1.1c5.2-0.5,10.5-5.2,8.4-11.1c-4.6-13.1-7-26.6-7.1-40.4
				c-5.7,0.8-11.4,1.6-17.1,2.4c0.5,1.9,0.8,3.6,0.9,5.5c5.7-0.8,11.4-1.6,17.1-2.4c-1.1-3.1-2.2-6.2-3.3-9.3
				c-3.2-9.1-17-7.9-17.1,2.4c-0.1,6.4-0.2,12.9-0.3,19.3c5.7-0.8,11.4-1.6,17.1-2.4c-0.8-4.2-0.8-8.3-0.4-12.5
				c0.4-4.7-4.3-8.7-8.7-8.7C136.7,173.2,133.5,177.2,133.1,181.9L133.1,181.9z"/>
		</g>
	</g>
	<g>
		<g>
			<path class="st4" d="M165.4,222c0.6-6.9-0.2-14-2.5-20.6c-2.2-6-5.7-11.4-7-17.8c-1-4.6-6.4-7.2-10.7-6.1
				c-4.8,1.3-7.1,6.1-6.1,10.7c1.2,5.9,4.3,11.1,6.5,16.6c2.3,5.5,2.8,11.2,2.4,17.1c-0.4,4.7,4.3,8.7,8.7,8.7
				C161.7,230.7,165.1,226.7,165.4,222L165.4,222z"/>
		</g>
	</g>
	<g>
		<g>
			<path class="st4" d="M127.7,279.3c9.1-1.9,8.8-12.7,7.4-20c-2.3-11.8-5.3-23-6.4-34.9c-0.3-2.8-4.6-2.8-4.4,0
				c0.8,8.5,2,17,3.9,25.3c1.4,6,8,23.4-1.7,25.4C123.8,275.6,124.9,279.8,127.7,279.3L127.7,279.3z"/>
		</g>
	</g>
	<g>
		<g>
			<path class="st4" d="M123.1,224.4c-0.7,4-0.3,7.5,1.6,11.1c0.9,1.7,3.6,1.3,4-0.5c0.5-2.4,1.3-4.2,2.8-6.1
				c-1.4-0.3-2.7-0.7-4.1-1.1c0,8.4,1.7,16.5,3,24.7c0.8,4.5,1.5,9.1,1.6,13.8c0.1,4.2,0.5,9.7-3,12.6c-2.1,1.8,1,4.9,3,3
				c6.2-5.4,4.4-16.6,3.6-23.7c-1.3-10.2-3.9-20.1-3.9-30.4c0-2.4-2.9-2.7-4.1-1.1c-1.7,2.2-2.6,4.4-3.2,7.1c1.3-0.2,2.6-0.3,4-0.5
				c-1.3-2.5-1.7-4.9-1.1-7.7C127.8,222.8,123.6,221.6,123.1,224.4L123.1,224.4z"/>
		</g>
	</g>
	<g>
		<g>
			<path class="st4" d="M157,228.5c0,3,0.3,6.1,1,9.1c1.3-0.5,2.6-1.1,4-1.7c-1.5-3-3-6-4.4-9c-0.6,1.1-1.2,2.2-1.9,3.3
				c1,0.1,2.8,2.5,3.5,3.2c1.3,1.4,2.4,2.8,3.6,4.3c1,1.3,2.8,1.5,3.7,0c1.2-1.9,0.5-4.2,0.3-6.3c-0.4-2.9-0.9-5.7-1.3-8.5
				c-1.3,0.5-2.6,1.1-4,1.7c1.6,3.6,2.6,7.3,3.1,11.2c1.4-0.2,2.9-0.3,4.3-0.6c-1-3.4-2.2-6.5-3.8-9.7c-1.3-2.5-5.1-0.3-3.7,2.2
				c1.4,2.8,2.5,5.7,3.4,8.6c0.6,2.3,4.6,1.9,4.3-0.6c-0.6-4.7-1.8-9.1-3.7-13.4c-1-2.4-4.4-0.5-4,1.7c0.3,2,0.6,4,1,6
				c0.2,1.2,1.2,4.4,0.6,5.5c1.2,0,2.5,0,3.7,0c-2.6-3.4-6.3-9.1-10.8-9.7c-1.7-0.3-2.5,2-1.9,3.3c1.5,3,3,6,4.4,9
				c1.1,2.4,4.4,0.6,4-1.7c-0.5-2.6-0.8-5.2-0.9-7.9C161.4,225.7,157,225.7,157,228.5L157,228.5z"/>
		</g>
	</g>
	<g>
		<g>
			<path class="st4" d="M160.6,226.5c0,9.1,0,18.2,0,27.3c0,2.8,4.4,2.8,4.4,0c0-6.3,0.4-12.5,1.3-18.7c-1.4,0-2.8,0-4.2,0
				c2.8,6.7,0.2,13.2-2.6,19.4c1.3,0.2,2.6,0.3,4,0.5c-1.4-6.2-2.2-12.4-2.3-18.7c-1.4,0.2-2.9,0.3-4.3,0.6
				c2.7,7.1,3.6,14.2,2.8,21.7c-0.8,6.9-2.1,13.5-1.1,20.5c1.4-0.3,2.8-0.8,4.2-1.1c-1.3-9.5-1.7-19-1.4-28.6c0.1-2.8-4.3-2.8-4.4,0
				c-0.3,9.9,0.2,19.9,1.5,29.7c0.3,2.8,4.5,1.6,4.2-1.1c-1-7.6,1.1-15,1.6-22.5c0.3-6.7-0.8-13.3-3.2-19.7c-0.9-2.2-4.3-2-4.3,0.6
				c0.1,6.7,0.9,13.3,2.4,19.9c0.4,1.7,3.2,2.3,4,0.5c3.2-7.2,6.4-15,3-22.8c-0.7-1.7-3.8-2.4-4.2,0c-0.9,6.6-1.4,13.2-1.4,19.9
				c1.5,0,2.9,0,4.4,0c0-9.1,0-18.2,0-27.3C165,223.7,160.6,223.7,160.6,226.5L160.6,226.5z"/>
		</g>
	</g>
	<g>
		<g>
			<path class="st4" d="M161.7,276.1c0.5,1.4,1.4,2.4,2.9,2.9c1,0.3,2.5,0.3,3.2,1c0.3-1.2,0.6-2.4,1-3.7c-2.1,0.3-4.1-0.3-5.5-1.8
				c-2-2-5.1,1-3,3c2.6,2.6,6.2,3.7,9.8,3c1.7-0.3,2-2.5,1-3.7c-0.7-0.8-1.7-1.3-2.7-1.6c-0.4-0.1-0.8-0.2-1.2-0.3
				c-0.3-0.1-1-0.3-1-0.3C165,272.4,160.8,273.5,161.7,276.1L161.7,276.1z"/>
		</g>
	</g>
	<g>
		<g>
			<path class="st4" d="M110.7,184c-0.1-6.2,0.9-12.9,3-18.7c-1.4,0-2.8,0-4.2,0c2.1,5.8-3.6,14.1-5.9,19.5c1.4,0.3,2.7,0.7,4.1,1.1
				c1.4-11.8,4-23.3,7.8-34.5c-1.4,0-2.8,0-4.2,0c1.7,6.1-0.5,13.2-1.5,19.3c-0.4,2.7,3.7,3.9,4.2,1.1c1.1-7,3.5-14.7,1.5-21.7
				c-0.6-2.1-3.6-2-4.2,0c-3.9,11.6-6.4,23.5-7.9,35.6c-0.3,2.1,3.2,3,4.1,1.1c2.9-6.6,9-15.4,6.4-22.8c-0.7-2.1-3.5-2.1-4.2,0
				c-2.2,6.1-3.2,13.4-3,19.9C106.3,186.8,110.7,186.8,110.7,184L110.7,184z"/>
		</g>
	</g>
	<g>
		<g>
			<path class="st4" d="M115.8,156.8c-0.1-11.6,1.2-23.8,10.5-31.9c-1-1-2.1-2.1-3-3c-4.2,4.9-8,9.8-10.1,15.9
				c-0.7,2,2.2,3.7,3.7,2.1c4-4.6,8.5-8.8,13.2-12.5c2.2-1.7-0.9-4.8-3-3c-4.8,3.8-9.1,7.9-13.2,12.5c1.2,0.7,2.4,1.4,3.7,2.1
				c1.8-5.4,5.4-9.7,9-14c1.8-2.2-1-5-3-3c-10.1,8.8-11.9,22.2-11.8,34.9C111.5,159.5,115.8,159.5,115.8,156.8L115.8,156.8z"/>
		</g>
	</g>
	<g>
		<g>
			<path class="st4" d="M130.9,125.8c-0.1-2.4-0.2-4.9-0.3-7.3c-0.1-1.5-1.9-3-3.3-1.9c-7.2,5.5-11.9,12.8-16.5,20.5
				c-1.5,2.4,2.4,4.6,3.7,2.2c3.1-5.2,6.4-10.3,9.9-15.2c3.3-4.7,6.5-10.9,11.7-13.9c2.4-1.4,0.3-5.1-2.2-3.7
				c-5,2.9-8.1,8.3-11.4,12.8c-4.1,5.8-8,11.8-11.8,17.9c1.2,0.7,2.5,1.5,3.7,2.2c4.2-7,8.4-14,14.9-18.9c-1.1-0.6-2.2-1.2-3.3-1.9
				c0.1,2.4,0.2,4.9,0.3,7.3C126.6,128.6,131,128.7,130.9,125.8L130.9,125.8z"/>
		</g>
	</g>
	<g>
		<g>
			<path class="st4" d="M152.7,120.2c0.3,1.3,0.3,1.6,1,2.7c1.1,2.1,4.9,0.7,4-1.7c-2.3-6-4.7-12-7.1-18c-1,0.8-2.1,1.7-3.2,2.4
				c9.9,7.1,13.7,19,15.8,30.5c1.2-0.7,2.4-1.4,3.7-2.1c-4-3.3-7.7-6.9-11-10.9c-1,1-2.1,2.1-3,3c2.6,3,5.2,5.9,7.8,8.9
				c1.7,2,4.4-0.5,3.4-2.6c-3-6.4-5.8-13.1-8.1-19.8c-1.2,0.7-2.4,1.4-3.7,2.1c4.4,5.1,7,11.2,9.4,17.5c1,2.6,5.2,1.5,4.2-1.1
				c-2.7-7-5.6-13.8-10.5-19.4c-1.4-1.6-4.4,0.1-3.7,2.1c2.4,7.1,5.3,14,8.5,20.8c1.1-0.9,2.3-1.7,3.4-2.6c-2.6-3-5.2-5.9-7.8-8.9
				c-1.8-2.1-4.9,1-3,3c3.3,4,7,7.6,11,10.9c1.7,1.4,4,0.1,3.7-2.1c-2.4-12.8-6.9-25.3-17.8-33.1c-1.5-1-3.9,0.7-3.2,2.4
				c2.5,5.9,4.9,11.9,7.1,18c1.3-0.5,2.6-1.1,4-1.7c-0.2-0.5-0.3-1.1-0.6-1.7C156.4,116.3,152.2,117.5,152.7,120.2L152.7,120.2z"/>
		</g>
	</g>
	<g>
		<g>
			<path class="st4" d="M161.4,131.7c0,2.4-0.1,4.8-0.1,7.1c1.4-0.3,2.7-0.7,4.1-1.1c-3.2-4.4-6.3-8.9-9.3-13.5c-1,1-2,2-3,3
				c7.1,5.5,13.2,12.3,17.8,20.1c1.2,2,5,0.7,4-1.7c-3.1-7.6-6.7-14.8-10.8-22c-1.4-2.4-5.1-0.3-3.7,2.2c3.9,6.7,7.4,13.7,10.4,20.9
				c1.3-0.5,2.6-1.1,4-1.7c-5.1-8.5-11.5-15.7-19.3-21.7c-1.7-1.3-4.1,1.2-3,3c3,4.5,6.1,9.1,9.3,13.5c1.2,1.7,4,1.2,4.1-1.1
				c0-2.4,0.1-4.8,0.1-7.1C165.8,129,161.5,129,161.4,131.7L161.4,131.7z"/>
		</g>
	</g>
	<g>
		<g>
			<path class="st4" d="M163.4,141.1c0.3,6.3,1.2,12.3,3.1,18.3c1.3-0.5,2.6-1.1,4-1.7c-3-5.8-5.5-11.9-7.5-18.2
				c-0.9-2.7-5.1-1.6-4.2,1.1c2.1,6.6,4.7,13.1,7.9,19.3c1.1,2.2,4.7,0.7,4-1.7c-1.7-5.6-2.8-11.2-3-17.1
				C167.7,138.2,163.3,138.2,163.4,141.1L163.4,141.1z"/>
		</g>
	</g>
	<g>
		<g>
			<path class="st4" d="M165.1,148.3c1.6,6.3,3.3,12.5,5.1,18.8c0.6,1.9,3.7,2.2,4.2,0c0.7-3.8-0.9-7.3-1.7-11.1
				c-1.1-4.5-1.9-9.1-2.6-13.7c-1.2,0.7-2.4,1.4-3.7,2.1c5.7,5.2,7.8,12.5,8.8,19.9c1.4-0.3,2.8-0.8,4.2-1.1
				c-1-4.5-2.2-8.9-4.9-12.7c-1.4-1.9-4.7-0.8-4,1.7c1.8,6.5,3.7,13.2,5.5,19.7c0.8,2.7,5,1.6,4.2-1.1c-1.8-6.5-3.7-13.2-5.5-19.7
				c-1.3,0.5-2.6,1.1-4,1.7c2.4,3.6,3.5,7.5,4.4,11.7c0.6,2.8,4.5,1.6,4.2-1.1c-1.1-8.2-3.7-16.1-9.9-21.9c-1.7-1.6-3.9,0-3.7,2.1
				c0.5,3.5,1.1,7.1,1.9,10.5c0.7,3.3,3.1,8.5,2.4,11.9c1.4,0,2.8,0,4.2,0c-1.8-6.2-3.6-12.5-5.1-18.8
				C168.5,144.5,164.4,145.6,165.1,148.3L165.1,148.3z"/>
		</g>
	</g>
	<g>
		<g>
			<path class="st4" d="M173.3,168.6c0.4,3.8,0.8,7.6,1,11.4c1.4-0.3,2.7-0.7,4.1-1.1c-2.4-3.9-4.1-8-4.9-12.5
				c-0.5-2.8-4.7-1.6-4.2,1.1c0.9,4.9,2.7,9.4,5.3,13.6c1.1,1.7,4.2,1.1,4.1-1.1c-0.2-3.8-0.5-7.6-1-11.4
				C177.4,165.8,173,165.8,173.3,168.6L173.3,168.6z"/>
		</g>
	</g>
	<g>
		<g>
			<path class="st5" d="M133.5,60.9c-7.9,0.6-12.9,7.8-12.6,15.5c0.3,10.2,7.9,18,10.9,27.4c0.9,2.7,5.1,1.6,4.2-1.1
				c-1.9-6.3-5.8-11.6-8.4-17.6c-2.9-6.5-4.3-19.1,5.9-19.9C136.3,65,136.3,60.6,133.5,60.9L133.5,60.9z"/>
		</g>
	</g>
	<g>
		<g>
			<path class="st5" d="M133.6,105c-9.8,8.5-16.9,19.7-20.6,32.2c-4.4,15-7,30.6-10.2,45.9c-0.6,2.7,3.7,3.9,4.2,1.1
				c3-14.2,5.8-28.6,9.3-42.7c3.4-13.2,10-24.6,20.3-33.5C138.8,106.2,135.8,103.2,133.6,105L133.6,105z"/>
		</g>
	</g>
	<g>
		<g>
			<path class="st5" d="M127.8,240.1c-0.8-8.8-1.6-17.7-1.5-26.6c0.2-9.6,2.2-18.6,3.7-28c1.3-8.3,1.8-16.7,1.3-25.1
				c-0.5-9.1-3-18.3-2.4-27.4c0.2-2.8-4.2-2.8-4.4,0c-0.5,9,1.8,17.8,2.4,26.7c0.6,9.4,0,18.8-1.7,28.1c-1.5,8.4-3,16.6-3.2,25.1
				c-0.2,9.1,0.6,18.3,1.4,27.4C123.7,242.8,128,242.8,127.8,240.1L127.8,240.1z"/>
		</g>
	</g>
	<g>
		<g>
			<path class="st5" d="M125.3,135.8c-1.1,8,0.7,15.5,2.8,23.3c2.6,9.8,3.7,18.9,2,28.9c-1.6,8.7-5.4,16.9-6.7,25.6
				c-1.3,8.8,1,17.4,3.3,25.8c0.8,2.7,5,1.6,4.2-1.1c-2.6-9.3-4.8-18.5-2.4-28.1c2-8.1,5.1-15.9,6.3-24.2c1-7.7,0.7-15.2-1.1-22.7
				c-2.1-8.6-5.4-17.3-4.2-26.3C129.9,134.3,125.8,133.1,125.3,135.8L125.3,135.8z"/>
		</g>
	</g>
	<g>
		<g>
			<path class="st5" d="M124.1,238.2c2.1,6.3,3.3,12.7,3.6,19.3c0.3,5.8,0.4,13.1-3.5,17.8c-1.7,2.2,1.3,5.2,3,3
				c4.1-5.1,4.7-11.3,4.8-17.6c0.1-8.1-1.3-16.1-3.8-23.8C127.5,234.4,123.2,235.5,124.1,238.2L124.1,238.2z"/>
		</g>
	</g>
	<g>
		<g>
			<path class="st5" d="M125.7,236c3.1,12,4.2,24.5-0.3,36.3c-1,2.6,3.2,3.7,4.2,1.1c4.7-12.5,3.6-26,0.3-38.7
				C129.2,232.2,124.9,233.3,125.7,236L125.7,236z"/>
		</g>
	</g>
	<g>
		<g>
			<path class="st5" d="M153.6,129.8c12.2,11.7,12.9,29.3,15.7,45c0.5,2.8,4.7,1.6,4.2-1.1c-3-16.6-3.9-34.5-16.7-46.9
				C154.8,124.9,151.6,127.9,153.6,129.8L153.6,129.8z"/>
		</g>
	</g>
	<g>
		<g>
			<path class="st5" d="M150.9,229.1c14.5,10,3.7,31.5,3.3,45.3c-0.1,2.8,4.3,2.8,4.4,0c0.4-16,11.3-37.5-5.5-49.1
				C150.8,223.7,148.7,227.4,150.9,229.1L150.9,229.1z"/>
		</g>
	</g>
	<g>
		<g>
			<path class="st6" d="M147.3,77.6c2.2,6-1.2,8.6-3.5,13.6c-1.8,4-0.5,8.5,0,12.7c0.3,2.8,4.7,2.8,4.4,0c-0.3-2.6-1-5.3-1-7.9
				c0-3.2,2.2-5.2,3.6-7.8c2-3.7,2.2-7.8,0.7-11.8C150.5,73.8,146.3,74.9,147.3,77.6L147.3,77.6z"/>
		</g>
	</g>
	<g>
		<g>
			<path class="st6" d="M145.3,106.2c10.8,8.4,17.9,20.1,22.3,32.9c2.4,7,4,14.1,5.2,21.3c0.9,5.1,0.4,11.8,5.1,15.2
				c2.3,1.7,4.4-2.2,2.2-3.7c-2.5-1.8-2.4-8.4-2.9-11c-0.5-3.2-1.1-6.4-1.8-9.6c-1.5-6.9-3.5-13.7-6.3-20.2
				c-4.6-10.9-11.4-20.7-20.7-28C146.1,101.4,143,104.5,145.3,106.2L145.3,106.2z"/>
		</g>
	</g>
	<g>
		<g>
			<path class="st6" d="M131.7,131.4c-4.9,0.3-6.2,5.8-5.8,9.9c0.5,4.3,3.7,7.7,8,7.8c2.8,0.1,2.8-4.3,0-4.4c-2-0.1-3.3-1.7-3.7-3.5
				c-0.2-1-0.3-5.4,1.4-5.5C134.5,135.6,134.5,131.2,131.7,131.4L131.7,131.4z"/>
		</g>
	</g>
	<g>
		<g>
			<path class="st6" d="M147.5,129.7c-9.8,2.1-11.4,15.4-2.4,19.7c2.5,1.2,4.7-2.5,2.2-3.7c-5.8-2.7-5.1-10.4,1.3-11.8
				C151.5,133.3,150.2,129.1,147.5,129.7L147.5,129.7z"/>
		</g>
	</g>
	<g>
		<g>
			<path class="st6" d="M152.6,140.5c1.2,11.5-3.9,22.5-2.8,34.1c1,10.6,5,20.7,8.6,30.6c4,11.2,6.7,22.2,6.7,34.2
				c0,12.8-1.6,25.7-2.6,38.4c-0.1,1.1,1,2.2,2.2,2.2c1.1-0.2,2.2,0.1,3.1,0.8c2.4,1.4,4.6-2.4,2.2-3.7c-1.7-1-3.4-1.4-5.4-1.4
				c0.7,0.7,1.5,1.5,2.2,2.2c1-12.5,2.5-25.1,2.6-37.6c0.1-11.6-2.1-22.5-5.9-33.4c-3.6-10.3-8.2-20.6-9.4-31.5
				c-1.3-11.8,4-23,2.7-34.8C156.7,137.8,152.3,137.8,152.6,140.5L152.6,140.5z"/>
		</g>
	</g>
	<g>
		<g>
			<path class="st6" d="M134.8,224.2c-6.1,6.9-4.2,15.6-1.9,23.6c1.6,5.5,3,11.2,2.8,17c-0.2,5.2-1.9,12.1-7.1,14.4
				c-2.5,1.1-0.3,4.9,2.2,3.7c8.1-3.6,9.8-15,9.1-22.7c-0.5-5.4-2-10.5-3.5-15.7c-1.6-5.8-3-12.4,1.4-17.3
				C139.8,225.2,136.6,222.1,134.8,224.2L134.8,224.2z"/>
		</g>
	</g>
	<g>
		<g>
			<path class="st6" d="M138,77.3c1.2-1.9,3.6-0.2,4.9,0.8c1.1,0.9,2.2-1,1.1-1.9c-2.4-1.8-5.8-3-7.8,0
				C135.3,77.4,137.3,78.5,138,77.3L138,77.3z"/>
		</g>
	</g>
	<g>
		<g>
			<path class="st6" d="M144.3,76.4c0.2-0.3,0.3-0.7,0.6-1c0.4-0.4,0.4-1.1,0-1.6c-0.4-0.4-1.1-0.4-1.6,0c-0.3,0.4-0.7,0.9-1,1.4
				c-0.3,0.5-0.2,1.1,0.3,1.5C143.3,77.1,144.1,77,144.3,76.4L144.3,76.4z"/>
		</g>
	</g>
	<g>
		<g>
			<path class="st6" d="M141.4,75.2c0-0.3,0-0.3,0.1-0.4c0.7-1.2-1.2-2.4-1.9-1.1c-0.3,0.5-0.4,1-0.3,1.6c0,0.6,0.4,1,1,1
				C140.8,76.3,141.4,75.8,141.4,75.2L141.4,75.2z"/>
		</g>
	</g>
	<g>
		<g>
			<path class="st6" d="M130.5,76c-1.3-0.1-2.8-0.3-4,0.3c-1,0.4-1.7,1.4-2.2,2.4c-0.7,1.2,1.1,2.3,1.9,1.1c0.3-0.5,0.8-1.3,1.5-1.6
				c0.9-0.3,2,0,2.9,0.1C131.9,78.2,131.9,76,130.5,76L130.5,76z"/>
		</g>
	</g>
	<g>
		<g>
			<path class="st6" d="M125.7,78.2c-0.5-0.3-1-0.7-1.3-1.2c-0.3-0.5-1-0.7-1.5-0.3c-0.5,0.3-0.7,1-0.3,1.5c0.5,0.8,1.2,1.5,2.1,2
				C125.8,80.9,126.9,78.9,125.7,78.2L125.7,78.2z"/>
		</g>
	</g>
	<g>
		<g>
			<path class="st6" d="M128.5,77.1c0.1-0.9,0-1.6-0.6-2.2c-1-1-2.5,0.5-1.6,1.6c-0.1-0.1,0.1,0.2,0,0c0.1,0.1,0,0.2,0,0
				c-0.1,0.6,0.2,1.1,0.8,1.3S128.4,77.7,128.5,77.1L128.5,77.1z"/>
		</g>
	</g>
	<g>
		<g>
			<path class="st4" d="M163,91.5c-2.4-1-4.5-2.2-6.6-3.7c-0.3,1.4-0.7,2.7-1.1,4.1c1.4,0.2,2.4,0.4,3.7,1c2.3,1,3.3-2.2,2.1-3.7
				c-1-1.2-1.9-2.5-2.9-3.8c-0.6,1.1-1.2,2.2-1.9,3.3c1-0.1,2,0,3,0.3c1.9,0.5,3.9-2.2,2.1-3.7c-1-0.9-2-1.7-2.9-2.7
				c-0.3,1.2-0.6,2.4-1,3.7c1.4-0.4,2.8-0.9,4.3-1.4c1.8-0.6,2.1-3,0.5-4c-1.1-0.8-2.4-1.5-3.6-2.1c0,1.2,0,2.5,0,3.7
				c1.7-0.9,3.3-1.7,5.1-2.3c1.9-0.7,2.2-3.6,0-4.2s-4.4-1.1-6.5-1.7c0.2,1.3,0.3,2.6,0.5,4c1-0.7,1.9-1.2,3-1.7
				c2.5-1.1,0.3-4.9-2.2-3.7c-1.1,0.5-2,1-3,1.7c-1.5,1-1.4,3.5,0.5,4c2.2,0.6,4.4,1.1,6.5,1.7c0-1.4,0-2.8,0-4.2
				c-2.2,0.8-4.2,1.7-6.2,2.7c-1.4,0.8-1.4,3,0,3.7c1.2,0.7,2.4,1.4,3.6,2.1c0.2-1.3,0.3-2.6,0.5-4c-1.4,0.4-2.8,1-4.3,1.4
				c-1.6,0.5-2.1,2.4-1,3.7c1,1,1.8,1.8,2.9,2.7c0.7-1.2,1.4-2.4,2.1-3.7c-1.4-0.3-2.7-0.5-4.1-0.4c-1.5,0-2.9,1.9-1.9,3.3
				c1.1,1.6,2.4,3.1,3.6,4.7c0.7-1.2,1.4-2.4,2.1-3.7c-1.7-0.7-3.1-1-4.9-1.1c-2.4-0.3-2.7,3-1.1,4.1c2.4,1.7,5,3,7.7,4.1
				C164.4,96.7,165.5,92.5,163,91.5L163,91.5z"/>
		</g>
	</g>
	<g>
		<g>
			<path class="st4" d="M145.5,62.3c4.5-0.8,9.1-1.2,11.7,3.3c2.1,3.7,3,8.2,2,12.2c1.2-0.3,2.4-0.6,3.7-1c-2.3-3-3.7-6.4-5.8-9.4
				c-1.8-2.7-4.2-4.9-6.6-7.1c-0.5,1.2-1,2.4-1.6,3.7c4.7-0.4,7,1.4,8.2,6c1,3.5,1.8,7,2.8,10.5c0.3,1.5,2.6,2.3,3.7,1
				c3.7-4.6,2.3-12-1-16.6c-1.7-2.4-3.8-4.3-6.4-5.6c-3-1.5-6.2-1.2-9.2-2.4c0,1.4,0,2.8,0,4.2c9.7-2.4,18.5,7.8,17.7,16.8
				c-0.3,2.8,4.1,2.8,4.4,0c1.1-12-11-24-23.2-21.1c-2.3,0.5-1.8,3.5,0,4.2c4,1.6,7.8,0.9,11.3,4c2.9,2.6,6.3,9.5,3.3,13.2
				c1.2,0.3,2.4,0.6,3.7,1c-1.3-5-1.9-11.7-5-16c-2.4-3.4-6.4-4.1-10.3-3.7c-1.7,0.2-3,2.4-1.6,3.7c3,2.6,5.5,5.1,7.5,8.6
				c1.6,2.7,3,5.4,5,7.8c1,1.3,3.2,0.5,3.7-1c1.5-5.6,0.1-12.5-3.4-17.2c-3.9-5.1-9.8-4.8-15.6-3.7
				C141.6,58.6,142.7,62.8,145.5,62.3L145.5,62.3z"/>
		</g>
	</g>
	<g>
		<g>
			<path class="st6" d="M139.5,76.3c0,1.1,0.1,2.2,0.3,3.3c0.1,0.6,0.8,0.9,1.3,0.8c0.6-0.2,0.9-0.8,0.8-1.3
				c-0.2-0.9-0.2-1.8-0.3-2.7C141.6,74.9,139.4,74.9,139.5,76.3L139.5,76.3z"/>
		</g>
	</g>
	<g>
		<g>
			<path class="st6" d="M128.1,77.4c0,1.1,0,2.3,0.1,3.4c0,1.4,2.2,1.4,2.2,0c0-1.1,0-2.3-0.1-3.4C130.3,76,128.1,76,128.1,77.4
				L128.1,77.4z"/>
		</g>
	</g>
	<g>
		<g>
			<path class="st7" d="M123.5,84c-3.7-4.8-3.2-12.1,0.9-16.6c3.9-4.3,10.5-5.7,15.9-4.1c11.9,3.3,16.6,18.6,7,26.9
				c-2.1,1.8,1,4.9,3,3c13-11.2,5.1-32.1-11-34.7c-7.4-1.2-15.7,1.6-19.9,8c-4.1,6.4-3.7,14.6,1,20.4
				C122.2,89.3,125.2,86.3,123.5,84L123.5,84z"/>
		</g>
	</g>
	<g>
		<g>
			<path class="st7" d="M120.5,87c1.4,6.4,6.8,11,8.5,17.3c0.7,2.7,4.9,1.6,4.2-1.1c-1.7-6.4-7.1-11-8.5-17.3
				C124.2,83.1,120,84.3,120.5,87L120.5,87z"/>
		</g>
	</g>
	<g>
		<g>
			<path class="st7" d="M146.6,91.8c-0.1,3.5,0.3,7,0.2,10.5c-0.1,2.8,4.3,2.8,4.4,0c0.1-3.5-0.3-7-0.2-10.5
				C151,89.1,146.7,89.1,146.6,91.8L146.6,91.8z"/>
		</g>
	</g>
	<g>
		<g>
			<path class="st7" d="M128.3,103.8c-4.7,5.3-9.6,10.7-12.7,17.2c-3.2,6.5-4.9,13.9-6.6,20.9c-2.1,8.2-3.8,16.4-5.2,24.7
				c-0.6,3.5-1,7.1-1.5,10.5c-0.3,3.1-1.4,7-0.5,10.1c1.3,4.9,6.4,4.6,9.2,1.2c3.8-4.5,5.1-11.6,5.8-17.3c1.7-13.3,0.1-29.7,11.8-39
				c2.2-1.7-0.9-4.8-3-3c-7.8,6.2-10.5,15.9-11.6,25.4c-0.7,5.7-0.7,11.5-1.6,17.2c-0.4,3-1,6.1-2.2,9c-0.6,1.7-1,4.3-3.1,4.3
				c-2.1,0-1.1-1.7-1-3.5c1.4-13.5,4.1-26.8,7.5-39.9c1.7-6.5,3.2-13.5,6.4-19.5c3-5.6,7.2-10.3,11.4-15
				C133.2,104.7,130.2,101.7,128.3,103.8L128.3,103.8z"/>
		</g>
	</g>
	<g>
		<g>
			<path class="st7" d="M148.4,103.8c8.5,7.1,14.4,16.4,18.8,26.4c5,11.3,8.9,23.9,10.1,36.2c0.3,2.9,0.4,5.8,0.3,8.8
				c0,0.5,0,5-0.4,5.2c-1.7,1-2.9-3.2-3.1-4.1c-1.7-5.2-2.2-10.9-3.7-16.3c-3.1-11.2-8-21.8-14.5-31.4c-1.6-2.4-5.3-0.2-3.7,2.2
				c8.5,12.6,13.6,26.3,16.5,41.2c0.8,4.1,2.4,13.3,7.8,13.8c5.2,0.4,5.4-6.4,5.5-9.9c0.6-14.6-3.6-29.5-8.9-43
				c-4.8-12.2-11.4-23.8-21.5-32.3C149.4,98.9,146.3,102,148.4,103.8L148.4,103.8z"/>
		</g>
	</g>
	<g>
		<g>
			<path class="st7" d="M121.6,137.7c0.7,8.2,3.7,15.9,4.5,24.1c0.8,8.3,0.3,16.6-1,24.7c-2.5,15-7,29.6-4.9,45
				c0.3,2.8,4.6,1.6,4.2-1.1c-2.2-15.9,3.4-31.4,5.6-47c1-7.5,1.2-15,0.4-22.5c-0.9-7.9-3.7-15.4-4.4-23.3
				C125.7,134.9,121.3,134.9,121.6,137.7L121.6,137.7z"/>
		</g>
	</g>
	<g>
		<g>
			<path class="st7" d="M122.2,233.5c2.8,0,2.8-4.4,0-4.4C119.3,229.2,119.3,233.5,122.2,233.5L122.2,233.5z"/>
		</g>
	</g>
	<g>
		<g>
			<path class="st7" d="M156.2,136.2c0.5,5.8,0.6,11.7-0.1,17.5c-0.7,5.9-2.4,11.6-3.1,17.5c-1.4,11.8,3.9,22.7,7.3,33.7
				c3.6,11.6,6.2,23.6,5.8,35.8c-0.2,5.9-1.3,11.7-2.3,17.4c-0.9,5.6-1.1,11.2-1.1,16.7c0,1.1,1,2.3,2.2,2.2c2-0.2,4.1-0.8,4.6,1.5
				c0.5,2.4,0.3,1-1.1,1.6c-0.6,0.3-3.1-0.2-3.2-0.2c-3.9-0.8-6.2-3.3-6.9-7.2c-1.2-6.7,0.5-14.3,0.9-21
				c0.5-10.5,1.8-24.8-12.3-25.4c-3.7-0.2-12-1.7-13.9,2.7c-2.4,5.7,0.2,13.5,1.5,19.2c1.7,7.5,2.9,15.7,1.9,23.4
				c-0.4,3.7-4.3,10.4-9,7.1c-2.4-1.7-1.8-2.8-0.1-3.7c1-0.5,1.7-0.6,2.5-1.6c3.6-4.4,1.6-13.5,0.5-18.5c-1.7-8.2-4.8-16-5.4-24.5
				c-0.2-2.8-4.5-2.8-4.4,0c0.6,8.8,3.7,17,5.5,25.6c0.8,3.6,2.3,9.9,0.6,13.5c-1,2.4-4.4,1.7-5.3,4.8c-1.7,5.7,5,10.1,9.9,9.2
				c6.5-1.1,9.1-7.5,9.5-13.4c0.5-9.5-1.4-18.6-3.2-27.8c-0.5-2.4-1-4.8-1-7.2c0-2.8-0.3-4.2,2.4-4.4c4.4-0.3,11.9-1,14.6,3.2
				c2.2,3.6,1.6,8.8,1.4,12.7c-0.2,5.1-0.5,10.3-1,15.3c-0.5,5.9-1.4,13.1,2.7,18c3.4,4.2,13.8,7.1,17.7,2.1
				c1.6-2.1,1.2-4.9-0.3-6.8c-2.2-2.7-5.8-2.8-9.1-2.6c0.7,0.7,1.5,1.5,2.2,2.2c0-6.1,0.3-11.9,1.4-17.9c1-5.4,1.9-10.8,2-16.3
				c0.3-11.5-1.9-22.9-5.1-33.9c-3.4-11.9-9.8-24-7.9-36.7c0.8-5.2,2.3-10.4,2.9-15.7c0.7-6.1,0.7-12.2,0.2-18.3
				C160.3,133.4,155.9,133.4,156.2,136.2L156.2,136.2z"/>
		</g>
	</g>
	<g>
		<g>
			<path class="st7" d="M142.7,60.2c3.6-3.8,12.2-5.1,16.8-2.5c6.4,3.7,6.9,11.9,5.1,18.3c-1.1,4.2-4.3,9.4-3.2,13.9
				c1,3.9,5,4.5,8.5,4.2c-0.7-1-1.4-1.8-2.1-2.8c-1.7,4.3-12.3,1.5-14.2-1.4c-1.6-2.3-5.4-0.1-3.7,2.2c4.3,6.1,18.9,8.7,22.2,0.3
				c0.4-1.2-0.8-2.9-2.1-2.8c-5.9,0.7-3.2-5.8-2.2-8.9c0.9-2.6,1.7-5.2,2.1-8c0.7-5.3-0.3-11-3.8-15.2c-6.1-7.3-19.8-7.4-26.3-0.3
				C137.8,59.2,140.9,62.2,142.7,60.2L142.7,60.2z"/>
		</g>
	</g>
</g>
</svg>
