<?xml version="1.0" encoding="utf-8"?>
<!-- Generator: Adobe Illustrator 23.0.3, SVG Export Plug-In . SVG Version: 6.00 Build 0)  -->
<svg version="1.1" id="Calque_1" xmlns="http://www.w3.org/2000/svg" xmlns:xlink="http://www.w3.org/1999/xlink" x="0px" y="0px"
	 viewBox="0 0 259 308.1" style="enable-background:new 0 0 259 308.1;" xml:space="preserve">
<style type="text/css">
	.st0{fill:#79CAE2;}
	.st1{fill:#3A9BB9;}
	.st2{fill:#BBE1EF;}
	.st3{fill:#4D678B;}
	.st4{fill:#EC82AD;}
	.st5{fill:#F2C8DA;}
	.st6{fill:#D3538D;}
	.st7{fill:#B83364;}
</style>
<g>
	<g>
		<g>
			<path class="st0" d="M52.6,79.9c-0.2-1,0.1-2.3-0.8-1.3c0.4-0.4,3-1.2,3.5-1.2c1.5,0.1,1.1,0.4,1.6,2.2c0.4,1.9,1.1,4.7,0.3,6.6
				c-0.3,0.7-1.6,2.5-2.3,2.7c-1.5,0.6,0,0.5-1.3-0.4c-1.8-1.2-3.3-4.4-4.3-6.3c-0.5-1.1-0.9-2.1-1.2-3.2c-0.3-0.8-0.4-1.6-0.5-2.5
				c0,0.3-0.1,0.5-0.1,0.8c1.7-0.5,4.2-0.4,5.3,1.2c0.5,0.7,0.4,1.4,0.6,2.2c0,0.1,0,0.2,0,0.3c-1.2,1.3-0.4,2.2,2.6,2.6
				c0.5-8.3-12.5-8.3-13,0c-0.4,6.9,6.3,11.9,12.9,10.5c6.7-1.4,10.8-8.1,10.4-14.7c-0.6-13.7-20.9-21.7-29.5-9.9
				c-4.3,5.9-1.4,14,1.6,19.8c2.9,5.7,8,12.2,14.8,12.8c7,0.6,13.5-5.1,16-11.3c2.3-5.7,1.4-13.6-1.2-19c-3.5-7.3-11.4-8.8-18.6-6.2
				c-8.5,3.1-11,9.1-9.3,17.7C41.6,91.5,54.2,88,52.6,79.9L52.6,79.9z"/>
		</g>
	</g>
	<g>
		<g>
			<path class="st0" d="M42.9,83.3c-0.4,8.5-0.6,16.9-1,25.4c-0.3,8.3,12.6,8.3,13,0c0.1-1.1,0.2-2.3,0.4-3.4c0.1-0.5,0.3-1,0.4-1.4
				c0.4-1.1,0.2-1-0.8,0.4c-1.7,0.2-3.3,0.4-5,0.6c-3.2-0.8-2.2-2.7-2.4,0.7c1.6-2.1,3.2-4.2,4.7-6.2c0.7,0.4,0.9,0.4,0.4,0
				c-0.4-0.4-0.7-0.7-1-1.1c-0.5-0.5-1.1-1.1-1.6-1.6c-2-1.8-4.4-2.9-7.1-3.3c-5.4-1-11.1,0.3-16.4,0.7c2.2,2.2,4.3,4.3,6.5,6.5
				c0.5-7,0.4-14.3,1.9-21.2c1.3-6.1,4.5-11.1,11.4-10.4c16.6,1.4,15.4,24,14,35.4c2.2-2.2,4.3-4.3,6.5-6.5
				c-3.9,0.3-7.7-1.5-9.1-5.4c-0.7-2-0.3-4.3-0.8-6.4c-0.6-2.7-2.1-5.2-4.5-6.8c-3.9-2.6-10.9-2.8-15.3-1.4c-6,1.8-8.7,7-9.6,12.8
				c4.3,0.6,8.5,1.1,12.8,1.8c-0.3-3.3-0.4-6.8,0.2-10.1c0.2-1.2,1.2-7.9,2.2-8.4c-1.1,0.3-2.2,0.6-3.2,0.9c0.4,0,0.7,0,1,0
				c-1.1-0.3-2.2-0.6-3.2-0.9c3.9,1.7,6.1,10,7.5,13.7c2.1,5.7,4.2,11.3,7.5,16.4c2.4,3.6,9.1,4.8,11.2,0c0.6-1.3,0.8-1.7,2-2.5
				c3.3-2.5,2-8.3-1.3-10.2C56.7,87,48,85,39.3,85.7c-8.2,0.7-8.3,13.7,0,13c6.7-0.5,12.8,0.6,18.7,3.9c-0.4-3.4-0.9-6.8-1.3-10.2
				c-1.8,1.4-3.2,3.2-4,5.2c3.8,0,7.5,0,11.2,0c-6.7-10.1-7.5-25.6-17.5-33.4c-6.8-5.4-13.1-0.4-15.7,6.4c-2.7,6.9-3.6,14.6-3,21.9
				c0.3,3.2,2.3,6,5.6,6.4c2.9,0.4,6.7-1.5,7.1-4.7c0.2-1.1,0.2-3.3,1.1-3.9c0.4-0.3,1.8-0.1,2.3,0c0.7,0,1.3,0.1,2,0.2
				c-0.4-0.4-0.9-1-1.3-1.4C44,89.3,45,94.7,45,94.8c0.4,1.8,1.2,3.8,2.2,5.4c4,6.8,11.8,11.1,19.8,10.7c3.9-0.3,6.1-2.8,6.5-6.5
				c1.3-11,1.6-22.2-3.5-32.3C65.5,63,56.8,56.6,46.4,56c-10-0.5-18.4,5.4-22.2,14.4c-3.8,9.3-3.4,20.4-4.1,30.3
				c-0.3,3.3,3.2,6.8,6.5,6.5c3.4-0.3,6.8-0.6,10.3-0.9c2.3-0.2,3.5-0.4,5.3,0.9c4.2,3.2,7.6,7.2,13.6,4.8c2.9-1.1,4.6-3.2,4.7-6.2
				c0.4-5.9-2.3-14.3-9.7-13.3c-7.3,1-8.7,10.6-9,16.5c4.3,0,8.7,0,13,0c0.4-8.5,0.6-16.9,1-25.4C56.2,74.9,43.1,74.9,42.9,83.3
				L42.9,83.3z"/>
		</g>
	</g>
	<g>
		<g>
			<path class="st0" d="M37.5,111.1c-0.5,12.2-0.7,24.6,3.4,36.2c3.9-1.7,7.9-3.3,11.8-5c-4.7-6.7-6.7-13.9-6.1-21.9
				c-4.3,0-8.7,0-13,0c-0.2,9.9,0.4,20.9,3.5,30.4c3.2,9.7,16.5,6.6,23.3,2.8c9-5,8.3-15.4,6.5-24c-1.9-9.1-6.3-17.2-12.1-24.4
				c-3.6-4.5-11.2-0.7-11.1,4.6c0.4,14.7,0.9,29.6,1.3,44.3c4.3,0,8.7,0,13,0c-0.4-3.4-1-6.8-1.7-10.2c-1.8-8.2-14.3-4.7-12.5,3.4
				c0.4,2.2,1,4.5,1.2,6.7c0.4,3.5,2.6,6.5,6.5,6.5c3.4,0,6.6-3,6.5-6.5c-0.4-14.7-0.9-29.6-1.3-44.3c-3.7,1.5-7.4,3.1-11.1,4.6
				c3.5,4.3,6.1,9.3,7.7,14.6c1,3.2,3.7,11.2,0.6,13.5c-1.8,1.3-4.6,0.9-6.5,1.8c-2-0.2-1.9,0.3,0.4,1.4c1.8,1.9,2.2,1.8,1.3-0.3
				c-0.1-1.5-0.8-3.4-1.1-4.9c-1.2-6.6-1.6-13.2-1.4-19.8c0.2-8.4-12.5-8.2-13,0c-0.6,10.1,2.2,20.2,7.9,28.4
				c3.9,5.6,14.6,2.4,11.8-5c-3.8-10.6-3.4-21.7-3-32.8C50.8,102.8,37.8,102.8,37.5,111.1L37.5,111.1z"/>
		</g>
	</g>
	<g>
		<g>
			<path class="st0" d="M51.8,175c-0.5-4-1.1-8-1.6-12c-0.3-1.8-0.4-3.4-0.7-5.2c-0.5-4.1,0.4-2.1-1.8-0.9c-3-0.8-6-1.6-8.9-2.4
				c7.2,10.4,14.1,20.9,20.9,31.6c3.9,6.1,14,2.3,11.8-5c-1-3.5-2-6.9-3-10.4c-0.4-1.6-1-3.2-1.4-4.8c-0.3-0.8-0.4-1.6-0.7-2.4
				c-0.1-1.8-0.4-1.9-1-0.4c7.5-3.5,1-14.7-6.6-11.2c-5.7,2.6-6.5,8.9-5.2,14.4c1.5,6.1,3.5,12.3,5.3,18.3c3.9-1.7,7.9-3.3,11.8-5
				C64.3,168.9,57.2,158.3,50,148c-2-3-5.6-4.1-8.9-2.4c-4.2,2.3-5.3,6.8-4.7,11.2c0.7,6,1.6,12,2.3,18c0.4,3.5,2.6,6.5,6.5,6.5
				C48.5,181.6,52.2,178.5,51.8,175L51.8,175z"/>
		</g>
	</g>
	<g>
		<g>
			<path class="st0" d="M56,247.5c-2.9-12.5-6.1-25.4-7.5-38.2c-0.6-6-0.6-11.8,0.9-17.6c1.6-6.3,3.7-12.5,5.5-18.8
				c-4.3-0.6-8.5-1.1-12.8-1.8c1.1,9.9-3.8,20-5.4,29.7c-1.8,10.3-2.4,20.6-1.8,31.1c0.4,8.3,13.4,8.3,13,0c-0.5-10.4,0-20.7,2-30.8
				c1.9-9.8,6.4-19.7,5.4-29.9c-0.8-7-10.5-9.2-12.8-1.8c-3.9,13.3-8.3,25.9-6.8,39.9s4.7,27.9,7.9,41.7
				C45.3,259.1,57.9,255.6,56,247.5L56,247.5z"/>
		</g>
	</g>
	<g>
		<g>
			<path class="st0" d="M45.3,187.2c1.1,5.9,4.9,10.6,7.1,16.1c2.4,5.9,3.9,12.1,5.4,18.3c1.7,6.9,13.6,5.7,12.8-1.8
				c-1.8-16-6.2-31.2-11.1-46.4c-3.6,2.1-7.3,4.2-10.9,6.3c8.2,9.2,13.6,20.7,14.5,33.1c1,14-1.8,27.9-0.8,41.9
				c0.6,8.3,12.5,8.4,13,0c0.2-3.1,0.4-6.1,0.5-9.2c0.4-8.3-12.5-8.3-13,0c-0.2,3.1-0.4,6.1-0.5,9.2c4.3,0,8.7,0,13,0
				c-1.1-15.6,2.4-31.2,0.3-46.9c-1.8-14.1-8.2-26.8-17.7-37.3c-4.3-4.8-12.8,0.3-10.9,6.3c4.5,14,9,28.3,10.6,43
				c4.3-0.6,8.5-1.1,12.8-1.8c-1.5-6.1-3-12.4-5.4-18.3c-2.1-5.4-6.1-10.4-7.1-16.1C56.3,175.5,43.7,179,45.3,187.2L45.3,187.2z"/>
		</g>
	</g>
	<g>
		<g>
			<path class="st0" d="M65.7,215.7c-0.1,13.1-0.2,26.2-0.2,39.3c-0.1,11.2,0.2,23.4,9.2,31.5c6.2,5.5,15.4-3.6,9.2-9.2
				c-7.5-6.6-5.4-18.6-5.4-27.6c0.1-11.3,0.1-22.7,0.2-34C78.7,207.3,65.8,207.3,65.7,215.7L65.7,215.7z"/>
		</g>
	</g>
	<g>
		<g>
			<path class="st0" d="M43.1,236.3c-1.7,8.8-0.5,17.6,3.9,25.4c2.1,3.6,4.8,6.6,7.9,9.4c1.9,1.7,2.4,1.2,1.7,3.6
				c-0.7,2.5-1.7,4.9-2.8,7.2c4,1.1,8.1,2.2,12.1,3.2c0.4-16.6-5.9-33.4-9.9-49.3c-2.1-8.1-14.7-4.7-12.5,3.4
				c1.9,7.5,3.9,15,5.8,22.5c2,7.7,3.9,15.4,3.7,23.4c-0.2,6.1,9.3,9.2,12.1,3.2c2.1-4.5,4.7-9.6,4.9-14.6c0.3-5.1-2.2-8.8-5.9-12.1
				c-6.4-5.7-10.2-13.4-8.5-22.1C57.2,231.6,44.8,228.1,43.1,236.3L43.1,236.3z"/>
		</g>
	</g>
	<g>
		<g>
			<path class="st0" d="M25.9,181.4c-0.4-10.9-2-22.5-0.4-33.3c1.5-9.9,6.3-18.8,13.3-25.8c2-1.9-1.1-5-3.1-3.1
				c-7.2,7.2-12.4,16.3-14.2,26.3c-2.1,11.6-0.4,24,0.1,35.8C21.6,184.2,26,184.2,25.9,181.4L25.9,181.4z"/>
		</g>
	</g>
	<g>
		<g>
			<path class="st0" d="M26,165c-0.4-6-0.5-12.3,2.4-17.7c0.5-1.1,1.4-2.7,2.3-3.3c1.4-1.1,0.5-1.1,2,0.1c2.1,1.6,3.2,5.5,3.9,7.9
				c1.3-0.5,2.6-1.1,3.9-1.7c-3.4-6.6-5.4-13.5-5.8-20.9c-0.2-2.5-3.3-2.8-4.3-0.6c-2.1,5.3-4.2,10.5-6.3,15.8
				c-1.1,2.6,3.2,3.7,4.2,1.1c2.1-5.3,4.2-10.5,6.3-15.8c-1.4-0.2-2.8-0.4-4.3-0.6c0.4,8.2,2.5,15.8,6.3,23.1
				c1.1,2.2,4.6,0.7,3.9-1.7c-1.2-4.7-6.1-16.5-12.1-10.8c-6.8,6.5-7.5,16.2-6.8,25.1C21.9,167.7,26.3,167.8,26,165L26,165z"/>
		</g>
	</g>
	<g>
		<g>
			<path class="st0" d="M63.3,139.8c1.5,8.7,6,16.1,10.2,23.7c2.2,3.9,4.2,8,5.7,12.4c1.1,3.1,2,5.7,4.8,7.5
				c1.6,0.9,3.9-0.6,3.2-2.5c-6.5-18.4-13-36.9-19.4-55.3c-0.9-2.6-5.1-1.5-4.2,1.1c6.5,18.4,13,36.9,19.4,55.3
				c1.1-0.8,2.1-1.7,3.2-2.5c-2.8-1.7-3.3-6.6-4.6-9.4c-1.5-3.5-3.2-6.8-5.1-10.2c-3.8-6.8-7.7-13.6-9-21.4
				C67,136,62.9,137.1,63.3,139.8L63.3,139.8z"/>
		</g>
	</g>
	<g>
		<g>
			<path class="st0" d="M73.9,153.4c-2.4-5.9-4.7-11.8-7.2-17.6c-1.1-2.5-5.3-1.4-4.2,1.1c2.5,5.9,4.8,11.8,7.2,17.6
				C70.8,157.2,75,156,73.9,153.4L73.9,153.4z"/>
		</g>
	</g>
	<g>
		<g>
			<path class="st1" d="M53.4,116.9c6.9,7.6,9.9,17,7.1,27.2c-1.4,4.9-5.1,9.4-5.6,14.4c-0.5,4.9,1.1,11,2.8,15.5
				c2,5.5,4.7,10.7,6.3,16.4c1.7,5.8,2.7,11.8,3.8,17.7c2.3,12.7,4.4,25.4,6.2,38.2c0.8,5.5,9.1,3.2,8.3-2.3
				C80.5,231,78.4,218,76,205c-1.1-6.5-2.4-13-4.4-19.3c-1.8-5.8-5-11.1-6.6-17c-0.6-2.4-1.5-5.2-1.6-7.6c-0.2-3.1,1.8-5.5,3.1-8.2
				c2.1-4.7,3.4-9.6,3.8-14.7c0.7-10.4-3.9-19.7-10.7-27.3C55.7,106.6,49.6,112.8,53.4,116.9L53.4,116.9z"/>
		</g>
	</g>
	<g>
		<g>
			<path class="st1" d="M43.7,202.4c-1.8,14.4-0.2,29.2,4.9,42.8c4.9,13.3,16.1,27,12.6,41.9c-1.2,5.4,7.1,7.7,8.3,2.3
				c3.5-15.3-4.7-28.3-10.6-41.7c-6.4-14.2-8.3-29.9-6.5-45.4C53,196.9,44.3,196.9,43.7,202.4L43.7,202.4z"/>
		</g>
	</g>
	<g>
		<g>
			<path class="st1" d="M57.7,74.2c1.3,2.9,2.8,6.2,2.4,9.5c-0.5,3.5-3,5.9-4.7,8.8c-3.9,6.8-2.5,14.1,0.6,21
				c2.3,5.1,9.7,0.7,7.5-4.4c-1.8-4-2.7-8.1-0.6-12.2c1.6-3.1,3.9-5.4,4.9-8.8c2.1-6.3,0.1-12.5-2.6-18.3
				C62.9,64.7,55.4,69.1,57.7,74.2L57.7,74.2z"/>
		</g>
	</g>
	<g>
		<g>
			<path class="st2" d="M46.3,74.3c5.6,0,5.6-8.7,0-8.7C40.7,65.6,40.7,74.3,46.3,74.3L46.3,74.3z"/>
		</g>
	</g>
	<g>
		<g>
			<path class="st2" d="M45.1,65.7c-10.6,1.6-13.9,13.4-10.7,22.5c1.8,5.1,5.4,9.5,3.9,15.2c-1.3,5.3-5,9.9-7.5,14.6
				c-10.4,19.3-14.6,41.7-11.9,63.5c0.7,5.4,9.3,5.5,8.7,0c-2.4-19.8,0.9-40,10.1-57.7c4-7.7,10.5-15.4,9.8-24.7
				C47,92.3,35.2,75.8,47.6,74C52.9,73.2,50.6,64.9,45.1,65.7L45.1,65.7z"/>
		</g>
	</g>
	<g>
		<g>
			<path class="st2" d="M33.8,158.9c1.7,11.7,2.6,23.1,1.1,34.8c-1.4,11.6-3.9,23.1-2.2,34.8c1.5,10.4,5.8,20.2,10.9,29.4
				c2.6,4.7,5.7,9.2,8.2,14c3.1,5.6,2.4,11.2,1.3,17.3c-1,5.4,7.4,7.8,8.3,2.3c1-5.3,1.8-10.6,0.9-15.9c-1-5.4-4.2-10.1-7-14.7
				c-6-9.9-11.8-20.3-13.9-31.9c-2.2-12,0.8-24.2,2.2-36.2c1.5-12.3,0.2-24.2-1.6-36.3C41.4,151.1,33,153.5,33.8,158.9L33.8,158.9z"
				/>
		</g>
	</g>
	<g>
		<g>
			<path class="st2" d="M32.4,101.5c-0.2-7.6-0.2-15.4,0.1-23c0.2-5.1,1-16.8,9-15c5.4,1.1,7.8-7.2,2.3-8.3c-9.5-2-17,5-19,14
				c-2.3,10.4-1.2,21.9-1,32.5C23.8,107.1,32.5,107.1,32.4,101.5L32.4,101.5z"/>
		</g>
	</g>
	<g>
		<g>
			<path class="st1" d="M41,126.7c-3.4-0.4-5.9,3.2-5.8,6.3c0.1,3.5,3.1,5.8,6.4,5.4c2.1-0.3,1.2-3.4-0.9-3.2
				c-3.2,0.4-3-5.6,0.3-5.3C43,130.2,43,126.9,41,126.7L41,126.7z"/>
		</g>
	</g>
	<g>
		<g>
			<path class="st1" d="M53.7,127.3c-3.6,0-6.8,3-6.1,6.8s4.5,5.4,8,4.9c2.1-0.3,1.2-3.4-0.9-3.2c-1.6,0.3-3.4-0.4-3.9-2.1
				c-0.4-1.8,1.1-3.1,2.8-3.1C55.8,130.5,55.8,127.3,53.7,127.3L53.7,127.3z"/>
		</g>
	</g>
	<g>
		<g>
			<path class="st1" d="M52.5,81.1c1.1-1.1,2.8-1.2,3.9-0.2c1.1,0.9,2.6-0.6,1.5-1.5c-2.1-1.8-5-1.8-7,0.2
				C50,80.5,51.5,82.1,52.5,81.1L52.5,81.1z"/>
		</g>
	</g>
	<g>
		<g>
			<path class="st1" d="M44.3,79.4c-1.1,0-2.1-0.3-3.2,0.1c-1,0.4-1.8,1-2.3,1.8c-0.7,1.2,1.1,2.3,1.8,1.1c0.9-1.4,2.2-0.9,3.6-0.9
				C45.7,81.5,45.7,79.4,44.3,79.4L44.3,79.4z"/>
		</g>
	</g>
	<g>
		<g>
			<path class="st1" d="M39.4,80.8c-0.1,0-0.1,0.1-0.2,0c0.1,0-0.1-0.1,0,0c-1.1-1-2.5,0.6-1.5,1.5c0.6,0.6,1.5,0.8,2.4,0.5
				c0.5-0.2,0.9-0.8,0.8-1.3C40.6,81,40,80.6,39.4,80.8L39.4,80.8z"/>
		</g>
	</g>
	<g>
		<g>
			<path class="st1" d="M41.4,80.8c0-0.4,0-0.9-0.2-1.3c-0.2-0.5-0.8-0.9-1.3-0.8c-0.5,0.2-1,0.8-0.8,1.3c0.1,0.3,0.1,0.4,0.1,0.8
				c-0.1,0.6,0.5,1.1,1.1,1.1C41,81.9,41.4,81.5,41.4,80.8L41.4,80.8z"/>
		</g>
	</g>
	<g>
		<g>
			<path class="st1" d="M55.7,78.6c0-0.2,0-0.3,0-0.4c0-1.4-2.2-1.4-2.2,0c0,0.2,0,0.3,0,0.4C53.6,80.1,55.7,80.1,55.7,78.6
				L55.7,78.6z"/>
		</g>
	</g>
	<g>
		<g>
			<path class="st1" d="M57,80.8c0.4,0,0.9-0.1,1.3-0.4c1.1-0.7,0.1-2.6-1.1-1.8c-0.2,0.1,0,0.1-0.2,0.1c-0.6,0-1.1,0.5-1.1,1.1
				C55.8,80.3,56.4,80.8,57,80.8L57,80.8z"/>
		</g>
	</g>
	<g>
		<g>
			<path class="st1" d="M53.2,79.8c0,1.2,0.2,2.4,0.4,3.6c0.1,0.6,0.8,0.9,1.3,0.8c0.6-0.2,0.9-0.8,0.8-1.3c-0.2-1-0.3-2-0.3-3
				C55.4,78.4,53.2,78.4,53.2,79.8L53.2,79.8z"/>
		</g>
	</g>
	<g>
		<g>
			<path class="st1" d="M40.6,81.1c-0.1,1.1,0,2.3,0.3,3.4c0.3,1.4,2.4,0.8,2.1-0.6c-0.2-1-0.3-1.8-0.2-2.8
				C42.9,79.8,40.7,79.8,40.6,81.1L40.6,81.1z"/>
		</g>
	</g>
	<g>
		<g>
			<path class="st3" d="M42.2,109.4c1.8-8.5,0.3-16.7-4.2-24.1c-1.5-2.5-3.1-4.8-2.4-7.9c0.5-2.4,1.9-4.6,3.7-6.2
				c3.1-3,7.5-4.5,11.8-4.2c9.1,0.5,15.6,10.7,12.2,19.2c-1.7,4.1-4.9,7.5-6.2,11.8c-1.3,4-1.1,8.2-0.2,12.4
				c0.6,2.7,4.7,1.6,4.2-1.1c-0.7-3.3-0.9-6.8,0.2-10.1c1.1-3.2,3.2-5.6,4.7-8.5c2.1-3.8,3.1-7.8,2.4-12.1
				c-1.4-8.5-8.5-15.4-17.2-15.8c-8.3-0.4-17.1,4.7-19.5,13c-1.4,4.8,0.5,8.4,3,12.5c3.7,6.1,4.9,13.2,3.5,20.3
				C37.5,110.9,41.6,112.1,42.2,109.4L42.2,109.4z"/>
		</g>
	</g>
	<g>
		<g>
			<path class="st3" d="M37,110.8c-7.4,10.6-9.8,24.1-6.2,36.6c2.4,8.2,6,15.1,6.1,23.9c0.1,7.8-1.5,15.4-2.7,23.1
				c-2.2,14-2.1,27.6,2,41.1c3.9,13.2,10.8,25.2,19.5,35.9c1.8,2.2,4.8-0.9,3.1-3.1c-8.8-10.8-15.5-23.3-19.1-36.8
				c-3.7-13.8-2.7-26.9-0.4-40.7c1.1-6.4,2.2-13,2.1-19.5c-0.1-6.7-1.8-12.7-4.1-19c-5.1-13.5-4.7-27.1,3.7-39.2
				C42.3,110.7,38.6,108.5,37,110.8L37,110.8z"/>
		</g>
	</g>
	<g>
		<g>
			<path class="st3" d="M57.9,111.2c3.9,6.2,6.5,13.2,7.3,20.5c0.7,6.7-0.3,13.3-1.2,19.8c-0.8,5.9-1.5,11.8-0.6,17.6
				c1,6.5,4.2,12.2,6.5,18.3c9.7,25,9.9,52.3,7,78.5c-0.4,2.8,4,2.7,4.3,0c3-26.6,2.6-54.4-7.2-79.7c-2.5-6.6-6.1-12.8-6.7-20
				c-0.5-6.9,0.9-13.8,1.8-20.5c1.7-13.1-0.5-25.5-7.5-36.8C60.2,106.6,56.5,108.8,57.9,111.2L57.9,111.2z"/>
		</g>
	</g>
	<g>
		<g>
			<path class="st3" d="M55.7,268.5c-0.3,5.7-0.9,11.4-0.9,17c0,3.1,0.4,6.1,3.5,7.5c8.1,3.5,11.3-8.3,13.3-13.4
				c1.1-2.6-3.2-3.7-4.2-1.1c-0.9,2.2-1.7,4.5-2.6,6.6c-0.4,1.1-1.9,4-3.4,4c-2,0-2.4-3.2-2.3-4.4c0.3-5.4,0.6-10.8,0.9-16.2
				C60.3,265.7,55.9,265.7,55.7,268.5L55.7,268.5z"/>
		</g>
	</g>
	<g>
		<g>
			<path class="st3" d="M52.3,199.2c4.5,13.5,7,27.6,7.5,41.9c0.2,6.1,0.1,12.2,1.5,18.3c1.3,5.8,4.2,11.2,6.9,16.5
				c2.1,4,4.6,8.4,8.5,11c2.7,1.8,7,3.1,9.9,0.9c7.4-5.6-4.8-19.7-8.7-24c-1.8-2.1-4.9,1-3.1,3.1c3.1,3.4,5.7,7.1,7.8,11.2
				c1.1,2,2.9,5.8-0.3,6.5c-1.9,0.4-4.6-2.1-5.7-3.3c-2.8-3.1-4.7-7.1-6.5-10.7c-2.2-4.4-4.2-8.9-5.1-13.7
				c-1.8-9.7-0.9-19.8-2.1-29.6c-1.2-9.8-3.5-19.5-6.6-29C55.7,195.4,51.5,196.6,52.3,199.2L52.3,199.2z"/>
		</g>
	</g>
	<g>
		<g>
			<path class="st3" d="M51.2,199.2c-2.5,9.8-1.3,19.7,1.1,29.5c2.5,10.4,5.4,20.7,8.1,31.1c0.7,2.7,4.9,1.6,4.2-1.1
				c-2.5-9.3-5-18.5-7.3-27.8c-2.5-10-4.5-20.3-1.8-30.5C56.1,197.6,51.9,196.5,51.2,199.2L51.2,199.2z"/>
		</g>
	</g>
	<g>
		<g>
			<path class="st3" d="M34.2,109c-16.1,18.6-15.1,44.5-15.7,67.6c-0.1,3.2-1.4,9.2,2.8,10.7c3.2,1.1,5.9-1.5,6.8-4.4
				c3.7-11.3-0.4-23.7,4.4-35c1.1-2.5-3.1-3.7-4.2-1.1c-3.2,7.6-2.9,15.8-3.2,24c-0.1,2.4-0.2,4.8-0.5,7.2c-0.1,0.7-0.1,2.6-0.6,3.2
				c-0.9,1.1-1,0.8-1.4-0.2c-0.8-1.6,0.2-6,0.3-7.9c0.1-2.6,0.2-5.3,0.3-7.9c0.6-18.5,1.4-38.4,14.1-53.2
				C39.1,110,36,106.9,34.2,109L34.2,109z"/>
		</g>
	</g>
	<g>
		<g>
			<path class="st3" d="M59.3,112c12.8,22.7,21.4,47.4,25.4,73.2c0.7-0.9,1.4-1.8,2.1-2.7c-4,0.2-5.2-5-6.3-7.8
				c-1.1-2.6-2.2-5.4-3.2-8c-2.2-5.4-4.3-10.6-6.5-16c-1.1-2.5-5.3-1.4-4.2,1.1c3.2,8,6.5,16,9.7,23.9c2,5,4,11.3,10.5,11
				c1.5-0.1,2.3-1.3,2.1-2.7c-4-26.2-12.8-51.2-25.8-74.2C61.7,107.3,58,109.5,59.3,112L59.3,112z"/>
		</g>
	</g>
	<g>
		<g>
			<path class="st3" d="M39.3,52.5c-8.9,0.8-14,11.8-16.7,19.1c-3.9,10.7-4.1,22.3-4.2,33.5c0,1.2,1,2.1,2.2,2.2
				c5.3,0.1,10.4,0.2,15.7,0.1c2.8,0,2.8-4.4,0-4.3c-5.3,0.1-10.4,0-15.7-0.1c0.7,0.7,1.4,1.4,2.2,2.2c0.1-9,0.3-18.1,2.4-26.8
				c1-4,2.5-8,4.5-11.7c1.9-3.5,5.2-9.4,9.7-9.8C42.1,56.6,42.1,52.2,39.3,52.5L39.3,52.5z"/>
		</g>
	</g>
	<g>
		<g>
			<path class="st3" d="M40.2,56.9c10.9-1.9,26.7,1.8,30.6,13.6c1.8,5.7,1.9,12.3,2.5,18.2c0.7,6.2,1.4,12.5,2.1,18.7
				c0.5-0.7,1.1-1.4,1.6-2.1c-5.6,1.2-11.1,1.4-16.8,0.5c-2.7-0.4-3.9,3.8-1.1,4.2c6.4,1.1,12.7,0.9,19.1-0.5
				c0.9-0.2,1.7-1.2,1.6-2.1c-1-8.5-1.9-17-2.8-25.5c-0.7-6.2-1-12.9-4.7-18.2c-7.2-10-21.6-13.1-33.2-11
				C36.4,53.2,37.5,57.4,40.2,56.9L40.2,56.9z"/>
		</g>
	</g>
</g>
<g>
	<g>
		<g>
			<path class="st4" d="M131,103.4c-3.7,0.2-7.4,0.4-11.2,0.4c1.9,3.2,3.6,6.4,5.5,9.5c1.9-4.2,4.9-9.1,4.6-13.8
				c-0.4-4.2-3.7-7.2-7.3-8.9c-6.2-3.1-13.1,4.7-7.7,10l0.1,0.1c2.5,2.5,6.4,2.4,8.9,0c4.8-4.6,0.8-13.8-1.5-18.7
				c-0.6-1.4-1.1,0.2,0.4-1.7c0.7-1.1,1.8-1.9,2.4-3c0.7-1.2,1.2-2.6,1.6-4.1c0.2-0.9,0.4-1.9,0.6-2.7c0.2-0.8,0.3-0.8,0.2,0
				c-1.1,0-2.2,0-3.4,0c7.9,1.3,3.2,19,2,23.6c3.5-1,7.1-1.9,10.6-2.8c-3.7-3.1-5.5-6.6-5.1-11.5c-4,1.1-7.9,2.1-11.8,3.2
				c7.2,10.2,8.8,22.3,9.4,34.4c0.4,8.1,13.1,8.1,12.6,0c-0.8-14.2-2.7-28.9-11.2-40.8c-3.7-5.2-11.3-3.3-11.8,3.2
				c-0.6,7.8,2.7,15.5,8.8,20.4c3.4,2.8,9.4,2.2,10.6-2.8c1.9-8,3.6-16.5,1.9-24.7c-1.6-7.3-7.8-15.7-16.2-14.4
				c-3.7,0.6-6.4,3-8,6.3c-0.8,1.8-0.9,3.5-1.6,5.3c-0.5,1.3-1.3,2-2.2,3.2c-2.7,3.3-3.7,7.2-2.5,11.3c1.1,4.1,3.4,7.3,3.6,11.7
				c0.6-1.5,1.2-3,1.9-4.5c-0.1,0.1-0.2,0.2-0.4,0.3c3,0,6,0,8.9,0l-0.1-0.1c-2.6,3.4-5.1,6.6-7.7,10c0.5,0.3,1,0.4,1.5,0.8
				c0.7,0.4,0.6,0.4-0.1-0.3c0-1.1,0-2.2,0-3.4c-0.4,2.8-2,5.6-3.2,8.2c-1.8,4.1,0.2,9.7,5.5,9.5c3.7-0.2,7.4-0.4,11.2-0.4
				C139.1,115.7,139.2,103,131,103.4L131,103.4z"/>
		</g>
	</g>
	<g>
		<g>
			<path class="st4" d="M142.3,114.6c-0.1-2-0.1-4.2-0.1-6.2c0-1.2,0.9-5.2,0.3-6.2c0.4-1.7-0.7-1.1-3.4,1.5
				c0.4,0.7,0.8,1.4,1.2,2.1c1,1.7,2,3.2,3.7,4.3c1.8,1.2,3.7,1.7,5.8,1.2c0.8-0.3,1.5-0.6,2.3-1c1.8-1.2,1.7-1.3-0.3-0.3
				c3.2,2.1,7.1,3.8,10.4,5.6c1.1-4,2.1-7.9,3.2-11.8c-3,0-5.8-1.8-4.9-5.1c1-3.8,4.1-7,4.9-10.9c0.9-3.8,1.4-8.5,0.7-12.4
				c-0.9-4.9-4.5-7.9-7.9-11.3c-3-2.8-6.3-7.2-10.3-8.5c-4-1.1-8.3,0.4-11.9,2c-7.6,3.4-12.9,11-10.6,19.5
				c2.1,7.9,14.3,4.5,12.2-3.4c-0.7-2.5,2.2-4.1,4.1-4.9c0.9-0.4,1.7-0.6,2.6-0.9c-0.8-0.5-0.8-0.4,0,0.3c1.6,1,3,2.9,4.3,4.2
				c1.2,1.2,2.5,2.4,3.7,3.6c1.6,1.5,1.5,1.8,1.4,4c-0.2,3.2-0.7,5.9-2.3,8.7c-3.4,5.8-5.4,12.2-1.9,18.6c3.2,5.9,9.4,9.1,16,9.1
				c6.2,0,8.8-8.8,3.2-11.8c-4.2-2.2-8.4-5.1-12.9-6.6c-1.9-0.6-4-1-6.1-0.5c-0.9,0.2-1.7,0.4-2.5,0.8c-0.8,0.4-4.2,2.1-0.7,0.8
				c1.6,0.2,3.3,0.4,4.9,0.6c1,0.6,0.5,0.8,0-0.4c-0.4-0.7-0.8-1.5-1.2-2.1c-1.1-1.7-2.3-3.1-3.9-4.2c-3.5-2.5-8-2.9-11.7-0.4
				c-6.4,4.3-4.9,15.3-4.8,21.9C129.9,122.7,142.6,122.8,142.3,114.6L142.3,114.6z"/>
		</g>
	</g>
	<g>
		<g>
			<path class="st4" d="M155,95.5c-0.7-4.3-1.4-8.6-2.2-12.9c-0.6-3.7-2.2-8.3-1.9-12c-1.1,1.9-2.1,3.6-3.2,5.5
				c-2.6,1.1-1.9,0.5-0.3,2.3c0.9,0.9,1.6,1.9,2.2,3c1.5,2.6,1.1,2.9-0.9,5.2c-3.8,4.4-8.2,8.2-13.1,11.4
				c-6.8,4.4-0.4,15.4,6.4,10.9c4.9-3.2,9.6-6.9,13.6-11.1c3.8-4,8-8.7,7.8-14.6c-0.4-9.9-12-22.6-22.2-18.1c-2.1,1-2.9,3.4-3.2,5.5
				c-0.4,4.2,1.3,9.4,2,13.6c0.8,4.9,1.7,9.7,2.5,14.6C144.1,106.9,156.3,103.6,155,95.5L155,95.5z"/>
		</g>
	</g>
	<g>
		<g>
			<path class="st4" d="M136.2,90.4c1.4,4.4,5.2,6.4,8.9,8.7c1.7,1.1,3.4,2,5.1,3c0.4,0.3,1.4,0.6,1.9,1c-1-0.8,0.7,1,1.1,1.3
				c2.6,2.2,6.4,2.6,8.9,0c2.3-2.3,2.6-6.7,0-8.9c1.1,1-0.2-0.2-0.5-0.7c-0.5-0.7-1.1-1.1-1.8-1.7c-1.3-1-2.7-1.8-4.2-2.6
				s-2.7-1.6-4.1-2.4c-0.9-0.5-1.7-1.1-2.5-1.6c-0.4-0.2-0.7-0.4-1-0.6c-0.9-0.7-0.8-0.4,0.4,1.1C146.1,79.3,133.8,82.6,136.2,90.4
				L136.2,90.4z"/>
		</g>
	</g>
	<g>
		<g>
			<path class="st4" d="M146.1,120.3c0-1.1,0-2.2,0-3.3c0-0.4,0-2.7-0.2-2.1c-1,1.2-1.9,2.6-2.9,3.8c0.2-0.1,0.4-0.2,0.4-0.3
				c-1.6,0.2-3.3,0.4-4.9,0.6c0.2,0.1,0.4,0.2,0.6,0.2c-1-0.5-1.9-1.1-2.8-1.6c2.8,2.4,4.3,7,5.7,10.2c1.3,3.2,4.2,5.4,7.8,4.4
				c3.5-1,5.1-4.4,4.4-7.8c-0.6-2.9-1.1-5.9-1.8-8.8c-3.1,2.4-6.2,4.8-9.3,7.2c1.7,0.8,2.1,1.1,2.9,2.8c1.4,3.1,5.9,3.9,8.7,2.3
				c3.2-1.9,3.7-5.6,2.3-8.7c-1.5-3.2-4.2-5.9-7.5-7.3c-5.1-2.3-10.4,1.5-9.3,7.2c0.6,2.9,1.1,5.9,1.8,8.8c4.1-1.1,8.1-2.2,12.2-3.4
				c-2.2-5.4-4.5-11.9-9-15.9c-3.3-2.9-8.7-2.6-11,1.3c-1.7,2.8-1,7.1-1,10.2C133.5,128.4,146.1,128.4,146.1,120.3L146.1,120.3z"/>
		</g>
	</g>
	<g>
		<g>
			<path class="st4" d="M139.5,122.4c-5.5,6.2-8.5,13.2-9.3,21.4c4.2-0.5,8.3-1.1,12.5-1.7c-1.3-4.2-2.1-8.5-2.3-12.9
				c-0.1-2.3,0-4.7,0.3-7c0.1-1,0.3-1.9,0.5-2.9c0.3-1.1,1.9-4.8-0.4-1.9c-1.7,2-0.8,1.1,0.9,1.1c0.6,0,1.6-0.2,2.1,0.2
				c1.2,0.6,1.2,2.2,1.6,3.5c1,4.2,2.5,8.2,4.5,12.1c1.2,2.3,4.7,3.9,7.2,2.9c0.9-0.4,3.6,5,4,6c1.2,3.2,1.6,6.6,2,10.1
				c0.4,3.4,2.6,6.3,6.4,6.4c3.1,0,6.7-2.9,6.4-6.4c-0.8-6.8-1.7-13.9-5.5-19.8c-3.4-5.3-9.9-11-16.6-8.5c2.4,1,4.8,1.9,7.2,2.9
				c-2.9-5.5-2.8-12.7-7.1-17.4c-4.3-4.8-12.1-5.7-18-4c-7,1.9-7.4,11.4-7.9,17.3c-0.5,7.3,0.4,14.7,2.6,21.7
				c2.2,7.1,11.8,5.3,12.5-1.7c0.4-4.7,2.5-8.9,5.6-12.4C153.8,125.2,144.9,116.3,139.5,122.4L139.5,122.4z"/>
		</g>
	</g>
	<g>
		<g>
			<path class="st4" d="M183.8,189.2c-0.4-13.8-2.8-27.6-6.5-40.9c-1.8-6.4-4-12.7-6.6-18.8c-2.2-5.1-4.4-12.8-10.7-14
				c-7.9-1.6-11.4,10.6-3.4,12.2c-1.1-0.8-1.2-0.7-0.6,0.2c0.3,0.4,0.4,1,0.7,1.4c0.6,1.2,1.1,2.4,1.7,3.6c1.1,2.4,2,4.9,2.9,7.3
				c1.9,5.2,3.5,10.6,4.9,16c2.7,10.8,4.5,21.8,4.9,32.9C171.4,197.3,184.1,197.3,183.8,189.2L183.8,189.2z"/>
		</g>
	</g>
	<g>
		<g>
			<path class="st4" d="M135,188.5c2-6.9,2.8-14.5-2.6-20c-4.2-4.2-12.4-7.5-13.7-13.8c-1.4-6.7,6.9-12.7,10.9-16.7
				c4.2-4.2,7.9-10.8,13.7-12.9c7.6-2.7,4.3-15-3.4-12.2c-7.2,2.6-11.6,7.9-16.6,13.4c-5.8,6.4-13,11.7-16.1,20.1
				c-3,8.1-0.3,15.7,5.5,21.8c2.7,2.9,5.8,5.2,8.9,7.7c3.4,2.6,2.4,5.3,1.2,9.2C120.4,192.9,132.7,196.3,135,188.5L135,188.5z"/>
		</g>
	</g>
	<g>
		<g>
			<path class="st4" d="M121.8,141.7c-0.4-2.8,5.8-8.1,7.8-10.2c2.6-2.9,5.6-7.3,9.3-8.9c3.2-1.3,3.8-6,2.3-8.7
				c-1.9-3.3-5.6-3.6-8.7-2.3c-5.7,2.4-10.1,8.7-14,13.2c-4.1,4.6-10.2,10.1-9.4,16.9c0.4,3.4,2.6,6.3,6.4,6.4
				C118.6,148.1,122.2,145.1,121.8,141.7L121.8,141.7z"/>
		</g>
	</g>
	<g>
		<g>
			<path class="st4" d="M131.4,149.3c-0.3,6.4,0.7,12.6,3.1,18.5c2.6,6.8,11.7,5.6,12.5-1.7c1.1-10.4,3.3-20.7,6.1-30.8
				c-4.1,0-8.1,0-12.2,0c2.1,8,3.4,16.2,3.7,24.5c0.3,8.4,0.1,16.8,2.3,25c1.8,6.7,13.2,5.7,12.5-1.7c-2-21.5-2.4-43.1-1.1-64.6
				c0.4-8.1-12.2-8.1-12.6,0c-1.2,21.5-0.9,43.2,1.1,64.6c4.2-0.5,8.3-1.1,12.5-1.7c-2.2-8.1-1.5-16.5-2-24.8s-1.9-16.6-4-24.6
				c-1.6-6.1-10.5-6-12.2,0c-3.2,11.2-5.3,22.6-6.6,34.2c4.2-0.5,8.3-1.1,12.5-1.7c-1.9-5-2.8-9.8-2.6-15.2
				C144.5,141.2,131.7,141.2,131.4,149.3L131.4,149.3z"/>
		</g>
	</g>
	<g>
		<g>
			<path class="st4" d="M149.8,205c-0.6,1.3-0.5,1.8,0.4,1.2c0.7-0.3,1.3-0.4,2-0.6c1.6-0.4,3.2-0.8,4.9-1.2c3.9-1,5.9-5.8,3.8-9.3
				c-4.8-7.7-9.5-15.4-12.1-24.1c-2.1-7-12-5.4-12.5,1.7c-0.7,11.6-1.3,23.2-2,34.8c4-1.1,7.9-2.1,11.8-3.2
				c-1.3-2.4-0.6-24.5,1-24.5c8.1-0.2,8.2-12.9,0-12.6c-9.7,0.3-13.2,8.5-13.7,17c-0.4,8.5-2.5,18.9,1.8,26.7
				c3.2,5.8,11.5,2.7,11.8-3.2c0.7-11.6,1.3-23.2,2-34.8c-4.2,0.5-8.3,1.1-12.5,1.7c2.9,9.8,8,18.5,13.4,27.1
				c1.2-3.1,2.6-6.2,3.8-9.3c-7.8,2-19.4,5.5-16.1,16.2C140,216.2,152.2,212.8,149.8,205L149.8,205z"/>
		</g>
	</g>
	<g>
		<g>
			<path class="st4" d="M147.5,156.7c0.4,12.4,3.1,23.9,6.8,35.7c3.8,12.2,6.2,24.9,8.9,37.4c1.8,7.9,14,4.6,12.2-3.4
				c-2.6-12-4.9-24.2-8.4-35.9c-3.4-11.2-6.4-22-6.8-33.8C159.9,148.5,147.3,148.5,147.5,156.7L147.5,156.7z"/>
		</g>
	</g>
	<g>
		<g>
			<path class="st4" d="M157.3,202.4c3.7,17.2,7.3,34.4,11,51.7c2.6,12,4.9,37.3,23.6,31.9c2.9-0.9,4.3-3.3,4.7-6.1
				c0.4-3.6-0.9-6.9-3.1-9.6c-2.1-2.7-5.2-4.2-7.4-6.7c-1.9-2.1-2.4-4.8-3.1-7.4c-1-3.8-1.9-7.6-3-11.4c-1.9-7-4.1-14-6.4-20.8
				c-2.3-6.9-4.6-14-8.5-20.3c-4.3-6.9-15.3-0.5-10.9,6.4c3.5,5.6,5.5,11.8,7.5,18c2.2,6.6,4.2,13.3,6.2,20c1.7,6,2.6,12.6,5.2,18.4
				c1.2,2.7,2.9,5,5.1,7c1.9,1.7,6.1,3.6,5.7,6.4c1.6-2,3.1-4.1,4.7-6.1c-4.2,1.2-5.2-10.2-5.7-12.7c-1.5-6.9-2.9-13.8-4.4-20.7
				c-2.9-13.8-5.9-27.6-8.8-41.3C167.8,191.1,155.5,194.4,157.3,202.4L157.3,202.4z"/>
		</g>
	</g>
	<g>
		<g>
			<path class="st4" d="M159.2,204.8c6.2,17.7,9.9,35.9,10.7,54.7c0.4,8.1,13,8.1,12.6,0c-0.9-19.8-4.6-39.3-11.1-58
				C168.7,193.7,156.6,197,159.2,204.8L159.2,204.8z"/>
		</g>
	</g>
	<g>
		<g>
			<path class="st4" d="M168.1,261.7c-4.9,2.3-9.7,4.8-14.4,7.4c3.1,2.4,6.2,4.8,9.3,7.2c-1.4,1.6-1.7,2.1-0.8,1.4
				c0.3-0.2,0.4-0.4,0.7-0.4c0.6-0.4,1.2-0.8,1.9-1.1c1.2-0.8,2.5-1.5,3.6-2.3c2.8-1.9,5-4.1,7.1-6.9c2-2.7,0.4-7.1-2.3-8.7
				c-3.2-1.9-6.6-0.5-8.7,2.3c-3.5,4.9-12.6,5.7-13.8,12.4c-0.9,5.2,4.2,10.2,9.3,7.2c4.7-2.7,9.5-5.2,14.4-7.4
				c3.1-1.4,3.9-5.9,2.3-8.7C174.9,260.8,171.3,260.3,168.1,261.7L168.1,261.7z"/>
		</g>
	</g>
	<g>
		<g>
			<path class="st4" d="M175.9,259.8c-4.4-9.5-11.1-17.5-16.5-26.4c-2.6-4.4-4.7-8.9-5.8-13.9c-1.2-5.2-2.3-10.3-5.1-15
				c-4.2-7-15.1-0.6-10.9,6.4c2.6,4.5,3.1,9.8,4.5,14.7c1.4,4.9,3.8,9.7,6.4,14.1c5.3,8.9,12.1,17,16.5,26.4
				C168.4,273.6,179.3,267.1,175.9,259.8L175.9,259.8z"/>
		</g>
	</g>
	<g>
		<g>
			<path class="st4" d="M169.5,266.9c0.5-5.2-1.9-9.9-4-14.5c-2.5-5.4-5.1-10.7-7.9-15.9c-4.8-8.7-10.5-17.6-10.6-27.8
				c-0.1-8.1-12.8-8.2-12.6,0c0.2,10.5,4.5,19.9,9.4,29c2.6,4.7,5.2,9.4,7.6,14.2c2.2,4.3,6,10,5.6,15
				C156.1,275.1,168.8,275,169.5,266.9L169.5,266.9z"/>
		</g>
	</g>
	<g>
		<g>
			<path class="st5" d="M124.9,60.4c-0.5,0.1-1,0.2-1.5,0.2c-1.8,0.3-3.1,2.4-3.1,4.1c0,1.1,0,2.1,0,3.2c0,1.4-0.8,3.9,0.7,2.3
				c1.7-1.8-0.4-0.5-1.3-0.3c-1.1,0.4-2.4,0.5-3.5,0.9c-3.2,1-4.9,2.8-5.1,6.3c-0.3,4.1-0.6,9.1,0.4,13.1c0.4,1.5,1.1,2.8,2.2,3.9
				c0.7,0.7,3.5,1.9,3.8,3c0.2-1.1,0.3-2.2,0.4-3.3c1-1.5-2.2,0.9-2.9,1.2c-1.6,0.9-3.2,1.7-4.8,2.6c-2.6,1.4-2.5,4.6-0.9,6.6
				c1,1.2,2,2.4,3.3,3.4c0.4,0.4,0.9,0.7,1.4,1.1c1.1,1.3,1.9,0.9,2.4-1.3c-5.3,1.1-3.1,9.4,2.2,8.1c3.6-0.8,5.7-4.4,4.9-8
				c-1-4.1-5.7-6.2-8.2-9.3c-0.3,2.2-0.5,4.4-0.9,6.6c4.4-2.3,14.1-5.2,10.5-12.1c-1.1-2.2-4.2-2.8-5.3-4.8
				c-0.6-1.1-0.1-4.4-0.1-5.7c0-1.6-0.4-4.1,0.1-5.5c-0.6,0.9-1.3,1.7-1.9,2.6c2.7-1.9,7-1,9.4-3.6c2.6-2.8,1.6-7.6,1.6-10.9
				c-1.1,1.3-2,2.7-3.1,4.1c0.5-0.1,1-0.2,1.5-0.2C132.5,67.8,130.2,59.7,124.9,60.4L124.9,60.4z"/>
		</g>
	</g>
	<g>
		<g>
			<path class="st5" d="M131.1,68.7c-9.8,1.3-17.3,10.9-15.2,20.8c1.2,5.7,5,10.5,7.3,15.8c0.6,1.4,1.3,3,1.8,4.5
				c0.6,2.5-0.2,3.6-1.7,5.5c-1.9,2.4-3.8,4.7-5.7,7.1c-6.9,8.8-13.2,19.6-10.8,31.3c1.1,5.6,4.9,9.5,7.6,14.3
				c3.3,5.7,4.8,12.1,4.8,18.7c0,5.5,8.4,5.5,8.5,0c0.1-11.1-4-20-9.9-29.1c-6.9-10.6,0-21.8,6.8-30.5c2.9-3.6,7.2-7.5,8.7-12
				c1.6-4.9-0.7-9.7-2.6-14.1c-2-4.7-6.7-10.1-6.6-15.3c0.1-5.1,4.9-8.2,9.4-8.8C138.7,76.1,136.4,68,131.1,68.7L131.1,68.7z"/>
		</g>
	</g>
	<g>
		<g>
			<path class="st5" d="M128.5,133.2c-0.8,6.1-0.9,11.6,0.9,17.4c1.9,6.3,3.4,12.5,4.2,19c0.7,6.2,1.3,12.4-0.3,18.5
				c-1.7,6.4-1.3,11.7,0.3,18c1.3,5.3,9.4,3,8.1-2.2c-0.8-3.2-1.6-6.4-1.2-9.5c0.4-2.8,1.5-5.5,1.9-8.3c0.8-5.4,0.2-10.9-0.4-16.2
				c-0.6-5.7-1.5-11.2-3-16.7c-1.7-6.1-3.2-11-2.3-17.5C137.4,130.1,129.3,127.8,128.5,133.2L128.5,133.2z"/>
		</g>
	</g>
	<g>
		<g>
			<path class="st5" d="M132.4,206.4c-0.6,10.2,6.1,21.2,10.7,29.8c2.5,4.8,5,9.4,7.4,14.2c2.2,4.6,6,10.7,6.3,15.9
				c0.4-1,0.8-2,1.2-3c0.1-0.1-2.7,1.2-3.6,1.9c-1.7,1.1-3,2.7-4.1,4.4c-2,3.4-2.5,7.2-1.6,11.1c1.2,5.3,9.4,3.1,8.1-2.2
				c-1.8-7.3,7.9-6.3,8.4-12.3c0.3-3.2-1.5-6.6-2.6-9.4c-1.2-3.2-2.6-6.3-4.1-9.4c-3.1-6.4-6.6-12.6-9.8-19
				c-3.3-6.4-8.2-14.7-7.8-22.2C141.1,201,132.6,201,132.4,206.4L132.4,206.4z"/>
		</g>
	</g>
	<g>
		<g>
			<path class="st5" d="M161,204.9c-0.4-0.4-0.7-0.8-1.1-1.1c-2,2-4,4-6,6c14,13,16,32.2,17.3,50.2c0.4,5.4,8.8,5.5,8.5,0
				c-1.5-20.2-4-41.8-19.8-56.3c-4.1-3.7-9.6,1.9-6,6c0.4,0.4,0.7,0.8,1.1,1.1C158.7,215,164.6,209,161,204.9L161,204.9z"/>
		</g>
	</g>
	<g>
		<g>
			<path class="st5" d="M157,136.9c8.2,17,9.4,36.1,10.5,54.7c0.4,5.4,8.7,5.5,8.5,0c-1.1-20.1-2.7-40.4-11.7-58.9
				C161.9,127.7,154.7,132,157,136.9L157,136.9z"/>
		</g>
	</g>
	<g>
		<g>
			<path class="st6" d="M157,72.2c-0.4,2.2-0.6,4.3-0.1,6.6c0.5,2.1,2.1,3.7,2.6,5.7c0.5,1.9-0.7,3.5-1,5.4
				c-0.4,1.9-0.1,3.8,0.8,5.6c0.7,1.4,1.9,2.5,3.1,3.4c2.2,1.9,1.6,3.4,1.3,6.4c-0.2,1.9-0.7,4,0.1,5.8c0.3,0.7,0.5,1.3,1.1,1.9
				c1.9,2.1,1,0,0.5,0.8c-3,4.6,4.3,8.8,7.3,4.2c3.2-4.9,1.9-8.7-2.6-11.7c0.6,0.9,1.3,1.7,1.9,2.6c-0.5-1.3,0.3-3.8,0.4-5.2
				c0.2-1.9,0.4-3.9-0.1-5.8c-0.9-2.6-3.2-3.5-4.7-5.6c-1.1-1.6-0.2-2.4,0.4-4.3c0.3-1.1,0.4-2.4,0.4-3.5c-0.4-3.6-3.8-6.1-3.1-9.8
				C166.1,69.2,158,66.9,157,72.2L157,72.2z"/>
		</g>
	</g>
	<g>
		<g>
			<path class="st6" d="M149.4,98.2c-2.3,7-4.9,13.6,1.3,19.3c2.6,2.4,5.7,4.3,8.3,6.8c2.9,2.8,5.3,6.1,7.3,9.6
				c8.9,15.5,8.9,33.9,8.9,51.3c0,5.5,8.5,5.5,8.5,0c0-16.7-0.2-33.8-7-49.4c-2.9-6.7-7-13-12.3-18c-2.5-2.4-6-4.2-8.2-6.7
				c-2.5-2.9,0.3-7.4,1.3-10.7C159.2,95.3,151.1,93.1,149.4,98.2L149.4,98.2z"/>
		</g>
	</g>
	<g>
		<g>
			<path class="st6" d="M153.4,137.8c-3.6,16.8,1.9,32.6,8.5,48c3.5,8.2,7,16.4,9.4,25.1c2.4,8.4,4.3,17,6.4,25.4
				c1.3,5.3,9.4,3,8.1-2.2c-3.9-15.8-7.7-31.3-14-46.4c-6.4-15-13.8-30.8-10.2-47.4C162.7,134.7,154.5,132.4,153.4,137.8
				L153.4,137.8z"/>
		</g>
	</g>
	<g>
		<g>
			<path class="st6" d="M177.3,236.3c1.8,8.8,3.5,17.7,5.3,26.5c0.7,3.7,1.3,7.5,3.3,10.9c1.6,2.7,4.9,5.4,4.9,8.7
				c0.2,5.4,8.7,5.5,8.5,0c-0.1-3.6-1.5-6.4-3.5-9.4c-2.6-3.5-3.8-6.5-4.6-10.9c-1.9-9.4-3.8-18.8-5.7-28.2
				C184.4,228.7,176.3,231,177.3,236.3L177.3,236.3z"/>
		</g>
	</g>
	<g>
		<g>
			<path class="st6" d="M135.2,136.7c-4.1,0-4.4,5.1-3.5,8c1.1,4,4.9,5.6,8.7,5.4c2-0.1,2-3.3,0-3.2c-1.9,0.1-4-0.2-5.1-1.9
				c-0.4-0.6-1.8-5.2-0.1-5.2C137.2,139.9,137.2,136.7,135.2,136.7L135.2,136.7z"/>
		</g>
	</g>
	<g>
		<g>
			<path class="st6" d="M148.4,135.7c-4.2-0.8-7.2,2.4-7.6,6.4c-0.5,5,2.9,7.9,7.4,9.1c1.9,0.5,2.8-2.6,0.9-3.1
				c-2.4-0.6-5-1.7-5.2-4.5c-0.1-2.2,1-5.4,3.7-4.9C149.6,139.1,150.4,136.1,148.4,135.7L148.4,135.7z"/>
		</g>
	</g>
	<g>
		<g>
			<path class="st6" d="M142.1,86.2c0.6-1.1,3.6-0.6,4.3,0.1c1.5,1.3,3.8-0.9,2.2-2.2c-2.3-2-7.6-2.5-9.4,0.5
				C138.4,86.3,141.1,87.9,142.1,86.2L142.1,86.2z"/>
		</g>
	</g>
	<g>
		<g>
			<path class="st6" d="M142.3,84.8c0,1.2,0,2.5,0,3.7c0,2,3.2,2,3.2,0c0-1.2,0-2.5,0-3.7C145.4,82.8,142.3,82.8,142.3,84.8
				L142.3,84.8z"/>
		</g>
	</g>
	<g>
		<g>
			<path class="st6" d="M147.2,83.3c0-0.4,0-0.8,0-1.1c0-0.8-0.7-1.6-1.6-1.6c-0.9,0-1.6,0.7-1.6,1.6c0,0.4,0,0.8,0,1.1
				c0,0.8,0.7,1.6,1.6,1.6C146.4,84.8,147.2,84.1,147.2,83.3L147.2,83.3z"/>
		</g>
	</g>
	<g>
		<g>
			<path class="st6" d="M148.2,86c0.7-0.5,1.3-1.1,1.9-1.8c0.5-0.6,0.7-1.6,0-2.2c-0.5-0.5-1.7-0.7-2.2,0c-0.2,0.3-0.4,0.5-0.6,0.7
				c-0.1,0.1-0.2,0.2-0.4,0.4c0,0-0.4,0.4-0.2,0.2c-0.6,0.5-1.1,1.4-0.5,2.2C146.4,86.1,147.5,86.5,148.2,86L148.2,86z"/>
		</g>
	</g>
	<g>
		<g>
			<path class="st6" d="M132.4,83.3c-2.9-0.6-6-1-8.3,1.3c0.6-0.1,1.2-0.2,1.9-0.3c-1-0.6-1.9-1.4-2.6-2.3c-1.4-1.5-3.6,0.7-2.2,2.2
				c1,1.1,2,1.9,3.3,2.7c0.6,0.4,1.4,0.3,1.9-0.3c1.4-1.4,3.5-0.9,5.2-0.5C133.5,86.8,134.4,83.8,132.4,83.3L132.4,83.3z"/>
		</g>
	</g>
	<g>
		<g>
			<path class="st6" d="M126.8,83.9c0-0.4,0-0.6,0-1c0-0.8-0.7-1.6-1.6-1.6s-1.6,0.7-1.6,1.6c0,0.4,0,0.6,0,1c0,0.8,0.7,1.6,1.6,1.6
				S126.8,84.8,126.8,83.9L126.8,83.9z"/>
		</g>
	</g>
	<g>
		<g>
			<path class="st6" d="M126.4,85.3c0,1.6,0,3.2,0,4.8c0.1,2,3.3,2,3.2,0c-0.1-1.6-0.1-3.2,0-4.8C129.5,83.3,126.4,83.3,126.4,85.3
				L126.4,85.3z"/>
		</g>
	</g>
	<g>
		<g>
			<path class="st7" d="M130.8,68.5c-8.2,0.8-14.8,7.3-14.8,15.8c0,4.4,1.8,8.7,4.5,12.2c3.4,4.2,11.2,8.4,9,14.7
				c-0.9,2.6,3.2,3.7,4.1,1.1c2.6-7.6-4.1-12.1-8.6-17c-3.4-3.6-5.7-8.8-4.5-13.9c1.2-4.8,5.5-8.3,10.3-8.7
				C133.4,72.5,133.4,68.2,130.8,68.5L130.8,68.5z"/>
		</g>
	</g>
	<g>
		<g>
			<path class="st7" d="M133.3,72.8c5.4-0.4,11.4-0.9,16.2,2.2c4.7,3.1,7,8.7,6.4,14.2c-0.8,8.3-10.8,16-5.4,24.5
				c1.4,2.3,5.1,0.2,3.6-2.1c-3.4-5.5,3.4-12.1,5-17.4c1.4-4.7,1.4-9.8-0.5-14.3c-4.5-10.7-15.1-12-25.4-11.3
				C130.6,68.8,130.6,73,133.3,72.8L133.3,72.8z"/>
		</g>
	</g>
	<g>
		<g>
			<path class="st7" d="M129.1,111.2c-9.3,7.1-17.3,16-22.3,26.6c-2.1,4.5-3.7,9.6-2.8,14.7c1,6,5.3,10,9.4,14.2
				c2.2,2.3,4.6,4.6,6.7,7.1c1.1,1.3,2.7,3,3.2,4.9c0.6,2.6-1.1,4.4-2.1,6.6c-1.3,2.9-0.9,7.2,2.7,8.1c4.2,1.1,7.8-4.3,9.8-7.2
				c3.1-4.3,4.5-9.3,2.6-14.3c-2-5.4-6.6-8.9-11-12.2c-4.4-3.3-7.8-7.2-4.2-12.5c2.3-3.4,4.9-6.7,7.4-10c1.7-2.1-1.3-5.1-3-3
				c-3.4,4.5-9.3,10-10.4,15.6c-1.1,5.1,2.6,9.4,6.4,12.3c4.9,3.9,12.5,8.7,11.3,16.2c-0.4,1.9-1.3,3.6-2.4,5.2
				c-0.4,0.5-3,4.7-3.8,4.6c-3-0.1,0.9-5.6,1.1-7.2c0.5-5.5-4.4-9.9-7.9-13.5c-4.9-5.1-12-10.4-11.7-18.1c0.2-6.7,4.2-13.2,7.9-18.5
				c4.2-6.1,9.4-11.4,15.4-15.8C133.3,113.1,131.3,109.5,129.1,111.2L129.1,111.2z"/>
		</g>
	</g>
	<g>
		<g>
			<path class="st7" d="M152.3,113.5c21.6,13.7,26.2,39.9,26.8,63.6c0.1,3,0.4,6.1,0.2,9.1c-0.1,1.4-0.1,4.6-2.4,1.7
				c-0.6-0.8-1-3.5-1.1-4.6c-1.2-5.9-1.2-11.9-2.3-17.8c-1.9-11.1-6.6-21.5-13.4-30.5c-1.6-2.1-5.3,0-3.6,2.1
				c4.7,6.2,8.4,12.9,10.8,20.2c2.4,7.3,2.7,14.8,3.8,22.4c0.5,4,1.1,13.6,6.8,14c4.6,0.4,5.7-4.9,5.7-8.5
				c0.2-27.6-3.6-59.3-29.1-75.5C152.1,108.3,150,112,152.3,113.5L152.3,113.5z"/>
		</g>
	</g>
	<g>
		<g>
			<path class="st7" d="M127,134.8c-0.9,5.7,0.9,10.7,2.7,16.1c1.1,2.9,1.9,5.9,2.2,9c0.3,2.9,0.3,5.7,1.3,8.5c1,2.5,5,1.4,4.1-1.1
				c-1.8-4.7-1.1-10-2.6-14.7c-1.7-5.4-4.6-10.8-3.6-16.6C131.5,133.3,127.4,132.2,127,134.8L127,134.8z"/>
		</g>
	</g>
	<g>
		<g>
			<path class="st7" d="M129.7,190.1c-1.8,28.4,19.2,50.6,27.7,76.1c0.4-0.8,0.6-1.6,1-2.4c-4.9,3.2-13.6,6.7-10.7,14.2
				c3.1,7.9,15.4,1.2,20.6-0.4c2.6-0.8,1.5-4.9-1.1-4.1c-2.2,0.7-14,5.8-15.5,2.9c-2.1-4.1,6.6-7.5,8.9-9c0.7-0.5,1.2-1.5,1-2.4
				c-8.5-25.1-29.3-47.2-27.6-75C134,187.5,129.9,187.5,129.7,190.1L129.7,190.1z"/>
		</g>
	</g>
	<g>
		<g>
			<path class="st7" d="M156.7,137.4c0.4,8.4,0.8,16.8,2,25.1c1.3,8.5,4.1,16.5,6.9,24.6c6,17,10.2,34.5,14.2,52.1
				c1.9,8.4,3.2,17.3,5.9,25.4c1.1,3.1,2.7,5.2,5.1,7.5c2.9,2.7,8.7,11,0.7,11.1c-4.2,0.1-8.7-2.3-11.6-5.3c-4.1-4.2-4.2-9-4.5-14.5
				c-0.4-7.9-1.5-15.8-3.4-23.5c-2.2-8.7-5.4-17.2-9.4-25.2c-2.9-5.7-6.9-14.3-14.7-12.6c-1,0.2-1.4,1.1-1.6,2
				c-1.1,10,4.1,18.7,8.9,27c5.8,9.8,10.9,19.9,15.4,30.4c1.1,2.5,4.7,0.4,3.6-2.1c-4.1-9.5-8.7-18.7-13.8-27.6
				c-4.9-8.5-11.1-17.2-10-27.6c-0.5,0.7-1.1,1.3-1.6,2c4.8-1.1,7.9,6.7,9.5,10c2.3,4.4,4.3,9,6,13.8c3.1,8.6,5.2,17.5,6.2,26.5
				c0.8,7.5-0.5,16,4.4,22.3c4.2,5.4,11.5,9.4,18.5,8.5c6.5-1,7.7-6,5.3-11.6c-1.4-3.3-3.7-5.2-6.2-7.7c-3.7-3.7-4.2-9.6-5.3-14.6
				c-4.2-18.2-7.9-36.5-13.2-54.3c-2.9-9.7-7.1-19.2-9.5-29.1c-2.7-10.7-3.2-21.8-3.7-32.8C160.9,134.7,156.6,134.7,156.7,137.4
				L156.7,137.4z"/>
		</g>
	</g>
	<g>
		<g>
			<path class="st7" d="M119.2,65.1c-2.7-0.9-5.9-0.7-8.1,1.4c-2.4,2.3-2.1,4.9-1.6,7.7c0.4,2.4-0.3,2.6-1.6,4.5
				c-0.8,1.1-1.2,2.3-1.3,3.7c-0.2,3.4,1.9,6,3.9,8.5c0.3,0.4,1.7,1.7,1.7,2.1c-0.1,0.4-1.2,0.9-1.5,1.2c-0.8,0.8-1.5,1.5-1.8,2.6
				c-0.3,1.2,0.1,2.5,0.7,3.5c0.8,1.2,2.4,1.5,3.2,2.5c1.3,1.8-3.4,3-3.8,5.5c-0.1,0.9,0.3,1.9,0.9,2.6c0.3,0.4,3.6,2,2.9,2.3
				c-1.3,0.5-2.2,2.4-1,3.5c1.3,1.1,2.5,1.8,4.1,2.2c2.6,0.8,3.7-3.3,1.1-4.1c-0.7-0.4-1.4-0.8-2.1-1.1c-0.4,1.1-0.6,2.4-1,3.5
				c1.9-0.7,3.5-1.9,3.7-4c0.3-2.6-1.5-3-2.8-4.6c-1.1-0.4-1.3-0.4-0.6-0.3c0.8-0.6,1.6-1.2,2.4-1.8c0.6-0.5,1.3-1,1.7-1.9
				c0.8-1.9-0.4-3.6-1.9-4.7c-1.4-1.1-3.4-1.2-2.1-3.5c0.4-0.8,1.5-1.2,1.9-2.2c0.8-2.2-0.6-3.9-1.9-5.5c-1.9-2.4-4.7-4.7-2.6-8.3
				c0.6-1.1,1.9-1.7,2.4-2.8c1.2-2.9-2.6-10.8,3.9-8.7C120.7,70.1,121.9,66,119.2,65.1L119.2,65.1z"/>
		</g>
	</g>
	<g>
		<g>
			<path class="st7" d="M120.6,64.2c0.1-1,0.5-1.8,1.2-2.5c0.3-0.3,0.5-0.4,0.9-0.6c0.6-0.3,0.7-0.3,0.1-0.2c-0.4-0.4-0.9-0.6-1.2-1
				c-0.3-0.6,0.3,1.1,0.5,1.5c0.4,0.7,1.1,1.2,2,1.6c2.6,1,4.5-0.8,7-0.6c-0.5-0.2-1-0.4-1.5-0.6c0.4,0.3,0.4,1.7,0.9,2.2
				c0.7,0.8,1.4,1.1,2.5,1.1c2.7,0,2.7-4.2,0-4.2c-0.2,0-0.4,0-0.5,0c0.5,0.2,1,0.4,1.5,0.6c-0.4-0.4-0.4-1.6-0.9-2.2
				c-0.6-0.8-1.5-1.1-2.5-1.1c-1.1,0-3.7,1.5-4.6,1.1c-0.3-0.2-0.5-1.4-1-1.9c-1.4-1.4-3.8-0.4-5.1,0.5c-2.1,1.5-3.2,3.6-3.4,6.2
				C116.2,66.9,120.4,66.9,120.6,64.2L120.6,64.2z"/>
		</g>
	</g>
	<g>
		<g>
			<path class="st7" d="M134.2,64.6c4.1-2.2,8.5-3.4,13.1-3.5c1.9,0,4.3-0.1,6.1,0.5c2,0.8,1.2,1.1,1.1,2.8
				c-0.1,1.9,0.7,3.3,2.5,4.1c1.5,0.7,1.8,0.1,2.6,2c0.4,0.9,0,2,0.5,3c1.1,2.1,2.6,1.4,4.2,2.2c1.2-0.4,1.7,0.1,1.5,1.6
				c-0.3,1.1-0.4,2.2-0.6,3.3c-0.4,2.2-0.8,4.3-1.1,6.5c-0.4,2-0.9,4.2,0.7,5.9c0.7,0.8,1.9,0.9,2.6,1.5c1.6,0.1,1.8,0.7,0.7,1.9
				c-0.7,0.8-1.3,1.7-2,2.5c-0.6,0.8-1,2.2,0,3c0.4,1.1,0.8,2,1.2,3.1c-0.3,1.1,0.4,2.4,1.5,2.6c2.6,0.5,0.7,7.9,0.3,9
				c-1,2.6,3.1,3.6,4.1,1.1c1.7-4.2,2.6-12.9-3.2-14.2c0.5,0.9,1,1.8,1.5,2.6c0.8-2.8,0-5.3-2.3-7.2c0,1,0,2,0,3
				c1.7-2,5.1-4.9,4.2-7.9c-0.4-1.3-1.6-2.1-2.8-2.7c-0.5-0.3-2.1-0.7-2.3-1c-0.5-0.9,0.4-3.6,0.5-4.5c0.6-3.3,3.2-9.4,1.5-12.5
				c-0.6-1.1-1.7-1.6-3-1.9c-2.2-0.4-2.6,0.6-3.2-1.9c-0.3-1.2-0.3-2.3-1.2-3.3c-0.8-0.8-3.2-0.9-3.6-1.5c-0.4-0.6,0.4-2.4,0.3-3.4
				c-0.2-1.2-0.7-2.1-1.8-2.8c-3.1-2.1-8.8-1.9-12.4-1.6c-4.6,0.4-8.9,1.8-13,4C129.6,62.3,131.7,65.9,134.2,64.6L134.2,64.6z"/>
		</g>
	</g>
	<g>
		<g>
			<path class="st7" d="M120.5,99.1c-0.8,1.3-1.1,2.6-0.9,4.2c0.3,1.7,1.3,2.1,2,3.4c0-0.7,0-1.4,0-2.1c-1,2-3.3,3.2-2.2,5.7
				c0.4,0.7,0.9,1.1,1.5,1.8c0.2,0.2,0.4,0.4,0.6,0.5c-0.1-0.1-0.3-0.1-0.4-0.2c-0.1,0.4-0.6,1.1-0.8,1.7c-0.9,2.6,3.2,3.7,4.1,1.1
				c0.4-1.4,1.7-2.2,1.1-3.9c-0.4-1.1-1.9-1.7-2.1-2.6c-0.4-0.3-0.3-0.4,0.5-0.2c0.4-0.4,0.7-0.8,1.1-1.2c0.3-0.4,0.5-1.1,0.5-1.6
				c0-1.9-2.6-2.6-1.5-4.4C125.6,99,121.9,96.9,120.5,99.1L120.5,99.1z"/>
		</g>
	</g>
	<g>
		<g>
			<path class="st7" d="M159.8,97.2c-1.5,1.6-3.4,3.9-3.1,6.3c0.3,2.6,3.3,3.4,3.7,5.7c0.2,1.1,0.3,2.1,0.5,3.3
				c0.2,1-0.1,1.4-0.1,2.3c0,1.8,1.1,2.7,2.8,2.8c2.7,0.2,2.7-4.1,0-4.2c-0.2,0-0.4,0-0.4,0c0.6,0.4,1.2,0.7,1.9,1.1
				c0.4,0.5,0.1,1,0.4-0.1c0.1-0.4,0.1-1,0.1-1.4c-0.1-1.4-0.5-3.1-0.8-4.6c-0.2-1.1-0.4-1.9-1.1-2.7c-0.4-0.5-0.9-0.9-1.3-1.3
				c-1.1-1.5-0.9-2.6,0.5-4.1C164.7,98.2,161.7,95.2,159.8,97.2L159.8,97.2z"/>
		</g>
	</g>
</g>
</svg>
