<?xml version="1.0" encoding="utf-8"?>
<!-- Generator: Adobe Illustrator 23.0.3, SVG Export Plug-In . SVG Version: 6.00 Build 0)  -->
<svg version="1.1" id="Calque_1" xmlns="http://www.w3.org/2000/svg" xmlns:xlink="http://www.w3.org/1999/xlink" x="0px" y="0px"
	 viewBox="0 0 259 308.1" style="enable-background:new 0 0 259 308.1;" xml:space="preserve">
<style type="text/css">
	.st0{fill:#F4A776;}
	.st1{fill:#FBD8C5;}
	.st2{fill:#C5774F;}
	.st3{fill:#936645;}
	.st4{fill:#9B6137;}
</style>
<g>
	<g>
		<g>
			<path class="st0" d="M158,54.9c-2.5,0-5.1,0-7.6,0c-1,0-1.9,0-2.9,0c-2.3-0.2-1.5,0.6,2.5,2.5c-0.6,0.5,0-3.4,0.2-3.7
				c2.3-3.9,10.7-5.6,14.7-3.8c2,0.9,3.1,3.2,3.7,5.3c0.4,1.5,0.5,2.5,0.5,4.1c0,1.1,0,2.3-0.1,3.4c0.9-0.8,1.1-1.4,0.6-1.9
				c0.4,0.7-7.1,0.7-7.9,0.5c-0.4-0.1-3.1-1.5-3.2-1.5c-0.1-0.2-0.3-0.3-0.4-0.5c-0.2,0.6,0,1.1,0.3,1.5c-0.9,1.5-1.7,2.9-2.6,4.4
				c0.3-0.3,0.6-0.6,0.9-0.8c-1.5,0.9-2.9,1.7-4.4,2.6c-1.7,0.6,3.2-0.6,2.8-0.3c-0.7,0.5-1.7-3.1-0.4,0.7
				c2.5,7.3,14.4,10.9,18.3,2.4c1-2.1,1.9-4.2,2.3-6.5c0.9-5.3-1.4-10.8-7-12.3c-4.8-1.3-11.4,1.6-12.3,7c-0.2,0.6-0.3,1.1-0.2,1.7
				c6.1,0.8,12.2,1.6,18.3,2.4c-3.1-9.1-8.9-15.2-19-15.4c-9-0.2-16.9,4.5-16.6,14.5c0.6,19.1,26.9,24.5,40.8,17.1
				c15.8-8.4,11.6-33.2-0.5-43.1c-12.5-10.3-34.7-6.7-44.2,6.2c-5.2,7.1-6.7,17-2.4,24.9c5.4,10.1,16.1,8.6,25.9,8.5
				C170.9,74.8,170.9,54.8,158,54.9L158,54.9z"/>
		</g>
	</g>
	<g>
		<g>
			<path class="st0" d="M164,71c-18.7-6.9-33.3,9.5-39.9,24.9c-7.7,18-13.4,36.4-10.1,56.1c1.8,11.2,20,8.5,19.6-2.7
				c-0.3-9.1-0.6-18.1-0.2-27.2c0.3-6.7,0.6-14.5,4.2-20.3c3.6-5.7,11-8.1,17.2-9.8c8.2-2.3,16.6-3.2,25.2-2.9
				c14.5,0.4,27.3,4.8,35,17.7c8.1,13.5,7.1,29.7,2.1,44.2c4.9-2,9.8-4,14.7-6c-14.3-9.3-32.1-8.2-48.4-10c-8.7-0.9-17.4-2.4-26-4.3
				c-6.6-1.4-15.3-2.3-20.3-7.3c-2.4,5.7-4.7,11.4-7.1,17.1c32.1-1.6,64.1,0.3,96.1,2.3c11.2,0.7,13.7-17.3,2.7-19.6
				c-14.3-3-28.6-6-42.8-9c-12.6-2.6-26.6-4.1-38.3-9.6c-1.7,6.2-3.4,12.4-5,18.6c27-3.4,54.6-3.7,81.7,0c4.5,0.6,8.8-0.4,11.3-4.6
				c2.3-3.9,1.5-8.8-1.6-12.1c-9.5-10.3-20.6-20.5-35.4-21.4c-8.3-0.5-16.5,2.2-24.6,3.6c-3.6,0.6-7.1,1-10.7,1.4
				c-1.9,0.2-3.8,0.3-5.8,0.4c-1.3,0.1-2.6,0.1-3.8,0.2c-2.4-0.2-2.6,0-0.5,0.6c1.2,1.2,2.4,2.4,3.6,3.6c-0.2-0.3-0.4-0.6-0.7-1
				c0.5,1.7,0.9,3.4,1.4,5c0,0.3-0.1,0.6-0.1,0.9c-0.9,1.5-1.7,2.9-2.6,4.4c-0.7,0.7-1.4,1-2.3,1c5.4-0.5,10-4.2,10-10
				c0-5-4.6-10.5-10-10c-4.8,0.4-9.6,1.8-12.6,5.9c-3.5,4.8-3.1,11.5,1.2,15.8c4.1,4.1,10.2,3.9,15.5,3.6c5.7-0.3,11.4-0.9,17-1.7
				c5.1-0.7,10.1-1.6,15.1-2.6c4.2-0.9,8.2-1.7,12.4-0.5c7.7,2.2,13.6,9.3,18.8,14.9c3.2-5.6,6.5-11.1,9.7-16.7
				c-29-3.9-58-4.4-87-0.7c-4.4,0.6-8.4,2.7-9.6,7.3c-1.1,4,0.6,9.4,4.6,11.3c13,6.1,27.2,8.3,41.1,11.2c14.9,3.1,29.8,6.3,44.8,9.4
				c0.9-6.5,1.8-13.1,2.7-19.6c-32-2-64.1-3.9-96.1-2.3c-8.5,0.4-13.4,10.7-7.1,17.1c5.9,5.9,13.6,8.8,21.5,10.7
				c9.4,2.3,18.9,4.1,28.5,5.4c9.3,1.3,18.6,2,28,2.7c7.3,0.6,14.4,1.8,20.7,5.8c5.7,3.7,12.7-0.2,14.7-6
				c10-28.8,3.3-65.8-26.1-80.6c-15.2-7.6-33.7-7.8-50.1-5.3c-15.1,2.3-32.9,8.2-40.5,22.7c-8.8,16.6-6.6,38.2-6,56.3
				c6.5-0.9,13.1-1.8,19.6-2.7c-2.1-13,2.4-26.4,7.2-38.3c2.8-7.1,8.3-21.8,18.3-18.1c5.1,1.9,11-2.1,12.3-7
				C172.5,77.7,169.1,72.9,164,71L164,71z"/>
		</g>
	</g>
	<g>
		<g>
			<path class="st0" d="M125.1,141.1c0.1,10.8,2.8,21.3,8,30.8c2.7,4.9,6.2,9.4,10,13.4c0.5,0.5,1.3,1,1.6,1.6
				c-0.8-1.3-0.2,0.9-0.2,1.8c0,3.3,0,6.5,0,9.8c0,12.4,0.1,24.8,0,37.2c-0.1,10.6-2.2,20.7-9.1,29.1c-3.4,4.2-4.1,10.1,0,14.1
				c3.5,3.5,10.7,4.2,14.1,0c8.3-10.1,13.3-21.6,14.6-34.7c1.3-13.1,0.4-26.7,0.4-39.9c0-6.3,0.4-12.6-0.1-18.9
				c-0.5-7.4-4.8-11.3-9.4-16.6c-6.6-7.7-9.9-17.7-10-27.7C145,128.2,125,128.2,125.1,141.1L125.1,141.1z"/>
		</g>
	</g>
	<g>
		<g>
			<path class="st0" d="M139.8,150c-1.4,9.5-0.3,17.7,3.7,26.4c1.6,3.5,6.4,5.3,10,4.8c4.2-0.6,6.8-3.3,8.3-7.2
				c-0.5,0.7-1,1.4-1.5,2c-1.7,0.5-3.4,0.9-5,1.4c0.4,0,0.9,0,1.3,0c-1.7-0.5-3.4-0.9-5-1.4c0.4,0.2,0.7,0.4,1.1,0.6
				c-1.2-1.2-2.4-2.4-3.6-3.6c-1-1.9,0.2,2.8,0.2,2.9c0.2,1.5,0.5,3,0.7,4.5c0.6,4.5,2.7,8.4,7.3,9.6c4.2,1.1,9.2-0.7,11.3-4.6
				c1.3-2.4,7.4-3.4,8.7-2.7c0.8,0.4,4.2,4.2,5.8,5.6c2.8,2.5,5.5,5.1,8.3,7.6c6,5.5,13.9,2.5,16.7-4.4c2.7-6.5,4-14,0.3-20.4
				c-1.6-2.9-4-5-6.7-6.8c-1.8-1.2-3.9-1.9-5.3-3.5c-0.7,5.2-1.3,10.5-2,15.7c3.3-1.8,6.5-3.6,9.8-5.3c9.1-5,4.5-18.2-5-18.6
				c-16.7-0.8-33.5-0.8-50.2,0.1c0,6.7,0,13.3,0,20c5.9-0.8,11.7-0.8,17.6,0c5.4,0.7,10-5.1,10-10c0-6-4.6-9.3-10-10
				c-5.9-0.7-11.7-0.7-17.6,0c-5.4,0.7-10,4.1-10,10c0,5.2,4.6,10.3,10,10c16.7-0.8,33.5-0.8,50.2-0.1c-1.7-6.2-3.4-12.4-5-18.6
				c-3.3,1.8-6.5,3.6-9.8,5.3c-5.9,3.2-6.2,11.1-2,15.7c1.4,1.6,3.1,2.9,4.9,4c0.6,0.4,3.3,2.4,3.9,2.3c0.6,0.2,0.7,0.3,0.5,0.4
				c-0.7-2-1-2.5-0.7-1.4c-0.3,0.1-1.8,5.5-2,6.1c5.6-1.5,11.1-2.9,16.7-4.4c-8.2-7.5-16.6-18.8-28.6-19.1
				c-9.9-0.2-20.7,3.4-25.6,12.6c6.2,1.7,12.4,3.4,18.6,5c-0.9-7.2-0.7-17.2-7.7-21.4c-8.8-5.2-16.5,1.7-19.6,9.6
				c6.1-0.8,12.2-1.6,18.3-2.4c-1.5-3.3-2.2-7.3-1.7-11c0.8-5.3-1.3-10.7-7-12.3C147.3,141.7,140.6,144.6,139.8,150L139.8,150z"/>
		</g>
	</g>
	<g>
		<g>
			<path class="st0" d="M190.7,183.7c0,11.1-0.1,22.1-0.1,33.2c0,9.8-1.2,20.6,1.3,30.2c2.5,9.5,9.4,14.2,16.4,20.2
				c1.6,1.3-0.3,1.5,0.5,0.3c0.3-0.5,1.4-2.1,1.6-2.6c0.4-1.3,0.7,1.5-0.4-0.4c-0.9-1.6-2-4.9-2.6-7.2c-3-12.5-22.3-7.2-19.3,5.3
				c2.9,12.1,11.5,23.7,25.3,21.9c15.6-2.1,19.1-19.4,9.8-30.4c-3.3-3.9-9.3-6-11.5-10.7c-2.1-4.3-1.2-10.4-1.1-14.9
				c0-15,0.1-29.9,0.1-44.9C210.7,170.9,190.7,170.9,190.7,183.7L190.7,183.7z"/>
		</g>
	</g>
	<g>
		<g>
			<path class="st0" d="M171.9,185.7c3.7-1.8,8.5,0.8,11.4,3.5c4.9,4.6,6.4,12,7.3,18.4c2.4,16.8,3,34.1,4.4,51
				c6.2-1.7,12.4-3.4,18.6-5c-1.5-2-2.5-3.5-2.6-6c-0.3-12.9-19.5-12.9-20,0c-0.2,5.3-0.1,10.7,0.3,16c0.4,5.4,4.3,10,10,10
				c5.1,0,10.4-4.6,10-10c-0.9-11.4-1.1-22.8-0.8-34.2c0.4-12.9-19.6-12.9-20,0c-0.4,11.4-0.1,22.8,0.8,34.2c6.7,0,13.3,0,20,0
				c-0.4-5.3-0.5-10.7-0.3-16c-6.7,0-13.3,0-20,0c0.1,5.8,1.7,11.5,5.3,16.1c2.8,3.6,6.6,5.9,11.3,4.6c4-1.1,7.7-5.3,7.3-9.6
				c-1-11.5-1.9-23-2.9-34.4c-0.9-10.5-1.2-21.5-4.5-31.6c-6.3-19.1-25.9-33.9-45.9-24.2c-4.9,2.4-6.2,9.3-3.6,13.7
				C161.2,187.1,167.1,188.1,171.9,185.7L171.9,185.7z"/>
		</g>
	</g>
	<g>
		<g>
			<path class="st1" d="M131.2,43.8c-1.8,6.9-3.3,14.3-0.1,21c3.1,6.5,9.4,9.3,15.9,11.7c6.1,2.2,8.7-7.5,2.7-9.6
				c-3.9-1.4-8.4-2.9-9.9-7.2c-1.5-4.2,0-9,1.1-13.1C142.5,40.3,132.8,37.6,131.2,43.8L131.2,43.8z"/>
		</g>
	</g>
	<g>
		<g>
			<path class="st1" d="M143.2,77.6c-10.6-1.4-20.2,5.6-25.3,14.5c-5.7,10.1-7.4,22.4-10,33.5c-1.5,6.3,8.2,8.9,9.6,2.7
				c3.1-13.2,5.9-43.4,25.6-40.7C149.5,88.5,149.5,78.5,143.2,77.6L143.2,77.6z"/>
		</g>
	</g>
	<g>
		<g>
			<path class="st1" d="M128,119.8c-4.3,10.5-5,21.2-0.9,31.9c4,10.6,11.1,19.4,18.2,28.1c4.1,5,11.1-2.1,7.1-7.1
				c-6-7.3-12.2-14.8-15.7-23.7c-3.5-9.2-2.7-17.6,0.9-26.6C140,116.5,130.3,113.9,128,119.8L128,119.8z"/>
		</g>
	</g>
	<g>
		<g>
			<path class="st1" d="M138.1,204.4c1,13.1,2.9,26.4,2.9,39.5c0,6.4-2.3,9.6-6.2,14.4c-3.5,4.3-5.7,9.4-3.9,14.9
				c2,6.1,11.7,3.5,9.6-2.7c-1.6-4.8,5.8-9.7,7.8-13.6c2.3-4.5,2.8-9.7,2.6-14.6c-0.4-12.6-1.9-25.3-2.9-37.9
				C147.6,198,137.6,198,138.1,204.4L138.1,204.4z"/>
		</g>
	</g>
	<g>
		<g>
			<path class="st2" d="M179.4,57.1c-1.7,3.9-1.9,8.5-3.9,12.2c-1.5,2.9-0.2,6.4,3,7.3c15.8,4.9,30.1,11.8,39.8,25.7
				c9.2,13.1,13.6,29.6,11.1,45.5c-1,6.3,8.6,9,9.6,2.7c3-18.6-1.3-37.7-12.1-53.2c-11.3-16.2-27.4-24.6-45.8-30.3
				c1,2.4,2,4.9,3,7.3c2-3.9,2.2-8.2,3.9-12.2C190.6,56.3,182,51.2,179.4,57.1L179.4,57.1z"/>
		</g>
	</g>
	<g>
		<g>
			<path class="st2" d="M199.9,100.1c10.7,25.7,20.3,59.7-1.1,82.9c-4.4,4.7,2.7,11.8,7.1,7.1c24.1-26.1,16-63.1,3.7-92.6
				C207.1,91.6,197.4,94.1,199.9,100.1L199.9,100.1z"/>
		</g>
	</g>
	<g>
		<g>
			<path class="st2" d="M200.2,230.1c-0.5,8.4-0.8,17,2.3,25c1.3,3.4,3.1,6.4,5.4,9.2c1.2,1.5,2.5,2.9,3.8,4.3
				c0.4,0.4,4.4,5.4,3.8,5.5c-6.4,0.5-6.4,10.5,0,10c4.5-0.4,8.4-2.9,9.6-7.6c1.3-5.3-1.7-10.1-5.1-13.8c-3.9-4.2-7.4-7.9-8.9-13.6
				c-1.7-6.2-1.2-12.7-0.8-19C210.5,223.6,200.5,223.7,200.2,230.1L200.2,230.1z"/>
		</g>
	</g>
	<g>
		<g>
			<path class="st2" d="M163.1,43.6c-0.1,1.8-0.1,3.5,0.1,5.3c0.1,1,0.8,1.9,1.9,1.9c0.9,0,2-0.9,1.9-1.9c-0.1-1.8-0.2-3.5-0.1-5.3
				C166.9,41.2,163.2,41.2,163.1,43.6L163.1,43.6z"/>
		</g>
	</g>
	<g>
		<g>
			<path class="st2" d="M148.3,44.1c0.2,1.9,0.4,3.8,0.6,5.8c0.1,1,0.8,1.9,1.9,1.9c0.9,0,2-0.9,1.9-1.9c-0.2-1.9-0.4-3.8-0.6-5.8
				c-0.1-1-0.8-1.9-1.9-1.9C149.2,42.2,148.2,43.1,148.3,44.1L148.3,44.1z"/>
		</g>
	</g>
	<g>
		<g>
			<path class="st3" d="M136.3,72.3c-10,3.4-18.5,8.7-22.9,18.7c-5.6,12.7-5.9,26.8-8,40.3c-0.5,3.4-0.6,6.6-0.3,9.9
				c0.5,5.5,0.6,12.1,4,16.8c2.6,3.5,7.1,5.7,11.4,4c4.5-1.8,6.2-6.7,7.3-11.1c0.8-3.1-4.1-4.5-4.8-1.3c-0.5,2.1-1,4.5-2.5,6.1
				c-2.8,3.1-6.2,1.4-8-1.9c-2.2-3.9-2.1-9.4-2.4-13.8c-0.4-5.4,0.8-10.6,1.5-16c1.3-10.6,2.2-21.5,6.6-31.3
				c3.8-8.5,11.1-12.8,19.6-15.7C140.6,76.1,139.3,71.2,136.3,72.3L136.3,72.3z"/>
		</g>
	</g>
	<g>
		<g>
			<path class="st3" d="M136.8,92.3c-10.6,15.1-17.2,33.7-14.6,52.3c2.2,15.9,11,30.6,25,38.8c2.8,1.6,5.3-2.7,2.5-4.3
				c-13.3-7.8-21.5-22.2-22.8-37.4c-1.5-16.8,4.8-33.2,14.3-46.7C143,92.2,138.7,89.7,136.8,92.3L136.8,92.3z"/>
		</g>
	</g>
	<g>
		<g>
			<path class="st3" d="M200.8,95.3c16.6,9.2,16.7,30,13.6,46.3c-2.7,14.6-6,31.2-18.3,40.9c-2.5,2,1,5.5,3.5,3.5
				c14.2-11.3,18.1-31.9,20.5-48.9c2.4-17.1-0.3-37.1-16.9-46.2C200.5,89.4,198,93.8,200.8,95.3L200.8,95.3z"/>
		</g>
	</g>
	<g>
		<g>
			<path class="st3" d="M186.6,73.4c11.2-0.5,20.6,4.8,28.3,12.6c7.5,7.6,11.7,15.3,15.1,25.3c2.5,7.3,5.2,14.8,4.9,22.7
				c-0.2,4.6-1.2,9.2-2.3,13.7c-0.6,2.4-1.1,4.9-2,7.3c-1.2,3.3-5.1,8.8-8.9,4.9c-2.2-2.3-5.8,1.2-3.5,3.5c3.3,3.4,8.5,3.5,12.3,0.6
				c4.7-3.6,5.9-10.4,7.2-15.8c2.6-10.7,2.8-20.4-0.5-31c-3.8-12.5-8-23.6-17.2-33.1c-9-9.4-20-16.3-33.4-15.7
				C183.3,68.5,183.3,73.5,186.6,73.4L186.6,73.4z"/>
		</g>
	</g>
	<g>
		<g>
			<path class="st3" d="M131.8,170c2.8,18.2,5,36.5,6.7,54.9c0.4,4.2,0.7,8.5,1.1,12.7c0.3,4.2,2.2,10.9-0.7,14.5
				c-1.9,2.3-4.6,3.8-6.3,6.4c-1.8,2.6-2.9,5.6-3.4,8.7c-0.8,4.9,0,11,4.6,13.8c5.6,3.4,12.2-0.7,17-3.6c5.2-3.1,10.4-6.6,14.1-11.5
				c4.1-5.4,4.9-11.6,5-18.2c0.2-8.9,0-17.9-0.5-26.8c-0.3-6.2-4.3-24.1,4.4-25.8c7.7-1.5,7.2,15.7,7.6,20.4
				c0.8,8.9,1.4,17.8,1.9,26.7c0.3,7.1,0,14.7,2.4,21.5c2,5.9,6.1,10.5,11.2,14c4.9,3.4,11.4,7,17.5,5.2c5.3-1.5,8.9-6.7,9.5-12
				c0.9-7.6-3.4-13.7-7.4-19.6c-5.8-8.5-5.8-17.7-5-27.7c1.6-20.1,3.8-40.2,6.4-60.2c0.4-3.2-4.6-3.1-5,0
				c-2.1,16.1-3.9,32.3-5.4,48.5c-1.3,14.3-3.9,29.3,4.7,41.9c4,5.8,10,13.7,5.3,20.9c-5.4,8.2-16.7,0.5-21.7-4.3
				c-5.8-5.6-6.7-13.1-7-20.8c-0.4-7.9-0.7-15.7-1.3-23.6c-0.6-7.7-1.1-15.5-2.2-23.1c-0.6-4.2-1.7-9-5.3-11.6
				c-4-2.9-9.2-1.7-12.5,1.7c-4.3,4.4-4,10.7-3.7,16.4c0.5,8,1,15.9,1.1,23.9c0.1,7.6,1.3,16.8-1.1,24.1
				c-2.1,6.5-8.1,10.9-13.6,14.4c-2.7,1.7-5.9,4-9,4.8c-6.8,1.7-8.1-5-6.8-10.1c1.1-4.3,3.7-7.2,7-10.1c2.3-2,3.8-3.9,4-7.1
				c0.6-8.6-1.2-18-1.9-26.5c-1.7-18.2-3.9-36.2-6.7-54.3C136.1,165.5,131.3,166.9,131.8,170L131.8,170z"/>
		</g>
	</g>
	<g>
		<g>
			<path class="st3" d="M148.6,67.9c-10.5,0.7-19.1-8.5-18.3-18.9c0.9-11.6,10.9-19.9,21.9-21.4c11-1.6,25,2.2,29.4,13.4
				c3.1,8,4.3,22.5-4.8,27.2c-2.8,1.5-0.3,5.8,2.5,4.3c11.7-6.1,11-23.8,6.5-34.3c-5.7-13.2-22.3-17.7-35.5-15.5
				c-13.2,2.3-24.7,13-25.1,26.9c-0.4,12.7,10.5,24.1,23.4,23.2C151.8,72.7,151.9,67.7,148.6,67.9L148.6,67.9z"/>
		</g>
	</g>
</g>
<g>
	<g>
		<g>
			<path class="st0" d="M61.9,102.2c-1.9-3.3-3.7-6.7-5.2-10.2c-0.7-1.4-1.3-2.8-1.9-4.3c-0.3-0.9-0.8-1.9-1.1-2.9
				c-0.4-2.1-0.9-1.6-1.2,1.5c-1.3,0.8-2.5,1.4-3.7,2.2c0.5-0.3,3.4-0.6,3.7-1c0.2,0,0.3,0,0.5-0.1c-0.7-0.6-1.3-1.2-2-1.8
				c0,0,0.6,2.5,0.6,2.6c0.2,0.5,0.2,0.9,0,1.4c0.5-0.9,0.3-0.9-0.3,0.2c-4.8,5.1-4.3,12.5-1.6,18.4c1.9,4.2,8,5.2,11.6,3.1
				c4.3-2.6,4.9-7.4,3.1-11.6c0.4,0.9,0,1,0.4,0.3c1.1-2,2.6-3.5,3.3-5.9c1.1-3.7,0.7-8.1-0.3-11.8c-2.3-8.9-9.8-12.8-18.5-11.5
				c-9,1.4-14.9,7.9-12.3,17.3c2.1,7.8,6.3,15.6,10.3,22.6C52.6,120.3,67.3,111.7,61.9,102.2L61.9,102.2z"/>
		</g>
	</g>
	<g>
		<g>
			<path class="st0" d="M46.1,113.3c-4.2,10.7-5.1,22.4-4.3,33.8c0.4,4.8,0.9,10,3.5,14.3c3.2,5.1,9.4,8,15.4,6.3
				c11.7-3.2,15-16.2,13.6-26.9c-1.5-11.2-5.5-22.4-9.9-32.8c-1.7-4.3-5.7-7.2-10.5-6c-4,1.1-7.7,6.2-6,10.5
				c3,7.2,5.5,14.6,7.6,22.1c0.9,3.2,1.9,6.6,2,10c0.1,1.4,0.2,2.8-0.3,4.3c0.1-0.2-1.4,3.1-1.4,2.7c0-0.9,3,0.4,3.1,0.3
				c0.4-0.3,0-0.9-0.2-1.9c-0.4-2.5-0.6-6.6-0.6-9.8c-0.1-7.7,1.1-15.1,3.9-22.4c1.7-4.3-1.9-9.4-6-10.5
				C51.8,106.1,47.8,109,46.1,113.3L46.1,113.3z"/>
		</g>
	</g>
	<g>
		<g>
			<path class="st0" d="M41.3,161.7c0.9,8.1,2.4,15.9,4.9,23.6c1.5,4.7,7.8,8.6,12.5,5.1c11.2-8.5,16.5-21.7,12.6-35.5
				c-5.2,2.2-10.4,4.3-15.6,6.5c0.1,0.2,0.1,0.3,0.2,0.4c0-2.9,0-5.7,0-8.6c-0.1,0.1-0.2,0.3-0.3,0.3c-6,9.3,8.8,17.8,14.7,8.6
				c2-3.1,1.4-6.2,0.1-9.4c-1.6-3.8-7.1-5-10.6-3.5c-3.8,1.7-6.1,5.9-4.9,10c1.6,5.9,0.3,12.5-4.8,16.3c4.2,1.7,8.3,3.4,12.5,5.1
				c-2-6.2-3.6-12.6-4.3-19.1c-0.5-4.6-3.6-8.5-8.5-8.5C45.5,153.1,40.7,157.1,41.3,161.7L41.3,161.7z"/>
		</g>
	</g>
	<g>
		<g>
			<path class="st0" d="M49.5,187.2c-0.5,5.6,0,11.1,1,16.7c1.9,9.6,16.6,7.1,16.7-2.3c0.1-6.3,0.2-12.6,0.3-18.9
				c-5.5,0.8-11.1,1.5-16.7,2.3c1.1,3.1,2.1,6,3.2,9.1c3.1,8.6,17.1,7.8,16.7-2.3c-0.1-3.3-0.6-6.6-1.4-9.9
				c-2.5-9.3-16.7-7.4-16.7,2.3c0,15,2.5,29.8,7.5,44c2.7-3.6,5.4-7.1,8.2-10.8c-4.8,0.5-9.5,0.9-14.4,1c-0.4,0-3-0.2-3.2,0.1
				c1-1.4,4.4,8.9,4.3,2.2c0-2.3,0.1-4.6,0.4-6.9c1.1-9.2,3.5-18.1,3.3-27.5c-5.5,0.8-11.1,1.5-16.7,2.3c3.1,8.8,5.3,17.9,6.1,27.1
				c0.4,4.6,3.7,8.5,8.5,8.5c4.3,0,8.9-3.9,8.5-8.5c-0.9-10.8-3.1-21.4-6.7-31.6c-3.1-8.7-16.9-7.8-16.7,2.3
				c0.3,12.3-4.5,24.3-3.7,36.6c0.5,6.9,4.4,12,11.6,12.5c6,0.4,12.5-0.5,18.5-1.1c5.1-0.5,10.2-5.1,8.2-10.8
				c-4.5-12.8-6.8-25.9-6.9-39.4c-5.5,0.8-11.1,1.5-16.7,2.3c0.5,1.9,0.8,3.5,0.9,5.4c5.5-0.8,11.1-1.5,16.7-2.3
				c-1.1-3.1-2.1-6-3.2-9.1c-3.1-8.8-16.6-7.7-16.7,2.3c-0.1,6.3-0.2,12.6-0.3,18.9c5.5-0.8,11.1-1.5,16.7-2.3
				c-0.8-4.1-0.8-8.1-0.4-12.2c0.4-4.6-4.2-8.5-8.5-8.5C53.1,178.7,49.9,182.7,49.5,187.2L49.5,187.2z"/>
		</g>
	</g>
	<g>
		<g>
			<path class="st0" d="M81,226.3c0.6-6.7-0.2-13.7-2.5-20.1c-2.1-5.9-5.5-11.1-6.8-17.3c-0.9-4.5-6.3-7.1-10.5-6
				c-4.7,1.3-6.9,6-6,10.5c1.2,5.8,4.2,10.8,6.4,16.2c2.2,5.4,2.7,10.9,2.3,16.7c-0.4,4.6,4.2,8.5,8.5,8.5
				C77.5,234.9,80.7,230.9,81,226.3L81,226.3z"/>
		</g>
	</g>
	<g>
		<g>
			<path class="st0" d="M44.2,282.2c8.9-1.9,8.6-12.4,7.2-19.5c-2.2-11.5-5.2-22.4-6.2-34.1c-0.3-2.7-4.5-2.7-4.3,0
				c0.8,8.3,2,16.6,3.8,24.7c1.4,5.9,7.8,22.8-1.7,24.7C40.4,278.6,41.5,282.7,44.2,282.2L44.2,282.2z"/>
		</g>
	</g>
	<g>
		<g>
			<path class="st0" d="M39.7,228.6c-0.7,3.9-0.3,7.3,1.5,10.8c0.9,1.6,3.5,1.3,3.9-0.5c0.5-2.3,1.3-4.1,2.7-6
				c-1.4-0.3-2.6-0.7-4-1.1c0,8.2,1.6,16.1,3,24.1c0.8,4.4,1.4,8.9,1.5,13.4c0.1,4.1,0.5,9.4-2.9,12.3c-2,1.8,0.9,4.8,3,3
				c6-5.3,4.3-16.2,3.5-23.1c-1.3-9.9-3.8-19.6-3.8-29.7c0-2.3-2.8-2.6-4-1.1c-1.6,2.1-2.6,4.3-3.1,6.9c1.3-0.2,2.6-0.3,3.9-0.5
				c-1.3-2.5-1.6-4.8-1.1-7.5C44.3,227.1,40.2,225.9,39.7,228.6L39.7,228.6z"/>
		</g>
	</g>
	<g>
		<g>
			<path class="st0" d="M72.9,232.6c0,3,0.3,6,1,8.8c1.3-0.5,2.6-1.1,3.9-1.6c-1.4-2.9-2.9-5.9-4.3-8.8c-0.6,1.1-1.2,2.1-1.9,3.2
				c1,0.1,2.7,2.5,3.4,3.1c1.3,1.4,2.4,2.7,3.5,4.2c0.9,1.3,2.7,1.4,3.7,0c1.2-1.9,0.5-4.1,0.3-6.1c-0.4-2.8-0.9-5.5-1.3-8.3
				c-1.3,0.5-2.6,1.1-3.9,1.6c1.5,3.5,2.6,7.1,3.1,11c1.4-0.2,2.8-0.3,4.2-0.6c-0.9-3.3-2.1-6.4-3.7-9.4c-1.3-2.5-4.9-0.3-3.7,2.1
				c1.4,2.7,2.5,5.5,3.3,8.4c0.6,2.2,4.5,1.9,4.2-0.6c-0.6-4.6-1.8-8.8-3.7-13.1c-1-2.4-4.3-0.5-3.9,1.6c0.3,2,0.6,3.9,0.9,5.9
				c0.2,1.2,1.2,4.3,0.6,5.4c1.2,0,2.5,0,3.7,0c-2.6-3.3-6.1-8.9-10.5-9.4c-1.7-0.3-2.5,2-1.9,3.2c1.4,2.9,2.9,5.9,4.3,8.8
				c1.1,2.3,4.3,0.6,3.9-1.6c-0.5-2.6-0.8-5.1-0.9-7.7C77.1,229.9,72.9,229.9,72.9,232.6L72.9,232.6z"/>
		</g>
	</g>
	<g>
		<g>
			<path class="st0" d="M76.4,230.7c0,8.8,0,17.8,0,26.6c0,2.7,4.3,2.7,4.3,0c0-6.1,0.4-12.2,1.3-18.3c-1.4,0-2.7,0-4.1,0
				c2.7,6.5,0.2,12.9-2.6,19c1.3,0.2,2.6,0.3,3.9,0.5c-1.4-6-2.1-12.1-2.2-18.3c-1.4,0.2-2.8,0.3-4.2,0.6c2.6,6.9,3.5,13.9,2.7,21.2
				c-0.8,6.7-2,13.2-1.1,20c1.4-0.3,2.7-0.8,4.1-1.1c-1.3-9.3-1.7-18.5-1.4-27.9c0.1-2.7-4.2-2.7-4.3,0c-0.3,9.7,0.2,19.4,1.4,29
				c0.3,2.7,4.4,1.5,4.1-1.1c-1-7.4,1.1-14.6,1.5-21.9c0.3-6.5-0.8-13-3.1-19.2c-0.9-2.1-4.2-2-4.2,0.6c0.1,6.5,0.9,13,2.3,19.4
				c0.4,1.7,3.1,2.2,3.9,0.5c3.1-7.1,6.2-14.6,3-22.3c-0.7-1.6-3.7-2.4-4.1,0c-0.9,6.5-1.4,12.9-1.4,19.4c1.4,0,2.8,0,4.3,0
				c0-8.8,0-17.8,0-26.6C80.6,228,76.4,228,76.4,230.7L76.4,230.7z"/>
		</g>
	</g>
	<g>
		<g>
			<path class="st0" d="M77.5,279.1c0.5,1.4,1.4,2.3,2.8,2.8c0.9,0.3,2.5,0.3,3.1,1c0.3-1.2,0.6-2.4,0.9-3.6c-2,0.3-4-0.3-5.4-1.8
				c-2-2-4.9,1-3,3c2.6,2.6,6,3.6,9.5,2.9c1.6-0.3,2-2.5,0.9-3.6c-0.7-0.8-1.6-1.3-2.6-1.5c-0.4-0.1-0.8-0.2-1.2-0.3
				c-0.3-0.1-1-0.3-1-0.3C80.6,275.5,76.5,276.6,77.5,279.1L77.5,279.1z"/>
		</g>
	</g>
	<g>
		<g>
			<path class="st0" d="M27.7,189.3c-0.1-6,0.9-12.6,2.9-18.3c-1.4,0-2.7,0-4.1,0c2,5.7-3.5,13.8-5.8,19c1.4,0.3,2.6,0.7,4,1.1
				c1.4-11.5,3.9-22.7,7.6-33.7c-1.4,0-2.7,0-4.1,0c1.7,6-0.5,12.9-1.4,18.9c-0.4,2.6,3.7,3.8,4.1,1.1c1.1-6.8,3.4-14.4,1.4-21.2
				c-0.6-2-3.5-2-4.1,0c-3.8,11.3-6.3,23-7.7,34.8c-0.3,2,3.1,3,4,1.1c2.8-6.5,8.8-15,6.2-22.3c-0.7-2-3.4-2-4.1,0
				c-2.1,6-3.1,13.1-3,19.4C23.4,192,27.7,192,27.7,189.3L27.7,189.3z"/>
		</g>
	</g>
	<g>
		<g>
			<path class="st0" d="M32.7,162.7c-0.1-11.3,1.2-23.2,10.3-31.1c-1-1-2-2-3-3c-4.1,4.8-7.8,9.5-9.9,15.6c-0.7,2,2.1,3.7,3.6,2
				c3.9-4.5,8.2-8.6,12.9-12.2c2.1-1.7-0.9-4.7-3-3c-4.7,3.7-8.9,7.7-12.9,12.2c1.2,0.7,2.4,1.4,3.6,2c1.8-5.3,5.3-9.4,8.8-13.7
				c1.8-2.1-0.9-4.8-3-3c-9.9,8.6-11.6,21.7-11.6,34.1C28.4,165.4,32.7,165.4,32.7,162.7L32.7,162.7z"/>
		</g>
	</g>
	<g>
		<g>
			<path class="st0" d="M47.4,132.5c-0.1-2.4-0.2-4.8-0.3-7.1c-0.1-1.4-1.9-2.9-3.2-1.9c-7.1,5.4-11.6,12.5-16.1,20
				c-1.4,2.4,2.3,4.5,3.7,2.1c3.1-5.1,6.3-10,9.7-14.9c3.2-4.6,6.4-10.6,11.4-13.5c2.4-1.4,0.3-5-2.1-3.7
				c-4.8,2.8-7.9,8.1-11.1,12.5c-4,5.7-7.8,11.5-11.5,17.4c1.2,0.7,2.5,1.4,3.7,2.1c4.1-6.8,8.2-13.7,14.5-18.4
				c-1.1-0.6-2.1-1.2-3.2-1.9c0.1,2.4,0.2,4.8,0.3,7.1C43.2,135.2,47.5,135.3,47.4,132.5L47.4,132.5z"/>
		</g>
	</g>
	<g>
		<g>
			<path class="st0" d="M68.6,127c0.3,1.3,0.3,1.5,1,2.6c1.1,2,4.8,0.7,3.9-1.6c-2.2-5.9-4.6-11.7-7-17.6c-1,0.8-2,1.6-3.1,2.4
				c9.7,7,13.3,18.5,15.4,29.8c1.2-0.7,2.4-1.4,3.6-2c-3.9-3.2-7.5-6.7-10.7-10.6c-1,1-2,2-3,3c2.6,2.9,5.1,5.8,7.6,8.7
				c1.7,2,4.3-0.5,3.3-2.6c-3-6.3-5.6-12.8-7.9-19.3c-1.2,0.7-2.4,1.4-3.6,2c4.3,4.9,6.8,11,9.2,17.1c1,2.6,5.1,1.4,4.1-1.1
				c-2.6-6.8-5.4-13.4-10.3-19c-1.4-1.5-4.3,0.1-3.6,2c2.4,6.9,5.2,13.7,8.3,20.3c1.1-0.9,2.2-1.7,3.3-2.6c-2.6-2.9-5.1-5.8-7.6-8.7
				c-1.8-2-4.8,0.9-3,3c3.2,3.9,6.8,7.4,10.7,10.6c1.7,1.4,3.9,0.1,3.6-2c-2.3-12.5-6.7-24.7-17.3-32.3c-1.4-1-3.8,0.7-3.1,2.4
				c2.5,5.8,4.8,11.6,7,17.6c1.3-0.5,2.6-1.1,3.9-1.6c-0.2-0.5-0.3-1.1-0.6-1.6C72.3,123.2,68.2,124.4,68.6,127L68.6,127z"/>
		</g>
	</g>
	<g>
		<g>
			<path class="st0" d="M77.1,138.3c0,2.3-0.1,4.7-0.1,7c1.4-0.3,2.6-0.7,4-1.1c-3.1-4.3-6.1-8.7-9.1-13.2c-0.9,0.9-2,2-2.9,2.9
				c7,5.4,12.8,12,17.3,19.6c1.2,2,4.8,0.7,3.9-1.6c-3.1-7.4-6.5-14.5-10.5-21.4c-1.4-2.4-5-0.3-3.7,2.1c3.8,6.5,7.2,13.3,10.1,20.4
				c1.3-0.5,2.6-1.1,3.9-1.6c-4.9-8.2-11.2-15.3-18.9-21.2c-1.7-1.3-4,1.2-2.9,2.9c2.9,4.4,6,8.8,9.1,13.2c1.2,1.6,3.9,1.2,4-1.1
				c0-2.3,0.1-4.7,0.1-7C81.5,135.6,77.2,135.6,77.1,138.3L77.1,138.3z"/>
		</g>
	</g>
	<g>
		<g>
			<path class="st0" d="M79.1,147.4c0.3,6.1,1.2,12,3.1,17.9c1.3-0.5,2.6-1.1,3.9-1.6c-3-5.7-5.4-11.6-7.3-17.8
				c-0.9-2.6-4.9-1.5-4.1,1.1c2,6.5,4.6,12.8,7.7,18.8c1.1,2.1,4.6,0.7,3.9-1.6c-1.7-5.4-2.7-11-2.9-16.7
				C83.3,144.6,79,144.6,79.1,147.4L79.1,147.4z"/>
		</g>
	</g>
	<g>
		<g>
			<path class="st0" d="M80.7,154.4c1.5,6.1,3.2,12.2,5,18.4c0.6,1.9,3.7,2.1,4.1,0c0.7-3.7-0.9-7.1-1.7-10.8
				c-1.1-4.4-1.9-8.8-2.6-13.3c-1.2,0.7-2.4,1.4-3.6,2c5.5,5.1,7.7,12.2,8.6,19.4c1.4-0.3,2.7-0.8,4.1-1.1c-1-4.4-2.1-8.7-4.8-12.4
				c-1.4-1.9-4.6-0.8-3.9,1.6c1.8,6.4,3.6,12.8,5.4,19.2c0.8,2.6,4.8,1.5,4.1-1.1c-1.8-6.4-3.6-12.8-5.4-19.2
				c-1.3,0.5-2.6,1.1-3.9,1.6c2.4,3.5,3.4,7.3,4.3,11.4c0.6,2.7,4.4,1.5,4.1-1.1c-1.1-8-3.7-15.7-9.7-21.3c-1.7-1.5-3.8,0-3.6,2
				c0.5,3.4,1.1,6.9,1.9,10.3c0.7,3.2,3.1,8.3,2.4,11.6c1.4,0,2.7,0,4.1,0c-1.8-6-3.5-12.2-5-18.4C84.1,150.7,80,151.8,80.7,154.4
				L80.7,154.4z"/>
		</g>
	</g>
	<g>
		<g>
			<path class="st0" d="M88.8,174.2c0.4,3.7,0.8,7.4,0.9,11.1c1.4-0.3,2.6-0.7,4-1.1c-2.4-3.8-4-7.8-4.8-12.2
				c-0.5-2.7-4.6-1.5-4.1,1.1c0.9,4.8,2.6,9.2,5.2,13.3c1.1,1.7,4.1,1.1,4-1.1c-0.2-3.7-0.5-7.4-0.9-11.1
				C92.8,171.5,88.4,171.5,88.8,174.2L88.8,174.2z"/>
		</g>
	</g>
	<g>
		<g>
			<path class="st1" d="M49.9,69.2c-7.7,0.6-12.6,7.7-12.3,15.1c0.3,9.9,7.7,17.6,10.6,26.8c0.9,2.6,4.9,1.5,4.1-1.1
				c-1.9-6.1-5.6-11.3-8.2-17.2c-2.8-6.4-4.2-18.6,5.8-19.4C52.6,73.1,52.6,68.9,49.9,69.2L49.9,69.2z"/>
		</g>
	</g>
	<g>
		<g>
			<path class="st1" d="M50,112.2c-9.6,8.3-16.5,19.2-20.1,31.5c-4.3,14.6-6.8,29.8-9.9,44.8c-0.6,2.6,3.6,3.8,4.1,1.1
				c2.9-13.9,5.6-27.9,9.1-41.7c3.3-12.8,9.8-24,19.8-32.6C55.1,113.4,52.1,110.4,50,112.2L50,112.2z"/>
		</g>
	</g>
	<g>
		<g>
			<path class="st1" d="M44.3,243.9c-0.8-8.6-1.5-17.3-1.4-25.9c0.2-9.4,2.1-18.2,3.6-27.3c1.3-8.1,1.8-16.3,1.3-24.5
				c-0.5-8.9-2.9-17.9-2.4-26.8c0.2-2.7-4.1-2.7-4.3,0c-0.5,8.8,1.8,17.3,2.3,26c0.6,9.2,0,18.4-1.7,27.4c-1.4,8.2-3,16.2-3.1,24.5
				c-0.2,8.9,0.6,17.9,1.4,26.7C40.3,246.6,44.6,246.7,44.3,243.9L44.3,243.9z"/>
		</g>
	</g>
	<g>
		<g>
			<path class="st1" d="M41.9,142.3c-1.1,7.8,0.7,15.1,2.7,22.7c2.6,9.5,3.7,18.4,2,28.2c-1.5,8.5-5.3,16.5-6.5,25
				c-1.3,8.6,0.9,17,3.2,25.2c0.8,2.6,4.8,1.5,4.1-1.1c-2.6-9.1-4.7-18-2.3-27.5c2-7.9,5-15.5,6.1-23.6c1-7.5,0.7-14.8-1.1-22.1
				c-2-8.4-5.3-16.8-4.1-25.7C46.4,140.7,42.4,139.5,41.9,142.3L41.9,142.3z"/>
		</g>
	</g>
	<g>
		<g>
			<path class="st1" d="M40.7,242.2c2,6.1,3.2,12.4,3.5,18.9c0.3,5.7,0.4,12.8-3.4,17.3c-1.7,2.1,1.3,5.1,3,3
				c4-4.9,4.6-11.1,4.7-17.2c0.1-7.9-1.3-15.7-3.7-23.2C44.1,238.4,39.9,239.5,40.7,242.2L40.7,242.2z"/>
		</g>
	</g>
	<g>
		<g>
			<path class="st1" d="M42.3,240c3.1,11.7,4.1,23.9-0.3,35.5c-0.9,2.6,3.1,3.7,4.1,1.1c4.6-12.2,3.5-25.3,0.3-37.7
				C45.7,236.3,41.5,237.4,42.3,240L42.3,240z"/>
		</g>
	</g>
	<g>
		<g>
			<path class="st1" d="M69.6,136.4c11.9,11.4,12.6,28.6,15.3,43.9c0.5,2.7,4.6,1.5,4.1-1.1c-2.9-16.2-3.8-33.7-16.3-45.7
				C70.7,131.6,67.6,134.5,69.6,136.4L69.6,136.4z"/>
		</g>
	</g>
	<g>
		<g>
			<path class="st1" d="M66.9,233.2c14.1,9.8,3.6,30.8,3.2,44.2c-0.1,2.7,4.2,2.7,4.3,0c0.4-15.6,11.1-36.6-5.4-47.9
				C66.8,228,64.7,231.6,66.9,233.2L66.9,233.2z"/>
		</g>
	</g>
	<g>
		<g>
			<path class="st2" d="M63.4,85.5c2.1,5.9-1.2,8.4-3.4,13.3c-1.8,3.9-0.5,8.3,0,12.4c0.3,2.7,4.6,2.7,4.3,0
				c-0.3-2.6-0.9-5.2-0.9-7.7c0-3.1,2.1-5.1,3.5-7.7c2-3.7,2.1-7.7,0.7-11.5C66.5,81.7,62.4,82.8,63.4,85.5L63.4,85.5z"/>
		</g>
	</g>
	<g>
		<g>
			<path class="st2" d="M61.4,113.4c10.5,8.2,17.5,19.6,21.8,32.1c2.3,6.8,3.9,13.8,5.1,20.8c0.9,5,0.4,11.6,5,14.8
				c2.2,1.6,4.3-2.1,2.1-3.7c-2.5-1.8-2.3-8.2-2.8-10.7c-0.5-3.1-1.1-6.3-1.8-9.4c-1.4-6.7-3.4-13.3-6.1-19.7
				c-4.5-10.6-11.1-20.2-20.2-27.3C62.3,108.7,59.2,111.7,61.4,113.4L61.4,113.4z"/>
		</g>
	</g>
	<g>
		<g>
			<path class="st2" d="M48.1,137.9c-4.8,0.3-6,5.6-5.6,9.7c0.5,4.2,3.6,7.5,7.8,7.7c2.7,0.1,2.7-4.2,0-4.3c-2-0.1-3.2-1.6-3.6-3.4
				c-0.2-1-0.3-5.3,1.4-5.4C50.9,142,50.9,137.8,48.1,137.9L48.1,137.9z"/>
		</g>
	</g>
	<g>
		<g>
			<path class="st2" d="M63.6,136.3c-9.5,2-11.1,15-2.3,19.2c2.5,1.2,4.6-2.5,2.1-3.7c-5.6-2.6-4.9-10.1,1.3-11.5
				C67.4,139.8,66.2,135.7,63.6,136.3L63.6,136.3z"/>
		</g>
	</g>
	<g>
		<g>
			<path class="st2" d="M68.5,146.9c1.2,11.2-3.8,21.9-2.7,33.2c0.9,10.4,4.8,20.1,8.4,29.8c3.9,11,6.5,21.7,6.5,33.3
				c0,12.5-1.5,25.1-2.6,37.5c-0.1,1.1,1,2.1,2.1,2.1c1.1-0.2,2.1,0.1,3.1,0.8c2.4,1.4,4.5-2.3,2.1-3.7c-1.7-0.9-3.3-1.4-5.3-1.4
				c0.7,0.7,1.4,1.4,2.1,2.1c1-12.2,2.5-24.5,2.6-36.7c0.1-11.3-2-21.9-5.8-32.6c-3.5-10-8-20.1-9.2-30.8
				c-1.3-11.6,3.9-22.4,2.6-33.9C72.5,144.1,68.3,144.1,68.5,146.9L68.5,146.9z"/>
		</g>
	</g>
	<g>
		<g>
			<path class="st2" d="M51.2,228.5c-6,6.7-4.1,15.2-1.9,23c1.5,5.4,3,10.9,2.7,16.6c-0.2,5.1-1.9,11.8-7,14
				c-2.5,1.1-0.3,4.8,2.1,3.7c7.9-3.5,9.6-14.6,8.9-22.2c-0.5-5.3-2-10.3-3.4-15.3c-1.5-5.6-2.9-12.1,1.4-16.8
				C56,229.4,53,226.4,51.2,228.5L51.2,228.5z"/>
		</g>
	</g>
	<g>
		<g>
			<path class="st2" d="M54.3,85.1c1.2-1.9,3.5-0.2,4.8,0.8c1.1,0.9,2.1-1,1.1-1.9c-2.4-1.8-5.7-3-7.7,0
				C51.7,85.2,53.6,86.3,54.3,85.1L54.3,85.1z"/>
		</g>
	</g>
	<g>
		<g>
			<path class="st2" d="M60.5,84.3c0.2-0.3,0.3-0.7,0.6-0.9c0.4-0.4,0.4-1.1,0-1.5c-0.4-0.4-1.1-0.4-1.5,0c-0.3,0.4-0.7,0.9-0.9,1.4
				s-0.2,1.1,0.3,1.4C59.4,85,60.2,84.9,60.5,84.3L60.5,84.3z"/>
		</g>
	</g>
	<g>
		<g>
			<path class="st2" d="M57.6,83.1c0-0.3,0-0.3,0.1-0.4c0.7-1.2-1.2-2.3-1.9-1.1c-0.3,0.5-0.4,1-0.3,1.5c0,0.6,0.4,1,1,1
				C57.1,84.2,57.6,83.7,57.6,83.1L57.6,83.1z"/>
		</g>
	</g>
	<g>
		<g>
			<path class="st2" d="M46.9,83.9c-1.3-0.1-2.7-0.3-3.9,0.3c-1,0.4-1.6,1.4-2.1,2.3c-0.7,1.2,1.1,2.2,1.9,1.1
				c0.3-0.5,0.8-1.3,1.4-1.5c0.9-0.3,2,0,2.8,0.1C48.3,86,48.3,83.9,46.9,83.9L46.9,83.9z"/>
		</g>
	</g>
	<g>
		<g>
			<path class="st2" d="M42.3,86.1c-0.5-0.3-0.9-0.7-1.3-1.2s-0.9-0.7-1.4-0.3c-0.5,0.3-0.7,0.9-0.3,1.4c0.5,0.8,1.2,1.4,2,2
				C42.4,88.6,43.5,86.8,42.3,86.1L42.3,86.1z"/>
		</g>
	</g>
	<g>
		<g>
			<path class="st2" d="M45,85c0.1-0.9,0-1.5-0.6-2.1c-0.9-1-2.5,0.5-1.5,1.5c-0.1-0.1,0.1,0.2,0,0c0.1,0.1,0,0.2,0,0
				c-0.1,0.6,0.2,1.1,0.8,1.3C44.2,85.8,44.9,85.6,45,85L45,85z"/>
		</g>
	</g>
	<g>
		<g>
			<path class="st0" d="M78.7,99c-2.3-0.9-4.4-2.1-6.5-3.6c-0.3,1.4-0.7,2.6-1.1,4c1.4,0.2,2.4,0.4,3.7,1c2.2,0.9,3.2-2.1,2-3.6
				c-0.9-1.2-1.9-2.5-2.8-3.7c-0.6,1.1-1.2,2.1-1.9,3.2c1-0.1,2,0,2.9,0.3c1.9,0.5,3.8-2.1,2-3.6c-1-0.9-2-1.6-2.8-2.6
				c-0.3,1.2-0.6,2.4-0.9,3.6c1.4-0.4,2.7-0.9,4.2-1.4c1.8-0.6,2-2.9,0.5-3.9c-1.1-0.8-2.3-1.4-3.5-2c0,1.2,0,2.5,0,3.7
				c1.6-0.9,3.2-1.6,5-2.2c1.9-0.7,2.1-3.5,0-4.1c-2.1-0.6-4.3-1.1-6.4-1.7c0.2,1.3,0.3,2.6,0.5,3.9c0.9-0.7,1.9-1.2,3-1.6
				c2.5-1.1,0.3-4.8-2.1-3.7c-1.1,0.5-2,0.9-3,1.6c-1.4,1-1.4,3.4,0.5,3.9c2.1,0.6,4.3,1.1,6.4,1.7c0-1.4,0-2.7,0-4.1
				c-2.1,0.8-4.1,1.6-6,2.6c-1.4,0.8-1.4,2.9,0,3.7c1.2,0.7,2.3,1.4,3.5,2c0.2-1.3,0.3-2.6,0.5-3.9C75,89,73.6,89.6,72.2,90
				c-1.5,0.5-2,2.4-0.9,3.6c0.9,0.9,1.8,1.8,2.8,2.6c0.7-1.2,1.4-2.4,2-3.6c-1.4-0.3-2.6-0.5-4-0.4c-1.4,0-2.8,1.9-1.9,3.2
				c1.1,1.5,2.3,3.1,3.5,4.6c0.7-1.2,1.4-2.4,2-3.6c-1.6-0.7-3.1-0.9-4.8-1.1c-2.3-0.3-2.6,2.9-1.1,4c2.4,1.6,4.8,2.9,7.5,4
				C80,104.1,81.1,100,78.7,99L78.7,99z"/>
		</g>
	</g>
	<g>
		<g>
			<path class="st0" d="M61.7,70.5c4.4-0.8,8.8-1.2,11.4,3.2c2,3.6,3,8,2,11.9c1.2-0.3,2.4-0.6,3.6-0.9c-2.2-2.9-3.6-6.2-5.6-9.2
				c-1.8-2.6-4.1-4.8-6.5-6.9c-0.5,1.2-1,2.4-1.5,3.7c4.6-0.4,6.8,1.4,8,5.9c0.9,3.4,1.8,6.8,2.7,10.3c0.3,1.4,2.6,2.2,3.6,0.9
				c3.6-4.5,2.2-11.7-0.9-16.2c-1.6-2.3-3.7-4.2-6.3-5.4c-2.9-1.4-6-1.2-9-2.3c0,1.4,0,2.7,0,4.1c9.4-2.4,18,7.6,17.3,16.4
				c-0.3,2.7,4,2.7,4.3,0c1.1-11.7-10.7-23.5-22.6-20.6c-2.2,0.5-1.8,3.4,0,4.1c3.9,1.5,7.7,0.9,11.1,3.9c2.8,2.6,6.1,9.3,3.2,12.8
				c1.2,0.3,2.4,0.6,3.6,0.9c-1.3-4.8-1.9-11.4-4.8-15.6c-2.3-3.3-6.2-4-10-3.7c-1.7,0.2-3,2.3-1.5,3.7c2.9,2.6,5.4,5,7.3,8.4
				c1.5,2.6,2.9,5.3,4.8,7.7c1,1.3,3.1,0.5,3.6-0.9c1.4-5.4,0.1-12.2-3.3-16.7c-3.8-5-9.5-4.7-15.2-3.7C57.8,66.9,58.9,71,61.7,70.5
				L61.7,70.5z"/>
		</g>
	</g>
	<g>
		<g>
			<path class="st2" d="M55.8,84.2c0,1.1,0.1,2.1,0.3,3.2c0.1,0.6,0.8,0.9,1.3,0.8c0.6-0.2,0.9-0.8,0.8-1.3
				c-0.2-0.9-0.2-1.8-0.3-2.6C57.8,82.8,55.7,82.8,55.8,84.2L55.8,84.2z"/>
		</g>
	</g>
	<g>
		<g>
			<path class="st2" d="M44.7,85.2c0,1.1,0,2.2,0.1,3.3c0,1.4,2.1,1.4,2.1,0c0-1.1,0-2.2-0.1-3.3C46.8,83.9,44.7,83.9,44.7,85.2
				L44.7,85.2z"/>
		</g>
	</g>
	<g>
		<g>
			<path class="st4" d="M40.1,91.7C36.5,87,37,79.9,41,75.5c3.8-4.2,10.2-5.5,15.6-4c11.6,3.2,16.2,18.1,6.8,26.3
				c-2,1.8,0.9,4.8,3,3c12.7-11,5-31.3-10.7-33.8c-7.2-1.2-15.3,1.5-19.4,7.8c-4,6.2-3.6,14.2,0.9,19.9
				C38.9,96.9,41.8,93.9,40.1,91.7L40.1,91.7z"/>
		</g>
	</g>
	<g>
		<g>
			<path class="st4" d="M37.3,94.7c1.4,6.3,6.6,10.7,8.2,16.9c0.7,2.6,4.8,1.5,4.1-1.1c-1.6-6.2-6.9-10.7-8.2-16.9
				C40.8,90.8,36.7,91.9,37.3,94.7L37.3,94.7z"/>
		</g>
	</g>
	<g>
		<g>
			<path class="st4" d="M62.7,99.3c-0.1,3.4,0.3,6.8,0.2,10.3c-0.1,2.7,4.2,2.7,4.3,0c0.1-3.4-0.3-6.8-0.2-10.3
				C67,96.6,62.8,96.6,62.7,99.3L62.7,99.3z"/>
		</g>
	</g>
	<g>
		<g>
			<path class="st4" d="M44.8,111c-4.6,5.2-9.4,10.5-12.4,16.7c-3.1,6.4-4.8,13.5-6.5,20.4c-2,8-3.7,16-5.1,24.1
				c-0.6,3.4-1,6.9-1.4,10.3c-0.3,3.1-1.4,6.8-0.5,9.9c1.3,4.8,6.2,4.5,9,1.2c3.7-4.4,4.9-11.3,5.7-16.9c1.7-13,0.1-29,11.6-38.1
				c2.1-1.7-0.9-4.7-3-3c-7.6,6-10.3,15.6-11.3,24.7c-0.7,5.5-0.7,11.2-1.5,16.7c-0.4,3-1,6-2.1,8.8c-0.6,1.7-1,4.2-3.1,4.2
				s-1.1-1.6-0.9-3.4c1.4-13.2,4-26.2,7.3-38.9c1.7-6.4,3.1-13.2,6.3-19c2.9-5.4,7.1-10,11.1-14.6C49.7,111.9,46.7,108.9,44.8,111
				L44.8,111z"/>
		</g>
	</g>
	<g>
		<g>
			<path class="st4" d="M64.5,111c8.2,7,14,16,18.4,25.8c4.8,11.1,8.7,23.3,9.9,35.4c0.3,2.8,0.4,5.7,0.3,8.6c0,0.5,0,4.8-0.4,5.1
				c-1.7,0.9-2.8-3.1-3.1-4c-1.7-5.1-2.1-10.6-3.6-15.9c-3.1-10.9-7.8-21.3-14.1-30.6c-1.5-2.3-5.2-0.2-3.7,2.1
				c8.2,12.3,13.3,25.7,16.1,40.2c0.8,4,2.3,13,7.7,13.4c5.1,0.4,5.3-6.2,5.4-9.7c0.6-14.3-3.5-28.7-8.7-41.9
				c-4.7-11.9-11.1-23.2-21-31.5C65.4,106.2,62.4,109.3,64.5,111L64.5,111z"/>
		</g>
	</g>
	<g>
		<g>
			<path class="st4" d="M38.3,144.1c0.7,8,3.7,15.6,4.4,23.5c0.8,8.1,0.3,16.2-1,24.1c-2.5,14.6-6.8,28.9-4.8,43.9
				c0.3,2.7,4.5,1.5,4.1-1.1c-2.1-15.6,3.3-30.6,5.4-45.8c1-7.3,1.2-14.6,0.4-21.9c-0.9-7.7-3.7-15-4.3-22.7
				C42.3,141.3,38,141.3,38.3,144.1L38.3,144.1z"/>
		</g>
	</g>
	<g>
		<g>
			<path class="st4" d="M38.9,237.6c2.7,0,2.7-4.3,0-4.3C36.1,233.3,36.1,237.6,38.9,237.6L38.9,237.6z"/>
		</g>
	</g>
	<g>
		<g>
			<path class="st4" d="M72,142.6c0.5,5.7,0.6,11.4-0.1,17.1c-0.7,5.8-2.4,11.3-3.1,17.1c-1.4,11.5,3.8,22.2,7.1,32.9
				c3.5,11.3,6,23,5.7,34.9c-0.2,5.8-1.3,11.4-2.2,17c-0.9,5.4-1.1,10.9-1.1,16.3c0,1.1,0.9,2.2,2.1,2.1c2-0.2,4-0.8,4.5,1.4
				c0.5,2.3,0.3,1-1.1,1.5c-0.6,0.3-3.1-0.2-3.1-0.2c-3.8-0.8-6-3.2-6.7-7.1c-1.2-6.5,0.5-13.9,0.9-20.5c0.5-10.3,1.8-24.2-12-24.8
				c-3.7-0.2-11.7-1.7-13.6,2.6c-2.3,5.5,0.2,13.2,1.4,18.7c1.6,7.3,2.8,15.3,1.9,22.8c-0.4,3.6-4.2,10.1-8.8,6.9
				c-2.3-1.6-1.8-2.7-0.1-3.6c1-0.5,1.7-0.6,2.5-1.5c3.5-4.3,1.5-13.2,0.5-18c-1.7-8-4.7-15.6-5.3-23.9c-0.2-2.7-4.4-2.7-4.3,0
				c0.6,8.6,3.7,16.6,5.4,25c0.8,3.5,2.2,9.7,0.6,13.2c-1,2.3-4.3,1.6-5.2,4.7c-1.6,5.5,4.8,9.9,9.7,9c6.4-1.1,8.9-7.3,9.3-13.1
				c0.5-9.3-1.4-18.1-3.1-27.1c-0.5-2.3-0.9-4.7-0.9-7.1c0-2.7-0.3-4.1,2.4-4.3c4.3-0.3,11.6-1,14.3,3.1c2.1,3.5,1.5,8.6,1.4,12.4
				c-0.2,5-0.5,10-0.9,15c-0.5,5.8-1.4,12.8,2.6,17.6c3.3,4.1,13.4,7,17.3,2c1.5-2,1.2-4.8-0.3-6.6c-2.1-2.6-5.7-2.7-8.8-2.6
				c0.7,0.7,1.4,1.4,2.1,2.1c0-6,0.3-11.6,1.4-17.5c0.9-5.3,1.9-10.5,2-15.9c0.3-11.2-1.9-22.4-4.9-33.1
				c-3.3-11.6-9.6-23.4-7.7-35.8c0.8-5.1,2.2-10.1,2.8-15.3c0.7-6,0.7-11.9,0.2-17.9C76,139.9,71.8,139.9,72,142.6L72,142.6z"/>
		</g>
	</g>
	<g>
		<g>
			<path class="st4" d="M58.9,68.5c3.5-3.7,11.9-5,16.4-2.5c6.3,3.6,6.7,11.6,5,17.9c-1.1,4.1-4.2,9.2-3.1,13.5
				c0.9,3.8,4.8,4.4,8.2,4.1c-0.7-0.9-1.4-1.8-2-2.7c-1.6,4.2-12,1.4-13.9-1.4c-1.5-2.2-5.3-0.1-3.7,2.1c4.2,6,18.4,8.5,21.7,0.3
				c0.4-1.2-0.8-2.8-2-2.7c-5.8,0.7-3.1-5.6-2.1-8.7c0.9-2.6,1.7-5.1,2-7.8c0.7-5.2-0.3-10.7-3.7-14.9c-6-7.1-19.3-7.2-25.7-0.3
				C54.1,67.5,57.2,70.4,58.9,68.5L58.9,68.5z"/>
		</g>
	</g>
</g>
</svg>
