<?xml version="1.0" encoding="utf-8"?>
<!-- Generator: Adobe Illustrator 23.0.3, SVG Export Plug-In . SVG Version: 6.00 Build 0)  -->
<svg version="1.1" id="Calque_1" xmlns="http://www.w3.org/2000/svg" xmlns:xlink="http://www.w3.org/1999/xlink" x="0px" y="0px"
	 viewBox="0 0 259 308.1" style="enable-background:new 0 0 259 308.1;" xml:space="preserve">
<style type="text/css">
	.st0{fill:#79CAE2;}
	.st1{fill:#3A9BB9;}
	.st2{fill:#BBE1EF;}
	.st3{fill:#4D678B;}
	.st4{fill:#CFE3EA;}
	.st5{fill:#2680A3;}
</style>
<g>
	<g>
		<g>
			<path class="st0" d="M52.6,79.9c-0.2-1,0.1-2.3-0.8-1.3c0.4-0.4,3-1.2,3.5-1.2c1.5,0.1,1.1,0.4,1.6,2.2c0.4,1.9,1.1,4.7,0.3,6.6
				c-0.3,0.7-1.6,2.5-2.3,2.7c-1.5,0.6,0,0.5-1.3-0.4c-1.8-1.2-3.3-4.4-4.3-6.3c-0.5-1.1-0.9-2.1-1.2-3.2c-0.3-0.8-0.4-1.6-0.5-2.5
				c0,0.3-0.1,0.5-0.1,0.8c1.7-0.5,4.2-0.4,5.3,1.2c0.5,0.7,0.4,1.4,0.6,2.2c0,0.1,0,0.2,0,0.3c-1.2,1.3-0.4,2.2,2.6,2.6
				c0.5-8.3-12.5-8.3-13,0c-0.4,6.9,6.3,11.9,12.9,10.5c6.7-1.4,10.8-8.1,10.4-14.7c-0.6-13.7-20.9-21.7-29.5-9.9
				c-4.3,5.9-1.4,14,1.6,19.8c2.9,5.7,8,12.2,14.8,12.8c7,0.6,13.5-5.1,16-11.3c2.3-5.7,1.4-13.6-1.2-19c-3.5-7.3-11.4-8.8-18.6-6.2
				c-8.5,3.1-11,9.1-9.3,17.7C41.6,91.5,54.2,88,52.6,79.9L52.6,79.9z"/>
		</g>
	</g>
	<g>
		<g>
			<path class="st0" d="M42.9,83.3c-0.4,8.5-0.6,16.9-1,25.4c-0.3,8.3,12.6,8.3,13,0c0.1-1.1,0.2-2.3,0.4-3.4c0.1-0.5,0.3-1,0.4-1.4
				c0.4-1.1,0.2-1-0.8,0.4c-1.7,0.2-3.3,0.4-5,0.6c-3.2-0.8-2.2-2.7-2.4,0.7c1.6-2.1,3.2-4.2,4.7-6.2c0.7,0.4,0.9,0.4,0.4,0
				c-0.4-0.4-0.7-0.7-1-1.1c-0.5-0.5-1.1-1.1-1.6-1.6c-2-1.8-4.4-2.9-7.1-3.3c-5.4-1-11.1,0.3-16.4,0.7c2.2,2.2,4.3,4.3,6.5,6.5
				c0.5-7,0.4-14.3,1.9-21.2c1.3-6.1,4.5-11.1,11.4-10.4c16.6,1.4,15.4,24,14,35.4c2.2-2.2,4.3-4.3,6.5-6.5
				c-3.9,0.3-7.7-1.5-9.1-5.4c-0.7-2-0.3-4.3-0.8-6.4c-0.6-2.7-2.1-5.2-4.5-6.8c-3.9-2.6-10.9-2.8-15.3-1.4c-6,1.8-8.7,7-9.6,12.8
				c4.3,0.6,8.5,1.1,12.8,1.8c-0.3-3.3-0.4-6.8,0.2-10.1c0.2-1.2,1.2-7.9,2.2-8.4c-1.1,0.3-2.2,0.6-3.2,0.9c0.4,0,0.7,0,1,0
				c-1.1-0.3-2.2-0.6-3.2-0.9c3.9,1.7,6.1,10,7.5,13.7c2.1,5.7,4.2,11.3,7.5,16.4c2.4,3.6,9.1,4.8,11.2,0c0.6-1.3,0.8-1.7,2-2.5
				c3.3-2.5,2-8.3-1.3-10.2C56.7,87,48,85,39.3,85.7c-8.2,0.7-8.3,13.7,0,13c6.7-0.5,12.8,0.6,18.7,3.9c-0.4-3.4-0.9-6.8-1.3-10.2
				c-1.8,1.4-3.2,3.2-4,5.2c3.8,0,7.5,0,11.2,0c-6.7-10.1-7.5-25.6-17.5-33.4c-6.8-5.4-13.1-0.4-15.7,6.4c-2.7,6.9-3.6,14.6-3,21.9
				c0.3,3.2,2.3,6,5.6,6.4c2.9,0.4,6.7-1.5,7.1-4.7c0.2-1.1,0.2-3.3,1.1-3.9c0.4-0.3,1.8-0.1,2.3,0c0.7,0,1.3,0.1,2,0.2
				c-0.4-0.4-0.9-1-1.3-1.4C44,89.3,45,94.7,45,94.8c0.4,1.8,1.2,3.8,2.2,5.4c4,6.8,11.8,11.1,19.8,10.7c3.9-0.3,6.1-2.8,6.5-6.5
				c1.3-11,1.6-22.2-3.5-32.3C65.5,63,56.8,56.6,46.4,56c-10-0.5-18.4,5.4-22.2,14.4c-3.8,9.3-3.4,20.4-4.1,30.3
				c-0.3,3.3,3.2,6.8,6.5,6.5c3.4-0.3,6.8-0.6,10.3-0.9c2.3-0.2,3.5-0.4,5.3,0.9c4.2,3.2,7.6,7.2,13.6,4.8c2.9-1.1,4.6-3.2,4.7-6.2
				c0.4-5.9-2.3-14.3-9.7-13.3c-7.3,1-8.7,10.6-9,16.5c4.3,0,8.7,0,13,0c0.4-8.5,0.6-16.9,1-25.4C56.2,74.9,43.1,74.9,42.9,83.3
				L42.9,83.3z"/>
		</g>
	</g>
	<g>
		<g>
			<path class="st0" d="M37.5,111.1c-0.5,12.2-0.7,24.6,3.4,36.2c3.9-1.7,7.9-3.3,11.8-5c-4.7-6.7-6.7-13.9-6.1-21.9
				c-4.3,0-8.7,0-13,0c-0.2,9.9,0.4,20.9,3.5,30.4c3.2,9.7,16.5,6.6,23.3,2.8c9-5,8.3-15.4,6.5-24c-1.9-9.1-6.3-17.2-12.1-24.4
				c-3.6-4.5-11.2-0.7-11.1,4.6c0.4,14.7,0.9,29.6,1.3,44.3c4.3,0,8.7,0,13,0c-0.4-3.4-1-6.8-1.7-10.2c-1.8-8.2-14.3-4.7-12.5,3.4
				c0.4,2.2,1,4.5,1.2,6.7c0.4,3.5,2.6,6.5,6.5,6.5c3.4,0,6.6-3,6.5-6.5c-0.4-14.7-0.9-29.6-1.3-44.3c-3.7,1.5-7.4,3.1-11.1,4.6
				c3.5,4.3,6.1,9.3,7.7,14.6c1,3.2,3.7,11.2,0.6,13.5c-1.8,1.3-4.6,0.9-6.5,1.8c-2-0.2-1.9,0.3,0.4,1.4c1.8,1.9,2.2,1.8,1.3-0.3
				c-0.1-1.5-0.8-3.4-1.1-4.9c-1.2-6.6-1.6-13.2-1.4-19.8c0.2-8.4-12.5-8.2-13,0c-0.6,10.1,2.2,20.2,7.9,28.4
				c3.9,5.6,14.6,2.4,11.8-5c-3.8-10.6-3.4-21.7-3-32.8C50.8,102.8,37.8,102.8,37.5,111.1L37.5,111.1z"/>
		</g>
	</g>
	<g>
		<g>
			<path class="st0" d="M51.8,175c-0.5-4-1.1-8-1.6-12c-0.3-1.8-0.4-3.4-0.7-5.2c-0.5-4.1,0.4-2.1-1.8-0.9c-3-0.8-6-1.6-8.9-2.4
				c7.2,10.4,14.1,20.9,20.9,31.6c3.9,6.1,14,2.3,11.8-5c-1-3.5-2-6.9-3-10.4c-0.4-1.6-1-3.2-1.4-4.8c-0.3-0.8-0.4-1.6-0.7-2.4
				c-0.1-1.8-0.4-1.9-1-0.4c7.5-3.5,1-14.7-6.6-11.2c-5.7,2.6-6.5,8.9-5.2,14.4c1.5,6.1,3.5,12.3,5.3,18.3c3.9-1.7,7.9-3.3,11.8-5
				C64.3,168.9,57.2,158.3,50,148c-2-3-5.6-4.1-8.9-2.4c-4.2,2.3-5.3,6.8-4.7,11.2c0.7,6,1.6,12,2.3,18c0.4,3.5,2.6,6.5,6.5,6.5
				C48.5,181.6,52.2,178.5,51.8,175L51.8,175z"/>
		</g>
	</g>
	<g>
		<g>
			<path class="st0" d="M56,247.5c-2.9-12.5-6.1-25.4-7.5-38.2c-0.6-6-0.6-11.8,0.9-17.6c1.6-6.3,3.7-12.5,5.5-18.8
				c-4.3-0.6-8.5-1.1-12.8-1.8c1.1,9.9-3.8,20-5.4,29.7c-1.8,10.3-2.4,20.6-1.8,31.1c0.4,8.3,13.4,8.3,13,0c-0.5-10.4,0-20.7,2-30.8
				c1.9-9.8,6.4-19.7,5.4-29.9c-0.8-7-10.5-9.2-12.8-1.8c-3.9,13.3-8.3,25.9-6.8,39.9s4.7,27.9,7.9,41.7
				C45.3,259.1,57.9,255.6,56,247.5L56,247.5z"/>
		</g>
	</g>
	<g>
		<g>
			<path class="st0" d="M45.3,187.2c1.1,5.9,4.9,10.6,7.1,16.1c2.4,5.9,3.9,12.1,5.4,18.3c1.7,6.9,13.6,5.7,12.8-1.8
				c-1.8-16-6.2-31.2-11.1-46.4c-3.6,2.1-7.3,4.2-10.9,6.3c8.2,9.2,13.6,20.7,14.5,33.1c1,14-1.8,27.9-0.8,41.9
				c0.6,8.3,12.5,8.4,13,0c0.2-3.1,0.4-6.1,0.5-9.2c0.4-8.3-12.5-8.3-13,0c-0.2,3.1-0.4,6.1-0.5,9.2c4.3,0,8.7,0,13,0
				c-1.1-15.6,2.4-31.2,0.3-46.9c-1.8-14.1-8.2-26.8-17.7-37.3c-4.3-4.8-12.8,0.3-10.9,6.3c4.5,14,9,28.3,10.6,43
				c4.3-0.6,8.5-1.1,12.8-1.8c-1.5-6.1-3-12.4-5.4-18.3c-2.1-5.4-6.1-10.4-7.1-16.1C56.3,175.5,43.7,179,45.3,187.2L45.3,187.2z"/>
		</g>
	</g>
	<g>
		<g>
			<path class="st0" d="M65.7,215.7c-0.1,13.1-0.2,26.2-0.2,39.3c-0.1,11.2,0.2,23.4,9.2,31.5c6.2,5.5,15.4-3.6,9.2-9.2
				c-7.5-6.6-5.4-18.6-5.4-27.6c0.1-11.3,0.1-22.7,0.2-34C78.7,207.3,65.8,207.3,65.7,215.7L65.7,215.7z"/>
		</g>
	</g>
	<g>
		<g>
			<path class="st0" d="M43.1,236.3c-1.7,8.8-0.5,17.6,3.9,25.4c2.1,3.6,4.8,6.6,7.9,9.4c1.9,1.7,2.4,1.2,1.7,3.6
				c-0.7,2.5-1.7,4.9-2.8,7.2c4,1.1,8.1,2.2,12.1,3.2c0.4-16.6-5.9-33.4-9.9-49.3c-2.1-8.1-14.7-4.7-12.5,3.4
				c1.9,7.5,3.9,15,5.8,22.5c2,7.7,3.9,15.4,3.7,23.4c-0.2,6.1,9.3,9.2,12.1,3.2c2.1-4.5,4.7-9.6,4.9-14.6c0.3-5.1-2.2-8.8-5.9-12.1
				c-6.4-5.7-10.2-13.4-8.5-22.1C57.2,231.6,44.8,228.1,43.1,236.3L43.1,236.3z"/>
		</g>
	</g>
	<g>
		<g>
			<path class="st0" d="M25.9,181.4c-0.4-10.9-2-22.5-0.4-33.3c1.5-9.9,6.3-18.8,13.3-25.8c2-1.9-1.1-5-3.1-3.1
				c-7.2,7.2-12.4,16.3-14.2,26.3c-2.1,11.6-0.4,24,0.1,35.8C21.6,184.2,26,184.2,25.9,181.4L25.9,181.4z"/>
		</g>
	</g>
	<g>
		<g>
			<path class="st0" d="M26,165c-0.4-6-0.5-12.3,2.4-17.7c0.5-1.1,1.4-2.7,2.3-3.3c1.4-1.1,0.5-1.1,2,0.1c2.1,1.6,3.2,5.5,3.9,7.9
				c1.3-0.5,2.6-1.1,3.9-1.7c-3.4-6.6-5.4-13.5-5.8-20.9c-0.2-2.5-3.3-2.8-4.3-0.6c-2.1,5.3-4.2,10.5-6.3,15.8
				c-1.1,2.6,3.2,3.7,4.2,1.1c2.1-5.3,4.2-10.5,6.3-15.8c-1.4-0.2-2.8-0.4-4.3-0.6c0.4,8.2,2.5,15.8,6.3,23.1
				c1.1,2.2,4.6,0.7,3.9-1.7c-1.2-4.7-6.1-16.5-12.1-10.8c-6.8,6.5-7.5,16.2-6.8,25.1C21.9,167.7,26.3,167.8,26,165L26,165z"/>
		</g>
	</g>
	<g>
		<g>
			<path class="st0" d="M63.3,139.8c1.5,8.7,6,16.1,10.2,23.7c2.2,3.9,4.2,8,5.7,12.4c1.1,3.1,2,5.7,4.8,7.5
				c1.6,0.9,3.9-0.6,3.2-2.5c-6.5-18.4-13-36.9-19.4-55.3c-0.9-2.6-5.1-1.5-4.2,1.1c6.5,18.4,13,36.9,19.4,55.3
				c1.1-0.8,2.1-1.7,3.2-2.5c-2.8-1.7-3.3-6.6-4.6-9.4c-1.5-3.5-3.2-6.8-5.1-10.2c-3.8-6.8-7.7-13.6-9-21.4
				C67,136,62.9,137.1,63.3,139.8L63.3,139.8z"/>
		</g>
	</g>
	<g>
		<g>
			<path class="st0" d="M73.9,153.4c-2.4-5.9-4.7-11.8-7.2-17.6c-1.1-2.5-5.3-1.4-4.2,1.1c2.5,5.9,4.8,11.8,7.2,17.6
				C70.8,157.2,75,156,73.9,153.4L73.9,153.4z"/>
		</g>
	</g>
	<g>
		<g>
			<path class="st1" d="M53.4,116.9c6.9,7.6,9.9,17,7.1,27.2c-1.4,4.9-5.1,9.4-5.6,14.4c-0.5,4.9,1.1,11,2.8,15.5
				c2,5.5,4.7,10.7,6.3,16.4c1.7,5.8,2.7,11.8,3.8,17.7c2.3,12.7,4.4,25.4,6.2,38.2c0.8,5.5,9.1,3.2,8.3-2.3
				C80.5,231,78.4,218,76,205c-1.1-6.5-2.4-13-4.4-19.3c-1.8-5.8-5-11.1-6.6-17c-0.6-2.4-1.5-5.2-1.6-7.6c-0.2-3.1,1.8-5.5,3.1-8.2
				c2.1-4.7,3.4-9.6,3.8-14.7c0.7-10.4-3.9-19.7-10.7-27.3C55.7,106.6,49.6,112.8,53.4,116.9L53.4,116.9z"/>
		</g>
	</g>
	<g>
		<g>
			<path class="st1" d="M43.7,202.4c-1.8,14.4-0.2,29.2,4.9,42.8c4.9,13.3,16.1,27,12.6,41.9c-1.2,5.4,7.1,7.7,8.3,2.3
				c3.5-15.3-4.7-28.3-10.6-41.7c-6.4-14.2-8.3-29.9-6.5-45.4C53,196.9,44.3,196.9,43.7,202.4L43.7,202.4z"/>
		</g>
	</g>
	<g>
		<g>
			<path class="st1" d="M57.7,74.2c1.3,2.9,2.8,6.2,2.4,9.5c-0.5,3.5-3,5.9-4.7,8.8c-3.9,6.8-2.5,14.1,0.6,21
				c2.3,5.1,9.7,0.7,7.5-4.4c-1.8-4-2.7-8.1-0.6-12.2c1.6-3.1,3.9-5.4,4.9-8.8c2.1-6.3,0.1-12.5-2.6-18.3
				C62.9,64.7,55.4,69.1,57.7,74.2L57.7,74.2z"/>
		</g>
	</g>
	<g>
		<g>
			<path class="st2" d="M46.3,74.3c5.6,0,5.6-8.7,0-8.7C40.7,65.6,40.7,74.3,46.3,74.3L46.3,74.3z"/>
		</g>
	</g>
	<g>
		<g>
			<path class="st2" d="M45.1,65.7c-10.6,1.6-13.9,13.4-10.7,22.5c1.8,5.1,5.4,9.5,3.9,15.2c-1.3,5.3-5,9.9-7.5,14.6
				c-10.4,19.3-14.6,41.7-11.9,63.5c0.7,5.4,9.3,5.5,8.7,0c-2.4-19.8,0.9-40,10.1-57.7c4-7.7,10.5-15.4,9.8-24.7
				C47,92.3,35.2,75.8,47.6,74C52.9,73.2,50.6,64.9,45.1,65.7L45.1,65.7z"/>
		</g>
	</g>
	<g>
		<g>
			<path class="st2" d="M33.8,158.9c1.7,11.7,2.6,23.1,1.1,34.8c-1.4,11.6-3.9,23.1-2.2,34.8c1.5,10.4,5.8,20.2,10.9,29.4
				c2.6,4.7,5.7,9.2,8.2,14c3.1,5.6,2.4,11.2,1.3,17.3c-1,5.4,7.4,7.8,8.3,2.3c1-5.3,1.8-10.6,0.9-15.9c-1-5.4-4.2-10.1-7-14.7
				c-6-9.9-11.8-20.3-13.9-31.9c-2.2-12,0.8-24.2,2.2-36.2c1.5-12.3,0.2-24.2-1.6-36.3C41.4,151.1,33,153.5,33.8,158.9L33.8,158.9z"
				/>
		</g>
	</g>
	<g>
		<g>
			<path class="st2" d="M32.4,101.5c-0.2-7.6-0.2-15.4,0.1-23c0.2-5.1,1-16.8,9-15c5.4,1.1,7.8-7.2,2.3-8.3c-9.5-2-17,5-19,14
				c-2.3,10.4-1.2,21.9-1,32.5C23.8,107.1,32.5,107.1,32.4,101.5L32.4,101.5z"/>
		</g>
	</g>
	<g>
		<g>
			<path class="st1" d="M41,126.7c-3.4-0.4-5.9,3.2-5.8,6.3c0.1,3.5,3.1,5.8,6.4,5.4c2.1-0.3,1.2-3.4-0.9-3.2
				c-3.2,0.4-3-5.6,0.3-5.3C43,130.2,43,126.9,41,126.7L41,126.7z"/>
		</g>
	</g>
	<g>
		<g>
			<path class="st1" d="M53.7,127.3c-3.6,0-6.8,3-6.1,6.8s4.5,5.4,8,4.9c2.1-0.3,1.2-3.4-0.9-3.2c-1.6,0.3-3.4-0.4-3.9-2.1
				c-0.4-1.8,1.1-3.1,2.8-3.1C55.8,130.5,55.8,127.3,53.7,127.3L53.7,127.3z"/>
		</g>
	</g>
	<g>
		<g>
			<path class="st1" d="M52.5,81.1c1.1-1.1,2.8-1.2,3.9-0.2c1.1,0.9,2.6-0.6,1.5-1.5c-2.1-1.8-5-1.8-7,0.2
				C50,80.5,51.5,82.1,52.5,81.1L52.5,81.1z"/>
		</g>
	</g>
	<g>
		<g>
			<path class="st1" d="M44.3,79.4c-1.1,0-2.1-0.3-3.2,0.1c-1,0.4-1.8,1-2.3,1.8c-0.7,1.2,1.1,2.3,1.8,1.1c0.9-1.4,2.2-0.9,3.6-0.9
				C45.7,81.5,45.7,79.4,44.3,79.4L44.3,79.4z"/>
		</g>
	</g>
	<g>
		<g>
			<path class="st1" d="M39.4,80.8c-0.1,0-0.1,0.1-0.2,0c0.1,0-0.1-0.1,0,0c-1.1-1-2.5,0.6-1.5,1.5c0.6,0.6,1.5,0.8,2.4,0.5
				c0.5-0.2,0.9-0.8,0.8-1.3C40.6,81,40,80.6,39.4,80.8L39.4,80.8z"/>
		</g>
	</g>
	<g>
		<g>
			<path class="st1" d="M41.4,80.8c0-0.4,0-0.9-0.2-1.3c-0.2-0.5-0.8-0.9-1.3-0.8c-0.5,0.2-1,0.8-0.8,1.3c0.1,0.3,0.1,0.4,0.1,0.8
				c-0.1,0.6,0.5,1.1,1.1,1.1C41,81.9,41.4,81.5,41.4,80.8L41.4,80.8z"/>
		</g>
	</g>
	<g>
		<g>
			<path class="st1" d="M55.7,78.6c0-0.2,0-0.3,0-0.4c0-1.4-2.2-1.4-2.2,0c0,0.2,0,0.3,0,0.4C53.6,80.1,55.7,80.1,55.7,78.6
				L55.7,78.6z"/>
		</g>
	</g>
	<g>
		<g>
			<path class="st1" d="M57,80.8c0.4,0,0.9-0.1,1.3-0.4c1.1-0.7,0.1-2.6-1.1-1.8c-0.2,0.1,0,0.1-0.2,0.1c-0.6,0-1.1,0.5-1.1,1.1
				C55.8,80.3,56.4,80.8,57,80.8L57,80.8z"/>
		</g>
	</g>
	<g>
		<g>
			<path class="st1" d="M53.2,79.8c0,1.2,0.2,2.4,0.4,3.6c0.1,0.6,0.8,0.9,1.3,0.8c0.6-0.2,0.9-0.8,0.8-1.3c-0.2-1-0.3-2-0.3-3
				C55.4,78.4,53.2,78.4,53.2,79.8L53.2,79.8z"/>
		</g>
	</g>
	<g>
		<g>
			<path class="st1" d="M40.6,81.1c-0.1,1.1,0,2.3,0.3,3.4c0.3,1.4,2.4,0.8,2.1-0.6c-0.2-1-0.3-1.8-0.2-2.8
				C42.9,79.8,40.7,79.8,40.6,81.1L40.6,81.1z"/>
		</g>
	</g>
	<g>
		<g>
			<path class="st3" d="M42.2,109.4c1.8-8.5,0.3-16.7-4.2-24.1c-1.5-2.5-3.1-4.8-2.4-7.9c0.5-2.4,1.9-4.6,3.7-6.2
				c3.1-3,7.5-4.5,11.8-4.2c9.1,0.5,15.6,10.7,12.2,19.2c-1.7,4.1-4.9,7.5-6.2,11.8c-1.3,4-1.1,8.2-0.2,12.4
				c0.6,2.7,4.7,1.6,4.2-1.1c-0.7-3.3-0.9-6.8,0.2-10.1c1.1-3.2,3.2-5.6,4.7-8.5c2.1-3.8,3.1-7.8,2.4-12.1
				c-1.4-8.5-8.5-15.4-17.2-15.8c-8.3-0.4-17.1,4.7-19.5,13c-1.4,4.8,0.5,8.4,3,12.5c3.7,6.1,4.9,13.2,3.5,20.3
				C37.5,110.9,41.6,112.1,42.2,109.4L42.2,109.4z"/>
		</g>
	</g>
	<g>
		<g>
			<path class="st3" d="M37,110.8c-7.4,10.6-9.8,24.1-6.2,36.6c2.4,8.2,6,15.1,6.1,23.9c0.1,7.8-1.5,15.4-2.7,23.1
				c-2.2,14-2.1,27.6,2,41.1c3.9,13.2,10.8,25.2,19.5,35.9c1.8,2.2,4.8-0.9,3.1-3.1c-8.8-10.8-15.5-23.3-19.1-36.8
				c-3.7-13.8-2.7-26.9-0.4-40.7c1.1-6.4,2.2-13,2.1-19.5c-0.1-6.7-1.8-12.7-4.1-19c-5.1-13.5-4.7-27.1,3.7-39.2
				C42.3,110.7,38.6,108.5,37,110.8L37,110.8z"/>
		</g>
	</g>
	<g>
		<g>
			<path class="st3" d="M57.9,111.2c3.9,6.2,6.5,13.2,7.3,20.5c0.7,6.7-0.3,13.3-1.2,19.8c-0.8,5.9-1.5,11.8-0.6,17.6
				c1,6.5,4.2,12.2,6.5,18.3c9.7,25,9.9,52.3,7,78.5c-0.4,2.8,4,2.7,4.3,0c3-26.6,2.6-54.4-7.2-79.7c-2.5-6.6-6.1-12.8-6.7-20
				c-0.5-6.9,0.9-13.8,1.8-20.5c1.7-13.1-0.5-25.5-7.5-36.8C60.2,106.6,56.5,108.8,57.9,111.2L57.9,111.2z"/>
		</g>
	</g>
	<g>
		<g>
			<path class="st3" d="M55.7,268.5c-0.3,5.7-0.9,11.4-0.9,17c0,3.1,0.4,6.1,3.5,7.5c8.1,3.5,11.3-8.3,13.3-13.4
				c1.1-2.6-3.2-3.7-4.2-1.1c-0.9,2.2-1.7,4.5-2.6,6.6c-0.4,1.1-1.9,4-3.4,4c-2,0-2.4-3.2-2.3-4.4c0.3-5.4,0.6-10.8,0.9-16.2
				C60.3,265.7,55.9,265.7,55.7,268.5L55.7,268.5z"/>
		</g>
	</g>
	<g>
		<g>
			<path class="st3" d="M52.3,199.2c4.5,13.5,7,27.6,7.5,41.9c0.2,6.1,0.1,12.2,1.5,18.3c1.3,5.8,4.2,11.2,6.9,16.5
				c2.1,4,4.6,8.4,8.5,11c2.7,1.8,7,3.1,9.9,0.9c7.4-5.6-4.8-19.7-8.7-24c-1.8-2.1-4.9,1-3.1,3.1c3.1,3.4,5.7,7.1,7.8,11.2
				c1.1,2,2.9,5.8-0.3,6.5c-1.9,0.4-4.6-2.1-5.7-3.3c-2.8-3.1-4.7-7.1-6.5-10.7c-2.2-4.4-4.2-8.9-5.1-13.7
				c-1.8-9.7-0.9-19.8-2.1-29.6c-1.2-9.8-3.5-19.5-6.6-29C55.7,195.4,51.5,196.6,52.3,199.2L52.3,199.2z"/>
		</g>
	</g>
	<g>
		<g>
			<path class="st3" d="M51.2,199.2c-2.5,9.8-1.3,19.7,1.1,29.5c2.5,10.4,5.4,20.7,8.1,31.1c0.7,2.7,4.9,1.6,4.2-1.1
				c-2.5-9.3-5-18.5-7.3-27.8c-2.5-10-4.5-20.3-1.8-30.5C56.1,197.6,51.9,196.5,51.2,199.2L51.2,199.2z"/>
		</g>
	</g>
	<g>
		<g>
			<path class="st3" d="M34.2,109c-16.1,18.6-15.1,44.5-15.7,67.6c-0.1,3.2-1.4,9.2,2.8,10.7c3.2,1.1,5.9-1.5,6.8-4.4
				c3.7-11.3-0.4-23.7,4.4-35c1.1-2.5-3.1-3.7-4.2-1.1c-3.2,7.6-2.9,15.8-3.2,24c-0.1,2.4-0.2,4.8-0.5,7.2c-0.1,0.7-0.1,2.6-0.6,3.2
				c-0.9,1.1-1,0.8-1.4-0.2c-0.8-1.6,0.2-6,0.3-7.9c0.1-2.6,0.2-5.3,0.3-7.9c0.6-18.5,1.4-38.4,14.1-53.2
				C39.1,110,36,106.9,34.2,109L34.2,109z"/>
		</g>
	</g>
	<g>
		<g>
			<path class="st3" d="M59.3,112c12.8,22.7,21.4,47.4,25.4,73.2c0.7-0.9,1.4-1.8,2.1-2.7c-4,0.2-5.2-5-6.3-7.8
				c-1.1-2.6-2.2-5.4-3.2-8c-2.2-5.4-4.3-10.6-6.5-16c-1.1-2.5-5.3-1.4-4.2,1.1c3.2,8,6.5,16,9.7,23.9c2,5,4,11.3,10.5,11
				c1.5-0.1,2.3-1.3,2.1-2.7c-4-26.2-12.8-51.2-25.8-74.2C61.7,107.3,58,109.5,59.3,112L59.3,112z"/>
		</g>
	</g>
	<g>
		<g>
			<path class="st3" d="M39.3,52.5c-8.9,0.8-14,11.8-16.7,19.1c-3.9,10.7-4.1,22.3-4.2,33.5c0,1.2,1,2.1,2.2,2.2
				c5.3,0.1,10.4,0.2,15.7,0.1c2.8,0,2.8-4.4,0-4.3c-5.3,0.1-10.4,0-15.7-0.1c0.7,0.7,1.4,1.4,2.2,2.2c0.1-9,0.3-18.1,2.4-26.8
				c1-4,2.5-8,4.5-11.7c1.9-3.5,5.2-9.4,9.7-9.8C42.1,56.6,42.1,52.2,39.3,52.5L39.3,52.5z"/>
		</g>
	</g>
	<g>
		<g>
			<path class="st3" d="M40.2,56.9c10.9-1.9,26.7,1.8,30.6,13.6c1.8,5.7,1.9,12.3,2.5,18.2c0.7,6.2,1.4,12.5,2.1,18.7
				c0.5-0.7,1.1-1.4,1.6-2.1c-5.6,1.2-11.1,1.4-16.8,0.5c-2.7-0.4-3.9,3.8-1.1,4.2c6.4,1.1,12.7,0.9,19.1-0.5
				c0.9-0.2,1.7-1.2,1.6-2.1c-1-8.5-1.9-17-2.8-25.5c-0.7-6.2-1-12.9-4.7-18.2c-7.2-10-21.6-13.1-33.2-11
				C36.4,53.2,37.5,57.4,40.2,56.9L40.2,56.9z"/>
		</g>
	</g>
</g>
<g>
	<g>
		<g>
			<path class="st0" d="M154.3,58.9c-2.5-4.5-10.2-9.6-5.9-15.7c2.6-3.7,10.9-7.1,14.5-3.8c1.7,1.5,5.2,5.1,4.5,7.5
				c-0.6,2.2-5,3.8-7,4.8c-1.5,0.7-3,1.4-4.7,1.8c-0.9,0.1-0.8,0.2,0.3,0.4c-0.1-0.4-0.2-0.9-0.3-1.3c0.3-1.2,0.1-1.6-0.5-1.1
				c-0.6,0.2-0.5,0.3,0.1,0.1c1.3,0.9,1.4,0.9,1.6,2.8c0.6,4,5.7,6.2,9.2,5.2c4.3-1.2,5.8-5.2,5.2-9.2c-1.4-9.2-10.5-15.3-19.6-13.4
				c-9.8,2-12.8,11.4-10.4,20.2c2.5,9.5,11.4,13.1,20.4,10c7.7-2.7,17.5-7.5,19.9-16c2.6-8.9-2.9-17.7-9.2-23.5
				c-6.8-6.2-16.3-5.7-24.3-2.2s-14.9,9.4-15.6,18.5c-0.3,4.2,0.1,8.6,1.6,12.5c1.6,4.1,5.1,6.2,7.1,9.8
				C146,74.9,159,67.4,154.3,58.9L154.3,58.9z"/>
		</g>
	</g>
	<g>
		<g>
			<path class="st0" d="M152,58.8c-7-1.5-13.7,0.9-18.2,6.6c-4.6,5.9-6,13.7-7.8,20.8c-1.9,7.5-3.5,15.1-4.5,22.7
				c-0.9,7-1.1,14.4-4.1,20.9c4.6,0.6,9.1,1.2,13.7,1.8c-1.8-6.8-2-13.7-1.9-20.8c0-6.6,0.1-13.2,2.1-19.5
				c3.3-10.4,12.1-18.5,22.4-21.5c9.2-2.7,5.3-17.2-4-14.5c-14.6,4.3-26.4,15-31.9,29.3c-3,7.7-3.5,16.3-3.6,24.5
				c-0.1,8.9,0.1,17.8,2.4,26.5c1.6,5.8,10.9,7.8,13.7,1.8c5-10.8,4.9-22.5,7.1-34.1c1.2-6,2.7-11.9,4.2-17.8
				c0.6-2.2,2.3-13.1,6.3-12.2C157.4,75.3,161.4,60.8,152,58.8L152,58.8z"/>
		</g>
	</g>
	<g>
		<g>
			<path class="st0" d="M144.9,91.6c4.7-6.9,11.6-11.5,19.6-13.7c6.2-1.7,7.3-10.4,1.8-13.7c-1.3-0.8-2.6-1.5-3.9-2.3
				c-1.8-1-3.1-3-0.7,0.3c0.3,1.3,0.7,2.5,1,3.8c0-0.3,0-0.6,0.1-0.9c-0.7,1.8-1.5,3.5-2.2,5.3c0.6-0.7,2.5-1.2,3.5-1.5
				c3.2-1.1,5.5-3.8,5.5-7.2c0.1-5.1-1.2-9.8-4-14.1c-3.6-5.7-14.9-4.1-14,3.8c2.2,19.3,22.8,24.1,33.2,38.1
				c5.5,7.4,6.6,16.1,7.1,25.1c0.6,10.4,1.2,20.7,1.7,31.1c0.4,8,12.9,10.7,14.7,2c3.9-18.6,2.9-38.2-2-56.5
				c-2-7.6-5.2-15.1-10.5-21c-5.9-6.5-14.2-9.4-22.5-11.8c-9.3-2.7-13.3,11.8-4,14.5c5.9,1.7,12.1,3.4,16.2,8.3
				c4,4.8,5.7,11.1,7.1,17c3.4,14.9,4.4,30.5,1.3,45.5c4.9,0.7,9.8,1.3,14.7,2c-0.6-10.4-1.1-20.7-1.7-31.1
				c-0.6-9.4-1.6-18.7-5.9-27.2c-3.7-7.5-9.8-13.8-16.3-19c-3.6-2.9-7.4-5.3-11.1-8.1c-2.8-2.1-6.6-5.1-7.1-8.9
				c-4.7,1.3-9.3,2.5-14,3.8c1.4,2.2,1.9,3.9,1.9,6.5c1.8-2.4,3.7-4.8,5.5-7.2c-5.2,1.8-11.9,4.1-12.3,10.6c-0.4,6.6,6.1,9.2,11,12
				c0.6-4.6,1.2-9.1,1.8-13.7c-11.9,3.2-21.7,10.5-28.6,20.6C126.5,92.1,139.5,99.6,144.9,91.6L144.9,91.6z"/>
		</g>
	</g>
	<g>
		<g>
			<path class="st0" d="M175.2,72.7c11.3-2.2,22.6,5.3,25.5,16.3c3.8,14.7-2.6,30.5-3.5,45.2c-0.6,9.6,14.4,9.6,15,0
				c1.2-19.2,9.3-38.8-0.2-57.3c-7.6-14.7-24.9-21.8-40.8-18.7C161.7,60.1,165.7,74.5,175.2,72.7L175.2,72.7z"/>
		</g>
	</g>
	<g>
		<g>
			<path class="st0" d="M132.5,105.9c-0.1,5.4-4.4,10.2-7.3,14.5c-3.4,5-6.4,10.5-10.9,14.6c4.2,2.4,8.4,4.9,12.5,7.3
				c1.5-9,5.4-17.2,9.5-25.3c3.4-6.8,7.4-13.7,13.7-18.2c11.3-8.1,26.1-8.5,38.8-3.7c8,3,13.2-9.7,5.8-13.7
				c-11.4-6.1-24.4-5.6-37-5.9c1.3,4.7,2.5,9.3,3.8,14c4.4-2,9.6-2,14.1-0.4c1.2,0.4,2.4,1,3.5,1.7c0.6,0.4,1.9,1.8,2.4,1.9
				c1.2,0.2,1.7-1.5,0.5-2.1c-0.6-0.3-4.3,0.2-4.8,0.2c-14.2,0.3-28.5-0.4-42.7-1c0.7,4.9,1.3,9.8,2,14.7c9.2-2.4,18.5-3.6,28-3.2
				c4.2,0.2,8.4,0.6,12.6,1.4c2.2,0.4,4.3,1,6.4,1.7c0.8,0.3,4.3,2.2,4.2,1.5c0-1.3,0-2.7,0-4c3.1-2.7,3.2-3.4,0.4-2.3
				c-0.9,0.2-1.8,0.4-2.7,0.5c-1.8,0.2-3.7,0.3-5.6,0.4c-4.2,0.1-8.4,0-12.6,0c-8.5,0-17.1-0.1-25.6-0.3c0,5,0,10,0,15
				c7.9-0.5,15.8-1.1,23.7-0.3c5.3,0.5,15.6,1.6,16.6,8.3c-0.1,0.5,0,0.5,0.3-0.1c0.7-0.8,0.2-1-1.4-0.5c-1.6-0.3-3.4,0-5-0.1
				c-3.7-0.2-7.5-0.7-11-2.1c-5.2-2-9.9-6.2-10-12.1c-5,0-10,0-15,0c0.2,7.5-0.1,15-0.9,22.5c4.7-1.3,9.3-2.5,14-3.8
				c-1.6-3.2-3.2-6.5-4.8-9.7c-3.9-7.9-15.5-2.2-13.7,5.8c0.8,3.5,2.1,6.7,3.8,9.9c4.7,8.5,17.6,0.9,13-7.6c-1.1-2-1.8-4-2.3-6.3
				c-4.6,1.9-9.1,3.9-13.7,5.8c1.6,3.2,3.2,6.5,4.8,9.7c3.6,7.4,13.3,2.8,14-3.8c0.8-7.5,1.1-15,0.9-22.5c-0.3-9.6-15.2-9.7-15,0
				c0.2,12.1,8.6,21.7,19.5,26c5.8,2.3,12,3.1,18.2,3.3c6.3,0.2,13.1,0.2,17-5.6c7.8-11.5-2.8-24.8-13.5-28.9
				c-12.3-4.7-26.5-3.7-39.4-2.8c-9.6,0.6-9.7,14.8,0,15c13,0.2,26.1,0.7,39.1,0.2c5.3-0.2,11.7-0.5,16.4-3.2
				c4.9-2.9,6.7-8.9,3.6-13.8c-5.7-9.1-21.1-10.8-30.7-11.7c-12.6-1.2-25.4,0.1-37.7,3.3c-8.4,2.2-6.3,14.4,2,14.7
				c11.6,0.5,23.3,1,34.9,1.1c9.3,0,23.5,1.3,26.9-10.1c2.8-9.7-6.7-17.1-14.5-20.3c-9.2-3.8-19-3.1-27.9,1
				c-7.1,3.3-3.1,13.8,3.8,14c9.6,0.2,20.7-0.9,29.5,3.8c1.9-4.6,3.9-9.1,5.8-13.7c-16.2-6-35.9-4.8-50.3,5.2
				c-8.1,5.6-13.8,13.4-18.3,22.1c-5,9.6-10,19.7-11.8,30.5c-1.2,7.2,6.7,12.7,12.5,7.3c5.8-5.4,9.9-12.6,14.2-19.2
				c4.3-6.4,8.2-12.6,8.3-20.5C147.6,96.2,132.6,96.2,132.5,105.9L132.5,105.9z"/>
		</g>
	</g>
	<g>
		<g>
			<path class="st0" d="M162.7,120.2c0,0.1-0.1,0.3-0.1,0.4c-2.5,8.1,9.7,13.3,13.7,5.8c0.9-1.6,1.5-3.1,2-4.9
				c1.1-3.9-1.3-8.2-5.2-9.2c-5.4-1.4-12.3-2.1-17.3-4.8c-1.3,4.7-2.5,9.3-3.8,14c6-0.6,12-0.5,17.9,0.9c4.2,1,10.9,2.4,13.5,6.3
				c5.4,7.9,18.4,0.4,13-7.6c-9-13.2-29.6-16.1-44.4-14.6c-6.9,0.7-10.9,10.1-3.8,14c6.3,3.4,14,4.5,20.8,6.3
				c-1.7-3.1-3.5-6.2-5.2-9.2c-0.2,0.4-0.3,0.8-0.5,1.3c4.6,1.9,9.1,3.9,13.7,5.8c0-0.1,0.1-0.3,0.1-0.4
				C180,114.9,165.5,110.9,162.7,120.2L162.7,120.2z"/>
		</g>
	</g>
	<g>
		<g>
			<path class="st0" d="M139.4,264.7c-1.3,0.1-5.1,0.9-5.7,0.6c1.5,1.1,3,2.3,4.5,3.4c-0.2-0.3-0.3-0.6-0.5-0.8
				c0.3,1.3,0.7,2.5,1,3.8c-0.3-4.3,3.8-8.8,5-12.9c1.6-5.5,1-11.3,0.6-16.9c-0.8-12.8-1.2-25.5-1.4-38.3c-0.1-12.5,0-24.9,0.1-37.4
				c0.1-6.6,0.2-13.1,0.4-19.7c0.1-5.2-0.4-10.8,2.6-15.3c5.4-8-7.6-15.6-13-7.6c-3.8,5.7-4.4,12.3-4.6,18.9
				c-0.2,7.5-0.3,15.1-0.4,22.6c-0.2,15.4-0.4,30.8,0,46.2c0.2,7.5,0.4,15.1,0.8,22.6c0.3,6.4,2.2,14.6,0.4,20.8
				c-1.8,5.8-5.9,10.4-5.5,16.9c0.5,9.1,9.1,8.7,15.7,8c4-0.4,7.5-3.1,7.5-7.5C146.9,268.4,143.4,264.2,139.4,264.7L139.4,264.7z"/>
		</g>
	</g>
	<g>
		<g>
			<path class="st0" d="M150.1,270.8c-0.4-9.3,2.5-18,4.6-26.9c2.2-9,3.5-18.2,5.2-27.3c1.6-8.3,3.4-16.7,6.7-24.5
				c1.5-3.5,3.3-6.8,5.3-10c1.4-2.2,4.3-7.2,7-7.7c-1.3,0-2.7,0-4,0c2.2,0.3,4.4,7.2,5.2,9.3c1.6,4.4,2.7,8.9,3.4,13.5
				c1.5,9,1.5,18.2,1.5,27.3c0.1,9.6,0.2,19.1,1.5,28.6c1.2,8.9,3.1,19.8,8.8,27c5.6,7.2,16.9,8,21.7-0.5c5-8.8-1.6-16.6-5.4-24.1
				c-4.3-8.6-5.3-18-6.5-27.4c-1.3-10.3-3.6-20.3-6.1-30.4c-2.8-10.9-5.2-21.7-5.7-33c-0.5-11.9-0.4-23.9-0.6-35.8
				c-4.9,0.7-9.8,1.3-14.7,2c1.7,11.1,2.1,22.4,1.7,33.6c-0.4,9.7,14.6,9.6,15,0c0.5-12.6-0.4-25.1-2.2-37.6
				c-1.3-8.5-14.8-6.3-14.7,2c0.2,13.7-0.2,27.6,0.9,41.4c1.1,13.9,4.9,27.2,8.2,40.6c3.1,13,3.3,26.6,6.9,39.5
				c1.7,6,4.2,11.8,7.4,17.1c0.2,0.4,2.4,5.2,2.7,5.3c1.1-0.6,2.2-1.1,3.3-1.7c-0.3-0.6-0.7-1.3-1-1.9c-0.7-1.5-1.2-3-1.8-4.6
				c-8-24.2-1.9-50.6-7.1-75.4c-2.1-9.8-6.8-27.1-18.4-29.3c-11.6-2.1-20.6,14.5-24.6,23.1c-6.2,13.5-8.6,27.9-11.1,42.4
				c-2.6,15-8.8,30.1-8.1,45.5C135.6,280.4,150.6,280.5,150.1,270.8L150.1,270.8z"/>
		</g>
	</g>
	<g>
		<g>
			<path class="st0" d="M198.8,202.7c-0.7-27-0.3-54,1-80.9c0.3-5.4-5-7.9-9.5-7.2c-13.6,2.1-22.8,19-27.4,30.6
				c-2.3,5.8-5.9,14.6-2.9,20.7c3.2,6.5,11.7,8.3,18,5.7c6.2-2.5,10.6-9.6,9.2-16.4c-1.7-8.4-10-8.3-16.6-6.1
				c-13.8,4.4-23.2,15-28.4,28.2c-6.3,15.9-7.5,34.2-8.7,51c5,0,10,0,15,0c0.3-16.4,0.9-32.8,1.8-49.1c0.4-7.9,1-15.7,1.6-23.5
				c0.6-7.7,0.7-15.6,3.5-22.8c-4.8,0-9.6,0-14.5,0c2.3,11.2,2.9,22.5,1.9,33.8c-0.7,8.4,13.1,10.3,14.7,2
				c2.3-11.7,7.7-21.9,16.2-30.2c-4.3-1.8-8.5-3.5-12.8-5.3c-0.3,6.7-3.3,12.4-8.2,16.9c4.2,1.1,8.4,2.2,12.5,3.3
				c-1.5-8.7-1.6-17.8-0.2-26.5c-4.9-0.7-9.8-1.3-14.7-2c0.1,1.1,0.3,2.2,0.4,3.4c0.5,4,3.1,7.5,7.5,7.5c3.7,0,8-3.5,7.5-7.5
				c-0.1-1.1-0.3-2.2-0.4-3.4c-0.4-3.7-2.5-6.9-6.5-7.4c-3.4-0.4-7.6,1.6-8.2,5.4c-1.9,11.6-1.8,22.9,0.2,34.5
				c1,5.9,8.8,6.8,12.5,3.3c7.8-7.2,12.1-17,12.6-27.6c0.3-6.7-8.3-9.7-12.8-5.3c-10.2,10-17.3,22.8-20.1,36.8
				c4.9,0.7,9.8,1.3,14.7,2c1.1-12.7,0.2-25.3-2.4-37.8c-1.7-8-12-6.2-14.5,0c-2.8,7.3-3.1,15.2-3.7,22.9c-0.7,8.5-1.3,17-1.8,25.5
				c-1,17-1.6,34.1-1.9,51.1c-0.2,9.7,14.3,9.5,15,0c1-14,2.1-28.5,6.3-42c1.7-5.5,4.2-11,8.2-15.3c2-2.1,4.1-3.9,6.7-5.3
				c1.3-0.8,2.7-1.4,4.1-1.9c0.8-0.3,4.3-1,3.5-1.2c-1.5-1.1-3-2.3-4.5-3.4c0-1.9-0.1-2.4-0.2-1.5c-0.1,0.3-0.4,0.3-0.8,0
				c1.4,4,2.2,4.5,2.4,1.7c0.2-1.1,0.5-2.1,0.8-3.2c1-3.6,2.3-7.2,4.1-10.5c3-5.9,8.1-15.5,15.2-16.6c-3.2-2.4-6.3-4.8-9.5-7.2
				c-1.4,27-1.7,53.9-1,80.9C184.1,212.3,199.1,212.3,198.8,202.7L198.8,202.7z"/>
		</g>
	</g>
	<g>
		<g>
			<path class="st0" d="M193.9,192.8c0.4-11.8-4.3-23.2-12.7-31.4c-6.9-6.7-17.5,3.9-10.6,10.6c5.8,5.6,8.6,12.7,8.4,20.8
				C178.6,202.4,193.6,202.4,193.9,192.8L193.9,192.8z"/>
		</g>
	</g>
	<g>
		<g>
			<path class="st4" d="M162,20.9c-10.8-1.8-22.1,1.3-29,10.1c-7.5,9.7-4.5,20,1.9,29.2c0.6-2.3,1.2-4.6,1.8-6.8
				c-6.4,3.2-12.6,7.1-16.2,13.5c-3.7,6.8-4.1,14.7-4.5,22.2c-1,18.9-1.9,37.7-2.8,56.6c-0.3,6.4,9.7,6.4,10,0
				c0.8-16.2,1.6-32.4,2.4-48.6c0.3-7,0.1-14.4,2-21.2c2.1-7.3,7.7-10.7,14.1-13.9c2.3-1.1,3.3-4.7,1.8-6.8
				c-4-5.8-7.6-11.9-2.5-18.3c4.2-5.3,11.7-7.4,18.3-6.3C165.6,31.7,168.3,22,162,20.9L162,20.9z"/>
		</g>
	</g>
	<g>
		<g>
			<path class="st4" d="M128.7,122.2c1.1,17.9,2.2,35.7,2.8,53.6c0.5,16.7,1.2,33.8-0.6,50.5c-0.8,7.3-2.3,14.7-5,21.5
				c-2.9,7.1-8.6,13.2-9.7,20.9c-0.9,5.8,1,12.3,6.4,15.3c5.4,3,11.6,1.2,15.1-3.6c3.8-5.2-4.9-10.2-8.6-5c-1.7,2.4-3.1-4.1-3.1-4.6
				c0.3-3.2,2.1-5.9,3.7-8.6c3.1-5.2,5.7-10.6,7.5-16.4c3.7-11.7,4.4-24.2,4.7-36.4c0.6-29.1-1.3-58.1-3.1-87.1
				C138.3,115.8,128.3,115.7,128.7,122.2L128.7,122.2z"/>
		</g>
	</g>
	<g>
		<g>
			<path class="st4" d="M174.5,185c4,19.5,8.1,38.9,12.1,58.4c2,9.5,3.3,19.5,6.1,28.9c2.1,7.3,6.9,12.4,14,15.1
				c6,2.3,8.6-7.4,2.7-9.6c-7.8-2.9-8-12.5-9.4-19.5c-1.7-8.4-3.5-16.9-5.2-25.3c-3.5-16.9-7-33.8-10.5-50.6
				C182.9,176.1,173.2,178.7,174.5,185L174.5,185z"/>
		</g>
	</g>
	<g>
		<g>
			<path class="st5" d="M182.1,67.2c13.1,5.9,16.5,20.6,18.1,33.7c1.8,15.3,1.9,30.7,2,46.1c0,6.4,10,6.4,10,0
				c-0.1-17.7-0.2-35.4-3-52.9c-2.2-14.2-8.2-29.2-22.1-35.5C181.3,56,176.2,64.6,182.1,67.2L182.1,67.2z"/>
		</g>
	</g>
	<g>
		<g>
			<path class="st5" d="M187.9,132.8c2.3,25.3,6,50.5,11.1,75.4c2.5,12.2,5.3,24.4,8.5,36.5c1.6,6.2,3.3,12.4,5.1,18.5
				c0.9,3.1,5.5,15.2-1,15.3c-6.4,0-6.4,10,0,10c5.2,0,9.6-3,11.8-7.7c2.7-5.6,1.2-11.7-0.4-17.4c-4.1-14.2-7.9-28.4-11.2-42.7
				c-6.6-28.9-11.2-58.2-13.9-87.8C197.3,126.5,187.3,126.4,187.9,132.8L187.9,132.8z"/>
		</g>
	</g>
	<g>
		<g>
			<path class="st5" d="M165.7,35.5c0.5,3.7,1,7.4,1.4,11.1c0.2,1.6,0.4,3.1,0.5,4.7c0.1,1.9-1.1,3.8,1.4,3.8
				c-6.4,0.1-6.4,10.1,0,10c13.2-0.3,7.5-22.3,6.6-29.6C174.9,29.2,164.9,29.1,165.7,35.5L165.7,35.5z"/>
		</g>
	</g>
	<g>
		<g>
			<path class="st5" d="M128,102.3c0,3.9,0,7.8,0,11.7c0,6.4,10,6.4,10,0c0-3.9,0-7.8,0-11.7C138,95.8,128,95.8,128,102.3L128,102.3
				z"/>
		</g>
	</g>
	<g>
		<g>
			<path class="st5" d="M169.5,175.1c-8.3-3-14,4.6-15.2,11.9c-1.6,9.5-2.4,19.2-3.9,28.7c-3,20-6.6,39.8-10.8,59.6
				c-1.3,6.3,8.3,9,9.6,2.7c3.4-15.9,6.4-31.9,9-48c1.3-7.7,2.4-15.4,3.5-23.2c0.4-3,1.9-23.2,5.1-22
				C172.9,187,175.5,177.3,169.5,175.1L169.5,175.1z"/>
		</g>
	</g>
	<g>
		<g>
			<path class="st5" d="M155.3,40c0,1.7,0,3.3,0,5c0,2.4,3.8,2.4,3.8,0c0-1.7,0-3.3,0-5C159,37.6,155.3,37.6,155.3,40L155.3,40z"/>
		</g>
	</g>
	<g>
		<g>
			<path class="st5" d="M145.9,39.9c0,1.8,0,3.6,0,5.4c0,2.4,3.8,2.4,3.8,0c0-1.8,0-3.6,0-5.4C149.7,37.5,145.9,37.5,145.9,39.9
				L145.9,39.9z"/>
		</g>
	</g>
	<g>
		<g>
			<path class="st3" d="M122.3,65.5c-6.8,5.3-9,13.7-9.9,22c-1.3,11.8-1.2,23.9-1,35.8c0.1,5.8,0.1,11.8,0.7,17.6
				c0.4,3.5,1.4,7.1,4.4,9.2c7.5,5.2,11.8-3.5,12.6-9.6c0.4-3.2-4.6-3.2-5,0c-0.1,1-0.3,3.7-1.2,4.5c-4.6,4.2-5.7-2.8-5.9-4.8
				c-0.4-3.7-0.4-7.4-0.5-11.1c-0.2-7.7-0.2-15.4-0.1-23.1c0.3-11.9-1.1-28.7,9.3-36.9C128.4,67.1,124.8,63.6,122.3,65.5L122.3,65.5
				z"/>
		</g>
	</g>
	<g>
		<g>
			<path class="st3" d="M127.6,100.5c1.6,24.2,2.7,48.4,3.4,72.7c0.4,12,0.6,23.9,0.8,35.9c0.1,11.3,1.2,23.2-0.7,34.4
				c-0.9,5.1-2.7,9.5-5.5,13.8c-2.5,3.8-5.6,7.5-6.6,12c-1.6,7,2.9,12.9,9.6,14.6c7.2,1.9,14.8-1.3,19.6-6.8
				c6.2-7.1,5.9-17.2,6.6-26.1c1-11.7,2-23.5,2.9-35.2c0.5-5.5,0.9-11.1,1.4-16.6c0.5-5.4,0-12.9,4.2-17c6.8-6.8,11.8,3.9,13.1,9.3
				c1.3,5.6,2.4,11.2,3.6,16.8c2.4,11.7,4.5,23.5,5.4,35.5c1.2,15.8-1,41.4,20,45.1c7.1,1.3,14.7-2.4,17.8-9.1
				c3.9-8.4-2.7-17.4-4.9-25.5c-6.7-25.1-10.1-51.6-12.8-77.4c-2.7-26.3-3.9-52.7-3.6-79.2c0-3.2-5-3.2-5,0
				c-0.5,43.4,3.1,86.9,10.8,129.6c1.8,10.3,3.6,20.8,6.6,30.8c1.3,4.4,3.7,8.5,4.8,12.9c1.5,5.7-1.9,10.9-7.4,12.6
				c-11.6,3.6-18.8-9.4-20.1-18.9c-1.4-10.4-0.9-21.1-2.3-31.5c-1.3-10.4-3.3-20.7-5.4-31c-1.7-8-2.2-19-9.1-24.5
				c-5.3-4.2-12.2-2.8-16.2,2.4c-5.2,6.9-4.3,17.8-5,25.9c-0.9,11.1-1.8,22.2-2.8,33.2c-0.4,5.2-0.9,10.4-1.3,15.6
				c-0.5,5.6-0.5,11.8-3.5,16.8c-2.5,4.1-7.1,7.3-11.9,7.7c-4.7,0.4-10.6-2-10.5-7.4c0-4.5,3.9-8.7,6.3-12.2c2.6-3.9,4.5-8,5.6-12.5
				c2.5-10.7,1.5-22.3,1.4-33.3c-0.1-12.3-0.4-24.6-0.7-36.9c-0.7-25.6-1.9-51.1-3.5-76.6C132.4,97.3,127.4,97.2,127.6,100.5
				L127.6,100.5z"/>
		</g>
	</g>
	<g>
		<g>
			<path class="st3" d="M186.5,63.2c16.9,3.2,22,21.3,23,36.2c0.6,8.1,0.6,16.3,0.4,24.5c-0.1,4.1-0.3,8.2-0.6,12.3
				c-0.1,1.9-0.3,3.8-0.5,5.7c-0.1,1.3-0.2,2.5-0.4,3.8c0.1,1.6-0.6,2.9-2,3.8c-0.1-3.2-5.1-3.2-5,0c0.1,3.1,2.4,5.2,5.5,5.1
				c3.8-0.1,5.5-3.6,6.2-6.9c2.3-12.2,2-25.6,1.7-38c-0.5-19.5-3.7-46.7-27.1-51.2C184.7,57.7,183.3,62.6,186.5,63.2L186.5,63.2z"/>
		</g>
	</g>
	<g>
		<g>
			<path class="st3" d="M124.7,69.3c5.5-4.1,11.5-6.8,18.2-8.1c3.2-0.6,1.8-5.4-1.3-4.8c-7.1,1.4-13.7,4.3-19.4,8.6
				C119.7,66.9,122.2,71.3,124.7,69.3L124.7,69.3z"/>
		</g>
	</g>
	<g>
		<g>
			<path class="st3" d="M189.7,59.2c-2.7-0.9-5.4-1.6-8.2-2c-1.1-0.1-8.1,0-8,0.1c-1.9-2.6-6.2-0.1-4.3,2.5c1.7,2.4,3.9,2.1,6.6,2.1
				c4.3-0.1,8.5,0.7,12.6,2.1C191.4,65.1,192.7,60.3,189.7,59.2L189.7,59.2z"/>
		</g>
	</g>
	<g>
		<g>
			<path class="st3" d="M143.9,54.5c-9.1-1.8-11-11.9-7.6-19.4c3.6-7.8,10.5-11,18.8-10.5c7.5,0.4,15,3.9,18.5,10.8
				c3.9,7.7,1.7,16.3-4.4,22c-2.4,2.2,1.2,5.7,3.5,3.5c7.7-7.2,10.2-18.5,5.2-28.1c-4.8-9.4-15.6-13.8-25.8-13.3
				c-10.9,0.6-19.4,7.4-21.9,18.2c-2.2,9.3,2.5,19.6,12.4,21.6C145.7,60,147.1,55.2,143.9,54.5L143.9,54.5z"/>
		</g>
	</g>
</g>
</svg>
