<?xml version="1.0" encoding="utf-8"?>
<!-- Generator: Adobe Illustrator 23.0.3, SVG Export Plug-In . SVG Version: 6.00 Build 0)  -->
<svg version="1.1" id="Calque_1" xmlns="http://www.w3.org/2000/svg" xmlns:xlink="http://www.w3.org/1999/xlink" x="0px" y="0px"
	 viewBox="0 0 259 308.1" style="enable-background:new 0 0 259 308.1;" xml:space="preserve">
<style type="text/css">
	.st0{fill:#EC82AD;}
	.st1{fill:#F2C8DA;}
	.st2{fill:#D3538D;}
	.st3{fill:#B83364;}
</style>
<g>
	<g>
		<g>
			<path class="st0" d="M68.9,108.8c-3.7,0.2-7.4,0.4-11.2,0.4c1.9,3.2,3.6,6.4,5.5,9.5c1.9-4.2,4.9-9.1,4.6-13.8
				c-0.4-4.2-3.7-7.2-7.3-8.9c-6.2-3.1-13.1,4.7-7.7,10l0.1,0.1c2.5,2.5,6.4,2.4,8.9,0c4.8-4.6,0.8-13.8-1.5-18.7
				c-0.6-1.4-1.1,0.2,0.4-1.7c0.7-1.1,1.8-1.9,2.4-3c0.7-1.2,1.2-2.6,1.6-4.1c0.2-0.9,0.4-1.9,0.6-2.7c0.2-0.8,0.3-0.8,0.2,0
				c-1.1,0-2.2,0-3.4,0c7.9,1.3,3.2,19,2,23.6c3.5-1,7.1-1.9,10.6-2.8c-3.7-3.1-5.5-6.6-5.1-11.5c-4,1.1-7.9,2.1-11.8,3.2
				c7.2,10.2,8.8,22.3,9.4,34.4c0.4,8.1,13.1,8.1,12.6,0C79,108.6,77.1,93.9,68.6,82c-3.7-5.2-11.3-3.3-11.8,3.2
				c-0.6,7.8,2.7,15.5,8.8,20.4c3.4,2.8,9.4,2.2,10.6-2.8c1.9-8,3.6-16.5,1.9-24.7c-1.6-7.3-7.8-15.7-16.2-14.4
				c-3.7,0.6-6.4,3-8,6.3c-0.8,1.8-0.9,3.5-1.6,5.3c-0.5,1.3-1.3,2-2.2,3.2c-2.7,3.3-3.7,7.2-2.5,11.3c1.1,4.1,3.4,7.3,3.6,11.7
				c0.6-1.5,1.2-3,1.9-4.5c-0.1,0.1-0.2,0.2-0.4,0.3c3,0,6,0,8.9,0l-0.1-0.1c-2.6,3.4-5.1,6.6-7.7,10c0.5,0.3,1,0.4,1.5,0.8
				c0.7,0.4,0.6,0.4-0.1-0.3c0-1.1,0-2.2,0-3.4c-0.4,2.8-2,5.6-3.2,8.2c-1.8,4.1,0.2,9.7,5.5,9.5c3.7-0.2,7.4-0.4,11.2-0.4
				C77,121.1,77.1,108.4,68.9,108.8L68.9,108.8z"/>
		</g>
	</g>
	<g>
		<g>
			<path class="st0" d="M80.2,120c-0.1-2-0.1-4.2-0.1-6.2c0-1.2,0.9-5.2,0.3-6.2c0.4-1.7-0.7-1.1-3.4,1.5c0.4,0.7,0.8,1.4,1.2,2.1
				c1,1.7,2,3.2,3.7,4.3c1.8,1.2,3.7,1.7,5.8,1.2c0.8-0.3,1.5-0.6,2.3-1c1.8-1.2,1.7-1.3-0.3-0.3c3.2,2.1,7.1,3.8,10.4,5.6
				c1.1-4,2.1-7.9,3.2-11.8c-3,0-5.8-1.8-4.9-5.1c1-3.8,4.1-7,4.9-10.9c0.9-3.8,1.4-8.5,0.7-12.4c-0.9-4.9-4.5-7.9-7.9-11.3
				c-3-2.8-6.3-7.2-10.3-8.5c-4-1.1-8.3,0.4-11.9,2C66.3,66.4,61,74,63.3,82.5c2.1,7.9,14.3,4.5,12.2-3.4c-0.7-2.5,2.2-4.1,4.1-4.9
				c0.9-0.4,1.7-0.6,2.6-0.9c-0.8-0.5-0.8-0.4,0,0.3c1.6,1,3,2.9,4.3,4.2c1.2,1.2,2.5,2.4,3.7,3.6c1.6,1.5,1.5,1.8,1.4,4
				c-0.2,3.2-0.7,5.9-2.3,8.7c-3.4,5.8-5.4,12.2-1.9,18.6c3.2,5.9,9.4,9.1,16,9.1c6.2,0,8.8-8.8,3.2-11.8c-4.2-2.2-8.4-5.1-12.9-6.6
				c-1.9-0.6-4-1-6.1-0.5c-0.9,0.2-1.7,0.4-2.5,0.8s-4.2,2.1-0.7,0.8c1.6,0.2,3.3,0.4,4.9,0.6c1,0.6,0.5,0.8,0-0.4
				c-0.4-0.7-0.8-1.5-1.2-2.1c-1.1-1.7-2.3-3.1-3.9-4.2c-3.5-2.5-8-2.9-11.7-0.4c-6.4,4.3-4.9,15.3-4.8,21.9
				C67.8,128.1,80.5,128.2,80.2,120L80.2,120z"/>
		</g>
	</g>
	<g>
		<g>
			<path class="st0" d="M92.9,100.9c-0.7-4.3-1.4-8.6-2.2-12.9c-0.6-3.7-2.2-8.3-1.9-12c-1.1,1.9-2.1,3.6-3.2,5.5
				c-2.6,1.1-1.9,0.5-0.3,2.3c0.9,0.9,1.6,1.9,2.2,3c1.5,2.6,1.1,2.9-0.9,5.2c-3.8,4.4-8.2,8.2-13.1,11.4
				c-6.8,4.4-0.4,15.4,6.4,10.9c4.9-3.2,9.6-6.9,13.6-11.1c3.8-4,8-8.7,7.8-14.6c-0.4-9.9-12-22.6-22.2-18.1c-2.1,1-2.9,3.4-3.2,5.5
				c-0.4,4.2,1.3,9.4,2,13.6c0.8,4.9,1.7,9.7,2.5,14.6C82,112.3,94.2,109,92.9,100.9L92.9,100.9z"/>
		</g>
	</g>
	<g>
		<g>
			<path class="st0" d="M74.1,95.8c1.4,4.4,5.2,6.4,8.9,8.7c1.7,1.1,3.4,2,5.1,3c0.4,0.3,1.4,0.6,1.9,1c-1-0.8,0.7,1,1.1,1.3
				c2.6,2.2,6.4,2.6,8.9,0c2.3-2.3,2.6-6.7,0-8.9c1.1,1-0.2-0.2-0.5-0.7c-0.5-0.7-1.1-1.1-1.8-1.7c-1.3-1-2.7-1.8-4.2-2.6
				s-2.7-1.6-4.1-2.4c-0.9-0.5-1.7-1.1-2.5-1.6c-0.4-0.2-0.7-0.4-1-0.6c-0.9-0.7-0.8-0.4,0.4,1.1C84,84.7,71.7,88,74.1,95.8
				L74.1,95.8z"/>
		</g>
	</g>
	<g>
		<g>
			<path class="st0" d="M84,125.7c0-1.1,0-2.2,0-3.3c0-0.4,0-2.7-0.2-2.1c-1,1.2-1.9,2.6-2.9,3.8c0.2-0.1,0.4-0.2,0.4-0.3
				c-1.6,0.2-3.3,0.4-4.9,0.6c0.2,0.1,0.4,0.2,0.6,0.2c-1-0.5-1.9-1.1-2.8-1.6c2.8,2.4,4.3,7,5.7,10.2c1.3,3.2,4.2,5.4,7.8,4.4
				c3.5-1,5.1-4.4,4.4-7.8c-0.6-2.9-1.1-5.9-1.8-8.8c-3.1,2.4-6.2,4.8-9.3,7.2c1.7,0.8,2.1,1.1,2.9,2.8c1.4,3.1,5.9,3.9,8.7,2.3
				c3.2-1.9,3.7-5.6,2.3-8.7c-1.5-3.2-4.2-5.9-7.5-7.3c-5.1-2.3-10.4,1.5-9.3,7.2c0.6,2.9,1.1,5.9,1.8,8.8c4.1-1.1,8.1-2.2,12.2-3.4
				c-2.2-5.4-4.5-11.9-9-15.9c-3.3-2.9-8.7-2.6-11,1.3c-1.7,2.8-1,7.1-1,10.2C71.4,133.8,84,133.8,84,125.7L84,125.7z"/>
		</g>
	</g>
	<g>
		<g>
			<path class="st0" d="M77.4,127.8c-5.5,6.2-8.5,13.2-9.3,21.4c4.2-0.5,8.3-1.1,12.5-1.7c-1.3-4.2-2.1-8.5-2.3-12.9
				c-0.1-2.3,0-4.7,0.3-7c0.1-1,0.3-1.9,0.5-2.9c0.3-1.1,1.9-4.8-0.4-1.9c-1.7,2-0.8,1.1,0.9,1.1c0.6,0,1.6-0.2,2.1,0.2
				c1.2,0.6,1.2,2.2,1.6,3.5c1,4.2,2.5,8.2,4.5,12.1c1.2,2.3,4.7,3.9,7.2,2.9c0.9-0.4,3.6,5,4,6c1.2,3.2,1.6,6.6,2,10.1
				c0.4,3.4,2.6,6.3,6.4,6.4c3.1,0,6.7-2.9,6.4-6.4c-0.8-6.8-1.7-13.9-5.5-19.8c-3.4-5.3-9.9-11-16.6-8.5c2.4,1,4.8,1.9,7.2,2.9
				c-2.9-5.5-2.8-12.7-7.1-17.4c-4.3-4.8-12.1-5.7-18-4c-7,1.9-7.4,11.4-7.9,17.3c-0.5,7.3,0.4,14.7,2.6,21.7
				c2.2,7.1,11.8,5.3,12.5-1.7c0.4-4.7,2.5-8.9,5.6-12.4C91.7,130.6,82.8,121.7,77.4,127.8L77.4,127.8z"/>
		</g>
	</g>
	<g>
		<g>
			<path class="st0" d="M121.7,194.6c-0.4-13.8-2.8-27.6-6.5-40.9c-1.8-6.4-4-12.7-6.6-18.8c-2.2-5.1-4.4-12.8-10.7-14
				c-7.9-1.6-11.4,10.6-3.4,12.2c-1.1-0.8-1.2-0.7-0.6,0.2c0.3,0.4,0.4,1,0.7,1.4c0.6,1.2,1.1,2.4,1.7,3.6c1.1,2.4,2,4.9,2.9,7.3
				c1.9,5.2,3.5,10.6,4.9,16c2.7,10.8,4.5,21.8,4.9,32.9C109.3,202.7,122,202.7,121.7,194.6L121.7,194.6z"/>
		</g>
	</g>
	<g>
		<g>
			<path class="st0" d="M72.9,193.9c2-6.9,2.8-14.5-2.6-20c-4.2-4.2-12.4-7.5-13.7-13.8c-1.4-6.7,6.9-12.7,10.9-16.7
				c4.2-4.2,7.9-10.8,13.7-12.9c7.6-2.7,4.3-15-3.4-12.2c-7.2,2.6-11.6,7.9-16.6,13.4c-5.8,6.4-13,11.7-16.1,20.1
				c-3,8.1-0.3,15.7,5.5,21.8c2.7,2.9,5.8,5.2,8.9,7.7c3.4,2.6,2.4,5.3,1.2,9.2C58.3,198.3,70.6,201.7,72.9,193.9L72.9,193.9z"/>
		</g>
	</g>
	<g>
		<g>
			<path class="st0" d="M59.7,147.1c-0.4-2.8,5.8-8.1,7.8-10.2c2.6-2.9,5.6-7.3,9.3-8.9c3.2-1.3,3.8-6,2.3-8.7
				c-1.9-3.3-5.6-3.6-8.7-2.3c-5.7,2.4-10.1,8.7-14,13.2c-4.1,4.6-10.2,10.1-9.4,16.9c0.4,3.4,2.6,6.3,6.4,6.4
				C56.5,153.5,60.1,150.5,59.7,147.1L59.7,147.1z"/>
		</g>
	</g>
	<g>
		<g>
			<path class="st0" d="M69.3,154.7c-0.3,6.4,0.7,12.6,3.1,18.5c2.6,6.8,11.7,5.6,12.5-1.7c1.1-10.4,3.3-20.7,6.1-30.8
				c-4.1,0-8.1,0-12.2,0c2.1,8,3.4,16.2,3.7,24.5c0.3,8.4,0.1,16.8,2.3,25c1.8,6.7,13.2,5.7,12.5-1.7c-2-21.5-2.4-43.1-1.1-64.6
				c0.4-8.1-12.2-8.1-12.6,0c-1.2,21.5-0.9,43.2,1.1,64.6c4.2-0.5,8.3-1.1,12.5-1.7c-2.2-8.1-1.5-16.5-2-24.8s-1.9-16.6-4-24.6
				c-1.6-6.1-10.5-6-12.2,0c-3.2,11.2-5.3,22.6-6.6,34.2c4.2-0.5,8.3-1.1,12.5-1.7c-1.9-5-2.8-9.8-2.6-15.2
				C82.4,146.6,69.6,146.6,69.3,154.7L69.3,154.7z"/>
		</g>
	</g>
	<g>
		<g>
			<path class="st0" d="M87.7,210.4c-0.6,1.3-0.5,1.8,0.4,1.2c0.7-0.3,1.3-0.4,2-0.6c1.6-0.4,3.2-0.8,4.9-1.2c3.9-1,5.9-5.8,3.8-9.3
				c-4.8-7.7-9.5-15.4-12.1-24.1c-2.1-7-12-5.4-12.5,1.7c-0.7,11.6-1.3,23.2-2,34.8c4-1.1,7.9-2.1,11.8-3.2
				c-1.3-2.4-0.6-24.5,1-24.5c8.1-0.2,8.2-12.9,0-12.6c-9.7,0.3-13.2,8.5-13.7,17c-0.4,8.5-2.5,18.9,1.8,26.7
				c3.2,5.8,11.5,2.7,11.8-3.2c0.7-11.6,1.3-23.2,2-34.8c-4.2,0.5-8.3,1.1-12.5,1.7c2.9,9.8,8,18.5,13.4,27.1
				c1.2-3.1,2.6-6.2,3.8-9.3c-7.8,2-19.4,5.5-16.1,16.2C77.9,221.6,90.1,218.2,87.7,210.4L87.7,210.4z"/>
		</g>
	</g>
	<g>
		<g>
			<path class="st0" d="M85.4,162.1c0.4,12.4,3.1,23.9,6.8,35.7c3.8,12.2,6.2,24.9,8.9,37.4c1.8,7.9,14,4.6,12.2-3.4
				c-2.6-12-4.9-24.2-8.4-35.9c-3.4-11.2-6.4-22-6.8-33.8C97.8,153.9,85.2,153.9,85.4,162.1L85.4,162.1z"/>
		</g>
	</g>
	<g>
		<g>
			<path class="st0" d="M95.2,207.8c3.7,17.2,7.3,34.4,11,51.7c2.6,12,4.9,37.3,23.6,31.9c2.9-0.9,4.3-3.3,4.7-6.1
				c0.4-3.6-0.9-6.9-3.1-9.6c-2.1-2.7-5.2-4.2-7.4-6.7c-1.9-2.1-2.4-4.8-3.1-7.4c-1-3.8-1.9-7.6-3-11.4c-1.9-7-4.1-14-6.4-20.8
				c-2.3-6.9-4.6-14-8.5-20.3c-4.3-6.9-15.3-0.5-10.9,6.4c3.5,5.6,5.5,11.8,7.5,18c2.2,6.6,4.2,13.3,6.2,20c1.7,6,2.6,12.6,5.2,18.4
				c1.2,2.7,2.9,5,5.1,7c1.9,1.7,6.1,3.6,5.7,6.4c1.6-2,3.1-4.1,4.7-6.1c-4.2,1.2-5.2-10.2-5.7-12.7c-1.5-6.9-2.9-13.8-4.4-20.7
				c-2.9-13.8-5.9-27.6-8.8-41.3C105.7,196.5,93.4,199.8,95.2,207.8L95.2,207.8z"/>
		</g>
	</g>
	<g>
		<g>
			<path class="st0" d="M97.1,210.2c6.2,17.7,9.9,35.9,10.7,54.7c0.4,8.1,13,8.1,12.6,0c-0.9-19.8-4.6-39.3-11.1-58
				C106.6,199.1,94.5,202.4,97.1,210.2L97.1,210.2z"/>
		</g>
	</g>
	<g>
		<g>
			<path class="st0" d="M106,267.1c-4.9,2.3-9.7,4.8-14.4,7.4c3.1,2.4,6.2,4.8,9.3,7.2c-1.4,1.6-1.7,2.1-0.8,1.4
				c0.3-0.2,0.4-0.4,0.7-0.4c0.6-0.4,1.2-0.8,1.9-1.1c1.2-0.8,2.5-1.5,3.6-2.3c2.8-1.9,5-4.1,7.1-6.9c2-2.7,0.4-7.1-2.3-8.7
				c-3.2-1.9-6.6-0.5-8.7,2.3c-3.5,4.9-12.6,5.7-13.8,12.4c-0.9,5.2,4.2,10.2,9.3,7.2c4.7-2.7,9.5-5.2,14.4-7.4
				c3.1-1.4,3.9-5.9,2.3-8.7C112.8,266.2,109.2,265.7,106,267.1L106,267.1z"/>
		</g>
	</g>
	<g>
		<g>
			<path class="st0" d="M113.8,265.2c-4.4-9.5-11.1-17.5-16.5-26.4c-2.6-4.4-4.7-8.9-5.8-13.9c-1.2-5.2-2.3-10.3-5.1-15
				c-4.2-7-15.1-0.6-10.9,6.4c2.6,4.5,3.1,9.8,4.5,14.7s3.8,9.7,6.4,14.1c5.3,8.9,12.1,17,16.5,26.4
				C106.3,279,117.2,272.5,113.8,265.2L113.8,265.2z"/>
		</g>
	</g>
	<g>
		<g>
			<path class="st0" d="M107.4,272.3c0.5-5.2-1.9-9.9-4-14.5c-2.5-5.4-5.1-10.7-7.9-15.9c-4.8-8.7-10.5-17.6-10.6-27.8
				c-0.1-8.1-12.8-8.2-12.6,0c0.2,10.5,4.5,19.9,9.4,29c2.6,4.7,5.2,9.4,7.6,14.2c2.2,4.3,6,10,5.6,15
				C94,280.5,106.7,280.4,107.4,272.3L107.4,272.3z"/>
		</g>
	</g>
	<g>
		<g>
			<path class="st1" d="M62.8,65.8c-0.5,0.1-1,0.2-1.5,0.2c-1.8,0.3-3.1,2.4-3.1,4.1c0,1.1,0,2.1,0,3.2c0,1.4-0.8,3.9,0.7,2.3
				c1.7-1.8-0.4-0.5-1.3-0.3c-1.1,0.4-2.4,0.5-3.5,0.9c-3.2,1-4.9,2.8-5.1,6.3c-0.3,4.1-0.6,9.1,0.4,13.1c0.4,1.5,1.1,2.8,2.2,3.9
				c0.7,0.7,3.5,1.9,3.8,3c0.2-1.1,0.3-2.2,0.4-3.3c1-1.5-2.2,0.9-2.9,1.2c-1.6,0.9-3.2,1.7-4.8,2.6c-2.6,1.4-2.5,4.6-0.9,6.6
				c1,1.2,2,2.4,3.3,3.4c0.4,0.4,0.9,0.7,1.4,1.1c1.1,1.3,1.9,0.9,2.4-1.3c-5.3,1.1-3.1,9.4,2.2,8.1c3.6-0.8,5.7-4.4,4.9-8
				c-1-4.1-5.7-6.2-8.2-9.3c-0.3,2.2-0.5,4.4-0.9,6.6c4.4-2.3,14.1-5.2,10.5-12.1c-1.1-2.2-4.2-2.8-5.3-4.8
				c-0.6-1.1-0.1-4.4-0.1-5.7c0-1.6-0.4-4.1,0.1-5.5c-0.6,0.9-1.3,1.7-1.9,2.6c2.7-1.9,7-1,9.4-3.6c2.6-2.8,1.6-7.6,1.6-10.9
				c-1.1,1.3-2,2.7-3.1,4.1c0.5-0.1,1-0.2,1.5-0.2C70.4,73.2,68.1,65.1,62.8,65.8L62.8,65.8z"/>
		</g>
	</g>
	<g>
		<g>
			<path class="st1" d="M69,74.1C59.2,75.4,51.7,85,53.8,94.9c1.2,5.7,5,10.5,7.3,15.8c0.6,1.4,1.3,3,1.8,4.5
				c0.6,2.5-0.2,3.6-1.7,5.5c-1.9,2.4-3.8,4.7-5.7,7.1c-6.9,8.8-13.2,19.6-10.8,31.3c1.1,5.6,4.9,9.5,7.6,14.3
				c3.3,5.7,4.8,12.1,4.8,18.7c0,5.5,8.4,5.5,8.5,0c0.1-11.1-4-20-9.9-29.1c-6.9-10.6,0-21.8,6.8-30.5c2.9-3.6,7.2-7.5,8.7-12
				c1.6-4.9-0.7-9.7-2.6-14.1c-2-4.7-6.7-10.1-6.6-15.3c0.1-5.1,4.9-8.2,9.4-8.8C76.6,81.5,74.3,73.4,69,74.1L69,74.1z"/>
		</g>
	</g>
	<g>
		<g>
			<path class="st1" d="M66.4,138.6c-0.8,6.1-0.9,11.6,0.9,17.4c1.9,6.3,3.4,12.5,4.2,19c0.7,6.2,1.3,12.4-0.3,18.5
				c-1.7,6.4-1.3,11.7,0.3,18c1.3,5.3,9.4,3,8.1-2.2c-0.8-3.2-1.6-6.4-1.2-9.5c0.4-2.8,1.5-5.5,1.9-8.3c0.8-5.4,0.2-10.9-0.4-16.2
				c-0.6-5.7-1.5-11.2-3-16.7c-1.7-6.1-3.2-11-2.3-17.5C75.3,135.5,67.2,133.2,66.4,138.6L66.4,138.6z"/>
		</g>
	</g>
	<g>
		<g>
			<path class="st1" d="M70.3,211.8C69.7,222,76.4,233,81,241.6c2.5,4.8,5,9.4,7.4,14.2c2.2,4.6,6,10.7,6.3,15.9c0.4-1,0.8-2,1.2-3
				c0.1-0.1-2.7,1.2-3.6,1.9c-1.7,1.1-3,2.7-4.1,4.4c-2,3.4-2.5,7.2-1.6,11.1c1.2,5.3,9.4,3.1,8.1-2.2c-1.8-7.3,7.9-6.3,8.4-12.3
				c0.3-3.2-1.5-6.6-2.6-9.4c-1.2-3.2-2.6-6.3-4.1-9.4c-3.1-6.4-6.6-12.6-9.8-19c-3.3-6.4-8.2-14.7-7.8-22.2
				C79,206.4,70.5,206.4,70.3,211.8L70.3,211.8z"/>
		</g>
	</g>
	<g>
		<g>
			<path class="st1" d="M98.9,210.3c-0.4-0.4-0.7-0.8-1.1-1.1c-2,2-4,4-6,6c14,13,16,32.2,17.3,50.2c0.4,5.4,8.8,5.5,8.5,0
				c-1.5-20.2-4-41.8-19.8-56.3c-4.1-3.7-9.6,1.9-6,6c0.4,0.4,0.7,0.8,1.1,1.1C96.6,220.4,102.5,214.4,98.9,210.3L98.9,210.3z"/>
		</g>
	</g>
	<g>
		<g>
			<path class="st1" d="M94.9,142.3c8.2,17,9.4,36.1,10.5,54.7c0.4,5.4,8.7,5.5,8.5,0c-1.1-20.1-2.7-40.4-11.7-58.9
				C99.8,133.1,92.6,137.4,94.9,142.3L94.9,142.3z"/>
		</g>
	</g>
	<g>
		<g>
			<path class="st2" d="M94.9,77.6c-0.4,2.2-0.6,4.3-0.1,6.6c0.5,2.1,2.1,3.7,2.6,5.7c0.5,1.9-0.7,3.5-1,5.4
				c-0.4,1.9-0.1,3.8,0.8,5.6c0.7,1.4,1.9,2.5,3.1,3.4c2.2,1.9,1.6,3.4,1.3,6.4c-0.2,1.9-0.7,4,0.1,5.8c0.3,0.7,0.5,1.3,1.1,1.9
				c1.9,2.1,1,0,0.5,0.8c-3,4.6,4.3,8.8,7.3,4.2c3.2-4.9,1.9-8.7-2.6-11.7c0.6,0.9,1.3,1.7,1.9,2.6c-0.5-1.3,0.3-3.8,0.4-5.2
				c0.2-1.9,0.4-3.9-0.1-5.8c-0.9-2.6-3.2-3.5-4.7-5.6c-1.1-1.6-0.2-2.4,0.4-4.3c0.3-1.1,0.4-2.4,0.4-3.5c-0.4-3.6-3.8-6.1-3.1-9.8
				C104,74.6,95.9,72.3,94.9,77.6L94.9,77.6z"/>
		</g>
	</g>
	<g>
		<g>
			<path class="st2" d="M87.3,103.6c-2.3,7-4.9,13.6,1.3,19.3c2.6,2.4,5.7,4.3,8.3,6.8c2.9,2.8,5.3,6.1,7.3,9.6
				c8.9,15.5,8.9,33.9,8.9,51.3c0,5.5,8.5,5.5,8.5,0c0-16.7-0.2-33.8-7-49.4c-2.9-6.7-7-13-12.3-18c-2.5-2.4-6-4.2-8.2-6.7
				c-2.5-2.9,0.3-7.4,1.3-10.7C97.1,100.7,89,98.5,87.3,103.6L87.3,103.6z"/>
		</g>
	</g>
	<g>
		<g>
			<path class="st2" d="M91.3,143.2c-3.6,16.8,1.9,32.6,8.5,48c3.5,8.2,7,16.4,9.4,25.1c2.4,8.4,4.3,17,6.4,25.4
				c1.3,5.3,9.4,3,8.1-2.2c-3.9-15.8-7.7-31.3-14-46.4c-6.4-15-13.8-30.8-10.2-47.4C100.6,140.1,92.4,137.8,91.3,143.2L91.3,143.2z"
				/>
		</g>
	</g>
	<g>
		<g>
			<path class="st2" d="M115.2,241.7c1.8,8.8,3.5,17.7,5.3,26.5c0.7,3.7,1.3,7.5,3.3,10.9c1.6,2.7,4.9,5.4,4.9,8.7
				c0.2,5.4,8.7,5.5,8.5,0c-0.1-3.6-1.5-6.4-3.5-9.4c-2.6-3.5-3.8-6.5-4.6-10.9c-1.9-9.4-3.8-18.8-5.7-28.2
				C122.3,234.1,114.2,236.4,115.2,241.7L115.2,241.7z"/>
		</g>
	</g>
	<g>
		<g>
			<path class="st2" d="M73.1,142.1c-4.1,0-4.4,5.1-3.5,8c1.1,4,4.9,5.6,8.7,5.4c2-0.1,2-3.3,0-3.2c-1.9,0.1-4-0.2-5.1-1.9
				c-0.4-0.6-1.8-5.2-0.1-5.2C75.1,145.3,75.1,142.1,73.1,142.1L73.1,142.1z"/>
		</g>
	</g>
	<g>
		<g>
			<path class="st2" d="M86.3,141.1c-4.2-0.8-7.2,2.4-7.6,6.4c-0.5,5,2.9,7.9,7.4,9.1c1.9,0.5,2.8-2.6,0.9-3.1
				c-2.4-0.6-5-1.7-5.2-4.5c-0.1-2.2,1-5.4,3.7-4.9C87.5,144.5,88.3,141.5,86.3,141.1L86.3,141.1z"/>
		</g>
	</g>
	<g>
		<g>
			<path class="st2" d="M80,91.6c0.6-1.1,3.6-0.6,4.3,0.1c1.5,1.3,3.8-0.9,2.2-2.2c-2.3-2-7.6-2.5-9.4,0.5
				C76.3,91.7,79,93.3,80,91.6L80,91.6z"/>
		</g>
	</g>
	<g>
		<g>
			<path class="st2" d="M80.2,90.2c0,1.2,0,2.5,0,3.7c0,2,3.2,2,3.2,0c0-1.2,0-2.5,0-3.7C83.3,88.2,80.2,88.2,80.2,90.2L80.2,90.2z"
				/>
		</g>
	</g>
	<g>
		<g>
			<path class="st2" d="M85.1,88.7c0-0.4,0-0.8,0-1.1c0-0.8-0.7-1.6-1.6-1.6c-0.9,0-1.6,0.7-1.6,1.6c0,0.4,0,0.8,0,1.1
				c0,0.8,0.7,1.6,1.6,1.6C84.3,90.2,85.1,89.5,85.1,88.7L85.1,88.7z"/>
		</g>
	</g>
	<g>
		<g>
			<path class="st2" d="M86.1,91.4c0.7-0.5,1.3-1.1,1.9-1.8c0.5-0.6,0.7-1.6,0-2.2c-0.5-0.5-1.7-0.7-2.2,0c-0.2,0.3-0.4,0.5-0.6,0.7
				c-0.1,0.1-0.2,0.2-0.4,0.4c0,0-0.4,0.4-0.2,0.2c-0.6,0.5-1.1,1.4-0.5,2.2C84.3,91.5,85.4,91.9,86.1,91.4L86.1,91.4z"/>
		</g>
	</g>
	<g>
		<g>
			<path class="st2" d="M70.3,88.7c-2.9-0.6-6-1-8.3,1.3c0.6-0.1,1.2-0.2,1.9-0.3c-1-0.6-1.9-1.4-2.6-2.3c-1.4-1.5-3.6,0.7-2.2,2.2
				c1,1.1,2,1.9,3.3,2.7c0.6,0.4,1.4,0.3,1.9-0.3c1.4-1.4,3.5-0.9,5.2-0.5C71.4,92.2,72.3,89.2,70.3,88.7L70.3,88.7z"/>
		</g>
	</g>
	<g>
		<g>
			<path class="st2" d="M64.7,89.3c0-0.4,0-0.6,0-1c0-0.8-0.7-1.6-1.6-1.6s-1.6,0.7-1.6,1.6c0,0.4,0,0.6,0,1c0,0.8,0.7,1.6,1.6,1.6
				S64.7,90.2,64.7,89.3L64.7,89.3z"/>
		</g>
	</g>
	<g>
		<g>
			<path class="st2" d="M64.3,90.7c0,1.6,0,3.2,0,4.8c0.1,2,3.3,2,3.2,0c-0.1-1.6-0.1-3.2,0-4.8C67.4,88.7,64.3,88.7,64.3,90.7
				L64.3,90.7z"/>
		</g>
	</g>
	<g>
		<g>
			<path class="st3" d="M68.7,73.9c-8.2,0.8-14.8,7.3-14.8,15.8c0,4.4,1.8,8.7,4.5,12.2c3.4,4.2,11.2,8.4,9,14.7
				c-0.9,2.6,3.2,3.7,4.1,1.1c2.6-7.6-4.1-12.1-8.6-17c-3.4-3.6-5.7-8.8-4.5-13.9c1.2-4.8,5.5-8.3,10.3-8.7
				C71.3,77.9,71.3,73.6,68.7,73.9L68.7,73.9z"/>
		</g>
	</g>
	<g>
		<g>
			<path class="st3" d="M71.2,78.2c5.4-0.4,11.4-0.9,16.2,2.2c4.7,3.1,7,8.7,6.4,14.2c-0.8,8.3-10.8,16-5.4,24.5
				c1.4,2.3,5.1,0.2,3.6-2.1c-3.4-5.5,3.4-12.1,5-17.4c1.4-4.7,1.4-9.8-0.5-14.3C92,74.6,81.4,73.3,71.1,74
				C68.5,74.2,68.5,78.4,71.2,78.2L71.2,78.2z"/>
		</g>
	</g>
	<g>
		<g>
			<path class="st3" d="M67,116.6c-9.3,7.1-17.3,16-22.3,26.6c-2.1,4.5-3.7,9.6-2.8,14.7c1,6,5.3,10,9.4,14.2
				c2.2,2.3,4.6,4.6,6.7,7.1c1.1,1.3,2.7,3,3.2,4.9c0.6,2.6-1.1,4.4-2.1,6.6c-1.3,2.9-0.9,7.2,2.7,8.1c4.2,1.1,7.8-4.3,9.8-7.2
				c3.1-4.3,4.5-9.3,2.6-14.3c-2-5.4-6.6-8.9-11-12.2c-4.4-3.3-7.8-7.2-4.2-12.5c2.3-3.4,4.9-6.7,7.4-10c1.7-2.1-1.3-5.1-3-3
				c-3.4,4.5-9.3,10-10.4,15.6c-1.1,5.1,2.6,9.4,6.4,12.3c4.9,3.9,12.5,8.7,11.3,16.2c-0.4,1.9-1.3,3.6-2.4,5.2
				c-0.4,0.5-3,4.7-3.8,4.6c-3-0.1,0.9-5.6,1.1-7.2c0.5-5.5-4.4-9.9-7.9-13.5c-4.9-5.1-12-10.4-11.7-18.1c0.2-6.7,4.2-13.2,7.9-18.5
				c4.2-6.1,9.4-11.4,15.4-15.8C71.2,118.5,69.2,114.9,67,116.6L67,116.6z"/>
		</g>
	</g>
	<g>
		<g>
			<path class="st3" d="M90.2,118.9c21.6,13.7,26.2,39.9,26.8,63.6c0.1,3,0.4,6.1,0.2,9.1c-0.1,1.4-0.1,4.6-2.4,1.7
				c-0.6-0.8-1-3.5-1.1-4.6c-1.2-5.9-1.2-11.9-2.3-17.8c-1.9-11.1-6.6-21.5-13.4-30.5c-1.6-2.1-5.3,0-3.6,2.1
				c4.7,6.2,8.4,12.9,10.8,20.2c2.4,7.3,2.7,14.8,3.8,22.4c0.5,4,1.1,13.6,6.8,14c4.6,0.4,5.7-4.9,5.7-8.5
				c0.2-27.6-3.6-59.3-29.1-75.5C90,113.7,87.9,117.4,90.2,118.9L90.2,118.9z"/>
		</g>
	</g>
	<g>
		<g>
			<path class="st3" d="M64.9,140.2c-0.9,5.7,0.9,10.7,2.7,16.1c1.1,2.9,1.9,5.9,2.2,9c0.3,2.9,0.3,5.7,1.3,8.5c1,2.5,5,1.4,4.1-1.1
				c-1.8-4.7-1.1-10-2.6-14.7c-1.7-5.4-4.6-10.8-3.6-16.6C69.4,138.7,65.3,137.6,64.9,140.2L64.9,140.2z"/>
		</g>
	</g>
	<g>
		<g>
			<path class="st3" d="M67.6,195.5c-1.8,28.4,19.2,50.6,27.7,76.1c0.4-0.8,0.6-1.6,1-2.4c-4.9,3.2-13.6,6.7-10.7,14.2
				c3.1,7.9,15.4,1.2,20.6-0.4c2.6-0.8,1.5-4.9-1.1-4.1c-2.2,0.7-14,5.8-15.5,2.9c-2.1-4.1,6.6-7.5,8.9-9c0.7-0.5,1.2-1.5,1-2.4
				c-8.5-25.1-29.3-47.2-27.6-75C71.9,192.9,67.8,192.9,67.6,195.5L67.6,195.5z"/>
		</g>
	</g>
	<g>
		<g>
			<path class="st3" d="M94.6,142.8c0.4,8.4,0.8,16.8,2,25.1c1.3,8.5,4.1,16.5,6.9,24.6c6,17,10.2,34.5,14.2,52.1
				c1.9,8.4,3.2,17.3,5.9,25.4c1.1,3.1,2.7,5.2,5.1,7.5c2.9,2.7,8.7,11,0.7,11.1c-4.2,0.1-8.7-2.3-11.6-5.3c-4.1-4.2-4.2-9-4.5-14.5
				c-0.4-7.9-1.5-15.8-3.4-23.5c-2.2-8.7-5.4-17.2-9.4-25.2c-2.9-5.7-6.9-14.3-14.7-12.6c-1,0.2-1.4,1.1-1.6,2
				c-1.1,10,4.1,18.7,8.9,27c5.8,9.8,10.9,19.9,15.4,30.4c1.1,2.5,4.7,0.4,3.6-2.1c-4.1-9.5-8.7-18.7-13.8-27.6
				c-4.9-8.5-11.1-17.2-10-27.6c-0.5,0.7-1.1,1.3-1.6,2c4.8-1.1,7.9,6.7,9.5,10c2.3,4.4,4.3,9,6,13.8c3.1,8.6,5.2,17.5,6.2,26.5
				c0.8,7.5-0.5,16,4.4,22.3c4.2,5.4,11.5,9.4,18.5,8.5c6.5-1,7.7-6,5.3-11.6c-1.4-3.3-3.7-5.2-6.2-7.7c-3.7-3.7-4.2-9.6-5.3-14.6
				c-4.2-18.2-7.9-36.5-13.2-54.3c-2.9-9.7-7.1-19.2-9.5-29.1c-2.7-10.7-3.2-21.8-3.7-32.8C98.8,140.1,94.5,140.1,94.6,142.8
				L94.6,142.8z"/>
		</g>
	</g>
	<g>
		<g>
			<path class="st3" d="M57.1,70.5c-2.7-0.9-5.9-0.7-8.1,1.4c-2.4,2.3-2.1,4.9-1.6,7.7c0.4,2.4-0.3,2.6-1.6,4.5
				c-0.8,1.1-1.2,2.3-1.3,3.7c-0.2,3.4,1.9,6,3.9,8.5c0.3,0.4,1.7,1.7,1.7,2.1c-0.1,0.4-1.2,0.9-1.5,1.2c-0.8,0.8-1.5,1.5-1.8,2.6
				c-0.3,1.2,0.1,2.5,0.7,3.5c0.8,1.2,2.4,1.5,3.2,2.5c1.3,1.8-3.4,3-3.8,5.5c-0.1,0.9,0.3,1.9,0.9,2.6c0.3,0.4,3.6,2,2.9,2.3
				c-1.3,0.5-2.2,2.4-1,3.5c1.3,1.1,2.5,1.8,4.1,2.2c2.6,0.8,3.7-3.3,1.1-4.1c-0.7-0.4-1.4-0.8-2.1-1.1c-0.4,1.1-0.6,2.4-1,3.5
				c1.9-0.7,3.5-1.9,3.7-4c0.3-2.6-1.5-3-2.8-4.6c-1.1-0.4-1.3-0.4-0.6-0.3c0.8-0.6,1.6-1.2,2.4-1.8c0.6-0.5,1.3-1,1.7-1.9
				c0.8-1.9-0.4-3.6-1.9-4.7c-1.4-1.1-3.4-1.2-2.1-3.5c0.4-0.8,1.5-1.2,1.9-2.2c0.8-2.2-0.6-3.9-1.9-5.5c-1.9-2.4-4.7-4.7-2.6-8.3
				c0.6-1.1,1.9-1.7,2.4-2.8c1.2-2.9-2.6-10.8,3.9-8.7C58.6,75.5,59.8,71.4,57.1,70.5L57.1,70.5z"/>
		</g>
	</g>
	<g>
		<g>
			<path class="st3" d="M58.5,69.6c0.1-1,0.5-1.8,1.2-2.5c0.3-0.3,0.5-0.4,0.9-0.6c0.6-0.3,0.7-0.3,0.1-0.2c-0.4-0.4-0.9-0.6-1.2-1
				c-0.3-0.6,0.3,1.1,0.5,1.5c0.4,0.7,1.1,1.2,2,1.6c2.6,1,4.5-0.8,7-0.6c-0.5-0.2-1-0.4-1.5-0.6c0.4,0.3,0.4,1.7,0.9,2.2
				c0.7,0.8,1.4,1.1,2.5,1.1c2.7,0,2.7-4.2,0-4.2c-0.2,0-0.4,0-0.5,0c0.5,0.2,1,0.4,1.5,0.6c-0.4-0.4-0.4-1.6-0.9-2.2
				c-0.6-0.8-1.5-1.1-2.5-1.1c-1.1,0-3.7,1.5-4.6,1.1c-0.3-0.2-0.5-1.4-1-1.9c-1.4-1.4-3.8-0.4-5.1,0.5c-2.1,1.5-3.2,3.6-3.4,6.2
				C54.1,72.3,58.3,72.3,58.5,69.6L58.5,69.6z"/>
		</g>
	</g>
	<g>
		<g>
			<path class="st3" d="M72.1,70c4.1-2.2,8.5-3.4,13.1-3.5c1.9,0,4.3-0.1,6.1,0.5c2,0.8,1.2,1.1,1.1,2.8c-0.1,1.9,0.7,3.3,2.5,4.1
				c1.5,0.7,1.8,0.1,2.6,2c0.4,0.9,0,2,0.5,3c1.1,2.1,2.6,1.4,4.2,2.2c1.2-0.4,1.7,0.1,1.5,1.6c-0.3,1.1-0.4,2.2-0.6,3.3
				c-0.4,2.2-0.8,4.3-1.1,6.5c-0.4,2-0.9,4.2,0.7,5.9c0.7,0.8,1.9,0.9,2.6,1.5c1.6,0.1,1.8,0.7,0.7,1.9c-0.7,0.8-1.3,1.7-2,2.5
				c-0.6,0.8-1,2.2,0,3c0.4,1.1,0.8,2,1.2,3.1c-0.3,1.1,0.4,2.4,1.5,2.6c2.6,0.5,0.7,7.9,0.3,9c-1,2.6,3.1,3.6,4.1,1.1
				c1.7-4.2,2.6-12.9-3.2-14.2c0.5,0.9,1,1.8,1.5,2.6c0.8-2.8,0-5.3-2.3-7.2c0,1,0,2,0,3c1.7-2,5.1-4.9,4.2-7.9
				c-0.4-1.3-1.6-2.1-2.8-2.7c-0.5-0.3-2.1-0.7-2.3-1c-0.5-0.9,0.4-3.6,0.5-4.5c0.6-3.3,3.2-9.4,1.5-12.5c-0.6-1.1-1.7-1.6-3-1.9
				c-2.2-0.4-2.6,0.6-3.2-1.9c-0.3-1.2-0.3-2.3-1.2-3.3c-0.8-0.8-3.2-0.9-3.6-1.5c-0.4-0.6,0.4-2.4,0.3-3.4
				c-0.2-1.2-0.7-2.1-1.8-2.8c-3.1-2.1-8.8-1.9-12.4-1.6c-4.6,0.4-8.9,1.8-13,4C67.5,67.7,69.6,71.3,72.1,70L72.1,70z"/>
		</g>
	</g>
	<g>
		<g>
			<path class="st3" d="M58.4,104.5c-0.8,1.3-1.1,2.6-0.9,4.2c0.3,1.7,1.3,2.1,2,3.4c0-0.7,0-1.4,0-2.1c-1,2-3.3,3.2-2.2,5.7
				c0.4,0.7,0.9,1.1,1.5,1.8c0.2,0.2,0.4,0.4,0.6,0.5c-0.1-0.1-0.3-0.1-0.4-0.2c-0.1,0.4-0.6,1.1-0.8,1.7c-0.9,2.6,3.2,3.7,4.1,1.1
				c0.4-1.4,1.7-2.2,1.1-3.9c-0.4-1.1-1.9-1.7-2.1-2.6c-0.4-0.3-0.3-0.4,0.5-0.2c0.4-0.4,0.7-0.8,1.1-1.2c0.3-0.4,0.5-1.1,0.5-1.6
				c0-1.9-2.6-2.6-1.5-4.4C63.5,104.4,59.8,102.3,58.4,104.5L58.4,104.5z"/>
		</g>
	</g>
	<g>
		<g>
			<path class="st3" d="M97.7,102.6c-1.5,1.6-3.4,3.9-3.1,6.3c0.3,2.6,3.3,3.4,3.7,5.7c0.2,1.1,0.3,2.1,0.5,3.3
				c0.2,1-0.1,1.4-0.1,2.3c0,1.8,1.1,2.7,2.8,2.8c2.7,0.2,2.7-4.1,0-4.2c-0.2,0-0.4,0-0.4,0c0.6,0.4,1.2,0.7,1.9,1.1
				c0.4,0.5,0.1,1,0.4-0.1c0.1-0.4,0.1-1,0.1-1.4c-0.1-1.4-0.5-3.1-0.8-4.6c-0.2-1.1-0.4-1.9-1.1-2.7c-0.4-0.5-0.9-0.9-1.3-1.3
				c-1.1-1.5-0.9-2.6,0.5-4.1C102.6,103.6,99.6,100.6,97.7,102.6L97.7,102.6z"/>
		</g>
	</g>
</g>
<g>
	<g>
		<g>
			<path class="st0" d="M162.9,48c2.5-0.4,0.1-0.4,1.5-2.1c0,0,0.9-0.1,1.1-0.2c2-0.9,6.7-0.2,8.1,1.7c0.6,0.9,0.8,1.9,0.9,3
				c0.1,0.9,0,1.8-0.3,2.6c-1,1.8-0.4,2.3,2,1.3c-0.2,0.5-5.7-6.2-6.1-7.1c0.3,1.3,0.7,2.5,1,3.8c0-0.4,0-0.7-0.1-1.1
				c-0.7,1.8-1.5,3.5-2.2,5.3c0.2-0.3,0.5-0.5,0.7-0.8c-2.4,0.6-4.8,1.3-7.3,1.9c0.3,0,0.6,0.1,0.9,0.1c4,0.6,8-1,9.2-5.2
				c1-3.5-1.2-8.6-5.2-9.2c-7.9-1.1-13.7,5.5-9.8,13.2c2.7,5.3,7.8,10.5,13.2,13c15.7,6.9,22-16.6,16.5-27.2
				c-5.5-10.7-23.9-14.7-33-6.1c-4.7,4.4-6.1,11.9-4.2,17.9c2.4,7.5,9.5,10.7,16.8,9.6c4-0.6,6.2-5.6,5.2-9.2
				C170.9,48.9,166.9,47.4,162.9,48L162.9,48z"/>
		</g>
	</g>
	<g>
		<g>
			<path class="st0" d="M162.8,54.2c0.8,1.1,2.6,3.1,2.6,4.6c0.3-1.3,0.7-2.5,1-3.8c0.9-1.3,0.2-0.3-0.7,0.3c-1,0.6-1.9,1.2-2.9,1.7
				c-2.2,1.2-4.4,2.4-6.7,3.4c-4,1.9-6.4,4.3-8.3,8.2c-4.2,8.8-9,17.8-11.1,27.3c-2.3,10.2-3,20.9-4.3,31.2
				c-1.4,10.8-3.1,21.6-2.8,32.5c0.3,9.6,15.3,9.6,14.9,0c-0.4-11.8,1.7-23.7,3.1-35.4c1.4-11.2,2-22.8,6.2-33.3
				c1.9-4.7,4.2-9.3,6.4-13.9c1-2.2,1.1-2.6,3.3-3.7c2.3-1.1,4.5-2.2,6.7-3.4c4.8-2.7,9.9-5.8,10-12c0-5.4-3.8-10.2-7-14.3
				c-2.5-3.2-7.9-2.6-10.6,0C159.6,46.7,160.3,51,162.8,54.2L162.8,54.2z"/>
		</g>
	</g>
	<g>
		<g>
			<path class="st0" d="M144.4,154.5c1.2-10.8,2.7-22.1,7-32.2c1.9-4.6,4.6-9.9,8.5-13.1c4-3.2,10.2-3.2,15-2.2
				c10.4,2.1,15.1,10.2,18.7,19.5c4.5,11.7,3.4,24.5,2.5,36.7c5,0,10,0,14.9,0c0.9-14.6,0.5-29.3-1.2-43.9
				c-1.7-13.7-3.6-28.3-11.2-40.1C192,68.8,179,58,166.2,64.5c-5.8,3-11.5,8-16,12.7c-4.7,4.9-7.9,10.6-8.1,17.5
				c-0.2,5.8,6.5,9.2,11.2,6.5c6.5-3.7,14.2-4.7,21.5-4.9c7-0.2,14.1,0.5,19.2,5.7c3.5-3.5,7-7,10.6-10.6
				c-8.4-6.8-17.2-13.1-26.5-18.7c-6.6-4-13.6,3.8-10.2,10.2c2.6,5,7.8,8.7,11.5,13c4,4.7,7.5,9.7,10.7,14.9
				c5,8.2,17.9,0.7,12.9-7.5c-3.3-5.3-6.9-10.4-10.8-15.2c-1.9-2.3-3.8-4.5-5.8-6.6c-1.7-1.8-4.4-3.8-5.6-6
				c-3.4,3.4-6.8,6.8-10.2,10.2c8.2,5,16,10.4,23.5,16.4c7.3,5.9,17.6-3.6,10.6-10.6c-7.5-7.4-17.7-10.2-28-10.1
				c-10.5,0.1-21.6,1.7-30.9,7c3.7,2.2,7.5,4.3,11.2,6.5c0.1-4.1,3.9-7.2,6.7-9.7c2.7-2.4,7.6-8,11.6-7.3c3.7,0.6,7.4,5.1,9.4,7.9
				c2.9,4,4.7,8.5,6.1,13.2c6,20.5,6.4,43.3,5.1,64.5c-0.6,9.6,14.2,9.5,14.9,0c1.3-16,1.4-31.7-5.5-46.6
				c-2.7-5.8-5.3-11.4-10.2-15.5c-5.7-4.8-12.4-8-19.8-9c-7.1-0.9-14.9-0.4-21.3,3.2c-6.3,3.5-10.7,9.9-13.9,16.1
				c-6.9,13.4-9,28.4-10.7,43.2c-0.5,4,3.8,7.5,7.5,7.5C141.4,162,144,158.6,144.4,154.5L144.4,154.5z"/>
		</g>
	</g>
	<g>
		<g>
			<path class="st0" d="M142.9,162.1c9.5,4.8,21,5.2,31.5,5c9.8-0.2,21.6-2,26.6-11.8c6.6-12.9-10.8-14.8-19.2-15.2
				c-9.9-0.5-22.5,2.6-31-3.8c-1.3,4.6-2.5,9.3-3.8,13.9c11-1.1,21.9-0.9,32.8,0.9c4.3,0.7,9.5,2.2,13.8,0.9c4.9-1.4,6.6-6,7.1-10.7
				c0.5-4.2,0.8-9.6-2.4-13c-3.4-3.6-9.1-2.9-13.5-2.6c-5.2,0.4-10.5,1.3-15.6,2.2c-3.5,0.6-9.6,2.8-11.3-1.2c0.3,1.3,0.7,2.5,1,3.8
				c0-0.2,0-0.5,0-0.7c-0.7,1.8-1.5,3.5-2.2,5.3c-3,1.4-3.2,1.9-0.5,1.4c1.3-0.1,2.5-0.1,3.8-0.2c2.5-0.1,5,0,7.5,0.1
				c4,0.2,7.8,0.6,11.8,0.1c7.4-0.9,16.2-5.7,19.8-12.6c5.2-9.8-5.4-15.2-13.6-15.7c-9.1-0.6-17.6,3.2-26,5.9
				c-9.1,3-5.2,17.4,4,14.4c4.4-1.4,8.8-3.2,13.3-4.4c1.8-0.5,3.6-0.9,5.5-1c1.3-0.1,4.8,0.8,4.3-0.4c-0.3-1.9-0.5-3.8-0.8-5.8
				c-0.6,2.4-5.9,4.5-8,4.8c-4.5,0.7-9.4-0.3-13.9-0.4c-7-0.1-21.5-0.9-19.6,10.2c1.5,9.2,11.6,12.8,19.8,12.2
				c9.4-0.7,18.8-4.2,28.4-3.1c-1.3-0.3-2.5-0.7-3.8-1c0.3,0.2,0.5,0.3,0.8,0.5c-1.1-1.5-2.3-3-3.4-4.5c0.5,1.4-0.6,4.3-0.1,5.3
				c5.2-2.4,6.4-3.5,3.7-3.5c-0.8,0-1.5-0.1-2.3-0.2c-4.3-0.5-8.6-1.4-12.9-1.9c-9.1-1-18.2-1-27.3-0.1c-7.6,0.8-9.8,9.4-3.8,13.9
				c6.6,5,14.9,5.9,22.9,5.8c4.3,0,8.5-0.2,12.8-0.1c1.8,0.1,3.7,0.2,5.5,0.3c1.2,0.1,2.4,0.2,3.6,0.3c1.9,0.7,2,0.2,0.2-1.5
				c-0.3-1.9-0.5-3.8-0.8-5.8c-1.1,5-13.6,3.9-17.1,3.9c-6.5-0.1-14.1,0-20-3C141.8,144.8,134.3,157.7,142.9,162.1L142.9,162.1z"/>
		</g>
	</g>
	<g>
		<g>
			<path class="st0" d="M166.2,116c-0.5,2.5-0.1,3.2,1.1,2.1c0.9-0.6,1.8-1,2.8-1.3s2-0.6,3-0.7c1.9,0.2,2.2,0,1-0.4
				c1.1-4.2,2.2-8.3,3.3-12.5c-12.9,1.9-29.2,8.4-34.5,21.3c-1.5,3.8,1.7,8.2,5.2,9.2c4.3,1.2,7.7-1.5,9.2-5.2
				c1.3-3.1,7.5-5.7,10.2-7c4.4-2.1,9.1-3.2,13.9-3.9c6.1-0.9,6.5-8.7,3.3-12.5c-6-6.9-18.1-4-24.9,0.1c-8.2,4.9-10.1,13.9-4.1,21.4
				c2.5,3.2,7.9,2.6,10.6,0C169.3,123.5,168.7,119.1,166.2,116L166.2,116z"/>
		</g>
	</g>
	<g>
		<g>
			<path class="st0" d="M139.6,168.1c1.5,5.9,3.8,13.6,8.1,18c2,2.1,5.3,3.3,8.2,2.5s4.5-3.3,6.8-5c3.8-2.8,8.9-4.1,13.6-3.5
				c5.6,0.7,9.9,5.2,15.8,4.1c11.8-2.3,18.2-25.1,3-26.6c-3.2-0.3-6.3,0-9.4,0.9c-3.4,0.9-5.7,0.9-9.2,0.4c-7.3-1-14.6-1-22-0.1
				c-4,0.5-7.5,3.1-7.5,7.5c0,3.7,3.4,8,7.5,7.5c7-0.8,14-0.9,21,0c3.4,0.4,6.7,0.9,10.1,0.3c2.8-0.5,5.8-2.4,8.6-1.3
				c-1.5-1.1-3-2.3-4.5-3.4c0.1,0.2,0.2,0.5,0.3,0.7c-0.3-1.3-0.7-2.5-1-3.8c0,0.7-0.2,1.5-0.2,2.2c-0.1,0.5-0.3,1.1-0.4,1.6
				c0.8-0.1,1.5-0.2,2.3-0.4c0.1-0.3-5.6-2.6-6.3-2.9c-3.9-1.4-8.3-1.9-12.4-1.6c-4.2,0.3-8.1,1.2-12,2.9c-4,1.7-6.5,4.5-9.9,6.8
				c1.9-0.3,3.8-0.5,5.8-0.8c2.6,1.7,3.1,1.6,1.6-0.5c-0.5-1-1-2-1.4-3c-0.9-2.1-1.5-4.4-2.1-6.6
				C151.6,154.9,137.2,158.8,139.6,168.1L139.6,168.1z"/>
		</g>
	</g>
	<g>
		<g>
			<path class="st0" d="M145.6,183.4c1.3,14.8,6.2,28.9,7.3,43.7c0.6,7.6,0.4,15.2,0,22.8c-0.2,3.8-0.5,7.6-0.8,11.4
				c-0.1,1.3-0.2,2.5-0.4,3.8c0.9-1.2,1.8-2.4,2.6-3.7c-0.2-0.3-3.6,1.2-4,1.4c-6.4,2.9-8.5,10.7-4.1,16.4
				c4.5,5.8,12.3,5.3,18.7,3.8c7.5-1.7,11.7-6.4,12.2-14.2c0.5-7.3-3.2-13.5-4.1-20.5c-0.5-4-3.1-7.5-7.5-7.5c-3.6,0-8,3.4-7.5,7.5
				c0.7,5.5,2.6,10.5,3.8,16c0.2,1,0.4,1.9,0.4,2.9c0.1,0.7,0,1.4-0.2,2.1c0.5-0.5,1.1-0.9,1.6-1.4c0,0.1-3.3,0.9-3.6,0.9
				c-0.8,0.2-1.6,0.2-2.4,0.2c-1.3-0.1-1,0.3,0.8,1.1c0,1.3,0,2.6,0,4c-2.8,2.1-3.2,2.8-1.2,2c0.7-0.2,1.4-0.4,2-0.7
				c1.5-0.6,3-1.3,4.1-2.5c2.8-2.7,3-6.2,3.4-9.8c0.9-9.1,1.5-18.3,1.4-27.5c-0.2-17.9-6.1-34.6-7.6-52.2
				C159.7,173.9,144.7,173.8,145.6,183.4L145.6,183.4z"/>
		</g>
	</g>
	<g>
		<g>
			<path class="st0" d="M185.9,178.4c0,5.1,0,10.3,0,15.4c0,8.2,12.9,10.4,14.7,2c0.9-4.4,1.8-8.7,2.5-13.1c0.3-2.2,0.7-4.4,0.6-6.6
				c-0.1-1.5-0.9-3.5-0.7-4.9c0.5-4-3.8-7.5-7.5-7.5c-4.5,0-6.9,3.5-7.5,7.5c-0.4,3.1,0.9,5.9,0.4,9.1c-0.6,3.8-1.4,7.7-2.2,11.5
				c4.9,0.7,9.8,1.3,14.7,2c0-5.1,0-10.3,0-15.4C200.8,168.8,185.9,168.8,185.9,178.4L185.9,178.4z"/>
		</g>
	</g>
	<g>
		<g>
			<path class="st0" d="M181.3,172.9c0.3,12.3,0.7,24.6,1,36.9c0.2,6.4,0.5,12.7-0.1,19.1c-0.6,6-1.7,12-2.4,18
				c-0.7,5.8,0.5,11.6,0.2,17.5c-0.3,5.3-0.6,10.4,4.3,13.8c6.8,4.6,28.9,5.1,24.3-8.2c-3.1-9.1-17.5-5.2-14.4,4
				c0.1,0.2,0.1,0.4,0.2,0.7c0.3-1.9,0.5-3.8,0.8-5.8c-0.1,0.2-0.2,0.4-0.4,0.7c1.5-1.1,3-2.3,4.5-3.4c-0.8,0.2-6-0.4-6.2-0.1
				c1.2,2.8,1.7,3.2,1.6,1.4c0.1-1,0.1-1.9,0.2-2.9c0.2-4.5-0.5-8.9-0.5-13.4c0-8.3,2.5-16.7,3-25c1.1-17.5-0.6-35.5-1.1-53.1
				C196,163.4,181,163.3,181.3,172.9L181.3,172.9z"/>
		</g>
	</g>
	<g>
		<g>
			<path class="st0" d="M188.3,212.1c0.1,3.5-0.3,6.7-1.8,9.9c4.6,1.3,9.3,2.5,13.9,3.8c2-16.8,4.1-33.6,6.1-50.4
				c0.5-4-3.8-7.5-7.5-7.5c-4.4,0-7,3.4-7.5,7.5c-2,16.8-4.1,33.6-6.1,50.4c-0.9,7.4,10.8,10.2,13.9,3.8c2.7-5.6,4-11.2,3.9-17.4
				C203.1,202.5,188.2,202.4,188.3,212.1L188.3,212.1z"/>
		</g>
	</g>
	<g>
		<g>
			<path class="st0" d="M147.6,177.1c-0.4,11.6,0.1,23.2,1.5,34.7c0.5,4,3.1,7.5,7.5,7.5c3.7,0,8-3.4,7.5-7.5
				c-1.4-11.5-1.9-23.1-1.5-34.7C162.8,167.4,147.9,167.4,147.6,177.1L147.6,177.1z"/>
		</g>
	</g>
	<g>
		<g>
			<path class="st1" d="M163,26.6c-14.1,4.2-17.9,22.2-10.4,34c3.5,5.4,12.1,0.4,8.6-5c-3.9-6.1-3.5-17,4.4-19.3
				C171.8,34.4,169.2,24.7,163,26.6L163,26.6z"/>
		</g>
	</g>
	<g>
		<g>
			<path class="st1" d="M147.3,63.9c-1.4,3.7-4.9,6.4-7.3,9.4c-2.2,2.8-4.1,5.9-5.6,9.2c-3.7,8-5.8,16.6-7,25.3
				c-1.2,8.8-1.3,17.7-1.1,26.5c0.2,9.3,0,18.9,2.5,27.8c1.8,6.1,11.4,3.5,9.6-2.6c-2.4-8.3-2.1-17.4-2.2-26.1
				c-0.1-8.7-0.1-17.6,1.3-26.3c1.2-8,3.3-16.1,7.3-23.2c3.5-6.3,9.4-10.6,12.1-17.5C159.3,60.6,149.6,58,147.3,63.9L147.3,63.9z"/>
		</g>
	</g>
	<g>
		<g>
			<path class="st1" d="M137.4,147c-1.2,12.9,3,25.1,6.5,37.4c3.7,12.9,5.9,26,6.7,39.3c0.4,6.4,10.4,6.4,10,0
				c-0.8-13-2.8-25.8-6.1-38.4c-3.4-12.6-8.3-25-7.1-38.3C148,140.6,138,140.7,137.4,147L137.4,147z"/>
		</g>
	</g>
	<g>
		<g>
			<path class="st1" d="M151.5,228.8c1.4,7.6,2.4,15.3,2.9,23c0.2,3.1-0.5,7.9,0.4,10.8c-0.5,2.3,0,2.6,1.4,0.8
				c1.8-1.2,1.8-1.5-0.1-1c-1.4,0-2.8,0.5-4.1,1c-10.1,3.7-13.8,17.2-3.9,23.5c5.4,3.4,10.4-5.2,5-8.6c-2.1-1.3-0.7-3.7,0.7-4.7
				c1.9-1.4,3.8-1.1,5.8-1.6c4.8-1.3,5.1-6,5-10.2c-0.2-11.9-1.5-23.8-3.7-35.5C160,219.9,150.4,222.6,151.5,228.8L151.5,228.8z"/>
		</g>
	</g>
	<g>
		<g>
			<path class="st1" d="M172.3,178.1c7.3,12.7,8.8,27.3,8.8,41.7c0.1,16.4-1,32.9-3.6,49.2c-1,6.3,8.6,9,9.6,2.6
				c2.9-17.7,4.2-35.6,4-53.5c-0.2-15.6-2.3-31.4-10.2-45.1C177.7,167.5,169.1,172.5,172.3,178.1L172.3,178.1z"/>
		</g>
	</g>
	<g>
		<g>
			<path class="st1" d="M192.3,100.7c0.9,14.8,1.8,29.7,2.7,44.5c0.5,7.9-1,29.2,10.6,30.1c6.4,0.5,6.4-9.5,0-10
				c-0.3,0-0.5,0-0.8-0.1c1.2,0.5,2.3,1,3.5,1.5c-3-3-2.6-9.9-2.9-13.8c-0.4-5.8-0.7-11.6-1.1-17.4c-0.7-11.6-1.4-23.2-2.1-34.8
				C201.9,94.3,191.9,94.3,192.3,100.7L192.3,100.7z"/>
		</g>
	</g>
	<g>
		<g>
			<path class="st2" d="M180.3,44.9c0.4,6.7-1.9,12.3-6.9,16.8c-3,2.7-1.1,7.2,2.2,8.3c16.2,5.6,24,22.3,27.3,37.9
				c1.9,9,2.7,18.3,3.4,27.4c0.7,9.8,0.8,19.6-1.7,29.2c-1.6,6.2,8,8.9,9.6,2.6c2.8-10.7,2.9-21.8,2-32.8c-0.9-10.9-1.9-22-4.5-32.7
				c-4.5-18.1-15.2-35.1-33.5-41.4c0.7,2.8,1.5,5.5,2.2,8.3c6.8-6.1,10.4-14.8,9.8-23.8C189.9,38.5,179.9,38.5,180.3,44.9
				L180.3,44.9z"/>
		</g>
	</g>
	<g>
		<g>
			<path class="st2" d="M137.8,110.5c0,9.4,0,18.9,0,28.3c0,6.4,10,6.4,10,0c0-9.4,0-18.9,0-28.3
				C147.8,104.1,137.8,104.1,137.8,110.5L137.8,110.5z"/>
		</g>
	</g>
	<g>
		<g>
			<path class="st2" d="M194.9,176.1c-0.4,28.6-0.7,57.1-1.1,85.7c-0.1,6.4,9.9,6.4,10,0c0.4-28.6,0.7-57.1,1.1-85.7
				C205,169.7,195,169.7,194.9,176.1L194.9,176.1z"/>
		</g>
	</g>
	<g>
		<g>
			<path class="st2" d="M196.2,258.7c-0.1,0-0.2,0-0.3,0c-1.3,0-2.6,0.6-3.5,1.5s-1.5,2.3-1.5,3.5c0.1,1.3,0.5,2.6,1.5,3.5
				s2.2,1.5,3.5,1.5c0.1,0,0.2,0,0.3,0c1.3,0,2.6-0.6,3.5-1.5s1.5-2.3,1.5-3.5c-0.1-1.3-0.5-2.6-1.5-3.5
				C198.8,259.3,197.6,258.7,196.2,258.7L196.2,258.7z"/>
		</g>
	</g>
	<g>
		<g>
			<path class="st2" d="M196.9,270c0.6-0.2,0.4-0.3,0.8,0c0.3,0.2,0.6,0.4,1,0.8c0.5,0.6,1,1.5,1.3,2.3c0.1,0.3,0.3,0.6,0.4,1
				c0.3,0.7,0,1.4,0.3,0c-0.5,2.6,0.7,5.4,3.5,6.1c2.4,0.7,5.6-0.8,6.1-3.5c0.8-4.4-1.3-9.2-4.1-12.5c-2.9-3.4-7.5-5.1-11.9-3.8
				C188.1,262.3,190.7,271.9,196.9,270L196.9,270z"/>
		</g>
	</g>
	<g>
		<g>
			<path class="st2" d="M171.2,43.3c0,1.3,0,2.5,0,3.8c0,1.6,2.5,1.6,2.5,0c0-1.3,0-2.5,0-3.8C173.7,41.7,171.2,41.7,171.2,43.3
				L171.2,43.3z"/>
		</g>
	</g>
	<g>
		<g>
			<path class="st2" d="M163.2,43c0,1.3,0,2.7,0,4c0.1,1.6,2.6,1.6,2.5,0c-0.1-1.3-0.1-2.7,0-4C165.7,41.4,163.3,41.4,163.2,43
				L163.2,43z"/>
		</g>
	</g>
	<g>
		<g>
			<path class="st3" d="M156.9,56c-3.7-6.4-8.2-14.9-1.7-21.1c4.9-4.7,13.6-6.1,20-4.4c6.5,1.8,11.6,7,12.2,13.9
				c0.6,7.1-3.4,13.3-8.2,18.1c-2.3,2.3,1.2,5.8,3.5,3.5c6.3-6.3,11-14.7,9.4-23.9c-1.5-8.7-8.7-15.2-17.2-16.8
				c-8.4-1.6-19,0.8-24.6,7.7c-6.5,8-2.1,17.8,2.4,25.5C154.2,61.3,158.5,58.8,156.9,56L156.9,56z"/>
		</g>
	</g>
	<g>
		<g>
			<path class="st3" d="M154.2,59.4c-32,15.2-28,57.5-27.8,86.7c0,6.5-1.5,15.7,3.5,20.9c3.5,3.6,9.7,4,12-1
				c1.4-3.2,1.4-7.6,1.8-11.1c0.6-5.2,1.2-10.4,1.5-15.6c0.7-9.8,0.9-19.6,0.8-29.4c-0.1-3.2-5-3.2-5,0c0.2,14.4-0.4,28.8-2.1,43.1
				c-0.3,2.4-0.6,4.8-0.9,7.1c-0.4,2.4,0.3,3.3-2.6,3.4c-3.3,0.1-3.7-2.4-4-5.3c-0.2-1.7-0.1-3.5-0.1-5.3
				c-0.1-7.1-0.1-14.2-0.2-21.3c-0.2-24.2,0-55.8,25.4-68C159.6,62.3,157.1,58,154.2,59.4L154.2,59.4z"/>
		</g>
	</g>
	<g>
		<g>
			<path class="st3" d="M183.9,67.2c9.1,2.1,15.1,11.5,18.6,19.5c3.6,8.2,5,17.3,6.3,26.2c1.5,10.1,1.7,20.1,1.4,30.3
				c-0.2,5.5-0.5,10.9-1.3,16.4c-0.3,2.2-0.4,5.5-1.4,7.4c-0.9,1.7-1.6,2.1-3.3,2.9c0.8,0,1.7,0,2.5,0c-1.8-1-2.5-5.2-2.9-7.1
				c-0.6-2.8-0.7-5.7-0.9-8.5c-0.3-5.9-0.6-11.8-1.1-17.7c-0.9-11.2-2.4-22.3-5.5-33.1c-0.9-3.1-5.7-1.8-4.8,1.3
				c2.9,10.1,4.4,20.4,5.2,30.8c0.7,8.6,0.6,17.5,1.8,26c0.7,4.6,2.7,15.1,9.2,12c6.4-3,5.9-11.9,6.6-18.2c2-19.4,0.9-38.8-3.2-57.9
				c-2.9-13.5-11-31.8-25.9-35.2C182.1,61.7,180.8,66.5,183.9,67.2L183.9,67.2z"/>
		</g>
	</g>
	<g>
		<g>
			<path class="st3" d="M137.8,162.5c3.9,16.6,8.3,33.1,11.5,49.9c3.3,17.5,4.3,35.5,6.1,53.2c0.8-0.8,1.7-1.7,2.5-2.5
				c-8,0.2-19.6,6-17.2,15.8c2.3,9.8,18.2,7.8,25.3,6.4c4.3-0.8,7.8-1.9,9.9-6.1c2.7-5.2,2.5-11.3,1.5-16.9
				c-1-5.8-2.8-11.5-3.8-17.4c-1.2-7.4-1.6-15-2.3-22.4c-0.6-6.8-1.2-13.5-1.9-20.3c-0.5-5.6-3.5-17.5,2.5-20.9
				c7.6-4.3,7.9,13.9,8.2,17.3c0.5,7,0.6,14,0.3,21c-0.5,14.1-2.3,28.1-3.7,42.1c-1,9.7-2.5,20.3,9.8,22.1c6.1,0.9,13.1,0.8,19-1.1
				c2.8-0.9,7.4-2,8.6-5.1c4.1-10.3-11.6-14.8-18.4-16.4c-3.1-0.7-4.4,4.1-1.3,4.8c4.3,1,9,2.3,12.7,5c1.3,1,3.6,3.2,1.9,5
				c-0.9,1-4.5,1.8-5.7,2.1c-4.8,1.4-10.4,1.4-15.4,0.8c-3-0.3-6.1-1.3-6.9-4.6c-0.7-2.7,0.1-6.1,0.4-8.8c2.1-21.9,5.3-43.9,3.8-66
				c-0.5-6.6,0-18-6.1-22.4c-5.2-3.7-11.9,0-14.2,5.2c-1.8,4.1-1.4,8.8-1,13.1c0.5,5.8,1.1,11.6,1.6,17.4c1,10.5,1.6,21.2,3.1,31.6
				c1.2,8.2,10.6,30.6-0.4,35.2c-5,2-13.8,2.6-18.9,0.9c-4.4-1.5-4.4-5.2-1.8-8.4c2.6-3.1,6.6-4.1,10.4-4.2c1.2,0,2.6-1.1,2.5-2.5
				c-1.7-17.5-2.8-35.3-5.9-52.7c-3.1-17.4-7.8-34.6-11.8-51.8C141.9,158,137.1,159.4,137.8,162.5L137.8,162.5z"/>
		</g>
	</g>
	<g>
		<g>
			<path class="st3" d="M197.1,262.2c0.8-7.5,1.5-15.1,2.3-22.6c0.8-7.2,2.7-14.1,3.6-21.3c0.9-7.6,1.1-15.2,2.2-22.8
				c1-7.3,2.1-14.7,3.2-22c0.4-3.1-4.3-4.5-4.8-1.3c-2.1,14.8-4,29.6-5.4,44.5c-0.7,7.1-2.7,13.9-3.6,21c-0.9,8.2-1.7,16.4-2.5,24.5
				C191.7,265.4,196.7,265.4,197.1,262.2L197.1,262.2z"/>
		</g>
	</g>
</g>
</svg>
