<?xml version="1.0" encoding="utf-8"?>
<!-- Generator: Adobe Illustrator 23.0.3, SVG Export Plug-In . SVG Version: 6.00 Build 0)  -->
<svg version="1.1" id="Calque_1" xmlns="http://www.w3.org/2000/svg" xmlns:xlink="http://www.w3.org/1999/xlink" x="0px" y="0px"
	 viewBox="0 0 259 308.1" style="enable-background:new 0 0 259 308.1;" xml:space="preserve">
<style type="text/css">
	.st0{fill:#F4A776;}
	.st1{fill:#FBD8C5;}
	.st2{fill:#C5774F;}
	.st3{fill:#936645;}
	.st4{fill:#EC82AD;}
	.st5{fill:#F2C8DA;}
	.st6{fill:#D3538D;}
	.st7{fill:#B83364;}
</style>
<g>
	<g>
		<g>
			<path class="st0" d="M158,54.9c-2.5,0-5.1,0-7.6,0c-1,0-1.9,0-2.9,0c-2.3-0.2-1.5,0.6,2.5,2.5c-0.6,0.5,0-3.4,0.2-3.7
				c2.3-3.9,10.7-5.6,14.7-3.8c2,0.9,3.1,3.2,3.7,5.3c0.4,1.5,0.5,2.5,0.5,4.1c0,1.1,0,2.3-0.1,3.4c0.9-0.8,1.1-1.4,0.6-1.9
				c0.4,0.7-7.1,0.7-7.9,0.5c-0.4-0.1-3.1-1.5-3.2-1.5c-0.1-0.2-0.3-0.3-0.4-0.5c-0.2,0.6,0,1.1,0.3,1.5c-0.9,1.5-1.7,2.9-2.6,4.4
				c0.3-0.3,0.6-0.6,0.9-0.8c-1.5,0.9-2.9,1.7-4.4,2.6c-1.7,0.6,3.2-0.6,2.8-0.3c-0.7,0.5-1.7-3.1-0.4,0.7
				c2.5,7.3,14.4,10.9,18.3,2.4c1-2.1,1.9-4.2,2.3-6.5c0.9-5.3-1.4-10.8-7-12.3c-4.8-1.3-11.4,1.6-12.3,7c-0.2,0.6-0.3,1.1-0.2,1.7
				c6.1,0.8,12.2,1.6,18.3,2.4c-3.1-9.1-8.9-15.2-19-15.4c-9-0.2-16.9,4.5-16.6,14.5c0.6,19.1,26.9,24.5,40.8,17.1
				c15.8-8.4,11.6-33.2-0.5-43.1c-12.5-10.3-34.7-6.7-44.2,6.2c-5.2,7.1-6.7,17-2.4,24.9c5.4,10.1,16.1,8.6,25.9,8.5
				C170.9,74.8,170.9,54.8,158,54.9L158,54.9z"/>
		</g>
	</g>
	<g>
		<g>
			<path class="st0" d="M164,71c-18.7-6.9-33.3,9.5-39.9,24.9c-7.7,18-13.4,36.4-10.1,56.1c1.8,11.2,20,8.5,19.6-2.7
				c-0.3-9.1-0.6-18.1-0.2-27.2c0.3-6.7,0.6-14.5,4.2-20.3c3.6-5.7,11-8.1,17.2-9.8c8.2-2.3,16.6-3.2,25.2-2.9
				c14.5,0.4,27.3,4.8,35,17.7c8.1,13.5,7.1,29.7,2.1,44.2c4.9-2,9.8-4,14.7-6c-14.3-9.3-32.1-8.2-48.4-10c-8.7-0.9-17.4-2.4-26-4.3
				c-6.6-1.4-15.3-2.3-20.3-7.3c-2.4,5.7-4.7,11.4-7.1,17.1c32.1-1.6,64.1,0.3,96.1,2.3c11.2,0.7,13.7-17.3,2.7-19.6
				c-14.3-3-28.6-6-42.8-9c-12.6-2.6-26.6-4.1-38.3-9.6c-1.7,6.2-3.4,12.4-5,18.6c27-3.4,54.6-3.7,81.7,0c4.5,0.6,8.8-0.4,11.3-4.6
				c2.3-3.9,1.5-8.8-1.6-12.1c-9.5-10.3-20.6-20.5-35.4-21.4c-8.3-0.5-16.5,2.2-24.6,3.6c-3.6,0.6-7.1,1-10.7,1.4
				c-1.9,0.2-3.8,0.3-5.8,0.4c-1.3,0.1-2.6,0.1-3.8,0.2c-2.4-0.2-2.6,0-0.5,0.6c1.2,1.2,2.4,2.4,3.6,3.6c-0.2-0.3-0.4-0.6-0.7-1
				c0.5,1.7,0.9,3.4,1.4,5c0,0.3-0.1,0.6-0.1,0.9c-0.9,1.5-1.7,2.9-2.6,4.4c-0.7,0.7-1.4,1-2.3,1c5.4-0.5,10-4.2,10-10
				c0-5-4.6-10.5-10-10c-4.8,0.4-9.6,1.8-12.6,5.9c-3.5,4.8-3.1,11.5,1.2,15.8c4.1,4.1,10.2,3.9,15.5,3.6c5.7-0.3,11.4-0.9,17-1.7
				c5.1-0.7,10.1-1.6,15.1-2.6c4.2-0.9,8.2-1.7,12.4-0.5c7.7,2.2,13.6,9.3,18.8,14.9c3.2-5.6,6.5-11.1,9.7-16.7
				c-29-3.9-58-4.4-87-0.7c-4.4,0.6-8.4,2.7-9.6,7.3c-1.1,4,0.6,9.4,4.6,11.3c13,6.1,27.2,8.3,41.1,11.2c14.9,3.1,29.8,6.3,44.8,9.4
				c0.9-6.5,1.8-13.1,2.7-19.6c-32-2-64.1-3.9-96.1-2.3c-8.5,0.4-13.4,10.7-7.1,17.1c5.9,5.9,13.6,8.8,21.5,10.7
				c9.4,2.3,18.9,4.1,28.5,5.4c9.3,1.3,18.6,2,28,2.7c7.3,0.6,14.4,1.8,20.7,5.8c5.7,3.7,12.7-0.2,14.7-6
				c10-28.8,3.3-65.8-26.1-80.6c-15.2-7.6-33.7-7.8-50.1-5.3c-15.1,2.3-32.9,8.2-40.5,22.7c-8.8,16.6-6.6,38.2-6,56.3
				c6.5-0.9,13.1-1.8,19.6-2.7c-2.1-13,2.4-26.4,7.2-38.3c2.8-7.1,8.3-21.8,18.3-18.1c5.1,1.9,11-2.1,12.3-7
				C172.5,77.7,169.1,72.9,164,71L164,71z"/>
		</g>
	</g>
	<g>
		<g>
			<path class="st0" d="M125.1,141.1c0.1,10.8,2.8,21.3,8,30.8c2.7,4.9,6.2,9.4,10,13.4c0.5,0.5,1.3,1,1.6,1.6
				c-0.8-1.3-0.2,0.9-0.2,1.8c0,3.3,0,6.5,0,9.8c0,12.4,0.1,24.8,0,37.2c-0.1,10.6-2.2,20.7-9.1,29.1c-3.4,4.2-4.1,10.1,0,14.1
				c3.5,3.5,10.7,4.2,14.1,0c8.3-10.1,13.3-21.6,14.6-34.7c1.3-13.1,0.4-26.7,0.4-39.9c0-6.3,0.4-12.6-0.1-18.9
				c-0.5-7.4-4.8-11.3-9.4-16.6c-6.6-7.7-9.9-17.7-10-27.7C145,128.2,125,128.2,125.1,141.1L125.1,141.1z"/>
		</g>
	</g>
	<g>
		<g>
			<path class="st0" d="M139.8,150c-1.4,9.5-0.3,17.7,3.7,26.4c1.6,3.5,6.4,5.3,10,4.8c4.2-0.6,6.8-3.3,8.3-7.2
				c-0.5,0.7-1,1.4-1.5,2c-1.7,0.5-3.4,0.9-5,1.4c0.4,0,0.9,0,1.3,0c-1.7-0.5-3.4-0.9-5-1.4c0.4,0.2,0.7,0.4,1.1,0.6
				c-1.2-1.2-2.4-2.4-3.6-3.6c-1-1.9,0.2,2.8,0.2,2.9c0.2,1.5,0.5,3,0.7,4.5c0.6,4.5,2.7,8.4,7.3,9.6c4.2,1.1,9.2-0.7,11.3-4.6
				c1.3-2.4,7.4-3.4,8.7-2.7c0.8,0.4,4.2,4.2,5.8,5.6c2.8,2.5,5.5,5.1,8.3,7.6c6,5.5,13.9,2.5,16.7-4.4c2.7-6.5,4-14,0.3-20.4
				c-1.6-2.9-4-5-6.7-6.8c-1.8-1.2-3.9-1.9-5.3-3.5c-0.7,5.2-1.3,10.5-2,15.7c3.3-1.8,6.5-3.6,9.8-5.3c9.1-5,4.5-18.2-5-18.6
				c-16.7-0.8-33.5-0.8-50.2,0.1c0,6.7,0,13.3,0,20c5.9-0.8,11.7-0.8,17.6,0c5.4,0.7,10-5.1,10-10c0-6-4.6-9.3-10-10
				c-5.9-0.7-11.7-0.7-17.6,0c-5.4,0.7-10,4.1-10,10c0,5.2,4.6,10.3,10,10c16.7-0.8,33.5-0.8,50.2-0.1c-1.7-6.2-3.4-12.4-5-18.6
				c-3.3,1.8-6.5,3.6-9.8,5.3c-5.9,3.2-6.2,11.1-2,15.7c1.4,1.6,3.1,2.9,4.9,4c0.6,0.4,3.3,2.4,3.9,2.3c0.6,0.2,0.7,0.3,0.5,0.4
				c-0.7-2-1-2.5-0.7-1.4c-0.3,0.1-1.8,5.5-2,6.1c5.6-1.5,11.1-2.9,16.7-4.4c-8.2-7.5-16.6-18.8-28.6-19.1
				c-9.9-0.2-20.7,3.4-25.6,12.6c6.2,1.7,12.4,3.4,18.6,5c-0.9-7.2-0.7-17.2-7.7-21.4c-8.8-5.2-16.5,1.7-19.6,9.6
				c6.1-0.8,12.2-1.6,18.3-2.4c-1.5-3.3-2.2-7.3-1.7-11c0.8-5.3-1.3-10.7-7-12.3C147.3,141.7,140.6,144.6,139.8,150L139.8,150z"/>
		</g>
	</g>
	<g>
		<g>
			<path class="st0" d="M190.7,183.7c0,11.1-0.1,22.1-0.1,33.2c0,9.8-1.2,20.6,1.3,30.2c2.5,9.5,9.4,14.2,16.4,20.2
				c1.6,1.3-0.3,1.5,0.5,0.3c0.3-0.5,1.4-2.1,1.6-2.6c0.4-1.3,0.7,1.5-0.4-0.4c-0.9-1.6-2-4.9-2.6-7.2c-3-12.5-22.3-7.2-19.3,5.3
				c2.9,12.1,11.5,23.7,25.3,21.9c15.6-2.1,19.1-19.4,9.8-30.4c-3.3-3.9-9.3-6-11.5-10.7c-2.1-4.3-1.2-10.4-1.1-14.9
				c0-15,0.1-29.9,0.1-44.9C210.7,170.9,190.7,170.9,190.7,183.7L190.7,183.7z"/>
		</g>
	</g>
	<g>
		<g>
			<path class="st0" d="M171.9,185.7c3.7-1.8,8.5,0.8,11.4,3.5c4.9,4.6,6.4,12,7.3,18.4c2.4,16.8,3,34.1,4.4,51
				c6.2-1.7,12.4-3.4,18.6-5c-1.5-2-2.5-3.5-2.6-6c-0.3-12.9-19.5-12.9-20,0c-0.2,5.3-0.1,10.7,0.3,16c0.4,5.4,4.3,10,10,10
				c5.1,0,10.4-4.6,10-10c-0.9-11.4-1.1-22.8-0.8-34.2c0.4-12.9-19.6-12.9-20,0c-0.4,11.4-0.1,22.8,0.8,34.2c6.7,0,13.3,0,20,0
				c-0.4-5.3-0.5-10.7-0.3-16c-6.7,0-13.3,0-20,0c0.1,5.8,1.7,11.5,5.3,16.1c2.8,3.6,6.6,5.9,11.3,4.6c4-1.1,7.7-5.3,7.3-9.6
				c-1-11.5-1.9-23-2.9-34.4c-0.9-10.5-1.2-21.5-4.5-31.6c-6.3-19.1-25.9-33.9-45.9-24.2c-4.9,2.4-6.2,9.3-3.6,13.7
				C161.2,187.1,167.1,188.1,171.9,185.7L171.9,185.7z"/>
		</g>
	</g>
	<g>
		<g>
			<path class="st1" d="M131.2,43.8c-1.8,6.9-3.3,14.3-0.1,21c3.1,6.5,9.4,9.3,15.9,11.7c6.1,2.2,8.7-7.5,2.7-9.6
				c-3.9-1.4-8.4-2.9-9.9-7.2c-1.5-4.2,0-9,1.1-13.1C142.5,40.3,132.8,37.6,131.2,43.8L131.2,43.8z"/>
		</g>
	</g>
	<g>
		<g>
			<path class="st1" d="M143.2,77.6c-10.6-1.4-20.2,5.6-25.3,14.5c-5.7,10.1-7.4,22.4-10,33.5c-1.5,6.3,8.2,8.9,9.6,2.7
				c3.1-13.2,5.9-43.4,25.6-40.7C149.5,88.5,149.5,78.5,143.2,77.6L143.2,77.6z"/>
		</g>
	</g>
	<g>
		<g>
			<path class="st1" d="M128,119.8c-4.3,10.5-5,21.2-0.9,31.9c4,10.6,11.1,19.4,18.2,28.1c4.1,5,11.1-2.1,7.1-7.1
				c-6-7.3-12.2-14.8-15.7-23.7c-3.5-9.2-2.7-17.6,0.9-26.6C140,116.5,130.3,113.9,128,119.8L128,119.8z"/>
		</g>
	</g>
	<g>
		<g>
			<path class="st1" d="M138.1,204.4c1,13.1,2.9,26.4,2.9,39.5c0,6.4-2.3,9.6-6.2,14.4c-3.5,4.3-5.7,9.4-3.9,14.9
				c2,6.1,11.7,3.5,9.6-2.7c-1.6-4.8,5.8-9.7,7.8-13.6c2.3-4.5,2.8-9.7,2.6-14.6c-0.4-12.6-1.9-25.3-2.9-37.9
				C147.6,198,137.6,198,138.1,204.4L138.1,204.4z"/>
		</g>
	</g>
	<g>
		<g>
			<path class="st2" d="M179.4,57.1c-1.7,3.9-1.9,8.5-3.9,12.2c-1.5,2.9-0.2,6.4,3,7.3c15.8,4.9,30.1,11.8,39.8,25.7
				c9.2,13.1,13.6,29.6,11.1,45.5c-1,6.3,8.6,9,9.6,2.7c3-18.6-1.3-37.7-12.1-53.2c-11.3-16.2-27.4-24.6-45.8-30.3
				c1,2.4,2,4.9,3,7.3c2-3.9,2.2-8.2,3.9-12.2C190.6,56.3,182,51.2,179.4,57.1L179.4,57.1z"/>
		</g>
	</g>
	<g>
		<g>
			<path class="st2" d="M199.9,100.1c10.7,25.7,20.3,59.7-1.1,82.9c-4.4,4.7,2.7,11.8,7.1,7.1c24.1-26.1,16-63.1,3.7-92.6
				C207.1,91.6,197.4,94.1,199.9,100.1L199.9,100.1z"/>
		</g>
	</g>
	<g>
		<g>
			<path class="st2" d="M200.2,230.1c-0.5,8.4-0.8,17,2.3,25c1.3,3.4,3.1,6.4,5.4,9.2c1.2,1.5,2.5,2.9,3.8,4.3
				c0.4,0.4,4.4,5.4,3.8,5.5c-6.4,0.5-6.4,10.5,0,10c4.5-0.4,8.4-2.9,9.6-7.6c1.3-5.3-1.7-10.1-5.1-13.8c-3.9-4.2-7.4-7.9-8.9-13.6
				c-1.7-6.2-1.2-12.7-0.8-19C210.5,223.6,200.5,223.7,200.2,230.1L200.2,230.1z"/>
		</g>
	</g>
	<g>
		<g>
			<path class="st2" d="M163.1,43.6c-0.1,1.8-0.1,3.5,0.1,5.3c0.1,1,0.8,1.9,1.9,1.9c0.9,0,2-0.9,1.9-1.9c-0.1-1.8-0.2-3.5-0.1-5.3
				C166.9,41.2,163.2,41.2,163.1,43.6L163.1,43.6z"/>
		</g>
	</g>
	<g>
		<g>
			<path class="st2" d="M148.3,44.1c0.2,1.9,0.4,3.8,0.6,5.8c0.1,1,0.8,1.9,1.9,1.9c0.9,0,2-0.9,1.9-1.9c-0.2-1.9-0.4-3.8-0.6-5.8
				c-0.1-1-0.8-1.9-1.9-1.9C149.2,42.2,148.2,43.1,148.3,44.1L148.3,44.1z"/>
		</g>
	</g>
	<g>
		<g>
			<path class="st3" d="M136.3,72.3c-10,3.4-18.5,8.7-22.9,18.7c-5.6,12.7-5.9,26.8-8,40.3c-0.5,3.4-0.6,6.6-0.3,9.9
				c0.5,5.5,0.6,12.1,4,16.8c2.6,3.5,7.1,5.7,11.4,4c4.5-1.8,6.2-6.7,7.3-11.1c0.8-3.1-4.1-4.5-4.8-1.3c-0.5,2.1-1,4.5-2.5,6.1
				c-2.8,3.1-6.2,1.4-8-1.9c-2.2-3.9-2.1-9.4-2.4-13.8c-0.4-5.4,0.8-10.6,1.5-16c1.3-10.6,2.2-21.5,6.6-31.3
				c3.8-8.5,11.1-12.8,19.6-15.7C140.6,76.1,139.3,71.2,136.3,72.3L136.3,72.3z"/>
		</g>
	</g>
	<g>
		<g>
			<path class="st3" d="M136.8,92.3c-10.6,15.1-17.2,33.7-14.6,52.3c2.2,15.9,11,30.6,25,38.8c2.8,1.6,5.3-2.7,2.5-4.3
				c-13.3-7.8-21.5-22.2-22.8-37.4c-1.5-16.8,4.8-33.2,14.3-46.7C143,92.2,138.7,89.7,136.8,92.3L136.8,92.3z"/>
		</g>
	</g>
	<g>
		<g>
			<path class="st3" d="M200.8,95.3c16.6,9.2,16.7,30,13.6,46.3c-2.7,14.6-6,31.2-18.3,40.9c-2.5,2,1,5.5,3.5,3.5
				c14.2-11.3,18.1-31.9,20.5-48.9c2.4-17.1-0.3-37.1-16.9-46.2C200.5,89.4,198,93.8,200.8,95.3L200.8,95.3z"/>
		</g>
	</g>
	<g>
		<g>
			<path class="st3" d="M186.6,73.4c11.2-0.5,20.6,4.8,28.3,12.6c7.5,7.6,11.7,15.3,15.1,25.3c2.5,7.3,5.2,14.8,4.9,22.7
				c-0.2,4.6-1.2,9.2-2.3,13.7c-0.6,2.4-1.1,4.9-2,7.3c-1.2,3.3-5.1,8.8-8.9,4.9c-2.2-2.3-5.8,1.2-3.5,3.5c3.3,3.4,8.5,3.5,12.3,0.6
				c4.7-3.6,5.9-10.4,7.2-15.8c2.6-10.7,2.8-20.4-0.5-31c-3.8-12.5-8-23.6-17.2-33.1c-9-9.4-20-16.3-33.4-15.7
				C183.3,68.5,183.3,73.5,186.6,73.4L186.6,73.4z"/>
		</g>
	</g>
	<g>
		<g>
			<path class="st3" d="M131.8,170c2.8,18.2,5,36.5,6.7,54.9c0.4,4.2,0.7,8.5,1.1,12.7c0.3,4.2,2.2,10.9-0.7,14.5
				c-1.9,2.3-4.6,3.8-6.3,6.4c-1.8,2.6-2.9,5.6-3.4,8.7c-0.8,4.9,0,11,4.6,13.8c5.6,3.4,12.2-0.7,17-3.6c5.2-3.1,10.4-6.6,14.1-11.5
				c4.1-5.4,4.9-11.6,5-18.2c0.2-8.9,0-17.9-0.5-26.8c-0.3-6.2-4.3-24.1,4.4-25.8c7.7-1.5,7.2,15.7,7.6,20.4
				c0.8,8.9,1.4,17.8,1.9,26.7c0.3,7.1,0,14.7,2.4,21.5c2,5.9,6.1,10.5,11.2,14c4.9,3.4,11.4,7,17.5,5.2c5.3-1.5,8.9-6.7,9.5-12
				c0.9-7.6-3.4-13.7-7.4-19.6c-5.8-8.5-5.8-17.7-5-27.7c1.6-20.1,3.8-40.2,6.4-60.2c0.4-3.2-4.6-3.1-5,0
				c-2.1,16.1-3.9,32.3-5.4,48.5c-1.3,14.3-3.9,29.3,4.7,41.9c4,5.8,10,13.7,5.3,20.9c-5.4,8.2-16.7,0.5-21.7-4.3
				c-5.8-5.6-6.7-13.1-7-20.8c-0.4-7.9-0.7-15.7-1.3-23.6c-0.6-7.7-1.1-15.5-2.2-23.1c-0.6-4.2-1.7-9-5.3-11.6
				c-4-2.9-9.2-1.7-12.5,1.7c-4.3,4.4-4,10.7-3.7,16.4c0.5,8,1,15.9,1.1,23.9c0.1,7.6,1.3,16.8-1.1,24.1
				c-2.1,6.5-8.1,10.9-13.6,14.4c-2.7,1.7-5.9,4-9,4.8c-6.8,1.7-8.1-5-6.8-10.1c1.1-4.3,3.7-7.2,7-10.1c2.3-2,3.8-3.9,4-7.1
				c0.6-8.6-1.2-18-1.9-26.5c-1.7-18.2-3.9-36.2-6.7-54.3C136.1,165.5,131.3,166.9,131.8,170L131.8,170z"/>
		</g>
	</g>
	<g>
		<g>
			<path class="st3" d="M148.6,67.9c-10.5,0.7-19.1-8.5-18.3-18.9c0.9-11.6,10.9-19.9,21.9-21.4c11-1.6,25,2.2,29.4,13.4
				c3.1,8,4.3,22.5-4.8,27.2c-2.8,1.5-0.3,5.8,2.5,4.3c11.7-6.1,11-23.8,6.5-34.3c-5.7-13.2-22.3-17.7-35.5-15.5
				c-13.2,2.3-24.7,13-25.1,26.9c-0.4,12.7,10.5,24.1,23.4,23.2C151.8,72.7,151.9,67.7,148.6,67.9L148.6,67.9z"/>
		</g>
	</g>
</g>
<g>
	<g>
		<g>
			<path class="st4" d="M50.5,113.6c-3.4,0.2-6.8,0.3-10.3,0.4c1.7,2.9,3.3,5.8,5,8.7c1.7-3.8,4.5-8.3,4.2-12.6
				c-0.3-3.9-3.4-6.6-6.7-8.2c-5.7-2.8-12,4.3-7,9.2l0.1,0.1c2.3,2.3,5.9,2.2,8.2,0c4.4-4.2,0.7-12.6-1.4-17.2
				c-0.6-1.3-1,0.2,0.3-1.5c0.6-1,1.6-1.8,2.2-2.8c0.6-1.1,1.1-2.4,1.5-3.7c0.2-0.8,0.3-1.7,0.6-2.5c0.2-0.7,0.2-0.7,0.2,0
				c-1.1,0-2,0-3.1,0c7.3,1.2,2.9,17.4,1.9,21.6c3.2-0.9,6.5-1.7,9.7-2.6c-3.4-2.8-5-6.1-4.7-10.5c-3.6,1-7.2,1.9-10.9,2.9
				c6.6,9.3,8.1,20.4,8.7,31.5c0.4,7.5,12,7.5,11.6,0c-0.7-13-2.5-26.5-10.3-37.4c-3.4-4.8-10.4-3-10.9,2.9
				c-0.6,7.1,2.5,14.2,8.1,18.7c3.2,2.6,8.6,2,9.7-2.6c1.8-7.4,3.3-15.1,1.7-22.7c-1.5-6.7-7.1-14.4-14.8-13.2
				c-3.4,0.6-5.9,2.8-7.4,5.8c-0.7,1.6-0.8,3.2-1.5,4.9c-0.5,1.2-1.2,1.9-2,2.9c-2.5,3-3.4,6.6-2.3,10.4c1.1,3.7,3.1,6.7,3.3,10.7
				c0.6-1.4,1.1-2.8,1.7-4.1c-0.1,0.1-0.2,0.2-0.3,0.2c2.8,0,5.5,0,8.2,0l-0.1-0.1c-2.3,3.1-4.7,6.1-7,9.2c0.5,0.2,0.9,0.4,1.4,0.7
				c0.6,0.4,0.6,0.3-0.1-0.2c0-1.1,0-2,0-3.1c-0.4,2.6-1.9,5.1-2.9,7.5c-1.6,3.7,0.2,8.9,5,8.7c3.4-0.2,6.8-0.3,10.3-0.4
				C57.9,124.9,58,113.3,50.5,113.6L50.5,113.6z"/>
		</g>
	</g>
	<g>
		<g>
			<path class="st4" d="M60.9,123.9c-0.1-1.9-0.1-3.8-0.1-5.7c0-1.1,0.8-4.8,0.2-5.7c0.4-1.5-0.6-1.1-3.2,1.4
				c0.4,0.6,0.7,1.3,1.1,1.9c0.9,1.5,1.9,2.9,3.4,4c1.6,1.1,3.4,1.5,5.3,1.1c0.7-0.2,1.4-0.6,2.1-0.9c1.6-1.1,1.5-1.2-0.2-0.2
				c2.9,1.9,6.5,3.5,9.6,5.1c1-3.6,1.9-7.2,2.9-10.9c-2.8,0-5.3-1.6-4.5-4.7c0.9-3.5,3.7-6.4,4.5-10c0.8-3.5,1.3-7.8,0.6-11.3
				c-0.8-4.5-4.1-7.3-7.3-10.4C72.7,75,69.7,71,66,69.9c-3.6-1.1-7.6,0.3-10.9,1.9c-7,3.2-11.8,10.1-9.7,17.9
				c1.9,7.2,13.1,4.1,11.2-3.1c-0.6-2.3,2-3.7,3.7-4.5c0.8-0.3,1.5-0.6,2.3-0.8c-0.7-0.5-0.7-0.4,0,0.2c1.5,0.9,2.8,2.7,4,3.9
				c1.1,1.1,2.3,2.2,3.4,3.3c1.5,1.4,1.4,1.6,1.3,3.6c-0.2,2.9-0.6,5.4-2.1,8c-3.1,5.3-4.9,11.2-1.8,17.1c2.9,5.4,8.7,8.3,14.7,8.3
				c5.7,0,8.1-8.1,2.9-10.9c-3.8-2-7.7-4.7-11.8-6.1c-1.8-0.6-3.6-0.9-5.6-0.5c-0.8,0.2-1.5,0.4-2.3,0.7c-0.7,0.4-3.8,1.9-0.6,0.7
				c1.5,0.2,3,0.4,4.5,0.6c0.9,0.6,0.5,0.7,0-0.3c-0.3-0.6-0.7-1.4-1.1-1.9c-1-1.5-2.1-2.8-3.6-3.9c-3.2-2.3-7.4-2.7-10.8-0.4
				c-5.9,4-4.5,14-4.4,20.1C49.5,131.3,61.2,131.4,60.9,123.9L60.9,123.9z"/>
		</g>
	</g>
	<g>
		<g>
			<path class="st4" d="M72.5,106.4c-0.6-4-1.3-7.9-2-11.8c-0.6-3.4-2-7.6-1.7-11c-1,1.7-1.9,3.3-2.9,5c-2.3,1.1-1.7,0.5-0.2,2.1
				c0.8,0.8,1.5,1.7,2,2.8c1.4,2.3,1,2.7-0.8,4.8c-3.5,4.1-7.5,7.5-12,10.4c-6.2,4.1-0.4,14.1,5.8,10c4.5-2.9,8.8-6.3,12.5-10.2
				c3.5-3.6,7.4-7.9,7.1-13.4C80,86.1,69.3,74.4,60,78.5c-1.9,0.9-2.7,3.1-2.9,5c-0.4,3.9,1.2,8.7,1.9,12.5
				c0.7,4.5,1.5,8.9,2.3,13.4C62.6,116.8,73.7,113.8,72.5,106.4L72.5,106.4z"/>
		</g>
	</g>
	<g>
		<g>
			<path class="st4" d="M55.3,101.7c1.3,4.1,4.8,5.9,8.2,8c1.5,1,3.2,1.9,4.7,2.8c0.4,0.2,1.3,0.6,1.7,0.9c-0.9-0.7,0.6,0.9,1,1.2
				c2.3,2,5.9,2.3,8.2,0c2.1-2.1,2.3-6.2,0-8.2c1.1,0.9-0.2-0.2-0.5-0.6c-0.5-0.6-1-1.1-1.6-1.5c-1.2-0.9-2.5-1.6-3.8-2.3
				c-1.3-0.7-2.5-1.5-3.7-2.2c-0.8-0.5-1.5-1-2.3-1.5c-0.3-0.2-0.6-0.4-0.9-0.6c-0.8-0.6-0.7-0.3,0.3,1
				C64.3,91.5,53.1,94.6,55.3,101.7L55.3,101.7z"/>
		</g>
	</g>
	<g>
		<g>
			<path class="st4" d="M64.4,129.1c0-1,0-2,0-3c0-0.3,0-2.5-0.2-1.9c-0.9,1.1-1.8,2.3-2.7,3.5c0.2-0.1,0.3-0.2,0.4-0.2
				c-1.5,0.2-3,0.4-4.5,0.6c0.2,0.1,0.4,0.2,0.6,0.2c-0.9-0.5-1.7-1-2.6-1.5c2.6,2.2,4,6.4,5.3,9.4c1.2,2.9,3.9,4.9,7.1,4.1
				s4.7-4.1,4.1-7.1c-0.6-2.7-1.1-5.4-1.6-8.1c-2.8,2.2-5.7,4.4-8.5,6.6c1.5,0.7,1.9,1.1,2.7,2.6c1.3,2.8,5.4,3.6,7.9,2.1
				c2.9-1.7,3.4-5.1,2.1-7.9c-1.4-2.9-3.9-5.4-6.9-6.7c-4.7-2.1-9.6,1.4-8.5,6.6c0.6,2.7,1.1,5.4,1.6,8.1c3.7-1.1,7.5-2,11.2-3.1
				c-2-4.9-4.1-10.9-8.3-14.6c-3-2.7-8-2.4-10.1,1.2c-1.5,2.6-0.9,6.5-0.9,9.4C52.8,136.5,64.4,136.5,64.4,129.1L64.4,129.1z"/>
		</g>
	</g>
	<g>
		<g>
			<path class="st4" d="M58.3,131c-5,5.7-7.8,12.1-8.5,19.6c3.8-0.5,7.6-1.1,11.4-1.5c-1.2-3.9-1.9-7.8-2.1-11.8
				c-0.1-2.1,0-4.3,0.2-6.4c0.1-0.9,0.2-1.8,0.5-2.7c0.2-1.1,1.8-4.4-0.4-1.7c-1.5,1.9-0.7,1,0.8,1c0.6,0,1.5-0.2,1.9,0.2
				c1.1,0.6,1.1,2,1.5,3.2c0.9,3.9,2.3,7.5,4.1,11.1c1.1,2.1,4.3,3.6,6.6,2.7c0.8-0.3,3.3,4.6,3.6,5.5c1.1,2.9,1.5,6.1,1.9,9.2
				c0.4,3.2,2.4,5.8,5.8,5.8c2.8,0,6.2-2.7,5.8-5.8c-0.7-6.2-1.5-12.7-5-18.1c-3.2-4.9-9.1-10.1-15.2-7.8c2.2,0.9,4.4,1.8,6.6,2.7
				c-2.7-5-2.6-11.7-6.5-16c-4-4.4-11.1-5.2-16.5-3.6c-6.4,1.8-6.8,10.4-7.2,15.9c-0.5,6.7,0.4,13.5,2.3,19.9
				c2,6.5,10.9,4.9,11.4-1.5c0.4-4.3,2.3-8.2,5.1-11.3C71.5,133.6,63.3,125.4,58.3,131L58.3,131z"/>
		</g>
	</g>
	<g>
		<g>
			<path class="st4" d="M99,192.3c-0.4-12.6-2.6-25.4-6-37.5c-1.6-5.9-3.6-11.7-6.1-17.3c-2-4.7-4.1-11.7-9.8-12.9
				c-7.3-1.5-10.4,9.7-3.1,11.2c-1-0.7-1.1-0.6-0.6,0.2c0.2,0.4,0.4,0.9,0.6,1.3c0.6,1.1,1.1,2.2,1.5,3.3c1,2.2,1.9,4.5,2.7,6.7
				c1.8,4.8,3.2,9.7,4.5,14.7c2.5,9.9,4.1,20,4.5,30.2C87.6,199.8,99.3,199.8,99,192.3L99,192.3z"/>
		</g>
	</g>
	<g>
		<g>
			<path class="st4" d="M54.2,191.7c1.9-6.3,2.6-13.3-2.4-18.3c-3.8-3.8-11.3-6.9-12.6-12.6c-1.3-6.2,6.3-11.7,10-15.3
				c3.8-3.8,7.3-9.9,12.6-11.8c7-2.5,4-13.8-3.1-11.2c-6.6,2.4-10.6,7.3-15.2,12.3c-5.3,5.9-11.9,10.7-14.7,18.5
				c-2.8,7.5-0.2,14.4,5,20c2.5,2.7,5.3,4.8,8.2,7c3.2,2.4,2.2,4.9,1.1,8.4C40.8,195.7,52.1,198.8,54.2,191.7L54.2,191.7z"/>
		</g>
	</g>
	<g>
		<g>
			<path class="st4" d="M42.1,148.8c-0.3-2.6,5.3-7.5,7.1-9.4c2.4-2.7,5.1-6.7,8.5-8.2c2.9-1.2,3.5-5.5,2.1-7.9
				c-1.7-3-5.1-3.3-7.9-2.1c-5.2,2.2-9.2,8-12.8,12.2c-3.7,4.2-9.4,9.2-8.6,15.5c0.4,3.2,2.4,5.8,5.8,5.8
				C39.1,154.6,42.5,151.8,42.1,148.8L42.1,148.8z"/>
		</g>
	</g>
	<g>
		<g>
			<path class="st4" d="M50.9,155.7c-0.2,5.8,0.6,11.6,2.8,17c2.4,6.2,10.7,5.1,11.4-1.5c1.1-9.6,3-19,5.6-28.3c-3.7,0-7.5,0-11.2,0
				c1.9,7.4,3.2,14.8,3.4,22.4c0.2,7.7,0.1,15.4,2.1,22.9c1.6,6.2,12.1,5.2,11.4-1.5c-1.9-19.7-2.2-39.5-1.1-59.3
				c0.4-7.5-11.2-7.5-11.6,0c-1.1,19.8-0.8,39.6,1.1,59.3c3.8-0.5,7.6-1.1,11.4-1.5c-2-7.5-1.4-15.1-1.9-22.8
				c-0.5-7.6-1.7-15.2-3.6-22.6c-1.5-5.6-9.6-5.5-11.2,0c-2.9,10.3-4.9,20.7-6.1,31.3c3.8-0.5,7.6-1.1,11.4-1.5
				c-1.8-4.6-2.6-9-2.4-13.9C62.9,148.3,51.2,148.3,50.9,155.7L50.9,155.7z"/>
		</g>
	</g>
	<g>
		<g>
			<path class="st4" d="M67.7,206.8c-0.6,1.2-0.5,1.6,0.4,1.1c0.6-0.2,1.2-0.4,1.9-0.6c1.5-0.4,2.9-0.7,4.5-1.1
				c3.6-0.9,5.4-5.3,3.5-8.5c-4.4-7-8.7-14.1-11.1-22.1c-1.9-6.4-11-4.9-11.4,1.5c-0.6,10.6-1.2,21.3-1.9,31.9
				c3.6-1,7.2-1.9,10.9-2.9c-1.2-2.2-0.6-22.4,0.9-22.4c7.5-0.2,7.5-11.8,0-11.6c-8.9,0.2-12.1,7.8-12.6,15.6
				c-0.4,7.8-2.3,17.3,1.6,24.5c2.9,5.3,10.5,2.5,10.9-2.9c0.6-10.6,1.2-21.3,1.9-31.9c-3.8,0.5-7.6,1.1-11.4,1.5
				c2.7,9,7.4,17,12.3,24.9c1.1-2.8,2.3-5.7,3.5-8.5c-7.1,1.9-17.8,5-14.7,14.8C58.7,217,70,214,67.7,206.8L67.7,206.8z"/>
		</g>
	</g>
	<g>
		<g>
			<path class="st4" d="M65.6,162.5c0.3,11.3,2.8,22,6.2,32.7c3.5,11.2,5.7,22.8,8.2,34.3c1.6,7.3,12.8,4.2,11.2-3.1
				c-2.4-11-4.5-22.2-7.7-33c-3.2-10.3-5.9-20.2-6.2-31C77.1,155,65.5,155,65.6,162.5L65.6,162.5z"/>
		</g>
	</g>
	<g>
		<g>
			<path class="st4" d="M74.6,204.4c3.4,15.8,6.7,31.6,10.1,47.5c2.3,11,4.5,34.2,21.6,29.2c2.7-0.8,4-3,4.3-5.6
				c0.4-3.3-0.8-6.3-2.8-8.8c-1.9-2.5-4.8-3.9-6.8-6.2c-1.7-1.9-2.2-4.4-2.8-6.8c-0.9-3.5-1.8-7-2.8-10.4
				c-1.8-6.4-3.7-12.8-5.9-19.1c-2.1-6.3-4.2-12.9-7.8-18.6c-4-6.3-14-0.5-10,5.8c3.2,5.1,5,10.9,6.9,16.5c2,6.1,3.9,12.2,5.7,18.4
				c1.5,5.5,2.4,11.6,4.8,16.8c1.1,2.5,2.7,4.6,4.7,6.4c1.8,1.5,5.6,3.3,5.3,5.9c1.5-1.9,2.8-3.7,4.3-5.6c-3.9,1.1-4.8-9.4-5.3-11.7
				c-1.4-6.3-2.7-12.6-4.1-19c-2.7-12.6-5.4-25.3-8.1-37.9C84.3,194,73,197.1,74.6,204.4L74.6,204.4z"/>
		</g>
	</g>
	<g>
		<g>
			<path class="st4" d="M76.4,206.6c5.7,16.2,9.1,33,9.8,50.1c0.3,7.5,11.9,7.5,11.6,0c-0.8-18.1-4.2-36-10.2-53.2
				C85.2,196.5,74,199.5,76.4,206.6L76.4,206.6z"/>
		</g>
	</g>
	<g>
		<g>
			<path class="st4" d="M84.6,258.8c-4.5,2.1-8.9,4.4-13.2,6.8c2.8,2.2,5.7,4.4,8.5,6.6c-1.3,1.5-1.5,1.9-0.7,1.3
				c0.2-0.2,0.4-0.3,0.6-0.4c0.6-0.3,1.1-0.7,1.7-1.1c1.1-0.7,2.3-1.4,3.3-2.1c2.6-1.8,4.6-3.7,6.5-6.3c1.9-2.5,0.4-6.5-2.1-7.9
				c-2.9-1.7-6.1-0.5-7.9,2.1c-3.2,4.5-11.6,5.3-12.6,11.3c-0.8,4.8,3.8,9.3,8.5,6.6c4.3-2.5,8.7-4.8,13.2-6.8
				c2.8-1.3,3.6-5.4,2.1-7.9C90.8,258,87.5,257.6,84.6,258.8L84.6,258.8z"/>
		</g>
	</g>
	<g>
		<g>
			<path class="st4" d="M91.7,257.1c-4.1-8.7-10.2-16-15.1-24.2c-2.4-4.1-4.3-8.2-5.3-12.7c-1.1-4.8-2.1-9.5-4.7-13.8
				c-3.8-6.4-13.9-0.6-10,5.8c2.4,4.1,2.8,9,4.1,13.5c1.3,4.5,3.5,8.9,5.9,13c4.9,8.2,11.1,15.6,15.1,24.2
				C84.8,269.7,94.9,263.8,91.7,257.1L91.7,257.1z"/>
		</g>
	</g>
	<g>
		<g>
			<path class="st4" d="M85.9,263.6c0.5-4.8-1.7-9.1-3.6-13.3c-2.3-4.9-4.7-9.8-7.3-14.6c-4.4-7.9-9.6-16.1-9.7-25.5
				c-0.1-7.5-11.7-7.5-11.6,0c0.2,9.6,4.1,18.2,8.7,26.6c2.3,4.3,4.8,8.7,7,13c2,4,5.5,9.2,5.1,13.8C73.6,271.1,85.2,271,85.9,263.6
				L85.9,263.6z"/>
		</g>
	</g>
	<g>
		<g>
			<path class="st5" d="M45,74.2c-0.5,0.1-0.9,0.2-1.4,0.2c-1.6,0.2-2.8,2.2-2.8,3.7c0,1,0,1.9,0,2.9c0,1.3-0.7,3.6,0.6,2.1
				c1.5-1.6-0.4-0.5-1.2-0.2c-1.1,0.3-2.2,0.5-3.2,0.8c-2.9,0.9-4.5,2.6-4.7,5.8c-0.2,3.7-0.6,8.3,0.3,12c0.3,1.4,1.1,2.6,2,3.6
				c0.6,0.6,3.2,1.8,3.5,2.8c0.2-1,0.2-2,0.4-3c0.9-1.4-2,0.8-2.7,1.1c-1.5,0.8-2.9,1.5-4.4,2.3c-2.4,1.3-2.3,4.2-0.8,6.1
				c0.9,1.1,1.9,2.2,3,3.2c0.4,0.3,0.8,0.6,1.3,1c1,1.2,1.7,0.8,2.2-1.2c-4.9,1.1-2.8,8.6,2,7.5c3.3-0.7,5.3-4.1,4.5-7.4
				c-0.9-3.7-5.3-5.7-7.5-8.5c-0.2,2-0.5,4.1-0.8,6.1c4.1-2.1,13-4.8,9.6-11.1c-1.1-2-3.9-2.6-4.9-4.4c-0.6-1.1-0.1-4.1-0.1-5.3
				c0-1.5-0.4-3.7,0.1-5c-0.6,0.8-1.2,1.5-1.8,2.3c2.5-1.8,6.4-0.9,8.6-3.3c2.3-2.6,1.5-7,1.5-10c-1,1.2-1.9,2.5-2.8,3.7
				c0.5-0.1,0.9-0.2,1.4-0.2C51.9,81,49.8,73.5,45,74.2L45,74.2z"/>
		</g>
	</g>
	<g>
		<g>
			<path class="st5" d="M50.6,81.8c-9,1.2-15.9,10-13.9,19c1.1,5.2,4.6,9.6,6.7,14.5c0.6,1.3,1.2,2.8,1.6,4.1c0.6,2.3-0.2,3.3-1.5,5
				c-1.7,2.2-3.5,4.3-5.2,6.5c-6.3,8.1-12.2,18-9.9,28.7c1.1,5.1,4.5,8.7,7,13.1c3,5.3,4.4,11.1,4.4,17.2c0,5,7.7,5,7.8,0
				c0.1-10.2-3.6-18.3-9.1-26.7c-6.3-9.7,0-20,6.2-27.9c2.7-3.3,6.6-6.9,7.9-11c1.5-4.5-0.6-8.9-2.4-13c-1.9-4.3-6.2-9.2-6.1-14
				c0.1-4.7,4.5-7.5,8.7-8.1C57.6,88.6,55.5,81.1,50.6,81.8L50.6,81.8z"/>
		</g>
	</g>
	<g>
		<g>
			<path class="st5" d="M48.2,141c-0.7,5.6-0.8,10.6,0.8,16c1.7,5.8,3.1,11.4,3.8,17.4c0.6,5.7,1.2,11.3-0.2,16.9
				c-1.5,5.8-1.2,10.7,0.2,16.5c1.2,4.9,8.7,2.8,7.5-2c-0.7-2.9-1.5-5.8-1.1-8.7c0.3-2.6,1.4-5,1.8-7.6c0.7-4.9,0.2-10-0.4-14.9
				c-0.6-5.2-1.4-10.3-2.8-15.3c-1.5-5.6-2.9-10.1-2.1-16C56.4,138.1,48.9,136,48.2,141L48.2,141z"/>
		</g>
	</g>
	<g>
		<g>
			<path class="st5" d="M51.8,208.1c-0.6,9.3,5.6,19.4,9.8,27.4c2.3,4.4,4.6,8.7,6.8,13c2,4.2,5.5,9.8,5.8,14.6
				c0.4-0.9,0.7-1.9,1.1-2.8c0.1-0.1-2.5,1.1-3.3,1.8c-1.5,1.1-2.8,2.5-3.7,4.1c-1.9,3.1-2.3,6.6-1.5,10.2c1.1,4.9,8.6,2.8,7.5-2
				c-1.6-6.7,7.3-5.8,7.7-11.3c0.2-2.9-1.4-6.1-2.4-8.7c-1.1-2.9-2.4-5.8-3.7-8.6c-2.8-5.9-6.1-11.6-9-17.4
				c-3-5.9-7.5-13.5-7.1-20.3C59.8,203.1,52,203.1,51.8,208.1L51.8,208.1z"/>
		</g>
	</g>
	<g>
		<g>
			<path class="st5" d="M78,206.8c-0.3-0.3-0.6-0.7-1-1.1c-1.9,1.9-3.6,3.6-5.5,5.5c12.9,11.9,14.7,29.6,15.9,46.1
				c0.3,4.9,8.1,5,7.8,0c-1.4-18.6-3.6-38.3-18.1-51.6c-3.7-3.4-8.8,1.8-5.5,5.5c0.3,0.3,0.6,0.7,1,1.1
				C75.9,216,81.3,210.5,78,206.8L78,206.8z"/>
		</g>
	</g>
	<g>
		<g>
			<path class="st5" d="M74.4,144.3c7.5,15.6,8.6,33.1,9.6,50.1c0.3,4.9,8,5,7.8,0c-1.1-18.5-2.5-37.1-10.7-54
				C78.9,135.9,72.3,139.8,74.4,144.3L74.4,144.3z"/>
		</g>
	</g>
	<g>
		<g>
			<path class="st6" d="M74.4,85c-0.4,2-0.6,4-0.1,6.1c0.5,1.9,1.9,3.4,2.4,5.2c0.5,1.7-0.6,3.2-0.9,4.9c-0.3,1.8-0.1,3.5,0.7,5.1
				c0.6,1.3,1.8,2.3,2.8,3.2c2,1.8,1.5,3.2,1.2,5.8c-0.2,1.8-0.6,3.6,0.1,5.3c0.2,0.6,0.5,1.2,1,1.7c1.8,1.9,0.9,0,0.5,0.7
				c-2.8,4.2,4,8.1,6.7,3.9c2.9-4.5,1.8-7.9-2.4-10.7c0.6,0.8,1.2,1.5,1.8,2.3c-0.5-1.2,0.2-3.5,0.4-4.8c0.2-1.8,0.4-3.6-0.1-5.3
				c-0.8-2.4-2.9-3.2-4.3-5.1c-1.1-1.5-0.2-2.2,0.3-4c0.2-1.1,0.4-2.2,0.3-3.2c-0.3-3.3-3.5-5.6-2.8-9C82.7,82.3,75.3,80.1,74.4,85
				L74.4,85z"/>
		</g>
	</g>
	<g>
		<g>
			<path class="st6" d="M67.4,108.8c-2.1,6.4-4.5,12.5,1.2,17.7c2.4,2.2,5.3,4,7.6,6.2c2.7,2.6,4.9,5.6,6.7,8.8
				c8.2,14.3,8.2,31.1,8.2,47.1c0,5,7.8,5,7.8,0c0-15.3-0.2-31-6.4-45.3c-2.7-6.2-6.4-11.9-11.3-16.5c-2.3-2.2-5.5-3.8-7.5-6.2
				c-2.3-2.7,0.2-6.8,1.2-9.8C76.4,106.1,69,104.1,67.4,108.8L67.4,108.8z"/>
		</g>
	</g>
	<g>
		<g>
			<path class="st6" d="M71.1,145.2c-3.3,15.4,1.8,29.9,7.8,44c3.2,7.5,6.4,15.1,8.6,23c2.2,7.7,4,15.6,5.8,23.3
				c1.2,4.9,8.7,2.8,7.5-2c-3.6-14.5-7-28.8-12.9-42.6c-5.8-13.8-12.6-28.3-9.3-43.5C79.6,142.4,72.1,140.3,71.1,145.2L71.1,145.2z"
				/>
		</g>
	</g>
	<g>
		<g>
			<path class="st6" d="M93,235.5c1.6,8.1,3.2,16.2,4.9,24.3c0.6,3.4,1.2,6.9,3,10c1.5,2.5,4.5,4.9,4.5,8c0.2,4.9,7.9,5,7.8,0
				c-0.1-3.3-1.4-5.9-3.2-8.6c-2.3-3.2-3.5-6-4.2-10c-1.7-8.6-3.5-17.3-5.2-25.8C99.5,228.6,92,230.7,93,235.5L93,235.5z"/>
		</g>
	</g>
	<g>
		<g>
			<path class="st6" d="M54.4,144.1c-3.7,0-4.1,4.7-3.2,7.4c1.1,3.6,4.5,5.1,8,4.9c1.9-0.1,1.9-3,0-2.9c-1.7,0.1-3.6-0.2-4.7-1.7
				c-0.4-0.6-1.6-4.8-0.1-4.8C56.2,147.1,56.2,144.1,54.4,144.1L54.4,144.1z"/>
		</g>
	</g>
	<g>
		<g>
			<path class="st6" d="M66.5,143.3c-3.9-0.7-6.6,2.2-7,5.9c-0.5,4.6,2.7,7.3,6.8,8.3c1.8,0.5,2.6-2.3,0.8-2.8
				c-2.2-0.6-4.6-1.5-4.8-4.1c-0.1-2,0.9-4.9,3.4-4.5C67.6,146.4,68.3,143.6,66.5,143.3L66.5,143.3z"/>
		</g>
	</g>
	<g>
		<g>
			<path class="st6" d="M60.7,97.8c0.6-1,3.3-0.6,4,0.1c1.4,1.2,3.5-0.8,2-2c-2.1-1.9-7-2.3-8.6,0.5C57.3,98,59.8,99.4,60.7,97.8
				L60.7,97.8z"/>
		</g>
	</g>
	<g>
		<g>
			<path class="st6" d="M60.9,96.6c0,1.1,0,2.3,0,3.4c0,1.9,2.9,1.9,2.9,0c0-1.1,0-2.3,0-3.4C63.8,94.7,60.9,94.7,60.9,96.6
				L60.9,96.6z"/>
		</g>
	</g>
	<g>
		<g>
			<path class="st6" d="M65.4,95.1c0-0.3,0-0.7,0-1.1c0-0.7-0.6-1.5-1.5-1.5s-1.5,0.6-1.5,1.5c0,0.3,0,0.7,0,1.1
				c0,0.7,0.6,1.5,1.5,1.5C64.7,96.5,65.4,95.9,65.4,95.1L65.4,95.1z"/>
		</g>
	</g>
	<g>
		<g>
			<path class="st6" d="M66.3,97.6c0.6-0.5,1.2-1,1.7-1.6c0.5-0.6,0.6-1.5,0-2c-0.5-0.5-1.5-0.6-2,0c-0.2,0.2-0.4,0.5-0.6,0.6
				c-0.1,0.1-0.2,0.2-0.3,0.3c0,0-0.4,0.3-0.2,0.2c-0.6,0.5-1,1.3-0.5,2C64.7,97.7,65.6,98.1,66.3,97.6L66.3,97.6z"/>
		</g>
	</g>
	<g>
		<g>
			<path class="st6" d="M51.8,95.2c-2.7-0.6-5.5-0.9-7.6,1.2c0.6-0.1,1.1-0.2,1.8-0.2c-0.9-0.6-1.7-1.3-2.4-2.1
				c-1.3-1.4-3.3,0.6-2,2c0.9,1,1.9,1.8,3,2.5c0.6,0.3,1.3,0.2,1.8-0.2c1.3-1.3,3.2-0.8,4.8-0.5C52.8,98.4,53.6,95.6,51.8,95.2
				L51.8,95.2z"/>
		</g>
	</g>
	<g>
		<g>
			<path class="st6" d="M46.7,95.7c0-0.3,0-0.6,0-0.9c0-0.7-0.6-1.5-1.5-1.5s-1.5,0.6-1.5,1.5c0,0.3,0,0.6,0,0.9
				c0,0.7,0.6,1.5,1.5,1.5S46.7,96.5,46.7,95.7L46.7,95.7z"/>
		</g>
	</g>
	<g>
		<g>
			<path class="st6" d="M46.3,97c0,1.5,0,2.9,0,4.4c0.1,1.9,3,1.9,2.9,0c-0.1-1.5-0.1-2.9,0-4.4C49.2,95.1,46.3,95.1,46.3,97
				L46.3,97z"/>
		</g>
	</g>
	<g>
		<g>
			<path class="st7" d="M50.3,81.6c-7.5,0.7-13.6,6.7-13.6,14.5c0,4.1,1.6,8,4.1,11.2c3.1,3.9,10.3,7.7,8.3,13.4
				c-0.8,2.3,2.9,3.4,3.7,1.1c2.4-7-3.7-11.1-7.9-15.6c-3.1-3.3-5.3-8.1-4.1-12.7c1.1-4.4,5-7.6,9.5-8
				C52.8,85.2,52.8,81.4,50.3,81.6L50.3,81.6z"/>
		</g>
	</g>
	<g>
		<g>
			<path class="st7" d="M52.7,85.6c4.9-0.3,10.4-0.8,14.8,2c4.3,2.8,6.4,8,5.9,13c-0.7,7.6-9.9,14.7-4.9,22.4
				c1.3,2.1,4.7,0.2,3.3-1.9c-3.2-5,3.2-11.1,4.6-16c1.3-4.3,1.3-9-0.5-13.1c-4.1-9.8-13.9-11-23.3-10.4
				C50.2,81.8,50.2,85.7,52.7,85.6L52.7,85.6z"/>
		</g>
	</g>
	<g>
		<g>
			<path class="st7" d="M48.8,120.7c-8.5,6.5-15.9,14.7-20.4,24.4c-1.9,4.1-3.4,8.8-2.6,13.4c0.9,5.5,4.9,9.2,8.6,13
				c2,2.1,4.2,4.2,6.2,6.5c1.1,1.2,2.5,2.8,2.9,4.5c0.6,2.4-1.1,4.1-1.9,6.1c-1.2,2.7-0.8,6.6,2.5,7.5c3.9,1.1,7.1-4,9-6.6
				c2.8-4,4.1-8.5,2.3-13.1c-1.9-4.9-6.1-8.2-10.1-11.2s-7.1-6.6-3.8-11.5c2.1-3.2,4.5-6.2,6.8-9.2c1.5-1.9-1.2-4.7-2.8-2.8
				c-3.2,4.1-8.5,9.2-9.6,14.3c-1,4.7,2.4,8.6,5.8,11.3c4.5,3.6,11.5,7.9,10.4,14.8c-0.3,1.8-1.2,3.3-2.2,4.8
				c-0.3,0.5-2.8,4.3-3.5,4.2c-2.8-0.1,0.8-5.1,1-6.6c0.5-5-4.1-9.1-7.2-12.4c-4.5-4.7-11-9.6-10.8-16.6c0.2-6.2,3.8-12.1,7.2-17
				c3.9-5.6,8.7-10.4,14.1-14.5C52.7,122.5,50.8,119.2,48.8,120.7L48.8,120.7z"/>
		</g>
	</g>
	<g>
		<g>
			<path class="st7" d="M70.1,122.8c19.8,12.6,24.1,36.6,24.6,58.3c0.1,2.8,0.4,5.6,0.2,8.3c-0.1,1.3-0.1,4.2-2.2,1.5
				c-0.6-0.7-0.9-3.2-1.1-4.2c-1.1-5.4-1.1-10.9-2.1-16.4c-1.7-10.2-6.1-19.8-12.3-27.9c-1.5-1.9-4.9,0-3.3,1.9
				c4.3,5.7,7.7,11.8,9.9,18.6c2.2,6.7,2.5,13.6,3.5,20.6c0.5,3.6,1.1,12.5,6.2,12.9c4.2,0.3,5.3-4.5,5.3-7.8
				c0.2-25.4-3.3-54.4-26.7-69.3C69.9,118.1,68,121.5,70.1,122.8L70.1,122.8z"/>
		</g>
	</g>
	<g>
		<g>
			<path class="st7" d="M46.8,142.4c-0.8,5.3,0.8,9.8,2.5,14.7c1,2.7,1.8,5.4,2,8.3c0.2,2.7,0.2,5.2,1.2,7.8
				c0.9,2.3,4.6,1.3,3.7-1.1c-1.6-4.3-1.1-9.2-2.4-13.5c-1.5-4.9-4.2-9.9-3.3-15.2C51,141.1,47.2,140,46.8,142.4L46.8,142.4z"/>
		</g>
	</g>
	<g>
		<g>
			<path class="st7" d="M49.4,193.2c-1.6,26.1,17.6,46.4,25.4,69.8c0.3-0.7,0.6-1.5,0.9-2.2c-4.5,2.9-12.5,6.2-9.8,13
				c2.8,7.3,14.1,1.1,18.9-0.3c2.3-0.7,1.4-4.5-1.1-3.7c-2,0.6-12.8,5.3-14.3,2.7c-1.9-3.7,6.1-6.9,8.2-8.3c0.6-0.5,1.1-1.4,0.9-2.2
				c-7.8-23-26.9-43.3-25.3-68.8C53.3,190.7,49.5,190.7,49.4,193.2L49.4,193.2z"/>
		</g>
	</g>
	<g>
		<g>
			<path class="st7" d="M74.1,144.8c0.3,7.7,0.7,15.4,1.9,23c1.2,7.8,3.7,15.1,6.3,22.6c5.5,15.6,9.4,31.7,13,47.8
				c1.7,7.7,2.9,15.9,5.4,23.3c1,2.8,2.5,4.8,4.7,6.9c2.7,2.5,7.9,10.1,0.6,10.2c-3.9,0.1-7.9-2.1-10.6-4.9
				c-3.7-3.8-3.9-8.3-4.1-13.3c-0.3-7.3-1.4-14.5-3.2-21.5c-2-8-4.9-15.8-8.7-23.1c-2.7-5.3-6.3-13.1-13.4-11.6
				c-0.9,0.2-1.3,1.1-1.5,1.9c-1.1,9.2,3.7,17.2,8.2,24.8c5.3,9,10,18.2,14.1,27.9c1,2.3,4.3,0.3,3.3-1.9
				c-3.7-8.7-7.9-17.2-12.6-25.4c-4.5-7.8-10.2-15.8-9.2-25.3c-0.5,0.6-1,1.2-1.5,1.9c4.4-1,7.2,6.2,8.7,9.2c2.1,4.1,4,8.3,5.5,12.6
				c2.8,7.9,4.8,16,5.7,24.3c0.7,6.9-0.5,14.7,4.1,20.5c3.8,4.9,10.5,8.7,16.9,7.8c6-0.9,7-5.5,4.9-10.6c-1.3-3-3.4-4.8-5.7-7
				c-3.4-3.4-3.8-8.8-4.9-13.4c-3.8-16.7-7.2-33.5-12.2-49.8c-2.7-8.9-6.5-17.6-8.7-26.7c-2.5-9.8-2.9-20-3.4-30.1
				C77.9,142.4,74.1,142.4,74.1,144.8L74.1,144.8z"/>
		</g>
	</g>
	<g>
		<g>
			<path class="st7" d="M39.7,78.5c-2.5-0.8-5.4-0.6-7.5,1.3c-2.2,2.1-1.9,4.5-1.5,7c0.4,2.2-0.2,2.4-1.5,4.1
				c-0.7,1-1.1,2.1-1.2,3.4c-0.2,3.1,1.7,5.5,3.6,7.8c0.2,0.3,1.5,1.5,1.5,1.9c-0.1,0.3-1.1,0.8-1.4,1.1c-0.7,0.7-1.4,1.4-1.6,2.4
				c-0.2,1.1,0.1,2.3,0.6,3.2c0.7,1.1,2.2,1.4,2.9,2.3c1.2,1.6-3.2,2.8-3.5,5c-0.1,0.8,0.2,1.8,0.8,2.4c0.2,0.3,3.3,1.9,2.7,2.1
				c-1.2,0.5-2,2.2-0.9,3.2c1.2,1,2.3,1.6,3.7,2c2.3,0.7,3.4-3,1.1-3.7c-0.6-0.3-1.3-0.7-1.9-1.1c-0.3,1.1-0.6,2.2-0.9,3.2
				c1.7-0.6,3.2-1.7,3.4-3.6c0.2-2.3-1.4-2.8-2.6-4.2c-1.1-0.3-1.2-0.4-0.6-0.2c0.7-0.6,1.5-1.1,2.2-1.6c0.6-0.5,1.2-0.9,1.5-1.7
				c0.7-1.7-0.3-3.3-1.7-4.3c-1.3-1-3.1-1.1-1.9-3.2c0.4-0.7,1.4-1.1,1.7-2c0.7-2-0.6-3.6-1.7-5c-1.7-2.2-4.3-4.3-2.3-7.6
				c0.6-1,1.7-1.5,2.2-2.6c1.1-2.7-2.3-9.9,3.6-7.9C41.1,83.1,42.1,79.3,39.7,78.5L39.7,78.5z"/>
		</g>
	</g>
	<g>
		<g>
			<path class="st7" d="M41,77.6c0.1-0.9,0.5-1.6,1.1-2.3c0.2-0.2,0.5-0.4,0.8-0.6c0.6-0.2,0.6-0.2,0.1-0.2
				c-0.4-0.3-0.8-0.6-1.1-0.9c-0.2-0.6,0.2,1.1,0.5,1.4c0.4,0.6,1.1,1.1,1.9,1.5c2.3,0.9,4.1-0.7,6.4-0.6c-0.5-0.2-0.9-0.4-1.4-0.6
				c0.3,0.2,0.4,1.5,0.8,2c0.6,0.7,1.3,1,2.3,1c2.5,0,2.5-3.9,0-3.9c-0.2,0-0.3,0-0.5,0c0.5,0.2,0.9,0.4,1.4,0.6
				c-0.4-0.4-0.3-1.5-0.8-2c-0.6-0.7-1.4-1-2.3-1c-1,0-3.4,1.4-4.2,1c-0.2-0.2-0.5-1.3-0.9-1.7c-1.3-1.3-3.5-0.4-4.7,0.5
				c-1.9,1.4-2.9,3.3-3.2,5.7C37,80.1,40.8,80.1,41,77.6L41,77.6z"/>
		</g>
	</g>
	<g>
		<g>
			<path class="st7" d="M53.5,78c3.7-2,7.8-3.2,12-3.2c1.7,0,4-0.1,5.6,0.5c1.9,0.7,1.1,1,1.1,2.6c-0.1,1.8,0.6,3,2.3,3.7
				c1.4,0.6,1.6,0.1,2.4,1.9c0.3,0.8,0,1.9,0.5,2.8c1.1,1.9,2.4,1.3,3.9,2c1.1-0.4,1.5,0.1,1.4,1.5c-0.2,1-0.4,2-0.6,3
				c-0.4,2-0.7,4-1.1,6c-0.3,1.9-0.8,3.9,0.6,5.4c0.6,0.7,1.7,0.8,2.3,1.4c1.5,0.1,1.6,0.6,0.6,1.7c-0.6,0.7-1.2,1.5-1.9,2.3
				c-0.6,0.7-0.9,2,0,2.8c0.4,1,0.7,1.9,1.1,2.8c-0.2,1,0.3,2.2,1.4,2.3c2.4,0.5,0.6,7.2,0.2,8.3c-0.9,2.3,2.8,3.3,3.7,1.1
				c1.5-3.9,2.3-11.8-2.9-13c0.5,0.8,0.9,1.6,1.4,2.3c0.7-2.6,0-4.9-2.1-6.6c0,0.9,0,1.9,0,2.8c1.5-1.9,4.7-4.5,3.8-7.3
				c-0.4-1.2-1.5-1.9-2.6-2.5c-0.5-0.2-1.9-0.6-2.1-0.9c-0.5-0.8,0.3-3.3,0.5-4.1c0.6-3,2.9-8.6,1.4-11.4c-0.6-1.1-1.5-1.5-2.8-1.7
				c-2-0.4-2.4,0.6-2.9-1.7c-0.2-1.1-0.2-2.1-1.1-3c-0.7-0.7-2.9-0.8-3.3-1.4c-0.4-0.6,0.3-2.2,0.2-3.1C76.5,74,76,73.2,75,72.5
				c-2.8-1.9-8.1-1.8-11.3-1.5c-4.2,0.4-8.2,1.6-11.9,3.6C49.3,75.9,51.2,79.3,53.5,78L53.5,78z"/>
		</g>
	</g>
	<g>
		<g>
			<path class="st7" d="M40.9,109.7c-0.7,1.2-1.1,2.4-0.8,3.8c0.2,1.5,1.2,1.9,1.9,3.2c0-0.6,0-1.3,0-1.9c-0.9,1.9-3,2.9-2,5.3
				c0.3,0.6,0.8,1.1,1.4,1.6c0.2,0.2,0.4,0.3,0.6,0.5c-0.1-0.1-0.2-0.1-0.3-0.2c-0.1,0.4-0.6,1.1-0.7,1.5c-0.8,2.3,2.9,3.4,3.7,1.1
				c0.4-1.3,1.5-2,1.1-3.6c-0.3-1.1-1.7-1.5-1.9-2.4c-0.3-0.2-0.2-0.3,0.5-0.2c0.3-0.4,0.6-0.7,1-1.1c0.2-0.4,0.5-1,0.5-1.5
				c0-1.7-2.4-2.3-1.4-4.1C45.5,109.6,42.2,107.6,40.9,109.7L40.9,109.7z"/>
		</g>
	</g>
	<g>
		<g>
			<path class="st7" d="M77,107.9c-1.4,1.5-3.1,3.6-2.8,5.8c0.2,2.3,3,3.1,3.4,5.3c0.2,1,0.2,1.9,0.5,3c0.2,0.9-0.1,1.3-0.1,2.1
				c0,1.6,1,2.5,2.6,2.6c2.5,0.2,2.5-3.7,0-3.9c-0.2,0-0.3,0-0.4,0c0.6,0.3,1.1,0.6,1.7,1c0.3,0.5,0.1,0.9,0.3-0.1
				c0.1-0.4,0.1-0.9,0.1-1.3c-0.1-1.3-0.5-2.8-0.7-4.2c-0.2-1-0.4-1.7-1-2.5c-0.3-0.5-0.8-0.8-1.2-1.2c-1-1.4-0.8-2.3,0.5-3.7
				C81.4,108.8,78.7,106.1,77,107.9L77,107.9z"/>
		</g>
	</g>
</g>
</svg>
