<?xml version="1.0" encoding="utf-8"?>
<!-- Generator: Adobe Illustrator 23.0.3, SVG Export Plug-In . SVG Version: 6.00 Build 0)  -->
<svg version="1.1" id="Calque_1" xmlns="http://www.w3.org/2000/svg" xmlns:xlink="http://www.w3.org/1999/xlink" x="0px" y="0px"
	 viewBox="0 0 133.1 308.6" style="enable-background:new 0 0 133.1 308.6;" xml:space="preserve">
<style type="text/css">
	.st0{fill:#F4A776;}
	.st1{fill:#FBD8C5;}
	.st2{fill:#C5774F;}
	.st3{fill:#9B6137;}
</style>
<g>
	<g>
		<g>
			<path class="st0" d="M74.8,71.5c-2.2-3.9-4.3-7.9-6.1-12c-0.8-1.7-1.5-3.3-2.2-5.1c-0.4-1.1-0.9-2.2-1.3-3.4
				c-0.5-2.5-1-1.9-1.4,1.8c-1.5,0.9-2.9,1.7-4.4,2.6c0.6-0.3,4-0.7,4.4-1.2c0.2,0,0.4,0,0.6-0.1c-0.8-0.7-1.5-1.4-2.3-2.1
				c0,0,0.7,2.9,0.7,3.1c0.2,0.6,0.2,1.1,0,1.6c0.6-1.1,0.4-1-0.4,0.2c-5.6,6-5.1,14.7-1.9,21.7c2.2,4.9,9.4,6.1,13.7,3.6
				c5-3,5.8-8.7,3.6-13.7c0.5,1,0,1.2,0.5,0.4c1.3-2.4,3.1-4.1,3.9-6.9c1.3-4.4,0.8-9.5-0.3-13.9C79.2,37.6,70.4,33,60.1,34.6
				c-10.6,1.6-17.5,9.3-14.5,20.3c2.5,9.2,7.4,18.4,12.1,26.6C63.8,92.8,81.1,82.7,74.8,71.5L74.8,71.5z"/>
		</g>
	</g>
	<g>
		<g>
			<path class="st0" d="M56.2,84.5c-4.9,12.6-6,26.4-5,39.8c0.5,5.7,1,11.8,4.1,16.8c3.8,6,11.1,9.4,18.1,7.4
				c13.8-3.8,17.6-19.1,16-31.6c-1.8-13.2-6.5-26.3-11.6-38.6c-2-5-6.7-8.5-12.3-7c-4.7,1.3-9,7.3-7,12.3c3.5,8.5,6.5,17.2,8.9,26
				c1,3.8,2.2,7.8,2.4,11.8c0.1,1.7,0.2,3.3-0.3,5c0.1-0.2-1.6,3.7-1.6,3.2c0-1.1,3.5,0.5,3.7,0.4c0.5-0.3,0-1-0.2-2.2
				c-0.5-2.9-0.7-7.8-0.7-11.5c-0.1-9.1,1.3-17.8,4.6-26.3c2-5-2.2-11-7-12.3C62.9,76,58.2,79.5,56.2,84.5L56.2,84.5z"/>
		</g>
	</g>
	<g>
		<g>
			<path class="st0" d="M50.5,141.4c1,9.5,2.8,18.7,5.8,27.8c1.8,5.5,9.2,10.1,14.7,6c13.2-10,19.4-25.5,14.8-41.8
				c-6.1,2.6-12.2,5.1-18.3,7.7c0.1,0.2,0.1,0.3,0.2,0.5c0-3.4,0-6.7,0-10.1c-0.1,0.1-0.2,0.3-0.3,0.4c-7,10.9,10.3,20.9,17.3,10.1
				c2.3-3.6,1.7-7.3,0.1-11c-1.9-4.5-8.4-5.9-12.5-4.1c-4.5,2-7.2,6.9-5.8,11.8c1.9,6.9,0.4,14.7-5.6,19.2c4.9,2,9.8,4,14.7,6
				c-2.4-7.3-4.2-14.8-5.1-22.5c-0.6-5.4-4.2-10-10-10C55.5,131.4,49.9,136,50.5,141.4L50.5,141.4z"/>
		</g>
	</g>
	<g>
		<g>
			<path class="st0" d="M60.2,171.5c-0.6,6.6,0,13.1,1.2,19.7c2.2,11.3,19.5,8.3,19.6-2.7c0.1-7.4,0.2-14.8,0.3-22.2
				c-6.5,0.9-13.1,1.8-19.6,2.7c1.3,3.6,2.5,7.1,3.8,10.7c3.6,10.1,20.1,9.2,19.6-2.7c-0.1-3.9-0.7-7.8-1.7-11.6
				c-2.9-10.9-19.7-8.7-19.6,2.7c0,17.6,2.9,35.1,8.8,51.7c3.2-4.2,6.4-8.4,9.6-12.7c-5.6,0.6-11.2,1-16.9,1.2
				c-0.5,0-3.5-0.2-3.8,0.1c1.2-1.7,5.2,10.5,5.1,2.6c0-2.7,0.1-5.4,0.5-8.1c1.3-10.8,4.1-21.3,3.9-32.3c-6.5,0.9-13.1,1.8-19.6,2.7
				c3.7,10.3,6.2,21,7.2,31.9c0.5,5.4,4.3,10,10,10c5,0,10.5-4.6,10-10C77.5,192.5,75,180,70.7,168c-3.6-10.2-19.9-9.2-19.6,2.7
				c0.3,14.5-5.3,28.6-4.3,43.1c0.6,8.1,5.2,14.1,13.7,14.7c7.1,0.5,14.7-0.6,21.8-1.3c6-0.6,12-6,9.6-12.7c-5.3-15-8-30.5-8.1-46.4
				c-6.5,0.9-13.1,1.8-19.6,2.7c0.6,2.2,0.9,4.1,1,6.3c6.5-0.9,13.1-1.8,19.6-2.7c-1.3-3.6-2.5-7.1-3.8-10.7
				c-3.7-10.4-19.5-9.1-19.6,2.7c-0.1,7.4-0.2,14.8-0.3,22.2c6.5-0.9,13.1-1.8,19.6-2.7c-0.9-4.8-0.9-9.5-0.5-14.3
				c0.5-5.4-4.9-10-10-10C64.4,161.5,60.7,166.1,60.2,171.5L60.2,171.5z"/>
		</g>
	</g>
	<g>
		<g>
			<path class="st0" d="M97.3,217.5c0.7-7.9-0.2-16.1-2.9-23.6c-2.5-6.9-6.5-13.1-8-20.4c-1.1-5.3-7.4-8.3-12.3-7
				c-5.5,1.5-8.1,7-7,12.3c1.4,6.8,4.9,12.7,7.5,19.1c2.6,6.3,3.2,12.8,2.7,19.6c-0.5,5.4,4.9,10,10,10
				C93.1,227.5,96.9,222.9,97.3,217.5L97.3,217.5z"/>
		</g>
	</g>
	<g>
		<g>
			<path class="st0" d="M54,283.2c10.5-2.2,10.1-14.6,8.5-22.9c-2.6-13.5-6.1-26.4-7.3-40.1c-0.3-3.2-5.3-3.2-5,0
				c0.9,9.8,2.3,19.5,4.5,29c1.6,6.9,9.2,26.8-2,29.1C49.5,279,50.8,283.8,54,283.2L54,283.2z"/>
		</g>
	</g>
	<g>
		<g>
			<path class="st0" d="M48.7,220.2c-0.8,4.6-0.3,8.6,1.8,12.7c1,1.9,4.1,1.5,4.6-0.6c0.6-2.7,1.5-4.8,3.2-7
				c-1.6-0.4-3.1-0.8-4.7-1.3c0,9.6,1.9,18.9,3.5,28.3c0.9,5.2,1.7,10.5,1.8,15.8c0.1,4.8,0.6,11.1-3.4,14.5
				c-2.4,2.1,1.1,5.6,3.5,3.5c7.1-6.2,5.1-19,4.1-27.2c-1.5-11.7-4.5-23.1-4.5-34.9c0-2.7-3.3-3.1-4.7-1.3c-1.9,2.5-3,5.1-3.7,8.1
				c1.5-0.2,3-0.4,4.6-0.6c-1.5-2.9-1.9-5.6-1.3-8.8C54.1,218.4,49.3,217,48.7,220.2L48.7,220.2z"/>
		</g>
	</g>
	<g>
		<g>
			<path class="st0" d="M87.7,224.9c0,3.5,0.4,7,1.2,10.4c1.5-0.6,3-1.3,4.6-1.9c-1.7-3.4-3.4-6.9-5.1-10.3
				c-0.7,1.3-1.4,2.5-2.2,3.8c1.2,0.1,3.2,2.9,4,3.7c1.5,1.6,2.8,3.2,4.1,4.9c1.1,1.5,3.2,1.7,4.3,0c1.4-2.2,0.6-4.8,0.3-7.2
				c-0.5-3.3-1-6.5-1.5-9.8c-1.5,0.6-3,1.3-4.6,1.9c1.8,4.1,3,8.4,3.6,12.9c1.6-0.2,3.3-0.4,4.9-0.7c-1.1-3.9-2.5-7.5-4.4-11.1
				c-1.5-2.9-5.8-0.3-4.3,2.5c1.6,3.2,2.9,6.5,3.9,9.9c0.7,2.6,5.3,2.2,4.9-0.7c-0.7-5.4-2.1-10.4-4.3-15.4c-1.2-2.8-5-0.6-4.6,1.9
				c0.4,2.3,0.7,4.6,1.1,6.9c0.2,1.4,1.4,5.1,0.7,6.3c1.4,0,2.9,0,4.3,0c-3-3.9-7.2-10.5-12.4-11.1c-2-0.3-2.9,2.3-2.2,3.8
				c1.7,3.4,3.4,6.9,5.1,10.3c1.3,2.7,5.1,0.7,4.6-1.9c-0.6-3-0.9-6-1-9.1C92.7,221.7,87.7,221.7,87.7,224.9L87.7,224.9z"/>
		</g>
	</g>
	<g>
		<g>
			<path class="st0" d="M91.8,222.6c0,10.4,0,20.9,0,31.3c0,3.2,5,3.2,5,0c0-7.2,0.5-14.4,1.5-21.5c-1.6,0-3.2,0-4.8,0
				c3.2,7.7,0.2,15.2-3,22.3c1.5,0.2,3,0.4,4.6,0.6c-1.6-7.1-2.5-14.2-2.6-21.5c-1.6,0.2-3.3,0.4-4.9,0.7c3.1,8.1,4.1,16.3,3.2,24.9
				c-0.9,7.9-2.4,15.5-1.3,23.5c1.6-0.4,3.2-0.9,4.8-1.3c-1.5-10.9-2-21.8-1.6-32.8c0.1-3.2-4.9-3.2-5,0
				c-0.4,11.4,0.2,22.8,1.7,34.1c0.4,3.2,5.2,1.8,4.8-1.3c-1.2-8.7,1.3-17.2,1.8-25.8c0.4-7.7-0.9-15.3-3.7-22.6
				c-1-2.5-4.9-2.3-4.9,0.7c0.1,7.7,1,15.3,2.7,22.8c0.5,2,3.7,2.6,4.6,0.6c3.7-8.3,7.3-17.2,3.5-26.2c-0.8-1.9-4.4-2.8-4.8,0
				c-1,7.6-1.6,15.2-1.6,22.8c1.7,0,3.3,0,5,0c0-10.4,0-20.9,0-31.3C96.8,219.4,91.8,219.4,91.8,222.6L91.8,222.6z"/>
		</g>
	</g>
	<g>
		<g>
			<path class="st0" d="M93.1,279.6c0.6,1.6,1.6,2.7,3.3,3.3c1.1,0.4,2.9,0.3,3.7,1.2c0.4-1.4,0.7-2.8,1.1-4.2
				c-2.4,0.4-4.7-0.4-6.3-2.1c-2.3-2.3-5.8,1.2-3.5,3.5c3,3,7.1,4.2,11.2,3.4c1.9-0.4,2.3-2.9,1.1-4.2c-0.8-0.9-1.9-1.5-3.1-1.8
				c-0.5-0.1-0.9-0.2-1.4-0.3c-0.3-0.1-1.2-0.4-1.2-0.3C96.8,275.3,92,276.6,93.1,279.6L93.1,279.6z"/>
		</g>
	</g>
	<g>
		<g>
			<path class="st0" d="M34.5,173.9c-0.1-7.1,1-14.8,3.4-21.5c-1.6,0-3.2,0-4.8,0c2.4,6.7-4.1,16.2-6.8,22.4
				c1.6,0.4,3.1,0.8,4.7,1.3c1.6-13.5,4.6-26.7,8.9-39.6c-1.6,0-3.2,0-4.8,0c2,7-0.6,15.2-1.7,22.2c-0.5,3.1,4.3,4.5,4.8,1.3
				c1.3-8,4-16.9,1.7-24.9c-0.7-2.4-4.1-2.3-4.8,0c-4.5,13.3-7.4,27-9.1,40.9c-0.3,2.4,3.7,3.5,4.7,1.3c3.3-7.6,10.3-17.7,7.3-26.2
				c-0.8-2.4-4-2.4-4.8,0c-2.5,7-3.7,15.4-3.5,22.8C29.5,177.1,34.5,177.1,34.5,173.9L34.5,173.9z"/>
		</g>
	</g>
	<g>
		<g>
			<path class="st0" d="M40.4,142.6c-0.1-13.3,1.4-27.3,12.1-36.6c-1.2-1.2-2.4-2.4-3.5-3.5c-4.8,5.6-9.2,11.2-11.6,18.3
				c-0.8,2.3,2.5,4.3,4.2,2.4c4.6-5.3,9.7-10.1,15.2-14.4c2.5-2-1-5.5-3.5-3.5c-5.5,4.4-10.5,9.1-15.2,14.4c1.4,0.8,2.8,1.6,4.2,2.4
				c2.1-6.2,6.2-11.1,10.3-16.1c2.1-2.5-1.1-5.7-3.5-3.5c-11.6,10.1-13.7,25.5-13.6,40.1C35.4,145.8,40.4,145.8,40.4,142.6
				L40.4,142.6z"/>
		</g>
	</g>
	<g>
		<g>
			<path class="st0" d="M57.7,107.1c-0.1-2.8-0.2-5.6-0.3-8.4c-0.1-1.7-2.2-3.4-3.8-2.2c-8.3,6.3-13.7,14.7-18.9,23.5
				c-1.7,2.8,2.7,5.3,4.3,2.5c3.6-6,7.4-11.8,11.4-17.5c3.8-5.4,7.5-12.5,13.4-15.9c2.8-1.6,0.3-5.9-2.5-4.3
				c-5.7,3.3-9.3,9.5-13.1,14.7C43.5,106.2,39,113,34.7,120c1.4,0.8,2.9,1.7,4.3,2.5c4.8-8,9.6-16.1,17.1-21.7
				c-1.3-0.7-2.5-1.4-3.8-2.2c0.1,2.8,0.2,5.6,0.3,8.4C52.8,110.3,57.8,110.4,57.7,107.1L57.7,107.1z"/>
		</g>
	</g>
	<g>
		<g>
			<path class="st0" d="M82.7,100.7c0.3,1.5,0.4,1.8,1.2,3.1c1.3,2.4,5.6,0.8,4.6-1.9c-2.6-6.9-5.4-13.8-8.2-20.7
				c-1.2,0.9-2.4,1.9-3.7,2.8c11.4,8.2,15.7,21.8,18.1,35c1.4-0.8,2.8-1.6,4.2-2.4c-4.6-3.8-8.8-7.9-12.6-12.5
				c-1.2,1.2-2.4,2.4-3.5,3.5c3,3.4,6,6.8,8.9,10.2c2,2.3,5.1-0.6,3.9-3c-3.5-7.4-6.6-15-9.3-22.7c-1.4,0.8-2.8,1.6-4.2,2.4
				c5.1,5.8,8,12.9,10.8,20.1c1.2,3,6,1.7,4.8-1.3c-3.1-8-6.4-15.8-12.1-22.3c-1.6-1.8-5,0.1-4.2,2.4c2.8,8.1,6.1,16.1,9.8,23.9
				c1.3-1,2.6-2,3.9-3c-3-3.4-6-6.8-8.9-10.2c-2.1-2.4-5.6,1.1-3.5,3.5c3.8,4.6,8,8.7,12.6,12.5c2,1.6,4.6,0.1,4.2-2.4
				c-2.7-14.7-7.9-29-20.4-38c-1.7-1.2-4.5,0.8-3.7,2.8c2.9,6.8,5.6,13.7,8.2,20.7c1.5-0.6,3-1.3,4.6-1.9c-0.2-0.6-0.4-1.3-0.7-1.9
				C87,96.2,82.2,97.6,82.7,100.7L82.7,100.7z"/>
		</g>
	</g>
	<g>
		<g>
			<path class="st0" d="M92.7,113.9c0,2.7-0.1,5.5-0.1,8.2c1.6-0.4,3.1-0.8,4.7-1.3c-3.7-5.1-7.2-10.2-10.7-15.5
				c-1.1,1.1-2.3,2.3-3.4,3.4c8.2,6.3,15.1,14.1,20.4,23.1c1.4,2.3,5.7,0.8,4.6-1.9c-3.6-8.7-7.7-17-12.4-25.2
				c-1.6-2.8-5.9-0.3-4.3,2.5c4.5,7.7,8.5,15.7,11.9,24c1.5-0.6,3-1.3,4.6-1.9c-5.8-9.7-13.2-18-22.2-24.9c-2-1.5-4.7,1.4-3.4,3.4
				c3.4,5.2,7,10.4,10.7,15.5c1.4,1.9,4.6,1.4,4.7-1.3c0-2.7,0.1-5.5,0.1-8.2C97.8,110.7,92.8,110.7,92.7,113.9L92.7,113.9z"/>
		</g>
	</g>
	<g>
		<g>
			<path class="st0" d="M95,124.6c0.3,7.2,1.4,14.1,3.6,21c1.5-0.6,3-1.3,4.6-1.9c-3.5-6.7-6.3-13.7-8.6-20.9
				c-1-3.1-5.8-1.8-4.8,1.3c2.4,7.6,5.4,15,9.1,22.1c1.3,2.5,5.4,0.8,4.6-1.9c-2-6.4-3.2-12.9-3.4-19.6
				C99.9,121.3,94.9,121.3,95,124.6L95,124.6z"/>
		</g>
	</g>
	<g>
		<g>
			<path class="st0" d="M96.9,132.9c1.8,7.2,3.8,14.4,5.9,21.6c0.7,2.2,4.3,2.5,4.8,0c0.8-4.4-1-8.4-2-12.7
				c-1.3-5.2-2.2-10.4-3-15.7c-1.4,0.8-2.8,1.6-4.2,2.4c6.5,6,9,14.3,10.1,22.8c1.6-0.4,3.2-0.9,4.8-1.3c-1.2-5.2-2.5-10.2-5.6-14.6
				c-1.6-2.2-5.4-0.9-4.6,1.9c2.1,7.5,4.2,15.1,6.3,22.6c0.9,3.1,5.7,1.8,4.8-1.3c-2.1-7.5-4.2-15.1-6.3-22.6
				c-1.5,0.6-3,1.3-4.6,1.9c2.8,4.1,4,8.6,5.1,13.4c0.7,3.2,5.2,1.8,4.8-1.3c-1.3-9.4-4.3-18.5-11.4-25.1c-2-1.8-4.5,0-4.2,2.4
				c0.6,4,1.3,8.1,2.2,12.1c0.8,3.8,3.6,9.8,2.8,13.7c1.6,0,3.2,0,4.8,0c-2.1-7.1-4.1-14.3-5.9-21.6
				C100.9,128.5,96.1,129.8,96.9,132.9L96.9,132.9z"/>
		</g>
	</g>
	<g>
		<g>
			<path class="st0" d="M106.4,156.2c0.5,4.4,0.9,8.7,1.1,13.1c1.6-0.4,3.1-0.8,4.7-1.3c-2.8-4.5-4.7-9.2-5.6-14.4
				c-0.6-3.2-5.4-1.8-4.8,1.3c1,5.6,3.1,10.8,6.1,15.6c1.3,2,4.8,1.3,4.7-1.3c-0.2-4.4-0.6-8.7-1.1-13.1
				C111.1,153,106,153,106.4,156.2L106.4,156.2z"/>
		</g>
	</g>
	<g>
		<g>
			<path class="st1" d="M60.7,32.6c-9.1,0.7-14.8,9-14.5,17.8c0.4,11.7,9.1,20.7,12.5,31.5c1,3.1,5.8,1.8,4.8-1.3
				c-2.2-7.2-6.6-13.3-9.6-20.2c-3.3-7.5-4.9-21.9,6.8-22.8C63.9,37.3,63.9,32.3,60.7,32.6L60.7,32.6z"/>
		</g>
	</g>
	<g>
		<g>
			<path class="st1" d="M60.8,83.2c-11.3,9.8-19.4,22.6-23.6,37c-5,17.2-8,35.1-11.7,52.7c-0.7,3.1,4.2,4.5,4.8,1.3
				c3.4-16.3,6.6-32.8,10.7-49c3.9-15.1,11.5-28.2,23.3-38.4C66.8,84.6,63.3,81.1,60.8,83.2L60.8,83.2z"/>
		</g>
	</g>
	<g>
		<g>
			<path class="st1" d="M54.1,238.2c-0.9-10.1-1.8-20.3-1.7-30.5c0.2-11,2.5-21.4,4.2-32.1c1.5-9.5,2.1-19.2,1.5-28.8
				c-0.6-10.5-3.4-21-2.8-31.5c0.2-3.2-4.8-3.2-5,0c-0.6,10.3,2.1,20.4,2.7,30.6c0.7,10.8,0,21.6-2,32.2c-1.7,9.6-3.5,19-3.7,28.8
				c-0.2,10.5,0.7,21,1.6,31.4C49.4,241.3,54.4,241.4,54.1,238.2L54.1,238.2z"/>
		</g>
	</g>
	<g>
		<g>
			<path class="st1" d="M51.3,118.6c-1.3,9.2,0.8,17.8,3.2,26.7c3,11.2,4.3,21.7,2.3,33.2c-1.8,10-6.2,19.4-7.7,29.4
				c-1.5,10.1,1.1,20,3.8,29.6c0.9,3.1,5.7,1.8,4.8-1.3c-3-10.7-5.5-21.2-2.7-32.3c2.3-9.3,5.9-18.2,7.2-27.8
				c1.2-8.8,0.8-17.4-1.3-26c-2.4-9.9-6.2-19.8-4.8-30.2C56.6,116.8,51.8,115.4,51.3,118.6L51.3,118.6z"/>
		</g>
	</g>
	<g>
		<g>
			<path class="st1" d="M49.9,236.1c2.4,7.2,3.8,14.6,4.1,22.2c0.3,6.7,0.5,15-4,20.4c-2,2.5,1.5,6,3.5,3.5c4.7-5.8,5.4-13,5.5-20.2
				c0.1-9.3-1.5-18.5-4.4-27.3C53.8,231.7,48.9,233,49.9,236.1L49.9,236.1z"/>
		</g>
	</g>
	<g>
		<g>
			<path class="st1" d="M51.7,233.6c3.6,13.8,4.8,28.1-0.3,41.7c-1.1,3,3.7,4.3,4.8,1.3c5.4-14.4,4.1-29.8,0.3-44.4
				C55.7,229.2,50.8,230.5,51.7,233.6L51.7,233.6z"/>
		</g>
	</g>
	<g>
		<g>
			<path class="st1" d="M83.8,111.7c14,13.4,14.8,33.6,18,51.6c0.6,3.2,5.4,1.8,4.8-1.3c-3.4-19.1-4.5-39.6-19.2-53.8
				C85.1,106,81.5,109.5,83.8,111.7L83.8,111.7z"/>
		</g>
	</g>
	<g>
		<g>
			<path class="st1" d="M80.7,225.6c16.6,11.5,4.2,36.2,3.8,52c-0.1,3.2,4.9,3.2,5,0c0.5-18.4,13-43-6.3-56.4
				C80.6,219.4,78.1,223.7,80.7,225.6L80.7,225.6z"/>
		</g>
	</g>
	<g>
		<g>
			<path class="st2" d="M76.5,51.8c2.5,6.9-1.4,9.9-4,15.6c-2.1,4.6-0.6,9.8,0,14.6c0.4,3.2,5.4,3.2,5,0c-0.4-3-1.1-6.1-1.1-9.1
				c0-3.7,2.5-6,4.1-9c2.3-4.3,2.5-9,0.8-13.5C80.2,47.4,75.4,48.7,76.5,51.8L76.5,51.8z"/>
		</g>
	</g>
	<g>
		<g>
			<path class="st2" d="M74.2,84.6c12.4,9.6,20.6,23.1,25.6,37.8c2.7,8,4.6,16.2,6,24.5c1,5.9,0.5,13.6,5.9,17.4
				c2.6,1.9,5.1-2.5,2.5-4.3c-2.9-2.1-2.7-9.6-3.3-12.6c-0.6-3.7-1.3-7.4-2.1-11c-1.7-7.9-4-15.7-7.2-23.2
				c-5.3-12.5-13.1-23.8-23.8-32.1C75.2,79.1,71.6,82.6,74.2,84.6L74.2,84.6z"/>
		</g>
	</g>
	<g>
		<g>
			<path class="st2" d="M58.6,113.5c-5.6,0.3-7.1,6.6-6.6,11.4c0.6,4.9,4.2,8.8,9.2,9c3.2,0.1,3.2-4.9,0-5c-2.3-0.1-3.8-1.9-4.2-4
				c-0.2-1.2-0.3-6.2,1.6-6.3C61.8,118.3,61.8,113.3,58.6,113.5L58.6,113.5z"/>
		</g>
	</g>
	<g>
		<g>
			<path class="st2" d="M76.8,111.6c-11.2,2.4-13.1,17.7-2.7,22.6c2.9,1.4,5.4-2.9,2.5-4.3c-6.6-3.1-5.8-11.9,1.5-13.5
				C81.3,115.7,79.9,110.9,76.8,111.6L76.8,111.6z"/>
		</g>
	</g>
	<g>
		<g>
			<path class="st2" d="M82.6,124c1.4,13.2-4.5,25.8-3.2,39.1c1.1,12.2,5.7,23.7,9.9,35.1c4.6,12.9,7.7,25.5,7.7,39.2
				c0,14.7-1.8,29.5-3,44.1c-0.1,1.3,1.2,2.5,2.5,2.5c1.3-0.2,2.5,0.1,3.6,0.9c2.8,1.6,5.3-2.7,2.5-4.3c-2-1.1-3.9-1.6-6.2-1.6
				c0.8,0.8,1.7,1.7,2.5,2.5c1.2-14.3,2.9-28.8,3-43.2c0.1-13.3-2.4-25.8-6.8-38.3c-4.1-11.8-9.4-23.6-10.8-36.2
				c-1.5-13.6,4.6-26.4,3.1-39.9C87.3,120.8,82.3,120.8,82.6,124L82.6,124z"/>
		</g>
	</g>
	<g>
		<g>
			<path class="st2" d="M62.2,220c-7,7.9-4.8,17.9-2.2,27.1c1.8,6.3,3.5,12.8,3.2,19.5c-0.2,6-2.2,13.9-8.2,16.5
				c-2.9,1.3-0.4,5.6,2.5,4.3c9.3-4.1,11.3-17.2,10.5-26.1c-0.6-6.2-2.3-12.1-4-18c-1.8-6.6-3.4-14.2,1.6-19.8
				C67.9,221.1,64.3,217.6,62.2,220L62.2,220z"/>
		</g>
	</g>
	<g>
		<g>
			<path class="st2" d="M65.9,51.4c1.4-2.2,4.1-0.2,5.6,0.9c1.3,1,2.5-1.2,1.3-2.2c-2.8-2.1-6.7-3.5-9,0
				C62.8,51.5,65,52.8,65.9,51.4L65.9,51.4z"/>
		</g>
	</g>
	<g>
		<g>
			<path class="st2" d="M73.1,50.4c0.2-0.4,0.4-0.8,0.7-1.1c0.5-0.5,0.5-1.3,0-1.8s-1.3-0.5-1.8,0c-0.4,0.5-0.8,1-1.1,1.6
				s-0.2,1.3,0.4,1.7C71.9,51.2,72.8,51.1,73.1,50.4L73.1,50.4z"/>
		</g>
	</g>
	<g>
		<g>
			<path class="st2" d="M69.7,49c0-0.3,0-0.3,0.1-0.5c0.8-1.4-1.4-2.7-2.2-1.3c-0.3,0.6-0.5,1.2-0.4,1.8c0,0.7,0.5,1.2,1.2,1.2
				C69.1,50.3,69.7,49.7,69.7,49L69.7,49z"/>
		</g>
	</g>
	<g>
		<g>
			<path class="st2" d="M57.2,49.9c-1.5-0.1-3.2-0.4-4.6,0.3c-1.2,0.5-1.9,1.6-2.5,2.7c-0.8,1.4,1.3,2.6,2.2,1.3
				c0.4-0.6,0.9-1.5,1.7-1.8c1-0.3,2.3,0,3.3,0.1C58.8,52.4,58.8,49.9,57.2,49.9L57.2,49.9z"/>
		</g>
	</g>
	<g>
		<g>
			<path class="st2" d="M51.7,52.5c-0.6-0.3-1.1-0.8-1.5-1.4s-1.1-0.8-1.7-0.4c-0.6,0.3-0.8,1.1-0.4,1.7c0.6,0.9,1.4,1.7,2.4,2.3
				C51.9,55.5,53.1,53.3,51.7,52.5L51.7,52.5z"/>
		</g>
	</g>
	<g>
		<g>
			<path class="st2" d="M54.9,51.2c0.1-1,0-1.8-0.7-2.5c-1.1-1.2-2.9,0.6-1.8,1.8c-0.1-0.1,0.1,0.2,0,0c0.1,0.1,0,0.2,0,0
				c-0.1,0.7,0.2,1.3,0.9,1.5S54.8,51.9,54.9,51.2L54.9,51.2z"/>
		</g>
	</g>
	<g>
		<g>
			<path class="st0" d="M94.5,67.7c-2.7-1.1-5.2-2.5-7.6-4.2c-0.4,1.6-0.8,3.1-1.3,4.7c1.6,0.2,2.8,0.5,4.3,1.2
				c2.6,1.1,3.8-2.5,2.4-4.2c-1.1-1.4-2.2-2.9-3.3-4.4c-0.7,1.3-1.4,2.5-2.2,3.8c1.2-0.1,2.3,0,3.4,0.4c2.2,0.6,4.5-2.5,2.4-4.2
				c-1.2-1-2.3-1.9-3.3-3.1c-0.4,1.4-0.7,2.8-1.1,4.2c1.6-0.5,3.2-1,4.9-1.6c2.1-0.7,2.4-3.4,0.6-4.6c-1.3-0.9-2.7-1.7-4.1-2.4
				c0,1.4,0,2.9,0,4.3c1.9-1,3.8-1.9,5.9-2.6c2.2-0.8,2.5-4.1,0-4.8c-2.5-0.7-5-1.3-7.5-2c0.2,1.5,0.4,3,0.6,4.6
				c1.1-0.8,2.2-1.4,3.5-1.9c2.9-1.3,0.4-5.6-2.5-4.3c-1.3,0.6-2.3,1.1-3.5,1.9c-1.7,1.2-1.6,4,0.6,4.6c2.5,0.7,5,1.3,7.5,2
				c0-1.6,0-3.2,0-4.8c-2.5,0.9-4.8,1.9-7.1,3.1c-1.6,0.9-1.6,3.4,0,4.3c1.4,0.8,2.7,1.6,4.1,2.4c0.2-1.5,0.4-3,0.6-4.6
				c-1.6,0.5-3.2,1.1-4.9,1.6c-1.8,0.6-2.4,2.8-1.1,4.2c1.1,1.1,2.1,2.1,3.3,3.1c0.8-1.4,1.6-2.8,2.4-4.2c-1.6-0.4-3.1-0.6-4.7-0.5
				c-1.7,0-3.3,2.2-2.2,3.8c1.3,1.8,2.7,3.6,4.1,5.4c0.8-1.4,1.6-2.8,2.4-4.2c-1.9-0.8-3.6-1.1-5.6-1.3c-2.7-0.3-3.1,3.4-1.3,4.7
				c2.8,1.9,5.7,3.4,8.8,4.7C96.1,73.7,97.4,68.9,94.5,67.7L94.5,67.7z"/>
		</g>
	</g>
	<g>
		<g>
			<path class="st0" d="M74.5,34.2c5.2-0.9,10.4-1.4,13.4,3.8c2.4,4.2,3.5,9.4,2.3,14c1.4-0.4,2.8-0.7,4.2-1.1
				c-2.6-3.4-4.2-7.3-6.6-10.8C85.7,37,83,34.5,80.2,32c-0.6,1.4-1.2,2.8-1.8,4.3c5.4-0.5,8,1.6,9.4,6.9c1.1,4,2.1,8,3.2,12.1
				c0.4,1.7,3,2.6,4.2,1.1c4.2-5.3,2.6-13.8-1.1-19c-1.9-2.7-4.4-4.9-7.4-6.4c-3.4-1.7-7.1-1.4-10.6-2.7c0,1.6,0,3.2,0,4.8
				c11.1-2.8,21.2,8.9,20.3,19.3c-0.3,3.2,4.7,3.2,5,0c1.3-13.8-12.6-27.6-26.6-24.2c-2.6,0.6-2.1,4,0,4.8c4.6,1.8,9,1,13,4.6
				c3.3,3,7.2,10.9,3.8,15.1c1.4,0.4,2.8,0.7,4.2,1.1c-1.5-5.7-2.2-13.4-5.7-18.4c-2.7-3.9-7.3-4.7-11.8-4.3c-2,0.2-3.5,2.7-1.8,4.3
				c3.4,3,6.3,5.9,8.6,9.9c1.8,3.1,3.4,6.2,5.7,9c1.2,1.5,3.7,0.6,4.2-1.1c1.7-6.4,0.1-14.3-3.9-19.7c-4.5-5.9-11.2-5.5-17.9-4.3
				C70,30,71.3,34.8,74.5,34.2L74.5,34.2z"/>
		</g>
	</g>
	<g>
		<g>
			<path class="st2" d="M67.6,50.3c0,1.3,0.1,2.5,0.3,3.8c0.1,0.7,0.9,1,1.5,0.9c0.7-0.2,1-0.9,0.9-1.5c-0.2-1-0.2-2.1-0.3-3.1
				C70,48.7,67.5,48.6,67.6,50.3L67.6,50.3z"/>
		</g>
	</g>
	<g>
		<g>
			<path class="st2" d="M54.5,51.5c0,1.3,0,2.6,0.1,3.9c0,1.6,2.5,1.6,2.5,0c0-1.3,0-2.6-0.1-3.9C57,49.9,54.5,49.9,54.5,51.5
				L54.5,51.5z"/>
		</g>
	</g>
	<g>
		<g>
			<path class="st3" d="M49.2,59.1c-4.3-5.5-3.7-13.9,1-19c4.5-4.9,12-6.5,18.3-4.7c13.7,3.8,19.1,21.3,8,30.9
				c-2.4,2.1,1.1,5.6,3.5,3.5C94.9,56.9,85.9,33,67.4,30c-8.5-1.4-18,1.8-22.8,9.2c-4.7,7.3-4.2,16.7,1.1,23.4
				C47.7,65.2,51.2,61.7,49.2,59.1L49.2,59.1z"/>
		</g>
	</g>
	<g>
		<g>
			<path class="st3" d="M45.8,62.6c1.6,7.4,7.8,12.6,9.7,19.9c0.8,3.1,5.6,1.8,4.8-1.3c-1.9-7.3-8.1-12.6-9.7-19.9
				C50,58.1,45.2,59.4,45.8,62.6L45.8,62.6z"/>
		</g>
	</g>
	<g>
		<g>
			<path class="st3" d="M75.7,68.1c-0.1,4,0.3,8,0.2,12.1c-0.1,3.2,4.9,3.2,5,0c0.1-4-0.3-8-0.2-12.1C80.8,64.9,75.8,64.9,75.7,68.1
				L75.7,68.1z"/>
		</g>
	</g>
	<g>
		<g>
			<path class="st3" d="M54.7,81.8c-5.4,6.1-11,12.3-14.6,19.7c-3.7,7.5-5.6,15.9-7.6,24c-2.4,9.4-4.4,18.8-6,28.3
				c-0.7,4-1.2,8.1-1.7,12.1c-0.4,3.6-1.6,8-0.6,11.6c1.5,5.6,7.3,5.3,10.6,1.4c4.4-5.2,5.8-13.3,6.7-19.9
				c2-15.3,0.1-34.1,13.6-44.8c2.5-2-1-5.5-3.5-3.5c-8.9,7.1-12.1,18.3-13.3,29.1c-0.8,6.5-0.8,13.2-1.8,19.7
				c-0.5,3.5-1.2,7-2.5,10.3c-0.7,2-1.2,4.9-3.6,4.9c-2.4,0-1.3-1.9-1.1-4c1.6-15.5,4.7-30.8,8.6-45.8c2-7.5,3.7-15.5,7.4-22.4
				c3.4-6.4,8.3-11.8,13.1-17.2C60.4,82.9,56.9,79.4,54.7,81.8L54.7,81.8z"/>
		</g>
	</g>
	<g>
		<g>
			<path class="st3" d="M77.8,81.8c9.7,8.2,16.5,18.8,21.6,30.3c5.7,13,10.2,27.4,11.6,41.6c0.3,3.3,0.5,6.7,0.3,10.1
				c0,0.6,0,5.7-0.5,6c-2,1.1-3.3-3.7-3.6-4.7c-2-6-2.5-12.5-4.2-18.7c-3.6-12.8-9.2-25-16.6-36c-1.8-2.7-6.1-0.2-4.3,2.5
				c9.7,14.5,15.6,30.2,18.9,47.3c0.9,4.7,2.7,15.3,9,15.8c6,0.5,6.2-7.3,6.3-11.4c0.7-16.8-4.1-33.8-10.2-49.3
				c-5.5-14-13.1-27.3-24.7-37.1C78.9,76.2,75.4,79.8,77.8,81.8L77.8,81.8z"/>
		</g>
	</g>
	<g>
		<g>
			<path class="st3" d="M47,120.7c0.8,9.4,4.3,18.3,5.2,27.7c0.9,9.5,0.4,19-1.2,28.4c-2.9,17.2-8,34-5.6,51.6
				c0.4,3.2,5.3,1.8,4.8-1.3c-2.5-18.3,3.9-36,6.4-53.9c1.2-8.6,1.4-17.2,0.5-25.8c-1-9.1-4.3-17.7-5.1-26.7
				C51.7,117.5,46.7,117.5,47,120.7L47,120.7z"/>
		</g>
	</g>
	<g>
		<g>
			<path class="st3" d="M47.7,230.7c3.2,0,3.2-5,0-5C44.4,225.7,44.4,230.7,47.7,230.7L47.7,230.7z"/>
		</g>
	</g>
	<g>
		<g>
			<path class="st3" d="M86.7,119c0.6,6.7,0.7,13.4-0.1,20.1c-0.8,6.8-2.8,13.3-3.6,20.1c-1.6,13.5,4.5,26.1,8.4,38.7
				c4.1,13.3,7.1,27.1,6.7,41.1c-0.2,6.8-1.5,13.4-2.6,20c-1,6.4-1.3,12.8-1.3,19.2c0,1.3,1.1,2.6,2.5,2.5c2.3-0.2,4.7-0.9,5.3,1.7
				c0.6,2.7,0.3,1.2-1.3,1.8c-0.7,0.3-3.6-0.2-3.7-0.2c-4.5-0.9-7.1-3.8-7.9-8.3c-1.4-7.7,0.6-16.4,1-24.1
				c0.6-12.1,2.1-28.5-14.1-29.2c-4.3-0.2-13.8-2-16,3.1c-2.7,6.5,0.2,15.5,1.7,22c1.9,8.6,3.3,18,2.2,26.8
				c-0.5,4.2-4.9,11.9-10.3,8.1c-2.7-1.9-2.1-3.2-0.1-4.2c1.2-0.6,2-0.7,2.9-1.8c4.1-5,1.8-15.5,0.6-21.2c-2-9.4-5.5-18.4-6.2-28.1
				c-0.2-3.2-5.2-3.2-5,0c0.7,10.1,4.3,19.5,6.3,29.4c0.9,4.1,2.6,11.4,0.7,15.5c-1.2,2.7-5,1.9-6.1,5.5
				c-1.9,6.5,5.7,11.6,11.4,10.6c7.5-1.3,10.5-8.6,10.9-15.4c0.6-10.9-1.6-21.3-3.7-31.9c-0.6-2.7-1.1-5.5-1.1-8.3
				c0-3.2-0.4-4.8,2.8-5.1c5.1-0.4,13.7-1.2,16.8,3.7c2.5,4.1,1.8,10.1,1.6,14.6c-0.2,5.9-0.6,11.8-1.1,17.6
				c-0.6,6.8-1.6,15,3.1,20.7c3.9,4.8,15.8,8.2,20.3,2.4c1.8-2.4,1.4-5.6-0.4-7.8c-2.5-3.1-6.7-3.2-10.4-3c0.8,0.8,1.7,1.7,2.5,2.5
				c0-7,0.4-13.7,1.6-20.6c1.1-6.2,2.2-12.4,2.3-18.7c0.4-13.2-2.2-26.3-5.8-38.9c-3.9-13.7-11.3-27.5-9.1-42.1
				c0.9-6,2.6-11.9,3.3-18c0.8-7,0.8-14,0.2-21C91.4,115.8,86.4,115.8,86.7,119L86.7,119z"/>
		</g>
	</g>
	<g>
		<g>
			<path class="st3" d="M71.3,31.8c4.1-4.4,14-5.9,19.3-2.9c7.4,4.2,7.9,13.7,5.9,21c-1.3,4.8-4.9,10.8-3.7,15.9
				c1.1,4.5,5.7,5.2,9.7,4.8c-0.8-1.1-1.6-2.1-2.4-3.2c-1.9,4.9-14.1,1.7-16.3-1.6c-1.8-2.6-6.2-0.1-4.3,2.5c4.9,7,21.7,10,25.5,0.4
				c0.5-1.4-0.9-3.3-2.4-3.2c-6.8,0.8-3.7-6.6-2.5-10.2c1-3,2-6,2.4-9.2c0.8-6.1-0.4-12.6-4.4-17.5c-7-8.4-22.7-8.5-30.2-0.4
				C65.6,30.6,69.2,34.1,71.3,31.8L71.3,31.8z"/>
		</g>
	</g>
</g>
</svg>
