<?xml version="1.0" encoding="utf-8"?>
<!-- Generator: Adobe Illustrator 23.0.3, SVG Export Plug-In . SVG Version: 6.00 Build 0)  -->
<svg version="1.1" id="Calque_1" xmlns="http://www.w3.org/2000/svg" xmlns:xlink="http://www.w3.org/1999/xlink" x="0px" y="0px"
	 viewBox="0 0 178.5 295.1" style="enable-background:new 0 0 178.5 295.1;" xml:space="preserve">
<style type="text/css">
	.st0{fill:#F4A776;}
	.st1{fill:#FBD8C5;}
	.st2{fill:#C5774F;}
	.st3{fill:#936645;}
</style>
<g>
	<g>
		<g>
			<path class="st0" d="M76.5,51.9c-2.5,0-5.1,0-7.6,0c-1,0-1.9,0-2.9,0c-2.3-0.2-1.5,0.6,2.5,2.5c-0.6,0.5,0-3.4,0.2-3.7
				c2.3-3.9,10.7-5.6,14.7-3.8c2,0.9,3.1,3.2,3.7,5.3c0.4,1.5,0.5,2.5,0.5,4.1c0,1.1,0,2.3-0.1,3.4c0.9-0.8,1.1-1.4,0.6-1.9
				c0.4,0.7-7.1,0.7-7.9,0.5c-0.4-0.1-3.1-1.5-3.2-1.5c-0.1-0.2-0.3-0.3-0.4-0.5c-0.2,0.6,0,1.1,0.3,1.5c-0.9,1.5-1.7,2.9-2.6,4.4
				c0.3-0.3,0.6-0.6,0.9-0.8c-1.5,0.9-2.9,1.7-4.4,2.6c-1.7,0.6,3.2-0.6,2.8-0.3c-0.7,0.5-1.7-3.1-0.4,0.7
				c2.5,7.3,14.4,10.9,18.3,2.4c1-2.1,1.9-4.2,2.3-6.5c0.9-5.3-1.4-10.8-7-12.3c-4.8-1.3-11.4,1.6-12.3,7c-0.2,0.6-0.3,1.1-0.2,1.7
				c6.1,0.8,12.2,1.6,18.3,2.4c-3.1-9.1-8.9-15.2-19-15.4c-9-0.2-16.9,4.5-16.6,14.5c0.6,19.1,26.9,24.5,40.8,17.1
				c15.8-8.4,11.6-33.2-0.5-43.1c-12.5-10.3-34.7-6.7-44.2,6.2c-5.2,7.1-6.7,17-2.4,24.9c5.4,10.1,16.1,8.6,25.9,8.5
				C89.4,71.8,89.4,51.8,76.5,51.9L76.5,51.9z"/>
		</g>
	</g>
	<g>
		<g>
			<path class="st0" d="M82.5,68c-18.7-6.9-33.3,9.5-39.9,24.9c-7.7,18-13.4,36.4-10.1,56.1c1.8,11.2,20,8.5,19.6-2.7
				c-0.3-9.1-0.6-18.1-0.2-27.2c0.3-6.7,0.6-14.5,4.2-20.3c3.6-5.7,11-8.1,17.2-9.8c8.2-2.3,16.6-3.2,25.2-2.9
				c14.5,0.4,27.3,4.8,35,17.7c8.1,13.5,7.1,29.7,2.1,44.2c4.9-2,9.8-4,14.7-6c-14.3-9.3-32.1-8.2-48.4-10c-8.7-0.9-17.4-2.4-26-4.3
				c-6.6-1.4-15.3-2.3-20.3-7.3c-2.4,5.7-4.7,11.4-7.1,17.1c32.1-1.6,64.1,0.3,96.1,2.3c11.2,0.7,13.7-17.3,2.7-19.6
				c-14.3-3-28.6-6-42.8-9c-12.6-2.6-26.6-4.1-38.3-9.6c-1.7,6.2-3.4,12.4-5,18.6c27-3.4,54.6-3.7,81.7,0c4.5,0.6,8.8-0.4,11.3-4.6
				c2.3-3.9,1.5-8.8-1.6-12.1C143.1,93.2,132,83,117.2,82.1c-8.3-0.5-16.5,2.2-24.6,3.6c-3.6,0.6-7.1,1-10.7,1.4
				c-1.9,0.2-3.8,0.3-5.8,0.4c-1.3,0.1-2.6,0.1-3.8,0.2c-2.4-0.2-2.6,0-0.5,0.6c1.2,1.2,2.4,2.4,3.6,3.6c-0.2-0.3-0.4-0.6-0.7-1
				c0.5,1.7,0.9,3.4,1.4,5c0,0.3-0.1,0.6-0.1,0.9c-0.9,1.5-1.7,2.9-2.6,4.4c-0.7,0.7-1.4,1-2.3,1c5.4-0.5,10-4.2,10-10
				c0-5-4.6-10.5-10-10c-4.8,0.4-9.6,1.8-12.6,5.9c-3.5,4.8-3.1,11.5,1.2,15.8c4.1,4.1,10.2,3.9,15.5,3.6c5.7-0.3,11.4-0.9,17-1.7
				c5.1-0.7,10.1-1.6,15.1-2.6c4.2-0.9,8.2-1.7,12.4-0.5c7.7,2.2,13.6,9.3,18.8,14.9c3.2-5.6,6.5-11.1,9.7-16.7
				c-29-3.9-58-4.4-87-0.7c-4.4,0.6-8.4,2.7-9.6,7.3c-1.1,4,0.6,9.4,4.6,11.3c13,6.1,27.2,8.3,41.1,11.2c14.9,3.1,29.8,6.3,44.8,9.4
				c0.9-6.5,1.8-13.1,2.7-19.6c-32-2-64.1-3.9-96.1-2.3c-8.5,0.4-13.4,10.7-7.1,17.1c5.9,5.9,13.6,8.8,21.5,10.7
				c9.4,2.3,18.9,4.1,28.5,5.4c9.3,1.3,18.6,2,28,2.7c7.3,0.6,14.4,1.8,20.7,5.8c5.7,3.7,12.7-0.2,14.7-6
				c10-28.8,3.3-65.8-26.1-80.6c-15.2-7.6-33.7-7.8-50.1-5.3C63.7,69.6,45.9,75.5,38.3,90c-8.8,16.6-6.6,38.2-6,56.3
				c6.5-0.9,13.1-1.8,19.6-2.7c-2.1-13,2.4-26.4,7.2-38.3c2.8-7.1,8.3-21.8,18.3-18.1c5.1,1.9,11-2.1,12.3-7
				C91,74.7,87.6,69.9,82.5,68L82.5,68z"/>
		</g>
	</g>
	<g>
		<g>
			<path class="st0" d="M43.6,138.1c0.1,10.8,2.8,21.3,8,30.8c2.7,4.9,6.2,9.4,10,13.4c0.5,0.5,1.3,1,1.6,1.6
				c-0.8-1.3-0.2,0.9-0.2,1.8c0,3.3,0,6.5,0,9.8c0,12.4,0.1,24.8,0,37.2c-0.1,10.6-2.2,20.7-9.1,29.1c-3.4,4.2-4.1,10.1,0,14.1
				c3.5,3.5,10.7,4.2,14.1,0c8.3-10.1,13.3-21.6,14.6-34.7c1.3-13.1,0.4-26.7,0.4-39.9c0-6.3,0.4-12.6-0.1-18.9
				c-0.5-7.4-4.8-11.3-9.4-16.6c-6.6-7.7-9.9-17.7-10-27.7C63.5,125.2,43.5,125.2,43.6,138.1L43.6,138.1z"/>
		</g>
	</g>
	<g>
		<g>
			<path class="st0" d="M58.3,147c-1.4,9.5-0.3,17.7,3.7,26.4c1.6,3.5,6.4,5.3,10,4.8c4.2-0.6,6.8-3.3,8.3-7.2c-0.5,0.7-1,1.4-1.5,2
				c-1.7,0.5-3.4,0.9-5,1.4c0.4,0,0.9,0,1.3,0c-1.7-0.5-3.4-0.9-5-1.4c0.4,0.2,0.7,0.4,1.1,0.6c-1.2-1.2-2.4-2.4-3.6-3.6
				c-1-1.9,0.2,2.8,0.2,2.9c0.2,1.5,0.5,3,0.7,4.5c0.6,4.5,2.7,8.4,7.3,9.6c4.2,1.1,9.2-0.7,11.3-4.6c1.3-2.4,7.4-3.4,8.7-2.7
				c0.8,0.4,4.2,4.2,5.8,5.6c2.8,2.5,5.5,5.1,8.3,7.6c6,5.5,13.9,2.5,16.7-4.4c2.7-6.5,4-14,0.3-20.4c-1.6-2.9-4-5-6.7-6.8
				c-1.8-1.2-3.9-1.9-5.3-3.5c-0.7,5.2-1.3,10.5-2,15.7c3.3-1.8,6.5-3.6,9.8-5.3c9.1-5,4.5-18.2-5-18.6c-16.7-0.8-33.5-0.8-50.2,0.1
				c0,6.7,0,13.3,0,20c5.9-0.8,11.7-0.8,17.6,0c5.4,0.7,10-5.1,10-10c0-6-4.6-9.3-10-10c-5.9-0.7-11.7-0.7-17.6,0
				c-5.4,0.7-10,4.1-10,10c0,5.2,4.6,10.3,10,10c16.7-0.8,33.5-0.8,50.2-0.1c-1.7-6.2-3.4-12.4-5-18.6c-3.3,1.8-6.5,3.6-9.8,5.3
				c-5.9,3.2-6.2,11.1-2,15.7c1.4,1.6,3.1,2.9,4.9,4c0.6,0.4,3.3,2.4,3.9,2.3c0.6,0.2,0.7,0.3,0.5,0.4c-0.7-2-1-2.5-0.7-1.4
				c-0.3,0.1-1.8,5.5-2,6.1c5.6-1.5,11.1-2.9,16.7-4.4c-8.2-7.5-16.6-18.8-28.6-19.1c-9.9-0.2-20.7,3.4-25.6,12.6
				c6.2,1.7,12.4,3.4,18.6,5c-0.9-7.2-0.7-17.2-7.7-21.4c-8.8-5.2-16.5,1.7-19.6,9.6c6.1-0.8,12.2-1.6,18.3-2.4
				c-1.5-3.3-2.2-7.3-1.7-11c0.8-5.3-1.3-10.7-7-12.3C65.8,138.7,59.1,141.6,58.3,147L58.3,147z"/>
		</g>
	</g>
	<g>
		<g>
			<path class="st0" d="M109.2,180.7c0,11.1-0.1,22.1-0.1,33.2c0,9.8-1.2,20.6,1.3,30.2c2.5,9.5,9.4,14.2,16.4,20.2
				c1.6,1.3-0.3,1.5,0.5,0.3c0.3-0.5,1.4-2.1,1.6-2.6c0.4-1.3,0.7,1.5-0.4-0.4c-0.9-1.6-2-4.9-2.6-7.2c-3-12.5-22.3-7.2-19.3,5.3
				c2.9,12.1,11.5,23.7,25.3,21.9c15.6-2.1,19.1-19.4,9.8-30.4c-3.3-3.9-9.3-6-11.5-10.7c-2.1-4.3-1.2-10.4-1.1-14.9
				c0-15,0.1-29.9,0.1-44.9C129.2,167.9,109.2,167.9,109.2,180.7L109.2,180.7z"/>
		</g>
	</g>
	<g>
		<g>
			<path class="st0" d="M90.4,182.7c3.7-1.8,8.5,0.8,11.4,3.5c4.9,4.6,6.4,12,7.3,18.4c2.4,16.8,3,34.1,4.4,51
				c6.2-1.7,12.4-3.4,18.6-5c-1.5-2-2.5-3.5-2.6-6c-0.3-12.9-19.5-12.9-20,0c-0.2,5.3-0.1,10.7,0.3,16c0.4,5.4,4.3,10,10,10
				c5.1,0,10.4-4.6,10-10c-0.9-11.4-1.1-22.8-0.8-34.2c0.4-12.9-19.6-12.9-20,0c-0.4,11.4-0.1,22.8,0.8,34.2c6.7,0,13.3,0,20,0
				c-0.4-5.3-0.5-10.7-0.3-16c-6.7,0-13.3,0-20,0c0.1,5.8,1.7,11.5,5.3,16.1c2.8,3.6,6.6,5.9,11.3,4.6c4-1.1,7.7-5.3,7.3-9.6
				c-1-11.5-1.9-23-2.9-34.4c-0.9-10.5-1.2-21.5-4.5-31.6c-6.3-19.1-25.9-33.9-45.9-24.2c-4.9,2.4-6.2,9.3-3.6,13.7
				C79.7,184.1,85.6,185.1,90.4,182.7L90.4,182.7z"/>
		</g>
	</g>
	<g>
		<g>
			<path class="st1" d="M49.7,40.8c-1.8,6.9-3.3,14.3-0.1,21c3.1,6.5,9.4,9.3,15.9,11.7c6.1,2.2,8.7-7.5,2.7-9.6
				c-3.9-1.4-8.4-2.9-9.9-7.2c-1.5-4.2,0-9,1.1-13.1C61,37.3,51.3,34.6,49.7,40.8L49.7,40.8z"/>
		</g>
	</g>
	<g>
		<g>
			<path class="st1" d="M61.7,74.6c-10.6-1.4-20.2,5.6-25.3,14.5c-5.7,10.1-7.4,22.4-10,33.5c-1.5,6.3,8.2,8.9,9.6,2.7
				c3.1-13.2,5.9-43.4,25.6-40.7C68,85.5,68,75.5,61.7,74.6L61.7,74.6z"/>
		</g>
	</g>
	<g>
		<g>
			<path class="st1" d="M46.5,116.8c-4.3,10.5-5,21.2-0.9,31.9c4,10.6,11.1,19.4,18.2,28.1c4.1,5,11.1-2.1,7.1-7.1
				c-6-7.3-12.2-14.8-15.7-23.7c-3.5-9.2-2.7-17.6,0.9-26.6C58.5,113.5,48.8,110.9,46.5,116.8L46.5,116.8z"/>
		</g>
	</g>
	<g>
		<g>
			<path class="st1" d="M56.6,201.4c1,13.1,2.9,26.4,2.9,39.5c0,6.4-2.3,9.6-6.2,14.4c-3.5,4.3-5.7,9.4-3.9,14.9
				c2,6.1,11.7,3.5,9.6-2.7c-1.6-4.8,5.8-9.7,7.8-13.6c2.3-4.5,2.8-9.7,2.6-14.6c-0.4-12.6-1.9-25.3-2.9-37.9
				C66.1,195,56.1,195,56.6,201.4L56.6,201.4z"/>
		</g>
	</g>
	<g>
		<g>
			<path class="st2" d="M97.9,54.1C96.2,58,96,62.6,94,66.3c-1.5,2.9-0.2,6.4,3,7.3c15.8,4.9,30.1,11.8,39.8,25.7
				c9.2,13.1,13.6,29.6,11.1,45.5c-1,6.3,8.6,9,9.6,2.7c3-18.6-1.3-37.7-12.1-53.2C134.1,78.1,118,69.7,99.6,64c1,2.4,2,4.9,3,7.3
				c2-3.9,2.2-8.2,3.9-12.2C109.1,53.3,100.5,48.2,97.9,54.1L97.9,54.1z"/>
		</g>
	</g>
	<g>
		<g>
			<path class="st2" d="M118.4,97.1c10.7,25.7,20.3,59.7-1.1,82.9c-4.4,4.7,2.7,11.8,7.1,7.1c24.1-26.1,16-63.1,3.7-92.6
				C125.6,88.6,115.9,91.1,118.4,97.1L118.4,97.1z"/>
		</g>
	</g>
	<g>
		<g>
			<path class="st2" d="M118.7,227.1c-0.5,8.4-0.8,17,2.3,25c1.3,3.4,3.1,6.4,5.4,9.2c1.2,1.5,2.5,2.9,3.8,4.3
				c0.4,0.4,4.4,5.4,3.8,5.5c-6.4,0.5-6.4,10.5,0,10c4.5-0.4,8.4-2.9,9.6-7.6c1.3-5.3-1.7-10.1-5.1-13.8c-3.9-4.2-7.4-7.9-8.9-13.6
				c-1.7-6.2-1.2-12.7-0.8-19C129,220.6,119,220.7,118.7,227.1L118.7,227.1z"/>
		</g>
	</g>
	<g>
		<g>
			<path class="st2" d="M81.6,40.6c-0.1,1.8-0.1,3.5,0.1,5.3c0.1,1,0.8,1.9,1.9,1.9c0.9,0,2-0.9,1.9-1.9c-0.1-1.8-0.2-3.5-0.1-5.3
				C85.4,38.2,81.7,38.2,81.6,40.6L81.6,40.6z"/>
		</g>
	</g>
	<g>
		<g>
			<path class="st2" d="M66.8,41.1c0.2,1.9,0.4,3.8,0.6,5.8c0.1,1,0.8,1.9,1.9,1.9c0.9,0,2-0.9,1.9-1.9c-0.2-1.9-0.4-3.8-0.6-5.8
				c-0.1-1-0.8-1.9-1.9-1.9C67.7,39.2,66.7,40.1,66.8,41.1L66.8,41.1z"/>
		</g>
	</g>
	<g>
		<g>
			<path class="st3" d="M54.8,69.3C44.8,72.7,36.3,78,31.9,88c-5.6,12.7-5.9,26.8-8,40.3c-0.5,3.4-0.6,6.6-0.3,9.9
				c0.5,5.5,0.6,12.1,4,16.8c2.6,3.5,7.1,5.7,11.4,4c4.5-1.8,6.2-6.7,7.3-11.1c0.8-3.1-4.1-4.5-4.8-1.3c-0.5,2.1-1,4.5-2.5,6.1
				c-2.8,3.1-6.2,1.4-8-1.9c-2.2-3.9-2.1-9.4-2.4-13.8c-0.4-5.4,0.8-10.6,1.5-16c1.3-10.6,2.2-21.5,6.6-31.3
				c3.8-8.5,11.1-12.8,19.6-15.7C59.1,73.1,57.8,68.2,54.8,69.3L54.8,69.3z"/>
		</g>
	</g>
	<g>
		<g>
			<path class="st3" d="M55.3,89.3c-10.6,15.1-17.2,33.7-14.6,52.3c2.2,15.9,11,30.6,25,38.8c2.8,1.6,5.3-2.7,2.5-4.3
				c-13.3-7.8-21.5-22.2-22.8-37.4c-1.5-16.8,4.8-33.2,14.3-46.7C61.5,89.2,57.2,86.7,55.3,89.3L55.3,89.3z"/>
		</g>
	</g>
	<g>
		<g>
			<path class="st3" d="M119.3,92.3c16.6,9.2,16.7,30,13.6,46.3c-2.7,14.6-6,31.2-18.3,40.9c-2.5,2,1,5.5,3.5,3.5
				c14.2-11.3,18.1-31.9,20.5-48.9c2.4-17.1-0.3-37.1-16.9-46.2C119,86.4,116.5,90.8,119.3,92.3L119.3,92.3z"/>
		</g>
	</g>
	<g>
		<g>
			<path class="st3" d="M105.1,70.4c11.2-0.5,20.6,4.8,28.3,12.6c7.5,7.6,11.7,15.3,15.1,25.3c2.5,7.3,5.2,14.8,4.9,22.7
				c-0.2,4.6-1.2,9.2-2.3,13.7c-0.6,2.4-1.1,4.9-2,7.3c-1.2,3.3-5.1,8.8-8.9,4.9c-2.2-2.3-5.8,1.2-3.5,3.5c3.3,3.4,8.5,3.5,12.3,0.6
				c4.7-3.6,5.9-10.4,7.2-15.8c2.6-10.7,2.8-20.4-0.5-31c-3.8-12.5-8-23.6-17.2-33.1c-9-9.4-20-16.3-33.4-15.7
				C101.8,65.5,101.8,70.5,105.1,70.4L105.1,70.4z"/>
		</g>
	</g>
	<g>
		<g>
			<path class="st3" d="M50.3,167c2.8,18.2,5,36.5,6.7,54.9c0.4,4.2,0.7,8.5,1.1,12.7c0.3,4.2,2.2,10.9-0.7,14.5
				c-1.9,2.3-4.6,3.8-6.3,6.4c-1.8,2.6-2.9,5.6-3.4,8.7c-0.8,4.9,0,11,4.6,13.8c5.6,3.4,12.2-0.7,17-3.6c5.2-3.1,10.4-6.6,14.1-11.5
				c4.1-5.4,4.9-11.6,5-18.2c0.2-8.9,0-17.9-0.5-26.8c-0.3-6.2-4.3-24.1,4.4-25.8c7.7-1.5,7.2,15.7,7.6,20.4
				c0.8,8.9,1.4,17.8,1.9,26.7c0.3,7.1,0,14.7,2.4,21.5c2,5.9,6.1,10.5,11.2,14c4.9,3.4,11.4,7,17.5,5.2c5.3-1.5,8.9-6.7,9.5-12
				c0.9-7.6-3.4-13.7-7.4-19.6c-5.8-8.5-5.8-17.7-5-27.7c1.6-20.1,3.8-40.2,6.4-60.2c0.4-3.2-4.6-3.1-5,0
				c-2.1,16.1-3.9,32.3-5.4,48.5c-1.3,14.3-3.9,29.3,4.7,41.9c4,5.8,10,13.7,5.3,20.9c-5.4,8.2-16.7,0.5-21.7-4.3
				c-5.8-5.6-6.7-13.1-7-20.8c-0.4-7.9-0.7-15.7-1.3-23.6c-0.6-7.7-1.1-15.5-2.2-23.1c-0.6-4.2-1.7-9-5.3-11.6
				c-4-2.9-9.2-1.7-12.5,1.7c-4.3,4.4-4,10.7-3.7,16.4c0.5,8,1,15.9,1.1,23.9c0.1,7.6,1.3,16.8-1.1,24.1
				c-2.1,6.5-8.1,10.9-13.6,14.4c-2.7,1.7-5.9,4-9,4.8c-6.8,1.7-8.1-5-6.8-10.1c1.1-4.3,3.7-7.2,7-10.1c2.3-2,3.8-3.9,4-7.1
				c0.6-8.6-1.2-18-1.9-26.5c-1.7-18.2-3.9-36.2-6.7-54.3C54.6,162.5,49.8,163.9,50.3,167L50.3,167z"/>
		</g>
	</g>
	<g>
		<g>
			<path class="st3" d="M67.1,64.9C56.6,65.6,48,56.4,48.8,46c0.9-11.6,10.9-19.9,21.9-21.4c11-1.6,25,2.2,29.4,13.4
				c3.1,8,4.3,22.5-4.8,27.2c-2.8,1.5-0.3,5.8,2.5,4.3c11.7-6.1,11-23.8,6.5-34.3C98.6,22,82,17.5,68.8,19.7
				c-13.2,2.3-24.7,13-25.1,26.9c-0.4,12.7,10.5,24.1,23.4,23.2C70.3,69.7,70.4,64.7,67.1,64.9L67.1,64.9z"/>
		</g>
	</g>
</g>
</svg>
