<?xml version="1.0" encoding="utf-8"?>
<!-- Generator: Adobe Illustrator 23.0.3, SVG Export Plug-In . SVG Version: 6.00 Build 0)  -->
<svg version="1.1" id="Calque_1" xmlns="http://www.w3.org/2000/svg" xmlns:xlink="http://www.w3.org/1999/xlink" x="0px" y="0px"
	 viewBox="0 0 259 308.1" style="enable-background:new 0 0 259 308.1;" xml:space="preserve">
<style type="text/css">
	.st0{fill:#EC82AD;}
	.st1{fill:#F2C8DA;}
	.st2{fill:#D3538D;}
	.st3{fill:#B83364;}
	.st4{fill:#F4A776;}
	.st5{fill:#FBD8C5;}
	.st6{fill:#C5774F;}
	.st7{fill:#9B6137;}
</style>
<g>
	<g>
		<g>
			<path class="st0" d="M143.8,44.1c2.5-0.4,0.1-0.4,1.5-2.1c0,0,0.9-0.1,1.1-0.2c2-0.9,6.7-0.2,8.1,1.7c0.6,0.9,0.8,1.9,0.9,3
				c0.1,0.9,0,1.8-0.3,2.6c-1,1.8-0.4,2.3,2,1.3c-0.2,0.5-5.7-6.2-6.1-7.1c0.3,1.3,0.7,2.5,1,3.8c0-0.4,0-0.7-0.1-1.1
				c-0.7,1.8-1.5,3.5-2.2,5.3c0.2-0.3,0.5-0.5,0.7-0.8c-2.4,0.6-4.8,1.3-7.3,1.9c0.3,0,0.6,0.1,0.9,0.1c4,0.6,8-1,9.2-5.2
				c1-3.5-1.2-8.6-5.2-9.2c-7.9-1.1-13.7,5.5-9.8,13.2c2.7,5.3,7.8,10.5,13.2,13c15.7,6.9,22-16.6,16.5-27.2
				c-5.5-10.7-23.9-14.7-33-6.1c-4.7,4.4-6.1,11.9-4.2,17.9c2.4,7.5,9.5,10.7,16.8,9.6c4-0.6,6.2-5.6,5.2-9.2
				C151.8,45,147.8,43.5,143.8,44.1L143.8,44.1z"/>
		</g>
	</g>
	<g>
		<g>
			<path class="st0" d="M143.7,50.3c0.8,1.1,2.6,3.1,2.6,4.6c0.3-1.3,0.7-2.5,1-3.8c0.9-1.3,0.2-0.3-0.7,0.3c-1,0.6-1.9,1.2-2.9,1.7
				c-2.2,1.2-4.4,2.4-6.7,3.4c-4,1.9-6.4,4.3-8.3,8.2c-4.2,8.8-9,17.8-11.1,27.3c-2.3,10.2-3,20.9-4.3,31.2
				c-1.4,10.8-3.1,21.6-2.8,32.5c0.3,9.6,15.3,9.6,14.9,0c-0.4-11.8,1.7-23.7,3.1-35.4c1.4-11.2,2-22.8,6.2-33.3
				c1.9-4.7,4.2-9.3,6.4-13.9c1-2.2,1.1-2.6,3.3-3.7c2.3-1.1,4.5-2.2,6.7-3.4c4.8-2.7,9.9-5.8,10-12c0-5.4-3.8-10.2-7-14.3
				c-2.5-3.2-7.9-2.6-10.6,0C140.5,42.8,141.2,47.1,143.7,50.3L143.7,50.3z"/>
		</g>
	</g>
	<g>
		<g>
			<path class="st0" d="M125.3,150.6c1.2-10.8,2.7-22.1,7-32.2c1.9-4.6,4.6-9.9,8.5-13.1c4-3.2,10.2-3.2,15-2.2
				c10.4,2.1,15.1,10.2,18.7,19.5c4.5,11.7,3.4,24.5,2.5,36.7c5,0,10,0,14.9,0c0.9-14.6,0.5-29.3-1.2-43.9
				c-1.7-13.7-3.6-28.3-11.2-40.1c-6.6-10.4-19.6-21.2-32.4-14.7c-5.8,3-11.5,8-16,12.7c-4.7,4.9-7.9,10.6-8.1,17.5
				c-0.2,5.8,6.5,9.2,11.2,6.5c6.5-3.7,14.2-4.7,21.5-4.9c7-0.2,14.1,0.5,19.2,5.7c3.5-3.5,7-7,10.6-10.6
				c-8.4-6.8-17.2-13.1-26.5-18.7c-6.6-4-13.6,3.8-10.2,10.2c2.6,5,7.8,8.7,11.5,13c4,4.7,7.5,9.7,10.7,14.9
				c5,8.2,17.9,0.7,12.9-7.5c-3.3-5.3-6.9-10.4-10.8-15.2c-1.9-2.3-3.8-4.5-5.8-6.6c-1.7-1.8-4.4-3.8-5.6-6
				c-3.4,3.4-6.8,6.8-10.2,10.2c8.2,5,16,10.4,23.5,16.4c7.3,5.9,17.6-3.6,10.6-10.6c-7.5-7.4-17.7-10.2-28-10.1
				c-10.5,0.1-21.6,1.7-30.9,7c3.7,2.2,7.5,4.3,11.2,6.5c0.1-4.1,3.9-7.2,6.7-9.7c2.7-2.4,7.6-8,11.6-7.3c3.7,0.6,7.4,5.1,9.4,7.9
				c2.9,4,4.7,8.5,6.1,13.2c6,20.5,6.4,43.3,5.1,64.5c-0.6,9.6,14.2,9.5,14.9,0c1.3-16,1.4-31.7-5.5-46.6
				c-2.7-5.8-5.3-11.4-10.2-15.5c-5.7-4.8-12.4-8-19.8-9c-7.1-0.9-14.9-0.4-21.3,3.2c-6.3,3.5-10.7,9.9-13.9,16.1
				c-6.9,13.4-9,28.4-10.7,43.2c-0.5,4,3.8,7.5,7.5,7.5C122.3,158.1,124.9,154.7,125.3,150.6L125.3,150.6z"/>
		</g>
	</g>
	<g>
		<g>
			<path class="st0" d="M123.8,158.2c9.5,4.8,21,5.2,31.5,5c9.8-0.2,21.6-2,26.6-11.8c6.6-12.9-10.8-14.8-19.2-15.2
				c-9.9-0.5-22.5,2.6-31-3.8c-1.3,4.6-2.5,9.3-3.8,13.9c11-1.1,21.9-0.9,32.8,0.9c4.3,0.7,9.5,2.2,13.8,0.9c4.9-1.4,6.6-6,7.1-10.7
				c0.5-4.2,0.8-9.6-2.4-13c-3.4-3.6-9.1-2.9-13.5-2.6c-5.2,0.4-10.5,1.3-15.6,2.2c-3.5,0.6-9.6,2.8-11.3-1.2c0.3,1.3,0.7,2.5,1,3.8
				c0-0.2,0-0.5,0-0.7c-0.7,1.8-1.5,3.5-2.2,5.3c-3,1.4-3.2,1.9-0.5,1.4c1.3-0.1,2.5-0.1,3.8-0.2c2.5-0.1,5,0,7.5,0.1
				c4,0.2,7.8,0.6,11.8,0.1c7.4-0.9,16.2-5.7,19.8-12.6c5.2-9.8-5.4-15.2-13.6-15.7c-9.1-0.6-17.6,3.2-26,5.9
				c-9.1,3-5.2,17.4,4,14.4c4.4-1.4,8.8-3.2,13.3-4.4c1.8-0.5,3.6-0.9,5.5-1c1.3-0.1,4.8,0.8,4.3-0.4c-0.3-1.9-0.5-3.8-0.8-5.8
				c-0.6,2.4-5.9,4.5-8,4.8c-4.5,0.7-9.4-0.3-13.9-0.4c-7-0.1-21.5-0.9-19.6,10.2c1.5,9.2,11.6,12.8,19.8,12.2
				c9.4-0.7,18.8-4.2,28.4-3.1c-1.3-0.3-2.5-0.7-3.8-1c0.3,0.2,0.5,0.3,0.8,0.5c-1.1-1.5-2.3-3-3.4-4.5c0.5,1.4-0.6,4.3-0.1,5.3
				c5.2-2.4,6.4-3.5,3.7-3.5c-0.8,0-1.5-0.1-2.3-0.2c-4.3-0.5-8.6-1.4-12.9-1.9c-9.1-1-18.2-1-27.3-0.1c-7.6,0.8-9.8,9.4-3.8,13.9
				c6.6,5,14.9,5.9,22.9,5.8c4.3,0,8.5-0.2,12.8-0.1c1.8,0.1,3.7,0.2,5.5,0.3c1.2,0.1,2.4,0.2,3.6,0.3c1.9,0.7,2,0.2,0.2-1.5
				c-0.3-1.9-0.5-3.8-0.8-5.8c-1.1,5-13.6,3.9-17.1,3.9c-6.5-0.1-14.1,0-20-3C122.7,140.9,115.2,153.8,123.8,158.2L123.8,158.2z"/>
		</g>
	</g>
	<g>
		<g>
			<path class="st0" d="M147.1,112.1c-0.5,2.5-0.1,3.2,1.1,2.1c0.9-0.6,1.8-1,2.8-1.3s2-0.6,3-0.7c1.9,0.2,2.2,0,1-0.4
				c1.1-4.2,2.2-8.3,3.3-12.5c-12.9,1.9-29.2,8.4-34.5,21.3c-1.5,3.8,1.7,8.2,5.2,9.2c4.3,1.2,7.7-1.5,9.2-5.2
				c1.3-3.1,7.5-5.7,10.2-7c4.4-2.1,9.1-3.2,13.9-3.9c6.1-0.9,6.5-8.7,3.3-12.5c-6-6.9-18.1-4-24.9,0.1c-8.2,4.9-10.1,13.9-4.1,21.4
				c2.5,3.2,7.9,2.6,10.6,0C150.2,119.6,149.6,115.2,147.1,112.1L147.1,112.1z"/>
		</g>
	</g>
	<g>
		<g>
			<path class="st0" d="M120.5,164.2c1.5,5.9,3.8,13.6,8.1,18c2,2.1,5.3,3.3,8.2,2.5s4.5-3.3,6.8-5c3.8-2.8,8.9-4.1,13.6-3.5
				c5.6,0.7,9.9,5.2,15.8,4.1c11.8-2.3,18.2-25.1,3-26.6c-3.2-0.3-6.3,0-9.4,0.9c-3.4,0.9-5.7,0.9-9.2,0.4c-7.3-1-14.6-1-22-0.1
				c-4,0.5-7.5,3.1-7.5,7.5c0,3.7,3.4,8,7.5,7.5c7-0.8,14-0.9,21,0c3.4,0.4,6.7,0.9,10.1,0.3c2.8-0.5,5.8-2.4,8.6-1.3
				c-1.5-1.1-3-2.3-4.5-3.4c0.1,0.2,0.2,0.5,0.3,0.7c-0.3-1.3-0.7-2.5-1-3.8c0,0.7-0.2,1.5-0.2,2.2c-0.1,0.5-0.3,1.1-0.4,1.6
				c0.8-0.1,1.5-0.2,2.3-0.4c0.1-0.3-5.6-2.6-6.3-2.9c-3.9-1.4-8.3-1.9-12.4-1.6c-4.2,0.3-8.1,1.2-12,2.9c-4,1.7-6.5,4.5-9.9,6.8
				c1.9-0.3,3.8-0.5,5.8-0.8c2.6,1.7,3.1,1.6,1.6-0.5c-0.5-1-1-2-1.4-3c-0.9-2.1-1.5-4.4-2.1-6.6C132.5,151,118.1,154.9,120.5,164.2
				L120.5,164.2z"/>
		</g>
	</g>
	<g>
		<g>
			<path class="st0" d="M126.5,179.5c1.3,14.8,6.2,28.9,7.3,43.7c0.6,7.6,0.4,15.2,0,22.8c-0.2,3.8-0.5,7.6-0.8,11.4
				c-0.1,1.3-0.2,2.5-0.4,3.8c0.9-1.2,1.8-2.4,2.6-3.7c-0.2-0.3-3.6,1.2-4,1.4c-6.4,2.9-8.5,10.7-4.1,16.4
				c4.5,5.8,12.3,5.3,18.7,3.8c7.5-1.7,11.7-6.4,12.2-14.2c0.5-7.3-3.2-13.5-4.1-20.5c-0.5-4-3.1-7.5-7.5-7.5c-3.6,0-8,3.4-7.5,7.5
				c0.7,5.5,2.6,10.5,3.8,16c0.2,1,0.4,1.9,0.4,2.9c0.1,0.7,0,1.4-0.2,2.1c0.5-0.5,1.1-0.9,1.6-1.4c0,0.1-3.3,0.9-3.6,0.9
				c-0.8,0.2-1.6,0.2-2.4,0.2c-1.3-0.1-1,0.3,0.8,1.1c0,1.3,0,2.6,0,4c-2.8,2.1-3.2,2.8-1.2,2c0.7-0.2,1.4-0.4,2-0.7
				c1.5-0.6,3-1.3,4.1-2.5c2.8-2.7,3-6.2,3.4-9.8c0.9-9.1,1.5-18.3,1.4-27.5c-0.2-17.9-6.1-34.6-7.6-52.2
				C140.6,170,125.6,169.9,126.5,179.5L126.5,179.5z"/>
		</g>
	</g>
	<g>
		<g>
			<path class="st0" d="M166.8,174.5c0,5.1,0,10.3,0,15.4c0,8.2,12.9,10.4,14.7,2c0.9-4.4,1.8-8.7,2.5-13.1c0.3-2.2,0.7-4.4,0.6-6.6
				c-0.1-1.5-0.9-3.5-0.7-4.9c0.5-4-3.8-7.5-7.5-7.5c-4.5,0-6.9,3.5-7.5,7.5c-0.4,3.1,0.9,5.9,0.4,9.1c-0.6,3.8-1.4,7.7-2.2,11.5
				c4.9,0.7,9.8,1.3,14.7,2c0-5.1,0-10.3,0-15.4C181.7,164.9,166.8,164.9,166.8,174.5L166.8,174.5z"/>
		</g>
	</g>
	<g>
		<g>
			<path class="st0" d="M162.2,169c0.3,12.3,0.7,24.6,1,36.9c0.2,6.4,0.5,12.7-0.1,19.1c-0.6,6-1.7,12-2.4,18
				c-0.7,5.8,0.5,11.6,0.2,17.5c-0.3,5.3-0.6,10.4,4.3,13.8c6.8,4.6,28.9,5.1,24.3-8.2c-3.1-9.1-17.5-5.2-14.4,4
				c0.1,0.2,0.1,0.4,0.2,0.7c0.3-1.9,0.5-3.8,0.8-5.8c-0.1,0.2-0.2,0.4-0.4,0.7c1.5-1.1,3-2.3,4.5-3.4c-0.8,0.2-6-0.4-6.2-0.1
				c1.2,2.8,1.7,3.2,1.6,1.4c0.1-1,0.1-1.9,0.2-2.9c0.2-4.5-0.5-8.9-0.5-13.4c0-8.3,2.5-16.7,3-25c1.1-17.5-0.6-35.5-1.1-53.1
				C176.9,159.5,161.9,159.4,162.2,169L162.2,169z"/>
		</g>
	</g>
	<g>
		<g>
			<path class="st0" d="M169.2,208.2c0.1,3.5-0.3,6.7-1.8,9.9c4.6,1.3,9.3,2.5,13.9,3.8c2-16.8,4.1-33.6,6.1-50.4
				c0.5-4-3.8-7.5-7.5-7.5c-4.4,0-7,3.4-7.5,7.5c-2,16.8-4.1,33.6-6.1,50.4c-0.9,7.4,10.8,10.2,13.9,3.8c2.7-5.6,4-11.2,3.9-17.4
				C184,198.6,169.1,198.5,169.2,208.2L169.2,208.2z"/>
		</g>
	</g>
	<g>
		<g>
			<path class="st0" d="M128.5,173.2c-0.4,11.6,0.1,23.2,1.5,34.7c0.5,4,3.1,7.5,7.5,7.5c3.7,0,8-3.4,7.5-7.5
				c-1.4-11.5-1.9-23.1-1.5-34.7C143.7,163.5,128.8,163.5,128.5,173.2L128.5,173.2z"/>
		</g>
	</g>
	<g>
		<g>
			<path class="st1" d="M143.9,22.7c-14.1,4.2-17.9,22.2-10.4,34c3.5,5.4,12.1,0.4,8.6-5c-3.9-6.1-3.5-17,4.4-19.3
				C152.7,30.5,150.1,20.8,143.9,22.7L143.9,22.7z"/>
		</g>
	</g>
	<g>
		<g>
			<path class="st1" d="M128.2,60c-1.4,3.7-4.9,6.4-7.3,9.4c-2.2,2.8-4.1,5.9-5.6,9.2c-3.7,8-5.8,16.6-7,25.3
				c-1.2,8.8-1.3,17.7-1.1,26.5c0.2,9.3,0,18.9,2.5,27.8c1.8,6.1,11.4,3.5,9.6-2.6c-2.4-8.3-2.1-17.4-2.2-26.1s-0.1-17.6,1.3-26.3
				c1.2-8,3.3-16.1,7.3-23.2c3.5-6.3,9.4-10.6,12.1-17.5C140.2,56.7,130.5,54.1,128.2,60L128.2,60z"/>
		</g>
	</g>
	<g>
		<g>
			<path class="st1" d="M118.3,143.1c-1.2,12.9,3,25.1,6.5,37.4c3.7,12.9,5.9,26,6.7,39.3c0.4,6.4,10.4,6.4,10,0
				c-0.8-13-2.8-25.8-6.1-38.4c-3.4-12.6-8.3-25-7.1-38.3C128.9,136.7,118.9,136.8,118.3,143.1L118.3,143.1z"/>
		</g>
	</g>
	<g>
		<g>
			<path class="st1" d="M132.4,224.9c1.4,7.6,2.4,15.3,2.9,23c0.2,3.1-0.5,7.9,0.4,10.8c-0.5,2.3,0,2.6,1.4,0.8
				c1.8-1.2,1.8-1.5-0.1-1c-1.4,0-2.8,0.5-4.1,1c-10.1,3.7-13.8,17.2-3.9,23.5c5.4,3.4,10.4-5.2,5-8.6c-2.1-1.3-0.7-3.7,0.7-4.7
				c1.9-1.4,3.8-1.1,5.8-1.6c4.8-1.3,5.1-6,5-10.2c-0.2-11.9-1.5-23.8-3.7-35.5C140.9,216,131.3,218.7,132.4,224.9L132.4,224.9z"/>
		</g>
	</g>
	<g>
		<g>
			<path class="st1" d="M153.2,174.2c7.3,12.7,8.8,27.3,8.8,41.7c0.1,16.4-1,32.9-3.6,49.2c-1,6.3,8.6,9,9.6,2.6
				c2.9-17.7,4.2-35.6,4-53.5c-0.2-15.6-2.3-31.4-10.2-45.1C158.6,163.6,150,168.6,153.2,174.2L153.2,174.2z"/>
		</g>
	</g>
	<g>
		<g>
			<path class="st1" d="M173.2,96.8c0.9,14.8,1.8,29.7,2.7,44.5c0.5,7.9-1,29.2,10.6,30.1c6.4,0.5,6.4-9.5,0-10
				c-0.3,0-0.5,0-0.8-0.1c1.2,0.5,2.3,1,3.5,1.5c-3-3-2.6-9.9-2.9-13.8c-0.4-5.8-0.7-11.6-1.1-17.4c-0.7-11.6-1.4-23.2-2.1-34.8
				C182.8,90.4,172.8,90.4,173.2,96.8L173.2,96.8z"/>
		</g>
	</g>
	<g>
		<g>
			<path class="st2" d="M161.2,41c0.4,6.7-1.9,12.3-6.9,16.8c-3,2.7-1.1,7.2,2.2,8.3c16.2,5.6,24,22.3,27.3,37.9
				c1.9,9,2.7,18.3,3.4,27.4c0.7,9.8,0.8,19.6-1.7,29.2c-1.6,6.2,8,8.9,9.6,2.6c2.8-10.7,2.9-21.8,2-32.8c-0.9-10.9-1.9-22-4.5-32.7
				c-4.5-18.1-15.2-35.1-33.5-41.4c0.7,2.8,1.5,5.5,2.2,8.3c6.8-6.1,10.4-14.8,9.8-23.8C170.8,34.6,160.8,34.6,161.2,41L161.2,41z"
				/>
		</g>
	</g>
	<g>
		<g>
			<path class="st2" d="M118.7,106.6c0,9.4,0,18.9,0,28.3c0,6.4,10,6.4,10,0c0-9.4,0-18.9,0-28.3
				C128.7,100.2,118.7,100.2,118.7,106.6L118.7,106.6z"/>
		</g>
	</g>
	<g>
		<g>
			<path class="st2" d="M175.8,172.2c-0.4,28.6-0.7,57.1-1.1,85.7c-0.1,6.4,9.9,6.4,10,0c0.4-28.6,0.7-57.1,1.1-85.7
				C185.9,165.8,175.9,165.8,175.8,172.2L175.8,172.2z"/>
		</g>
	</g>
	<g>
		<g>
			<path class="st2" d="M177.1,254.8c-0.1,0-0.2,0-0.3,0c-1.3,0-2.6,0.6-3.5,1.5c-0.9,0.9-1.5,2.3-1.5,3.5c0.1,1.3,0.5,2.6,1.5,3.5
				s2.2,1.5,3.5,1.5c0.1,0,0.2,0,0.3,0c1.3,0,2.6-0.6,3.5-1.5s1.5-2.3,1.5-3.5c-0.1-1.3-0.5-2.6-1.5-3.5
				C179.7,255.4,178.5,254.8,177.1,254.8L177.1,254.8z"/>
		</g>
	</g>
	<g>
		<g>
			<path class="st2" d="M177.8,266.1c0.6-0.2,0.4-0.3,0.8,0c0.3,0.2,0.6,0.4,1,0.8c0.5,0.6,1,1.5,1.3,2.3c0.1,0.3,0.3,0.6,0.4,1
				c0.3,0.7,0,1.4,0.3,0c-0.5,2.6,0.7,5.4,3.5,6.1c2.4,0.7,5.6-0.8,6.1-3.5c0.8-4.4-1.3-9.2-4.1-12.5c-2.9-3.4-7.5-5.1-11.9-3.8
				C169,258.4,171.6,268,177.8,266.1L177.8,266.1z"/>
		</g>
	</g>
	<g>
		<g>
			<path class="st2" d="M152.1,39.4c0,1.3,0,2.5,0,3.8c0,1.6,2.5,1.6,2.5,0c0-1.3,0-2.5,0-3.8C154.6,37.8,152.1,37.8,152.1,39.4
				L152.1,39.4z"/>
		</g>
	</g>
	<g>
		<g>
			<path class="st2" d="M144.1,39.1c0,1.3,0,2.7,0,4c0.1,1.6,2.6,1.6,2.5,0c-0.1-1.3-0.1-2.7,0-4C146.6,37.5,144.2,37.5,144.1,39.1
				L144.1,39.1z"/>
		</g>
	</g>
	<g>
		<g>
			<path class="st3" d="M137.8,52.1c-3.7-6.4-8.2-14.9-1.7-21.1c4.9-4.7,13.6-6.1,20-4.4c6.5,1.8,11.6,7,12.2,13.9
				c0.6,7.1-3.4,13.3-8.2,18.1c-2.3,2.3,1.2,5.8,3.5,3.5c6.3-6.3,11-14.7,9.4-23.9c-1.5-8.7-8.7-15.2-17.2-16.8
				c-8.4-1.6-19,0.8-24.6,7.7c-6.5,8-2.1,17.8,2.4,25.5C135.1,57.4,139.4,54.9,137.8,52.1L137.8,52.1z"/>
		</g>
	</g>
	<g>
		<g>
			<path class="st3" d="M135.1,55.5c-32,15.2-28,57.5-27.8,86.7c0,6.5-1.5,15.7,3.5,20.9c3.5,3.6,9.7,4,12-1
				c1.4-3.2,1.4-7.6,1.8-11.1c0.6-5.2,1.2-10.4,1.5-15.6c0.7-9.8,0.9-19.6,0.8-29.4c-0.1-3.2-5-3.2-5,0c0.2,14.4-0.4,28.8-2.1,43.1
				c-0.3,2.4-0.6,4.8-0.9,7.1c-0.4,2.4,0.3,3.3-2.6,3.4c-3.3,0.1-3.7-2.4-4-5.3c-0.2-1.7-0.1-3.5-0.1-5.3
				c-0.1-7.1-0.1-14.2-0.2-21.3c-0.2-24.2,0-55.8,25.4-68C140.5,58.4,138,54.1,135.1,55.5L135.1,55.5z"/>
		</g>
	</g>
	<g>
		<g>
			<path class="st3" d="M164.8,63.3c9.1,2.1,15.1,11.5,18.6,19.5c3.6,8.2,5,17.3,6.3,26.2c1.5,10.1,1.7,20.1,1.4,30.3
				c-0.2,5.5-0.5,10.9-1.3,16.4c-0.3,2.2-0.4,5.5-1.4,7.4c-0.9,1.7-1.6,2.1-3.3,2.9c0.8,0,1.7,0,2.5,0c-1.8-1-2.5-5.2-2.9-7.1
				c-0.6-2.8-0.7-5.7-0.9-8.5c-0.3-5.9-0.6-11.8-1.1-17.7c-0.9-11.2-2.4-22.3-5.5-33.1c-0.9-3.1-5.7-1.8-4.8,1.3
				c2.9,10.1,4.4,20.4,5.2,30.8c0.7,8.6,0.6,17.5,1.8,26c0.7,4.6,2.7,15.1,9.2,12c6.4-3,5.9-11.9,6.6-18.2c2-19.4,0.9-38.8-3.2-57.9
				c-2.9-13.5-11-31.8-25.9-35.2C163,57.8,161.7,62.6,164.8,63.3L164.8,63.3z"/>
		</g>
	</g>
	<g>
		<g>
			<path class="st3" d="M118.7,158.6c3.9,16.6,8.3,33.1,11.5,49.9c3.3,17.5,4.3,35.5,6.1,53.2c0.8-0.8,1.7-1.7,2.5-2.5
				c-8,0.2-19.6,6-17.2,15.8c2.3,9.8,18.2,7.8,25.3,6.4c4.3-0.8,7.8-1.9,9.9-6.1c2.7-5.2,2.5-11.3,1.5-16.9
				c-1-5.8-2.8-11.5-3.8-17.4c-1.2-7.4-1.6-15-2.3-22.4c-0.6-6.8-1.2-13.5-1.9-20.3c-0.5-5.6-3.5-17.5,2.5-20.9
				c7.6-4.3,7.9,13.9,8.2,17.3c0.5,7,0.6,14,0.3,21c-0.5,14.1-2.3,28.1-3.7,42.1c-1,9.7-2.5,20.3,9.8,22.1c6.1,0.9,13.1,0.8,19-1.1
				c2.8-0.9,7.4-2,8.6-5.1c4.1-10.3-11.6-14.8-18.4-16.4c-3.1-0.7-4.4,4.1-1.3,4.8c4.3,1,9,2.3,12.7,5c1.3,1,3.6,3.2,1.9,5
				c-0.9,1-4.5,1.8-5.7,2.1c-4.8,1.4-10.4,1.4-15.4,0.8c-3-0.3-6.1-1.3-6.9-4.6c-0.7-2.7,0.1-6.1,0.4-8.8c2.1-21.9,5.3-43.9,3.8-66
				c-0.5-6.6,0-18-6.1-22.4c-5.2-3.7-11.9,0-14.2,5.2c-1.8,4.1-1.4,8.8-1,13.1c0.5,5.8,1.1,11.6,1.6,17.4c1,10.5,1.6,21.2,3.1,31.6
				c1.2,8.2,10.6,30.6-0.4,35.2c-5,2-13.8,2.6-18.9,0.9c-4.4-1.5-4.4-5.2-1.8-8.4c2.6-3.1,6.6-4.1,10.4-4.2c1.2,0,2.6-1.1,2.5-2.5
				c-1.7-17.5-2.8-35.3-5.9-52.7c-3.1-17.4-7.8-34.6-11.8-51.8C122.8,154.1,118,155.5,118.7,158.6L118.7,158.6z"/>
		</g>
	</g>
	<g>
		<g>
			<path class="st3" d="M178,258.3c0.8-7.5,1.5-15.1,2.3-22.6c0.8-7.2,2.7-14.1,3.6-21.3c0.9-7.6,1.1-15.2,2.2-22.8
				c1-7.3,2.1-14.7,3.2-22c0.4-3.1-4.3-4.5-4.8-1.3c-2.1,14.8-4,29.6-5.4,44.5c-0.7,7.1-2.7,13.9-3.6,21c-0.9,8.2-1.7,16.4-2.5,24.5
				C172.6,261.5,177.6,261.5,178,258.3L178,258.3z"/>
		</g>
	</g>
</g>
<g>
	<g>
		<g>
			<path class="st4" d="M62.7,105.5c-1.8-3.3-3.6-6.6-5.1-10.1c-0.7-1.4-1.3-2.8-1.8-4.3c-0.3-0.9-0.8-1.8-1.1-2.8
				c-0.4-2.1-0.8-1.6-1.2,1.5c-1.3,0.8-2.4,1.4-3.7,2.2c0.5-0.3,3.4-0.6,3.7-1c0.2,0,0.3,0,0.5-0.1c-0.7-0.6-1.3-1.2-1.9-1.8
				c0,0,0.6,2.4,0.6,2.6c0.2,0.5,0.2,0.9,0,1.3c0.5-0.9,0.3-0.8-0.3,0.2c-4.7,5-4.3,12.3-1.6,18.2c1.8,4.1,7.9,5.1,11.5,3
				c4.2-2.5,4.9-7.3,3-11.5c0.4,0.8,0,1,0.4,0.3c1.1-2,2.6-3.4,3.3-5.8c1.1-3.7,0.7-8-0.3-11.6c-2.3-8.8-9.6-12.7-18.3-11.3
				c-8.9,1.3-14.7,7.8-12.2,17c2.1,7.7,6.2,15.4,10.1,22.3C53.5,123.3,68,114.9,62.7,105.5L62.7,105.5z"/>
		</g>
	</g>
	<g>
		<g>
			<path class="st4" d="M47.1,116.4c-4.1,10.6-5,22.1-4.2,33.4c0.4,4.8,0.8,9.9,3.4,14.1c3.2,5,9.3,7.9,15.2,6.2
				c11.6-3.2,14.7-16,13.4-26.5c-1.5-11.1-5.4-22-9.7-32.3c-1.7-4.2-5.6-7.1-10.3-5.9c-3.9,1.1-7.5,6.1-5.9,10.3
				c2.9,7.1,5.4,14.4,7.5,21.8c0.8,3.2,1.8,6.5,2,9.9c0.1,1.4,0.2,2.8-0.3,4.2c0.1-0.2-1.3,3.1-1.3,2.7c0-0.9,2.9,0.4,3.1,0.3
				c0.4-0.3,0-0.8-0.2-1.8c-0.4-2.4-0.6-6.5-0.6-9.6c-0.1-7.6,1.1-14.9,3.9-22c1.7-4.2-1.8-9.2-5.9-10.3
				C52.7,109.3,48.8,112.2,47.1,116.4L47.1,116.4z"/>
		</g>
	</g>
	<g>
		<g>
			<path class="st4" d="M42.4,164.1c0.8,8,2.3,15.7,4.9,23.3c1.5,4.6,7.7,8.5,12.3,5c11.1-8.4,16.3-21.4,12.4-35
				c-5.1,2.2-10.2,4.3-15.3,6.5c0.1,0.2,0.1,0.3,0.2,0.4c0-2.8,0-5.6,0-8.5c-0.1,0.1-0.2,0.3-0.3,0.3c-5.9,9.1,8.6,17.5,14.5,8.5
				c1.9-3,1.4-6.1,0.1-9.2c-1.6-3.8-7-4.9-10.5-3.4c-3.8,1.7-6,5.8-4.9,9.9c1.6,5.8,0.3,12.3-4.7,16.1c4.1,1.7,8.2,3.4,12.3,5
				c-2-6.1-3.5-12.4-4.3-18.9c-0.5-4.5-3.5-8.4-8.4-8.4C46.5,155.7,41.9,159.5,42.4,164.1L42.4,164.1z"/>
		</g>
	</g>
	<g>
		<g>
			<path class="st4" d="M50.5,189.3c-0.5,5.5,0,11,1,16.5c1.8,9.5,16.3,7,16.4-2.3c0.1-6.2,0.2-12.4,0.3-18.6
				c-5.4,0.8-11,1.5-16.4,2.3c1.1,3,2.1,5.9,3.2,9c3,8.5,16.8,7.7,16.4-2.3c-0.1-3.3-0.6-6.5-1.4-9.7c-2.4-9.1-16.5-7.3-16.4,2.3
				c0,14.7,2.4,29.4,7.4,43.3c2.7-3.5,5.4-7,8-10.6c-4.7,0.5-9.4,0.8-14.2,1c-0.4,0-2.9-0.2-3.2,0.1c1-1.4,4.4,8.8,4.3,2.2
				c0-2.3,0.1-4.5,0.4-6.8c1.1-9.1,3.4-17.8,3.3-27.1c-5.4,0.8-11,1.5-16.4,2.3c3.1,8.6,5.2,17.6,6,26.7c0.4,4.5,3.6,8.4,8.4,8.4
				c4.2,0,8.8-3.9,8.4-8.4c-0.9-10.6-3-21.1-6.6-31.2c-3-8.5-16.7-7.7-16.4,2.3c0.3,12.2-4.4,24-3.6,36.1
				c0.5,6.8,4.4,11.8,11.5,12.3c5.9,0.4,12.3-0.5,18.3-1.1c5-0.5,10.1-5,8-10.6c-4.4-12.6-6.7-25.6-6.8-38.9
				c-5.4,0.8-11,1.5-16.4,2.3c0.5,1.8,0.8,3.4,0.8,5.3c5.4-0.8,11-1.5,16.4-2.3c-1.1-3-2.1-5.9-3.2-9c-3.1-8.7-16.3-7.6-16.4,2.3
				c-0.1,6.2-0.2,12.4-0.3,18.6c5.4-0.8,11-1.5,16.4-2.3c-0.8-4-0.8-8-0.4-12c0.4-4.5-4.1-8.4-8.4-8.4
				C54,180.9,50.9,184.8,50.5,189.3L50.5,189.3z"/>
		</g>
	</g>
	<g>
		<g>
			<path class="st4" d="M81.6,227.8c0.6-6.6-0.2-13.5-2.4-19.8c-2.1-5.8-5.4-11-6.7-17.1c-0.9-4.4-6.2-7-10.3-5.9
				c-4.6,1.3-6.8,5.9-5.9,10.3c1.2,5.7,4.1,10.6,6.3,16c2.2,5.3,2.7,10.7,2.3,16.4c-0.4,4.5,4.1,8.4,8.4,8.4
				C78.1,236.2,81.2,232.4,81.6,227.8L81.6,227.8z"/>
		</g>
	</g>
	<g>
		<g>
			<path class="st4" d="M45.3,282.9c8.8-1.8,8.5-12.2,7.1-19.2c-2.2-11.3-5.1-22.1-6.1-33.6c-0.3-2.7-4.4-2.7-4.2,0
				c0.8,8.2,1.9,16.3,3.8,24.3c1.3,5.8,7.7,22.5-1.7,24.4C41.5,279.4,42.6,283.4,45.3,282.9L45.3,282.9z"/>
		</g>
	</g>
	<g>
		<g>
			<path class="st4" d="M40.8,230.1c-0.7,3.9-0.3,7.2,1.5,10.6c0.8,1.6,3.4,1.3,3.9-0.5c0.5-2.3,1.3-4,2.7-5.9
				c-1.3-0.3-2.6-0.7-3.9-1.1c0,8,1.6,15.8,2.9,23.7c0.8,4.4,1.4,8.8,1.5,13.2c0.1,4,0.5,9.3-2.8,12.2c-2,1.8,0.9,4.7,2.9,2.9
				c5.9-5.2,4.3-15.9,3.4-22.8c-1.3-9.8-3.8-19.4-3.8-29.2c0-2.3-2.8-2.6-3.9-1.1c-1.6,2.1-2.5,4.3-3.1,6.8c1.3-0.2,2.5-0.3,3.9-0.5
				c-1.3-2.4-1.6-4.7-1.1-7.4C45.4,228.6,41.3,227.4,40.8,230.1L40.8,230.1z"/>
		</g>
	</g>
	<g>
		<g>
			<path class="st4" d="M73.5,234c0,2.9,0.3,5.9,1,8.7c1.3-0.5,2.5-1.1,3.9-1.6c-1.4-2.8-2.8-5.8-4.3-8.6c-0.6,1.1-1.2,2.1-1.8,3.2
				c1,0.1,2.7,2.4,3.4,3.1c1.3,1.3,2.3,2.7,3.4,4.1c0.9,1.3,2.7,1.4,3.6,0c1.2-1.8,0.5-4,0.3-6c-0.4-2.8-0.8-5.4-1.3-8.2
				c-1.3,0.5-2.5,1.1-3.9,1.6c1.5,3.4,2.5,7,3,10.8c1.3-0.2,2.8-0.3,4.1-0.6c-0.9-3.3-2.1-6.3-3.7-9.3c-1.3-2.4-4.9-0.3-3.6,2.1
				c1.3,2.7,2.4,5.4,3.3,8.3c0.6,2.2,4.4,1.8,4.1-0.6c-0.6-4.5-1.8-8.7-3.6-12.9c-1-2.3-4.2-0.5-3.9,1.6c0.3,1.9,0.6,3.9,0.9,5.8
				c0.2,1.2,1.2,4.3,0.6,5.3c1.2,0,2.4,0,3.6,0c-2.5-3.3-6-8.8-10.4-9.3c-1.7-0.3-2.4,1.9-1.8,3.2c1.4,2.8,2.8,5.8,4.3,8.6
				c1.1,2.3,4.3,0.6,3.9-1.6c-0.5-2.5-0.8-5-0.8-7.6C77.7,231.4,73.5,231.4,73.5,234L73.5,234z"/>
		</g>
	</g>
	<g>
		<g>
			<path class="st4" d="M77,232.1c0,8.7,0,17.5,0,26.2c0,2.7,4.2,2.7,4.2,0c0-6,0.4-12.1,1.3-18c-1.3,0-2.7,0-4,0
				c2.7,6.5,0.2,12.7-2.5,18.7c1.3,0.2,2.5,0.3,3.9,0.5c-1.3-5.9-2.1-11.9-2.2-18c-1.3,0.2-2.8,0.3-4.1,0.6
				c2.6,6.8,3.4,13.7,2.7,20.9c-0.8,6.6-2,13-1.1,19.7c1.3-0.3,2.7-0.8,4-1.1c-1.3-9.1-1.7-18.3-1.3-27.5c0.1-2.7-4.1-2.7-4.2,0
				c-0.3,9.6,0.2,19.1,1.4,28.6c0.3,2.7,4.4,1.5,4-1.1c-1-7.3,1.1-14.4,1.5-21.6c0.3-6.5-0.8-12.8-3.1-18.9
				c-0.8-2.1-4.1-1.9-4.1,0.6c0.1,6.5,0.8,12.8,2.3,19.1c0.4,1.7,3.1,2.2,3.9,0.5c3.1-7,6.1-14.4,2.9-22c-0.7-1.6-3.7-2.3-4,0
				c-0.8,6.4-1.3,12.7-1.3,19.1c1.4,0,2.8,0,4.2,0c0-8.7,0-17.5,0-26.2C81.2,229.4,77,229.4,77,232.1L77,232.1z"/>
		</g>
	</g>
	<g>
		<g>
			<path class="st4" d="M78.1,279.9c0.5,1.3,1.3,2.3,2.8,2.8c0.9,0.3,2.4,0.3,3.1,1c0.3-1.2,0.6-2.3,0.9-3.5c-2,0.3-3.9-0.3-5.3-1.8
				c-1.9-1.9-4.9,1-2.9,2.9c2.5,2.5,5.9,3.5,9.4,2.8c1.6-0.3,1.9-2.4,0.9-3.5c-0.7-0.8-1.6-1.3-2.6-1.5c-0.4-0.1-0.8-0.2-1.2-0.3
				c-0.3-0.1-1-0.3-1-0.3C81.2,276.3,77.1,277.4,78.1,279.9L78.1,279.9z"/>
		</g>
	</g>
	<g>
		<g>
			<path class="st4" d="M28.9,191.3c-0.1-5.9,0.8-12.4,2.8-18c-1.3,0-2.7,0-4,0c2,5.6-3.4,13.6-5.7,18.8c1.3,0.3,2.6,0.7,3.9,1.1
				c1.3-11.3,3.9-22.4,7.5-33.2c-1.3,0-2.7,0-4,0c1.7,5.9-0.5,12.7-1.4,18.6c-0.4,2.6,3.6,3.8,4,1.1c1.1-6.7,3.4-14.2,1.4-20.9
				c-0.6-2-3.4-1.9-4,0c-3.8,11.1-6.2,22.6-7.6,34.3c-0.3,2,3.1,2.9,3.9,1.1c2.8-6.4,8.6-14.8,6.1-22c-0.7-2-3.4-2-4,0
				c-2.1,5.9-3.1,12.9-2.9,19.1C24.8,194,28.9,194,28.9,191.3L28.9,191.3z"/>
		</g>
	</g>
	<g>
		<g>
			<path class="st4" d="M33.9,165.1c-0.1-11.1,1.2-22.9,10.1-30.7c-1-1-2-2-2.9-2.9c-4,4.7-7.7,9.4-9.7,15.3c-0.7,1.9,2.1,3.6,3.5,2
				c3.9-4.4,8.1-8.5,12.7-12.1c2.1-1.7-0.8-4.6-2.9-2.9c-4.6,3.7-8.8,7.6-12.7,12.1c1.2,0.7,2.3,1.3,3.5,2c1.8-5.2,5.2-9.3,8.6-13.5
				c1.8-2.1-0.9-4.8-2.9-2.9c-9.7,8.5-11.5,21.4-11.4,33.6C29.7,167.8,33.9,167.8,33.9,165.1L33.9,165.1z"/>
		</g>
	</g>
	<g>
		<g>
			<path class="st4" d="M48.4,135.3c-0.1-2.3-0.2-4.7-0.3-7c-0.1-1.4-1.8-2.8-3.2-1.8c-7,5.3-11.5,12.3-15.8,19.7
				c-1.4,2.3,2.3,4.4,3.6,2.1c3-5,6.2-9.9,9.6-14.7c3.2-4.5,6.3-10.5,11.2-13.3c2.3-1.3,0.3-4.9-2.1-3.6c-4.8,2.8-7.8,8-11,12.3
				c-3.9,5.6-7.7,11.3-11.3,17.2c1.2,0.7,2.4,1.4,3.6,2.1c4-6.7,8-13.5,14.3-18.2c-1.1-0.6-2.1-1.2-3.2-1.8c0.1,2.3,0.2,4.7,0.3,7
				C44.3,138,48.5,138.1,48.4,135.3L48.4,135.3z"/>
		</g>
	</g>
	<g>
		<g>
			<path class="st4" d="M69.3,130c0.3,1.3,0.3,1.5,1,2.6c1.1,2,4.7,0.7,3.9-1.6c-2.2-5.8-4.5-11.6-6.9-17.3c-1,0.8-2,1.6-3.1,2.3
				c9.6,6.9,13.2,18.3,15.2,29.3c1.2-0.7,2.3-1.3,3.5-2c-3.9-3.2-7.4-6.6-10.6-10.5c-1,1-2,2-2.9,2.9c2.5,2.8,5,5.7,7.5,8.5
				c1.7,1.9,4.3-0.5,3.3-2.5c-2.9-6.2-5.5-12.6-7.8-19c-1.2,0.7-2.3,1.3-3.5,2c4.3,4.9,6.7,10.8,9.1,16.8c1,2.5,5,1.4,4-1.1
				c-2.6-6.7-5.4-13.2-10.1-18.7c-1.3-1.5-4.2,0.1-3.5,2c2.3,6.8,5.1,13.5,8.2,20c1.1-0.8,2.2-1.7,3.3-2.5c-2.5-2.8-5-5.7-7.5-8.5
				c-1.8-2-4.7,0.9-2.9,2.9c3.2,3.9,6.7,7.3,10.6,10.5c1.7,1.3,3.9,0.1,3.5-2c-2.3-12.3-6.6-24.3-17.1-31.8c-1.4-1-3.8,0.7-3.1,2.3
				c2.4,5.7,4.7,11.5,6.9,17.3c1.3-0.5,2.5-1.1,3.9-1.6c-0.2-0.5-0.3-1.1-0.6-1.6C72.9,126.2,68.9,127.4,69.3,130L69.3,130z"/>
		</g>
	</g>
	<g>
		<g>
			<path class="st4" d="M77.7,141c0,2.3-0.1,4.6-0.1,6.9c1.3-0.3,2.6-0.7,3.9-1.1c-3.1-4.3-6-8.5-9-13c-0.9,0.9-1.9,1.9-2.8,2.8
				c6.9,5.3,12.7,11.8,17.1,19.4c1.2,1.9,4.8,0.7,3.9-1.6c-3-7.3-6.5-14.2-10.4-21.1c-1.3-2.3-4.9-0.3-3.6,2.1
				c3.8,6.5,7.1,13.2,10,20.1c1.3-0.5,2.5-1.1,3.9-1.6c-4.9-8.1-11.1-15.1-18.6-20.9c-1.7-1.3-3.9,1.2-2.8,2.8c2.8,4.4,5.9,8.7,9,13
				c1.2,1.6,3.9,1.2,3.9-1.1c0-2.3,0.1-4.6,0.1-6.9C82,138.3,77.8,138.3,77.7,141L77.7,141z"/>
		</g>
	</g>
	<g>
		<g>
			<path class="st4" d="M79.6,150c0.3,6,1.2,11.8,3,17.6c1.3-0.5,2.5-1.1,3.9-1.6c-2.9-5.6-5.3-11.5-7.2-17.5
				c-0.8-2.6-4.9-1.5-4,1.1c2,6.4,4.5,12.6,7.6,18.5c1.1,2.1,4.5,0.7,3.9-1.6c-1.7-5.4-2.7-10.8-2.8-16.4
				C83.8,147.2,79.6,147.2,79.6,150L79.6,150z"/>
		</g>
	</g>
	<g>
		<g>
			<path class="st4" d="M81.2,157c1.5,6,3.2,12.1,4.9,18.1c0.6,1.8,3.6,2.1,4,0c0.7-3.7-0.8-7-1.7-10.6c-1.1-4.4-1.8-8.7-2.5-13.2
				c-1.2,0.7-2.3,1.3-3.5,2c5.4,5,7.5,12,8.5,19.1c1.3-0.3,2.7-0.8,4-1.1c-1-4.4-2.1-8.5-4.7-12.2c-1.3-1.8-4.5-0.8-3.9,1.6
				c1.8,6.3,3.5,12.7,5.3,18.9c0.8,2.6,4.8,1.5,4-1.1c-1.8-6.3-3.5-12.7-5.3-18.9c-1.3,0.5-2.5,1.1-3.9,1.6
				c2.3,3.4,3.4,7.2,4.3,11.2c0.6,2.7,4.4,1.5,4-1.1c-1.1-7.9-3.6-15.5-9.6-21c-1.7-1.5-3.8,0-3.5,2c0.5,3.4,1.1,6.8,1.8,10.1
				c0.7,3.2,3,8.2,2.3,11.5c1.3,0,2.7,0,4,0c-1.8-5.9-3.4-12-4.9-18.1C84.6,153.3,80.6,154.4,81.2,157L81.2,157z"/>
		</g>
	</g>
	<g>
		<g>
			<path class="st4" d="M89.2,176.5c0.4,3.7,0.8,7.3,0.9,11c1.3-0.3,2.6-0.7,3.9-1.1c-2.3-3.8-3.9-7.7-4.7-12.1
				c-0.5-2.7-4.5-1.5-4,1.1c0.8,4.7,2.6,9.1,5.1,13.1c1.1,1.7,4,1.1,3.9-1.1c-0.2-3.7-0.5-7.3-0.9-11
				C93.1,173.8,88.9,173.8,89.2,176.5L89.2,176.5z"/>
		</g>
	</g>
	<g>
		<g>
			<path class="st5" d="M50.9,72.9c-7.6,0.6-12.4,7.5-12.2,14.9c0.3,9.8,7.6,17.3,10.5,26.4c0.8,2.6,4.9,1.5,4-1.1
				c-1.8-6-5.5-11.1-8-16.9c-2.8-6.3-4.1-18.4,5.7-19.1C53.6,76.8,53.6,72.6,50.9,72.9L50.9,72.9z"/>
		</g>
	</g>
	<g>
		<g>
			<path class="st5" d="M51,115.3c-9.5,8.2-16.3,18.9-19.8,31c-4.2,14.4-6.7,29.4-9.8,44.2c-0.6,2.6,3.5,3.8,4,1.1
				c2.8-13.7,5.5-27.5,9-41.1c3.3-12.7,9.6-23.6,19.5-32.2C56,116.5,53.1,113.5,51,115.3L51,115.3z"/>
		</g>
	</g>
	<g>
		<g>
			<path class="st5" d="M45.4,245.2c-0.8-8.5-1.5-17-1.4-25.6c0.2-9.2,2.1-17.9,3.5-26.9c1.3-8,1.8-16.1,1.3-24.1
				c-0.5-8.8-2.8-17.6-2.3-26.4c0.2-2.7-4-2.7-4.2,0c-0.5,8.6,1.8,17.1,2.3,25.6c0.6,9.1,0,18.1-1.7,27c-1.4,8-2.9,15.9-3.1,24.1
				c-0.2,8.8,0.6,17.6,1.3,26.3C41.4,247.8,45.6,247.9,45.4,245.2L45.4,245.2z"/>
		</g>
	</g>
	<g>
		<g>
			<path class="st5" d="M43,145c-1.1,7.7,0.7,14.9,2.7,22.4c2.5,9.4,3.6,18.2,1.9,27.8c-1.5,8.4-5.2,16.3-6.5,24.6
				c-1.3,8.5,0.9,16.8,3.2,24.8c0.8,2.6,4.8,1.5,4-1.1c-2.5-9-4.6-17.8-2.3-27.1c1.9-7.8,4.9-15.3,6-23.3c1-7.4,0.7-14.6-1.1-21.8
				c-2-8.3-5.2-16.6-4-25.3C47.5,143.5,43.4,142.3,43,145L43,145z"/>
		</g>
	</g>
	<g>
		<g>
			<path class="st5" d="M41.9,243.4c2,6,3.2,12.2,3.4,18.6c0.3,5.6,0.4,12.6-3.4,17.1c-1.7,2.1,1.3,5,2.9,2.9
				c3.9-4.9,4.5-10.9,4.6-16.9c0.1-7.8-1.3-15.5-3.7-22.9C45.1,239.7,41,240.8,41.9,243.4L41.9,243.4z"/>
		</g>
	</g>
	<g>
		<g>
			<path class="st5" d="M43.4,241.3c3,11.6,4,23.5-0.3,34.9c-0.9,2.5,3.1,3.6,4,1.1c4.5-12.1,3.4-25,0.3-37.2
				C46.7,237.7,42.6,238.7,43.4,241.3L43.4,241.3z"/>
		</g>
	</g>
	<g>
		<g>
			<path class="st5" d="M70.3,139.2c11.7,11.2,12.4,28.2,15.1,43.2c0.5,2.7,4.5,1.5,4-1.1c-2.8-16-3.8-33.2-16.1-45.1
				C71.4,134.4,68.3,137.3,70.3,139.2L70.3,139.2z"/>
		</g>
	</g>
	<g>
		<g>
			<path class="st5" d="M67.7,234.6c13.9,9.6,3.5,30.3,3.2,43.6c-0.1,2.7,4.1,2.7,4.2,0c0.4-15.4,10.9-36-5.3-47.3
				C67.6,229.4,65.5,233,67.7,234.6L67.7,234.6z"/>
		</g>
	</g>
	<g>
		<g>
			<path class="st6" d="M64.1,89c2.1,5.8-1.2,8.3-3.4,13.1c-1.8,3.9-0.5,8.2,0,12.2c0.3,2.7,4.5,2.7,4.2,0c-0.3-2.5-0.9-5.1-0.9-7.6
				c0-3.1,2.1-5,3.4-7.5c1.9-3.6,2.1-7.5,0.7-11.3C67.2,85.3,63.2,86.4,64.1,89L64.1,89z"/>
		</g>
	</g>
	<g>
		<g>
			<path class="st6" d="M62.2,116.5c10.4,8,17.3,19.4,21.5,31.7c2.3,6.7,3.9,13.6,5,20.5c0.8,4.9,0.4,11.4,4.9,14.6
				c2.2,1.6,4.3-2.1,2.1-3.6c-2.4-1.8-2.3-8-2.8-10.6c-0.5-3.1-1.1-6.2-1.8-9.2c-1.4-6.6-3.4-13.2-6-19.4
				c-4.4-10.5-11-19.9-19.9-26.9C63.1,111.9,60,114.8,62.2,116.5L62.2,116.5z"/>
		</g>
	</g>
	<g>
		<g>
			<path class="st6" d="M49.1,140.7c-4.7,0.3-5.9,5.5-5.5,9.6c0.5,4.1,3.5,7.4,7.7,7.5c2.7,0.1,2.7-4.1,0-4.2
				c-1.9-0.1-3.2-1.6-3.5-3.4c-0.2-1-0.3-5.2,1.3-5.3C51.8,144.7,51.8,140.5,49.1,140.7L49.1,140.7z"/>
		</g>
	</g>
	<g>
		<g>
			<path class="st6" d="M64.4,139.1c-9.4,2-11,14.8-2.3,18.9c2.4,1.2,4.5-2.4,2.1-3.6c-5.5-2.6-4.9-10,1.3-11.3
				C68.2,142.5,67,138.5,64.4,139.1L64.4,139.1z"/>
		</g>
	</g>
	<g>
		<g>
			<path class="st6" d="M69.3,149.5c1.2,11.1-3.8,21.6-2.7,32.8c0.9,10.2,4.8,19.9,8.3,29.4c3.9,10.8,6.5,21.4,6.5,32.9
				c0,12.3-1.5,24.7-2.5,37c-0.1,1.1,1,2.1,2.1,2.1c1.1-0.2,2.1,0.1,3,0.8c2.3,1.3,4.4-2.3,2.1-3.6c-1.7-0.9-3.3-1.3-5.2-1.3
				c0.7,0.7,1.4,1.4,2.1,2.1c1-12,2.4-24.1,2.5-36.2c0.1-11.1-2-21.6-5.7-32.1c-3.4-9.9-7.9-19.8-9.1-30.3
				c-1.3-11.4,3.9-22.1,2.6-33.4C73.2,146.8,69,146.8,69.3,149.5L69.3,149.5z"/>
		</g>
	</g>
	<g>
		<g>
			<path class="st6" d="M52.2,229.9c-5.9,6.6-4,15-1.8,22.7c1.5,5.3,2.9,10.7,2.7,16.3c-0.2,5-1.8,11.6-6.9,13.8
				c-2.4,1.1-0.3,4.7,2.1,3.6C56,283,57.7,272,57,264.6c-0.5-5.2-1.9-10.1-3.4-15.1c-1.5-5.5-2.8-11.9,1.3-16.6
				C56.9,230.9,53.9,227.9,52.2,229.9L52.2,229.9z"/>
		</g>
	</g>
	<g>
		<g>
			<path class="st6" d="M55.3,88.7c1.2-1.8,3.4-0.2,4.7,0.8c1.1,0.8,2.1-1,1.1-1.8c-2.3-1.8-5.6-2.9-7.5,0
				C52.7,88.7,54.5,89.8,55.3,88.7L55.3,88.7z"/>
		</g>
	</g>
	<g>
		<g>
			<path class="st6" d="M61.3,87.8c0.2-0.3,0.3-0.7,0.6-0.9c0.4-0.4,0.4-1.1,0-1.5c-0.4-0.4-1.1-0.4-1.5,0c-0.3,0.4-0.7,0.8-0.9,1.3
				c-0.3,0.5-0.2,1.1,0.3,1.4C60.3,88.5,61,88.4,61.3,87.8L61.3,87.8z"/>
		</g>
	</g>
	<g>
		<g>
			<path class="st6" d="M58.4,86.6c0-0.3,0-0.3,0.1-0.4c0.7-1.2-1.2-2.3-1.8-1.1c-0.3,0.5-0.4,1-0.3,1.5c0,0.6,0.4,1,1,1
				C57.9,87.7,58.4,87.2,58.4,86.6L58.4,86.6z"/>
		</g>
	</g>
	<g>
		<g>
			<path class="st6" d="M48,87.4c-1.3-0.1-2.7-0.3-3.9,0.3c-1,0.4-1.6,1.3-2.1,2.3c-0.7,1.2,1.1,2.2,1.8,1.1
				c0.3-0.5,0.8-1.3,1.4-1.5c0.8-0.3,1.9,0,2.8,0.1C49.3,89.5,49.3,87.4,48,87.4L48,87.4z"/>
		</g>
	</g>
	<g>
		<g>
			<path class="st6" d="M43.4,89.6c-0.5-0.3-0.9-0.7-1.3-1.2c-0.3-0.5-0.9-0.7-1.4-0.3c-0.5,0.3-0.7,0.9-0.3,1.4
				c0.5,0.8,1.2,1.4,2,1.9C43.5,92.1,44.5,90.2,43.4,89.6L43.4,89.6z"/>
		</g>
	</g>
	<g>
		<g>
			<path class="st6" d="M46,88.5c0.1-0.8,0-1.5-0.6-2.1c-0.9-1-2.4,0.5-1.5,1.5c-0.1-0.1,0.1,0.2,0,0c0.1,0.1,0,0.2,0,0
				c-0.1,0.6,0.2,1.1,0.8,1.3S46,89.1,46,88.5L46,88.5z"/>
		</g>
	</g>
	<g>
		<g>
			<path class="st4" d="M79.2,102.3c-2.3-0.9-4.4-2.1-6.4-3.5c-0.3,1.3-0.7,2.6-1.1,3.9c1.3,0.2,2.3,0.4,3.6,1
				c2.2,0.9,3.2-2.1,2-3.5c-0.9-1.2-1.8-2.4-2.8-3.7c-0.6,1.1-1.2,2.1-1.8,3.2c1-0.1,1.9,0,2.8,0.3c1.8,0.5,3.8-2.1,2-3.5
				c-1-0.8-1.9-1.6-2.8-2.6c-0.3,1.2-0.6,2.3-0.9,3.5c1.3-0.4,2.7-0.8,4.1-1.3c1.8-0.6,2-2.8,0.5-3.9c-1.1-0.8-2.3-1.4-3.4-2
				c0,1.2,0,2.4,0,3.6c1.6-0.8,3.2-1.6,4.9-2.2c1.8-0.7,2.1-3.4,0-4c-2.1-0.6-4.2-1.1-6.3-1.7c0.2,1.3,0.3,2.5,0.5,3.9
				c0.9-0.7,1.8-1.2,2.9-1.6c2.4-1.1,0.3-4.7-2.1-3.6c-1.1,0.5-1.9,0.9-2.9,1.6c-1.4,1-1.3,3.4,0.5,3.9c2.1,0.6,4.2,1.1,6.3,1.7
				c0-1.3,0-2.7,0-4c-2.1,0.8-4,1.6-5.9,2.6c-1.3,0.8-1.3,2.8,0,3.6c1.2,0.7,2.3,1.3,3.4,2c0.2-1.3,0.3-2.5,0.5-3.9
				c-1.3,0.4-2.7,0.9-4.1,1.3c-1.5,0.5-2,2.3-0.9,3.5c0.9,0.9,1.8,1.8,2.8,2.6c0.7-1.2,1.3-2.3,2-3.5c-1.3-0.3-2.6-0.5-3.9-0.4
				c-1.4,0-2.8,1.8-1.8,3.2c1.1,1.5,2.3,3,3.4,4.5c0.7-1.2,1.3-2.3,2-3.5c-1.6-0.7-3-0.9-4.7-1.1c-2.3-0.3-2.6,2.8-1.1,3.9
				c2.3,1.6,4.8,2.8,7.4,3.9C80.6,107.3,81.7,103.3,79.2,102.3L79.2,102.3z"/>
		</g>
	</g>
	<g>
		<g>
			<path class="st4" d="M62.5,74.2c4.4-0.8,8.7-1.2,11.2,3.2c2,3.5,2.9,7.9,1.9,11.7c1.2-0.3,2.3-0.6,3.5-0.9
				c-2.2-2.8-3.5-6.1-5.5-9.1c-1.8-2.6-4-4.7-6.4-6.8c-0.5,1.2-1,2.3-1.5,3.6c4.5-0.4,6.7,1.3,7.9,5.8c0.9,3.4,1.8,6.7,2.7,10.1
				c0.3,1.4,2.5,2.2,3.5,0.9c3.5-4.4,2.2-11.6-0.9-15.9c-1.6-2.3-3.7-4.1-6.2-5.4c-2.8-1.4-5.9-1.2-8.9-2.3c0,1.3,0,2.7,0,4
				c9.3-2.3,17.8,7.5,17,16.2c-0.3,2.7,3.9,2.7,4.2,0c1.1-11.6-10.6-23.1-22.3-20.3c-2.2,0.5-1.8,3.4,0,4c3.9,1.5,7.5,0.8,10.9,3.9
				c2.8,2.5,6,9.1,3.2,12.7c1.2,0.3,2.3,0.6,3.5,0.9c-1.3-4.8-1.8-11.2-4.8-15.4c-2.3-3.3-6.1-3.9-9.9-3.6c-1.7,0.2-2.9,2.3-1.5,3.6
				c2.8,2.5,5.3,4.9,7.2,8.3c1.5,2.6,2.8,5.2,4.8,7.5c1,1.3,3.1,0.5,3.5-0.9c1.4-5.4,0.1-12-3.3-16.5c-3.8-4.9-9.4-4.6-15-3.6
				C58.7,70.7,59.8,74.7,62.5,74.2L62.5,74.2z"/>
		</g>
	</g>
	<g>
		<g>
			<path class="st6" d="M56.7,87.7c0,1.1,0.1,2.1,0.3,3.2c0.1,0.6,0.8,0.8,1.3,0.8c0.6-0.2,0.8-0.8,0.8-1.3
				c-0.2-0.8-0.2-1.8-0.3-2.6C58.7,86.4,56.6,86.3,56.7,87.7L56.7,87.7z"/>
		</g>
	</g>
	<g>
		<g>
			<path class="st6" d="M45.7,88.7c0,1.1,0,2.2,0.1,3.3c0,1.3,2.1,1.3,2.1,0c0-1.1,0-2.2-0.1-3.3C47.8,87.4,45.7,87.4,45.7,88.7
				L45.7,88.7z"/>
		</g>
	</g>
	<g>
		<g>
			<path class="st7" d="M41.3,95.1c-3.6-4.6-3.1-11.6,0.8-15.9c3.8-4.1,10.1-5.4,15.3-3.9c11.5,3.2,16,17.8,6.7,25.9
				c-2,1.8,0.9,4.7,2.9,2.9C79.6,93.3,72,73.2,56.5,70.7c-7.1-1.2-15.1,1.5-19.1,7.7c-3.9,6.1-3.5,14,0.9,19.6
				C40,100.2,42.9,97.3,41.3,95.1L41.3,95.1z"/>
		</g>
	</g>
	<g>
		<g>
			<path class="st7" d="M38.4,98c1.3,6.2,6.5,10.6,8.1,16.7c0.7,2.6,4.7,1.5,4-1.1c-1.6-6.1-6.8-10.6-8.1-16.7
				C41.9,94.3,37.9,95.4,38.4,98L38.4,98z"/>
		</g>
	</g>
	<g>
		<g>
			<path class="st7" d="M63.5,102.6c-0.1,3.4,0.3,6.7,0.2,10.1c-0.1,2.7,4.1,2.7,4.2,0c0.1-3.4-0.3-6.7-0.2-10.1
				C67.7,100,63.6,100,63.5,102.6L63.5,102.6z"/>
		</g>
	</g>
	<g>
		<g>
			<path class="st7" d="M45.9,114.1c-4.5,5.1-9.2,10.3-12.2,16.5c-3.1,6.3-4.7,13.3-6.4,20.1c-2,7.9-3.7,15.8-5,23.7
				c-0.6,3.4-1,6.8-1.4,10.1c-0.3,3-1.3,6.7-0.5,9.7c1.3,4.7,6.1,4.4,8.9,1.2c3.7-4.4,4.9-11.1,5.6-16.7
				c1.7-12.8,0.1-28.6,11.4-37.5c2.1-1.7-0.8-4.6-2.9-2.9c-7.5,5.9-10.1,15.3-11.1,24.4c-0.7,5.4-0.7,11.1-1.5,16.5
				c-0.4,2.9-1,5.9-2.1,8.6c-0.6,1.7-1,4.1-3,4.1s-1.1-1.6-0.9-3.4c1.3-13,3.9-25.8,7.2-38.4c1.7-6.3,3.1-13,6.2-18.8
				c2.8-5.4,7-9.9,11-14.4C50.7,115,47.7,112.1,45.9,114.1L45.9,114.1z"/>
		</g>
	</g>
	<g>
		<g>
			<path class="st7" d="M65.2,114.1c8.1,6.9,13.8,15.8,18.1,25.4c4.8,10.9,8.5,23,9.7,34.9c0.3,2.8,0.4,5.6,0.3,8.5
				c0,0.5,0,4.8-0.4,5c-1.7,0.9-2.8-3.1-3-3.9c-1.7-5-2.1-10.5-3.5-15.7c-3-10.7-7.7-21-13.9-30.2c-1.5-2.3-5.1-0.2-3.6,2.1
				c8.1,12.2,13.1,25.3,15.8,39.6c0.8,3.9,2.3,12.8,7.5,13.2c5,0.4,5.2-6.1,5.3-9.6c0.6-14.1-3.4-28.3-8.5-41.3
				c-4.6-11.7-11-22.9-20.7-31.1C66.2,109.4,63.2,112.5,65.2,114.1L65.2,114.1z"/>
		</g>
	</g>
	<g>
		<g>
			<path class="st7" d="M39.4,146.7c0.7,7.9,3.6,15.3,4.4,23.2c0.8,8,0.3,15.9-1,23.8c-2.4,14.4-6.7,28.5-4.7,43.2
				c0.3,2.7,4.4,1.5,4-1.1c-2.1-15.3,3.3-30.2,5.4-45.2c1-7.2,1.2-14.4,0.4-21.6c-0.8-7.6-3.6-14.8-4.3-22.4
				C43.4,144,39.2,144,39.4,146.7L39.4,146.7z"/>
		</g>
	</g>
	<g>
		<g>
			<path class="st7" d="M40,238.9c2.7,0,2.7-4.2,0-4.2C37.2,234.7,37.2,238.9,40,238.9L40,238.9z"/>
		</g>
	</g>
	<g>
		<g>
			<path class="st7" d="M72.7,145.3c0.5,5.6,0.6,11.2-0.1,16.8c-0.7,5.7-2.3,11.1-3,16.8c-1.3,11.3,3.8,21.9,7,32.4
				c3.4,11.1,5.9,22.7,5.6,34.4c-0.2,5.7-1.3,11.2-2.2,16.8c-0.8,5.4-1.1,10.7-1.1,16.1c0,1.1,0.9,2.2,2.1,2.1
				c1.9-0.2,3.9-0.8,4.4,1.4c0.5,2.3,0.3,1-1.1,1.5c-0.6,0.3-3-0.2-3.1-0.2c-3.8-0.8-5.9-3.2-6.6-7c-1.2-6.5,0.5-13.7,0.8-20.2
				c0.5-10.1,1.8-23.9-11.8-24.5c-3.6-0.2-11.6-1.7-13.4,2.6c-2.3,5.4,0.2,13,1.4,18.4c1.6,7.2,2.8,15.1,1.8,22.5
				c-0.4,3.5-4.1,10-8.6,6.8c-2.3-1.6-1.8-2.7-0.1-3.5c1-0.5,1.7-0.6,2.4-1.5c3.4-4.2,1.5-13,0.5-17.8c-1.7-7.9-4.6-15.4-5.2-23.5
				c-0.2-2.7-4.4-2.7-4.2,0c0.6,8.5,3.6,16.3,5.3,24.6c0.8,3.4,2.2,9.6,0.6,13c-1,2.3-4.2,1.6-5.1,4.6c-1.6,5.4,4.8,9.7,9.6,8.9
				c6.3-1.1,8.8-7.2,9.1-12.9c0.5-9.1-1.3-17.8-3.1-26.7c-0.5-2.3-0.9-4.6-0.9-7c0-2.7-0.3-4,2.3-4.3c4.3-0.3,11.5-1,14.1,3.1
				c2.1,3.4,1.5,8.5,1.3,12.2c-0.2,4.9-0.5,9.9-0.9,14.7c-0.5,5.7-1.3,12.6,2.6,17.3c3.3,4,13.2,6.9,17,2c1.5-2,1.2-4.7-0.3-6.5
				c-2.1-2.6-5.6-2.7-8.7-2.5c0.7,0.7,1.4,1.4,2.1,2.1c0-5.9,0.3-11.5,1.3-17.3c0.9-5.2,1.8-10.4,1.9-15.7c0.3-11.1-1.8-22-4.9-32.6
				c-3.3-11.5-9.5-23-7.6-35.3c0.8-5,2.2-10,2.8-15.1c0.7-5.9,0.7-11.7,0.2-17.6C76.6,142.6,72.4,142.6,72.7,145.3L72.7,145.3z"/>
		</g>
	</g>
	<g>
		<g>
			<path class="st7" d="M59.8,72.2c3.4-3.7,11.7-4.9,16.2-2.4c6.2,3.5,6.6,11.5,4.9,17.6c-1.1,4-4.1,9.1-3.1,13.3
				c0.9,3.8,4.8,4.4,8.1,4c-0.7-0.9-1.3-1.8-2-2.7c-1.6,4.1-11.8,1.4-13.7-1.3c-1.5-2.2-5.2-0.1-3.6,2.1c4.1,5.9,18.2,8.4,21.4,0.3
				c0.4-1.2-0.8-2.8-2-2.7c-5.7,0.7-3.1-5.5-2.1-8.5c0.8-2.5,1.7-5,2-7.7c0.7-5.1-0.3-10.6-3.7-14.7c-5.9-7-19-7.1-25.3-0.3
				C55,71.2,58,74.2,59.8,72.2L59.8,72.2z"/>
		</g>
	</g>
</g>
</svg>
