<?xml version="1.0" encoding="utf-8"?>
<!-- Generator: Adobe Illustrator 23.0.3, SVG Export Plug-In . SVG Version: 6.00 Build 0)  -->
<svg version="1.1" id="Calque_1" xmlns="http://www.w3.org/2000/svg" xmlns:xlink="http://www.w3.org/1999/xlink" x="0px" y="0px"
	 viewBox="0 0 117.1 298.5" style="enable-background:new 0 0 117.1 298.5;" xml:space="preserve">
<style type="text/css">
	.st0{fill:#EC82AD;}
	.st1{fill:#F2C8DA;}
	.st2{fill:#D3538D;}
	.st3{fill:#B83364;}
</style>
<g>
	<g>
		<g>
			<path class="st0" d="M51.9,38.2c2.5-0.4,0.1-0.4,1.5-2.1c0,0,0.9-0.1,1.1-0.2c2-0.9,6.7-0.2,8.1,1.7c0.6,0.9,0.8,1.9,0.9,3
				c0.1,0.9,0,1.8-0.3,2.6c-1,1.8-0.4,2.3,2,1.3c-0.2,0.5-5.7-6.2-6.1-7.1c0.3,1.3,0.7,2.5,1,3.8c0-0.4,0-0.7-0.1-1.1
				c-0.7,1.8-1.5,3.5-2.2,5.3c0.2-0.3,0.5-0.5,0.7-0.8c-2.4,0.6-4.8,1.3-7.3,1.9c0.3,0,0.6,0.1,0.9,0.1c4,0.6,8-1,9.2-5.2
				c1-3.5-1.2-8.6-5.2-9.2c-7.9-1.1-13.7,5.5-9.8,13.2c2.7,5.3,7.8,10.5,13.2,13c15.7,6.9,22-16.6,16.5-27.2
				c-5.5-10.7-23.9-14.7-33-6.1C38.3,29.5,36.9,37,38.8,43c2.4,7.5,9.5,10.7,16.8,9.6c4-0.6,6.2-5.6,5.2-9.2
				C59.9,39.1,55.9,37.6,51.9,38.2L51.9,38.2z"/>
		</g>
	</g>
	<g>
		<g>
			<path class="st0" d="M51.8,44.4c0.8,1.1,2.6,3.1,2.6,4.6c0.3-1.3,0.7-2.5,1-3.8c0.9-1.3,0.2-0.3-0.7,0.3c-1,0.6-1.9,1.2-2.9,1.7
				c-2.2,1.2-4.4,2.4-6.7,3.4c-4,1.9-6.4,4.3-8.3,8.2c-4.2,8.8-9,17.8-11.1,27.3c-2.3,10.2-3,20.9-4.3,31.2
				c-1.4,10.8-3.1,21.6-2.8,32.5c0.3,9.6,15.3,9.6,14.9,0c-0.4-11.8,1.7-23.7,3.1-35.4c1.4-11.2,2-22.8,6.2-33.3
				c1.9-4.7,4.2-9.3,6.4-13.9c1-2.2,1.1-2.6,3.3-3.7c2.3-1.1,4.5-2.2,6.7-3.4c4.8-2.7,9.9-5.8,10-12c0-5.4-3.8-10.2-7-14.3
				c-2.5-3.2-7.9-2.6-10.6,0C48.6,36.9,49.3,41.2,51.8,44.4L51.8,44.4z"/>
		</g>
	</g>
	<g>
		<g>
			<path class="st0" d="M33.4,144.7c1.2-10.8,2.7-22.1,7-32.2c1.9-4.6,4.6-9.9,8.5-13.1c4-3.2,10.2-3.2,15-2.2
				c10.4,2.1,15.1,10.2,18.7,19.5c4.5,11.7,3.4,24.5,2.5,36.7c5,0,10,0,14.9,0c0.9-14.6,0.5-29.3-1.2-43.9
				c-1.7-13.7-3.6-28.3-11.2-40.1C81,59,68,48.2,55.2,54.7c-5.8,3-11.5,8-16,12.7c-4.7,4.9-7.9,10.6-8.1,17.5
				c-0.2,5.8,6.5,9.2,11.2,6.5c6.5-3.7,14.2-4.7,21.5-4.9c7-0.2,14.1,0.5,19.2,5.7c3.5-3.5,7-7,10.6-10.6
				c-8.4-6.8-17.2-13.1-26.5-18.7c-6.6-4-13.6,3.8-10.2,10.2c2.6,5,7.8,8.7,11.5,13c4,4.7,7.5,9.7,10.7,14.9
				c5,8.2,17.9,0.7,12.9-7.5c-3.3-5.3-6.9-10.4-10.8-15.2c-1.9-2.3-3.8-4.5-5.8-6.6c-1.7-1.8-4.4-3.8-5.6-6
				c-3.4,3.4-6.8,6.8-10.2,10.2c8.2,5,16,10.4,23.5,16.4c7.3,5.9,17.6-3.6,10.6-10.6c-7.5-7.4-17.7-10.2-28-10.1
				c-10.5,0.1-21.6,1.7-30.9,7c3.7,2.2,7.5,4.3,11.2,6.5c0.1-4.1,3.9-7.2,6.7-9.7c2.7-2.4,7.6-8,11.6-7.3c3.7,0.6,7.4,5.1,9.4,7.9
				c2.9,4,4.7,8.5,6.1,13.2c6,20.5,6.4,43.3,5.1,64.5c-0.6,9.6,14.2,9.5,14.9,0c1.3-16,1.4-31.7-5.5-46.6
				c-2.7-5.8-5.3-11.4-10.2-15.5c-5.7-4.8-12.4-8-19.8-9c-7.1-0.9-14.9-0.4-21.3,3.2c-6.3,3.5-10.7,9.9-13.9,16.1
				c-6.9,13.4-9,28.4-10.7,43.2c-0.5,4,3.8,7.5,7.5,7.5C30.4,152.2,33,148.8,33.4,144.7L33.4,144.7z"/>
		</g>
	</g>
	<g>
		<g>
			<path class="st0" d="M31.9,152.3c9.5,4.8,21,5.2,31.5,5c9.8-0.2,21.6-2,26.6-11.8c6.6-12.9-10.8-14.8-19.2-15.2
				c-9.9-0.5-22.5,2.6-31-3.8c-1.3,4.6-2.5,9.3-3.8,13.9c11-1.1,21.9-0.9,32.8,0.9c4.3,0.7,9.5,2.2,13.8,0.9c4.9-1.4,6.6-6,7.1-10.7
				c0.5-4.2,0.8-9.6-2.4-13c-3.4-3.6-9.1-2.9-13.5-2.6c-5.2,0.4-10.5,1.3-15.6,2.2c-3.5,0.6-9.6,2.8-11.3-1.2c0.3,1.3,0.7,2.5,1,3.8
				c0-0.2,0-0.5,0-0.7c-0.7,1.8-1.5,3.5-2.2,5.3c-3,1.4-3.2,1.9-0.5,1.4c1.3-0.1,2.5-0.1,3.8-0.2c2.5-0.1,5,0,7.5,0.1
				c4,0.2,7.8,0.6,11.8,0.1c7.4-0.9,16.2-5.7,19.8-12.6c5.2-9.8-5.4-15.2-13.6-15.7c-9.1-0.6-17.6,3.2-26,5.9
				c-9.1,3-5.2,17.4,4,14.4c4.4-1.4,8.8-3.2,13.3-4.4c1.8-0.5,3.6-0.9,5.5-1c1.3-0.1,4.8,0.8,4.3-0.4c-0.3-1.9-0.5-3.8-0.8-5.8
				c-0.6,2.4-5.9,4.5-8,4.8c-4.5,0.7-9.4-0.3-13.9-0.4c-7-0.1-21.5-0.9-19.6,10.2c1.5,9.2,11.6,12.8,19.8,12.2
				c9.4-0.7,18.8-4.2,28.4-3.1c-1.3-0.3-2.5-0.7-3.8-1c0.3,0.2,0.5,0.3,0.8,0.5c-1.1-1.5-2.3-3-3.4-4.5c0.5,1.4-0.6,4.3-0.1,5.3
				c5.2-2.4,6.4-3.5,3.7-3.5c-0.8,0-1.5-0.1-2.3-0.2c-4.3-0.5-8.6-1.4-12.9-1.9c-9.1-1-18.2-1-27.3-0.1c-7.6,0.8-9.8,9.4-3.8,13.9
				c6.6,5,14.9,5.9,22.9,5.8c4.3,0,8.5-0.2,12.8-0.1c1.8,0.1,3.7,0.2,5.5,0.3c1.2,0.1,2.4,0.2,3.6,0.3c1.9,0.7,2,0.2,0.2-1.5
				c-0.3-1.9-0.5-3.8-0.8-5.8c-1.1,5-13.6,3.9-17.1,3.9c-6.5-0.1-14.1,0-20-3C30.8,135,23.3,147.9,31.9,152.3L31.9,152.3z"/>
		</g>
	</g>
	<g>
		<g>
			<path class="st0" d="M55.2,106.2c-0.5,2.5-0.1,3.2,1.1,2.1c0.9-0.6,1.8-1,2.8-1.3s2-0.6,3-0.7c1.9,0.2,2.2,0,1-0.4
				c1.1-4.2,2.2-8.3,3.3-12.5c-12.9,1.9-29.2,8.4-34.5,21.3c-1.5,3.8,1.7,8.2,5.2,9.2c4.3,1.2,7.7-1.5,9.2-5.2
				c1.3-3.1,7.5-5.7,10.2-7c4.4-2.1,9.1-3.2,13.9-3.9c6.1-0.9,6.5-8.7,3.3-12.5c-6-6.9-18.1-4-24.9,0.1c-8.2,4.9-10.1,13.9-4.1,21.4
				c2.5,3.2,7.9,2.6,10.6,0C58.3,113.7,57.7,109.3,55.2,106.2L55.2,106.2z"/>
		</g>
	</g>
	<g>
		<g>
			<path class="st0" d="M28.6,158.3c1.5,5.9,3.8,13.6,8.1,18c2,2.1,5.3,3.3,8.2,2.5s4.5-3.3,6.8-5c3.8-2.8,8.9-4.1,13.6-3.5
				c5.6,0.7,9.9,5.2,15.8,4.1c11.8-2.3,18.2-25.1,3-26.6c-3.2-0.3-6.3,0-9.4,0.9c-3.4,0.9-5.7,0.9-9.2,0.4c-7.3-1-14.6-1-22-0.1
				c-4,0.5-7.5,3.1-7.5,7.5c0,3.7,3.4,8,7.5,7.5c7-0.8,14-0.9,21,0c3.4,0.4,6.7,0.9,10.1,0.3c2.8-0.5,5.8-2.4,8.6-1.3
				c-1.5-1.1-3-2.3-4.5-3.4c0.1,0.2,0.2,0.5,0.3,0.7c-0.3-1.3-0.7-2.5-1-3.8c0,0.7-0.2,1.5-0.2,2.2c-0.1,0.5-0.3,1.1-0.4,1.6
				c0.8-0.1,1.5-0.2,2.3-0.4c0.1-0.3-5.6-2.6-6.3-2.9c-3.9-1.4-8.3-1.9-12.4-1.6c-4.2,0.3-8.1,1.2-12,2.9c-4,1.7-6.5,4.5-9.9,6.8
				c1.9-0.3,3.8-0.5,5.8-0.8c2.6,1.7,3.1,1.6,1.6-0.5c-0.5-1-1-2-1.4-3c-0.9-2.1-1.5-4.4-2.1-6.6C40.6,145.1,26.2,149,28.6,158.3
				L28.6,158.3z"/>
		</g>
	</g>
	<g>
		<g>
			<path class="st0" d="M34.6,173.6c1.3,14.8,6.2,28.9,7.3,43.7c0.6,7.6,0.4,15.2,0,22.8c-0.2,3.8-0.5,7.6-0.8,11.4
				c-0.1,1.3-0.2,2.5-0.4,3.8c0.9-1.2,1.8-2.4,2.6-3.7c-0.2-0.3-3.6,1.2-4,1.4c-6.4,2.9-8.5,10.7-4.1,16.4
				c4.5,5.8,12.3,5.3,18.7,3.8c7.5-1.7,11.7-6.4,12.2-14.2c0.5-7.3-3.2-13.5-4.1-20.5c-0.5-4-3.1-7.5-7.5-7.5c-3.6,0-8,3.4-7.5,7.5
				c0.7,5.5,2.6,10.5,3.8,16c0.2,1,0.4,1.9,0.4,2.9c0.1,0.7,0,1.4-0.2,2.1c0.5-0.5,1.1-0.9,1.6-1.4c0,0.1-3.3,0.9-3.6,0.9
				c-0.8,0.2-1.6,0.2-2.4,0.2c-1.3-0.1-1,0.3,0.8,1.1c0,1.3,0,2.6,0,4c-2.8,2.1-3.2,2.8-1.2,2c0.7-0.2,1.4-0.4,2-0.7
				c1.5-0.6,3-1.3,4.1-2.5c2.8-2.7,3-6.2,3.4-9.8c0.9-9.1,1.5-18.3,1.4-27.5c-0.2-17.9-6.1-34.6-7.6-52.2
				C48.7,164.1,33.7,164,34.6,173.6L34.6,173.6z"/>
		</g>
	</g>
	<g>
		<g>
			<path class="st0" d="M74.9,168.6c0,5.1,0,10.3,0,15.4c0,8.2,12.9,10.4,14.7,2c0.9-4.4,1.8-8.7,2.5-13.1c0.3-2.2,0.7-4.4,0.6-6.6
				c-0.1-1.5-0.9-3.5-0.7-4.9c0.5-4-3.8-7.5-7.5-7.5c-4.5,0-6.9,3.5-7.5,7.5c-0.4,3.1,0.9,5.9,0.4,9.1c-0.6,3.8-1.4,7.7-2.2,11.5
				c4.9,0.7,9.8,1.3,14.7,2c0-5.1,0-10.3,0-15.4C89.8,159,74.9,159,74.9,168.6L74.9,168.6z"/>
		</g>
	</g>
	<g>
		<g>
			<path class="st0" d="M70.3,163.1c0.3,12.3,0.7,24.6,1,36.9c0.2,6.4,0.5,12.7-0.1,19.1c-0.6,6-1.7,12-2.4,18
				c-0.7,5.8,0.5,11.6,0.2,17.5c-0.3,5.3-0.6,10.4,4.3,13.8c6.8,4.6,28.9,5.1,24.3-8.2c-3.1-9.1-17.5-5.2-14.4,4
				c0.1,0.2,0.1,0.4,0.2,0.7c0.3-1.9,0.5-3.8,0.8-5.8c-0.1,0.2-0.2,0.4-0.4,0.7c1.5-1.1,3-2.3,4.5-3.4c-0.8,0.2-6-0.4-6.2-0.1
				c1.2,2.8,1.7,3.2,1.6,1.4c0.1-1,0.1-1.9,0.2-2.9c0.2-4.5-0.5-8.9-0.5-13.4c0-8.3,2.5-16.7,3-25c1.1-17.5-0.6-35.5-1.1-53.1
				C85,153.6,70,153.5,70.3,163.1L70.3,163.1z"/>
		</g>
	</g>
	<g>
		<g>
			<path class="st0" d="M77.3,202.3c0.1,3.5-0.3,6.7-1.8,9.9c4.6,1.3,9.3,2.5,13.9,3.8c2-16.8,4.1-33.6,6.1-50.4
				c0.5-4-3.8-7.5-7.5-7.5c-4.4,0-7,3.4-7.5,7.5c-2,16.8-4.1,33.6-6.1,50.4c-0.9,7.4,10.8,10.2,13.9,3.8c2.7-5.6,4-11.2,3.9-17.4
				C92.1,192.7,77.2,192.6,77.3,202.3L77.3,202.3z"/>
		</g>
	</g>
	<g>
		<g>
			<path class="st0" d="M36.6,167.3c-0.4,11.6,0.1,23.2,1.5,34.7c0.5,4,3.1,7.5,7.5,7.5c3.7,0,8-3.4,7.5-7.5
				c-1.4-11.5-1.9-23.1-1.5-34.7C51.8,157.6,36.9,157.6,36.6,167.3L36.6,167.3z"/>
		</g>
	</g>
	<g>
		<g>
			<path class="st1" d="M52,16.8C37.9,21,34.1,39,41.6,50.8c3.5,5.4,12.1,0.4,8.6-5c-3.9-6.1-3.5-17,4.4-19.3
				C60.8,24.6,58.2,14.9,52,16.8L52,16.8z"/>
		</g>
	</g>
	<g>
		<g>
			<path class="st1" d="M36.3,54.1c-1.4,3.7-4.9,6.4-7.3,9.4c-2.2,2.8-4.1,5.9-5.6,9.2c-3.7,8-5.8,16.6-7,25.3
				c-1.2,8.8-1.3,17.7-1.1,26.5c0.2,9.3,0,18.9,2.5,27.8c1.8,6.1,11.4,3.5,9.6-2.6c-2.4-8.3-2.1-17.4-2.2-26.1
				c-0.1-8.7-0.1-17.6,1.3-26.3c1.2-8,3.3-16.1,7.3-23.2c3.5-6.3,9.4-10.6,12.1-17.5C48.3,50.8,38.6,48.2,36.3,54.1L36.3,54.1z"/>
		</g>
	</g>
	<g>
		<g>
			<path class="st1" d="M26.4,137.2c-1.2,12.9,3,25.1,6.5,37.4c3.7,12.9,5.9,26,6.7,39.3c0.4,6.4,10.4,6.4,10,0
				c-0.8-13-2.8-25.8-6.1-38.4c-3.4-12.6-8.3-25-7.1-38.3C37,130.8,27,130.9,26.4,137.2L26.4,137.2z"/>
		</g>
	</g>
	<g>
		<g>
			<path class="st1" d="M40.5,219c1.4,7.6,2.4,15.3,2.9,23c0.2,3.1-0.5,7.9,0.4,10.8c-0.5,2.3,0,2.6,1.4,0.8c1.8-1.2,1.8-1.5-0.1-1
				c-1.4,0-2.8,0.5-4.1,1c-10.1,3.7-13.8,17.2-3.9,23.5c5.4,3.4,10.4-5.2,5-8.6c-2.1-1.3-0.7-3.7,0.7-4.7c1.9-1.4,3.8-1.1,5.8-1.6
				c4.8-1.3,5.1-6,5-10.2c-0.2-11.9-1.5-23.8-3.7-35.5C49,210.1,39.4,212.8,40.5,219L40.5,219z"/>
		</g>
	</g>
	<g>
		<g>
			<path class="st1" d="M61.3,168.3c7.3,12.7,8.8,27.3,8.8,41.7c0.1,16.4-1,32.9-3.6,49.2c-1,6.3,8.6,9,9.6,2.6
				c2.9-17.7,4.2-35.6,4-53.5c-0.2-15.6-2.3-31.4-10.2-45.1C66.7,157.7,58.1,162.7,61.3,168.3L61.3,168.3z"/>
		</g>
	</g>
	<g>
		<g>
			<path class="st1" d="M81.3,90.9c0.9,14.8,1.8,29.7,2.7,44.5c0.5,7.9-1,29.2,10.6,30.1c6.4,0.5,6.4-9.5,0-10c-0.3,0-0.5,0-0.8-0.1
				c1.2,0.5,2.3,1,3.5,1.5c-3-3-2.6-9.9-2.9-13.8c-0.4-5.8-0.7-11.6-1.1-17.4c-0.7-11.6-1.4-23.2-2.1-34.8
				C90.9,84.5,80.9,84.5,81.3,90.9L81.3,90.9z"/>
		</g>
	</g>
	<g>
		<g>
			<path class="st2" d="M69.3,35.1c0.4,6.7-1.9,12.3-6.9,16.8c-3,2.7-1.1,7.2,2.2,8.3c16.2,5.6,24,22.3,27.3,37.9
				c1.9,9,2.7,18.3,3.4,27.4c0.7,9.8,0.8,19.6-1.7,29.2c-1.6,6.2,8,8.9,9.6,2.6c2.8-10.7,2.9-21.8,2-32.8c-0.9-10.9-1.9-22-4.5-32.7
				c-4.5-18.1-15.2-35.1-33.5-41.4c0.7,2.8,1.5,5.5,2.2,8.3c6.8-6.1,10.4-14.8,9.8-23.8C78.9,28.7,68.9,28.7,69.3,35.1L69.3,35.1z"
				/>
		</g>
	</g>
	<g>
		<g>
			<path class="st2" d="M26.8,100.7c0,9.4,0,18.9,0,28.3c0,6.4,10,6.4,10,0c0-9.4,0-18.9,0-28.3C36.8,94.3,26.8,94.3,26.8,100.7
				L26.8,100.7z"/>
		</g>
	</g>
	<g>
		<g>
			<path class="st2" d="M83.9,166.3c-0.4,28.6-0.7,57.1-1.1,85.7c-0.1,6.4,9.9,6.4,10,0c0.4-28.6,0.7-57.1,1.1-85.7
				C94,159.9,84,159.9,83.9,166.3L83.9,166.3z"/>
		</g>
	</g>
	<g>
		<g>
			<path class="st2" d="M85.2,248.9c-0.1,0-0.2,0-0.3,0c-1.3,0-2.6,0.6-3.5,1.5s-1.5,2.3-1.5,3.5c0.1,1.3,0.5,2.6,1.5,3.5
				s2.2,1.5,3.5,1.5c0.1,0,0.2,0,0.3,0c1.3,0,2.6-0.6,3.5-1.5s1.5-2.3,1.5-3.5c-0.1-1.3-0.5-2.6-1.5-3.5
				C87.8,249.5,86.6,248.9,85.2,248.9L85.2,248.9z"/>
		</g>
	</g>
	<g>
		<g>
			<path class="st2" d="M85.9,260.2c0.6-0.2,0.4-0.3,0.8,0c0.3,0.2,0.6,0.4,1,0.8c0.5,0.6,1,1.5,1.3,2.3c0.1,0.3,0.3,0.6,0.4,1
				c0.3,0.7,0,1.4,0.3,0c-0.5,2.6,0.7,5.4,3.5,6.1c2.4,0.7,5.6-0.8,6.1-3.5c0.8-4.4-1.3-9.2-4.1-12.5c-2.9-3.4-7.5-5.1-11.9-3.8
				C77.1,252.5,79.7,262.1,85.9,260.2L85.9,260.2z"/>
		</g>
	</g>
	<g>
		<g>
			<path class="st2" d="M60.2,33.5c0,1.3,0,2.5,0,3.8c0,1.6,2.5,1.6,2.5,0c0-1.3,0-2.5,0-3.8C62.7,31.9,60.2,31.9,60.2,33.5
				L60.2,33.5z"/>
		</g>
	</g>
	<g>
		<g>
			<path class="st2" d="M52.2,33.2c0,1.3,0,2.7,0,4c0.1,1.6,2.6,1.6,2.5,0c-0.1-1.3-0.1-2.7,0-4C54.7,31.6,52.3,31.6,52.2,33.2
				L52.2,33.2z"/>
		</g>
	</g>
	<g>
		<g>
			<path class="st3" d="M45.9,46.2c-3.7-6.4-8.2-14.9-1.7-21.1c4.9-4.7,13.6-6.1,20-4.4c6.5,1.8,11.6,7,12.2,13.9
				c0.6,7.1-3.4,13.3-8.2,18.1c-2.3,2.3,1.2,5.8,3.5,3.5c6.3-6.3,11-14.7,9.4-23.9c-1.5-8.7-8.7-15.2-17.2-16.8
				c-8.4-1.6-19,0.8-24.6,7.7c-6.5,8-2.1,17.8,2.4,25.5C43.2,51.5,47.5,49,45.9,46.2L45.9,46.2z"/>
		</g>
	</g>
	<g>
		<g>
			<path class="st3" d="M43.2,49.6c-32,15.2-28,57.5-27.8,86.7c0,6.5-1.5,15.7,3.5,20.9c3.5,3.6,9.7,4,12-1
				c1.4-3.2,1.4-7.6,1.8-11.1c0.6-5.2,1.2-10.4,1.5-15.6c0.7-9.8,0.9-19.6,0.8-29.4c-0.1-3.2-5-3.2-5,0c0.2,14.4-0.4,28.8-2.1,43.1
				c-0.3,2.4-0.6,4.8-0.9,7.1c-0.4,2.4,0.3,3.3-2.6,3.4c-3.3,0.1-3.7-2.4-4-5.3c-0.2-1.7-0.1-3.5-0.1-5.3
				c-0.1-7.1-0.1-14.2-0.2-21.3c-0.2-24.2,0-55.8,25.4-68C48.6,52.5,46.1,48.2,43.2,49.6L43.2,49.6z"/>
		</g>
	</g>
	<g>
		<g>
			<path class="st3" d="M72.9,57.4C82,59.5,88,68.9,91.5,76.9c3.6,8.2,5,17.3,6.3,26.2c1.5,10.1,1.7,20.1,1.4,30.3
				c-0.2,5.5-0.5,10.9-1.3,16.4c-0.3,2.2-0.4,5.5-1.4,7.4c-0.9,1.7-1.6,2.1-3.3,2.9c0.8,0,1.7,0,2.5,0c-1.8-1-2.5-5.2-2.9-7.1
				c-0.6-2.8-0.7-5.7-0.9-8.5c-0.3-5.9-0.6-11.8-1.1-17.7c-0.9-11.2-2.4-22.3-5.5-33.1c-0.9-3.1-5.7-1.8-4.8,1.3
				c2.9,10.1,4.4,20.4,5.2,30.8c0.7,8.6,0.6,17.5,1.8,26c0.7,4.6,2.7,15.1,9.2,12c6.4-3,5.9-11.9,6.6-18.2c2-19.4,0.9-38.8-3.2-57.9
				c-2.9-13.5-11-31.8-25.9-35.2C71.1,51.9,69.8,56.7,72.9,57.4L72.9,57.4z"/>
		</g>
	</g>
	<g>
		<g>
			<path class="st3" d="M26.8,152.7c3.9,16.6,8.3,33.1,11.5,49.9c3.3,17.5,4.3,35.5,6.1,53.2c0.8-0.8,1.7-1.7,2.5-2.5
				c-8,0.2-19.6,6-17.2,15.8c2.3,9.8,18.2,7.8,25.3,6.4c4.3-0.8,7.8-1.9,9.9-6.1c2.7-5.2,2.5-11.3,1.5-16.9
				c-1-5.8-2.8-11.5-3.8-17.4c-1.2-7.4-1.6-15-2.3-22.4c-0.6-6.8-1.2-13.5-1.9-20.3c-0.5-5.6-3.5-17.5,2.5-20.9
				c7.6-4.3,7.9,13.9,8.2,17.3c0.5,7,0.6,14,0.3,21c-0.5,14.1-2.3,28.1-3.7,42.1c-1,9.7-2.5,20.3,9.8,22.1c6.1,0.9,13.1,0.8,19-1.1
				c2.8-0.9,7.4-2,8.6-5.1c4.1-10.3-11.6-14.8-18.4-16.4c-3.1-0.7-4.4,4.1-1.3,4.8c4.3,1,9,2.3,12.7,5c1.3,1,3.6,3.2,1.9,5
				c-0.9,1-4.5,1.8-5.7,2.1c-4.8,1.4-10.4,1.4-15.4,0.8c-3-0.3-6.1-1.3-6.9-4.6c-0.7-2.7,0.1-6.1,0.4-8.8c2.1-21.9,5.3-43.9,3.8-66
				c-0.5-6.6,0-18-6.1-22.4c-5.2-3.7-11.9,0-14.2,5.2c-1.8,4.1-1.4,8.8-1,13.1c0.5,5.8,1.1,11.6,1.6,17.4c1,10.5,1.6,21.2,3.1,31.6
				c1.2,8.2,10.6,30.6-0.4,35.2c-5,2-13.8,2.6-18.9,0.9c-4.4-1.5-4.4-5.2-1.8-8.4c2.6-3.1,6.6-4.1,10.4-4.2c1.2,0,2.6-1.1,2.5-2.5
				c-1.7-17.5-2.8-35.3-5.9-52.7c-3.1-17.4-7.8-34.6-11.8-51.8C30.9,148.2,26.1,149.6,26.8,152.7L26.8,152.7z"/>
		</g>
	</g>
	<g>
		<g>
			<path class="st3" d="M86.1,252.4c0.8-7.5,1.5-15.1,2.3-22.6c0.8-7.2,2.7-14.1,3.6-21.3c0.9-7.6,1.1-15.2,2.2-22.8
				c1-7.3,2.1-14.7,3.2-22c0.4-3.1-4.3-4.5-4.8-1.3c-2.1,14.8-4,29.6-5.4,44.5c-0.7,7.1-2.7,13.9-3.6,21c-0.9,8.2-1.7,16.4-2.5,24.5
				C80.7,255.6,85.7,255.6,86.1,252.4L86.1,252.4z"/>
		</g>
	</g>
</g>
</svg>
