<?xml version="1.0" encoding="utf-8"?>
<!-- Generator: Adobe Illustrator 23.0.3, SVG Export Plug-In . SVG Version: 6.00 Build 0)  -->
<svg version="1.1" id="Calque_1" xmlns="http://www.w3.org/2000/svg" xmlns:xlink="http://www.w3.org/1999/xlink" x="0px" y="0px"
	 viewBox="0 0 151.8 291.6" style="enable-background:new 0 0 151.8 291.6;" xml:space="preserve">
<style type="text/css">
	.st0{fill:#EC82AD;}
	.st1{fill:#F2C8DA;}
	.st2{fill:#D3538D;}
	.st3{fill:#B83364;}
</style>
<g>
	<g>
		<g>
			<path class="st0" d="M57.1,73.5c-4.2,0.2-8.4,0.4-12.7,0.5c2.1,3.6,4.1,7.2,6.2,10.8c2.1-4.7,5.6-10.3,5.2-15.6
				c-0.4-4.8-4.2-8.1-8.3-10.1c-7-3.5-14.8,5.3-8.7,11.3l0.1,0.1c2.8,2.8,7.3,2.7,10.1,0c5.4-5.2,0.9-15.6-1.7-21.2
				c-0.7-1.6-1.2,0.2,0.4-1.9c0.8-1.2,2-2.2,2.7-3.4c0.8-1.4,1.4-3,1.8-4.6c0.2-1,0.4-2.1,0.7-3.1c0.2-0.9,0.3-0.9,0.2,0
				c-1.3,0-2.5,0-3.8,0c9,1.5,3.6,21.5,2.3,26.7c4-1.1,8-2.1,12-3.2c-4.2-3.5-6.2-7.5-5.8-13c-4.5,1.2-8.9,2.4-13.4,3.6
				c8.2,11.5,10,25.2,10.7,38.9c0.5,9.2,14.8,9.2,14.3,0c-0.9-16.1-3.1-32.7-12.7-46.2c-4.2-5.9-12.8-3.7-13.4,3.6
				c-0.7,8.8,3.1,17.5,10,23.1c3.9,3.2,10.6,2.5,12-3.2c2.2-9.1,4.1-18.7,2.1-28c-1.8-8.3-8.8-17.8-18.3-16.3
				c-4.2,0.7-7.3,3.4-9.1,7.1c-0.9,2-1,4-1.8,6c-0.6,1.5-1.5,2.3-2.5,3.6c-3.1,3.7-4.2,8.1-2.8,12.8c1.3,4.6,3.8,8.3,4.1,13.2
				c0.7-1.7,1.4-3.4,2.1-5.1c-0.1,0.1-0.2,0.2-0.4,0.3c3.4,0,6.8,0,10.1,0l-0.1-0.1c-2.9,3.8-5.8,7.5-8.7,11.3
				c0.6,0.3,1.1,0.5,1.7,0.9c0.8,0.5,0.7,0.4-0.1-0.3c0-1.3,0-2.5,0-3.8c-0.5,3.2-2.3,6.3-3.6,9.3c-2,4.6,0.2,11,6.2,10.8
				c4.2-0.2,8.4-0.4,12.7-0.5C66.3,87.5,66.4,73.1,57.1,73.5L57.1,73.5z"/>
		</g>
	</g>
	<g>
		<g>
			<path class="st0" d="M69.9,86.2c-0.1-2.3-0.1-4.7-0.1-7c0-1.4,1-5.9,0.3-7c0.5-1.9-0.8-1.3-3.9,1.7c0.5,0.8,0.9,1.6,1.4,2.4
				c1.1,1.9,2.3,3.6,4.2,4.9c2,1.4,4.2,1.9,6.6,1.4c0.9-0.3,1.7-0.7,2.6-1.1c2-1.4,1.9-1.5-0.3-0.3c3.6,2.4,8,4.3,11.8,6.3
				c1.2-4.5,2.4-8.9,3.6-13.4c-3.4,0-6.6-2-5.6-5.8c1.1-4.3,4.6-7.9,5.6-12.4c1-4.3,1.6-9.6,0.8-14c-1-5.6-5.1-9-9-12.8
				c-3.4-3.2-7.1-8.2-11.7-9.6c-4.5-1.3-9.4,0.4-13.5,2.3c-8.6,3.9-14.6,12.5-12,22.1c2.4,8.9,16.2,5.1,13.8-3.8
				c-0.8-2.8,2.5-4.6,4.6-5.6c1-0.4,1.9-0.7,2.9-1c-0.9-0.6-0.9-0.5,0,0.3c1.8,1.1,3.4,3.3,4.9,4.8c1.4,1.4,2.8,2.7,4.2,4.1
				c1.8,1.7,1.7,2,1.6,4.5c-0.2,3.6-0.8,6.7-2.6,9.9c-3.8,6.6-6.1,13.8-2.2,21.1c3.6,6.7,10.7,10.3,18.1,10.3c7,0,10-10,3.6-13.4
				c-4.7-2.5-9.5-5.8-14.6-7.5c-2.2-0.7-4.5-1.1-6.9-0.6c-1,0.2-1.9,0.5-2.8,0.9c-0.9,0.5-4.7,2.4-0.8,0.9c1.8,0.2,3.7,0.5,5.5,0.7
				c1.1,0.7,0.6,0.9,0-0.4c-0.4-0.8-0.9-1.7-1.4-2.4c-1.2-1.9-2.6-3.5-4.4-4.8c-4-2.8-9.1-3.3-13.3-0.5c-7.3,4.9-5.6,17.3-5.4,24.8
				C55.9,95.4,70.3,95.5,69.9,86.2L69.9,86.2z"/>
		</g>
	</g>
	<g>
		<g>
			<path class="st0" d="M84.3,64.6c-0.8-4.9-1.6-9.7-2.5-14.6c-0.7-4.2-2.5-9.4-2.1-13.6c-1.2,2.1-2.4,4.1-3.6,6.2
				c-2.9,1.3-2.1,0.6-0.3,2.6c1,1,1.8,2.1,2.5,3.4c1.7,2.9,1.2,3.3-1,5.9c-4.3,5-9.3,9.3-14.8,12.9c-7.7,5-0.5,17.4,7.2,12.4
				c5.6-3.6,10.9-7.8,15.4-12.6c4.3-4.5,9.1-9.8,8.8-16.5c-0.4-11.2-13.6-25.6-25.1-20.5c-2.4,1.1-3.3,3.8-3.6,6.2
				c-0.5,4.8,1.5,10.7,2.3,15.4c0.9,5.5,1.9,11,2.8,16.5C72,77.5,85.8,73.7,84.3,64.6L84.3,64.6z"/>
		</g>
	</g>
	<g>
		<g>
			<path class="st0" d="M63.1,58.8c1.6,5,5.9,7.3,10.1,9.9c1.9,1.2,3.9,2.3,5.8,3.4c0.5,0.3,1.6,0.7,2.1,1.1
				c-1.1-0.9,0.8,1.1,1.2,1.5c2.9,2.5,7.3,2.9,10.1,0c2.6-2.6,2.9-7.6,0-10.1c1.3,1.1-0.2-0.2-0.6-0.8c-0.6-0.8-1.2-1.3-2-1.9
				c-1.5-1.1-3.1-2-4.7-2.9c-1.6-0.9-3.1-1.8-4.6-2.7c-1-0.6-1.9-1.2-2.8-1.8c-0.4-0.2-0.8-0.5-1.1-0.7c-1-0.8-0.9-0.4,0.4,1.2
				C74.2,46.2,60.3,50,63.1,58.8L63.1,58.8z"/>
		</g>
	</g>
	<g>
		<g>
			<path class="st0" d="M74.3,92.6c0-1.2,0-2.5,0-3.7c0-0.4,0-3.1-0.2-2.4c-1.1,1.4-2.2,2.9-3.3,4.3c0.2-0.1,0.4-0.2,0.5-0.3
				c-1.8,0.2-3.7,0.5-5.5,0.7c0.2,0.1,0.5,0.2,0.7,0.2c-1.1-0.6-2.1-1.2-3.2-1.8c3.2,2.7,4.9,7.9,6.5,11.6c1.5,3.6,4.8,6.1,8.8,5
				s5.8-5,5-8.8c-0.7-3.3-1.3-6.7-2-10c-3.5,2.7-7,5.4-10.5,8.1c1.9,0.9,2.4,1.3,3.3,3.2c1.6,3.5,6.7,4.4,9.8,2.6
				c3.6-2.1,4.2-6.3,2.6-9.8c-1.7-3.6-4.8-6.7-8.5-8.3c-5.8-2.6-11.8,1.7-10.5,8.1c0.7,3.3,1.3,6.7,2,10c4.6-1.3,9.2-2.5,13.8-3.8
				c-2.5-6.1-5.1-13.5-10.2-18c-3.7-3.3-9.9-3-12.5,1.5c-1.9,3.2-1.1,8-1.1,11.6C60,101.8,74.3,101.8,74.3,92.6L74.3,92.6z"/>
		</g>
	</g>
	<g>
		<g>
			<path class="st0" d="M66.8,95c-6.2,7-9.6,14.9-10.5,24.2c4.7-0.6,9.4-1.3,14.1-1.9c-1.5-4.8-2.4-9.6-2.6-14.6
				c-0.1-2.6,0-5.3,0.3-7.9c0.1-1.1,0.3-2.2,0.6-3.3c0.3-1.3,2.2-5.4-0.5-2.1c-1.9,2.3-0.9,1.2,1,1.2c0.7,0,1.8-0.2,2.4,0.2
				c1.4,0.7,1.4,2.5,1.8,4c1.1,4.8,2.8,9.3,5.1,13.7c1.4,2.6,5.3,4.4,8.1,3.3c1-0.4,4.1,5.7,4.5,6.8c1.4,3.6,1.8,7.5,2.3,11.4
				s3,7.1,7.2,7.2c3.5,0,7.6-3.3,7.2-7.2c-0.9-7.7-1.9-15.7-6.2-22.4c-3.9-6-11.2-12.5-18.8-9.6c2.7,1.1,5.4,2.2,8.1,3.3
				c-3.3-6.2-3.2-14.4-8-19.7c-4.9-5.4-13.7-6.4-20.4-4.5c-7.9,2.2-8.4,12.9-8.9,19.6c-0.6,8.3,0.5,16.7,2.9,24.6
				c2.5,8,13.4,6,14.1-1.9c0.5-5.3,2.8-10.1,6.3-14C83,98.2,72.9,88.1,66.8,95L66.8,95z"/>
		</g>
	</g>
	<g>
		<g>
			<path class="st0" d="M117,170.7c-0.5-15.6-3.2-31.3-7.4-46.3c-2-7.3-4.5-14.4-7.5-21.3c-2.5-5.8-5-14.5-12.1-15.9
				c-9-1.8-12.9,12-3.8,13.8c-1.2-0.9-1.4-0.8-0.7,0.2c0.3,0.5,0.5,1.1,0.8,1.6c0.7,1.4,1.3,2.7,1.9,4.1c1.2,2.7,2.3,5.5,3.3,8.3
				c2.2,5.9,4,12,5.5,18.1c3.1,12.2,5.1,24.7,5.5,37.3C102.9,179.9,117.3,179.9,117,170.7L117,170.7z"/>
		</g>
	</g>
	<g>
		<g>
			<path class="st0" d="M61.7,169.9c2.3-7.8,3.2-16.4-3-22.6c-4.7-4.7-14-8.5-15.5-15.6c-1.6-7.6,7.8-14.4,12.4-18.9
				c4.7-4.7,9-12.2,15.5-14.6c8.6-3.1,4.9-17-3.8-13.8c-8.2,3-13.1,9-18.8,15.2c-6.6,7.3-14.7,13.2-18.2,22.8
				c-3.4,9.2-0.3,17.8,6.2,24.7c3.1,3.3,6.6,5.9,10.1,8.7c3.9,3,2.7,6,1.4,10.4C45.2,174.9,59.1,178.7,61.7,169.9L61.7,169.9z"/>
		</g>
	</g>
	<g>
		<g>
			<path class="st0" d="M46.7,116.9c-0.4-3.2,6.6-9.2,8.8-11.6c3-3.3,6.3-8.3,10.5-10.1c3.6-1.5,4.3-6.8,2.6-9.8
				c-2.1-3.7-6.3-4.1-9.8-2.6c-6.4,2.7-11.4,9.9-15.8,15c-4.6,5.2-11.6,11.4-10.6,19.1c0.5,3.9,3,7.1,7.2,7.2
				C43.1,124.1,47.2,120.7,46.7,116.9L46.7,116.9z"/>
		</g>
	</g>
	<g>
		<g>
			<path class="st0" d="M57.6,125.5c-0.3,7.2,0.8,14.3,3.5,21c3,7.7,13.2,6.3,14.1-1.9c1.3-11.8,3.7-23.4,6.9-34.9
				c-4.6,0-9.2,0-13.8,0c2.4,9.1,3.9,18.3,4.2,27.7c0.3,9.5,0.1,19,2.6,28.3c2,7.6,14.9,6.4,14.1-1.9c-2.3-24.3-2.7-48.8-1.3-73.2
				c0.5-9.2-13.8-9.2-14.3,0c-1.4,24.4-1,48.9,1.3,73.2c4.7-0.6,9.4-1.3,14.1-1.9c-2.5-9.2-1.7-18.7-2.3-28.1s-2.1-18.8-4.5-27.9
				c-1.8-6.9-11.9-6.8-13.8,0c-3.6,12.7-6,25.6-7.5,38.7c4.7-0.6,9.4-1.3,14.1-1.9c-2.2-5.7-3.2-11.1-3-17.2
				C72.4,116.3,58,116.3,57.6,125.5L57.6,125.5z"/>
		</g>
	</g>
	<g>
		<g>
			<path class="st0" d="M78.4,188.6c-0.7,1.5-0.6,2,0.5,1.4c0.8-0.3,1.5-0.5,2.3-0.7c1.8-0.5,3.6-0.9,5.5-1.4
				c4.4-1.1,6.7-6.6,4.3-10.5c-5.4-8.7-10.8-17.4-13.7-27.3c-2.4-7.9-13.6-6.1-14.1,1.9c-0.8,13.1-1.5,26.3-2.3,39.4
				c4.5-1.2,8.9-2.4,13.4-3.6c-1.5-2.7-0.7-27.7,1.1-27.7c9.2-0.2,9.3-14.6,0-14.3c-11,0.3-14.9,9.6-15.5,19.2
				c-0.5,9.6-2.8,21.4,2,30.2c3.6,6.6,13,3.1,13.4-3.6c0.8-13.1,1.5-26.3,2.3-39.4c-4.7,0.6-9.4,1.3-14.1,1.9
				c3.3,11.1,9.1,21,15.2,30.7c1.4-3.5,2.9-7,4.3-10.5c-8.8,2.3-22,6.2-18.2,18.3C67.3,201.2,81.2,197.4,78.4,188.6L78.4,188.6z"/>
		</g>
	</g>
	<g>
		<g>
			<path class="st0" d="M75.8,133.9c0.4,14,3.5,27.1,7.7,40.4c4.3,13.8,7,28.2,10.1,42.4c2,9,15.8,5.2,13.8-3.8
				c-3-13.6-5.5-27.4-9.5-40.7c-3.9-12.7-7.3-24.9-7.7-38.3C89.9,124.6,75.6,124.6,75.8,133.9L75.8,133.9z"/>
		</g>
	</g>
	<g>
		<g>
			<path class="st0" d="M86.9,185.6c4.2,19.5,8.3,39,12.5,58.6c2.9,13.6,5.5,42.2,26.7,36.1c3.3-1,4.9-3.7,5.3-6.9
				c0.5-4.1-1-7.8-3.5-10.9c-2.4-3.1-5.9-4.8-8.4-7.6c-2.1-2.4-2.7-5.4-3.5-8.4c-1.1-4.3-2.2-8.6-3.4-12.9
				c-2.2-7.9-4.6-15.8-7.3-23.6c-2.6-7.8-5.2-15.9-9.6-23c-4.9-7.8-17.3-0.6-12.4,7.2c4,6.3,6.2,13.4,8.5,20.4
				c2.5,7.5,4.8,15.1,7,22.7c1.9,6.8,3,14.3,5.9,20.8c1.4,3.1,3.3,5.7,5.8,7.9c2.2,1.9,6.9,4.1,6.5,7.3c1.8-2.3,3.5-4.6,5.3-6.9
				c-4.8,1.4-5.9-11.6-6.5-14.4c-1.7-7.8-3.3-15.6-5-23.4c-3.3-15.6-6.7-31.2-10-46.8C98.8,172.8,84.9,176.6,86.9,185.6L86.9,185.6z
				"/>
		</g>
	</g>
	<g>
		<g>
			<path class="st0" d="M89.1,188.3c7,20,11.2,40.7,12.1,61.9c0.4,9.2,14.7,9.2,14.3,0c-1-22.4-5.2-44.5-12.6-65.7
				C99.9,175.8,86.1,179.5,89.1,188.3L89.1,188.3z"/>
		</g>
	</g>
	<g>
		<g>
			<path class="st0" d="M99.2,252.8c-5.6,2.6-11,5.4-16.3,8.4c3.5,2.7,7,5.4,10.5,8.1c-1.6,1.8-1.9,2.4-0.9,1.6
				c0.3-0.2,0.5-0.4,0.8-0.5c0.7-0.4,1.4-0.9,2.1-1.3c1.4-0.9,2.8-1.7,4.1-2.6c3.2-2.2,5.7-4.6,8-7.8c2.3-3.1,0.5-8-2.6-9.8
				c-3.6-2.1-7.5-0.6-9.8,2.6c-4,5.5-14.3,6.5-15.6,14c-1,5.9,4.7,11.5,10.5,8.1c5.3-3.1,10.8-5.9,16.3-8.4c3.5-1.6,4.4-6.7,2.6-9.8
				C106.9,251.8,102.8,251.2,99.2,252.8L99.2,252.8z"/>
		</g>
	</g>
	<g>
		<g>
			<path class="st0" d="M108,250.6c-5-10.8-12.6-19.8-18.7-29.9c-3-5-5.3-10.1-6.6-15.7c-1.4-5.9-2.6-11.7-5.8-17
				c-4.7-7.9-17.1-0.7-12.4,7.2c3,5.1,3.5,11.1,5.1,16.7c1.6,5.6,4.3,11,7.3,16c6,10.1,13.7,19.2,18.7,29.9
				C99.5,266.2,111.9,258.9,108,250.6L108,250.6z"/>
		</g>
	</g>
	<g>
		<g>
			<path class="st0" d="M100.8,258.7c0.6-5.9-2.1-11.2-4.5-16.4c-2.8-6.1-5.8-12.1-9-18c-5.4-9.8-11.9-19.9-12-31.5
				c-0.1-9.2-14.5-9.3-14.3,0c0.2,11.9,5.1,22.5,10.7,32.8c2.9,5.3,5.9,10.7,8.6,16.1c2.5,4.9,6.8,11.3,6.3,17
				C85.6,267.9,100,267.8,100.8,258.7L100.8,258.7z"/>
		</g>
	</g>
	<g>
		<g>
			<path class="st1" d="M50.3,24.8c-0.6,0.1-1.1,0.2-1.7,0.2c-2,0.3-3.5,2.7-3.5,4.6c0,1.2,0,2.4,0,3.6c0,1.6-0.9,4.4,0.8,2.6
				c1.9-2-0.5-0.6-1.5-0.3c-1.3,0.4-2.7,0.6-4,1c-3.6,1.1-5.6,3.2-5.8,7.1c-0.3,4.6-0.7,10.3,0.4,14.8c0.4,1.7,1.3,3.2,2.5,4.4
				c0.8,0.8,4,2.2,4.3,3.4c0.2-1.2,0.3-2.5,0.5-3.7c1.1-1.7-2.5,1-3.3,1.4c-1.8,1-3.6,1.9-5.4,2.9c-3,1.6-2.8,5.2-1,7.5
				c1.1,1.4,2.3,2.7,3.7,3.9c0.5,0.4,1,0.8,1.6,1.2c1.2,1.5,2.1,1,2.7-1.5c-6,1.3-3.5,10.6,2.5,9.2c4.1-0.9,6.5-5,5.5-9.1
				c-1.1-4.6-6.5-7-9.3-10.5c-0.3,2.5-0.6,5-1,7.5c5-2.6,16-5.9,11.9-13.7c-1.3-2.5-4.8-3.2-6-5.4c-0.7-1.3-0.1-5-0.1-6.5
				c0-1.8-0.5-4.6,0.1-6.2c-0.7,1-1.5,1.9-2.2,2.9c3.1-2.2,7.9-1.1,10.6-4.1c2.9-3.2,1.8-8.6,1.8-12.4c-1.2,1.5-2.3,3.1-3.5,4.6
				c0.6-0.1,1.1-0.2,1.7-0.2C58.9,33.2,56.3,24,50.3,24.8L50.3,24.8z"/>
		</g>
	</g>
	<g>
		<g>
			<path class="st1" d="M57.3,34.2c-11.1,1.5-19.6,12.3-17.2,23.5c1.4,6.4,5.7,11.9,8.3,17.9c0.7,1.6,1.5,3.4,2,5.1
				c0.7,2.8-0.2,4.1-1.9,6.2c-2.1,2.7-4.3,5.3-6.4,8c-7.8,10-15,22.2-12.2,35.4c1.3,6.3,5.5,10.8,8.6,16.2
				c3.7,6.5,5.4,13.7,5.4,21.2c0,6.2,9.5,6.2,9.6,0c0.1-12.6-4.5-22.6-11.2-32.9c-7.8-12,0-24.7,7.7-34.5c3.3-4.1,8.1-8.5,9.8-13.6
				c1.8-5.5-0.8-11-3-16c-2.3-5.3-7.6-11.4-7.5-17.3c0.1-5.8,5.5-9.3,10.7-10C65.9,42.6,63.3,33.4,57.3,34.2L57.3,34.2z"/>
		</g>
	</g>
	<g>
		<g>
			<path class="st1" d="M54.3,107.3c-0.9,6.9-1,13.1,1,19.7c2.1,7.1,3.8,14.1,4.7,21.5c0.8,7,1.5,14-0.3,20.9
				c-1.9,7.2-1.5,13.2,0.3,20.4c1.5,6,10.7,3.4,9.2-2.5c-0.9-3.6-1.8-7.2-1.4-10.8c0.4-3.2,1.7-6.2,2.2-9.4
				c0.9-6.1,0.2-12.4-0.5-18.4c-0.7-6.4-1.7-12.7-3.4-18.9c-1.9-6.9-3.6-12.5-2.6-19.8C64.4,103.8,55.2,101.2,54.3,107.3L54.3,107.3
				z"/>
		</g>
	</g>
	<g>
		<g>
			<path class="st1" d="M58.7,190.1c-0.7,11.5,6.9,24,12.1,33.8c2.8,5.4,5.7,10.7,8.4,16.1c2.5,5.2,6.8,12.1,7.1,18
				c0.5-1.1,0.9-2.3,1.4-3.4c0.1-0.1-3.1,1.4-4.1,2.2c-1.9,1.3-3.4,3.1-4.6,5c-2.3,3.8-2.8,8.2-1.8,12.6c1.4,6,10.6,3.5,9.2-2.5
				c-2-8.3,9-7.1,9.5-13.9c0.3-3.6-1.7-7.5-3-10.7c-1.4-3.6-3-7.1-4.6-10.6c-3.5-7.3-7.5-14.3-11.1-21.5c-3.7-7.3-9.3-16.7-8.8-25.1
				C68.6,184,59,184,58.7,190.1L58.7,190.1z"/>
		</g>
	</g>
	<g>
		<g>
			<path class="st1" d="M91.1,188.5c-0.4-0.4-0.8-0.9-1.2-1.3c-2.3,2.3-4.5,4.5-6.8,6.8c15.9,14.7,18.1,36.5,19.6,56.9
				c0.4,6.1,10,6.2,9.6,0c-1.7-22.9-4.5-47.3-22.4-63.7c-4.6-4.2-10.9,2.2-6.8,6.8c0.4,0.4,0.8,0.9,1.2,1.3
				C88.5,199.9,95.2,193.1,91.1,188.5L91.1,188.5z"/>
		</g>
	</g>
	<g>
		<g>
			<path class="st1" d="M86.6,111.4c9.3,19.3,10.6,40.9,11.9,61.9c0.4,6.1,9.9,6.2,9.6,0c-1.3-22.8-3.1-45.8-13.2-66.7
				C92.2,101,84,105.9,86.6,111.4L86.6,111.4z"/>
		</g>
	</g>
	<g>
		<g>
			<path class="st2" d="M86.6,38.2c-0.5,2.5-0.7,4.9-0.1,7.5c0.6,2.4,2.4,4.2,3,6.4c0.6,2.1-0.8,4-1.1,6.1c-0.4,2.2-0.1,4.3,0.9,6.3
				c0.8,1.6,2.2,2.8,3.5,3.9c2.5,2.2,1.8,3.9,1.5,7.2c-0.2,2.2-0.8,4.5,0.1,6.6c0.3,0.8,0.6,1.5,1.2,2.1c2.2,2.4,1.1,0,0.6,0.9
				c-3.4,5.2,4.9,10,8.3,4.8c3.6-5.6,2.2-9.8-3-13.2c0.7,1,1.5,1.9,2.2,2.9c-0.6-1.5,0.3-4.3,0.5-5.9c0.2-2.2,0.5-4.4-0.1-6.6
				c-1-3-3.6-4-5.3-6.3c-1.3-1.8-0.2-2.7,0.4-4.9c0.3-1.3,0.5-2.7,0.4-4c-0.4-4.1-4.3-6.9-3.5-11.1C96.9,34.8,87.7,32.2,86.6,38.2
				L86.6,38.2z"/>
		</g>
	</g>
	<g>
		<g>
			<path class="st2" d="M78,67.6c-2.6,7.9-5.6,15.4,1.5,21.9c3,2.7,6.5,4.9,9.4,7.7c3.3,3.2,6,6.9,8.3,10.9
				c10.1,17.6,10.1,38.4,10.1,58.1c0,6.2,9.6,6.2,9.6,0c0-18.9-0.2-38.3-7.9-55.9c-3.3-7.6-7.9-14.7-13.9-20.4
				c-2.8-2.7-6.8-4.7-9.3-7.6c-2.8-3.3,0.3-8.4,1.5-12.1C89.1,64.3,79.9,61.8,78,67.6L78,67.6z"/>
		</g>
	</g>
	<g>
		<g>
			<path class="st2" d="M82.5,112.5c-4.1,19,2.2,36.9,9.6,54.3c4,9.3,7.9,18.6,10.6,28.4c2.7,9.5,4.9,19.2,7.2,28.8
				c1.5,6,10.7,3.4,9.2-2.5c-4.4-17.9-8.7-35.5-15.9-52.6c-7.2-17-15.6-34.9-11.5-53.7C93,109,83.8,106.4,82.5,112.5L82.5,112.5z"/>
		</g>
	</g>
	<g>
		<g>
			<path class="st2" d="M109.6,224c2,10,4,20,6,30c0.8,4.2,1.5,8.5,3.7,12.3c1.8,3.1,5.5,6.1,5.6,9.9c0.2,6.1,9.8,6.2,9.6,0
				c-0.1-4.1-1.7-7.3-4-10.6c-2.9-4-4.3-7.4-5.2-12.3c-2.1-10.6-4.3-21.3-6.4-31.9C117.6,215.4,108.4,218,109.6,224L109.6,224z"/>
		</g>
	</g>
	<g>
		<g>
			<path class="st2" d="M61.9,111.2c-4.6,0-5,5.8-4,9.1c1.3,4.5,5.6,6.3,9.9,6.1c2.3-0.1,2.3-3.7,0-3.6c-2.1,0.1-4.5-0.2-5.8-2.1
				c-0.5-0.7-2-5.9-0.1-5.9C64.2,114.8,64.2,111.2,61.9,111.2L61.9,111.2z"/>
		</g>
	</g>
	<g>
		<g>
			<path class="st2" d="M76.9,110.1c-4.8-0.9-8.1,2.7-8.6,7.3c-0.6,5.7,3.3,9,8.4,10.3c2.2,0.6,3.2-2.9,1-3.5
				c-2.7-0.7-5.7-1.9-5.9-5.1c-0.1-2.5,1.1-6.1,4.2-5.6C78.2,114,79.1,110.5,76.9,110.1L76.9,110.1z"/>
		</g>
	</g>
	<g>
		<g>
			<path class="st2" d="M69.7,54c0.7-1.2,4.1-0.7,4.9,0.1c1.7,1.5,4.3-1,2.5-2.5c-2.6-2.3-8.6-2.8-10.6,0.6
				C65.5,54.2,68.6,56,69.7,54L69.7,54z"/>
		</g>
	</g>
	<g>
		<g>
			<path class="st2" d="M69.9,52.5c0,1.4,0,2.8,0,4.2c0,2.3,3.6,2.3,3.6,0c0-1.4,0-2.8,0-4.2C73.5,50.2,69.9,50.2,69.9,52.5
				L69.9,52.5z"/>
		</g>
	</g>
	<g>
		<g>
			<path class="st2" d="M75.5,50.7c0-0.4,0-0.9,0-1.3c0-0.9-0.8-1.8-1.8-1.8s-1.8,0.8-1.8,1.8c0,0.4,0,0.9,0,1.3
				c0,0.9,0.8,1.8,1.8,1.8C74.6,52.4,75.5,51.7,75.5,50.7L75.5,50.7z"/>
		</g>
	</g>
	<g>
		<g>
			<path class="st2" d="M76.6,53.8c0.8-0.6,1.5-1.2,2.1-2c0.6-0.7,0.8-1.8,0-2.5c-0.6-0.6-1.9-0.8-2.5,0c-0.2,0.3-0.5,0.6-0.7,0.8
				c-0.1,0.1-0.2,0.2-0.4,0.4c0,0-0.5,0.4-0.2,0.2c-0.7,0.6-1.2,1.6-0.6,2.5C74.6,53.9,75.8,54.4,76.6,53.8L76.6,53.8z"/>
		</g>
	</g>
	<g>
		<g>
			<path class="st2" d="M58.7,50.8c-3.3-0.7-6.8-1.1-9.4,1.5c0.7-0.1,1.4-0.2,2.2-0.3c-1.1-0.7-2.1-1.6-3-2.6
				c-1.6-1.7-4.1,0.8-2.5,2.5c1.1,1.2,2.3,2.2,3.7,3.1c0.7,0.4,1.6,0.3,2.2-0.3c1.6-1.6,4-1,5.9-0.6C60,54.7,61,51.3,58.7,50.8
				L58.7,50.8z"/>
		</g>
	</g>
	<g>
		<g>
			<path class="st2" d="M52.4,51.4c0-0.4,0-0.7,0-1.1c0-0.9-0.8-1.8-1.8-1.8s-1.8,0.8-1.8,1.8c0,0.4,0,0.7,0,1.1
				c0,0.9,0.8,1.8,1.8,1.8S52.4,52.4,52.4,51.4L52.4,51.4z"/>
		</g>
	</g>
	<g>
		<g>
			<path class="st2" d="M51.9,53c0,1.8,0,3.6,0,5.4c0.1,2.3,3.7,2.3,3.6,0c-0.1-1.8-0.1-3.6,0-5.4C55.5,50.7,51.9,50.7,51.9,53
				L51.9,53z"/>
		</g>
	</g>
	<g>
		<g>
			<path class="st3" d="M56.9,34c-9.3,0.9-16.8,8.3-16.8,17.9c0,5,2,9.9,5.1,13.8c3.8,4.8,12.7,9.5,10.2,16.6
				c-1,2.9,3.6,4.2,4.6,1.3c3-8.6-4.6-13.7-9.7-19.3c-3.8-4.1-6.5-10-5.1-15.7c1.4-5.4,6.2-9.4,11.7-9.9
				C59.9,38.5,59.9,33.7,56.9,34L56.9,34z"/>
		</g>
	</g>
	<g>
		<g>
			<path class="st3" d="M59.8,38.9c6.1-0.4,12.9-1,18.3,2.5c5.3,3.5,7.9,9.9,7.3,16.1c-0.9,9.4-12.2,18.1-6.1,27.7
				c1.6,2.6,5.8,0.2,4.1-2.4c-3.9-6.2,3.9-13.7,5.7-19.7c1.6-5.3,1.6-11.1-0.6-16.2c-5.1-12.1-17.1-13.6-28.8-12.8
				C56.7,34.3,56.7,39.1,59.8,38.9L59.8,38.9z"/>
		</g>
	</g>
	<g>
		<g>
			<path class="st3" d="M55,82.3c-10.5,8-19.6,18.1-25.2,30.1c-2.4,5.1-4.2,10.9-3.2,16.6c1.1,6.8,6,11.3,10.6,16.1
				c2.5,2.6,5.2,5.2,7.6,8c1.3,1.5,3.1,3.4,3.6,5.5c0.7,3-1.3,5-2.4,7.5c-1.5,3.3-1,8.1,3.1,9.2c4.8,1.3,8.8-4.9,11.1-8.2
				c3.5-4.9,5.1-10.5,2.9-16.2c-2.3-6.1-7.5-10.1-12.5-13.8c-5-3.7-8.8-8.1-4.7-14.2c2.6-3.9,5.5-7.6,8.4-11.3
				c1.9-2.4-1.5-5.8-3.4-3.4c-3.9,5.1-10.5,11.3-11.8,17.7c-1.2,5.8,3,10.6,7.2,13.9c5.6,4.4,14.2,9.8,12.8,18.3
				c-0.4,2.2-1.5,4.1-2.7,5.9c-0.4,0.6-3.4,5.3-4.3,5.2c-3.4-0.1,1-6.3,1.2-8.1c0.6-6.2-5-11.2-8.9-15.3
				c-5.5-5.8-13.6-11.8-13.3-20.5c0.2-7.6,4.7-14.9,8.9-21c4.8-6.9,10.7-12.9,17.4-17.9C59.8,84.5,57.5,80.4,55,82.3L55,82.3z"/>
		</g>
	</g>
	<g>
		<g>
			<path class="st3" d="M81.3,84.9c24.5,15.5,29.7,45.2,30.4,72c0.1,3.4,0.5,6.9,0.2,10.3c-0.1,1.6-0.1,5.2-2.7,1.9
				c-0.7-0.9-1.1-4-1.3-5.2c-1.4-6.7-1.4-13.5-2.6-20.2c-2.1-12.6-7.5-24.4-15.2-34.5c-1.8-2.4-6,0-4.1,2.4
				c5.3,7,9.5,14.6,12.2,22.9s3.1,16.8,4.3,25.4c0.6,4.5,1.3,15.4,7.7,15.9c5.2,0.4,6.5-5.6,6.5-9.6c0.2-31.3-4.1-67.2-32.9-85.5
				C81.1,79.1,78.7,83.3,81.3,84.9L81.3,84.9z"/>
		</g>
	</g>
	<g>
		<g>
			<path class="st3" d="M52.6,109.1c-1,6.5,1,12.1,3.1,18.2c1.2,3.3,2.2,6.7,2.5,10.2c0.3,3.3,0.3,6.4,1.5,9.6
				c1.1,2.8,5.7,1.6,4.6-1.3c-2-5.3-1.3-11.3-3-16.7c-1.9-6.1-5.2-12.2-4.1-18.8C57.7,107.4,53.1,106.1,52.6,109.1L52.6,109.1z"/>
		</g>
	</g>
	<g>
		<g>
			<path class="st3" d="M55.7,171.7c-2,32.2,21.7,57.3,31.4,86.2c0.4-0.9,0.7-1.8,1.1-2.7c-5.5,3.6-15.4,7.6-12.1,16.1
				c3.5,9,17.4,1.4,23.3-0.4c2.9-0.9,1.7-5.5-1.3-4.6c-2.5,0.8-15.8,6.6-17.6,3.3c-2.4-4.6,7.5-8.5,10.1-10.2
				c0.8-0.6,1.4-1.7,1.1-2.7c-9.6-28.4-33.2-53.4-31.2-84.9C60.6,168.7,55.9,168.7,55.7,171.7L55.7,171.7z"/>
		</g>
	</g>
	<g>
		<g>
			<path class="st3" d="M86.3,112c0.4,9.5,0.9,19,2.3,28.4c1.5,9.6,4.6,18.7,7.8,27.9c6.8,19.3,11.6,39.1,16.1,59
				c2.1,9.5,3.6,19.6,6.7,28.8c1.2,3.5,3.1,5.9,5.8,8.5c3.3,3.1,9.8,12.5,0.8,12.6c-4.8,0.1-9.8-2.6-13.1-6
				c-4.6-4.7-4.8-10.2-5.1-16.4c-0.4-9-1.7-17.9-3.9-26.6c-2.5-9.9-6.1-19.5-10.7-28.5c-3.3-6.5-7.8-16.2-16.6-14.3
				c-1.1,0.2-1.6,1.3-1.8,2.3c-1.3,11.3,4.6,21.2,10.1,30.6c6.6,11.1,12.4,22.5,17.4,34.4c1.2,2.8,5.3,0.4,4.1-2.4
				c-4.6-10.8-9.8-21.2-15.6-31.3c-5.6-9.6-12.6-19.5-11.3-31.2c-0.6,0.8-1.2,1.5-1.8,2.3c5.4-1.2,8.9,7.6,10.8,11.3
				c2.6,5,4.9,10.2,6.8,15.6c3.5,9.7,5.9,19.8,7,30c0.9,8.5-0.6,18.1,5,25.3c4.7,6.1,13,10.7,20.9,9.6c7.4-1.1,8.7-6.8,6-13.1
				c-1.6-3.7-4.2-5.9-7-8.7c-4.2-4.2-4.7-10.9-6-16.5c-4.7-20.6-8.9-41.3-15-61.5c-3.3-11-8-21.7-10.8-32.9
				c-3.1-12.1-3.6-24.7-4.2-37.1C91,109,86.2,109,86.3,112L86.3,112z"/>
		</g>
	</g>
	<g>
		<g>
			<path class="st3" d="M43.8,30.2c-3.1-1-6.7-0.8-9.2,1.6c-2.7,2.6-2.4,5.5-1.8,8.7c0.5,2.7-0.3,3-1.8,5.1
				c-0.9,1.2-1.4,2.6-1.5,4.2c-0.2,3.8,2.1,6.8,4.4,9.6c0.3,0.4,1.9,1.9,1.9,2.4c-0.1,0.4-1.4,1-1.7,1.4c-0.9,0.9-1.7,1.7-2,3
				c-0.3,1.4,0.1,2.8,0.8,4c0.9,1.4,2.7,1.7,3.6,2.8c1.5,2-3.9,3.4-4.3,6.2c-0.1,1,0.3,2.2,1,3c0.3,0.4,4.1,2.3,3.3,2.6
				c-1.5,0.6-2.5,2.7-1.1,4c1.5,1.2,2.8,2,4.6,2.5c2.9,0.9,4.2-3.7,1.3-4.6c-0.8-0.4-1.6-0.9-2.4-1.3c-0.4,1.3-0.7,2.7-1.1,4
				c2.1-0.8,4-2.1,4.2-4.5c0.3-2.9-1.7-3.4-3.2-5.2c-1.3-0.4-1.5-0.5-0.7-0.3c0.9-0.7,1.8-1.4,2.7-2c0.7-0.6,1.5-1.1,1.9-2.1
				c0.9-2.1-0.4-4.1-2.1-5.3c-1.6-1.2-3.8-1.4-2.4-4c0.5-0.9,1.7-1.4,2.1-2.5c0.9-2.5-0.7-4.4-2.1-6.2c-2.1-2.7-5.3-5.3-2.9-9.4
				c0.7-1.2,2.1-1.9,2.7-3.2c1.4-3.3-2.9-12.2,4.4-9.8C45.5,35.8,46.8,31.2,43.8,30.2L43.8,30.2z"/>
		</g>
	</g>
	<g>
		<g>
			<path class="st3" d="M45.4,29.1c0.1-1.1,0.6-2,1.4-2.8c0.3-0.3,0.6-0.5,1-0.7c0.7-0.3,0.8-0.3,0.1-0.2c-0.5-0.4-1-0.7-1.4-1.1
				c-0.3-0.7,0.3,1.3,0.6,1.7c0.5,0.8,1.3,1.4,2.3,1.8c2.9,1.1,5.1-0.9,7.9-0.7c-0.6-0.2-1.1-0.5-1.7-0.7c0.4,0.3,0.5,1.9,1,2.5
				c0.8,0.9,1.6,1.2,2.8,1.2c3.1,0,3.1-4.8,0-4.8c-0.2,0-0.4,0-0.6,0c0.6,0.2,1.1,0.5,1.7,0.7c-0.5-0.5-0.4-1.8-1-2.5
				c-0.7-0.9-1.7-1.2-2.8-1.2c-1.2,0-4.2,1.7-5.2,1.2c-0.3-0.2-0.6-1.6-1.1-2.1c-1.6-1.6-4.3-0.5-5.8,0.6c-2.4,1.7-3.6,4.1-3.9,7
				C40.4,32.2,45.1,32.2,45.4,29.1L45.4,29.1z"/>
		</g>
	</g>
	<g>
		<g>
			<path class="st3" d="M60.8,29.6c4.6-2.5,9.6-3.9,14.8-4c2.1,0,4.9-0.1,6.9,0.6c2.3,0.9,1.4,1.2,1.3,3.2c-0.1,2.2,0.8,3.7,2.8,4.6
				c1.7,0.8,2,0.1,3,2.3c0.4,1,0,2.3,0.6,3.4c1.3,2.4,3,1.6,4.8,2.5c1.4-0.5,1.9,0.1,1.7,1.8c-0.3,1.2-0.5,2.5-0.7,3.7
				c-0.5,2.5-0.9,4.9-1.3,7.4c-0.4,2.3-1,4.8,0.8,6.7c0.8,0.9,2.1,1,2.9,1.7c1.8,0.1,2,0.8,0.8,2.1c-0.8,0.9-1.5,1.9-2.3,2.8
				c-0.7,0.9-1.1,2.5,0,3.4c0.5,1.2,0.9,2.3,1.4,3.5c-0.3,1.2,0.4,2.7,1.7,2.9c3,0.6,0.8,8.9,0.3,10.2c-1.1,2.9,3.5,4.1,4.6,1.3
				c1.9-4.8,2.9-14.6-3.6-16.1c0.6,1,1.1,2,1.7,2.9c0.9-3.2,0-6-2.6-8.1c0,1.1,0,2.3,0,3.4c1.9-2.3,5.8-5.6,4.7-9
				c-0.5-1.5-1.8-2.4-3.2-3.1c-0.6-0.3-2.4-0.8-2.6-1.1c-0.6-1,0.4-4.1,0.6-5.1c0.7-3.7,3.6-10.6,1.7-14.1c-0.7-1.3-1.9-1.8-3.4-2.1
				c-2.5-0.5-3,0.7-3.6-2.1c-0.3-1.4-0.3-2.6-1.4-3.7c-0.9-0.9-3.6-1-4.1-1.7s0.4-2.7,0.3-3.8c-0.2-1.4-0.8-2.4-2-3.2
				c-3.5-2.4-10-2.2-14-1.8c-5.2,0.5-10.1,2-14.7,4.5C55.6,27,58,31.1,60.8,29.6L60.8,29.6z"/>
		</g>
	</g>
	<g>
		<g>
			<path class="st3" d="M45.3,68.7c-0.9,1.5-1.3,3-1,4.7c0.3,1.9,1.5,2.4,2.3,3.9c0-0.8,0-1.6,0-2.4c-1.1,2.3-3.7,3.6-2.5,6.5
				c0.4,0.8,1,1.3,1.7,2c0.2,0.2,0.5,0.4,0.7,0.6c-0.1-0.1-0.3-0.1-0.4-0.2c-0.1,0.5-0.7,1.3-0.9,1.9c-1,2.9,3.6,4.2,4.6,1.3
				c0.5-1.6,1.9-2.5,1.3-4.4c-0.4-1.3-2.1-1.9-2.4-3c-0.4-0.3-0.3-0.4,0.6-0.2c0.4-0.5,0.8-0.9,1.2-1.4c0.3-0.5,0.6-1.2,0.6-1.8
				c0-2.1-3-2.9-1.7-5C51,68.5,46.9,66.1,45.3,68.7L45.3,68.7z"/>
		</g>
	</g>
	<g>
		<g>
			<path class="st3" d="M89.8,66.5c-1.7,1.8-3.8,4.4-3.5,7.1c0.3,2.9,3.7,3.8,4.2,6.5c0.2,1.2,0.3,2.4,0.6,3.7
				c0.2,1.1-0.1,1.6-0.1,2.6c0,2,1.2,3.1,3.2,3.2c3.1,0.2,3.1-4.6,0-4.8c-0.2,0-0.4,0-0.5,0c0.7,0.4,1.4,0.8,2.1,1.2
				c0.4,0.6,0.1,1.1,0.4-0.1c0.1-0.5,0.1-1.1,0.1-1.6c-0.1-1.6-0.6-3.5-0.9-5.2c-0.2-1.2-0.5-2.1-1.2-3.1c-0.4-0.6-1-1-1.5-1.5
				c-1.2-1.7-1-2.9,0.6-4.6C95.3,67.6,91.9,64.2,89.8,66.5L89.8,66.5z"/>
		</g>
	</g>
</g>
</svg>
