<?xml version="1.0" encoding="utf-8"?>
<!-- Generator: Adobe Illustrator 23.0.3, SVG Export Plug-In . SVG Version: 6.00 Build 0)  -->
<svg version="1.1" id="Calque_1" xmlns="http://www.w3.org/2000/svg" xmlns:xlink="http://www.w3.org/1999/xlink" x="0px" y="0px"
	 viewBox="0 0 259 308.1" style="enable-background:new 0 0 259 308.1;" xml:space="preserve">
<style type="text/css">
	.st0{fill:#F4A776;}
	.st1{fill:#FBD8C5;}
	.st2{fill:#C5774F;}
	.st3{fill:#936645;}
	.st4{fill:#EC82AD;}
	.st5{fill:#F2C8DA;}
	.st6{fill:#D3538D;}
	.st7{fill:#B83364;}
</style>
<g>
	<g>
		<g>
			<path class="st0" d="M158,54.9c-2.5,0-5.1,0-7.6,0c-1,0-1.9,0-2.9,0c-2.3-0.2-1.5,0.6,2.5,2.5c-0.6,0.5,0-3.4,0.2-3.7
				c2.3-3.9,10.7-5.6,14.7-3.8c2,0.9,3.1,3.2,3.7,5.3c0.4,1.5,0.5,2.5,0.5,4.1c0,1.1,0,2.3-0.1,3.4c0.9-0.8,1.1-1.4,0.6-1.9
				c0.4,0.7-7.1,0.7-7.9,0.5c-0.4-0.1-3.1-1.5-3.2-1.5c-0.1-0.2-0.3-0.3-0.4-0.5c-0.2,0.6,0,1.1,0.3,1.5c-0.9,1.5-1.7,2.9-2.6,4.4
				c0.3-0.3,0.6-0.6,0.9-0.8c-1.5,0.9-2.9,1.7-4.4,2.6c-1.7,0.6,3.2-0.6,2.8-0.3c-0.7,0.5-1.7-3.1-0.4,0.7
				c2.5,7.3,14.4,10.9,18.3,2.4c1-2.1,1.9-4.2,2.3-6.5c0.9-5.3-1.4-10.8-7-12.3c-4.8-1.3-11.4,1.6-12.3,7c-0.2,0.6-0.3,1.1-0.2,1.7
				c6.1,0.8,12.2,1.6,18.3,2.4c-3.1-9.1-8.9-15.2-19-15.4c-9-0.2-16.9,4.5-16.6,14.5c0.6,19.1,26.9,24.5,40.8,17.1
				c15.8-8.4,11.6-33.2-0.5-43.1c-12.5-10.3-34.7-6.7-44.2,6.2c-5.2,7.1-6.7,17-2.4,24.9c5.4,10.1,16.1,8.6,25.9,8.5
				C170.9,74.8,170.9,54.8,158,54.9L158,54.9z"/>
		</g>
	</g>
	<g>
		<g>
			<path class="st0" d="M164,71c-18.7-6.9-33.3,9.5-39.9,24.9c-7.7,18-13.4,36.4-10.1,56.1c1.8,11.2,20,8.5,19.6-2.7
				c-0.3-9.1-0.6-18.1-0.2-27.2c0.3-6.7,0.6-14.5,4.2-20.3c3.6-5.7,11-8.1,17.2-9.8c8.2-2.3,16.6-3.2,25.2-2.9
				c14.5,0.4,27.3,4.8,35,17.7c8.1,13.5,7.1,29.7,2.1,44.2c4.9-2,9.8-4,14.7-6c-14.3-9.3-32.1-8.2-48.4-10c-8.7-0.9-17.4-2.4-26-4.3
				c-6.6-1.4-15.3-2.3-20.3-7.3c-2.4,5.7-4.7,11.4-7.1,17.1c32.1-1.6,64.1,0.3,96.1,2.3c11.2,0.7,13.7-17.3,2.7-19.6
				c-14.3-3-28.6-6-42.8-9c-12.6-2.6-26.6-4.1-38.3-9.6c-1.7,6.2-3.4,12.4-5,18.6c27-3.4,54.6-3.7,81.7,0c4.5,0.6,8.8-0.4,11.3-4.6
				c2.3-3.9,1.5-8.8-1.6-12.1c-9.5-10.3-20.6-20.5-35.4-21.4c-8.3-0.5-16.5,2.2-24.6,3.6c-3.6,0.6-7.1,1-10.7,1.4
				c-1.9,0.2-3.8,0.3-5.8,0.4c-1.3,0.1-2.6,0.1-3.8,0.2c-2.4-0.2-2.6,0-0.5,0.6c1.2,1.2,2.4,2.4,3.6,3.6c-0.2-0.3-0.4-0.6-0.7-1
				c0.5,1.7,0.9,3.4,1.4,5c0,0.3-0.1,0.6-0.1,0.9c-0.9,1.5-1.7,2.9-2.6,4.4c-0.7,0.7-1.4,1-2.3,1c5.4-0.5,10-4.2,10-10
				c0-5-4.6-10.5-10-10c-4.8,0.4-9.6,1.8-12.6,5.9c-3.5,4.8-3.1,11.5,1.2,15.8c4.1,4.1,10.2,3.9,15.5,3.6c5.7-0.3,11.4-0.9,17-1.7
				c5.1-0.7,10.1-1.6,15.1-2.6c4.2-0.9,8.2-1.7,12.4-0.5c7.7,2.2,13.6,9.3,18.8,14.9c3.2-5.6,6.5-11.1,9.7-16.7
				c-29-3.9-58-4.4-87-0.7c-4.4,0.6-8.4,2.7-9.6,7.3c-1.1,4,0.6,9.4,4.6,11.3c13,6.1,27.2,8.3,41.1,11.2c14.9,3.1,29.8,6.3,44.8,9.4
				c0.9-6.5,1.8-13.1,2.7-19.6c-32-2-64.1-3.9-96.1-2.3c-8.5,0.4-13.4,10.7-7.1,17.1c5.9,5.9,13.6,8.8,21.5,10.7
				c9.4,2.3,18.9,4.1,28.5,5.4c9.3,1.3,18.6,2,28,2.7c7.3,0.6,14.4,1.8,20.7,5.8c5.7,3.7,12.7-0.2,14.7-6
				c10-28.8,3.3-65.8-26.1-80.6c-15.2-7.6-33.7-7.8-50.1-5.3c-15.1,2.3-32.9,8.2-40.5,22.7c-8.8,16.6-6.6,38.2-6,56.3
				c6.5-0.9,13.1-1.8,19.6-2.7c-2.1-13,2.4-26.4,7.2-38.3c2.8-7.1,8.3-21.8,18.3-18.1c5.1,1.9,11-2.1,12.3-7
				C172.5,77.7,169.1,72.9,164,71L164,71z"/>
		</g>
	</g>
	<g>
		<g>
			<path class="st0" d="M125.1,141.1c0.1,10.8,2.8,21.3,8,30.8c2.7,4.9,6.2,9.4,10,13.4c0.5,0.5,1.3,1,1.6,1.6
				c-0.8-1.3-0.2,0.9-0.2,1.8c0,3.3,0,6.5,0,9.8c0,12.4,0.1,24.8,0,37.2c-0.1,10.6-2.2,20.7-9.1,29.1c-3.4,4.2-4.1,10.1,0,14.1
				c3.5,3.5,10.7,4.2,14.1,0c8.3-10.1,13.3-21.6,14.6-34.7c1.3-13.1,0.4-26.7,0.4-39.9c0-6.3,0.4-12.6-0.1-18.9
				c-0.5-7.4-4.8-11.3-9.4-16.6c-6.6-7.7-9.9-17.7-10-27.7C145,128.2,125,128.2,125.1,141.1L125.1,141.1z"/>
		</g>
	</g>
	<g>
		<g>
			<path class="st0" d="M139.8,150c-1.4,9.5-0.3,17.7,3.7,26.4c1.6,3.5,6.4,5.3,10,4.8c4.2-0.6,6.8-3.3,8.3-7.2
				c-0.5,0.7-1,1.4-1.5,2c-1.7,0.5-3.4,0.9-5,1.4c0.4,0,0.9,0,1.3,0c-1.7-0.5-3.4-0.9-5-1.4c0.4,0.2,0.7,0.4,1.1,0.6
				c-1.2-1.2-2.4-2.4-3.6-3.6c-1-1.9,0.2,2.8,0.2,2.9c0.2,1.5,0.5,3,0.7,4.5c0.6,4.5,2.7,8.4,7.3,9.6c4.2,1.1,9.2-0.7,11.3-4.6
				c1.3-2.4,7.4-3.4,8.7-2.7c0.8,0.4,4.2,4.2,5.8,5.6c2.8,2.5,5.5,5.1,8.3,7.6c6,5.5,13.9,2.5,16.7-4.4c2.7-6.5,4-14,0.3-20.4
				c-1.6-2.9-4-5-6.7-6.8c-1.8-1.2-3.9-1.9-5.3-3.5c-0.7,5.2-1.3,10.5-2,15.7c3.3-1.8,6.5-3.6,9.8-5.3c9.1-5,4.5-18.2-5-18.6
				c-16.7-0.8-33.5-0.8-50.2,0.1c0,6.7,0,13.3,0,20c5.9-0.8,11.7-0.8,17.6,0c5.4,0.7,10-5.1,10-10c0-6-4.6-9.3-10-10
				c-5.9-0.7-11.7-0.7-17.6,0c-5.4,0.7-10,4.1-10,10c0,5.2,4.6,10.3,10,10c16.7-0.8,33.5-0.8,50.2-0.1c-1.7-6.2-3.4-12.4-5-18.6
				c-3.3,1.8-6.5,3.6-9.8,5.3c-5.9,3.2-6.2,11.1-2,15.7c1.4,1.6,3.1,2.9,4.9,4c0.6,0.4,3.3,2.4,3.9,2.3c0.6,0.2,0.7,0.3,0.5,0.4
				c-0.7-2-1-2.5-0.7-1.4c-0.3,0.1-1.8,5.5-2,6.1c5.6-1.5,11.1-2.9,16.7-4.4c-8.2-7.5-16.6-18.8-28.6-19.1
				c-9.9-0.2-20.7,3.4-25.6,12.6c6.2,1.7,12.4,3.4,18.6,5c-0.9-7.2-0.7-17.2-7.7-21.4c-8.8-5.2-16.5,1.7-19.6,9.6
				c6.1-0.8,12.2-1.6,18.3-2.4c-1.5-3.3-2.2-7.3-1.7-11c0.8-5.3-1.3-10.7-7-12.3C147.3,141.7,140.6,144.6,139.8,150L139.8,150z"/>
		</g>
	</g>
	<g>
		<g>
			<path class="st0" d="M190.7,183.7c0,11.1-0.1,22.1-0.1,33.2c0,9.8-1.2,20.6,1.3,30.2c2.5,9.5,9.4,14.2,16.4,20.2
				c1.6,1.3-0.3,1.5,0.5,0.3c0.3-0.5,1.4-2.1,1.6-2.6c0.4-1.3,0.7,1.5-0.4-0.4c-0.9-1.6-2-4.9-2.6-7.2c-3-12.5-22.3-7.2-19.3,5.3
				c2.9,12.1,11.5,23.7,25.3,21.9c15.6-2.1,19.1-19.4,9.8-30.4c-3.3-3.9-9.3-6-11.5-10.7c-2.1-4.3-1.2-10.4-1.1-14.9
				c0-15,0.1-29.9,0.1-44.9C210.7,170.9,190.7,170.9,190.7,183.7L190.7,183.7z"/>
		</g>
	</g>
	<g>
		<g>
			<path class="st0" d="M171.9,185.7c3.7-1.8,8.5,0.8,11.4,3.5c4.9,4.6,6.4,12,7.3,18.4c2.4,16.8,3,34.1,4.4,51
				c6.2-1.7,12.4-3.4,18.6-5c-1.5-2-2.5-3.5-2.6-6c-0.3-12.9-19.5-12.9-20,0c-0.2,5.3-0.1,10.7,0.3,16c0.4,5.4,4.3,10,10,10
				c5.1,0,10.4-4.6,10-10c-0.9-11.4-1.1-22.8-0.8-34.2c0.4-12.9-19.6-12.9-20,0c-0.4,11.4-0.1,22.8,0.8,34.2c6.7,0,13.3,0,20,0
				c-0.4-5.3-0.5-10.7-0.3-16c-6.7,0-13.3,0-20,0c0.1,5.8,1.7,11.5,5.3,16.1c2.8,3.6,6.6,5.9,11.3,4.6c4-1.1,7.7-5.3,7.3-9.6
				c-1-11.5-1.9-23-2.9-34.4c-0.9-10.5-1.2-21.5-4.5-31.6c-6.3-19.1-25.9-33.9-45.9-24.2c-4.9,2.4-6.2,9.3-3.6,13.7
				C161.2,187.1,167.1,188.1,171.9,185.7L171.9,185.7z"/>
		</g>
	</g>
	<g>
		<g>
			<path class="st1" d="M131.2,43.8c-1.8,6.9-3.3,14.3-0.1,21c3.1,6.5,9.4,9.3,15.9,11.7c6.1,2.2,8.7-7.5,2.7-9.6
				c-3.9-1.4-8.4-2.9-9.9-7.2c-1.5-4.2,0-9,1.1-13.1C142.5,40.3,132.8,37.6,131.2,43.8L131.2,43.8z"/>
		</g>
	</g>
	<g>
		<g>
			<path class="st1" d="M143.2,77.6c-10.6-1.4-20.2,5.6-25.3,14.5c-5.7,10.1-7.4,22.4-10,33.5c-1.5,6.3,8.2,8.9,9.6,2.7
				c3.1-13.2,5.9-43.4,25.6-40.7C149.5,88.5,149.5,78.5,143.2,77.6L143.2,77.6z"/>
		</g>
	</g>
	<g>
		<g>
			<path class="st1" d="M128,119.8c-4.3,10.5-5,21.2-0.9,31.9c4,10.6,11.1,19.4,18.2,28.1c4.1,5,11.1-2.1,7.1-7.1
				c-6-7.3-12.2-14.8-15.7-23.7c-3.5-9.2-2.7-17.6,0.9-26.6C140,116.5,130.3,113.9,128,119.8L128,119.8z"/>
		</g>
	</g>
	<g>
		<g>
			<path class="st1" d="M138.1,204.4c1,13.1,2.9,26.4,2.9,39.5c0,6.4-2.3,9.6-6.2,14.4c-3.5,4.3-5.7,9.4-3.9,14.9
				c2,6.1,11.7,3.5,9.6-2.7c-1.6-4.8,5.8-9.7,7.8-13.6c2.3-4.5,2.8-9.7,2.6-14.6c-0.4-12.6-1.9-25.3-2.9-37.9
				C147.6,198,137.6,198,138.1,204.4L138.1,204.4z"/>
		</g>
	</g>
	<g>
		<g>
			<path class="st2" d="M179.4,57.1c-1.7,3.9-1.9,8.5-3.9,12.2c-1.5,2.9-0.2,6.4,3,7.3c15.8,4.9,30.1,11.8,39.8,25.7
				c9.2,13.1,13.6,29.6,11.1,45.5c-1,6.3,8.6,9,9.6,2.7c3-18.6-1.3-37.7-12.1-53.2c-11.3-16.2-27.4-24.6-45.8-30.3
				c1,2.4,2,4.9,3,7.3c2-3.9,2.2-8.2,3.9-12.2C190.6,56.3,182,51.2,179.4,57.1L179.4,57.1z"/>
		</g>
	</g>
	<g>
		<g>
			<path class="st2" d="M199.9,100.1c10.7,25.7,20.3,59.7-1.1,82.9c-4.4,4.7,2.7,11.8,7.1,7.1c24.1-26.1,16-63.1,3.7-92.6
				C207.1,91.6,197.4,94.1,199.9,100.1L199.9,100.1z"/>
		</g>
	</g>
	<g>
		<g>
			<path class="st2" d="M200.2,230.1c-0.5,8.4-0.8,17,2.3,25c1.3,3.4,3.1,6.4,5.4,9.2c1.2,1.5,2.5,2.9,3.8,4.3
				c0.4,0.4,4.4,5.4,3.8,5.5c-6.4,0.5-6.4,10.5,0,10c4.5-0.4,8.4-2.9,9.6-7.6c1.3-5.3-1.7-10.1-5.1-13.8c-3.9-4.2-7.4-7.9-8.9-13.6
				c-1.7-6.2-1.2-12.7-0.8-19C210.5,223.6,200.5,223.7,200.2,230.1L200.2,230.1z"/>
		</g>
	</g>
	<g>
		<g>
			<path class="st2" d="M163.1,43.6c-0.1,1.8-0.1,3.5,0.1,5.3c0.1,1,0.8,1.9,1.9,1.9c0.9,0,2-0.9,1.9-1.9c-0.1-1.8-0.2-3.5-0.1-5.3
				C166.9,41.2,163.2,41.2,163.1,43.6L163.1,43.6z"/>
		</g>
	</g>
	<g>
		<g>
			<path class="st2" d="M148.3,44.1c0.2,1.9,0.4,3.8,0.6,5.8c0.1,1,0.8,1.9,1.9,1.9c0.9,0,2-0.9,1.9-1.9c-0.2-1.9-0.4-3.8-0.6-5.8
				c-0.1-1-0.8-1.9-1.9-1.9C149.2,42.2,148.2,43.1,148.3,44.1L148.3,44.1z"/>
		</g>
	</g>
	<g>
		<g>
			<path class="st3" d="M136.3,72.3c-10,3.4-18.5,8.7-22.9,18.7c-5.6,12.7-5.9,26.8-8,40.3c-0.5,3.4-0.6,6.6-0.3,9.9
				c0.5,5.5,0.6,12.1,4,16.8c2.6,3.5,7.1,5.7,11.4,4c4.5-1.8,6.2-6.7,7.3-11.1c0.8-3.1-4.1-4.5-4.8-1.3c-0.5,2.1-1,4.5-2.5,6.1
				c-2.8,3.1-6.2,1.4-8-1.9c-2.2-3.9-2.1-9.4-2.4-13.8c-0.4-5.4,0.8-10.6,1.5-16c1.3-10.6,2.2-21.5,6.6-31.3
				c3.8-8.5,11.1-12.8,19.6-15.7C140.6,76.1,139.3,71.2,136.3,72.3L136.3,72.3z"/>
		</g>
	</g>
	<g>
		<g>
			<path class="st3" d="M136.8,92.3c-10.6,15.1-17.2,33.7-14.6,52.3c2.2,15.9,11,30.6,25,38.8c2.8,1.6,5.3-2.7,2.5-4.3
				c-13.3-7.8-21.5-22.2-22.8-37.4c-1.5-16.8,4.8-33.2,14.3-46.7C143,92.2,138.7,89.7,136.8,92.3L136.8,92.3z"/>
		</g>
	</g>
	<g>
		<g>
			<path class="st3" d="M200.8,95.3c16.6,9.2,16.7,30,13.6,46.3c-2.7,14.6-6,31.2-18.3,40.9c-2.5,2,1,5.5,3.5,3.5
				c14.2-11.3,18.1-31.9,20.5-48.9c2.4-17.1-0.3-37.1-16.9-46.2C200.5,89.4,198,93.8,200.8,95.3L200.8,95.3z"/>
		</g>
	</g>
	<g>
		<g>
			<path class="st3" d="M186.6,73.4c11.2-0.5,20.6,4.8,28.3,12.6c7.5,7.6,11.7,15.3,15.1,25.3c2.5,7.3,5.2,14.8,4.9,22.7
				c-0.2,4.6-1.2,9.2-2.3,13.7c-0.6,2.4-1.1,4.9-2,7.3c-1.2,3.3-5.1,8.8-8.9,4.9c-2.2-2.3-5.8,1.2-3.5,3.5c3.3,3.4,8.5,3.5,12.3,0.6
				c4.7-3.6,5.9-10.4,7.2-15.8c2.6-10.7,2.8-20.4-0.5-31c-3.8-12.5-8-23.6-17.2-33.1c-9-9.4-20-16.3-33.4-15.7
				C183.3,68.5,183.3,73.5,186.6,73.4L186.6,73.4z"/>
		</g>
	</g>
	<g>
		<g>
			<path class="st3" d="M131.8,170c2.8,18.2,5,36.5,6.7,54.9c0.4,4.2,0.7,8.5,1.1,12.7c0.3,4.2,2.2,10.9-0.7,14.5
				c-1.9,2.3-4.6,3.8-6.3,6.4c-1.8,2.6-2.9,5.6-3.4,8.7c-0.8,4.9,0,11,4.6,13.8c5.6,3.4,12.2-0.7,17-3.6c5.2-3.1,10.4-6.6,14.1-11.5
				c4.1-5.4,4.9-11.6,5-18.2c0.2-8.9,0-17.9-0.5-26.8c-0.3-6.2-4.3-24.1,4.4-25.8c7.7-1.5,7.2,15.7,7.6,20.4
				c0.8,8.9,1.4,17.8,1.9,26.7c0.3,7.1,0,14.7,2.4,21.5c2,5.9,6.1,10.5,11.2,14c4.9,3.4,11.4,7,17.5,5.2c5.3-1.5,8.9-6.7,9.5-12
				c0.9-7.6-3.4-13.7-7.4-19.6c-5.8-8.5-5.8-17.7-5-27.7c1.6-20.1,3.8-40.2,6.4-60.2c0.4-3.2-4.6-3.1-5,0
				c-2.1,16.1-3.9,32.3-5.4,48.5c-1.3,14.3-3.9,29.3,4.7,41.9c4,5.8,10,13.7,5.3,20.9c-5.4,8.2-16.7,0.5-21.7-4.3
				c-5.8-5.6-6.7-13.1-7-20.8c-0.4-7.9-0.7-15.7-1.3-23.6c-0.6-7.7-1.1-15.5-2.2-23.1c-0.6-4.2-1.7-9-5.3-11.6
				c-4-2.9-9.2-1.7-12.5,1.7c-4.3,4.4-4,10.7-3.7,16.4c0.5,8,1,15.9,1.1,23.9c0.1,7.6,1.3,16.8-1.1,24.1
				c-2.1,6.5-8.1,10.9-13.6,14.4c-2.7,1.7-5.9,4-9,4.8c-6.8,1.7-8.1-5-6.8-10.1c1.1-4.3,3.7-7.2,7-10.1c2.3-2,3.8-3.9,4-7.1
				c0.6-8.6-1.2-18-1.9-26.5c-1.7-18.2-3.9-36.2-6.7-54.3C136.1,165.5,131.3,166.9,131.8,170L131.8,170z"/>
		</g>
	</g>
	<g>
		<g>
			<path class="st3" d="M148.6,67.9c-10.5,0.7-19.1-8.5-18.3-18.9c0.9-11.6,10.9-19.9,21.9-21.4c11-1.6,25,2.2,29.4,13.4
				c3.1,8,4.3,22.5-4.8,27.2c-2.8,1.5-0.3,5.8,2.5,4.3c11.7-6.1,11-23.8,6.5-34.3c-5.7-13.2-22.3-17.7-35.5-15.5
				c-13.2,2.3-24.7,13-25.1,26.9c-0.4,12.7,10.5,24.1,23.4,23.2C151.8,72.7,151.9,67.7,148.6,67.9L148.6,67.9z"/>
		</g>
	</g>
</g>
<g>
	<g>
		<g>
			<path class="st4" d="M47.7,45.8c2.5-0.4,0.1-0.4,1.5-2.1c0,0,0.9-0.1,1.1-0.2c2-0.9,6.7-0.2,8.1,1.7c0.6,0.9,0.8,1.9,0.9,3
				c0.1,0.9,0,1.8-0.3,2.6c-1,1.8-0.4,2.3,2,1.3c-0.2,0.5-5.7-6.2-6.1-7.1c0.3,1.3,0.7,2.5,1,3.8c0-0.4,0-0.7-0.1-1.1
				c-0.7,1.8-1.5,3.5-2.2,5.3c0.2-0.3,0.5-0.5,0.7-0.8c-2.4,0.6-4.8,1.3-7.3,1.9c0.3,0,0.6,0.1,0.9,0.1c4,0.6,8-1,9.2-5.2
				c1-3.5-1.2-8.6-5.2-9.2C44,38.7,38.2,45.3,42.1,53c2.7,5.3,7.8,10.5,13.2,13c15.7,6.9,22-16.6,16.5-27.2
				c-5.5-10.7-23.9-14.7-33-6.1c-4.7,4.4-6.1,11.9-4.2,17.9c2.4,7.5,9.5,10.7,16.8,9.6c4-0.6,6.2-5.6,5.2-9.2
				C55.7,46.7,51.7,45.2,47.7,45.8L47.7,45.8z"/>
		</g>
	</g>
	<g>
		<g>
			<path class="st4" d="M47.6,52c0.8,1.1,2.6,3.1,2.6,4.6c0.3-1.3,0.7-2.5,1-3.8c0.9-1.3,0.2-0.3-0.7,0.3c-1,0.6-1.9,1.2-2.9,1.7
				c-2.2,1.2-4.4,2.4-6.7,3.4c-4,1.9-6.4,4.3-8.3,8.2c-4.2,8.8-9,17.8-11.1,27.3c-2.3,10.2-3,20.9-4.3,31.2
				c-1.4,10.8-3.1,21.6-2.8,32.5c0.3,9.6,15.3,9.6,14.9,0c-0.4-11.8,1.7-23.7,3.1-35.4c1.4-11.2,2-22.8,6.2-33.3
				c1.9-4.7,4.2-9.3,6.4-13.9c1-2.2,1.1-2.6,3.3-3.7c2.3-1.1,4.5-2.2,6.7-3.4c4.8-2.7,9.9-5.8,10-12c0-5.4-3.8-10.2-7-14.3
				c-2.5-3.2-7.9-2.6-10.6,0C44.4,44.5,45.1,48.8,47.6,52L47.6,52z"/>
		</g>
	</g>
	<g>
		<g>
			<path class="st4" d="M29.2,152.3c1.2-10.8,2.7-22.1,7-32.2c1.9-4.6,4.6-9.9,8.5-13.1c4-3.2,10.2-3.2,15-2.2
				c10.4,2.1,15.1,10.2,18.7,19.5c4.5,11.7,3.4,24.5,2.5,36.7c5,0,10,0,14.9,0c0.9-14.6,0.5-29.3-1.2-43.9
				C92.9,103.4,91,88.8,83.4,77C76.8,66.6,63.8,55.8,51,62.3c-5.8,3-11.5,8-16,12.7c-4.7,4.9-7.9,10.6-8.1,17.5
				c-0.2,5.8,6.5,9.2,11.2,6.5c6.5-3.7,14.2-4.7,21.5-4.9c7-0.2,14.1,0.5,19.2,5.7c3.5-3.5,7-7,10.6-10.6
				C81,82.4,72.2,76.1,62.9,70.5c-6.6-4-13.6,3.8-10.2,10.2c2.6,5,7.8,8.7,11.5,13c4,4.7,7.5,9.7,10.7,14.9c5,8.2,17.9,0.7,12.9-7.5
				c-3.3-5.3-6.9-10.4-10.8-15.2c-1.9-2.3-3.8-4.5-5.8-6.6c-1.7-1.8-4.4-3.8-5.6-6c-3.4,3.4-6.8,6.8-10.2,10.2
				c8.2,5,16,10.4,23.5,16.4c7.3,5.9,17.6-3.6,10.6-10.6c-7.5-7.4-17.7-10.2-28-10.1c-10.5,0.1-21.6,1.7-30.9,7
				c3.7,2.2,7.5,4.3,11.2,6.5c0.1-4.1,3.9-7.2,6.7-9.7c2.7-2.4,7.6-8,11.6-7.3c3.7,0.6,7.4,5.1,9.4,7.9c2.9,4,4.7,8.5,6.1,13.2
				c6,20.5,6.4,43.3,5.1,64.5c-0.6,9.6,14.2,9.5,14.9,0c1.3-16,1.4-31.7-5.5-46.6c-2.7-5.8-5.3-11.4-10.2-15.5
				c-5.7-4.8-12.4-8-19.8-9c-7.1-0.9-14.9-0.4-21.3,3.2c-6.3,3.5-10.7,9.9-13.9,16.1c-6.9,13.4-9,28.4-10.7,43.2
				c-0.5,4,3.8,7.5,7.5,7.5C26.2,159.8,28.8,156.4,29.2,152.3L29.2,152.3z"/>
		</g>
	</g>
	<g>
		<g>
			<path class="st4" d="M27.7,159.9c9.5,4.8,21,5.2,31.5,5c9.8-0.2,21.6-2,26.6-11.8c6.6-12.9-10.8-14.8-19.2-15.2
				c-9.9-0.5-22.5,2.6-31-3.8c-1.3,4.6-2.5,9.3-3.8,13.9c11-1.1,21.9-0.9,32.8,0.9c4.3,0.7,9.5,2.2,13.8,0.9c4.9-1.4,6.6-6,7.1-10.7
				c0.5-4.2,0.8-9.6-2.4-13c-3.4-3.6-9.1-2.9-13.5-2.6c-5.2,0.4-10.5,1.3-15.6,2.2c-3.5,0.6-9.6,2.8-11.3-1.2c0.3,1.3,0.7,2.5,1,3.8
				c0-0.2,0-0.5,0-0.7c-0.7,1.8-1.5,3.5-2.2,5.3c-3,1.4-3.2,1.9-0.5,1.4c1.3-0.1,2.5-0.1,3.8-0.2c2.5-0.1,5,0,7.5,0.1
				c4,0.2,7.8,0.6,11.8,0.1c7.4-0.9,16.2-5.7,19.8-12.6c5.2-9.8-5.4-15.2-13.6-15.7c-9.1-0.6-17.6,3.2-26,5.9
				c-9.1,3-5.2,17.4,4,14.4c4.4-1.4,8.8-3.2,13.3-4.4c1.8-0.5,3.6-0.9,5.5-1c1.3-0.1,4.8,0.8,4.3-0.4c-0.3-1.9-0.5-3.8-0.8-5.8
				c-0.6,2.4-5.9,4.5-8,4.8c-4.5,0.7-9.4-0.3-13.9-0.4c-7-0.1-21.5-0.9-19.6,10.2c1.5,9.2,11.6,12.8,19.8,12.2
				c9.4-0.7,18.8-4.2,28.4-3.1c-1.3-0.3-2.5-0.7-3.8-1c0.3,0.2,0.5,0.3,0.8,0.5c-1.1-1.5-2.3-3-3.4-4.5c0.5,1.4-0.6,4.3-0.1,5.3
				c5.2-2.4,6.4-3.5,3.7-3.5c-0.8,0-1.5-0.1-2.3-0.2c-4.3-0.5-8.6-1.4-12.9-1.9c-9.1-1-18.2-1-27.3-0.1c-7.6,0.8-9.8,9.4-3.8,13.9
				c6.6,5,14.9,5.9,22.9,5.8c4.3,0,8.5-0.2,12.8-0.1c1.8,0.1,3.7,0.2,5.5,0.3c1.2,0.1,2.4,0.2,3.6,0.3c1.9,0.7,2,0.2,0.2-1.5
				c-0.3-1.9-0.5-3.8-0.8-5.8c-1.1,5-13.6,3.9-17.1,3.9c-6.5-0.1-14.1,0-20-3C26.6,142.6,19.1,155.5,27.7,159.9L27.7,159.9z"/>
		</g>
	</g>
	<g>
		<g>
			<path class="st4" d="M51,113.8c-0.5,2.5-0.1,3.2,1.1,2.1c0.9-0.6,1.8-1,2.8-1.3s2-0.6,3-0.7c1.9,0.2,2.2,0,1-0.4
				c1.1-4.2,2.2-8.3,3.3-12.5c-12.9,1.9-29.2,8.4-34.5,21.3c-1.5,3.8,1.7,8.2,5.2,9.2c4.3,1.2,7.7-1.5,9.2-5.2
				c1.3-3.1,7.5-5.7,10.2-7c4.4-2.1,9.1-3.2,13.9-3.9c6.1-0.9,6.5-8.7,3.3-12.5c-6-6.9-18.1-4-24.9,0.1c-8.2,4.9-10.1,13.9-4.1,21.4
				c2.5,3.2,7.9,2.6,10.6,0C54.1,121.3,53.5,116.9,51,113.8L51,113.8z"/>
		</g>
	</g>
	<g>
		<g>
			<path class="st4" d="M24.4,165.9c1.5,5.9,3.8,13.6,8.1,18c2,2.1,5.3,3.3,8.2,2.5s4.5-3.3,6.8-5c3.8-2.8,8.9-4.1,13.6-3.5
				c5.6,0.7,9.9,5.2,15.8,4.1c11.8-2.3,18.2-25.1,3-26.6c-3.2-0.3-6.3,0-9.4,0.9c-3.4,0.9-5.7,0.9-9.2,0.4c-7.3-1-14.6-1-22-0.1
				c-4,0.5-7.5,3.1-7.5,7.5c0,3.7,3.4,8,7.5,7.5c7-0.8,14-0.9,21,0c3.4,0.4,6.7,0.9,10.1,0.3c2.8-0.5,5.8-2.4,8.6-1.3
				c-1.5-1.1-3-2.3-4.5-3.4c0.1,0.2,0.2,0.5,0.3,0.7c-0.3-1.3-0.7-2.5-1-3.8c0,0.7-0.2,1.5-0.2,2.2c-0.1,0.5-0.3,1.1-0.4,1.6
				c0.8-0.1,1.5-0.2,2.3-0.4c0.1-0.3-5.6-2.6-6.3-2.9c-3.9-1.4-8.3-1.9-12.4-1.6c-4.2,0.3-8.1,1.2-12,2.9c-4,1.7-6.5,4.5-9.9,6.8
				c1.9-0.3,3.8-0.5,5.8-0.8c2.6,1.7,3.1,1.6,1.6-0.5c-0.5-1-1-2-1.4-3c-0.9-2.1-1.5-4.4-2.1-6.6C36.4,152.7,22,156.6,24.4,165.9
				L24.4,165.9z"/>
		</g>
	</g>
	<g>
		<g>
			<path class="st4" d="M30.4,181.2c1.3,14.8,6.2,28.9,7.3,43.7c0.6,7.6,0.4,15.2,0,22.8c-0.2,3.8-0.5,7.6-0.8,11.4
				c-0.1,1.3-0.2,2.5-0.4,3.8c0.9-1.2,1.8-2.4,2.6-3.7c-0.2-0.3-3.6,1.2-4,1.4c-6.4,2.9-8.5,10.7-4.1,16.4
				c4.5,5.8,12.3,5.3,18.7,3.8c7.5-1.7,11.7-6.4,12.2-14.2c0.5-7.3-3.2-13.5-4.1-20.5c-0.5-4-3.1-7.5-7.5-7.5c-3.6,0-8,3.4-7.5,7.5
				c0.7,5.5,2.6,10.5,3.8,16c0.2,1,0.4,1.9,0.4,2.9c0.1,0.7,0,1.4-0.2,2.1c0.5-0.5,1.1-0.9,1.6-1.4c0,0.1-3.3,0.9-3.6,0.9
				c-0.8,0.2-1.6,0.2-2.4,0.2c-1.3-0.1-1,0.3,0.8,1.1c0,1.3,0,2.6,0,4c-2.8,2.1-3.2,2.8-1.2,2c0.7-0.2,1.4-0.4,2-0.7
				c1.5-0.6,3-1.3,4.1-2.5c2.8-2.7,3-6.2,3.4-9.8c0.9-9.1,1.5-18.3,1.4-27.5c-0.2-17.9-6.1-34.6-7.6-52.2
				C44.5,171.7,29.5,171.6,30.4,181.2L30.4,181.2z"/>
		</g>
	</g>
	<g>
		<g>
			<path class="st4" d="M70.7,176.2c0,5.1,0,10.3,0,15.4c0,8.2,12.9,10.4,14.7,2c0.9-4.4,1.8-8.7,2.5-13.1c0.3-2.2,0.7-4.4,0.6-6.6
				c-0.1-1.5-0.9-3.5-0.7-4.9c0.5-4-3.8-7.5-7.5-7.5c-4.5,0-6.9,3.5-7.5,7.5c-0.4,3.1,0.9,5.9,0.4,9.1c-0.6,3.8-1.4,7.7-2.2,11.5
				c4.9,0.7,9.8,1.3,14.7,2c0-5.1,0-10.3,0-15.4C85.6,166.6,70.7,166.6,70.7,176.2L70.7,176.2z"/>
		</g>
	</g>
	<g>
		<g>
			<path class="st4" d="M66.1,170.7c0.3,12.3,0.7,24.6,1,36.9c0.2,6.4,0.5,12.7-0.1,19.1c-0.6,6-1.7,12-2.4,18
				c-0.7,5.8,0.5,11.6,0.2,17.5c-0.3,5.3-0.6,10.4,4.3,13.8c6.8,4.6,28.9,5.1,24.3-8.2c-3.1-9.1-17.5-5.2-14.4,4
				c0.1,0.2,0.1,0.4,0.2,0.7c0.3-1.9,0.5-3.8,0.8-5.8c-0.1,0.2-0.2,0.4-0.4,0.7c1.5-1.1,3-2.3,4.5-3.4c-0.8,0.2-6-0.4-6.2-0.1
				c1.2,2.8,1.7,3.2,1.6,1.4c0.1-1,0.1-1.9,0.2-2.9c0.2-4.5-0.5-8.9-0.5-13.4c0-8.3,2.5-16.7,3-25c1.1-17.5-0.6-35.5-1.1-53.1
				C80.8,161.2,65.8,161.1,66.1,170.7L66.1,170.7z"/>
		</g>
	</g>
	<g>
		<g>
			<path class="st4" d="M73.1,209.9c0.1,3.5-0.3,6.7-1.8,9.9c4.6,1.3,9.3,2.5,13.9,3.8c2-16.8,4.1-33.6,6.1-50.4
				c0.5-4-3.8-7.5-7.5-7.5c-4.4,0-7,3.4-7.5,7.5c-2,16.8-4.1,33.6-6.1,50.4c-0.9,7.4,10.8,10.2,13.9,3.8c2.7-5.6,4-11.2,3.9-17.4
				C87.9,200.3,73,200.2,73.1,209.9L73.1,209.9z"/>
		</g>
	</g>
	<g>
		<g>
			<path class="st4" d="M32.4,174.9c-0.4,11.6,0.1,23.2,1.5,34.7c0.5,4,3.1,7.5,7.5,7.5c3.7,0,8-3.4,7.5-7.5
				c-1.4-11.5-1.9-23.1-1.5-34.7C47.6,165.2,32.7,165.2,32.4,174.9L32.4,174.9z"/>
		</g>
	</g>
	<g>
		<g>
			<path class="st5" d="M47.8,24.4c-14.1,4.2-17.9,22.2-10.4,34c3.5,5.4,12.1,0.4,8.6-5c-3.9-6.1-3.5-17,4.4-19.3
				C56.6,32.2,54,22.5,47.8,24.4L47.8,24.4z"/>
		</g>
	</g>
	<g>
		<g>
			<path class="st5" d="M32.1,61.7c-1.4,3.7-4.9,6.4-7.3,9.4c-2.2,2.8-4.1,5.9-5.6,9.2c-3.7,8-5.8,16.6-7,25.3
				c-1.2,8.8-1.3,17.7-1.1,26.5c0.2,9.3,0,18.9,2.5,27.8c1.8,6.1,11.4,3.5,9.6-2.6c-2.4-8.3-2.1-17.4-2.2-26.1s-0.1-17.6,1.3-26.3
				c1.2-8,3.3-16.1,7.3-23.2c3.5-6.3,9.4-10.6,12.1-17.5C44.1,58.4,34.4,55.8,32.1,61.7L32.1,61.7z"/>
		</g>
	</g>
	<g>
		<g>
			<path class="st5" d="M22.2,144.8c-1.2,12.9,3,25.1,6.5,37.4c3.7,12.9,5.9,26,6.7,39.3c0.4,6.4,10.4,6.4,10,0
				c-0.8-13-2.8-25.8-6.1-38.4c-3.4-12.6-8.3-25-7.1-38.3C32.8,138.4,22.8,138.5,22.2,144.8L22.2,144.8z"/>
		</g>
	</g>
	<g>
		<g>
			<path class="st5" d="M36.3,226.6c1.4,7.6,2.4,15.3,2.9,23c0.2,3.1-0.5,7.9,0.4,10.8c-0.5,2.3,0,2.6,1.4,0.8
				c1.8-1.2,1.8-1.5-0.1-1c-1.4,0-2.8,0.5-4.1,1c-10.1,3.7-13.8,17.2-3.9,23.5c5.4,3.4,10.4-5.2,5-8.6c-2.1-1.3-0.7-3.7,0.7-4.7
				c1.9-1.4,3.8-1.1,5.8-1.6c4.8-1.3,5.1-6,5-10.2c-0.2-11.9-1.5-23.8-3.7-35.5C44.8,217.7,35.2,220.4,36.3,226.6L36.3,226.6z"/>
		</g>
	</g>
	<g>
		<g>
			<path class="st5" d="M57.1,175.9c7.3,12.7,8.8,27.3,8.8,41.7c0.1,16.4-1,32.9-3.6,49.2c-1,6.3,8.6,9,9.6,2.6
				c2.9-17.7,4.2-35.6,4-53.5c-0.2-15.6-2.3-31.4-10.2-45.1C62.5,165.3,53.9,170.3,57.1,175.9L57.1,175.9z"/>
		</g>
	</g>
	<g>
		<g>
			<path class="st5" d="M77.1,98.5c0.9,14.8,1.8,29.7,2.7,44.5c0.5,7.9-1,29.2,10.6,30.1c6.4,0.5,6.4-9.5,0-10c-0.3,0-0.5,0-0.8-0.1
				c1.2,0.5,2.3,1,3.5,1.5c-3-3-2.6-9.9-2.9-13.8c-0.4-5.8-0.7-11.6-1.1-17.4c-0.7-11.6-1.4-23.2-2.1-34.8
				C86.7,92.1,76.7,92.1,77.1,98.5L77.1,98.5z"/>
		</g>
	</g>
	<g>
		<g>
			<path class="st6" d="M65.1,42.7c0.4,6.7-1.9,12.3-6.9,16.8c-3,2.7-1.1,7.2,2.2,8.3c16.2,5.6,24,22.3,27.3,37.9
				c1.9,9,2.7,18.3,3.4,27.4c0.7,9.8,0.8,19.6-1.7,29.2c-1.6,6.2,8,8.9,9.6,2.6c2.8-10.7,2.9-21.8,2-32.8c-0.9-10.9-1.9-22-4.5-32.7
				C92,81.3,81.3,64.3,63,58c0.7,2.8,1.5,5.5,2.2,8.3C72,60.2,75.6,51.5,75,42.5C74.7,36.3,64.7,36.3,65.1,42.7L65.1,42.7z"/>
		</g>
	</g>
	<g>
		<g>
			<path class="st6" d="M22.6,108.3c0,9.4,0,18.9,0,28.3c0,6.4,10,6.4,10,0c0-9.4,0-18.9,0-28.3C32.6,101.9,22.6,101.9,22.6,108.3
				L22.6,108.3z"/>
		</g>
	</g>
	<g>
		<g>
			<path class="st6" d="M79.7,173.9c-0.4,28.6-0.7,57.1-1.1,85.7c-0.1,6.4,9.9,6.4,10,0c0.4-28.6,0.7-57.1,1.1-85.7
				C89.8,167.5,79.8,167.5,79.7,173.9L79.7,173.9z"/>
		</g>
	</g>
	<g>
		<g>
			<path class="st6" d="M81,256.5c-0.1,0-0.2,0-0.3,0c-1.3,0-2.6,0.6-3.5,1.5s-1.5,2.3-1.5,3.5c0.1,1.3,0.5,2.6,1.5,3.5
				s2.2,1.5,3.5,1.5c0.1,0,0.2,0,0.3,0c1.3,0,2.6-0.6,3.5-1.5s1.5-2.3,1.5-3.5c-0.1-1.3-0.5-2.6-1.5-3.5
				C83.6,257.1,82.4,256.5,81,256.5L81,256.5z"/>
		</g>
	</g>
	<g>
		<g>
			<path class="st6" d="M81.7,267.8c0.6-0.2,0.4-0.3,0.8,0c0.3,0.2,0.6,0.4,1,0.8c0.5,0.6,1,1.5,1.3,2.3c0.1,0.3,0.3,0.6,0.4,1
				c0.3,0.7,0,1.4,0.3,0c-0.5,2.6,0.7,5.4,3.5,6.1c2.4,0.7,5.6-0.8,6.1-3.5c0.8-4.4-1.3-9.2-4.1-12.5c-2.9-3.4-7.5-5.1-11.9-3.8
				C72.9,260.1,75.5,269.7,81.7,267.8L81.7,267.8z"/>
		</g>
	</g>
	<g>
		<g>
			<path class="st6" d="M56,41.1c0,1.3,0,2.5,0,3.8c0,1.6,2.5,1.6,2.5,0c0-1.3,0-2.5,0-3.8C58.5,39.5,56,39.5,56,41.1L56,41.1z"/>
		</g>
	</g>
	<g>
		<g>
			<path class="st6" d="M48,40.8c0,1.3,0,2.7,0,4c0.1,1.6,2.6,1.6,2.5,0c-0.1-1.3-0.1-2.7,0-4C50.5,39.2,48.1,39.2,48,40.8L48,40.8z
				"/>
		</g>
	</g>
	<g>
		<g>
			<path class="st7" d="M41.7,53.8C38,47.4,33.5,38.9,40,32.7c4.9-4.7,13.6-6.1,20-4.4c6.5,1.8,11.6,7,12.2,13.9
				c0.6,7.1-3.4,13.3-8.2,18.1c-2.3,2.3,1.2,5.8,3.5,3.5c6.3-6.3,11-14.7,9.4-23.9c-1.5-8.7-8.7-15.2-17.2-16.8
				c-8.4-1.6-19,0.8-24.6,7.7c-6.5,8-2.1,17.8,2.4,25.5C39,59.1,43.3,56.6,41.7,53.8L41.7,53.8z"/>
		</g>
	</g>
	<g>
		<g>
			<path class="st7" d="M39,57.2c-32,15.2-28,57.5-27.8,86.7c0,6.5-1.5,15.7,3.5,20.9c3.5,3.6,9.7,4,12-1c1.4-3.2,1.4-7.6,1.8-11.1
				c0.6-5.2,1.2-10.4,1.5-15.6c0.7-9.8,0.9-19.6,0.8-29.4c-0.1-3.2-5-3.2-5,0c0.2,14.4-0.4,28.8-2.1,43.1c-0.3,2.4-0.6,4.8-0.9,7.1
				c-0.4,2.4,0.3,3.3-2.6,3.4c-3.3,0.1-3.7-2.4-4-5.3c-0.2-1.7-0.1-3.5-0.1-5.3c-0.1-7.1-0.1-14.2-0.2-21.3
				c-0.2-24.2,0-55.8,25.4-68C44.4,60.1,41.9,55.8,39,57.2L39,57.2z"/>
		</g>
	</g>
	<g>
		<g>
			<path class="st7" d="M68.7,65c9.1,2.1,15.1,11.5,18.6,19.5c3.6,8.2,5,17.3,6.3,26.2c1.5,10.1,1.7,20.1,1.4,30.3
				c-0.2,5.5-0.5,10.9-1.3,16.4c-0.3,2.2-0.4,5.5-1.4,7.4c-0.9,1.7-1.6,2.1-3.3,2.9c0.8,0,1.7,0,2.5,0c-1.8-1-2.5-5.2-2.9-7.1
				c-0.6-2.8-0.7-5.7-0.9-8.5c-0.3-5.9-0.6-11.8-1.1-17.7c-0.9-11.2-2.4-22.3-5.5-33.1c-0.9-3.1-5.7-1.8-4.8,1.3
				c2.9,10.1,4.4,20.4,5.2,30.8c0.7,8.6,0.6,17.5,1.8,26c0.7,4.6,2.7,15.1,9.2,12c6.4-3,5.9-11.9,6.6-18.2c2-19.4,0.9-38.8-3.2-57.9
				C93,81.8,84.9,63.5,70,60.1C66.9,59.5,65.6,64.3,68.7,65L68.7,65z"/>
		</g>
	</g>
	<g>
		<g>
			<path class="st7" d="M22.6,160.3c3.9,16.6,8.3,33.1,11.5,49.9c3.3,17.5,4.3,35.5,6.1,53.2c0.8-0.8,1.7-1.7,2.5-2.5
				c-8,0.2-19.6,6-17.2,15.8c2.3,9.8,18.2,7.8,25.3,6.4c4.3-0.8,7.8-1.9,9.9-6.1c2.7-5.2,2.5-11.3,1.5-16.9
				c-1-5.8-2.8-11.5-3.8-17.4c-1.2-7.4-1.6-15-2.3-22.4c-0.6-6.8-1.2-13.5-1.9-20.3c-0.5-5.6-3.5-17.5,2.5-20.9
				c7.6-4.3,7.9,13.9,8.2,17.3c0.5,7,0.6,14,0.3,21c-0.5,14.1-2.3,28.1-3.7,42.1c-1,9.7-2.5,20.3,9.8,22.1c6.1,0.9,13.1,0.8,19-1.1
				c2.8-0.9,7.4-2,8.6-5.1c4.1-10.3-11.6-14.8-18.4-16.4c-3.1-0.7-4.4,4.1-1.3,4.8c4.3,1,9,2.3,12.7,5c1.3,1,3.6,3.2,1.9,5
				c-0.9,1-4.5,1.8-5.7,2.1c-4.8,1.4-10.4,1.4-15.4,0.8c-3-0.3-6.1-1.3-6.9-4.6c-0.7-2.7,0.1-6.1,0.4-8.8c2.1-21.9,5.3-43.9,3.8-66
				c-0.5-6.6,0-18-6.1-22.4c-5.2-3.7-11.9,0-14.2,5.2c-1.8,4.1-1.4,8.8-1,13.1c0.5,5.8,1.1,11.6,1.6,17.4c1,10.5,1.6,21.2,3.1,31.6
				c1.2,8.2,10.6,30.6-0.4,35.2c-5,2-13.8,2.6-18.9,0.9c-4.4-1.5-4.4-5.2-1.8-8.4c2.6-3.1,6.6-4.1,10.4-4.2c1.2,0,2.6-1.1,2.5-2.5
				c-1.7-17.5-2.8-35.3-5.9-52.7c-3.1-17.4-7.8-34.6-11.8-51.8C26.7,155.8,21.9,157.2,22.6,160.3L22.6,160.3z"/>
		</g>
	</g>
	<g>
		<g>
			<path class="st7" d="M81.9,260c0.8-7.5,1.5-15.1,2.3-22.6c0.8-7.2,2.7-14.1,3.6-21.3c0.9-7.6,1.1-15.2,2.2-22.8
				c1-7.3,2.1-14.7,3.2-22c0.4-3.1-4.3-4.5-4.8-1.3c-2.1,14.8-4,29.6-5.4,44.5c-0.7,7.1-2.7,13.9-3.6,21c-0.9,8.2-1.7,16.4-2.5,24.5
				C76.5,263.2,81.5,263.2,81.9,260L81.9,260z"/>
		</g>
	</g>
</g>
</svg>
