<?xml version="1.0" encoding="utf-8"?>
<!-- Generator: Adobe Illustrator 22.1.0, SVG Export Plug-In . SVG Version: 6.00 Build 0)  -->
<svg version="1.1" id="Calque_1" xmlns="http://www.w3.org/2000/svg" xmlns:xlink="http://www.w3.org/1999/xlink" x="0px" y="0px"
	 viewBox="0 0 57.4 56.7" style="enable-background:new 0 0 57.4 56.7;" xml:space="preserve">
<style type="text/css">
	.st0{fill:#B1896F;}
</style>
<path class="st0" d="M51.8,10.9L12.5,51.8c-1.3,1.3-3.5,1.4-4.8,0.1l0,0c-1.3-1.3-1.4-3.5-0.1-4.8L46.9,6.2c1.3-1.3,3.5-1.4,4.8-0.1
	l0,0C53.1,7.3,53.1,9.5,51.8,10.9z"/>
<path class="st0" d="M7.5,10.9l39.4,40.8c1.3,1.3,3.5,1.4,4.8,0.1l0,0c1.3-1.3,1.4-3.5,0.1-4.8L12.4,6.2c-1.3-1.3-3.5-1.4-4.8-0.1
	l0,0C6.2,7.4,6.2,9.6,7.5,10.9z"/>
</svg>
