<?xml version="1.0" encoding="utf-8"?>
<!-- Generator: Adobe Illustrator 22.1.0, SVG Export Plug-In . SVG Version: 6.00 Build 0)  -->
<svg version="1.1" id="Calque_1" xmlns="http://www.w3.org/2000/svg" xmlns:xlink="http://www.w3.org/1999/xlink" x="0px" y="0px"
	 viewBox="0 0 1280 1024" style="enable-background:new 0 0 1280 1024;" xml:space="preserve">
<style type="text/css">
	.st0{fill:#F9EAE0;}
	.st1{fill:#D7AD75;}
	.st2{fill:#B7D7A5;}
	.st3{fill:#E7EFD4;}
	.st4{fill:#86B46A;}
	.st5{fill:#C9A481;}
	.st6{fill:#F2CCA9;}
	.st7{fill:#DBA26A;}
	.st8{fill:#F2D5B7;}
	.st9{fill:none;stroke:#8E6B42;stroke-width:4.6139;stroke-miterlimit:10;}
	.st10{fill:#8E6B42;}
	.st11{fill:#ABD4F2;}
	.st12{fill:#CAE8FB;}
</style>
<rect x="-95.4" y="2.8" class="st0" width="1472.4" height="1024.1"/>
<g>
	<g>
		<g>
			<path class="st1" d="M118.4,867.4c-2.8-3.9-5.6-7.9-8.4-11.8c-2.5-3.5-6.7-7.6-8.3-11.6c-0.2,0.9-0.5,1.9-0.7,2.8
				c0.9-0.8,1.9-1.6,3-2.2c-1.3-0.3-2.6-0.7-4-1c5.4,8,10.9,16,16.3,24.1c2.1,3.1,7.1,0.2,5-2.9c-5.4-8-10.9-16-16.3-24.1
				c-0.8-1.2-2.6-2-4-1c-1.4,1-3.1,1.8-4.2,3.1c-0.6,0.8-1.1,1.8-0.7,2.8c1.6,4.1,5.2,7.9,7.8,11.4c3.2,4.5,6.3,8.9,9.5,13.4
				C115.6,873.4,120.6,870.5,118.4,867.4L118.4,867.4z"/>
		</g>
	</g>
	<g>
		<g>
			<path class="st2" d="M95.3,841.6c-0.3,0.3-5.2,5.5-5.5,2.4c-0.1-1.2-0.8-2.6-2.1-2.8c-8.5-1.3-15.7-9.6-18.1-17.5
				c-1.5-4.8,0.1-7.9,2.3-12c1.8-3.3,3.3-5.9,7.7-4.1c1.7,0.7,3.3,2.1,4.9,3.1c2.4,1.6,5.2,4.3,8.2,4.7c1.6,0.2,3.2-0.5,4.9-0.2
				c2.7,0.5,4.6,2.8,5.9,5c2.2,3.6,4.7,7.9,2.5,11.9c-2,3.7-5.6,6.9-8.9,9.4c-2.9,2.2,0,7.3,2.9,5c4.5-3.4,9.2-7.6,11.6-12.7
				c2.4-5.1,0.4-9.8-2-14.5c-2.5-4.8-6.3-9.4-12-10c-3.3-0.3-4.9-0.2-8-2.2c-2.8-1.9-5.7-4.2-8.9-5.4c-5.1-1.9-9.4,0-12.3,4.4
				c-2.9,4.3-5.9,9.5-5.3,14.9c1.3,11.3,11.5,24,23,25.7c-0.7-0.9-1.4-1.9-2.1-2.8c0.3,3.4,2.3,5.9,5.8,6.4c3.9,0.7,7.1-2.1,9.6-4.8
				C102,843,97.9,838.8,95.3,841.6L95.3,841.6z"/>
		</g>
	</g>
	<g>
		<g>
			<path class="st2" d="M99.7,838.4c-2.4,2.3-5.2,2.5-8.1,1.3c0,1.9,0,3.7,0,5.6c5.4-1.3,10-3.7,14.3-7.3c2.7-2.3-0.7-5.9-3.5-4.6
				c-2.3,1.1-4.5,2.1-6.8,3.2c-2.3,1.1-6.5,4.7-8.1,0.7c-1.3-3.2,1.9-4.8,4.2-5.4c3-1.6,6.2-2.6,9.6-2.9c-0.7,1.8-1.7,3.5-2.9,5.1
				c-1.2,1.5-2.7,2.1-4.6,2c-1.6-2.8-3.9-4.9-6.9-6.2c-2.1-1.4-3.2-2.7-2.5-5.5c0.7-2.7,3.1-4.8,5.4-6.1c1.6-0.9,10.9-3.4,8.4,1.9
				c1.1-0.4,2.2-0.9,3.3-1.3c-2.5,1.4-2.8,2.6-0.9,3.6c0.7,0.7,1.4,1.4,2.1,2.1c0.5,0.6,4.8,5.8,0.7,5.6c-0.6,0-3.4-4.2-3.5-4.3
				c-1.2-1.8-1.8-6-4.1-6.8c-0.7-1.2-1.3-2.4-2-3.6c-1,3.9-5,0.2-6-0.9c-0.9,1.6-1.9,3.2-2.8,4.8c4.4,1.1,3.5,6.8,0.1,8.2
				c-1.1,0-2.2,0-3.2,0c1.2,0,1.8-0.3,1.7-1c-0.8-2.1-1.4-2.2-1.9-0.5c-1,1-0.9,2.1,0.3,3.2c0.4,1.2,0.6,2.3,0.6,3.6
				c-0.4,3.6-0.9,3.6-1.5-0.1c2.8-1,2.7-6.1-0.8-5.7c-1.3,0.2-2.9-1.1-3.9-2c-1.8-1.6-2.2-2.4-1.2-4.6c0.2-2.1,0.8-2.5,1.8-1.3
				c0.9,0.3,1.1,0.7,0.6,1.3c0.1,0-1,1.9,0.6,0.2c0.9-0.2,1.9-0.5,2.8-0.7c-0.6-0.1-3.2-2-3.1-1.8c1.8-0.7,3.5-1.5,5.3-2.2
				c-0.9-1.4-1.7-2.9-2.1-4.5c-0.1-0.7-0.2-1.4-0.3-2.1c2.4,0.9,3,0,1.8-2.8c-1.5,1.2-3,2.3-4.6,3.5c1,0.8,4,2.9,3.6,4.4
				c0.7-0.7,1.3-1.3,2-2c-2.1,0.9-5.2-2.7-6.2-4c-0.6,1.4-1.2,2.8-1.7,4.3c-1-0.6-1.9-1.2-2.9-1.8c-1.8-1.3-4.4,0.4-4.4,2.5
				c0.3,6.8,0.8,15.4,4.4,21.3c3.3,5.4,8.9,4.3,13.7,1.8c-1.5-0.8-2.9-1.7-4.4-2.5c0,5.3,2.5,9.3,5.6,13.5c0.8-1.5,1.7-2.9,2.5-4.4
				c-8.3-0.9-13.3-8.2-17.7-14.5c-2.1-3.1-7.1-0.2-5,2.9c5.7,8.3,12,16.3,22.7,17.4c2.1,0.2,3.8-2.7,2.5-4.4
				c-2.4-3.2-4.8-6.3-4.8-10.5c0-2.3-2.4-3.5-4.4-2.5c-2.5,1.3-5.9,0.6-6.8-2.2c-0.5-1.5-0.9-3-1.2-4.6c-0.8-3.8-1.2-7.5-1.4-11.4
				c-1.5,0.8-2.9,1.7-4.4,2.5c3.6,2.5,9.4,2.7,11-2.4c1.3-4.3-2.8-7.6-6.8-6.4c-1.6,0.5-2.9,2.7-1.7,4.3c2.4,3.3,8.5,9.2,13.1,6.5
				c5.1-3-0.5-9.6-3.4-11.9c-2.4-1.9-6.5,0.5-4.6,3.5c2.1,3.2,5.9,6.4,9.6,3.3c3.3-2.7,1.2-6.5-1.6-8.5c-3.1-2.2-7.7-2.8-9.8,1.1
				c-2.2,4.1,0,9.9,2.3,13.5c1.7,2.6,6.5,1,5.3-2.2c-1.7-4.5-8.3-8.3-11.1-2.3c-2,4.3,2.9,11.7,7.8,11.3c6.8-0.6,2-9.2-1.6-10.8
				c-4.9-2.1-9.6,2.3-7.5,7.2c1.9,4.5,8.1,7.9,11.6,3c3.1-4.4,0-10.3-4.6-12c-5.6-2-10.5,2.4-10.1,8.2c0.4,5.5,6.5,12.3,12.2,11.6
				c-0.3-1.9-0.5-3.8-0.8-5.7c-11.9,4.5,1.9,20.5,7.4,11.3c2.8-4.7,1.3-11.6-1.8-15.7c-2.3-3.1-8.2-4.3-8.9,0.8
				c-0.6,4.2,4.7,10.1,9,9.5c4.8-0.7,4.9-6.7,3.2-10.1c-5.9-11.4-20.2,3-9.4,9.5c11.7,7,21.9-15.1,7.6-18.8
				c-2.9-0.7-4.8,2.7-2.8,4.8c4.5,4.9,13.6,6.3,15.7-1.7c0.4-1.6-0.5-3.1-2-3.6c-2.8-0.9-4.7,1.3-5.3,3.8c-0.9,3.7,0.5,7.7,2.4,10.8
				c3,4.9,11.5,14.4,16.2,5.6c3.4-6.2-3.9-15.7-9.5-18.2c-2.3-1-4.8-0.3-5.8,2.1c-1.4,3.5,1.7,5.8,4.6,6.8c1.1,0.4,2.8-0.2,3.3-1.3
				c2.1-4.5,0.3-9.5-4.3-11.5c-5.5-2.4-12.3,1-16.3,5c-3.8,3.8-5.7,10-2.7,14.9c2.4,4,8.1,5.7,12.1,3.1c3-2,4.3-8.1-0.4-8.9
				c-5.3-0.9-6.7,7.1-5.3,10.7c4.9,12.6,24.5,1.2,19.4-9.3c-1.8-3.6-7.3-4.6-9.7-1c-2.4,3.7,1.3,9.2,5.5,9c4.8-0.2,5.8-6.5,2.7-9.3
				c-3.8-3.5-10.3-1.9-13.2,2c-2.6,3.5-1.4,9.9,3.9,9.6c4.9-0.3,6.2-6.4,4.3-10c-5.7-10.5-20,4-9.5,9.4c4,2.1,10.9-0.3,9.6-5.8
				c-1.4-5.6-9.8-5.3-13.6-2.6c-4.9,3.5-5.4,11.5-0.8,15.5c2.2,1.8,4.6,2,7.2,1.1c4.5-1.5,8.9-4.1,13.3-6.2c-1.2-1.5-2.3-3-3.5-4.6
				c-3.5,3-7.2,4.8-11.7,5.8c-3.1,0.7-2.4,4.6,0,5.6c4.9,2.1,10,0.8,13.8-2.8C106.5,839.9,102.4,835.8,99.7,838.4L99.7,838.4z"/>
		</g>
	</g>
	<g>
		<g>
			<path class="st3" d="M71.3,802.7c-4.5,3.5-6.4,9-7.4,14.5c-0.5,2.7-1,5.5-0.2,8.2c0.9,2.9,3.1,4.7,3.8,7.7c0.5,1.9,0.5,3.9,2,5.4
				c0.8,0.8,1.9,0.9,2.7,1.5c1.6,1.1,1.5,2,2.2,3.7c0.7,1.8,1.8,3.1,3.5,4c1.9,1.1,6,0.9,7.2,2.8c0.8,1.3,2.7,1.9,4,1
				c1.2-0.8,4,0.7,5.5,0.6c1.6-0.1,2.8-0.8,3.9-2c2.5-2.8-1.6-6.9-4.1-4.1c-0.6,0.7-3.8-0.7-4.7-0.7c-1.4,0-2.4,0.4-3.5,1.1
				c1.3,0.3,2.6,0.7,4,1c-2.2-3.6-5.2-2.9-8.4-4.6c-2.4-1.2-2-3.5-3.2-5.5c-1.2-1.8-2.7-1.7-4-2.9c-1.6-1.4-1.1-3.4-1.8-5.4
				c-0.8-2.4-3.2-4.2-3.6-6.8c-0.7-5.1,2.4-12.6,6.4-15.7C78.4,804.5,74.2,800.4,71.3,802.7L71.3,802.7z"/>
		</g>
	</g>
	<g>
		<g>
			<path class="st4" d="M84.1,807.2c1,3.1,3.2,5.4,6.6,5.6c2.5,0.2,3,0.7,5.2,2.1c1.6,1,7.5,2.4,7.1,4.8c-0.2,1.4,0.3,3.3,2,3.6
				c7.1,1.1-1.3,15-1.9,18.5c-0.7,3.6,4.9,5.2,5.6,1.5c0.5-2.9,2.2-5.1,3.2-7.8c1-2.7,1.3-5.6,1.5-8.4c0.2-4.6-1.9-8.5-6.8-9.3
				c0.7,1.2,1.3,2.4,2,3.6c0.6-4.3-1.4-7.3-5.2-9.3c-2.3-1.2-4.2-2.2-6.3-3.6c-1.3-0.9-7.3-2.1-7.5-2.7
				C88.6,802.2,83,803.7,84.1,807.2L84.1,807.2z"/>
		</g>
	</g>
	<g>
		<g>
			<path class="st5" d="M105.9,848.7c3.9,5.6,7.6,11.2,11.3,17c2,3.1,7,0.2,5-2.9c-3.7-5.7-7.4-11.4-11.3-17
				C108.8,842.8,103.7,845.7,105.9,848.7L105.9,848.7z"/>
		</g>
	</g>
	<g>
		<g>
			<path class="st6" d="M97.7,852.1c4.4,6.7,8.9,13.4,13.3,20c2.1,3.1,7.1,0.2,5-2.9c-4.4-6.7-8.9-13.4-13.3-20
				C100.7,846.1,95.7,849,97.7,852.1L97.7,852.1z"/>
		</g>
	</g>
</g>
<g>
	<g>
		<g>
			<path class="st1" d="M261.7,673.1c0.4-4.8,0.8-9.6,1.2-14.4c0.4-4.4-0.1-10,1.2-14.2c-0.7,0.7-1.3,1.3-2,2
				c1.2,0.1,2.4,0.2,3.7,0.4c-1-1-1.9-1.9-2.9-2.9c-1,9.6-2,19.3-3,28.9c-0.4,3.7,5.4,3.7,5.8,0c1-9.6,2-19.3,3-28.9
				c0.2-1.7-1.5-2.8-2.9-2.9c-1.8-0.2-3.4-0.5-5.2-0.2c-1,0.2-1.7,1.1-2,2c-1.4,4.1-0.9,9.5-1.3,13.8c-0.4,5.4-0.9,10.9-1.3,16.3
				C255.6,676.8,261.4,676.8,261.7,673.1L261.7,673.1z"/>
		</g>
	</g>
	<g>
		<g>
			<path class="st2" d="M260.9,638.9c-0.7,0.1-7.8,0.8-5.7-2.1c0.8-1.1,0.3-2.6-0.5-3.5c-5.7-6.5-5.5-18.6-1.6-26
				c1.9-3.8,6.3-6,10.4-6.9c7-1.6,7.5,3.6,9,8.6c0.8,2.6,1.2,6.3,3.1,8.4c0.7,0.7,1.7,1,2.4,1.7c2.4,1.9,3,4.4,2.9,7.3
				c-0.2,4.6-1.7,10.9-6.4,12.4c-4.1,1.3-8.6,1.5-12.9,1.3c-3.7-0.2-3.7,5.6,0,5.8c5.9,0.2,13.2,0,18.3-3.2c4.6-2.9,6-9.4,6.6-14.4
				c0.6-4.9-0.3-10.2-4.4-13.4c-1.1-0.8-1.8-1.1-2.5-2.2c-0.9-1.3-1-3.6-1.5-5.1c-0.8-2.8-1.5-5.9-3-8.5c-2.9-5.1-7.9-5.8-13.1-4.1
				c-4.9,1.6-10.1,3.6-13,8.1c-6.2,9.8-6.1,25.6,1.7,34.5c-0.2-1.2-0.3-2.3-0.5-3.5c-1.9,2.6-1.4,5.9,0.7,8.3
				c2.5,2.9,6.6,2.8,10.1,2.4C264.5,644.3,264.6,638.5,260.9,638.9L260.9,638.9z"/>
		</g>
	</g>
	<g>
		<g>
			<path class="st2" d="M266.3,639.3c-3.3,0.2-5.7-1.1-7.2-4c-1.3,1.3-2.6,2.6-4,4c5,2.5,10.1,3.8,15.6,3.7c3.2,0,4-4.8,0.8-5.7
				c-3.6-0.9-7.4-1.6-10.9-2.9c-1.9-0.7-3.7-0.9-3.3-3.3c0.4-2.5,3-3.4,5.1-2.8c1.1,0.2,2,0.8,2.6,1.9c0-0.8,0.1-1.6,0.1-2.5
				c0.6-0.3,6,8.7,6.8,5.5c-0.4,1.3-4.5,1.8-5.3,1.8c-3.7-0.1-6.6-6.9-1-6.4c-0.8-0.5-1.7-1-2.5-1.4c-3.8-6.2-0.4-10.4,6.4-10.1
				c2.4,0.1,13.2,4.2,6.5,7.3c1.3,0.3,2.6,0.7,4,1c-1.2-0.1-2.4-0.3-3.5-0.4c0.2,0.9,0.3,1.8,0.5,2.8c0.1,1.2,0.2,2.4,0.1,3.6
				c0,0.8,0.1,3.5-0.5,4.1c-0.8,0-1.7,0-2.5,0c0-0.7-0.1-1.3-0.1-2c-0.3-1.8,0.4-11.1,3.4-10.9c-0.8-0.5-1.7-1-2.5-1.4
				c0.1,0.2,0.2,0.3,0.3,0.5c0.3-1.3,0.7-2.6,1-4c-3,2.1-4.1-2.2-4.2-4.1c-1.8,0.5-3.6,1-5.4,1.5c2.3,3.3-1.9,8.5-5.6,6.1
				c-1.5-0.1-1.7-0.6-0.5-1.3c0.7-1.1,1-1.1,0.7,0.1c-0.1,1.2-0.1,1.2-0.1-0.1c-0.2-1.2,0.1-2.4,0.9-3.5c-0.8,0.5-1.7,1-2.5,1.4
				c-0.9,0-1.9,4.4-2.3,5c-0.6,1.1-1.5,2-2.6,2.6c-1.4,0.1-1.1-0.6,0.9-2.2c3.2,1.1,5-3.7,2.2-5.3c-2-1.2-1.9-8.1-0.1-9.2
				c2-1,3.1-0.4,3.3,1.8c-1.1,0.6-1.7,1.6-1.7,2.9c0.8-0.5,1.7-1,2.5-1.4c1.3,0.3,1.3-0.2,0.2-1.6c1.9,0.3,3.8,0.5,5.7,0.8
				c0.2-1.6,0.8-5.1,2.6-6c0.7-1.1,1.1-0.9,1.2,0.8c1.5-0.2,2.1-1,1.9-2.4c-1.9,0.3-3.8,0.5-5.7,0.8c0.1,0.9,0.2,1.7,0.3,2.6
				c1.3,1.5,1.5,1.4,0.8-0.1c0-1.7-0.7-3.3-0.6-5.1c-1.2,0.9-2.4,1.9-3.7,2.8c-0.7-1-1.2-2-1.4-3.2c-0.5-2-3.5-3-4.8-1.3
				c-4.2,5.4-9.3,12.2-10.5,19.1c-1,6.2,3.6,9.3,9,10.4c-0.4-1.6-0.9-3.2-1.3-4.8c-3.6,4.3-4.3,9.2-4.5,14.6c1.6-0.7,3.3-1.4,4.9-2
				c-6-6.2-5.1-15.2-4.3-23.1c0.4-3.7-5.4-3.7-5.8,0c-1,9.7-1.2,19.8,6,27.2c1.8,1.9,4.8,0.4,4.9-2c0.2-3.7,0.3-7.5,2.9-10.5
				c1.3-1.5,1-4.4-1.3-4.8c-2.5-0.5-5-0.7-4.6-4.9c0.1-1.5,1.8-4.1,2.5-5.5c1.7-3.3,3.8-6.4,6.1-9.4c-1.6-0.4-3.2-0.9-4.8-1.3
				c1,4.2,5.3,8.3,9.8,5.6c4.3-2.6,2.6-7.9-1.3-9.5c-1.9-0.8-3.6,1.1-3.7,2.8c-0.3,3.9,0.9,12.7,6.3,13c5.8,0.3,5.2-8.3,4.5-11.9
				c-0.7-3.5-5.3-2.2-5.7,0.8c-0.5,3.8,1.1,9,6,8.2c4.2-0.7,4.4-5.2,3.2-8.5c-1.3-3.6-4.6-6-8.4-4.2c-4.2,2.1-5.9,7.8-6.4,12.1
				c-0.4,3.4,4.7,3.7,5.7,0.8c1.6-4.8-2.4-11.8-7.9-8c-3.6,2.4-4.5,11.3-0.2,13.6c5.9,3.1,7.1-6.7,5.1-10c-2.7-4.4-8.7-3.6-10.2,1.3
				c-1.4,4.7,1.4,11.3,7.2,9.6c5.5-1.7,6.6-8.8,3.4-13c-3.4-4.4-9.7-3.6-12.6,1.1c-2.9,4.7-2.5,13.6,2.6,16.6
				c0.7-1.8,1.5-3.5,2.2-5.3c-11.6-4.1-11.4,17.9-0.7,13.4c4.9-2,7.8-7.7,8.2-12.7c0.3-3.8-3-8.8-7.1-5.5
				c-3.3,2.6-3.1,10.8,0.4,13.1c4.6,3.1,8.8-2.5,9.3-6.7c1.3-11.6-17.1-9.2-13.6,2.1c4.1,13.2,26.7,2.9,18.1-9.1
				c-1.5-2.2-5.5-1.6-5.4,1.5c0.3,6.5,6.1,14.1,12.9,9.2c1.3-0.9,1.9-2.5,1-4c-4.3-7-10.7,4.2-11.5,8c-1.1,5.5-1.7,17.7,7,16.3
				c8.1-1.3,8.5-13.9,6.2-19.9c-0.9-2.4-3.2-4-5.8-2.8c-3.4,1.6-2.7,5.5-1.2,8.1c0.9,1.4,2.5,1.7,4,1c4.5-2,5.8-7.7,3.4-11.9
				c-2.9-5-9.9-6.6-15.2-6.2c-5.4,0.4-10.7,3.8-11.8,9.4c-0.9,4.8,2.6,10,7.6,10.4c3.6,0.3,8.5-4.2,4.8-7.5
				c-3.9-3.4-9.7,1.8-10.8,5.6c-3.4,12.3,17.3,16,20.9,5.3c1.4-4.1-2.7-9.4-7.2-7.3c-3.9,1.9-4.2,8.5-0.4,10.6
				c4.5,2.5,8.5-2.5,7.3-6.8c-1.5-5.1-8-7.5-12.7-5.4c-3.8,1.7-5.3,7.1-1.3,9.5c4.2,2.5,8.9-1.6,9.4-5.8c1.4-11.3-17.9-8.8-13.4,1.8
				c1.8,4.2,9.4,6.8,11.3,1.2c1.8-5.3-4.8-10.2-9.5-10.3c-5.8-0.1-10.8,5.4-10.1,11.1c1,7.5,13,8,18.7,9.5c0.3-1.9,0.5-3.8,0.8-5.7
				c-4.6,0-8.6-0.9-12.7-2.9c-2.6-1.3-5.3,1.3-4,4c2.4,4.7,7,7.3,12.2,6.9C270,644.8,270,639,266.3,639.3L266.3,639.3z"/>
		</g>
	</g>
	<g>
		<g>
			<path class="st3" d="M267.5,593.6c-6.3-0.2-11.5,3.2-16.2,7.1c-2.1,1.7-4.1,3.8-4.9,6.5c-0.9,2.9-0.6,5.2-2.1,8
				c-0.9,1.6-1.6,3.3-1.3,5.2c0.2,0.9,1.1,1.9,1.2,2.7c0.2,1.3-0.1,1.9-0.6,3.2c-0.7,2-1,3.7-0.3,5.8c0.6,1.8,4.1,4.9,3.8,6.6
				c-0.3,2,0.8,3.5,2.8,3.7c0.8,0.1,2.7,3.6,3.7,4.2c1.5,0.9,2.7,0.8,4.3,0.6c3.7-0.6,2.1-6.1-1.5-5.6c0.1,0-2.5-3.5-2.7-3.7
				c-1.2-1-2.3-1.2-3.8-1.4c0.9,1.2,1.9,2.4,2.8,3.7c0.6-3.8-1.3-5.5-3.1-8.6c-1.8-3.2,1.2-6.5,0.3-10.2c-0.4-1.7-1.5-1-0.7-3.4
				c0.2-0.7,0.9-1.4,1.2-2c0.9-1.8,1.1-3.2,1.3-5.2c0.7-6.4,9.6-11.7,15.7-11.6C271.2,599.5,271.2,593.7,267.5,593.6L267.5,593.6z"
				/>
		</g>
	</g>
	<g>
		<g>
			<path class="st4" d="M274,605.8c-1.5,3.6-0.1,6.1,2.3,8.7c1.5,1.7,6,11.3,4,13c-1.3,1-0.9,3,0,4.1c4.1,4.6-11.8,11-14.1,12.9
				c-2.9,2.4,1.2,6.5,4.1,4.1c2.4-2,5.7-2.6,8.2-4.3c2.3-1.5,4.4-3.6,6.2-5.7c2.9-3.6,2.6-7.7-0.4-11.1c0,1.4,0,2.7,0,4.1
				c3.3-2.7,3-7,1.3-10.6c-0.6-1.3-1.5-2.5-1.9-3.8c-0.4-1.2-0.2-2.6-0.7-3.8c-0.8-1.9-4.5-3.7-3.5-6
				C281,603.9,275.4,602.4,274,605.8L274,605.8z"/>
		</g>
	</g>
	<g>
		<g>
			<path class="st5" d="M264,651.7c-0.6,6.8-1.4,13.5-2.3,20.3c-0.5,3.7,5.3,3.7,5.8,0c0.9-6.7,1.6-13.5,2.3-20.3
				C270.2,647.9,264.4,648,264,651.7L264,651.7z"/>
		</g>
	</g>
	<g>
		<g>
			<path class="st6" d="M255.7,649c-0.9,8-1.8,15.9-2.7,23.9c-0.4,3.7,5.4,3.7,5.8,0c0.9-8,1.8-15.9,2.7-23.9
				C261.9,645.3,256.1,645.3,255.7,649L255.7,649z"/>
		</g>
	</g>
</g>
<g>
	<g>
		<g>
			<path class="st1" d="M238.9,172c0.4-4.8,0.8-9.6,1.2-14.4c0.4-4.4-0.1-10,1.2-14.2c-0.7,0.7-1.3,1.3-2,2c1.2,0.1,2.4,0.2,3.7,0.4
				c-1-1-1.9-1.9-2.9-2.9c-1,9.6-2,19.3-3,28.9c-0.4,3.7,5.4,3.7,5.8,0c1-9.6,2-19.3,3-28.9c0.2-1.7-1.5-2.8-2.9-2.9
				c-1.8-0.2-3.4-0.5-5.2-0.2c-1,0.2-1.7,1.1-2,2c-1.4,4.1-0.9,9.5-1.3,13.8c-0.4,5.4-0.9,10.9-1.3,16.3
				C232.8,175.7,238.6,175.7,238.9,172L238.9,172z"/>
		</g>
	</g>
	<g>
		<g>
			<path class="st2" d="M238.1,137.7c-0.7,0.1-7.8,0.8-5.7-2.1c0.8-1.1,0.3-2.6-0.5-3.5c-5.7-6.5-5.5-18.6-1.6-26
				c1.9-3.8,6.3-6,10.4-6.9c7-1.6,7.5,3.6,9,8.6c0.8,2.6,1.2,6.3,3.1,8.4c0.7,0.7,1.7,1,2.4,1.7c2.4,1.9,3,4.4,2.9,7.3
				c-0.2,4.6-1.7,10.9-6.4,12.4c-4.1,1.3-8.6,1.5-12.9,1.3c-3.7-0.2-3.7,5.6,0,5.8c5.9,0.2,13.2,0,18.3-3.2c4.6-2.9,6-9.4,6.6-14.4
				c0.6-4.9-0.3-10.2-4.4-13.4c-1.1-0.8-1.8-1.1-2.5-2.2c-0.9-1.3-1-3.6-1.5-5.1c-0.8-2.8-1.5-5.9-3-8.5c-2.9-5.1-7.9-5.8-13.1-4.1
				c-4.9,1.6-10.1,3.6-13,8.1c-6.2,9.8-6.1,25.6,1.7,34.5c-0.2-1.2-0.3-2.3-0.5-3.5c-1.9,2.6-1.4,5.9,0.7,8.3
				c2.5,2.9,6.6,2.8,10.1,2.4C241.8,143.1,241.8,137.3,238.1,137.7L238.1,137.7z"/>
		</g>
	</g>
	<g>
		<g>
			<path class="st2" d="M243.5,138.1c-3.3,0.2-5.7-1.1-7.2-4c-1.3,1.3-2.6,2.6-4,4c5,2.5,10.1,3.8,15.6,3.7c3.2,0,4-4.8,0.8-5.7
				c-3.6-0.9-7.4-1.6-10.9-2.9c-1.9-0.7-3.7-0.9-3.3-3.3c0.4-2.5,3-3.4,5.1-2.8c1.1,0.2,2,0.8,2.6,1.9c0-0.8,0.1-1.6,0.1-2.5
				c0.6-0.3,6,8.7,6.8,5.5c-0.4,1.3-4.5,1.8-5.3,1.8c-3.7-0.1-6.6-6.9-1-6.4c-0.8-0.5-1.7-1-2.5-1.4c-3.8-6.2-0.4-10.4,6.4-10.1
				c2.4,0.1,13.2,4.2,6.5,7.3c1.3,0.3,2.6,0.7,4,1c-1.2-0.1-2.4-0.3-3.5-0.4c0.2,0.9,0.3,1.8,0.5,2.8c0.1,1.2,0.2,2.4,0.1,3.6
				c0,0.8,0.1,3.5-0.5,4.1c-0.8,0-1.7,0-2.5,0c0-0.7-0.1-1.3-0.1-2c-0.3-1.8,0.4-11.1,3.4-10.9c-0.8-0.5-1.7-1-2.5-1.4
				c0.1,0.2,0.2,0.3,0.3,0.5c0.3-1.3,0.7-2.6,1-4c-3,2.1-4.1-2.2-4.2-4.1c-1.8,0.5-3.6,1-5.4,1.5c2.3,3.3-1.9,8.5-5.6,6.1
				c-1.5-0.1-1.7-0.6-0.5-1.3c0.7-1.1,1-1.1,0.7,0.1c-0.1,1.2-0.1,1.2-0.1-0.1c-0.2-1.2,0.1-2.4,0.9-3.5c-0.8,0.5-1.7,1-2.5,1.4
				c-0.9,0-1.9,4.4-2.3,5c-0.6,1.1-1.5,2-2.6,2.6c-1.4,0.1-1.1-0.6,0.9-2.2c3.2,1.1,5-3.7,2.2-5.3c-2-1.2-1.9-8.1-0.1-9.2
				c2-1,3.1-0.4,3.3,1.8c-1.1,0.6-1.7,1.6-1.7,2.9c0.8-0.5,1.7-1,2.5-1.4c1.3,0.3,1.3-0.2,0.2-1.6c1.9,0.3,3.8,0.5,5.7,0.8
				c0.2-1.6,0.8-5.1,2.6-6c0.7-1.1,1.1-0.9,1.2,0.8c1.5-0.2,2.1-1,1.9-2.4c-1.9,0.3-3.8,0.5-5.7,0.8c0.1,0.9,0.2,1.7,0.3,2.6
				c1.3,1.5,1.5,1.4,0.8-0.1c0-1.7-0.7-3.3-0.6-5.1c-1.2,0.9-2.4,1.9-3.7,2.8c-0.7-1-1.2-2-1.4-3.2c-0.5-2-3.5-3-4.8-1.3
				c-4.2,5.4-9.3,12.2-10.5,19.1c-1,6.2,3.6,9.3,9,10.4c-0.4-1.6-0.9-3.2-1.3-4.8c-3.6,4.3-4.3,9.2-4.5,14.6c1.6-0.7,3.3-1.4,4.9-2
				c-6-6.2-5.1-15.2-4.3-23.1c0.4-3.7-5.4-3.7-5.8,0c-1,9.7-1.2,19.8,6,27.2c1.8,1.9,4.8,0.4,4.9-2c0.2-3.7,0.3-7.5,2.9-10.5
				c1.3-1.5,1-4.4-1.3-4.8c-2.5-0.5-5-0.7-4.6-4.9c0.1-1.5,1.8-4.1,2.5-5.5c1.7-3.3,3.8-6.4,6.1-9.4c-1.6-0.4-3.2-0.9-4.8-1.3
				c1,4.2,5.3,8.3,9.8,5.6c4.3-2.6,2.6-7.9-1.3-9.5c-1.9-0.8-3.6,1.1-3.7,2.8c-0.3,3.9,0.9,12.7,6.3,13c5.8,0.3,5.2-8.3,4.5-11.9
				c-0.7-3.5-5.3-2.2-5.7,0.8c-0.5,3.8,1.1,9,6,8.2c4.2-0.7,4.4-5.2,3.2-8.5c-1.3-3.6-4.6-6-8.4-4.2c-4.2,2.1-5.9,7.8-6.4,12.1
				c-0.4,3.4,4.7,3.7,5.7,0.8c1.6-4.8-2.4-11.8-7.9-8c-3.6,2.4-4.5,11.3-0.2,13.6c5.9,3.1,7.1-6.7,5.1-10c-2.7-4.4-8.7-3.6-10.2,1.3
				c-1.4,4.7,1.4,11.3,7.2,9.6c5.5-1.7,6.6-8.8,3.4-13c-3.4-4.4-9.7-3.6-12.6,1.1c-2.9,4.7-2.5,13.6,2.6,16.6
				c0.7-1.8,1.5-3.5,2.2-5.3c-11.6-4.1-11.4,17.9-0.7,13.4c4.9-2,7.8-7.7,8.2-12.7c0.3-3.8-3-8.8-7.1-5.5
				c-3.3,2.6-3.1,10.8,0.4,13.1c4.6,3.1,8.8-2.5,9.3-6.7c1.3-11.6-17.1-9.2-13.6,2.1c4.1,13.2,26.7,2.9,18.1-9.1
				c-1.5-2.2-5.5-1.6-5.4,1.5c0.3,6.5,6.1,14.1,12.9,9.2c1.3-0.9,1.9-2.5,1-4c-4.3-7-10.7,4.2-11.5,8c-1.1,5.5-1.7,17.7,7,16.3
				c8.1-1.3,8.5-13.9,6.2-19.9c-0.9-2.4-3.2-4-5.8-2.8c-3.4,1.6-2.7,5.5-1.2,8.1c0.9,1.4,2.5,1.7,4,1c4.5-2,5.8-7.7,3.4-11.9
				c-2.9-5-9.9-6.6-15.2-6.2c-5.4,0.4-10.7,3.8-11.8,9.4c-0.9,4.8,2.6,10,7.6,10.4c3.6,0.3,8.5-4.2,4.8-7.5
				c-3.9-3.4-9.7,1.8-10.8,5.6c-3.4,12.3,17.3,16,20.9,5.3c1.4-4.1-2.7-9.4-7.2-7.3c-3.9,1.9-4.2,8.5-0.4,10.6
				c4.5,2.5,8.5-2.5,7.3-6.8c-1.5-5.1-8-7.5-12.7-5.4c-3.8,1.7-5.3,7.1-1.3,9.5c4.2,2.5,8.9-1.6,9.4-5.8c1.4-11.3-17.9-8.8-13.4,1.8
				c1.8,4.2,9.4,6.8,11.3,1.2c1.8-5.3-4.8-10.2-9.5-10.3c-5.8-0.1-10.8,5.4-10.1,11.1c1,7.5,13,8,18.7,9.5c0.3-1.9,0.5-3.8,0.8-5.7
				c-4.6,0-8.6-0.9-12.7-2.9c-2.6-1.3-5.3,1.3-4,4c2.4,4.7,7,7.3,12.2,6.9C247.2,143.7,247.2,137.9,243.5,138.1L243.5,138.1z"/>
		</g>
	</g>
	<g>
		<g>
			<path class="st3" d="M244.7,92.5c-6.3-0.2-11.5,3.2-16.2,7.1c-2.1,1.7-4.1,3.8-4.9,6.5c-0.9,2.9-0.6,5.2-2.1,8
				c-0.9,1.6-1.6,3.3-1.3,5.2c0.2,0.9,1.1,1.9,1.2,2.7c0.2,1.3-0.1,1.9-0.6,3.2c-0.7,2-1,3.7-0.3,5.8c0.6,1.8,4.1,4.9,3.8,6.6
				c-0.3,2,0.8,3.5,2.8,3.7c0.8,0.1,2.7,3.6,3.7,4.2c1.5,0.9,2.7,0.8,4.3,0.6c3.7-0.6,2.1-6.1-1.5-5.6c0.1,0-2.5-3.5-2.7-3.7
				c-1.2-1-2.3-1.2-3.8-1.4c0.9,1.2,1.9,2.4,2.8,3.7c0.6-3.8-1.3-5.5-3.1-8.6c-1.8-3.2,1.2-6.5,0.3-10.2c-0.4-1.7-1.5-1-0.7-3.4
				c0.2-0.7,0.9-1.4,1.2-2c0.9-1.8,1.1-3.2,1.3-5.2c0.7-6.4,9.6-11.7,15.7-11.6C248.5,98.4,248.4,92.6,244.7,92.5L244.7,92.5z"/>
		</g>
	</g>
	<g>
		<g>
			<path class="st4" d="M251.2,104.7c-1.5,3.6-0.1,6.1,2.3,8.7c1.5,1.7,6,11.3,4,13c-1.3,1-0.9,3,0,4.1c4.1,4.6-11.8,11-14.1,12.9
				c-2.9,2.4,1.2,6.5,4.1,4.1c2.4-2,5.7-2.6,8.2-4.3c2.3-1.5,4.4-3.6,6.2-5.7c2.9-3.6,2.6-7.7-0.4-11.1c0,1.4,0,2.7,0,4.1
				c3.3-2.7,3-7,1.3-10.6c-0.6-1.3-1.5-2.5-1.9-3.8c-0.4-1.2-0.2-2.6-0.7-3.8c-0.8-1.9-4.5-3.7-3.5-6
				C258.2,102.8,252.6,101.3,251.2,104.7L251.2,104.7z"/>
		</g>
	</g>
	<g>
		<g>
			<path class="st5" d="M241.3,150.5c-0.6,6.8-1.4,13.5-2.3,20.3c-0.5,3.7,5.3,3.7,5.8,0c0.9-6.7,1.6-13.5,2.3-20.3
				C247.4,146.8,241.6,146.8,241.3,150.5L241.3,150.5z"/>
		</g>
	</g>
	<g>
		<g>
			<path class="st6" d="M232.9,147.8c-0.9,8-1.8,15.9-2.7,23.9c-0.4,3.7,5.4,3.7,5.8,0c0.9-8,1.8-15.9,2.7-23.9
				C239.1,144.1,233.3,144.2,232.9,147.8L232.9,147.8z"/>
		</g>
	</g>
</g>
<g>
	<g>
		<g>
			<path class="st1" d="M357.7,934.3c1.3-4.6,2.6-9.3,3.9-13.9c1.2-4.2,1.7-10,3.9-13.8c-0.8,0.5-1.7,1-2.5,1.4
				c1.2,0.3,2.4,0.6,3.5,1c-0.7-1.2-1.3-2.4-2-3.6c-2.8,9.3-5.6,18.5-8.4,27.8c-1.1,3.6,4.5,5.1,5.6,1.5c2.8-9.3,5.6-18.5,8.4-27.8
				c0.5-1.5-0.6-3.1-2-3.6c-1.7-0.5-3.3-1.2-5.1-1.2c-1,0-2,0.6-2.5,1.4c-2.1,3.8-2.8,9.1-3.9,13.3c-1.5,5.3-2.9,10.5-4.4,15.8
				C351.1,936.3,356.7,937.8,357.7,934.3L357.7,934.3z"/>
		</g>
	</g>
	<g>
		<g>
			<path class="st2" d="M362.8,900.2c-0.3,0-7.1-0.7-4.8-2.9c0.9-0.9,1.1-2.4,0.5-3.5c-4.3-7.4-2.1-18.7,2.8-25.4
				c2.7-3.8,6.4-4.4,10.7-5.2c3.3-0.6,6.1-0.6,7.5,2.9c0.7,1.7,0.6,4,0.8,5.8c0.3,3-0.1,7,1.5,9.8c0.5,0.9,1.4,1.4,2,2.1
				c1.9,2.2,2.3,4.5,1.7,7.3c-0.7,3.4-3.1,9.5-6.6,11.1c-4.1,1.8-10.8,0.3-14.9-0.7c-3.6-0.9-5.2,4.7-1.5,5.6
				c5.9,1.4,13.5,2.7,19.3,0.1c4.7-2.1,7-7.8,8.6-12.4c1.6-4.7,1.8-10.3-1.6-14.3c-1.2-1.4-1.8-1.7-2.3-3.4
				c-0.5-1.6-0.3-3.6-0.5-5.3c-0.3-2.9-0.4-5.9-1.4-8.6c-1.8-5-6.3-6.7-11.3-6.2c-5.3,0.6-11,1.4-14.8,5.4
				c-7.9,8.3-11,24.1-5.1,34.2c0.2-1.2,0.3-2.3,0.5-3.5c-2.4,2.3-2.8,5.8-1,8.6c2.1,3.4,6.3,3.9,9.9,4.2
				C366.5,906.3,366.5,900.5,362.8,900.2L362.8,900.2z"/>
		</g>
	</g>
	<g>
		<g>
			<path class="st2" d="M368.1,901.6c-3-0.4-4.9-2.3-5.7-5.1c-1.6,0.9-3.2,1.9-4.8,2.8c4.4,3.4,9.1,5.7,14.6,6.7
				c3,0.5,5.4-3.8,2.2-5.3c-2.5-1.2-5.1-2.4-7.6-3.7c-0.9-0.4-3.7-1.2-4.2-2c-1.7-2.9,0.2-6.5,3.8-5.1c1.5,0.6,2.3,1.9,3.7,2.9
				c1.3,1.2,2.8,1.9,4.6,2c-0.2,0.9-0.4,1.7-0.6,2.6c-0.5,0.5-2.6,0.4-3.3,0.3c-1.9,0.2-3-0.6-3.5-2.2c-1.9-2-1-3.4,2.6-4.5
				c-0.7-0.7-1.3-1.3-2-2c-2.5-6.5,1.6-10,8-8.5c1.7,0.4,3.4,1,4.9,2.1c1.7,1.3,4.7,5.3,0.6,6.3c1.2,0.7,2.4,1.3,3.6,2
				c-1.2-0.5-2.3-1-3.5-1.5c0,0.6,0,1.2,0,1.8c-0.5,1.3-0.2,3.2-0.5,4.6c-0.2,1-0.5,3.3-1.3,3.9c-0.9,0.2-1.8,0.4-2.6,0.6
				c0.1-0.9,0.2-1.7,0.3-2.6c0.3-1.9,0.7-3.7,1.5-5.5c0.4-0.9,2.4-5.2,3.8-4.9c-0.7-0.7-1.3-1.3-2-2c0.1,0.2,0.1,0.4,0.2,0.6
				c0.4-1.1,0.9-2.2,1.3-3.3c-2.2,1-3.1-3.6-2.9-4.9c-1.8,0.2-3.5,0.5-5.3,0.7c2.9,6.3-13,7.6-5.2-0.1c-0.9,0.2-1.9,0.5-2.8,0.7
				c-0.7-0.1-1.7,2.8-2.3,3.6c-0.4,0.7-0.9,1.2-1.5,1.7c-1.7,1.6-2,1.4-1.1-0.8c2.8,1.6,6-2.3,3.5-4.6c-1.5-1.3-0.9-4.8-0.3-6.3
				c0.5-2.9,2.1-3.3,4.7-1.1c-1.3,0.3-1.6,0.9-0.9,2c0.8,0.5,1.7,1,2.5,1.4c1.2-4,1-5-0.5-3c1.8,0.7,3.5,1.5,5.3,2.2
				c0.2-0.7,3-7,4.2-6.2c0.5,0.8,0.6,1.6,0.5,2.5c1.4-0.4,2.1-1.3,2.3-2.7c-1.9-0.3-3.8-0.5-5.7-0.8c0,1.3,0.1,4.7-1.5,5.4
				c1,0,2,0,2.9,0c-2-1.1-0.9-5.8-0.5-7.4c-1.4,0.6-2.8,1.2-4.3,1.7c-0.2-1-0.4-2-0.6-3.1c-0.2-2.6-3-3.7-4.9-2
				c-5,4.3-11.6,10.5-13.7,16.9c-1.9,6,2.6,9.5,7.6,11.6c-0.4-1.6-0.9-3.2-1.3-4.8c-4.1,3.2-5.6,8-6.7,12.9c1.8-0.2,3.5-0.5,5.3-0.7
				c-4.8-7.3-2.4-15.7,0-23.5c1.1-3.6-4.5-5.1-5.6-1.5c-2.8,9.3-5.1,19.3,0.6,27.9c1.3,2,4.7,1.8,5.3-0.7c1-4,1.9-7.7,5.3-10.3
				c1.9-1.5,0.5-4.1-1.3-4.8c-2.6-1.1-4.1-2.3-3.1-5.3c0.6-2,2.7-4.1,4-5.6c2.3-2.9,4.9-5.4,7.7-7.9c-1.6-0.7-3.3-1.4-4.9-2
				c0.3,4.5,3.9,9.8,9.1,7.4c4-1.9,3.8-7.2,0.2-9.3c-1.6-0.9-3.8-0.1-4.3,1.7c-1,3.8-1.7,12.6,3.5,14.1c5.6,1.6,6.9-6.9,6.9-10.5
				c0-3.4-4.7-3.8-5.7-0.8c-1.2,3.6-1,8.7,3.8,9.3c4.4,0.6,5.7-3.9,5.2-7.4c-0.5-3.7-3.2-7-7.3-6c-4.5,1.1-7.4,6.5-8.7,10.5
				c-1,3.1,3.7,5.1,5.3,2.2c2.5-4.4,0.4-12.1-6-9.6c-4.1,1.6-6.7,10-3.1,13.3c5,4.4,8.4-4.8,7.1-8.6c-1.8-5.3-8.3-5.3-10.5-0.3
				c-2.1,4.6,0,11.3,6,10.1c5.6-1.1,7.8-8.3,4.8-12.8c-7.6-11.5-21.9,8.1-12.9,16.2c1.2-1.5,2.3-3,3.5-4.6
				c-11.1-6.5-14.7,15.9-2.9,12.8c5-1.3,8.8-6.1,10.1-11c1-3.7-1.7-9.1-6.2-6.5c-3.6,2.1-5,10.1-1.9,13c4.2,3.8,9.4-1.3,10.5-5.4
				c2.8-11.1-16-11.2-13.8,0.5c2.5,13.3,25.4,7,19.2-6.6c-1-2.2-4.9-1.7-5.3,0.7c-1,7,3.4,15.1,11.4,11.4c1.1-0.5,1.7-2.2,1.3-3.3
				c-2.9-7.7-11.1,1.5-12.8,5.3c-2.2,5.1-5.1,16.3,3.1,17.5c8.7,1.2,11.4-11.8,10.5-18.1c-1.1-7.3-10.4-3.7-7.9,3.4
				c0.5,1.5,1.9,2.4,3.6,2c4.8-1.2,7.3-6.2,5.8-10.9c-1.8-5.5-8.3-8.4-13.6-9.1c-5.4-0.7-11.3,1.5-13.5,6.8
				c-1.9,4.5,0.3,10.3,5.1,11.8c3.5,1.1,9.3-2.2,6.4-6.3c-3-4.3-9.8-0.3-11.6,3.1c-5.8,11.1,12.6,18.9,19,10
				c2.6-3.6,0.3-9.9-4.7-9.3c-4.3,0.6-6.3,6.7-3.6,9.9c3.2,3.8,8.9,0.4,9.1-3.9c0.3-5.4-5.7-9.5-10.6-8.8c-4.1,0.6-7.7,5.2-4.4,8.9
				c3.4,3.8,9.3,0.7,10.7-3.3c3.9-10.9-15.5-12.6-13.5-1.3c0.8,4.4,6.6,8.2,10.3,4.4c3.9-4.1-1.1-10.7-5.3-12.2
				c-5.7-2.1-12.5,1.8-13.3,7.9c-1,8.1,10.7,10.7,16.3,13.4c0.7-1.8,1.5-3.5,2.2-5.3c-4.4-0.8-8.4-2.4-12-5.2
				c-2.1-1.6-5.7-0.2-4.8,2.8c1.6,5.5,5.7,8.7,11.3,9.3C371.8,907.9,371.7,902.1,368.1,901.6L368.1,901.6z"/>
		</g>
	</g>
	<g>
		<g>
			<path class="st3" d="M378.7,857.2c-6.2-1.4-11.9,0.7-17.3,3.7c-2.1,1.2-4.2,2.5-5.6,4.5c-1.7,2.4-1.6,5.2-3.3,7.5
				c-1.2,1.6-2.7,2.8-3.1,4.9c-0.5,2.5,0.5,4.3-0.5,6.7c-0.8,2-1.8,3.1-1.5,5.5c0.3,2.5,3.2,5.7,2.3,8.1c-0.5,1.5,0.6,3.1,2,3.6
				c1.1,0.3,2,3.9,2.9,4.8c1.2,1.2,2.5,1.5,4.1,1.5c3.7,0.1,3.7-5.7,0-5.8c-0.4,0-1.8-3.6-2.1-4c-1-1.2-1.9-1.7-3.4-2.2
				c0.7,1.2,1.3,2.4,2,3.6c0.5-1.6,0.6-3,0.1-4.6c-0.5-1.7-2.3-3.7-2.3-5.5c0-1.9,2.1-3.5,2.6-5.3c0.6-2-0.4-2.8-0.4-4.6
				c0-1.7,1.5-2.7,2.5-4.1c1.4-1.9,1.2-3.6,2.1-5.7c2.2-5.2,12.2-8.2,17.1-7.1C380.7,863.5,382.3,858,378.7,857.2L378.7,857.2z"/>
		</g>
	</g>
	<g>
		<g>
			<path class="st4" d="M382.6,870.1c-1.8,2.8-1.8,6,0.1,8.7c1.4,2,1.3,2.5,1.5,5c0.2,2.1,3.1,7.4,0.5,8.8c-1.4,0.7-1.8,2.6-1,4
				c3.3,5.6-13.4,8.6-16,10c-3.3,1.8-0.3,6.8,2.9,5c2.8-1.5,6-1.5,8.9-2.7c2.6-1,5-2.6,7.2-4.3c3.5-2.9,4.3-7,2-10.9
				c-0.3,1.3-0.7,2.6-1,4c3.5-1.9,4.3-5.6,3.7-9.4c-0.5-2.9-0.9-5.8-1.3-8.6c-0.3-1.9-3.6-4.9-2.4-6.6
				C389.6,869.9,384.6,867,382.6,870.1L382.6,870.1z"/>
		</g>
	</g>
	<g>
		<g>
			<path class="st5" d="M364.1,913.2c-1.9,6.5-3.9,13-6,19.5c-1.2,3.6,4.4,5.1,5.6,1.5c2.1-6.5,4.1-12.9,6-19.5
				C370.8,911.1,365.2,909.6,364.1,913.2L364.1,913.2z"/>
		</g>
	</g>
	<g>
		<g>
			<path class="st6" d="M356.4,909c-2.4,7.7-4.8,15.3-7.2,23c-1.1,3.6,4.5,5.1,5.6,1.5c2.4-7.7,4.8-15.3,7.2-23
				C363.1,907,357.5,905.4,356.4,909L356.4,909z"/>
		</g>
	</g>
</g>
<g>
	<g>
		<g>
			<path class="st1" d="M46.2,522.9c-1.7-4.5-3.4-9-5.1-13.5c-1.5-4-4.6-9.1-5.1-13.3c-0.5,0.8-1,1.7-1.4,2.5c1.1-0.6,2.3-1,3.4-1.4
				c-1.2-0.7-2.4-1.3-3.6-2c3.2,9.1,6.5,18.3,9.7,27.4c1.2,3.5,6.8,2,5.6-1.5c-3.2-9.1-6.5-18.3-9.7-27.4c-0.5-1.4-2-2.6-3.6-2
				c-1.6,0.6-3.4,0.9-4.8,2c-0.8,0.6-1.6,1.5-1.4,2.5c0.5,4.4,3.1,9,4.6,13.1c1.9,5.1,3.9,10.2,5.8,15.3
				C41.9,527.9,47.5,526.4,46.2,522.9L46.2,522.9z"/>
		</g>
	</g>
	<g>
		<g>
			<path class="st2" d="M30.4,492c-0.3,0.2-6.5,4-5.9,1c0.2-1.1-0.1-2.7-1.3-3.3c-7.9-3.4-12.7-13.2-13.1-21.5c-0.2-5,2-7.6,5.3-11
				c2.6-2.8,4.4-4.9,8.4-2c1.5,1.1,2.7,2.9,3.9,4.2c1.9,2.2,3.9,5.5,6.7,6.6c1.3,0.5,2.6,0.3,3.8,0.7c2.4,0.8,3.7,2.7,4.7,4.9
				c1.9,4.1,3.3,10.5,0.1,14c-3,3.3-7.6,5.5-11.7,7.2c-3.4,1.5-0.5,6.4,2.9,5c5.2-2.2,11.5-5.4,14.7-10.2c3.1-4.7,1.7-11.4,0-16.4
				c-1.5-4.4-4.5-8.7-9.2-10c-3.6-1-4.9-2.3-7.4-5.2c-2.1-2.4-4.2-5.1-7-6.7c-4.5-2.7-9-1.2-12.7,2.2C9,455,5.1,459,4.4,464.3
				c-1.5,11.2,5.2,25.8,15.8,30.4c-0.4-1.1-0.9-2.2-1.3-3.3c-0.6,3.3,0.7,6.3,3.9,7.7c3.7,1.6,7.4-0.2,10.5-2.2
				C36.5,495,33.6,490,30.4,492L30.4,492z"/>
		</g>
	</g>
	<g>
		<g>
			<path class="st2" d="M35.5,490.1c-2.9,1.6-5.7,1.2-8.2-0.8c-0.5,1.8-1,3.6-1.5,5.4c5.6,0.1,10.7-1,15.7-3.5
				c3.1-1.5,0.8-5.9-2.2-5.3c-2.7,0.5-13.9,4.3-15.3,0.8c-0.8-2,1.3-4.7,3.1-5.1c2.6,0.2,5.1,0,7.6-0.6c5.3-0.9,6,0.1,2.1,3.1
				c-1,1-2.2,1.8-3.5,2.3c-3,0.8-4.6-0.5-4.7-3.8c-2.1-3.2-6.9-5.3-4.7-9.8c1.3-2.6,4.2-4,6.8-4.8c1.8-0.5,11.4-0.6,7.7,3.9
				c1.2-0.2,2.3-0.3,3.5-0.5c-2.7,0.7-3.3,1.8-1.8,3.3c0.5,0.8,1,1.7,1.5,2.6c0.3,0.7,3.2,6.8-0.7,5.6c-0.6-0.2-2.3-4.9-2.3-5.1
				c-0.7-2-0.3-6.3-2.2-7.6c-0.3-1.3-0.7-2.6-1-4c-2,3.6-4.9-1.1-5.6-2.3c-1.3,1.3-2.6,2.6-4,4c6.4,3.6-2.7,10.6-5.1,7.1
				c-2.2-3,2.6-3,1.9-0.5c-0.2-2.2-0.8-2.5-1.7-0.9c-1.2,0.7-1.4,1.8-0.6,3.2c0.1,1.2,0,2.4-0.3,3.6c-1.3,3.4-1.8,3.3-1.5-0.5
				c2.9-0.3,4.3-5.2,0.8-5.7c-1.7-0.6-2.8-1.7-3.5-3.2c-1.8-1.8-1.5-3.1,0.8-3.7c5.5-3.7-0.8,2.1,2.3,0.3c1,0,2,0,2.9,0
				c-0.9-0.8-1.8-1.7-2.6-2.6c1.9-0.3,3.8-0.5,5.7-0.8c-0.5-1.7-1.5-4-0.7-5.6c-0.3-1.4,0.1-1.7,1.1-1c1.5,0.9,2,0,1.5-2.6
				c-1.8,0.7-3.5,1.5-5.3,2.2c0.2,0.2,3.1,5.5,2.7,2.7c-0.1-1.1-2.5-3.2-2.9-4.4c-0.9,1.2-1.9,2.4-2.8,3.7c-0.8-0.8-1.5-1.7-2.3-2.5
				c-1.4-1.6-4.4-0.8-4.8,1.3c-1.5,6.7-3.4,15.8-0.9,22.4c2.1,5.6,7.6,5.8,12.6,4.6c-1.2-1.2-2.4-2.4-3.6-3.6c-1.3,5.1,0,9.7,2,14.5
				c1.2-1.2,2.4-2.4,3.6-3.6c-7.8-2.9-10.9-11.3-13.4-18.5c-1.2-3.5-6.8-2-5.6,1.5c3.4,9.5,7.4,18.8,17.5,22.6
				c1.9,0.7,4.4-1.6,3.6-3.6c-1.5-3.7-3.1-7.3-2-11.4c0.6-2.2-1.4-4.1-3.6-3.6c-2.3,0.6-4.4,1.3-5.9-1.8c-0.6-1.3-0.3-4.4-0.2-5.7
				c0.1-4.2,0.7-8.3,1.6-12.3c-1.6,0.4-3.2,0.9-4.8,1.3c2.8,3.3,8.4,5,11.2,0.5c2.4-3.8-0.8-8.1-4.9-7.9c-1.7,0.1-3.5,1.8-2.8,3.7
				c1.5,3.9,5.4,10.3,10.4,9.7c6.5-0.8,2.5-9.5,0.4-12.5c-1.8-2.5-6.4-1.1-5.3,2.2c1.1,3.5,3.8,7.4,8.1,5.8c4-1.5,3.3-5.7,1.2-8.4
				c-2.2-2.8-5.7-4.7-9-2.5c-4.3,2.9-3.5,10.1-2.1,14.3c0.9,2.9,6.1,2.6,5.7-0.8c-0.5-4.8-5.9-10.2-10.1-5
				c-3.1,3.7-0.1,12.1,4.7,12.9c6.2,1.1,4.6-7.1,2.2-9.8c-3.5-4-10.1-2.6-10.1,3.1c-0.1,4.9,5,10.5,9.9,7.3c4.6-3,3.5-9.7-0.2-12.8
				c-4.3-3.6-10.3-1.7-12.1,3.5c-1.9,5.6,2.3,14.8,8.5,15.7c0.3-1.9,0.5-3.8,0.8-5.7c-12.7,1.3-3.4,20.3,4.3,12.8
				c3.9-3.8,4.2-10.8,2.2-15.7c-1.5-3.5-6.8-6.3-8.8-1.5c-1.6,3.9,2,11,6.3,11.5c4.8,0.6,6.5-5.2,5.7-9c-2.6-11.7-19.1-3.7-12.3,5.7
				c8.5,11.8,26.8-7.5,13-15.2c-2.6-1.4-5.3,1.4-4,4c3.1,5.9,11.6,9.6,15.6,2.3c0.8-1.4,0.3-3.1-1-4c-2.5-1.6-4.8,0-6.1,2.3
				c-1.8,3.4-1.5,7.6-0.4,11.1c1.6,5.5,7.5,16.9,14.3,9.6c4.8-5.2,0.2-16.1-4.6-20.1c-1.9-1.6-4.6-1.5-6.1,0.5c-2.3,3,0.2,6,2.7,7.7
				c1,0.7,2.7,0.5,3.5-0.5c3.2-3.8,2.7-9.1-1.3-12.2c-4.8-3.7-12.2-2.1-17,0.7c-5.1,3-8.4,9.2-5.9,14.9c1.8,4,7,6.5,11.1,4.5
				c3.3-1.5,5.3-7.6,0.5-8.7c-5-1.2-7.9,6.2-7.1,10c2.7,12.9,24,5.8,21-5.2c-1-3.9-6.5-6.1-9.4-2.8c-2.8,3.2-0.4,9.3,3.8,9.9
				c4.9,0.6,6.9-5.4,4.3-8.9c-3.1-4-9.6-4-13.3-0.7c-3.3,3-3.3,9.4,2,10.1c4.8,0.6,7.5-5.2,6.2-9.2c-3.6-11.4-20.6,0.3-10.9,7.6
				c3.6,2.7,11.1,1.3,10.2-4.4c-0.9-5.5-8.9-6.9-13.1-4.9c-5.2,2.5-7.3,9.7-4,14.5c1.5,2.2,3.7,3.1,6.3,3c4.8-0.2,10-1.8,14.8-2.7
				c-0.7-1.8-1.5-3.5-2.2-5.3c-4.1,2-8.2,2.8-12.8,2.7c-3.2-0.1-3.6,3.8-1.5,5.4c4.2,3.2,9.5,3.4,14,0.8
				C41.6,493.2,38.7,488.2,35.5,490.1L35.5,490.1z"/>
		</g>
	</g>
	<g>
		<g>
			<path class="st3" d="M17,448.3c-5.3,2.3-8.4,7.1-10.9,12.1c-1.1,2.2-2.2,4.6-2.3,7.2c-0.1,3.3,1.9,5.7,1.8,9
				c-0.1,2.4-0.5,4.3,1,6.4c0.6,0.8,1.9,1.3,2.4,2c0.8,1.2,0.5,2.4,0.7,3.8c0.3,1.9,0.9,3.5,2.3,4.8c1.6,1.5,5.6,2.4,6.2,4.5
				c0.4,1.4,2.1,2.6,3.6,2c1.4-0.5,3.6,1.7,5.1,2c1.6,0.3,2.9,0,4.3-0.9c3.1-2.1,0.2-7.1-2.9-5c-0.8,0.5-3.5-1.6-4.3-1.8
				c-1.4-0.4-2.4-0.3-3.7,0.2c1.2,0.7,2.4,1.3,3.6,2c-1.1-3.7-3.8-4.1-6.5-6.3c-2.2-1.7-1.4-3.5-2-5.9c-0.5-2-1.5-2.6-2.8-4
				c-1.7-1.9-0.7-3.7-0.9-6.1c-0.3-2.8-2.1-5-1.5-8c1-5,5.3-10.9,9.9-12.9C23.4,451.8,20.4,446.8,17,448.3L17,448.3z"/>
		</g>
	</g>
	<g>
		<g>
			<path class="st4" d="M28.2,455.9c0.2,3.5,1.8,5.7,4.9,7.2c1.6,0.8,11.3,7.4,10.3,9.8c-0.6,1.3-0.5,3.3,1,4
				c6.6,2.9-5,14.2-6.5,17.4c-1.6,3.4,3.4,6.3,5,2.9c1.2-2.7,3.4-4.4,5.1-6.8c1.6-2.3,2.7-5.1,3.5-7.8c1.3-4.5,0.3-8.8-4.2-10.8
				c0.3,1.3,0.7,2.6,1,4c1.8-4.3,0.2-7.8-3.3-10.7c-1.9-1.6-3.1-3.2-4.8-4.9c-1.1-1.1-6.3-3.2-6.3-4.2
				C33.8,452.2,28,452.2,28.2,455.9L28.2,455.9z"/>
		</g>
	</g>
	<g>
		<g>
			<path class="st5" d="M38.8,501.6c2.3,6.4,4.5,12.8,6.6,19.3c1.1,3.5,6.7,2,5.6-1.5c-2.1-6.5-4.3-12.9-6.6-19.3
				C43.1,496.6,37.5,498.1,38.8,501.6L38.8,501.6z"/>
		</g>
	</g>
	<g>
		<g>
			<path class="st6" d="M30.1,502.8c2.6,7.6,5.2,15.2,7.8,22.8c1.2,3.5,6.8,2,5.6-1.5c-2.6-7.6-5.2-15.2-7.8-22.8
				C34.4,497.7,28.8,499.2,30.1,502.8L30.1,502.8z"/>
		</g>
	</g>
</g>
<g>
	<g>
		<g>
			<path class="st1" d="M1179.7,345.1c-0.7-4.8-1.5-9.5-2.2-14.3c-0.7-4.4-2.4-9.7-2-14.1c-0.5,0.8-1,1.7-1.4,2.5
				c1-0.1,1.9-0.2,2.9-0.4c-1-1-1.9-1.9-2.9-2.9c1.3,9.6,2.5,19.2,3.8,28.8c0.5,3.6,6.3,3.7,5.8,0c-1.3-9.6-2.5-19.2-3.8-28.8
				c-0.2-1.4-1.2-3.1-2.9-2.9c-2,0.3-4,0.3-5.8,1.2c-1,0.4-1.4,1.6-1.4,2.5c-0.4,4.3,1.3,9.5,2,13.7c0.8,5.4,1.7,10.8,2.5,16.2
				C1174.7,350.3,1180.3,348.8,1179.7,345.1L1179.7,345.1z"/>
		</g>
	</g>
	<g>
		<g>
			<path class="st2" d="M1170.9,312.1c-0.4,0.1-7.3,2.6-5.9-0.8c0.5-1.3-0.4-2.6-1.3-3.3c-7-5-9.6-17-7.5-25
				c1.1-4.3,4.7-6.7,8.3-8.9c5.7-3.5,7.9,0.9,10.5,5.4c1.4,2.5,2.7,6.1,5.1,7.9c1,0.7,2.1,0.7,3.1,1.3c2.7,1.4,3.7,3.4,4.3,6.2
				c0.9,4.2,1.2,10.5-2.5,13.3c-3.6,2.8-8.7,4-13.1,4.8c-3.7,0.7-2.1,6.3,1.5,5.6c5.7-1.1,12.8-3,17-7.4c4-4.1,3.7-11.5,2.9-16.7
				c-0.7-4.8-3.1-8.5-7.3-10.9c-3.5-1.9-4.4-4.3-6.4-7.8c-1.4-2.4-2.7-5-4.9-6.9c-4.1-3.5-8.8-2.5-13.1,0.2
				c-4.4,2.7-8.8,5.7-10.5,10.7c-3.7,11,0.1,26.3,9.7,33.2c-0.4-1.1-0.9-2.2-1.3-3.3c-1.2,2.9-0.1,5.9,2.3,7.7
				c3.2,2.4,7.2,1.4,10.7,0.2C1176,316.5,1174.5,310.9,1170.9,312.1L1170.9,312.1z"/>
		</g>
	</g>
	<g>
		<g>
			<path class="st2" d="M1176.3,311.3c-3.2,1-5.8,0.1-7.9-2.4c-0.9,1.6-1.9,3.2-2.8,4.8c5.4,1.3,10.7,1.3,16.1,0
				c3.2-0.8,2.4-5.6-0.8-5.7c-3.4-0.1-6.9-0.2-10.3-0.3c-1.5,0-4.4,0.1-5-1.9c-0.6-2.2,2.2-4.4,3.9-4.5c0.6,0.1,1.1,0.2,1.7,0.3
				c1.7,1.8,2.3,1.7,1.7-0.2c-0.4-2.1,0.1-1.9,1.6,0.6c0.6,0.1,1.3,0.3,1.9,0.4c3.1,2.9,2.7,4-0.9,4.7c-3.7,0.7-7.6-5.3-2.3-6.1
				c-0.9-0.2-1.9-0.5-2.8-0.7c-2.4-2.4-4.4-4.7-2.3-7.9c1.5-2.3,4.2-3.1,6.7-3.4c2.4-0.4,13.2,1.2,7.5,5.7c1.4,0,2.7,0,4.1,0
				c-3.7-0.6-4.5,0.5-2.4,3.2c0.4,1.1,0.7,2.3,1,3.4c0.4,1.6,0.5,3.2,0.2,4.8c-1.8,0.4-2.7-0.1-2.7-1.7c-1-1.7-2.3-11.4,0.8-11.9
				c-0.9-0.2-1.9-0.5-2.8-0.7c0.1,0.1,0.3,0.3,0.4,0.4c0-1.4,0-2.7,0-4.1c-2.5,2.8-4.5-1.5-5-3.2c-1.6,0.9-3.2,1.9-4.8,2.8
				c2,1.5,2.2,3.4,0.5,5.6c-1.7,1.9-3.9,2.2-6.5,1c1.3-1.9,1.9-2,1.6-0.5c-0.6-1.3-0.5-2.7,0.1-4c-0.7,0.7-1.3,1.3-2,2
				c-1.1,0.3-0.9,4.6-1.2,5.5c-0.4,1.2-1,2.3-1.9,3.1c-1.4,0.2-1.2-0.6,0.5-2.4c3.5,0.4,3.6-4.6,0.8-5.7c-1.2-0.8-1.9-2-2.1-3.5
				c-0.9-1.5-0.5-2.7,1.4-3.4c2-2.5,2.5-2.3,1.3,0.6c-0.1-0.8-0.2-0.3-0.2,1.7c0.7-0.7,1.3-1.3,2-2c0.8-0.7,0.8-1.2-0.1-1.6
				c1.9,0,3.9,0,5.8,0c-0.2-1.6-0.7-3.8,0.2-5.2c0.6-0.9,3.7-2,3.5-3.4c-1.8,0.5-3.6,1-5.4,1.5c0.3,0.7,1.8,4.1,1.3,1.7
				c-0.4-1.5-1.2-2.9-1.5-4.6c-1.2,1.2-2.4,2.4-3.6,3.6c-0.5-0.9-1-1.8-1.5-2.8c-0.9-1.8-4.1-1.9-5,0c-2.8,6.2-6.2,14.1-5.7,21
				c0.4,6.3,5.7,8.1,11.3,7.9c-0.8-1.5-1.7-2.9-2.5-4.4c-2.5,5-2,10-1,15.3c1.4-1.1,2.8-2.2,4.3-3.3c-7.1-4.5-8.4-13.1-9.4-20.8
				c-0.5-3.6-6.3-3.7-5.8,0c1.3,9.9,3.2,20,12.3,25.8c2.3,1.5,4.7-0.9,4.3-3.3c-0.7-3.6-1.4-7.4,0.4-10.8c1-1.9-0.2-4.4-2.5-4.4
				c-2,0-4.7-0.4-5.5-2.8c-0.5-1.5,0.7-4.6,1-6.1c0.9-3.9,2.3-7.7,3.9-11.3c-1.7,0-3.3,0-5,0c1.9,3.8,6.8,6.6,10.6,3.3
				c3.4-2.9,1.7-8.3-2.6-9.1c-2.3-0.4-3.9,1.3-3.6,3.6c0.6,3.9,3.9,12.2,9.2,11.1c5.6-1.2,3-9.4,1.5-12.7c-1.2-2.6-5.7-1.3-5.4,1.5
				c0.4,3.7,1.9,8.1,6.5,7.6c3.9-0.5,4.6-4.2,3.4-7.3c-1.4-3.5-4.6-6.6-8.5-5.1c-4.9,1.9-5.6,9.1-5.2,13.5c0.4,3.7,5.4,3.7,5.8,0
				c0.5-5.1-5.2-10.8-9.6-5.8c-2.9,3.3-1.7,12.1,3.1,13.2c6.1,1.4,5.2-7.5,2.9-10.4c-3.1-4-9.2-2.8-9.9,2.4c-0.7,4.9,3,10.9,8.5,8.6
				c5.1-2.2,5.3-9.2,1.8-12.9c-4-4.4-10.4-2.7-12.7,2.5c-2.4,5.5,0.4,14.1,6.2,16.2c0.3-1.9,0.5-3.8,0.8-5.7
				c-12.1-1.3-6.9,20.1,2.6,13.1c4.2-3.1,5.8-9.3,5-14.3c-0.6-3.7-5.1-7.7-8.2-3.6c-2.5,3.4-0.5,11.2,3.5,12.6
				c4.6,1.7,7.5-3.5,7.6-7.4c0.1-12.1-17.9-7.9-13.3,2.8c5.8,13.5,27.8-1.7,16-12c-2.1-1.8-5.7-0.1-4.8,2.8
				c1.8,6.3,9.2,12.1,14.7,5.8c1-1.2,1.2-2.9,0-4.1c-5.8-5.8-9.4,6.8-9.3,10.6c0.2,5.7,2.7,17.9,11,13.9c7.1-3.4,4.6-16.1,0.7-21
				c-1.5-2-4-2.6-6.1-1c-2.9,2.4-1.3,6,0.8,8.1c1.2,1.2,2.9,0.9,4.1,0c3.9-3,3.7-8.9,0.5-12.3c-4-4.2-11.2-4.1-16.2-2.4
				c-5.2,1.7-9.6,6.3-9.2,12c0.3,4.9,4.9,9.1,9.9,8.3c3.6-0.6,7.2-6.2,2.7-8.4c-4.6-2.3-9,4.1-9.1,8c-0.3,13.1,21.9,11.1,21.6-0.4
				c-0.1-4.3-5.6-7.7-9.1-4.5c-3.2,2.9-1.4,9.6,3,10.2c5.1,0.7,7.3-5.5,4.5-9.1c-3-4-9.7-4.7-13.5-1.4c-3.3,2.9-2.7,8.9,2.2,9.5
				c4.5,0.5,7.6-4.3,6.9-8.4c-2-11.1-19.7-3.2-12.3,5.7c2.9,3.4,10.5,3.8,11-1.9c0.5-5.6-7.1-8.8-11.7-7.7
				c-5.6,1.3-9.2,7.8-7.1,13.2c1,2.4,2.9,3.9,5.4,4.3c4.7,0.9,10.2,0.4,15,0.5c-0.3-1.9-0.5-3.8-0.8-5.7c-4.4,1.1-8.6,1.1-13,0
				c-2.9-0.7-4.7,2.7-2.8,4.8c3.4,4,8.5,5.4,13.5,3.8C1181.4,315.8,1179.9,310.2,1176.3,311.3L1176.3,311.3z"/>
		</g>
	</g>
	<g>
		<g>
			<path class="st3" d="M1167,266.6c-5.7,1.2-9.7,5.1-13.2,9.5c-1.5,1.9-3.1,4-3.8,6.5c-0.9,3.2,0.6,6-0.1,9.2
				c-0.5,2.1-1.4,4-0.6,6.2c0.3,1,1.2,1.6,1.6,2.4c0.8,1.6,0.4,2.5,0.5,4.3c0,2.2,0.1,3.6,1.4,5.4c1.1,1.5,4.9,3.5,5,5.3
				c0.1,1.4,1.3,3.1,2.9,2.9c1.3-0.2,3.7,2.6,5,3.1c1.4,0.6,2.6,0.5,4-0.1c3.4-1.4,1.9-7-1.5-5.6c-1,0.4-3-2.1-3.8-2.6
				c-1.3-0.7-2.3-0.8-3.6-0.6c1,1,1.9,1.9,2.9,2.9c-0.3-3.9-2.7-4.8-5-7.6c-1.7-2.1-0.8-3.9-0.9-6.3c-0.1-2-0.8-2.8-1.8-4.4
				c-1.3-2.2-0.2-3.4,0.2-5.7c0.4-2.4-0.9-4.9-0.4-7.2c1.1-5.1,8.1-11,12.9-11.9C1172.2,271.5,1170.6,265.9,1167,266.6L1167,266.6z"
				/>
		</g>
	</g>
	<g>
		<g>
			<path class="st4" d="M1176.3,276.3c-0.6,3.9,0.7,6.3,3.8,8.5c1.9,1.4,2.3,2.4,3.6,4.4c1.3,2,5.5,4.9,3.5,7.5c-1,1.3-0.1,3.1,1,4
				c4.9,3.5-9,13.4-10.8,15.8c-2.2,3,2.8,5.9,5,2.9c1.9-2.5,4.9-3.8,7-6.1c1.9-2,3.5-4.5,4.7-6.9c2-4.2,0.6-8.1-3-10.7
				c0.3,1.3,0.7,2.6,1,4c2.6-3.4,1.2-7.5-1.2-10.6c-0.9-1.1-2-2.1-2.7-3.3c-0.6-1.1-0.8-2.5-1.6-3.5c-0.9-1.2-5.1-2.7-4.9-4.3
				C1182.4,274.2,1176.8,272.6,1176.3,276.3L1176.3,276.3z"/>
		</g>
	</g>
	<g>
		<g>
			<path class="st5" d="M1177.1,323.9c0.9,6.5,1.7,13,2.4,19.5c0.4,3.7,6.2,3.7,5.8,0c-0.7-7-1.6-14-2.6-21
				C1182.2,318.7,1176.6,320.3,1177.1,323.9L1177.1,323.9z"/>
		</g>
	</g>
	<g>
		<g>
			<path class="st6" d="M1168.2,322.5c1,8,1.9,15.9,2.9,23.9c0.4,3.7,6.2,3.7,5.8,0c-1-8-1.9-15.9-2.9-23.9
				C1173.6,318.8,1167.8,318.8,1168.2,322.5L1168.2,322.5z"/>
		</g>
	</g>
</g>
<g>
	<g>
		<g>
			<path class="st1" d="M1100.2,757.7c-1.3-4.7-2.5-9.3-3.8-14c-1.1-4.2-3.6-9.4-3.7-13.8c-0.5,0.8-1,1.7-1.4,2.5
				c1.2-0.4,2.4-0.7,3.6-1c-1.2-0.7-2.4-1.3-3.6-2c2.3,9.4,4.7,18.8,7,28.2c0.9,3.6,6.5,2.1,5.6-1.5c-2.3-9.4-4.7-18.8-7-28.2
				c-0.4-1.5-2.1-2.4-3.6-2c-1.7,0.4-3.4,0.7-5,1.6c-0.9,0.5-1.5,1.5-1.4,2.5c0.1,4.4,2.3,9.3,3.4,13.4c1.4,5.3,2.9,10.5,4.3,15.8
				C1095.6,762.8,1101.2,761.3,1100.2,757.7L1100.2,757.7z"/>
		</g>
	</g>
	<g>
		<g>
			<path class="st2" d="M1087.3,725.8c-1.8,1.5-3.7,1.5-5.7,0c0.3-1.2-0.2-2.7-1.3-3.3c-7.7-4.3-12.6-17-10.4-25.5
				c1-3.7,4.3-6.4,7.3-8.7c5.5-4.3,8.1,0.9,11,4.9c1.6,2.1,3.3,5.5,5.7,6.9c1.4,0.8,3.2,0.6,4.6,1.4c1.8,1,2.9,3,3.5,4.8
				c1,3,2.2,9.3,0.4,12.3c-2.4,4-9.4,6.3-13.6,7.6c-3.5,1.1-2,6.7,1.5,5.6c5.6-1.8,12.4-4.4,16.2-9.2c3.3-4.2,2.5-9.9,1.7-14.8
				c-0.9-5.1-3.5-10.4-8.7-12.2c-0.8-0.3-2.3-0.3-3-0.8c-1.1-0.8-2.5-3.4-3.4-4.6c-1.7-2.4-3.4-5-5.6-7c-3.9-3.5-8.6-3.4-12.8-0.5
				c-4.2,2.9-9,6.9-10.4,12c-3,11.3,2.5,26.9,12.9,32.7c-0.4-1.1-0.9-2.2-1.3-3.3c-0.8,3,0.3,5.9,3,7.6c3.6,2.3,7.7,0.6,11.2-1.1
				C1093.5,729.2,1090.6,724.2,1087.3,725.8L1087.3,725.8z"/>
		</g>
	</g>
	<g>
		<g>
			<path class="st2" d="M1092.5,724.4c-2.7,1.2-5.4,0.6-7.5-1.4c-0.7,1.6-1.4,3.3-2,4.9c5.2,0.6,10.3,0,15.2-1.8
				c2.8-1,2.7-6-0.8-5.7c-3.4,0.3-6.8,0.6-10.3,0.9c-1.6,0.1-5.1,0.2-5.5-2.2c-0.4-2.2,2.5-4.1,4.3-4.1c0.7,0.2,1.4,0.4,2.1,0.6
				c1.5-1.8,2.3-2,2.5-0.4c0.3,1.8,1.6,1.8,3.9,0c0.5,0.6,1,1.1,1.6,1.7c0.1,1.6-5,3.7-6,3.6c-2.9-0.2-5.5-5-1.6-6
				c-0.9-0.2-1.9-0.5-2.8-0.7c-0.2-1.5-1-2.3-2.7-2.4c-1-1.3-1.3-2.7-0.7-4.2c0.7-2.3,3.1-3.8,5.2-4.6c1.5-0.6,3.4-1,5-1
				c2.1,0,8.1,1.8,4.8,5.1c1.4,0,2.7,0,4.1,0c-3.8-0.7-4.7-0.1-2.9,2c0.8,1.3,1.4,2.7,1.9,4.2c0.5,1.3,0.8,2.6,0.9,4
				c-1.2,2.3-2,2.6-2.4,0.9c-1.4-1.4-4.1-12.2-1.4-13c-0.9-0.2-1.9-0.5-2.8-0.7c0.2,0.1,0.3,0.3,0.5,0.4c-0.2-1.2-0.3-2.3-0.5-3.5
				c-1.6,2.3-4.5-1.4-5-2.7c-1.4,1.1-2.8,2.2-4.3,3.3c6.2,4.3-6.9,12.1-4.5,2.7c-0.7,0.7-1.3,1.3-2,2c-0.6,0.2,0,3.2-0.1,4.3
				c0,0.8-0.1,1.5-0.4,2.2c-0.6,2.2-1,2.2-1.4,0c3.1-0.2,4.1-4.9,0.8-5.7c-1.9-0.5-4.3-5.3-3.8-7.2c0.9-0.8,1.8-1.6,2.7-2.5
				c-0.3,1.5,0.2,2.5,1.3,3.2c1,0,2,0,2.9,0c-1-4-1.7-4.8-2.1-2.4c1.9-0.3,3.8-0.5,5.7-0.8c-0.2-1-1.1-7.4,0.7-7.4
				c0.8,0.1,1.3,0.7,1.4,1.8c1-1.1,1.2-2.2,0.6-3.4c-1.8,0.7-3.5,1.5-5.3,2.2c0.6,1,2.5,4,1.5,5.3c0.8-0.5,1.7-1,2.5-1.4
				c-2.2,0.1-3.8-4.6-4.3-6.1c-0.9,1.2-1.9,2.4-2.8,3.7c-0.7-0.8-1.3-1.6-2-2.3c-1.4-2.1-4.5-1.7-5.3,0.7
				c-2.1,6.3-4.9,15.5-2.9,22.3c1.7,5.7,7.3,6.1,12.3,5.4c-1.2-1.2-2.4-2.4-3.6-3.6c-1.8,4.9-0.7,9.7,0.8,14.6
				c1.4-1.1,2.8-2.2,4.3-3.3c-7.9-3.9-10.1-12.3-12.1-20.2c-0.9-3.6-6.5-2.1-5.6,1.5c2.3,9.3,5.5,19.1,14.8,23.7
				c2.1,1,5-0.7,4.3-3.3c-1.2-3.9-2.2-7.5-0.8-11.5c0.8-2.3-1.6-3.8-3.6-3.6c-5.8,0.8-5.7-2.8-5.2-7.5c0.5-4.5,1.5-8.8,2.9-13
				c-1.8,0.2-3.5,0.5-5.3,0.7c2.4,3.6,7.5,6.2,11.1,2.3c3.3-3.6,0.3-8.5-4.1-8.7c-1.9-0.1-3.3,1.9-2.8,3.7
				c1.1,3.9,4.7,11.1,9.8,10.4c6.2-0.9,2.8-9.5,1-12.6c-1.7-2.9-6-0.9-5.3,2.2c0.8,3.7,3.3,7.6,7.7,6.2c4.1-1.3,3.5-5.5,1.6-8.4
				c-2.1-3.1-5.9-5.2-9.3-2.7c-4,2.9-3.7,9.7-2.8,14c0.7,3.2,5.8,2.5,5.7-0.8c-0.1-5-5.8-10.5-10-5.3c-2.8,3.5-0.7,12,4.1,13
				c6,1.2,4.9-7,2.7-9.9c-3-3.8-9.4-3.4-10.2,2c-0.7,4.7,3.4,10.9,8.7,8.7c5.3-2.2,5.1-9.7,1.3-13.2c-4.1-3.8-10.2-2.3-12.3,2.8
				c-2.3,5.6,1.2,14.8,7.3,16.3c0.3-1.9,0.5-3.8,0.8-5.7c-13.2,0.7-3.9,21.4,4.4,12.1c3.3-3.7,4.1-10.1,2.5-14.7
				c-1.3-3.7-6.5-6.1-8.6-1.6c-1.8,3.8,1.1,11.1,5.5,11.8c4.7,0.8,6.8-4.9,6.2-8.7c-1.9-12.2-19.3-4.3-12.3,5.5
				c8.1,11.3,26.5-6,13.7-14.8c-2-1.4-5.2,0.9-4.3,3.3c2.7,6.5,10.6,11.3,15.6,4c0.7-1,0.5-2.8-0.5-3.5c-6.6-5.3-8.9,7.3-8.2,11.5
				c0.8,5.6,4.8,17.4,12.6,12.5c6.6-4.2,2.6-16.1-1.5-20.7c-4.8-5.3-10.4,2.6-4.8,7.2c1.2,1,2.9,1.2,4.1,0c3.5-3.4,3.2-9-0.5-12.3
				c-4.3-3.9-11.4-3-16.3-0.9c-5,2.2-8.9,7-8.2,12.7c0.6,4.7,5.1,8.3,9.8,7.6c3.6-0.6,7.3-5.3,3.6-8.2c-4.1-3.2-8.7,3-9,6.7
				c-1.3,13.7,20.9,11.8,21.4-0.1c0.1-4.1-4.5-7.8-8.3-5.4c-3.7,2.3-2.7,8.8,1.2,10.5c4.5,1.9,8.3-3.4,6.4-7.4
				c-2.3-4.9-9.4-5.8-13.5-2.8c-3.2,2.4-4.5,8.2,0.1,10c4.6,1.8,8.4-3.1,8-7.3c-1-12.2-20.1-4.2-12.3,4.9c3,3.5,11,3.6,11.2-2.3
				c0.2-5.7-7.7-8.2-12.1-6.8c-5.3,1.7-8.4,8.1-6.2,13.3c3.2,7.5,14.7,3.8,20.8,3.2c-0.3-1.9-0.5-3.8-0.8-5.7
				c-4.5,1.7-8.9,2.2-13.7,1.6c-2.5-0.3-3.8,3.4-2,4.9c4.2,3.9,9.3,4.6,14.5,2.3C1098.8,727.9,1095.9,722.9,1092.5,724.4
				L1092.5,724.4z"/>
		</g>
	</g>
	<g>
		<g>
			<path class="st3" d="M1078.8,680.7c-5.4,1.7-8.8,5.6-11.8,10.2c-1.5,2.3-3.1,5-3.5,7.7c-0.5,3.3,1.3,6.1,0.8,9.4
				c-0.3,2-0.8,4,0.2,5.9c0.6,1.1,1.5,1.5,2.2,2.4c1,1.4,0.5,2.2,0.6,4c0.1,2,0.7,3.7,2,5.2c1.6,1.7,5.2,2.7,5.6,5.1
				c0.3,1.6,2.1,2.4,3.6,2c1.2-0.3,3.6,2.3,4.9,2.6c1.6,0.4,2.9,0,4.3-0.7c3.3-1.8,0.4-6.8-2.9-5c-0.4,0.2-3.4-2.1-3.8-2.3
				c-1.5-0.6-2.6-0.5-4.1-0.2c1.2,0.7,2.4,1.3,3.6,2c-0.7-3.7-3.6-4.5-6.1-6.8c-2.1-2-0.9-3.7-1.3-6.3c-0.3-1.7-1.2-2.4-2.1-3.7
				c-0.8-1.1-1.2-1.2-1.1-2.9c0.1-1.2,0.5-2.3,0.6-3.4c0.1-2.3-1.2-4.1-1.1-6.4c0.3-5.1,6.2-12,11-13.5
				C1083.9,685.2,1082.4,679.6,1078.8,680.7L1078.8,680.7z"/>
		</g>
	</g>
	<g>
		<g>
			<path class="st4" d="M1088.8,689.9c-0.2,3.6,1.6,6.1,4.8,7.6c2.1,0.9,2.2,1.6,3.6,3.4c1.3,1.7,6.3,4.8,4.9,7.3
				c-0.7,1.3-0.4,3.2,1,4c5.8,3.2-7,14.2-8.5,16.8c-1.9,3.2,3.1,6.1,5,2.9c1.6-2.7,4.3-4.4,6.2-6.9c1.7-2.2,3-4.8,3.9-7.4
				c1.6-4.2,0.2-8.2-3.7-10.4c0.3,1.3,0.7,2.6,1,4c2.2-4.1,0.6-7.8-2.6-11c-1.8-1.8-2.9-3.8-4.6-5.8c-1.2-1.4-5.6-2.4-5.5-4.5
				C1094.8,686.1,1089,686.1,1088.8,689.9L1088.8,689.9z"/>
		</g>
	</g>
	<g>
		<g>
			<path class="st5" d="M1095,736.3c1.7,6.6,3.3,13.2,4.8,19.8c0.8,3.6,6.4,2.1,5.6-1.5c-1.5-6.6-3.1-13.2-4.8-19.8
				C1099.6,731.2,1094,732.7,1095,736.3L1095,736.3z"/>
		</g>
	</g>
	<g>
		<g>
			<path class="st6" d="M1086.2,736.7c1.9,7.8,3.7,15.6,5.6,23.4c0.9,3.6,6.5,2.1,5.6-1.5c-1.9-7.8-3.7-15.6-5.6-23.4
				C1090.9,731.5,1085.3,733,1086.2,736.7L1086.2,736.7z"/>
		</g>
	</g>
</g>
<g>
	<g>
		<g>
			<path class="st1" d="M1000.4,144.8c-1.2-4.7-2.4-9.4-3.5-14c-1.1-4.2-3.4-9.5-3.4-13.8c-0.5,0.8-1,1.7-1.4,2.5
				c1.2-0.3,2.4-0.6,3.6-0.9c-1.2-0.7-2.4-1.3-3.6-2c2.1,9.4,4.3,18.9,6.4,28.3c0.8,3.6,6.4,2.1,5.6-1.5c-2.1-9.4-4.3-18.9-6.4-28.3
				c-0.4-1.6-2.1-2.4-3.6-2c-1.7,0.4-3.4,0.6-5,1.5c-0.9,0.5-1.4,1.5-1.4,2.5c0,4.4,2.1,9.3,3.2,13.5c1.3,5.3,2.7,10.6,4,15.9
				C995.7,149.9,1001.3,148.4,1000.4,144.8L1000.4,144.8z"/>
		</g>
	</g>
	<g>
		<g>
			<path class="st2" d="M988,112.7c-1.9,1.5-3.7,1.4-5.6-0.2c0.4-1.2-0.2-2.6-1.3-3.3c-7.6-4.4-12.3-17.3-9.8-25.7
				c1.1-3.6,4.9-7,8.1-9c5.3-3.3,7.7,1.9,10.3,5.7c1.5,2.2,3.1,5.5,5.6,7c1.4,0.8,3.2,0.7,4.6,1.5c1.7,1,2.8,3.1,3.4,4.9
				c1,3.3,2.1,9.8-0.2,12.8c-2.8,3.7-9.2,5.6-13.3,6.8c-3.6,1-2.1,6.6,1.5,5.6c5.8-1.7,13.1-4.3,16.8-9.4c2.9-4,2.2-9.7,1.5-14.3
				c-0.8-5.1-3.3-10.4-8.5-12.3c-1.2-0.4-2.1-0.4-3.2-1.2c-1-0.8-2.3-3.3-3-4.4c-1.7-2.4-3.3-5.1-5.5-7.1c-3.9-3.5-8.5-3.5-12.8-0.7
				c-4.3,2.8-9.1,6.7-10.6,11.8c-3.3,11.2,2,26.9,12.3,32.9c-0.4-1.1-0.9-2.2-1.3-3.3c-0.9,3,0.2,5.9,2.9,7.7
				c3.6,2.3,7.7,0.7,11.2-0.9C994.3,116.2,991.3,111.2,988,112.7L988,112.7z"/>
		</g>
	</g>
	<g>
		<g>
			<path class="st2" d="M993.9,111.1c-3,1.3-5.8,1-8.1-1.3c-0.9,1.6-1.9,3.2-2.8,4.8c5.5,0.8,10.7,0.4,16-1.4c2.9-1,2.7-5.9-0.8-5.7
				c-3.4,0.2-6.9,0.5-10.3,0.7c-1.1,0.1-4.1,0.7-5-0.3c-1.8-1.8,0.9-5.3,2.4-5.8c0.6-0.1,1.1-0.1,1.7-0.2c1.1,0.9,2.2,1,3.2,0.1
				c1.1-1.1,1.7-0.8,1.7,1c1.2-0.2,2.4-0.5,3.6-0.7c3.1,2.1-1.2,4.3-2.6,4.8c-3.5,1.2-8.8-4.4-3.4-5.7c-0.9-0.2-1.9-0.5-2.8-0.7
				c-5.4-4.5-3.5-9.5,2.8-11.4c1.7-0.5,3.4-0.8,5.2-0.6c2.1,0.2,6.6,2.3,3.6,5.2c1.4,0,2.7,0,4.1,0c-3.7-0.7-4.7,0-2.8,2
				c0.7,1.4,1.3,2.8,1.8,4.3c0.4,1.3,0.7,2.6,0.8,4c-1.3,2.2-2.1,2.5-2.5,0.7c-1.4-1.5-3.8-12.2-1-13c-0.9-0.2-1.9-0.5-2.8-0.7
				c0.2,0.1,0.3,0.3,0.5,0.4c-0.2-1.2-0.3-2.3-0.5-3.5c-1.5,2.1-4.5-1.6-5-2.9c-1.4,1.1-2.8,2.2-4.3,3.3c1.9,2.3,1.9,4.3-0.1,6
				c-2.4,2.4-3.7,2.3-3.9-0.1c-0.5-2.3-0.7-2.1-0.4,0.8c-0.3-1.4-0.3-2.8-0.2-4.2c-0.7,0.7-1.3,1.3-2,2c-0.8,0.3-0.1,3.3-0.3,4.3
				c0,0.8-0.2,1.5-0.4,2.2c-0.7,2.2-1.1,2.2-1.3-0.1c3.2-0.1,4-4.8,0.8-5.7c-2-0.5-4.4-6.1-3.5-7.9c0.9-0.6,1.8-1.1,2.7-1.7
				c-0.3,1.4,0.1,2.5,1.2,3.2c1,0,2,0,2.9,0c-1-4.1-1.6-4.9-2-2.4c1.9-0.3,3.8-0.5,5.7-0.8c-0.3-1.5-0.8-6.1,0.6-7.4
				c0.3,0.3,0.7,0.5,1,0.8c1.6-0.2,2.1-1,1.3-2.3c-1.8,0.7-3.5,1.5-5.3,2.2c0.6,1,2.4,4.1,1.4,5.4c0.8-0.5,1.7-1,2.5-1.4
				c-2.1,0.1-3.7-4.8-4.1-6.3c-0.9,1.2-1.9,2.4-2.8,3.7c-0.7-0.8-1.4-1.6-2.1-2.4c-1.4-2.2-4.5-1.7-5.3,0.7
				c-2.2,6.2-4.9,14.8-3.5,21.5c1.3,5.8,6.4,7,11.6,6.4c-0.9-1.2-1.9-2.4-2.8-3.7c-1.9,4.9-0.9,9.7,0.5,14.6
				c1.4-1.1,2.8-2.2,4.3-3.3c-7.8-4-9.8-12.5-11.6-20.5c-0.8-3.6-6.4-2.1-5.6,1.5c2.2,9.4,5.1,19.2,14.3,23.9c2.2,1.1,5-0.7,4.3-3.3
				c-1.1-3.9-2.1-7.6-0.5-11.5c0.6-1.6-1-3.9-2.8-3.7c-2.1,0.2-4.7,0.9-5.9-1.4c-0.6-1.3-0.1-3.9,0-5.2c0.5-4.8,1.7-9.4,3.3-13.9
				c-1.8,0.2-3.5,0.5-5.3,0.7c2.3,3.7,7.5,6.3,11.1,2.5c3.4-3.6,0.4-8.5-4-8.8c-1.9-0.1-3.2,2-2.8,3.7c1,3.9,4.6,11.2,9.7,10.5
				c6.1-0.8,2.9-9.5,1.1-12.7c-1.7-3-5.9-0.9-5.3,2.2c0.7,3.7,3.2,7.6,7.6,6.3c4.1-1.3,3.5-5.5,1.7-8.4c-2-3.2-5.8-5.2-9.2-2.8
				c-4.1,2.9-3.8,9.6-3,13.9c0.6,3.3,5.7,2.4,5.7-0.8c0-5-5.7-10.6-9.9-5.4c-2.8,3.4-0.9,12.1,3.9,13c5.9,1.2,5-6.9,2.8-9.9
				c-2.9-3.9-9.4-3.5-10.2,1.9c-0.7,4.7,3.2,11,8.6,8.8c5.4-2.2,5.2-9.6,1.5-13.2c-4.1-3.8-10.1-2.4-12.3,2.7
				c-2.4,5.6,1,14.8,7.1,16.4c0.3-1.9,0.5-3.8,0.8-5.7c-13.2,0.4-4.2,21.4,4.3,12.1c3.4-3.7,4.3-10,2.7-14.7
				c-1.3-3.7-6.4-6.1-8.5-1.6c-1.8,3.8,0.9,11.1,5.3,11.9c4.7,0.8,6.8-4.9,6.3-8.6c-1.8-12.2-19.3-4.5-12.4,5.4
				c7.9,11.4,26.5-5.5,13.9-14.6c-2-1.4-5.2,1-4.3,3.3c2.6,6.6,10.4,11.4,15.6,4.2c0.7-1,0.5-2.8-0.5-3.5c-6.5-5.5-9,7.3-8.4,11.4
				c0.7,5.6,4.5,17.5,12.4,12.6c6.6-4.1,2.9-16.1-1.2-20.8c-4.7-5.4-10.4,2.5-4.9,7.2c1.2,1,2.9,1.1,4.1,0c3.6-3.4,3.3-9-0.3-12.3
				c-4.3-3.9-11.4-3.2-16.3-1.2c-5,2.1-9,6.9-8.4,12.6c0.6,4.8,5.4,8.8,10.4,7.7c3.6-0.8,6.9-6.5,2.4-8.6c-4.7-2.3-8.7,4.6-8.6,8.5
				c0.5,13.5,23,9.3,21.5-2.3c-0.5-4-5.7-6.9-9-3.9c-3.2,2.9-1.5,9.2,2.7,10.2c5,1.2,7.5-4.9,5-8.5c-2.9-4.4-9.7-4.8-13.5-1.4
				c-3.2,2.7-3.2,8.5,1.4,9.6c4.8,1.2,8-4.2,7.3-8.3c-2-11.2-19.7-3.2-12.3,5.7c3,3.5,10.9,3.7,11.2-2.2c0.2-5.6-7.6-8.3-12.1-6.9
				c-5.4,1.6-8.5,8-6.4,13.2c3.1,7.5,14.6,4,20.8,3.6c-0.3-1.9-0.5-3.8-0.8-5.7c-4.3,1.5-8.5,2-12.9,1.4c-2.6-0.4-5.1,2.6-2.8,4.8
				c3.8,3.6,8.9,4.9,13.8,2.8C998.9,115.3,997.4,109.7,993.9,111.1L993.9,111.1z"/>
		</g>
	</g>
	<g>
		<g>
			<path class="st3" d="M980.4,67.5c-5.4,1.6-8.9,5.5-12,10c-1.5,2.2-3,4.6-3.6,7.3c-0.7,3.2,1.1,6,0.7,9.1
				c-0.3,2.3-1.2,4.3-0.1,6.6c0.4,0.8,1.2,1.3,1.7,2c1.3,1.8,0.9,2.2,0.9,4.5c0,2,0.7,3.7,2,5.2c1.6,1.8,5.1,2.8,5.5,5.2
				c0.3,1.6,2.2,2.3,3.6,2c1-0.2,3.6,2.4,4.9,2.7c1.6,0.4,2.9,0.1,4.3-0.7c3.3-1.7,0.4-6.7-2.9-5c-0.2,0.1-3.3-2.3-3.7-2.4
				c-1.5-0.6-2.6-0.5-4.1-0.2c1.2,0.7,2.4,1.3,3.6,2c-0.7-3.9-3.9-4.5-6.3-7.1c-1.8-2-0.4-4.2-0.9-6.5c-0.5-2-1.8-2.3-2.6-3.8
				c-0.9-1.7,0.2-3.9,0.3-5.8c0.1-3.1-1.7-5.3-0.5-8.5c1.7-4.5,6.1-9.8,10.8-11.2C985.5,72,984,66.4,980.4,67.5L980.4,67.5z"/>
		</g>
	</g>
	<g>
		<g>
			<path class="st4" d="M990.3,76.8c-0.2,3.6,1.6,6.1,4.7,7.6c2,1,2.2,1.7,3.5,3.5c1.3,1.8,6.2,4.8,4.7,7.4c-0.8,1.4-0.3,3.2,1,4
				c5.7,3.3-7.4,14.1-8.9,16.6c-2,3.2,3.1,6.1,5,2.9c1.6-2.7,4.4-4.3,6.4-6.8c1.7-2.2,3.1-4.7,4.1-7.3c1.7-4.2,0.3-8.2-3.6-10.5
				c0.3,1.3,0.7,2.6,1,4c2.3-4,0.6-7.9-2.4-11c-1.8-1.9-2.8-3.9-4.4-5.9c-1.2-1.5-5.5-2.4-5.4-4.6C996.3,73.1,990.5,73.1,990.3,76.8
				L990.3,76.8z"/>
		</g>
	</g>
	<g>
		<g>
			<path class="st5" d="M995.6,123.4c1.6,6.6,3,13.2,4.4,19.9c0.7,3.7,6.3,2.1,5.6-1.5c-1.3-6.7-2.8-13.3-4.4-19.9
				C1000.3,118.3,994.7,119.8,995.6,123.4L995.6,123.4z"/>
		</g>
	</g>
	<g>
		<g>
			<path class="st6" d="M986.8,123.6c1.7,7.8,3.4,15.7,5.1,23.5c0.8,3.6,6.4,2.1,5.6-1.5c-1.7-7.8-3.4-15.7-5.1-23.5
				C991.6,118.4,986,119.9,986.8,123.6L986.8,123.6z"/>
		</g>
	</g>
</g>
<g>
	<g>
		<g>
			<path class="st1" d="M1249.5,604.3c1.5-4.6,3.1-9.1,4.6-13.7c1.4-4.2,2.3-9.8,4.6-13.5c-0.8,0.5-1.7,1-2.5,1.4
				c1.2,0.4,2.3,0.8,3.5,1.2c-0.7-1.2-1.3-2.4-2-3.6c-3.3,9.1-6.6,18.2-9.8,27.3c-1.3,3.5,4.3,5,5.6,1.5c3.3-9.1,6.6-18.2,9.8-27.3
				c0.6-1.6-0.6-3.1-2-3.6c-1.7-0.6-3.2-1.3-5-1.4c-1-0.1-2,0.6-2.5,1.4c-2.3,3.7-3.2,9-4.6,13.1c-1.7,5.2-3.5,10.4-5.2,15.6
				C1242.7,606.3,1248.3,607.8,1249.5,604.3L1249.5,604.3z"/>
		</g>
	</g>
	<g>
		<g>
			<path class="st2" d="M1256.2,570.7c-0.2,0-7-1-4.4-3.3c1-0.9,1-2.4,0.5-3.5c-4-7.7-0.9-19.5,4.8-25.8c2.9-3.3,7.1-3.7,11.2-4
				c6.7-0.6,6.8,4.3,7,9.5c0.1,3-0.4,7,1,9.8c0.5,0.9,1.4,1.4,2,2.2c1.8,2.3,1.9,4.7,1.2,7.5c-0.9,3.3-3.6,9.5-7.2,10.6
				c-4.5,1.4-10.5-0.3-14.8-1.5c-3.6-1-5.1,4.5-1.5,5.6c5.8,1.7,13.4,3.4,19.2,1.1c4.8-1.9,7.6-7.8,9.3-12.4c1.7-4.6,2-9.9-1.1-13.9
				c-1.2-1.5-1.6-1.7-2-3.6c-0.3-1.7-0.1-3.6-0.2-5.3c-0.1-2.9-0.1-5.9-1-8.7c-1.6-5-6.1-6.9-11.1-6.6c-5.3,0.4-11,0.9-15,4.7
				c-8.4,8-12.1,23.5-6.7,33.9c0.2-1.2,0.3-2.3,0.5-3.5c-2.5,2.1-3,5.7-1.3,8.6c2,3.4,6.2,4.1,9.8,4.6
				C1259.9,577,1259.9,571.2,1256.2,570.7L1256.2,570.7z"/>
		</g>
	</g>
	<g>
		<g>
			<path class="st2" d="M1262.2,572.5c-3.2-0.6-5.3-2.4-6.1-5.6c-1.6,0.9-3.2,1.9-4.8,2.8c4.2,3.6,8.8,6.1,14.2,7.4
				c3.1,0.7,5.2-3.7,2.2-5.3c-2.5-1.3-4.9-2.7-7.4-4c-1.2-0.7-3.1-1.3-4.1-2.2c-2.3-2.2-0.8-4.6,2.2-4.9c2.6-0.3,2.2,0.7,4,1.9
				c0.5,1.2,0.7,1.3,0.8,0.1c1.4,2,2.8,4.1,4.2,6.1c-0.4,0.5-3.4,0.1-4-0.1c-3.3-0.8-4.8-8.3,0.4-6.5c-0.7-0.7-1.3-1.3-2-2
				c-2.2-6.8,2.1-10.1,8.6-8.2c2.3,0.7,12,7.3,4.7,8.6c1.2,0.7,2.4,1.3,3.6,2c-1.1-0.5-2.2-0.9-3.4-1.4c0,0.6-0.1,1.2-0.1,1.8
				c-0.5,1.3-0.4,3.1-0.8,4.5c-0.2,0.8-0.8,3.4-1.5,3.8c-0.8-0.2-1.7-0.3-2.5-0.5c0.1-0.7,0.2-1.3,0.4-1.9c0.2-1.7,3.1-10.8,5.9-9.9
				c-0.7-0.7-1.3-1.3-2-2c0.1,0.2,0.1,0.4,0.2,0.6c0.7-1.2,1.3-2.4,2-3.6c-3.2,1.3-3.6-2.9-3.2-5c-1.9,0-3.7,0-5.6,0
				c1.5,3.7-3.7,7.9-6.8,4.6c-1.5-0.5-1.6-1-0.2-1.5c1-1,1.2-0.9,0.6,0.2c-0.4,1.2-0.4,1.2-0.1-0.1c0.1-1.3,0.6-2.4,1.7-3.2
				c-0.9,0.2-1.9,0.5-2.8,0.7c-1-0.2-2,2.7-2.7,3.6c-0.6,0.8-1.3,1.4-2.1,1.9c-2.1,1.4-2.3,1-0.3-1.2c2.8,1.8,5.8-2.3,3.5-4.6
				c-1.7-1.7,0-8.2,2.1-9c1.7-0.6,2.8,0.5,2.8,2c-0.1-2.1-4.8,4.9-2.4,2.8c0.9-0.2,1.9-0.5,2.8-0.7c1.1,0.7,1.3,0.1,0.5-1.6
				c1.8,0.7,3.5,1.5,5.3,2.2c0.5-1.2,1.7-4.1,3.1-4.7c1.7-0.8,3,1.9,4.2-1.2c-1.9-0.3-3.8-0.5-5.7-0.8c0.1,1.3-0.2,2.6-0.8,3.8
				c-1,1.7-0.5,1.7,1.4,0.2c-0.1-0.8-0.2-1.6-0.3-2.4c0-1.4,0.3-2.7,0.8-3.9c-1.4,0.6-2.8,1.2-4.3,1.7c-0.2-1.1-0.4-2.2-0.5-3.3
				c-0.1-2.7-3-3.5-4.9-2c-5.2,4.1-11.8,9.6-14.3,15.9c-2.3,5.7,1.5,9.6,6.3,11.9c0-1.7,0-3.3,0-5c-4.5,3.2-6.4,7.8-7.9,13
				c1.8-0.2,3.5-0.5,5.3-0.7c-4.3-7.6-1.4-15.9,1.3-23.5c1.3-3.5-4.3-5-5.6-1.5c-3.3,9.2-5.9,18.9-0.7,27.9c1.3,2.2,4.6,1.7,5.3-0.7
				c1-3.5,2.1-7.3,5.3-9.6c1.6-1.1,2.1-4,0-5c-2.3-1.1-3.7-3-3.3-5.9c0.3-1.8,3.1-4.1,4.3-5.4c2.5-2.7,5.2-5.2,8.1-7.5
				c-1.6-0.7-3.3-1.4-4.9-2c0.1,4.5,3.6,10,8.8,7.6c4.1-1.8,3.9-7,0.4-9.3c-1.6-1.1-3.7,0-4.3,1.7c-1.2,3.8-2.2,12.6,3,14.2
				c5.5,1.8,7.1-6.7,7.3-10.4c0.2-3.5-4.6-3.6-5.7-0.8c-1.4,3.6-1.2,8.9,3.8,9.4c4.2,0.4,5.5-3.9,5.2-7.4c-0.4-3.8-3-7-7.1-6.2
				c-4.6,0.9-7.6,6.1-9.2,10.1c-1.2,3.2,3.6,4.9,5.3,2.2c2.8-4.3,0.6-12-5.7-9.8c-4.1,1.5-7.2,9.9-3.5,13.2c4.9,4.4,8.5-4.7,7.4-8.5
				c-1.8-5.8-8.5-5.2-10.7-0.1c-2,4.5,0.1,10.8,5.9,9.8c5.7-0.9,8.1-8,5.3-12.7c-3-5-9.6-4.2-13,0c-3.2,4-4.5,11.8-0.6,15.7
				c1.2-1.5,2.3-3,3.5-4.6c-10.3-6.8-15.4,14.5-4,12.8c5.2-0.8,9.2-5.4,10.9-10.1c1.3-3.6-0.4-9.7-5.4-7.4
				c-3.8,1.7-5.6,9.7-2.8,12.8c3.7,4.1,9.2-0.2,10.6-4.2c4.1-10.9-14.3-13.1-13.6-1.4c0.7,13.8,25.2,9.3,19.8-4.4
				c-0.9-2.4-5-3.1-5.6,0c-1.2,6.3,2.4,15.2,10.3,12.1c1.4-0.6,2.5-1.9,2-3.6c-2.5-7.8-11.3,1.3-13.1,4.9c-2.4,5-5.9,16.1,2.4,17.5
				c8.5,1.5,12-11.3,11.3-17.7c-0.3-2.6-2-4.7-4.9-4.2c-3.7,0.7-4,4.6-3.1,7.5c0.5,1.6,2,2.3,3.6,2c4.8-0.9,7.5-6,6.2-10.7
				c-1.5-5.5-8-8.8-13.2-9.7c-5.4-0.9-11.3,1-13.8,6.2c-2.1,4.4,0,10.3,4.7,12c3.4,1.2,9.3-1.9,6.5-6.1c-2.9-4.3-9.8-0.7-11.8,2.7
				c-6.2,10.9,11.9,19.4,18.6,10.8c2.5-3.2,1-9-3.5-9.4c-4.5-0.4-7.4,5.6-5.2,9.3c2.5,4.2,8.7,2,9.5-2.3c1-5.3-4.4-10.1-9.4-10
				c-4.4,0-8.8,4.8-5.4,8.9c3.3,3.8,9.2,1,10.8-3c4.3-10.8-15.1-13-13.4-1.7c0.7,4.3,6.3,8.5,10.1,4.7c4-4-0.8-10.7-4.9-12.4
				c-5.8-2.4-12.9,1.5-13.7,7.9c-0.9,7.6,10.6,10.9,15.8,13.7c0.7-1.8,1.5-3.5,2.2-5.3c-4.5-1.1-8.2-2.9-11.7-5.9
				c-2.2-1.9-5.5-0.1-4.8,2.8c1.2,5.1,5,8.8,10.1,9.7C1264.3,578.8,1265.8,573.2,1262.2,572.5L1262.2,572.5z"/>
		</g>
	</g>
	<g>
		<g>
			<path class="st3" d="M1274.3,528.5c-6.2-1.7-12.4,0.3-18,3.2c-2,1-3.9,2.2-5.2,4c-1.8,2.5-2.1,5.3-4.1,7.7
				c-1.3,1.6-2.8,2.8-3,5.1c-0.1,1,0.6,2,0.5,3c-0.1,1.4-0.5,1.7-1.3,3c-1.2,1.8-1.9,3.5-1.7,5.7c0.3,2.6,2.8,5.4,1.8,7.9
				c-0.6,1.5,0.7,3.1,2,3.6c0.9,0.3,1.8,4.1,2.6,5c1.2,1.2,2.4,1.5,4,1.6c3.7,0.3,3.7-5.5,0-5.8c-0.1,0-1.6-3.9-1.8-4.2
				c-0.9-1.3-1.9-1.7-3.3-2.3c0.7,1.2,1.3,2.4,2,3.6c1.6-4-1.7-6.5-1.4-10.2c0.2-2,1.9-3.1,2.6-5c0.7-1.8-0.1-2.8,0-4.5
				c0.1-2.3,2-3.2,3.2-4.9c1.2-1.7,1.1-3.7,2.1-5.4c2.7-4.8,12.8-6.8,17.4-5.6C1276.4,535.1,1277.9,529.5,1274.3,528.5L1274.3,528.5
				z"/>
		</g>
	</g>
	<g>
		<g>
			<path class="st4" d="M1277.6,541.8c-2.1,2.8-1.8,5.8-0.2,8.7c1.2,2.1,3.7,12.6,1.1,13.9c-1.5,0.7-1.7,2.7-1,4
				c2.9,5.5-14.2,7.9-16.7,9.1c-3.4,1.6-0.4,6.6,2.9,5c2.8-1.4,6.1-1.2,9-2.2c2.6-0.9,5.2-2.4,7.4-4c3.7-2.7,4.4-6.8,2.4-10.8
				c-0.3,1.3-0.7,2.6-1,4c3.6-1.7,4.5-5.5,4-9.2c-0.2-1.8-0.8-3.3-0.9-5.1c0-1.1,0.3-2.5,0-3.6c-0.4-2-3.4-4.8-2-6.7
				C1284.8,541.7,1279.8,538.8,1277.6,541.8L1277.6,541.8z"/>
		</g>
	</g>
	<g>
		<g>
			<path class="st5" d="M1257,583.9c-2.2,6.4-4.6,12.8-7.1,19.1c-1.4,3.5,4.3,5,5.6,1.5c2.5-6.3,4.8-12.7,7.1-19.1
				C1263.8,581.9,1258.2,580.4,1257,583.9L1257,583.9z"/>
		</g>
	</g>
	<g>
		<g>
			<path class="st6" d="M1249.5,579.3c-2.8,7.5-5.6,15-8.4,22.6c-1.3,3.5,4.3,5,5.6,1.5c2.8-7.5,5.6-15,8.4-22.6
				C1256.4,577.3,1250.8,575.8,1249.5,579.3L1249.5,579.3z"/>
		</g>
	</g>
</g>
<g>
	<g>
		<g>
			<path class="st1" d="M1293.3,906.6c-1.6-4.5-3.3-9.1-4.9-13.6c-1.5-4.1-4.4-9.2-4.8-13.4c-0.5,0.8-1,1.7-1.4,2.5
				c1.1-0.5,2.3-1,3.5-1.3c-1.2-0.7-2.4-1.3-3.6-2c3.1,9.2,6.1,18.4,9.2,27.6c1.2,3.5,6.8,2,5.6-1.5c-3.1-9.2-6.1-18.4-9.2-27.6
				c-0.5-1.4-2-2.5-3.6-2c-1.6,0.5-3.4,0.9-4.9,1.9c-0.8,0.5-1.5,1.5-1.4,2.5c0.5,4.4,2.9,9,4.4,13.1c1.8,5.1,3.7,10.3,5.5,15.4
				C1288.9,911.6,1294.5,910.1,1293.3,906.6L1293.3,906.6z"/>
		</g>
	</g>
	<g>
		<g>
			<path class="st2" d="M1278,875.5c-1.7,1.3-3.6,1.6-5.9,0.8c0.2-1.2-0.1-2.7-1.3-3.3c-7.8-3.5-12.5-13.5-12.6-21.8
				c-0.1-5,2.2-7.6,5.5-10.9c2.6-2.6,5.1-4.6,8.5-1.8c1.5,1.2,2.6,2.9,3.9,4.3c1.9,2.2,3.8,5.5,6.6,6.7c1.2,0.5,2.6,0.3,3.8,0.7
				c2.4,0.8,3.7,2.8,4.6,5c1.4,3.4,2.9,9.1,1,12.4c-2.3,4-8.2,6.6-12.3,8.2c-3.4,1.4-1.9,7,1.5,5.6c5.4-2.2,11.8-5.1,15.3-10
				c3.2-4.4,2.2-10.2,0.9-15.2c-1.2-4.6-3.7-9.2-8.3-11.2c-1.1-0.5-2.2-0.5-3.3-0.8c-1.9-0.7-2.8-2.1-4.1-3.6
				c-2.2-2.6-4.3-5.6-7.1-7.6c-4.4-3.2-9.1-2.5-13.1,0.9c-3.9,3.4-8.2,7.6-9.1,12.9c-1.8,11.2,4.6,26.2,15.2,31
				c-0.4-1.1-0.9-2.2-1.3-3.3c-0.6,3.1,0.4,5.9,3.3,7.5c3.8,2.1,7.7,0.2,11.1-1.7C1284.1,878.6,1281.2,873.6,1278,875.5L1278,875.5z
				"/>
		</g>
	</g>
	<g>
		<g>
			<path class="st2" d="M1283.1,873.6c-2.5,1.4-5.3,1.3-7.6-0.5c-0.7,1.6-1.4,3.3-2,4.9c5.6,0.2,10.7-0.9,15.7-3.2
				c3.2-1.5,0.8-5.8-2.2-5.3c-2.8,0.5-5.5,0.9-8.3,1.4c-1.1,0.2-4.3,1.3-5.4,0.9c-1.9-0.8-1.7-3.5-0.8-4.9c1.1-1.5,2.2-1.6,3.8-1.9
				c2.1,0.3,4.2,0.1,6.3-0.5c0.7,1,1.3,2.1,2,3.1c-0.3,0.8-2.8,2-3.6,2.2c-2.4,0.7-3.6,0-3.8-2.1c-0.6-1.1-0.9-2.2-0.9-3.4
				c-0.5-0.8-1-1.7-1.4-2.5c-1.3,0.5-2.2,0.1-2.7-1c-1-0.8-1.3-1.9-0.8-3.3c0.4-2.1,2.2-3.7,3.9-4.7c1.7-1,4-1.8,6-1.9
				c2.1-0.1,7.9,1.4,5.1,4.6c1.2-0.2,2.3-0.3,3.5-0.5c-2.7,0.8-3.3,1.9-1.8,3.3c0.5,0.9,1,1.7,1.4,2.6c0.4,0.9,3.1,6.4-0.9,5.5
				c-0.7-0.2-2-4.5-2.2-5.1c-0.8-2.4,0.2-6-2.1-7.5c-0.3-1.3-0.7-2.6-1-4c-2,3.5-4.9-1.3-5.5-2.5c-1.3,1.3-2.6,2.6-4,4
				c7.6,4.4-4.8,10-5.7,6.5c0-3.1,0.7-3.1,2.3,0.1c-0.1-0.4-0.2-0.7-0.4-1.1c-0.2-1.5-1.1-1.6-2.6-0.4c0.4,1.2,0.6,2.4,0.7,3.6
				c0.1,1.2-0.1,2.4-0.4,3.6c-1.4,3.4-1.9,3.2-1.4-0.5c3-0.3,4.2-5.1,0.8-5.7c-1.6-0.6-2.8-1.7-3.4-3.3c-1.7-1.9-1.4-3.1,0.9-3.7
				c5.1-3.2-1.2,2.3,2.2,0.3c1,0,2,0,2.9,0c-0.4-1.8-1.2-2.6-2.5-2.6c1.9-0.3,3.8-0.5,5.7-0.8c-0.5-1.7-1.4-4-0.6-5.6
				c-0.3-1.4,0.1-1.7,1.1-0.9c1.5,1,2.1,0.1,1.5-2.7c-1.8,0.7-3.5,1.5-5.3,2.2c0.6,0.8,2.9,4,2.2,5.2c0.8-0.5,1.7-1,2.5-1.4
				c-2.2,0.3-4.3-3.9-4.9-5.6c-0.9,1.2-1.9,2.4-2.8,3.7c-0.8-0.9-1.5-1.7-2.3-2.6c-1.4-1.7-4.4-0.7-4.8,1.3
				c-1.6,6.6-3.7,15.7-1.3,22.4c2,5.6,7.6,5.8,12.6,4.7c-1.2-1.2-2.4-2.4-3.6-3.6c-1.4,5.1-0.1,9.7,1.8,14.5
				c1.2-1.2,2.4-2.4,3.6-3.6c-7.8-3.1-10.6-11.5-13.1-18.8c-1.2-3.5-6.8-2-5.6,1.5c3.2,9.6,7.1,18.9,17.1,22.8
				c2,0.8,4.3-1.6,3.6-3.6c-1.5-3.7-2.9-7.4-1.8-11.4c0.6-2.2-1.4-4-3.6-3.6c-2.4,0.5-4.4,1.2-5.8-2c-0.5-1.3-0.2-4.4-0.1-5.7
				c0.2-4.2,0.8-8.2,1.8-12.3c-1.6,0.4-3.2,0.9-4.8,1.3c2.8,3.4,8.4,5.1,11.2,0.6c2.4-3.8-0.7-8.1-4.8-8c-1.8,0.1-3.5,1.8-2.8,3.7
				c1.4,4,5.4,10.6,10.5,9.8c6.3-1,2.4-9.5,0.3-12.5c-1.8-2.5-6.3-1.1-5.3,2.2c1.1,3.6,3.7,7.5,8,5.9c4-1.5,3.4-5.7,1.3-8.4
				c-2.3-3-6.1-4.9-9.4-2.3c-3.9,3.1-3.2,9.8-1.9,14c0.9,3,6,2.6,5.7-0.8c-0.5-4.8-5.8-10.2-10.1-5.1c-3,3.6-0.3,12.1,4.5,13
				c6,1.1,4.7-7,2.3-9.8c-3.1-3.7-9.6-3-10.2,2.4c-0.5,4.7,4,10.8,9.1,8.4c5.3-2.5,4.5-9.9,0.6-13.2c-4.2-3.6-10.3-1.8-12.1,3.4
				c-1.9,5.6,2.1,14.8,8.3,15.8c0.3-1.9,0.5-3.8,0.8-5.7c-12.7,1.1-3.7,20.3,4.1,12.9c4-3.8,4.4-11,2.4-15.8c-1.5-3.5-6.7-6-8.7-1.3
				c-1.7,3.9,1.8,11,6.1,11.6c4.8,0.6,6.6-5.2,5.8-8.9c-2.5-12.1-19.6-3.3-12.1,6.1c8.8,11,26.1-7.8,12.8-15.5c-2.6-1.5-5.2,1.5-4,4
				c3.1,6,11.4,9.7,15.6,2.5c0.8-1.4,0.3-3.1-1-4c-2.5-1.7-4.8,0-6.1,2.2c-1.9,3.3-1.6,7.5-0.6,11.1c1.5,5.6,7.2,16.9,14.1,9.7
				c4.9-5.1,0.4-16.2-4.3-20.1c-1.9-1.6-4.6-1.5-6.1,0.5c-2.3,3,0.1,6,2.6,7.8c1,0.7,2.7,0.5,3.5-0.5c3.2-3.7,2.8-9.1-1.1-12.3
				c-4.7-3.8-12.2-2.3-17,0.5c-4.9,2.8-8.4,8.6-6.3,14.2c1.5,4.3,6.5,7.1,11,5.4c3.4-1.3,5.9-7.1,1.3-8.7c-5-1.7-8.2,5.5-7.6,9.4
				c2,13.4,24,6.7,21.1-4.6c-1-3.8-6.5-6.2-9.4-2.9c-2.8,3.2-0.5,9.3,3.7,9.9c4.9,0.7,7-5.3,4.4-8.8c-3-4.1-9.6-4.1-13.3-0.9
				c-3,2.7-3.7,8.6,1.1,10c4.7,1.3,8-3.9,7.3-8c-2.1-12.6-21-1.8-11.5,6.2c3.4,2.8,11,2.1,10.6-3.7c-0.4-5.8-8.8-7.4-13.1-5.4
				c-5.2,2.4-7.4,9.6-4.2,14.4c1.6,2.3,3.9,3.1,6.6,3c4.8-0.2,9.7-1.6,14.5-2.4c-0.7-1.8-1.5-3.5-2.2-5.3c-4.1,1.9-8.3,2.6-12.8,2.4
				c-2.4-0.1-4,3.4-2,4.9c4.4,3.5,9.6,4.2,14.6,1.5C1289.3,876.9,1286.4,871.9,1283.1,873.6L1283.1,873.6z"/>
		</g>
	</g>
	<g>
		<g>
			<path class="st3" d="M1266.1,831.3c-5.2,2.1-8.5,6.1-11.1,11c-1.3,2.4-2.7,5.2-3,8c-0.3,3.2,1.7,5.7,1.7,8.7
				c-0.1,2.2-0.8,4.4,0.4,6.5c0.6,1.1,1.5,1.4,2.3,2.3c1.2,1.4,0.9,2.3,1.1,4.1c0.2,1.9,0.9,3.5,2.3,4.9c1.6,1.6,5.5,2.4,6.1,4.6
				c0.4,1.4,2.1,2.5,3.6,2c1.3-0.5,3.6,1.8,5.1,2.1c1.6,0.3,2.9,0,4.3-0.9c3.1-2,0.2-7-2.9-5c-0.7,0.4-3.5-1.7-4.3-1.9
				c-1.4-0.4-2.4-0.3-3.7,0.2c1.2,0.7,2.4,1.3,3.6,2c-1-3.7-3.8-4.2-6.5-6.4c-2.2-1.8-1.4-3.5-1.9-6c-0.4-1.7-1.2-2.5-2.2-3.7
				c-1.9-2.2-1.2-3.2-1.2-6.1c-0.1-2.1-1.2-3.8-1.4-5.9c-0.5-5.1,4.7-12.9,9.5-14.8C1271.1,835.5,1269.6,829.9,1266.1,831.3
				L1266.1,831.3z"/>
		</g>
	</g>
	<g>
		<g>
			<path class="st4" d="M1276.6,839.4c0.1,3.5,1.7,5.7,4.9,7.2c1.6,0.8,11.1,7.6,10,10c-0.6,1.3-0.5,3.3,1,4
				c6.5,3-5.3,14.1-6.9,17.3c-1.6,3.3,3.4,6.3,5,2.9c1.3-2.6,3.5-4.3,5.2-6.7c1.7-2.3,2.8-5,3.7-7.7c1.4-4.5,0.4-8.8-4.1-10.8
				c0.3,1.3,0.7,2.6,1,4c1.9-4.3,0.3-7.8-3.1-10.8c-1.9-1.6-3.1-3.3-4.7-5c-1.1-1.1-6.2-3.2-6.2-4.3
				C1282.2,835.7,1276.4,835.7,1276.6,839.4L1276.6,839.4z"/>
		</g>
	</g>
	<g>
		<g>
			<path class="st5" d="M1286.3,885.3c2.2,6.4,4.3,12.9,6.3,19.4c1.1,3.6,6.7,2,5.6-1.5c-2-6.5-4.1-13-6.3-19.4
				C1290.6,880.2,1285,881.7,1286.3,885.3L1286.3,885.3z"/>
		</g>
	</g>
	<g>
		<g>
			<path class="st6" d="M1277.5,886.3c2.5,7.6,4.9,15.3,7.4,22.9c1.1,3.5,6.7,2,5.6-1.5c-2.5-7.6-4.9-15.3-7.4-22.9
				C1282,881.2,1276.4,882.7,1277.5,886.3L1277.5,886.3z"/>
		</g>
	</g>
</g>
<g>
	<g>
		<g>
			<path class="st1" d="M925.7,951.5c-0.1-4.8-0.2-9.6-0.2-14.5c-0.1-4.3-1.2-10-0.2-14.3c-0.7,0.7-1.3,1.3-2,2
				c1.2-0.1,2.5-0.1,3.7-0.1c-1-1-1.9-1.9-2.9-2.9c-0.1,9.7-0.1,19.4-0.2,29.1c0,3.7,5.8,3.7,5.8,0c0.1-9.7,0.1-19.4,0.2-29.1
				c0-1.6-1.3-2.9-2.9-2.9c-1.7,0-3.5-0.2-5.2,0.3c-0.9,0.3-1.8,1-2,2c-1,4.3-0.1,9.5,0,13.9c0.1,5.5,0.2,10.9,0.3,16.4
				C919.9,955.2,925.7,955.2,925.7,951.5L925.7,951.5z"/>
		</g>
	</g>
	<g>
		<g>
			<path class="st2" d="M921,917.3c-2.1,1-4,0.6-5.5-1.3c0.6-1.1,0.5-2.6-0.5-3.5c-6.2-5.8-7.3-16.9-4.8-24.7
				c1.5-4.7,4.8-6.5,8.9-8.5c7.2-3.6,8.6,1.3,10.8,6.8c1,2.5,1.8,6.2,3.8,8.1c0.8,0.7,1.7,0.9,2.5,1.5c2.6,1.7,3.6,3.8,3.8,6.9
				c0.2,4.1-0.4,10.8-4.3,12.9c-3.9,2.1-8.9,2.7-13.3,2.9c-3.7,0.2-3.7,6,0,5.8c5.8-0.3,12.8-1.1,17.7-4.6c4.6-3.3,5.4-9.8,5.7-15.1
				c0.2-4.9-1.2-10.3-5.5-13.1c-0.8-0.5-2.1-0.8-2.7-1.5c-1-1.3-1.5-3.7-2.1-5.3c-1.1-2.7-2-5.7-3.7-8.2c-3.3-4.8-8.2-5.3-13.4-3.2
				c-4.7,2-9.8,4.4-12.3,9.1c-5.3,10.2-3.8,26.2,4.7,34.3c-0.2-1.2-0.3-2.3-0.5-3.5c-1.6,2.7-1.2,5.8,1,8.1
				c2.9,3.1,7.3,2.5,11.1,1.7C926.2,922.1,924.6,916.6,921,917.3L921,917.3z"/>
		</g>
	</g>
	<g>
		<g>
			<path class="st2" d="M926.4,917.2c-2.9,0.5-5.3-0.7-6.9-3.2c-1.1,1.4-2.2,2.8-3.3,4.3c4.9,1.9,9.9,2.6,15.2,2
				c2.9-0.3,4.3-5.1,0.8-5.7c-3.4-0.5-6.8-1.1-10.2-1.6c-2.2-0.4-4.7-1.5-4.4-4.4c0.4-4.8,5.5-0.8,6.7-0.9c0.6-0.7,1.3-1.4,1.9-2.1
				c0.6,0.6,0.8,1.4,0.7,2.2c-0.3,1.8,0.8,2,3.1,0.8c0.3,1,0.6,2,0.9,2.9c-0.5,0.9-4.4,1.6-5.2,1.4c-1.1-0.8-2.2-1.7-3.3-2.5
				c-0.2-2.6,0.7-3.8,2.5-3.9c-0.8-0.5-1.7-1-2.5-1.4c-4.1-5.4-1.5-9.7,4.9-10.3c1.8-0.2,3.6-0.1,5.3,0.4c1.9,0.6,6.6,3.8,2.8,6
				c1.3,0.3,2.6,0.7,4,1c-3-0.2-4,0.8-2.9,2.9c0.3,1.5,0.4,3,0.5,4.6c0.5,2.1-0.3,3.3-2.5,3.7c-0.2-0.8-0.3-1.6-0.4-2.4
				c-0.2-1.8-0.4-3.6-0.2-5.4c0.1-0.9,0.8-6.2,2.3-6.2c-0.8-0.5-1.7-1-2.5-1.4c0.1,0.2,0.2,0.3,0.4,0.5c0.2-1.2,0.3-2.3,0.5-3.5
				c-3.1,2.7-4.2-3.4-4.3-4.5c-1.6,0.9-3.2,1.9-4.8,2.8c4.9,5.7-10,10.5-5,1.5c-0.8,0.5-1.7,1-2.5,1.4c-0.7,0.1-0.7,2.9-1,3.8
				c-0.2,0.8-0.6,1.6-1,2.3c-1.1,2-1.5,1.9-1.4-0.4c3.1,0.8,5.3-3.8,2.2-5.3c-1.9-0.9-2.7-4.9-2.1-6.6c-0.3-2.1,1-2.8,3.9-2.3
				c-1.1,0.9-1.1,1.8-0.1,2.6c0.9,0.2,1.9,0.5,2.8,0.7c0-4.1-0.5-5.1-1.4-2.9c1.9,0.3,3.8,0.5,5.7,0.8c0-1.5,0.2-2.9,0.7-4.3
				c0.1-2.2,0.7-2.9,1.8-2.1c0.7,0.2,1,0.6,0.9,1.4c1.2-0.7,1.7-1.8,1.4-3.1c-1.9,0.3-3.8,0.5-5.7,0.8c0.3,1.1,1.4,4.5,0.2,5.6
				c0.9-0.2,1.9-0.5,2.8-0.7c-2.2-0.5-2.6-5.3-2.7-6.9c-1.2,0.9-2.4,1.9-3.7,2.8c-0.4-0.9-0.9-1.8-1.3-2.7c-0.8-2.4-3.9-2.9-5.3-0.7
				c-3.5,5.6-8.1,13.3-8.3,20.1c-0.2,6.4,5.1,8.4,10.5,9c-0.8-1.5-1.7-2.9-2.5-4.4c-3,4.3-3.1,9.2-2.9,14.3c1.6-0.7,3.3-1.4,4.9-2
				c-6.7-5.7-6.8-14.4-6.7-22.5c0-3.7-5.8-3.7-5.8,0c0,9.6,0.6,19.9,8.4,26.6c1.8,1.5,5.1,0.6,4.9-2c-0.2-4.1-0.4-7.9,2.1-11.4
				c1.4-2-0.5-4.1-2.5-4.4c-2.9-0.3-4.7-1.1-4.5-4.5c0.1-1.9,1.3-4.1,2-5.8c1.5-3.6,3.3-6.9,5.3-10.2c-1.8-0.2-3.5-0.5-5.3-0.7
				c1.4,4.1,5.7,7.9,10.2,5c4.1-2.7,2.5-8.2-1.7-9.5c-1.8-0.5-3.7,0.9-3.7,2.8c0.1,4,1.9,12.5,7.3,12.6c5.9,0.1,4.8-8.5,3.7-12
				c-0.9-3.2-5.6-2.5-5.7,0.8c-0.1,3.9,1.5,8.6,6.3,7.9c4.2-0.6,4.4-4.8,3.2-8c-1.3-3.4-4.3-6.1-8.1-4.6c-4.6,1.8-6,8.5-6.2,12.8
				c-0.1,3.2,4.9,4,5.7,0.8c1.2-4.9-2.9-11.7-8.3-7.7c-3.5,2.6-3.7,11.4,0.7,13.6c6.1,3,6.7-6.8,4.5-10.1c-2.9-4.2-8.9-3.3-10.1,1.8
				c-1.1,4.8,2.2,11.3,7.8,9.2c5.4-2,6-9.2,2.6-13.2c-3.7-4.3-10-2.9-12.6,1.9c-2.6,4.7-1.5,13.9,3.8,16.4c0.7-1.8,1.5-3.5,2.2-5.3
				c-12.6-3.1-9.6,19.3,0.7,13.1c4.4-2.6,6.8-8.4,6.6-13.4c-0.1-3.8-4.1-8.3-7.7-4.6c-2.9,2.9-2.1,11,1.8,13
				c5.1,2.6,8.7-3.8,8.6-8.1c-0.4-11.5-18.5-6.4-13.1,4.3c6.1,12.2,26.4-0.4,16.7-11.6c-2.1-2.4-5.2,0.3-4.8,2.8
				c1,6.9,7.9,12.4,14,7.1c0.9-0.8,1.2-2.5,0.5-3.5c-4.9-6.5-10.2,4-10.7,8.3c-0.8,5.6-0.3,18.1,8.4,16.1c8.1-1.8,7.2-14.8,4.3-20.5
				c-3.3-6.4-10.8-0.2-6.5,5.7c0.9,1.3,2.5,1.9,4,1c4.2-2.5,5.3-8,2.6-12.1c-3.1-4.6-9.7-5.7-14.8-5c-5.7,0.7-11.1,4.3-11.8,10.4
				c-0.6,4.8,3.1,9.8,8.2,9.9c3.6,0.1,8.3-4.6,4.5-7.8c-4-3.4-9.5,2.3-10.3,6.1c-2.6,12.3,17.3,14.6,21,4.4c1.5-4.2-2.4-9.6-7-7.6
				c-3.9,1.7-4.3,8.2-0.7,10.5c4.2,2.7,8.7-1.9,7.7-6.2c-1.2-5.3-8.1-7.6-12.6-5.5c-3.7,1.7-6,7.1-1.8,9.8c4.1,2.6,8.7-1.5,9.3-5.5
				c1.7-11.7-17.9-9.1-13.3,1.6c1.8,4.2,8.5,6.5,11.2,1.7c2.8-5-4.1-10-8.4-10.3c-6.1-0.4-11.5,5.2-10.6,11.3
				c1.2,8.1,13.3,7.3,19.4,8.3c0.3-1.9,0.5-3.8,0.8-5.7c-4.8,0.5-9.2-0.1-13.7-1.8c-2.4-0.9-4.6,2.2-3.3,4.3
				c3.1,4.8,7.9,6.8,13.5,5.8C931.6,922.2,930.1,916.6,926.4,917.2L926.4,917.2z"/>
		</g>
	</g>
	<g>
		<g>
			<path class="st3" d="M924,871.5c-6.1,0.4-10.8,3.7-15,7.9c-1.8,1.7-3.6,3.6-4.4,6c-1.2,3.2-0.3,6.3-1.7,9.6
				c-0.9,2.1-1.6,4-0.7,6.3c0.3,0.8,1.4,1.6,1.5,2.2c0.3,1.3-0.5,2.3-0.8,3.5c-0.4,1.9-0.3,3.8,0.7,5.6c1.1,2.1,4.4,3.9,4.2,6.3
				c-0.1,1.6,1.4,2.9,2.9,2.9c1.3,0,2.9,3,4.2,3.7c1.5,0.8,2.8,0.8,4.4,0.4c3.6-0.9,2.1-6.5-1.5-5.6c-0.5,0.1-2.8-3-3.4-3.4
				c-1.2-0.8-2.2-0.9-3.6-0.9c1,1,1.9,1.9,2.9,2.9c0.2-3.6-2-5-3.8-7.7c-1.7-2.5-0.3-4.1-0.1-6.8c0.1-1.7-0.5-2.6-1.1-4.1
				c-0.5-1.2-0.9-1.5-0.4-3c0.3-0.9,0.9-1.7,1.1-2.5c0.7-2.1,0.1-3.7,0.3-5.8c0.6-5.5,9.4-11.4,14.4-11.7
				C927.7,877.1,927.7,871.3,924,871.5L924,871.5z"/>
		</g>
	</g>
	<g>
		<g>
			<path class="st4" d="M931.4,882.8c-1,3.4,0,6.4,2.8,8.6c1.8,1.4,1.8,2,2.7,4.2c0.7,1.8,4.9,6.4,3,8.3c-1.1,1.1-1.1,3,0,4.1
				c4.9,4.6-10.1,11.8-12.4,14.1c-2.6,2.7,1.5,6.8,4.1,4.1c2.2-2.2,5.3-3.2,7.7-5.1c2-1.6,3.7-3.6,5.3-5.7c2.8-3.8,3-8.1-0.6-11.5
				c0,1.4,0,2.7,0,4.1c3-3,2.6-7.1,0.6-10.6c-1.4-2.4-2.2-4.8-3.4-7.3c-0.8-1.6-4.8-3.8-4.2-5.6C938,880.8,932.4,879.2,931.4,882.8
				L931.4,882.8z"/>
		</g>
	</g>
	<g>
		<g>
			<path class="st5" d="M925.9,929.4c0,6.8-0.1,13.6-0.3,20.4c-0.1,3.7,5.7,3.7,5.8,0c0.2-6.8,0.3-13.6,0.3-20.4
				C931.6,925.6,925.8,925.6,925.9,929.4L925.9,929.4z"/>
		</g>
	</g>
	<g>
		<g>
			<path class="st6" d="M917.3,927.5c-0.1,8-0.2,16-0.3,24.1c-0.1,3.7,5.7,3.7,5.8,0c0.1-8,0.2-16,0.3-24.1
				C923.1,923.8,917.3,923.8,917.3,927.5L917.3,927.5z"/>
		</g>
	</g>
</g>
<g>
	<g>
		<g>
			<path class="st1" d="M1247.5,152.2c0.9-4.7,1.8-9.5,2.7-14.2c0.8-4.2,0.9-10.1,2.7-14c-0.8,0.5-1.7,1-2.5,1.4
				c1.2,0.1,2.4,0.3,3.6,0.6c-0.7-1.2-1.3-2.4-2-3.6c-2.1,9.5-4.1,18.9-6.2,28.4c-0.8,3.6,4.8,5.2,5.6,1.5
				c2.1-9.5,4.1-18.9,6.2-28.4c0.3-1.5-0.4-3.2-2-3.6c-1.7-0.4-3.4-1-5.2-0.9c-1,0.1-2.1,0.5-2.5,1.4c-1.8,4-2.1,9.2-2.9,13.5
				c-1,5.4-2.1,10.7-3.1,16.1C1241.3,154.3,1246.8,155.9,1247.5,152.2L1247.5,152.2z"/>
		</g>
	</g>
	<g>
		<g>
			<path class="st2" d="M1250.2,117.6c-0.3,0-7.4-0.1-5.4-2.3c0.8-0.9,1.2-2.4,0.5-3.5c-5.1-7.3-3.7-19.5,1.2-26.6
				c2.5-3.7,6.7-4.6,10.9-5.5c6.2-1.4,6.8,3.2,7.7,8c0.5,2.9,0.5,7.2,2.2,9.7c0.8,1.3,2.2,1.8,3.2,2.9c1.2,1.5,1.6,3.6,1.6,5.4
				c-0.2,3.4-2,10.1-5,12.2c-3.8,2.6-11.2,1.6-15.4,1c-3.6-0.6-5.2,5-1.5,5.6c5.8,0.9,13.1,1.7,18.7-0.9c4.8-2.2,6.7-7.7,8.1-12.4
				c1.4-4.8,1.5-10.4-1.9-14.4c-0.8-1-1.9-1.6-2.5-2.7c-1-1.8-1.1-4.1-1.4-6.1c-0.5-2.9-0.8-5.9-2-8.6c-2-4.5-6.1-6.3-10.9-5.6
				c-5.3,0.7-11.6,2.3-15.1,6.6c-7.3,8.7-9.3,24.9-2.6,34.5c0.2-1.2,0.3-2.3,0.5-3.5c-2.2,2.5-2.6,5.8-0.6,8.7
				c2.3,3.3,6.5,3.6,10.1,3.6C1254,123.4,1254,117.6,1250.2,117.6L1250.2,117.6z"/>
		</g>
	</g>
	<g>
		<g>
			<path class="st2" d="M1255.6,118.6c-2.9-0.1-5.2-1.6-6.3-4.4c-1.4,1.1-2.8,2.2-4.3,3.3c4.7,3.1,9.6,4.7,15.2,5.2
				c3.5,0.4,3.6-4.6,0.8-5.7c-2.9-1.1-5.8-2.2-8.7-3.4c-1.9-0.8-4.1-0.7-4.3-3c-0.2-1.8,0.8-3.4,2.9-3.7c1,0.2,2,0.4,3,0.6
				c1.1-0.2,2.1-0.4,3.2-0.6c1.5,1.5,2.7,3.3,3.5,5.2c1.3,1.1,1.3,1.7,0,1.9c-0.8,0.8-3.8,0.8-5,0.4c-0.9-0.8-1.9-1.6-2.8-2.4
				c0.9-1.5,1.5-3,1.6-4.7c0-1,0-2,0-2.9c-2.2-1.5-2.7-3-1.4-4.5c0.4-1,1.1-1.7,2.1-2.2c1.9-1.1,4.5-1,6.6-0.6
				c1.6,0.3,3.3,0.8,4.6,1.6c1.6,1,4.9,4.9,1.2,6.1c1.1,0.4,2.2,0.9,3.3,1.3c-2.8-0.4-3.8,0.5-3.2,2.6c0,1.5-0.2,3.1-0.4,4.6
				c0,1.9-1,2.6-3.2,2.1c0-0.7,0.1-1.3,0.1-2c-0.1-1.6,0.5-3.7,1-5.2c0.8-2.4,2.8-3.5,1.7-5.9c0.3-1.3,0.7-2.6,1-4
				c-3.7,2.1-3.5-3.8-3.4-5.1c-1.8,0.5-3.6,1-5.4,1.5c2,3.6-2.7,7.1-6,5.6c-0.8-1-1.5-2-2.3-2.9c0.5-0.6,1-1.2,1.5-1.7
				c0.1,1,0.3,2,0.4,3c0.1-0.4,0.2-0.7,0.2-1.1c0.5-1,0.2-1.4-0.9-1.3c-0.9-0.7-1.3-0.6-1.3,0.3c-0.5,0.5-0.8,2.3-1.2,3
				c-0.6,1-1.3,2-2.2,2.7c-0.4,0.5-0.9,0.8-1.5,1c-1.6,0.9-1.4,0.2,0.7-2.2c3.4,1.7,5.9-2.8,2.9-5c-0.6-0.5-0.5-1.7-0.6-2.3
				c-0.4-2.7-0.2-4.2,2.6-5c1.7-1.3,2.4-1.2,2.2,0.3c0.3,0.8,0.1,1.1-0.6,0.8c-0.6-0.3-0.8-0.1-0.7,0.6c-0.3,0.9,0,1,0.8,0.3
				c0.8,0.5,1.7,1,2.5,1.4c0.6-1.7,0.3-2.8-0.8-3.4c1.8,0.7,3.5,1.5,5.3,2.2c0.4-1.7,1-4.3,2.5-5.4c0.3-0.9,0.9-1.1,1.7-0.6
				c-0.1,2.5,0.6,2.2,2.2-0.8c-1.9-0.3-3.8-0.5-5.7-0.8c0.1,1.1,0.5,4.9-0.8,5.6c1,0,2,0,2.9,0c-2.1-0.9-1.7-5.5-1.4-7.2
				c-1.4,0.6-2.8,1.2-4.3,1.7c-0.2-0.9-0.4-1.8-0.6-2.7c-0.3-2.3-3-4-4.9-2c-4.7,4.8-10.6,11.3-12.4,17.9c-1.6,6.1,3.1,9.4,8.2,11.1
				c-0.4-1.6-0.9-3.2-1.3-4.8c-3.8,3.6-5,8.3-5.8,13.3c1.6-0.4,3.2-0.9,4.8-1.3c-5.1-6.6-3.2-15.3-1.6-22.8c0.8-3.6-4.8-5.2-5.6-1.5
				c-2.1,9.9-3.5,19.9,3.1,28.4c1.3,1.7,4.5,0.8,4.8-1.3c0.6-4,1.3-7.9,4.3-10.8c1.7-1.6,0.7-4.2-1.3-4.8c-6-2-3.6-6-0.9-10.1
				c2.2-3.4,4.8-6.4,7.6-9.3c-1.6-0.7-3.3-1.4-4.9-2c0.5,4.4,4,9.4,9.1,7.1c4.1-1.8,4.2-7.6,0.2-9.4c-1.5-0.7-3.9-0.3-4.3,1.7
				c-0.7,4-0.8,12.5,4.4,13.9c5.7,1.6,6.6-7.1,6.3-10.8c-0.2-3.1-4.9-4.1-5.7-0.8c-0.9,3.7-0.5,8.8,4.3,9.2c4.3,0.4,5.5-3.8,4.9-7.2
				c-0.6-3.8-3.4-7.3-7.6-6.1c-4.5,1.3-7.1,6.9-8,11c-0.7,3,3.8,5.3,5.3,2.2c2.1-4.4,0.1-11.8-6.1-9.5c-4.4,1.6-6.4,10.3-2.6,13.5
				c5.2,4.4,8.1-5,6.6-8.7c-2-5.1-8.6-5.1-10.5,0c-1.8,4.7,0.6,11.3,6.5,9.9c5.6-1.3,7.3-8.7,4.1-13.1c-3.2-4.4-9.4-3.7-12.5,0.5
				c-3.4,4.6-3.6,13.1,1.2,16.7c1-1.7,2-3.3,2.9-5c-11.8-5.7-13.5,16.5-2.3,13c4.9-1.6,8.4-6.7,9.3-11.6c0.7-3.7-2-9.2-6.4-6.4
				c-3.5,2.2-4.4,10.3-1.2,13.1c4.3,3.7,9.3-1.7,10.1-5.9c2.2-11.3-16.5-10.4-13.7,1.2c3.2,13.3,26,5.3,18.8-7.6
				c-1.5-2.6-5.2-1.3-5.4,1.5c-0.4,6.8,4.9,14.1,12.1,10.1c1.5-0.8,1.7-2.6,1-4c-3.4-7.3-11.2,3.9-12.3,7.2
				c-1.7,5.4-3.3,17.4,5.6,16.7c7.9-0.7,9.9-13.4,8-19.4c-0.8-2.5-3-4.1-5.6-3c-3.5,1.5-2.9,5.2-1.6,8.1c0.5,1.1,2.2,1.7,3.3,1.3
				c4.7-1.5,7-6.5,5.2-11.2c-2-5.2-8.2-7.6-13.3-8.1c-5.5-0.5-11.5,1.6-13.7,7c-1.9,4.7,0.4,10.7,5.6,12c3.6,0.9,9.1-2.5,6.2-6.5
				c-3.1-4.3-9.7,0.1-11.4,3.6c-5.4,11.7,14.6,18.3,19.8,8.4c2-3.8-0.9-9.7-5.7-8.5c-4.2,1-5.5,7.3-2.5,10.2
				c3.6,3.4,8.8-0.5,8.6-4.8c-0.3-5.4-6.6-9-11.6-7.7c-4,1-6.8,6-3.2,9.3c3.8,3.5,9.4-0.3,10.4-4.5c2.4-11.2-16.8-10.5-13.5,0.4
				c1.3,4.3,8,7.6,10.8,2.8c3-5.1-3.4-11.1-8.2-11.6c-5.7-0.6-11.5,4.3-11.1,10.3c0.2,2.8,1.8,4.7,4.2,5.9c4.2,2.2,9.2,3.6,13.6,5.3
				c0.3-1.9,0.5-3.8,0.8-5.7c-4.5-0.5-8.4-2-12.3-4.5c-2-1.3-5.2,0.9-4.3,3.3c2,5.3,6.2,8.4,11.8,8.6
				C1259.3,124.6,1259.3,118.8,1255.6,118.6L1255.6,118.6z"/>
		</g>
	</g>
	<g>
		<g>
			<path class="st3" d="M1262.6,73.5c-6.4-0.9-11.8,1.5-17,5c-2.3,1.5-4.5,3.2-5.7,5.7c-0.4,0.9-0.7,1.9-0.8,2.9c-0.4,2.2-0.8,3-2,5
				c-1,1.5-2.2,3-2.2,4.9c0,0.9,0.4,1.7,0.5,2.5c0.3,1.7,0.3,1.9-0.3,3.5c-0.8,2-1.6,3.3-1.3,5.6c0.4,2.3,3.7,5.7,3.1,7.9
				c-0.4,1.4,0.5,3.2,2,3.6c1.4,0.3,2.2,3.4,3.4,4.4c1.2,1.1,2.5,1.4,4.1,1.4c3.7-0.2,3.7-6,0-5.8c-0.8,0-2.1-3.3-2.7-3.9
				c-1-1-1.9-1.4-3.2-1.7c0.7,1.2,1.3,2.4,2,3.6c1-4-1.4-5.7-2.5-9.2c-0.7-2.3,0.9-3.6,1.6-5.7c0.5-1.7,0.3-2.8-0.1-4.4
				c-0.5-2.2-0.1-2.6,1.2-4.5c1.1-1.6,1.4-2.9,1.9-4.7c1-3.8,2.8-5.3,6-7.2c3.2-1.9,6.6-3.6,10.5-3.1
				C1264.7,79.6,1266.3,74,1262.6,73.5L1262.6,73.5z"/>
		</g>
	</g>
	<g>
		<g>
			<path class="st4" d="M1267.4,85.9c-1.8,3.3-1.3,6,0.8,9c1.1,1.6,5.4,12,3.2,13.4c-1.2,0.8-2,2.6-1,4c4,5.8-11.9,9.4-14.8,11.3
				c-3.1,2-0.2,7.1,2.9,5c2.4-1.6,5.3-1.9,7.9-3.1c2.6-1.1,5-2.9,7.1-4.8c3.5-3.1,4.8-7.3,1.9-11.4c-0.3,1.3-0.7,2.6-1,4
				c3.6-2.3,4.2-6.3,3-10.2c-0.8-2.6-1.3-4.8-1.8-7.4c-0.3-1.6-3.8-5.7-3.1-6.9C1274.2,85.5,1269.2,82.6,1267.4,85.9L1267.4,85.9z"
				/>
		</g>
	</g>
	<g>
		<g>
			<path class="st5" d="M1252.4,130.3c-1.4,6.7-2.9,13.3-4.5,19.9c-0.9,3.6,4.7,5.2,5.6,1.5c1.6-6.6,3.1-13.2,4.5-19.9
				C1258.7,128.2,1253.1,126.6,1252.4,130.3L1252.4,130.3z"/>
		</g>
	</g>
	<g>
		<g>
			<path class="st6" d="M1244.4,126.7c-1.8,7.8-3.5,15.7-5.3,23.5c-0.8,3.6,4.8,5.2,5.6,1.5c1.8-7.8,3.5-15.7,5.3-23.5
				C1250.8,124.6,1245.2,123,1244.4,126.7L1244.4,126.7z"/>
		</g>
	</g>
</g>
<g>
	<g>
		<g>
			<path class="st1" d="M71,323.7c-0.9-4.7-1.8-9.5-2.7-14.2c-0.8-4.3-2.8-9.6-2.6-14c-0.5,0.8-1,1.7-1.4,2.5
				c1.2-0.2,2.4-0.4,3.7-0.6c-1.2-0.7-2.4-1.3-3.6-2c1.6,9.6,3.2,19.1,4.8,28.7c0.6,3.7,6.2,2.1,5.6-1.5c-1.6-9.6-3.2-19.1-4.8-28.7
				c-0.3-1.7-2.2-2.3-3.6-2c-1.8,0.3-3.4,0.4-5,1.2c-0.9,0.5-1.4,1.5-1.4,2.5c-0.2,4.3,1.6,9.4,2.4,13.7c1,5.4,2.1,10.7,3.1,16.1
				C66.1,328.9,71.7,327.4,71,323.7L71,323.7z"/>
		</g>
	</g>
	<g>
		<g>
			<path class="st2" d="M61.1,291c-0.2,0.1-7.3,3-6.1-0.4c0.4-1.2-0.3-2.6-1.3-3.3c-7.2-4.8-11.2-18.2-8.2-26.3
				c1.4-3.7,5.3-6.5,8.7-8.4c5.3-3.1,7.7,2.8,9.9,6.5c1.4,2.3,2.8,5.7,5.2,7.2c3.6,2.3,6.3,2.1,7.5,6.9c0.8,3.5,1.5,9.9-1.1,12.7
				c-3.2,3.5-9.3,4.9-13.7,6c-3.6,0.8-2.1,6.4,1.5,5.6c5.8-1.4,13.3-3.6,17.2-8.5c3.2-4,2.7-10.3,2.1-15c-0.7-4.9-3-9.9-7.9-11.9
				c-1.3-0.6-2-0.5-3-1.4c-1-0.9-2.1-3.4-2.8-4.5c-1.5-2.5-3-5.3-5.1-7.4c-3.7-3.7-8.4-3.8-12.8-1.2c-4.4,2.6-9.4,6.3-11.1,11.3
				c-3.8,11.1,0.6,26.9,10.6,33.5c-0.4-1.1-0.9-2.2-1.3-3.3c-1,2.8-0.1,5.5,2.2,7.4c3.3,2.7,7.4,1.6,11,0.2
				C66,295.2,64.5,289.6,61.1,291L61.1,291z"/>
		</g>
	</g>
	<g>
		<g>
			<path class="st2" d="M66.4,289.9c-3.1,1.1-5.8,0.5-8-1.9c-0.9,1.6-1.9,3.2-2.8,4.8c5.5,1.1,10.7,0.9,16.1-0.6
				c3.1-0.9,2.5-5.7-0.8-5.7c-3.1,0-6.2,0.1-9.4,0.1c-1.5,0-5.1,0.6-6-1.2c-0.8-1.6,0.9-3.9,2.2-4.6c0.6-0.6,1.3-0.7,2-0.5
				c1.1-0.1,2.1,0.3,3,1.1c0.6-0.4,1.1-0.7,1.7-1.1c0.8,1,1.8,1.7,3,2.1c2.6,0.7,2.6,1.5,0.2,2.4c-0.7,0.3-1.3,0.6-2,0.8
				c-3.6,0.9-8.2-4.9-2.7-5.9c-0.9-0.2-1.9-0.5-2.8-0.7c-5.3-4.9-3.2-9.9,3.5-11.4c2.3-0.5,13.9,0.5,8.3,5.2c1.4,0,2.7,0,4.1,0
				c-3.5-0.6-4.4,0.1-2.8,2.1c0.6,1.4,1.1,2.9,1.5,4.4c0.4,1.3,0.6,2.7,0.6,4.1c-1.8,1.4-2.8,1.2-2.9-0.7c-1.1-1.6-2.6-11.4,0.2-12
				c-0.9-0.2-1.9-0.5-2.8-0.7c0.1,0.1,0.3,0.3,0.4,0.4c0-1.4,0-2.7,0-4.1c-2.2,2.7-4.6-0.9-5.2-2.8c-1.6,0.9-3.2,1.9-4.8,2.8
				c5.6,4.5-3.7,8.8-4.4,7.5c0.1-2.8,0.3-3,0.6-0.5c-0.8-1.4-1-3-0.4-4.6c-0.7,0.7-1.3,1.3-2,2c-0.9,0.3-0.5,3.7-0.7,4.5
				c-0.1,0.9-0.4,1.8-0.8,2.7c-1.2,2.2-1.5,2-0.8-0.8c3.4,0.2,3.8-4.7,0.8-5.7c-2-0.6-4.4-7.4-2.6-8.8c3.3-0.7,4.1-0.5,2.5,0.8
				c0.2,1.1,0.3,2.1,0.2,3.2c0.7-0.7,1.3-1.3,2-2c1.3,0,1.2-0.6-0.3-1.6c1.9-0.3,3.8-0.5,5.7-0.8c-0.3-2.3-0.3-4.2,1.2-5.8
				c1.4-1.5,2.6-0.5,2.2-3c-1.8,0.7-3.5,1.5-5.3,2.2c0.3,0.8,0.7,1.6,1,2.4c1.6,1.1,1.9,1,0.7-0.3c-0.5-1.6-1.6-3-1.9-4.8
				c-0.9,1.2-1.9,2.4-2.8,3.7c-0.9-0.7-1.6-1.6-2.2-2.7c-1.3-2.4-4.4-1.5-5.3,0.7c-2.5,6.1-5.7,14.4-4.6,21.2c1,5.9,6.1,7.3,11.4,7
				c-0.8-1.5-1.7-2.9-2.5-4.4c-2.3,5.1-1.7,10-0.5,15.3c1.4-1.1,2.8-2.2,4.3-3.3c-7.5-4.4-9-13.2-10.4-21.2
				c-0.6-3.7-6.2-2.1-5.6,1.5c1.6,9.6,4.1,19.4,13,24.6c2.3,1.3,4.8-0.9,4.3-3.3c-0.8-3.6-1.7-7.3-0.1-10.8c0.8-1.8-0.1-4.5-2.5-4.4
				c-2.9,0.2-5.5-0.4-5.7-3.9c-0.1-1.8,0.5-3.9,0.9-5.6c0.8-3.9,2.1-7.6,3.6-11.3c-1.8,0.2-3.5,0.5-5.3,0.7c2.1,3.8,7.3,6.6,11,2.8
				c3.5-3.6,0.5-8.3-3.8-8.9c-2-0.3-3.1,2-2.8,3.7c0.8,3.9,4.3,12,9.6,10.8c5.6-1.3,2.8-9.4,1.2-12.7c-1.6-3.2-5.7-0.7-5.3,2.2
				c0.5,3.8,3,7.8,7.5,6.4c3.9-1.2,3.5-5.4,1.8-8.4c-1.9-3.2-5.6-5.5-9.1-3.1c-4.2,2.8-4.2,9.5-3.6,13.8c0.5,3.4,5.5,2.3,5.7-0.8
				c0.3-5.1-5.4-10.7-9.7-5.7c-2.9,3.3-1.4,12.1,3.4,13.2c6.2,1.4,5.1-7.5,2.7-10.4c-3-3.7-8.8-2.8-9.8,2.1c-0.9,4.8,2.8,11,8.2,9
				c5.4-2,5.6-9.4,2-13.1c-4.2-4.3-10.5-2.5-12.6,2.8c-2.2,5.5,0.8,14.1,6.6,16c0.3-1.9,0.5-3.8,0.8-5.7
				c-12.3-0.9-6.2,20.2,2.9,13.1c4.2-3.3,5.5-9.5,4.5-14.5c-0.7-3.7-5.2-7.7-8.3-3.4c-2.5,3.4-0.1,11.2,3.8,12.6
				c4.6,1.6,7.4-3.6,7.4-7.5c-0.2-12.1-18.1-7.4-13.3,3.1c6.2,13.5,27.8-2.6,15.7-12.4c-2-1.7-5.8-0.2-4.8,2.8
				c2,6.1,9.6,12,14.9,5.4c1-1.2,1.2-2.9,0-4.1c-6-5.6-9.2,6.8-9,10.8c0.4,5.7,3.2,17.8,11.5,13.6c7.1-3.6,4.1-16.1,0.1-21
				c-1.5-1.9-4.1-2.6-6.1-0.9c-2.9,2.4-1.2,6,1,8.1c1.2,1.2,2.9,1,4.1,0c3.7-3.2,3.5-8.9,0.1-12.3c-4.1-4.1-11.3-3.7-16.3-1.9
				c-5.1,1.8-9.3,6.5-8.9,12.2c0.4,4.9,5.1,9,10.1,8c3.6-0.7,7.1-6.3,2.6-8.5c-4.6-2.3-8.9,4.3-8.9,8.2c0,13.5,22.8,10.2,21.5-1.4
				c-0.4-4-5.5-7-8.8-4.1c-3.3,2.8-1.8,9.2,2.4,10.3c5,1.3,7.6-4.7,5.3-8.4c-2.8-4.5-9.7-5.2-13.6-1.9c-3.2,2.7-3.2,8.3,1.3,9.5
				c4.7,1.3,8.2-3.9,7.5-8.1c-1.6-11.3-19.6-3.8-12.4,5.3c2.8,3.6,10.8,4.1,11.2-1.8c0.4-5.6-7.3-8.6-11.8-7.4
				c-5.6,1.5-9,8-6.7,13.4c3,7,14.6,4.2,20.5,4.2c-0.3-1.9-0.5-3.8-0.8-5.7c-4.4,1.2-8.5,1.5-13,0.6c-2.8-0.6-4.9,2.6-2.8,4.8
				c3.6,3.9,8.7,5.2,13.6,3.4C71.4,294.3,69.9,288.7,66.4,289.9L66.4,289.9z"/>
		</g>
	</g>
	<g>
		<g>
			<path class="st3" d="M55.4,245.6c-5.7,1.4-9.5,5.4-12.8,9.9c-1.8,2.4-3.5,5-3.8,8c-0.3,2.9,0.7,5.4,0.2,8.4c-0.3,2-1,3.9-0.1,5.9
				c0.5,1.1,1.4,1.4,1.9,2.4c0.8,1.6,0.2,2.7,0.2,4.2c-0.1,2,0.5,3.7,1.8,5.3c1,1.3,4.8,3.2,5,4.8c0.2,2,1.7,3.1,3.7,2.8
				c0.8-0.1,3.5,2.7,4.7,3.1c1.6,0.5,2.9,0.1,4.3-0.6c3.4-1.5,0.5-6.5-2.9-5c0,0-3.4-2.7-3.6-2.8c-1.5-0.7-2.5-0.6-4.1-0.3
				c1.2,0.9,2.4,1.9,3.7,2.8c-0.4-3.9-2.8-4.8-5.2-7.4c-1.8-2-1.1-3.8-1.2-6.3c-0.1-1.9-0.8-2.8-1.9-4.3c-1.5-2.1-0.5-3.3-0.1-5.7
				c0.4-2.5-1.1-4.8-0.7-7.2c0.8-5.1,7.6-11.3,12.4-12.5C60.5,250.3,59,244.7,55.4,245.6L55.4,245.6z"/>
		</g>
	</g>
	<g>
		<g>
			<path class="st4" d="M64.8,255.6c-0.5,3.8,1.5,5.9,4.5,7.8c1.8,1.2,8.9,9.3,7.4,11.4c-0.9,1.3-0.2,3.2,1,4
				c5.2,3.4-8.5,13.8-10.1,16.1c-2.1,3.1,2.9,6,5,2.9c1.8-2.6,4.7-4,6.8-6.4c1.8-2.1,3.3-4.6,4.4-7.1c1.9-4.2,0.5-8.1-3.2-10.6
				c0.3,1.3,0.7,2.6,1,4c2.5-3.5,1.1-7.5-1.5-10.6c-0.9-1.1-2.1-2-2.8-3.2c-0.7-1.1-0.9-2.5-1.7-3.5c-1.3-1.6-5.3-2.4-5-4.9
				C71.1,251.9,65.3,252,64.8,255.6L64.8,255.6z"/>
		</g>
	</g>
	<g>
		<g>
			<path class="st5" d="M67.5,302.4c1.2,6.7,2.3,13.4,3.2,20.1c0.5,3.7,6.1,2.1,5.6-1.5c-1-6.7-2-13.4-3.2-20.1
				C72.5,297.2,66.9,298.8,67.5,302.4L67.5,302.4z"/>
		</g>
	</g>
	<g>
		<g>
			<path class="st6" d="M58.8,302.1c1.3,7.9,2.5,15.8,3.8,23.8c0.6,3.7,6.2,2.1,5.6-1.5c-1.3-7.9-2.5-15.8-3.8-23.8
				C63.8,296.9,58.2,298.4,58.8,302.1L58.8,302.1z"/>
		</g>
	</g>
</g>
<g>
	<g>
		<g>
			<path class="st1" d="M30.4,136.4c-0.1-4.8-0.2-9.6-0.4-14.5c-0.1-4.3-1.3-10-0.3-14.3c-0.7,0.7-1.3,1.3-2,2
				c1.2-0.1,2.4-0.1,3.7-0.1c-1-1-1.9-1.9-2.9-2.9c0,9.7,0,19.4,0.1,29.1c0,3.7,5.8,3.7,5.8,0c0-9.7,0-19.4-0.1-29.1
				c0-1.6-1.3-2.9-2.9-2.9c-1.7,0-3.5-0.2-5.2,0.3c-0.9,0.3-1.8,1-2,2c-0.9,4.3,0,9.5,0.1,13.9c0.1,5.5,0.3,10.9,0.4,16.4
				C24.7,140.2,30.5,140.2,30.4,136.4L30.4,136.4z"/>
		</g>
	</g>
	<g>
		<g>
			<path class="st2" d="M25.5,102.3c-2,0.8-3.8,0.4-5.6-1.3c0.6-1.1,0.5-2.6-0.5-3.5c-6.3-5.8-7.4-16.8-5-24.7
				c1.4-4.5,4.7-6.7,8.8-8.6c3.5-1.5,6.2-2.5,8.4,1c1.1,1.7,1.7,3.7,2.5,5.6c1,2.4,1.9,6.2,3.9,8.1c0.7,0.6,1.5,0.9,2.2,1.3
				c2.8,1.7,4,3.6,4.2,7c0.3,4.1-0.3,10.8-4.2,12.9c-3.9,2.1-8.9,2.8-13.3,3c-3.7,0.2-3.7,6,0,5.8c5.8-0.4,12.8-1.2,17.7-4.8
				c4.6-3.4,5.4-9.8,5.6-15.1c0.2-4.8-1.3-10.3-5.6-13.1c-0.7-0.4-2.2-0.8-2.7-1.5c-1.1-1.2-1.5-3.7-2.2-5.2
				c-1.1-2.7-2.1-5.7-3.8-8.1c-3-4.3-7.6-5.4-12.4-3.5c-5,1.9-10.6,4.7-13.1,9.6c-5.2,10.2-3.7,26.3,4.9,34.2
				c-0.2-1.2-0.3-2.3-0.5-3.5c-1.5,2.8-1.2,5.8,1,8.1c3,3.1,7.3,2.5,11.1,1.7C30.6,107.1,29.1,101.5,25.5,102.3L25.5,102.3z"/>
		</g>
	</g>
	<g>
		<g>
			<path class="st2" d="M30.9,102.1c-2.9,0.5-5.4-0.7-7-3.1c-1.1,1.4-2.2,2.8-3.3,4.3c4.9,1.9,10,2.5,15.2,1.9
				c2.9-0.3,4.3-5.2,0.8-5.7c-3.1-0.5-6.2-0.9-9.3-1.4c-2.1-0.3-6.9-0.2-5.4-4.5c0.9-2.9,4.1-1.4,5.7-1.5c0.8,0.9,1.4,0.7,1.9-0.5
				c0.6-1.4,1.2-1.4,1.6,0c1.9,0.6,5.3,3.2,3.6,5.2c-0.6,0.8-3.5,1.5-4.6,1.2c-1.1-0.8-2.2-1.6-3.4-2.4c-0.2-2.6,0.6-3.8,2.5-3.9
				c-0.8-0.5-1.7-1-2.5-1.4c-4.1-5.4-1.5-9.7,4.8-10.4c1.8-0.2,3.6-0.1,5.3,0.4c2,0.6,6.5,3.8,2.9,5.9c1.3,0.3,2.6,0.7,4,1
				c-3-0.2-4,0.8-2.9,2.9c0.3,1.5,0.5,3,0.5,4.6c0.3,1.8-0.5,3.1-2.5,3.8c-0.2-0.8-0.3-1.6-0.4-2.4c-0.3-1.8-0.4-3.6-0.3-5.4
				c0.1-0.9,0.7-6.2,2.2-6.2c-0.8-0.5-1.7-1-2.5-1.4c0.1,0.2,0.2,0.3,0.4,0.5c0.2-1.2,0.3-2.3,0.5-3.5c-3.1,2.8-4.2-3.3-4.4-4.4
				c-1.6,0.9-3.2,1.9-4.8,2.8c5,5.7-9.8,10.5-5,1.6c-0.8,0.5-1.7,1-2.5,1.4c-0.6,0.1-0.6,2.9-0.9,3.8c-0.2,0.8-0.5,1.6-1,2.3
				c-1,2.1-1.5,1.9-1.4-0.3c3,0.7,5.3-3.9,2.2-5.3c-1.7-0.8-2.1-3.7-2.2-5.2c0.1-0.9,0.1-1.8,0.2-2.6c1.8-0.3,3.1,0.2,3.8,1.6
				c0.9,0.2,1.9,0.5,2.8,0.7c0.3-2.5-0.2-3.5-1.5-2.9c1.9,0.3,3.8,0.5,5.7,0.8c-0.1-1.5,0.2-2.9,0.7-4.3c0.1-2.2,0.7-2.9,1.8-2.1
				c0.7,0.1,1,0.6,0.9,1.4c1.2-0.7,1.7-1.7,1.4-3.1c-1.9,0.3-3.8,0.5-5.7,0.8c0.3,1.1,1.5,4.6,0.3,5.6c0.9-0.2,1.9-0.5,2.8-0.7
				c-2.3-0.4-2.7-5.3-2.7-6.9c-1.2,0.9-2.4,1.9-3.7,2.8c-0.4-0.9-0.9-1.8-1.3-2.7c-0.8-2.3-3.9-2.9-5.3-0.7
				c-3.5,5.6-8,13.4-8.2,20.2c-0.1,6.4,5.1,8.4,10.6,9c-0.8-1.5-1.7-2.9-2.5-4.4c-3,4.3-3.1,9.3-2.8,14.3c1.6-0.7,3.3-1.4,4.9-2
				c-6.7-5.6-6.9-14.3-6.9-22.4c0-3.7-5.8-3.7-5.8,0c0,9.6,0.7,19.9,8.6,26.5c1.8,1.5,5.1,0.7,4.9-2c-0.2-4.1-0.4-7.9,2-11.4
				c1.4-2-0.5-4.2-2.5-4.4c-2.9-0.3-4.7-1-4.6-4.4c0.1-1.7,1.1-3.8,1.7-5.3c1.4-3.8,3.3-7.3,5.4-10.7c-1.8-0.2-3.5-0.5-5.3-0.7
				c1.4,4.1,5.8,7.9,10.2,5c4.1-2.7,2.5-8.2-1.8-9.5c-1.8-0.5-3.7,0.9-3.7,2.8c0.1,4,2,12.5,7.4,12.5c5.9,0.1,4.7-8.5,3.7-12
				c-0.9-3.1-5.6-2.5-5.7,0.8c-0.1,3.9,1.5,8.6,6.3,7.9c4.2-0.6,4.4-4.8,3.1-8c-1.3-3.4-4.4-6.1-8.2-4.6c-4.6,1.9-6,8.5-6.1,12.8
				c-0.1,3.2,5,4,5.7,0.8c1.1-4.9-2.9-11.7-8.4-7.6c-3.6,2.7-3.6,11.5,0.7,13.6c5.6,2.7,6.5-5.6,5-8.9c-2.1-4.9-8.8-5.4-10.5,0
				c-1.6,4.8,1.8,11.9,7.6,9.7c5.2-1.9,5.9-8.7,2.9-12.7c-3.6-4.7-10.2-3.5-12.9,1.5c-2.5,4.7-1.4,13.9,3.9,16.4
				c0.7-1.8,1.5-3.5,2.2-5.3c-12.6-3-9.5,19.3,0.7,13.1c4.4-2.7,6.8-8.4,6.5-13.4c-0.2-3.8-4.1-8.3-7.7-4.6c-2.9,3-2,11.1,1.8,13
				c5.1,2.6,8.7-3.8,8.6-8.1c-0.4-11.5-18.5-6.3-13.1,4.4C23,97.9,43.3,85.2,33.5,74c-2.1-2.4-5.2,0.3-4.8,2.8
				c1,6.8,7.9,12.4,14.1,7c0.9-0.8,1.2-2.6,0.5-3.5c-4.9-6.4-10.1,4-10.7,8.3c-0.7,5.6-0.2,18.1,8.5,16.1c8.1-1.9,7.1-14.9,4.2-20.5
				c-3.3-6.4-10.9-0.2-6.5,5.7c0.9,1.3,2.5,1.9,4,1c4.2-2.5,5.3-8,2.5-12.1c-3.1-4.6-9.7-5.6-14.8-4.9c-5.6,0.8-11.1,4.4-11.8,10.4
				c-0.5,4.8,3.1,9.8,8.3,9.9c3.6,0.1,8.3-4.6,4.5-7.8c-4-3.4-9.5,2.4-10.3,6.2c-2.5,12.3,17.4,14.5,21,4.3c1.5-4.2-2.4-9.6-7.1-7.6
				c-3.9,1.7-4.2,8.2-0.7,10.5c4.2,2.7,8.7-1.9,7.7-6.2c-1.2-5.3-8.1-7.5-12.7-5.5c-3.7,1.7-5.9,7.2-1.8,9.8
				c4.1,2.6,8.7-1.5,9.3-5.5c1.6-11.7-18-9-13.3,1.6c1.9,4.2,8.5,6.5,11.2,1.7c2.8-5-4.1-10-8.5-10.3c-6.1-0.4-11.5,5.3-10.5,11.4
				c1.3,8.1,13.3,7.2,19.4,8.1c0.3-1.9,0.5-3.8,0.8-5.7c-4.8,0.5-9.2,0-13.7-1.7c-2.4-0.9-4.6,2.2-3.3,4.3c3.1,4.8,7.9,6.7,13.5,5.8
				C36.1,107.1,34.5,101.5,30.9,102.1L30.9,102.1z"/>
		</g>
	</g>
	<g>
		<g>
			<path class="st3" d="M28.1,56.5c-6.1,0.4-10.8,3.8-15,8c-1.7,1.8-3.5,3.7-4.4,6c-1.2,3.3-0.2,6.3-1.6,9.6c-0.9,2.1-1.6,4-0.6,6.3
				C6.8,87.2,7.8,88,8,88.7C8.3,90,7.5,91,7.2,92.2C6.8,94.2,7,96,7.9,97.8c1.1,2,4.4,3.9,4.3,6.3c-0.1,1.6,1.4,2.9,2.9,2.9
				c1.3,0,2.9,3,4.2,3.7c1.5,0.8,2.8,0.8,4.4,0.4c3.6-0.9,2.1-6.5-1.5-5.6c-0.5,0.1-2.8-2.9-3.4-3.3c-1.2-0.8-2.2-0.9-3.6-0.9
				c1,1,1.9,1.9,2.9,2.9c0.2-3.6-2-5-3.9-7.7c-1.7-2.4-0.4-4.1-0.2-6.8c0.1-1.7-0.5-2.6-1.1-4.1c-0.5-1.2-0.9-1.5-0.5-3
				c0.3-0.9,0.8-1.7,1.1-2.6c0.7-2.1,0.1-3.7,0.3-5.8c0.5-5.5,9.3-11.5,14.3-11.9C31.8,62,31.8,56.2,28.1,56.5L28.1,56.5z"/>
		</g>
	</g>
	<g>
		<g>
			<path class="st4" d="M35.5,67.7c-1,3.4,0,6.4,2.8,8.6c0.6,0.4,1.4,0.6,1.9,1.2c0.4,0.5,0.5,2.2,0.8,2.9c0.7,1.8,5,6.4,3.1,8.2
				c-1.1,1.1-1.2,3,0,4.1c5,4.6-10,12-12.2,14.2c-2.6,2.7,1.5,6.8,4.1,4.1c2-2.1,4.7-3,7-4.7c2.3-1.7,4.2-3.9,5.9-6.2
				c2.8-3.9,2.9-8.2-0.7-11.5c0,1.4,0,2.7,0,4.1c3-3.1,2.6-7.1,0.6-10.6c-1.4-2.4-2.2-4.8-3.4-7.3c-0.8-1.6-4.8-3.9-4.3-5.6
				C42.2,65.6,36.6,64.1,35.5,67.7L35.5,67.7z"/>
		</g>
	</g>
	<g>
		<g>
			<path class="st5" d="M30.4,114.3c0.1,6.8,0,13.6-0.1,20.4c-0.1,3.7,5.7,3.7,5.8,0c0.2-6.8,0.2-13.6,0.1-20.4
				C36.1,110.6,30.3,110.5,30.4,114.3L30.4,114.3z"/>
		</g>
	</g>
	<g>
		<g>
			<path class="st6" d="M21.8,112.5c-0.1,8-0.1,16-0.2,24.1c0,3.7,5.8,3.7,5.8,0c0.1-8,0.1-16,0.2-24.1
				C27.6,108.8,21.8,108.8,21.8,112.5L21.8,112.5z"/>
		</g>
	</g>
</g>
<g>
	<g>
		<g>
			<g>
				<g>
					<g>
						<path class="st7" d="M617.6,764.1c-15.9,0.8-30.8,4.9-44.9,12.1c-9.4,4.8-6.1,18.2,2.8,21.1c7,2.3,14.4,2.3,21.4,0
							c-3-7-5.9-14.1-8.9-21.1c-9.1,5.4-18.9,11.8-29.7,12.9c-2.3,0.2-4.8,0.2-7.1-0.2c-1.2-0.2-2.4-0.6-3.6-1
							c-0.2-0.1-2.3-0.8-1.2-0.4c0.1,0.2,0.3,0.4,0.4,0.6c-0.6-1.1-0.7-1.2-0.4-0.5c0.3,1.3-0.4-1.7-0.4-1.6
							c-0.5-1.8-0.8-3.5-1.4-5.2c-4.4-12.3-15.9-16.4-27.2-20.6c-10.7-4-18.7-10.9-26.9-18.5c-4.7,6-9.3,12.1-14,18.1
							c12.5,6.4,21.2,16.2,31.1,26.2c10.5,10.6,22.3,19.5,37,23.2c14.4,3.7,20.5-18.6,6.1-22.2c-12.4-3.2-20.4-10.7-29.5-20.1
							c-10-10.3-20.1-20.4-33-27c-11.2-5.7-24.1,8.8-14,18.1c10.3,9.5,20.6,18,33.8,23.2c5,2,11.3,3.6,15,6.9
							c-0.4-0.3-0.9-1.9-0.5-0.6c0.3,0.9,0.5,1.7,0.7,2.6c0.7,2.8,1.4,5.3,2.6,7.9c5.8,12.1,21.8,15.5,34,14.1
							c14.5-1.6,27.2-8.5,39.6-15.9c11-6.5,3.8-25.2-8.9-21.1c-3.5,1.1-5.7,1.1-9.2,0c0.9,7,1.8,14.1,2.8,21.1
							c10.4-5.3,21.7-8.4,33.3-9c6.2-0.3,11.5-5.1,11.5-11.5C629.1,769.7,623.8,763.8,617.6,764.1L617.6,764.1z"/>
					</g>
				</g>
				<g>
					<g>
						<path class="st7" d="M497.2,766c18.8,0.6,37.6,1.3,56.3,2c9,0.3,18.1,0.7,27.1,1c4.9,0.2,9.7,0.3,14.6,0.5
							c2.6,0.1,5.1,0.2,7.7,0.3c1.1,0,2.3,0.1,3.4,0.1c2.6,0.2,1.4-0.2-3.7-1.3c-1.9-3.3-3.8-6.6-5.7-10c0,0,0,0.1,0,0.1
							c0.5-1.9,1-3.9,1.6-5.8c-6,8.6,2.3,16.8,10.2,18.6c-1.7-6.4-3.4-12.9-5.1-19.3c-3.7,4-5.8,8.8-4.6,14.4
							c0.4,1.6,0.9,3.2,1.8,4.7c2.6,4.3-1.3-1.8,0.2-5.5c1-1.7,2-3.4,3-5.1c3.7-1.9,4.1-2.3,1.3-1.2c-1.2,0.4-2.4,0.7-3.5,1.1
							c-1.8,0.5-3.6,1-5.3,1.5c-4.2,1.1-8.3,2.1-12.6,3c-6.8,1.4-13.7,2.5-20.7,2.9c-2.7,0.2-5.3,0.2-8,0c-1.4-0.1-1.5-0.1-0.3,0
							c-0.7-0.1-1.5-0.3-2.2-0.4c-1.1-0.3-2.2-0.6-3.3-0.9c-4.3-1.4-10.6-5.4-15.6-8.9c-5.1-3.6-12.8-0.9-15.8,4.1
							c-3.4,5.7-1,12.2,4.1,15.8c7.7,5.4,16.1,10.5,25.5,12.4c9.5,1.9,18.7,0.9,28.2-0.3c12.1-1.6,24.1-4.1,35.6-8
							c6.3-2.1,12.3-5.7,12.4-13.3c0-2.4-0.7-4.9-1.9-7c-0.2-0.4-0.5-1-0.9-1.3c-0.1-0.2-0.2-0.4-0.4-0.6c1.5,2.8,1.2,5.8-0.9,8.9
							c5.5-6.1,3.8-17.3-5.1-19.3c-1.8-0.4-3.3-1.6-0.6,0.1c1.4,1.4,2.8,2.8,4.1,4.1c0-0.1-0.1-0.1-0.1-0.2c0.5,1.9,1,3.9,1.6,5.8
							c0-0.1,0-0.1,0-0.2c-0.5,1.9-1,3.9-1.6,5.8c1.1-1.9,1.6-4,1.7-6.2c0.3-4-2.4-8-5.7-10c-3.6-2.2-8.3-1.9-12.4-2
							c-5.3-0.2-10.6-0.4-16-0.5c-9.7-0.3-19.4-0.7-29.1-1.1c-19.9-0.8-39.8-1.5-59.6-2.2C482.3,742.4,482.3,765.5,497.2,766
							L497.2,766z"/>
					</g>
				</g>
				<g>
					<g>
						<path class="st7" d="M462,756.9c14.3,7.6,26.2,19.6,38.9,29.5c12.7,10,25.9,17.6,41.5,22.1c14.3,4.1,20.4-18.2,6.1-22.2
							c-13.1-3.7-24.5-10.6-34.7-18.8c-12.9-10.4-25.5-22.6-40.2-30.5C460.5,729.9,448.9,749.8,462,756.9L462,756.9z"/>
					</g>
				</g>
				<g>
					<g>
						<path class="st7" d="M589.7,795.9c11.2,0.3,23.4,5.5,33,11c4.6,2.6,9.5,2.6,14.3,0.7c3.3-1.3,6.6-2.8,9.8-4.5
							c1.6-0.9,4-2.5,5.4-2.6c-2.7-6.6-5.4-13.1-8.2-19.7c-4.7,4.6-10.4,7.9-16.9,7.8c-0.3,0-3.1-0.3-2.8-0.2
							c-1.4-0.5-1.6-0.5-0.6,0c-0.6-0.3-1.2-0.6-1.8-1c2,1.3,0-0.1-0.5-0.6c-0.8-0.9-1.6-1.7-2.4-2.6c-11.7-12.1-30.1-9.7-43.2-1
							c-5.2,3.4-7.4,10.2-4.1,15.8c3,5.2,10.6,7.6,15.8,4.1c3-2,6.1-3.7,9.7-4.2c1-0.1,2.1-0.1,3.1,0c-0.7-0.2-0.6-0.2,0.1,0
							c0.5,0.1,1.1,0.3,1.6,0.4c-1.2-0.5-1.3-0.5-0.2,0.1c-2.3-1.7,0.5,0.6,0.9,1.1c0.8,0.8,1.5,1.8,2.4,2.6c2.1,2,4.4,3.9,7,5.2
							c16.2,8.3,36.2,0.8,48.3-11.2c6.7-6.7,2.1-20.4-8.2-19.7c-7.6,0.6-13.1,4-19.8,7.2c-1.7,0.8-6.4,1.6-2,1.7
							c1.5-0.3,2.9,0,4.2,0.8c-0.2-0.2-0.5-0.3-0.7-0.5c-0.6-0.5-1.4-1-2.1-1.4c-5.9-3.4-13-5.5-19.4-7.8
							c-7.3-2.6-14.8-4.4-22.6-4.6C574.8,772.4,574.8,795.5,589.7,795.9L589.7,795.9z"/>
					</g>
				</g>
				<g>
					<g>
						<path class="st7" d="M652,801.3c7.4-0.5,15.1-1.3,22.4-0.2c7.3,1.2,14.1,4.7,21.2,7c4.8,1.6,9.2,2.4,14.1,0.6
							c5.6-2,11.9-6,17.9-5.4c6.2,0.6,11.5-5.8,11.5-11.5c0-6.8-5.3-10.9-11.5-11.5c-7.7-0.8-15,2.6-22,5.4
							c-0.5,0.2-2.4,0.7-2.9,1.1c-1.2,1.2,2-0.1,0.7,0c3.1-0.3,1.4,0.2,0.1-0.3c-1.6-0.6-3.3-1.1-5-1.6c-7.7-2.6-14.7-5.6-22.8-6.7
							c-7.9-1-15.7-0.5-23.7,0c-6.2,0.5-11.5,5-11.5,11.5C640.4,795.6,645.7,801.7,652,801.3L652,801.3z"/>
					</g>
				</g>
				<g>
					<g>
						<path class="st7" d="M725.5,779c-19,1.8-38,2.2-57,0.2c-8.7-1-17.3-2.5-25.9-4.3c-4.9-1-9.7-2.1-14.5-3.2
							c-4.1-1-6.8-1.1-9.3-4.3c-1.7,6.4-3.4,12.9-5.1,19.3c19.2-3.9,38.8-4,58.4-4.2c0-7.7,0-15.4,0-23.1
							c-9.5,0.5-18.2-5.4-27.1-7.7c-10.6-2.8-21.7-3.1-32.7-3.4c1.9,7.2,3.9,14.3,5.8,21.5c2.9-2,5.9-1.7,9.8-1.4
							c5.6,0.3,11.2,0.7,16.9,1.1c10.3,0.7,20.6,1.5,31,2.3c9.9,0.8,19.9,1.5,29.8,2.2c5.5,0.4,10.9,0.8,16.4,1.1
							c5.3,0.3,10.3,0.4,15.3,2.4c-2.7-4.7-5.4-9.5-8.1-14.2c-0.2,0.4-0.3,0.8-0.5,1.2c1-1.7,2-3.4,3-5.1c0.7-0.8,3.3-0.9,0.9-0.6
							c-1.5,0.2-3,0.7-4.5,1c-2.4,0.5-4.8,1-7.3,1.5c-4.1,0.8-7.6,1.4-10.7,1.7c-9,0.9-18.1,0.3-27.1-0.5
							c-6.2-0.6-11.5,5.7-11.5,11.5c0,6.7,5.3,10.9,11.5,11.5c11.7,1.1,23.1,1.2,34.8-0.5c5.5-0.8,11-1.9,16.4-3.1
							c8.2-1.8,13.8-4.4,17.2-12.6c2.5-6.2-2.9-12.1-8.1-14.2c-11.2-4.5-25.1-3.4-37-4.3c-10.8-0.8-21.5-1.6-32.3-2.4
							c-11-0.8-22-1.6-32.9-2.4c-11.4-0.8-24.7-3.3-34.8,3.7c-9.2,6.4-6.2,21.2,5.8,21.5c10.2,0.3,20.4,0.5,30.1,3.6
							c9.9,3.2,18.9,8,29.7,7.5c14.7-0.7,14.9-23.2,0-23.1c-21.6,0.2-43.2,0.7-64.5,5c-9.3,1.9-10.1,13.1-5.1,19.3
							c6.9,8.5,18.6,10.1,28.7,12.3c10.8,2.4,21.6,4.3,32.5,5.7c20.6,2.6,41.2,2.3,61.8,0.4c6.2-0.6,11.5-4.9,11.5-11.5
							C737,784.8,731.7,778.4,725.5,779L725.5,779z"/>
					</g>
				</g>
				<g>
					<g>
						<path class="st7" d="M674.4,798.8c11.8,12.5,29.6,15.8,44.9,8c5.6-2.8,7.2-10.6,4.1-15.8c-3.3-5.6-10.2-7-15.8-4.1
							c-2.6,1.3-5.6,1.6-8,1.1c-3.7-0.8-6.3-2.6-9-5.5C680.5,771.7,664.2,788,674.4,798.8L674.4,798.8z"/>
					</g>
				</g>
				<g>
					<g>
						<path class="st7" d="M638.8,805.9c6.9,0.7,13.7,0.2,20.6-1.1c5.9-1.1,9.9-2,15.8-0.6c12.8,3.2,25.9,4.5,39.1,3.4
							c6.2-0.5,11.5-4.9,11.5-11.5c0-5.8-5.3-12.1-11.5-11.5c-6.4,0.6-12.8,0.6-19.2,0c-5.9-0.5-11.5-2.2-17.3-3.4
							c-13.2-2.8-25.7,3-39,1.7c-6.2-0.6-11.5,5.7-11.5,11.5C627.3,801.1,632.6,805.3,638.8,805.9L638.8,805.9z"/>
					</g>
				</g>
				<g>
					<g>
						<path class="st7" d="M714.8,810.1c6.2-0.8,12.6-2.9,14.5-9.8c0.8-3,2-7.3-1.3-1.4c-3.2,5.7-0.7,2.5,3.2,2
							c3.6-0.5,5.3,0.6,8.1,2.7c4.6,3.5,9.4,5.6,15,6.8c0-7.4,0-14.8,0-22.2c-3.6,1.3-7.9-2-11.1-3.3c-2-0.8-4-1.6-6.2-2
							c-2-0.4-4.6-0.2-6.4-1.1c-5.6-2.7-12.5-1.5-15.8,4.1c-3,5.1-1.5,13.1,4.1,15.8c6,2.9,12.5,2.9,18.4,5.7
							c7.3,3.4,15.2,6,23.1,3.1c4.8-1.8,8.5-5.7,8.5-11.1c0-4.9-3.6-10-8.5-11.1c-2-0.5-4-0.8-5.8-1.8c-2.3-1.2-4.1-3.3-6.3-4.6
							c-5.2-3.2-11.7-4.5-17.7-3.9c-5.8,0.6-12.1,1.9-17,5.1c-2.9,1.9-5.3,4.9-6.2,8.2c-0.3,1.2-0.5,2.5-0.5,3.7
							c-0.1,3.2-0.2-1.4,1.1-3c1.4-1.4,2.8-2.8,4.1-4.1c0.9-0.2,1.9-0.5,2.8-0.7c-6.2,0.8-11.5,4.7-11.5,11.5
							C703.2,804.2,708.6,810.9,714.8,810.1L714.8,810.1z"/>
					</g>
				</g>
				<g>
					<g>
						<path class="st7" d="M723.9,799.1c8.2,0,16.6-0.4,24.8,0.1c-1.8-0.5-3.7-1-5.5-1.5c-0.1-0.1-0.2-0.2-0.2-0.3
							c-0.9-1.6-1.9-3.2-2.8-4.8c-0.3-0.8,0,2.4-0.1,3.4c-0.1,2-0.2,4-0.3,6.1c-0.3,6.1,5.3,10.6,10.9,10.9
							c9.7,0.4,17.7-5.5,24-12.2c6.1-6.6,11.8-13.6,17.7-20.3c5.7-6.6,2.4-19.2-7.7-18.6c-14.4,0.9-28.7,1.1-43.1,0.7
							c1,7.1,1.9,14.3,2.9,21.4c9.4-3.6,19.1-4,29.1-4.3c0-7.3,0-14.5,0-21.8c-9.3,0.5-18.3,0.9-27.1-2.6c-1,7.1-1.9,14.3-2.9,21.4
							c14.1,0.5,27.9,2.3,41.7,5.4c13.6,3.1,19.5-17.9,5.8-21c-15.6-3.6-31.5-5.7-47.5-6.2c-5.4-0.2-10.1,4.3-10.7,9.4
							c-0.7,5.8,2.6,9.9,7.8,12c10.4,4.2,21.8,4,32.9,3.4c13.9-0.8,14.1-22.2,0-21.8c-11.7,0.3-23.7,0.9-34.9,5
							c-11.2,4.2-10,21,2.9,21.4c14.4,0.5,28.7,0.2,43.1-0.7c-2.6-6.2-5.1-12.4-7.7-18.6c-4.7,5.4-9.4,10.9-14.1,16.3
							c-2.9,3.3-7.3,10.1-12.1,9.9c3.6,3.6,7.3,7.3,10.9,10.9c0.5-8.9,1.9-20-8.6-23.7c-4.5-1.6-9.6-1-14.4-1c-4.9,0-9.7,0-14.6,0
							C709.9,777.3,709.9,799.1,723.9,799.1L723.9,799.1z"/>
					</g>
				</g>
				<g>
					<g>
						<path class="st7" d="M800.8,770.9c0.9-1.7,1.8-3,3.2-4.3c-4.3-2.5-8.6-5-12.9-7.5c-0.1,0.4-0.2,0.7-0.3,1.1
							c0.7-1.1,1.3-2.3,2-3.4c-0.3,0.2-0.5,0.5-0.8,0.7c1.1-0.7,2.3-1.3,3.4-2c-3.1,1.2-8.6,0.4-12.2,0.5c-4.7,0.1-9.3,0.2-14,0.2
							c-9.9,0.2-9.9,15.5,0,15.4c7.1-0.1,14.3-0.2,21.4-0.4c6.5-0.1,13.4-0.6,15.2-8.1c1.9-7.4-7.3-12.9-12.9-7.5
							c-2.2,2.2-4.1,4.7-5.6,7.4C782.7,771.8,796,779.6,800.8,770.9L800.8,770.9z"/>
					</g>
				</g>
				<g>
					<g>
						<path class="st8" d="M458.9,747.5c11.1,11.9,23.7,22.1,36.9,31.4c6.2,4.4,12.8,8.4,18.9,12.9c4.5,3.3,6.1,8.3,9.9,12.3
							c9.9,10.5,29.6,12.4,42.9,9.8c7.6-1.4,14.1-5.4,21-8.6c5.2-2.4,11.1-4.2,15.4,0.6c6.6,7.4,17.5-3.5,10.9-10.9
							c-10.9-12.1-26.2-7-38.6-0.7c-6.9,3.5-13.5,5.5-21.4,5.1c-5.9-0.3-15.2-1.5-19.4-6.2c-3.6-4.1-5.6-9-10-12.5
							c-6-4.8-12.7-8.7-19-13c-13.2-9.2-25.7-19.3-36.7-31.1C463,729.3,452.2,740.2,458.9,747.5L458.9,747.5z"/>
					</g>
				</g>
				<g>
					<g>
						<path class="st8" d="M608.2,806.7c5.3,1.3,9.2,5.1,14.8,5.5c9,0.6,17.9-2.9,26.3-5.6c17.6-5.5,34.6-3.1,49.9,7.2
							c8.2,5.5,15.9-7.8,7.8-13.3c-15.7-10.5-34.8-14.8-53.3-11c-9.1,1.8-17.7,6.4-26.9,7.2c-0.9,0.1-1.9,0-2.7,0.1
							c-0.4,0.1-1.5-0.3-0.7-0.1c1.3,0.4-0.8-0.6-1.3-1c-3-1.9-6.3-3.1-9.8-4C602.7,789.6,598.6,804.4,608.2,806.7L608.2,806.7z"/>
					</g>
				</g>
				<g>
					<g>
						<path class="st8" d="M702.1,815c7.1,1.4,12.8-1.1,18.7-4.9c2.5-1.7,4.9-3.5,7.3-5.3c0.9-0.7,1.8-1.6,2.7-2.2
							c-0.1,0.1,1.4-0.7,0.3-0.3c2-0.6,8.1,3.4,10.9,5c6.4,3.8,13.1,6.1,20.6,6.1c9.9,0,9.9-15.3,0-15.4c-11.8-0.1-20-11.8-32-11.2
							c-4.6,0.2-8,2.7-11.5,5.6c-1.7,1.4-3.5,2.8-5.3,4c-1.8,1.2-5.3,4.3-7.6,3.9C696.5,798.2,692.3,813.1,702.1,815L702.1,815z"/>
					</g>
				</g>
				<path class="st9" d="M471.7,759.3l-22.5-22.5l362.7,17.6l-1,2c-7.8,15.8-17.9,29.8-29.7,41.1l-18,17.2c0,0-11.4,1.9-20.5-3.1
					c-2.8-1.5-5.7-2.5-8.7-3.1c-7.4-1.6-19.3-3.2-24,1.2c0,0-0.5,9.2-17.9,2.3c0,0-29-12.2-42.6-4.3c0,0-5,14.5-23.9,3.3
					c0,0-19.2-13.2-34.3-7.2c0,0-36.2,22.7-61,4.3C530.3,808,517,796.2,471.7,759.3z"/>
				<ellipse class="st10" cx="636.2" cy="781.7" rx="8" ry="9.2"/>
				<ellipse class="st10" cx="732.2" cy="781.7" rx="8" ry="9.2"/>
				
					<ellipse transform="matrix(0.1549 -0.9879 0.9879 0.1549 -194.8402 1335.6112)" class="st10" cx="683.2" cy="781.7" rx="9.6" ry="7.7"/>
			</g>
			<g>
				<g>
					<path class="st11" d="M525.3,838.5c20.8,4.4,39.1-3.7,58.9-8.4c2-0.5,4.1-0.9,6.2-1.2c-2.4,0.4,0.1,0,0.5,0
						c1-0.1,2.1-0.2,3.1-0.2c2-0.1,4.1-0.1,6.2,0.2c-2.6-0.4,0.5,0.3,1.2,0.4c1.6,0.5,2.4,1.2,0.5,0.1c1.4,0.9,3.8,2.9,1.3,0.6
						c1,0.9,2.1,1.9,3.1,2.7c3.6,3.1,7.2,5.7,11.9,7c11,3,21.8-2.1,31.3-7.3c0.1,0,2.6-1.3,1-0.6c0.9-0.4,1.8-0.5,2.7-0.9
						c0.6-0.2,3-0.5,0-0.2c0.9-0.1,1.8-0.1,2.8-0.2c0.9,0,6,0.6,2.9,0c2.4,0.4,4.7,1,7,1.6c8.3,2.4,16.2,5.9,24.6,7.9
						c10.4,2.4,25.1,3.9,33.5-4.1c2.4-2.3,4.1-5,4.9-8.2c0.4-1.5,0.7-3.1,0.6-4.7c-0.3-6.4-13.5,10.8-7.2,10c3.3-0.4,8.6-1,11.7-0.2
						c11.6,2.7,20.8,7.8,31.5,13.9c7.2,4.1,16.8,1.7,21-5.5c4.2-7.1,1.7-16.9-5.5-21c-19.9-11.3-42.5-22.8-66-17
						c-6.5,1.6-12.3,5.2-14.8,11.6c-0.7,1.7-2.8,6.6-1.4,7.9c0.5,0.4,6.9-12.6,9.2-11.8c-1.1-0.4-3.1,0.2-4.2,0.2
						c-0.9,0-1.9-0.1-2.8-0.2c0.7,0.1,2.8,0.6-0.1-0.1c-1.9-0.4-3.8-0.8-5.6-1.4c-4.3-1.2-8.5-2.8-12.7-4.2
						c-8.8-3.1-18.3-6-27.8-5.5c-4.8,0.3-9.5,1.1-13.9,2.9c-3.1,1.2-6.1,2.7-9,4.3c-1,0.5-2,1.1-3,1.6c-1,0.4-1,0.5-0.2,0.2
						c-0.5,0.2-1.1,0.4-1.6,0.5c-0.5,0.1-1,0.3-1.5,0.4c-1.6,0.3-1.8,0.4-0.5,0.2c0.3,0,0.6-0.1,0.8-0.1c-1.4,0-1.4,0,0,0.2
						c3,1.4-2-0.7,1.3,0.4c2.4,0.8,0.2,0-0.4-0.4c2.6,1.8,1.3,0.9-0.2-0.4c-2-1.7-4-3.4-6.1-4.9c-7.9-5.5-18.4-7.2-27.8-6.6
						c-11.5,0.7-22.4,4.1-33.3,7.3c-5.1,1.5-10.2,2.9-15.4,3.8c0.7-0.1,2.6-0.2-0.5,0c-1.3,0.1-2.6,0.2-3.8,0.2
						c-1.3,0-2.6,0-3.8-0.1c-3.2-0.1,1.5,0.4-2-0.4c-7.9-1.6-17,2.3-18.9,10.7C512.8,827.3,516.9,836.8,525.3,838.5L525.3,838.5z"/>
				</g>
			</g>
		</g>
	</g>
	<g>
		<g>
			<path class="st12" d="M520.7,810.7c17.6,2.3,34.6-3,51.7-6.6c8.4-1.8,16.8-3.1,25.4-2.7c8.9,0.4,15.6,3.5,23.6,6.8
				c7.4,3,14.3-1.1,21.6-2.6c8.5-1.8,17.3-2.1,25.9-0.9c8.8,1.2,16.6,4.9,25.1,6.9c7.8,1.8,15.5-0.5,23.2-1.8
				c19.1-3.4,39.5-3.4,54.3,11c3.6,3.4,9-2,5.4-5.4c-11.4-11-26.6-15.6-42.3-15.2c-9.1,0.2-18.1,2-27,3.7c-4.6,0.8-8.7,1.2-13.3,0
				c-4.6-1.2-8.9-3.2-13.4-4.4c-16.5-4.5-33.4-3.5-49.6,1.5c-3.1,1-5,1.3-8.1-0.1c-1.5-0.7-3-1.5-4.6-2.2c-4-1.8-8.1-3.1-12.4-3.8
				c-7.8-1.4-15.8-1.2-23.6-0.1c-20.8,2.7-40.8,11.3-62,8.5C515.8,802.4,515.9,810.1,520.7,810.7L520.7,810.7z"/>
		</g>
	</g>
</g>
</svg>
