<?xml version="1.0" encoding="utf-8"?>
<!-- Generator: Adobe Illustrator 22.1.0, SVG Export Plug-In . SVG Version: 6.00 Build 0)  -->
<svg version="1.1" id="Calque_1" xmlns="http://www.w3.org/2000/svg" xmlns:xlink="http://www.w3.org/1999/xlink" x="0px" y="0px"
	 viewBox="0 0 1280 1024" style="enable-background:new 0 0 1280 1024;" xml:space="preserve">
<style type="text/css">
	.st0{fill:#F9EAE0;}
	.st1{fill:#F6C2DB;}
	.st2{fill:#CAE7F0;}
	.st3{fill:#FDFDFF;}
	.st4{fill:#FDE8CF;}
	.st5{fill:#D7AD75;}
	.st6{fill:#B7D7A5;}
	.st7{fill:#E7EFD4;}
	.st8{fill:#86B46A;}
	.st9{fill:#C9A481;}
	.st10{fill:#F2CCA9;}
	.st11{fill:#FBE9F3;}
	.st12{fill:#C8AE93;}
	.st13{fill:#EF8CB3;}
	.st14{fill:#F9D4E5;}
	.st15{fill:#D56B96;}
	.st16{fill:#DBA26A;}
	.st17{fill:#F2D5B7;}
	.st18{fill:none;stroke:#8E6B42;stroke-width:7.1245;stroke-miterlimit:10;}
	.st19{fill:#8E6B42;}
	.st20{fill:#F197BF;}
	.st21{fill:#FBE5F0;}
	.st22{fill:#EC82AD;}
</style>
<rect x="-94.1" y="-6.9" class="st0" width="1474.1" height="1042.9"/>
<path class="st1" d="M337.4,860.5C287.7,796.5,258,716,258,628.7C258,420,427.2,250.8,636,250.8s377.9,169.2,377.9,377.9
	c0,89.3-31,171.4-82.8,236.1"/>
<path class="st2" d="M756.3,268.1c22.8-18.6,45.8-10.2,64.1,11.2c3.9,4.6,6.7,7.6,12.9,8.7c8,1.5,14.3,7,20.2,12.7
	c4.1,10.4-1.9,21.3,1.7,31.8c5.7,16.6-3.7,30-21.6,30.2c-25.8,0.3-51.6-0.1-77.4-0.2C756.3,331,756.3,299.6,756.3,268.1z"/>
<path class="st3" d="M756.3,268.1c0,31.5,0,62.9-0.1,94.4c-28.3,0-56.6,0-84.9,0.1c-19.3-10.6-21-22.5-5.6-39.1
	c2.3-2.5,3.6-5.3,4.7-8.3c5.1-13.8,15.3-20.5,29.7-20.3c6.2,0.1,10.5-1.4,14.5-6.5c7.6-9.7,18.5-12.1,30.3-12
	C751.5,277.4,750.9,268.7,756.3,268.1z"/>
<g>
	<path class="st3" d="M486.5,409c-18.5-12.1-21-21.3-11.5-40.7c2.3-1.4,4.5-2.8,5.3-5.6c1-12.6,3.4-24.7,13.8-33.4
		c12.9-3.1,22.9-8.4,30.1-21.5c7.9-14.6,23.6-17.9,39.9-15.2c0,38.6,0.1,77.3,0.1,115.9C538.3,408.7,512.4,408.9,486.5,409z"/>
	<path class="st2" d="M564.1,408.5c0-38.6-0.1-77.3-0.1-115.9c10.9,0.1,17.6,7.5,24.7,14.2c0.8,0.9,1.6,1.7,2.3,2.6
		c0,0-0.1-0.1-0.1-0.1c3.3,5.2,2.1,13.6,10.8,14.9c11.3,0.5,20,5.8,27,14.3c1.6,4.9,4.1,9.6,3.7,14.9c-0.3,5.2,1.9,7.4,7,6.6
		c5.8,0.7,10,4.7,14.7,7.6c0.2,2,0.6,3.9,2.6,4.9c0,0-0.1-0.1-0.1-0.1c0.3,4,0.8,8.1,0.8,12.1c0,14.3-8.8,24.1-22.9,24.2
		C611,409.1,587.6,408.7,564.1,408.5z"/>
	<path class="st3" d="M384.1,362.5c-15.8-8-17.9-14.8-8.9-30.3c1.8-3,1.8-6,2.3-9.1c0.9-5.1,1.6-11.8,6.5-13.6
		c12.5-4.6,20-14.1,28.6-23.2c5.5-5.8,14.2-9.3,23.1-4c-0.2,26.6-0.3,53.2-0.5,79.8C418.2,362.3,401.1,362.4,384.1,362.5z"/>
	<path class="st2" d="M435.2,362.1c0.2-26.6,0.3-53.2,0.5-79.8c0.8,0.1,1.6,0.1,2.4,0.2c12.2,1.4,13.1,15,20.6,19.6
		c7.6,4.7,19.6,4.7,22.4,14.7c2.2,8,3.3,13.7,13,12.5c-10.4,8.7-12.7,20.8-13.8,33.4C465.3,362.5,450.3,362.3,435.2,362.1z"/>
</g>
<path class="st4" d="M259.9,600.7h754.5c0,0,4.7,95.7-29.5,171.6H286.4C286.4,772.3,247.4,678.5,259.9,600.7z"/>
<g>
	<g>
		<g>
			<path class="st5" d="M344.9,630.3c-0.1-7.2-0.1-14.4-0.2-21.5c0-3.3-0.1-6.5-0.1-9.8c0-3.5-0.9-8.1-0.1-11.4c-1,1-2,2-3,3
				c1.5-0.4,3.9-0.1,5.5,0c-1.4-1.4-2.9-2.9-4.3-4.3c-0.2,14.4-0.4,28.8-0.6,43.3c-0.1,5.6,8.6,5.6,8.6,0
				c0.2-14.4,0.4-28.8,0.6-43.3c0-2.4-2-4.3-4.3-4.3c-2.6,0-5.2-0.4-7.8,0.4c-1.4,0.4-2.7,1.6-3,3c-1.6,6.6-0.2,14.8-0.2,21.6
				c0.1,7.8,0.1,15.7,0.2,23.5C336.3,635.9,344.9,635.9,344.9,630.3L344.9,630.3z"/>
		</g>
	</g>
	<g>
		<g>
			<path class="st6" d="M338.3,579.4c-1.4,0.3-10.6,1.5-8.2-2.1c1-1.5,0.7-4-0.7-5.2c-9.3-8.6-10.5-25.4-6.8-36.8
				c1.1-3.3,2.5-6.5,5.5-8.5c2.4-1.6,5.2-2.8,7.8-4.1c2.9-1.4,6.7-3.6,9.9-1.5c2.2,1.5,3.3,4.5,4.2,6.9c2.1,5.1,3.4,13.1,7.5,17
				c1.8,1.8,4.5,2.1,6.3,3.9c2.4,2.4,3,6,3.1,9.2c0.1,5.5-0.6,14.8-5.7,17.9c-5.8,3.6-14.1,4.4-20.7,4.7c-5.5,0.2-5.6,8.9,0,8.6
				c12.5-0.5,29.7-2.9,33.1-17.1c1.5-6.4,2.8-13.6,1.3-20.1c-0.7-2.8-1.9-5.6-3.7-7.8c-2-2.6-4.6-3.3-7-5.2c-2.3-2-3.3-7-4.4-9.9
				c-1.2-3-2.3-6.1-3.8-9c-2.8-5.2-7.5-8.9-13.7-8.6c-6.1,0.4-12.5,4.2-17.7,7.2c-5.9,3.4-9,9.3-10.7,15.7
				c-3.8,14.1-1.7,33.2,9.5,43.6c-0.2-1.7-0.4-3.5-0.7-5.2c-2.7,3.9-1.7,9.1,1.6,12.4c4.4,4.4,10.9,3.6,16.4,2.4
				C346,586.6,343.7,578.3,338.3,579.4L338.3,579.4z"/>
		</g>
	</g>
	<g>
		<g>
			<path class="st6" d="M346.4,579.3c-4.2,0.8-8.1-1.2-10.2-4.9c-1.6,2.1-3.2,4.2-4.9,6.3c7.2,2.9,14.8,4,22.6,3.2
				c4.4-0.5,6.4-7.6,1.1-8.5c-4.5-0.8-9-1.5-13.5-2.3c-3.5-0.6-10.7-0.4-8.7-5.9c1.3-3.7,5.5-5.3,9-3.4c1.5,0.8,1.8,3,2.4,0.9
				c-0.9-0.7-1-1.6-0.4-2.5c0.5-0.4,1-0.5,1.6-0.5c2,0.1,1.5,1.2,1.5,2.7c-0.9,0.6-0.9,1.1,0,1.5c0.6,0.8,1.3,0.8,2.3,0.2
				c1-0.1,1.9,0,2.8,0.4c1.1,0.4,2,1.1,2.6,2.1c0.7-0.1,1.3-0.3,2-0.4c-1.2,0.4-2.1,1.2-2.9,2.1c-2.8,1.8-7.5,3.7-10.7,1.9
				c-1.6-0.9-2.8-2.7-2.7-4.6c0.1-1.3,0.6-2.5,1.6-3.4c2.4-0.9,2.4-1.4,0-1.5c-0.4-1-0.8-2-1.3-3.1c-0.7-0.9-1.5-1.6-2.4-2.2
				c-0.9-0.9-1.3-2-1.3-3.3c-0.1-1.9,1.2-3.8,2.4-5.1c2.7-2.7,6.7-3.4,10.3-3.4c3.1,0,7,0.4,9.6,2.3c2.4,1.8,4,5.7,0.6,7.4
				c2,0.5,3.9,1,5.9,1.5c-0.7-1.7-1.6-1.6-2.8,0.4c-1-0.4-2-0.8-3.1-1.3c2.2,2.2,2.2,8.9,2.1,12c0,1.7,0.2,4.9-1.5,6
				c-2.1,1.4-2.4-0.7-2.7-2.5c-0.5-3.3-0.8-7-0.4-10.3c0.2-1.4,0.4-2.9,0.9-4.3c0.4-1.1,2.8-3.9,1.5-4.2c-0.9-0.7-1.7-1.3-2.6-2
				c0.1,0.2,0.2,0.4,0.3,0.6c0.2-1.7,0.4-3.5,0.7-5.2c-3.4,3.2-5.9-3.3-6.2-5.7c-2.5,1-4.9,2-7.4,3.1c5,5.4-4.2,12.4-9.4,9
				c-1.7-1.1-3.2-4.4-0.9-5.6c3.1-1.6,2.5,3.7,2.2,5c0.4,0.8,0.5,0.7,0.1-0.3c-0.3-1-0.4-2-0.4-3c0.1-0.7,0.2-1.4,0.3-2.2
				c-1.2,0.4-2.5,0.8-3.7,1.2c-0.4,0.6-0.3,2.9-0.4,3.8c-0.3,1.2-0.6,2.5-1.2,3.7c-1.2,2.6-2.9,3.7-5,5.4c0.4,0.2,0.8,0.3,1.2,0.5
				c-0.3-0.5-0.5-1-0.8-1.5c0-1.2-0.6-4,1.7-3.2c5.4,1.7,7.2-6.2,2.3-8.3c-1.6-0.7-2-6.2-2.1-7.4c-0.1-2,0.2-6.8,3.2-7.2
				c2-0.2,4,2.8,3.3,4.5c-0.6,1.5-2.6,1-1.7-0.3c-0.5,0.7,1,1.7,0.1,2.7c1-0.4,2-0.8,3.1-1.3c-0.3,0-0.6,0-1,0c1,0.4,2,0.8,3.1,1.3
				c-1.4-1.4-0.8-3.3-1.3-4.8c-0.3-1,0-2.3-0.8,0.5c2.8,0.4,5.6,0.8,8.5,1.1c0.1-2.9,0.5-7.9,3-10c0.2-0.4,0.4-0.7,0.6-1.1
				c0.6,0.8,1.1,1.6,1.3,2.6c0.1,0.4,0.2,0.8,0.3,1.2c1.6-1.2,2.4-2.8,2.2-4.6c-2.8,0.4-5.6,0.8-8.5,1.1c0.3,1,1.8,7.2,1.1,7.6
				c1.1-0.1,2.2-0.3,3.3-0.4c-3.2-0.7-3.9-8.1-3.9-10.4c-1.8,1.4-3.6,2.8-5.5,4.2c0.6,0.1-2-4-2-4.1c-1.1-3.6-5.8-4.2-7.9-1
				c-5.4,8.3-11.7,19.1-12.6,29.2c-0.8,9.8,7.2,13.3,15.5,14.3c-1.2-2.2-2.5-4.3-3.7-6.5c-4.6,6.2-4.7,13.9-4.4,21.3
				c2.5-1,4.9-2,7.4-3.1c-10-8.3-9.9-21.6-9.7-33.6c0.1-5.6-8.6-5.6-8.6,0c-0.2,14.2,0.5,29.9,12.3,39.7c2.7,2.2,7.5,1,7.4-3.1
				c-0.3-6-0.5-11.9,3.2-16.9c2.2-2.9-0.9-6.2-3.7-6.5c-2.5-0.3-5.9-0.6-6.8-3.3c-0.9-2.6,1-6.5,1.9-8.9c2.4-6.5,5.6-12.5,9.3-18.3
				c-2.6-0.3-5.3-0.7-7.9-1c2,6.3,8.5,11.8,15.1,7.5c5.7-3.7,4.2-12.7-2.5-14.1c-2.7-0.6-5.5,1.2-5.5,4.2c0,6.2,2.8,18.4,10.8,18.8
				c8.7,0.4,7.3-12.7,5.6-17.9c-1.5-4.7-8.2-3.7-8.5,1.1c-0.3,5.7,2.1,12.7,9.1,11.9c6.8-0.8,6.6-8.1,4.5-13
				c-2.4-5.3-8.1-8.7-13.5-4.9c-5.4,3.8-7.4,11.8-7.5,18c-0.1,4.9,7.2,5.8,8.5,1.1c1.6-5.8-1-13.4-8.2-13c-6.8,0.4-8.9,8.3-7.8,13.9
				c0.9,4.9,6.4,12.5,11.4,6.5c3.8-4.6,1.8-13.4-3.1-16.4c-13.4-8.2-17.9,20-3.4,19.6c13.8-0.4,12.3-23.1-0.6-24.1
				c-16.2-1.3-17.3,26.3-4.8,31.5c0.8-2.8,1.5-5.5,2.3-8.3c-7.3-2.3-13.5,4.1-12.8,11.3c0.7,7.2,6.6,12.3,13.5,8.4
				c6.5-3.7,9.7-11.4,10.2-18.6c0.2-3.1-0.1-6.6-2.8-8.7c-2.8-2.2-6.7-2.1-9,0.8c-3.9,4.9-2.8,16.4,3.4,19.2
				c7.4,3.3,12.5-6.1,12.4-12.2c-0.1-7.1-6.7-11.7-13.4-9.7c-6.7,2.1-9.2,9.9-6.2,16c9.2,18.4,39.7-1,24.9-17.1
				c-2.4-2.6-7.8-0.7-7.4,3.1c0.6,5.3,2.4,10.8,7.5,13.6c4.5,2.5,9.8,1.7,13.5-1.8c1.5-1.3,1.5-3.6,0.7-5.2
				c-2.1-4.1-7.1-3.3-10.1-0.5c-3.7,3.5-5.5,8.4-6.1,13.3c-1,7.8-0.9,24.4,10.6,23.8c13.4-0.7,11.9-19.1,9.4-27.9
				c-1.2-4.2-4.1-8.8-9.2-6.5c-5.2,2.3-4.4,8.3-1.5,12.1c1.5,1.9,3.6,2.7,5.9,1.5c6.1-3.1,7.8-11.1,4.6-16.9
				c-3.8-6.9-12.6-9.1-20-8.9c-8.3,0.3-16.7,4-19.7,12.3c-2.6,7.2,1.1,15.7,8.8,17.7c5.8,1.5,15.6-4.6,9.6-10.8
				c-5.5-5.6-14.1,2.5-15.5,8c-4.9,18.2,23.1,22.5,30.5,8.6c3.1-5.9-1.5-14.8-8.9-13c-7.1,1.8-7.6,13.6-1.2,16.5
				c7,3.1,12.6-4.8,10.1-11.1c-2.7-6.9-11.7-9.7-18.2-6.9c-6,2.6-9.1,11.8-1.7,15c6.7,2.9,13.1-3.7,13.1-10.2c0-7-6.6-11.6-13.2-9.9
				c-7,1.8-9.8,9.6-5.9,15.6c3.9,6,15.9,7,16.6-2c0.7-8.2-10-13.6-16.9-12.5c-8.4,1.4-14.5,10.4-12,18.6c1.3,4.4,4.8,6.4,9.1,7.2
				c6.4,1.3,12.8,2.2,19.2,3.3c0.4-2.8,0.8-5.6,1.1-8.5c-7.1,0.8-13.7-0.2-20.3-2.9c-3.6-1.5-6.7,3.4-4.9,6.3
				c4.3,7.1,11.9,10.3,20,8.8C354.1,586.7,351.8,578.3,346.4,579.3L346.4,579.3z"/>
		</g>
	</g>
	<g>
		<g>
			<path class="st7" d="M343.3,511.4c-9.3,0.3-16.6,5.9-23,12.2c-2.8,2.7-5.5,5.9-6.6,9.7c-0.6,2-0.5,4-0.3,6.1
				c0.2,2.6-0.4,3.9-1.5,6.2c-1.4,3-2.7,6.1-1.5,9.4c0.5,1.6,2.5,3.1,2.7,4.7c0.1,1.5-1.4,3.7-1.7,5.2c-0.7,3.5,0.3,6.6,2.4,9.4
				c1.6,2.2,5.3,4.6,4.9,7.6c-0.3,2.3,2.2,4.4,4.3,4.3c1.7-0.1,3.9,4.1,5.5,5.2c2.3,1.5,4.6,1.8,7.1,1c5.3-1.7,3-10-2.3-8.3
				c-0.5,0.1-4-4.3-4.7-4.8c-1.8-1.3-3.5-1.8-5.6-1.7c1.4,1.4,2.9,2.9,4.3,4.3c0.3-2.7-0.6-5.1-2.1-7.3c-1.4-2.1-4.4-4-5.2-6.4
				c-0.9-2.7,1.6-5.8,1.7-8.5c0-1.2-0.1-2.4-0.6-3.5c-0.5-1.2-2.5-2.8-2.7-3.8c-0.3-1.9,2.8-6,3.3-8c0.9-3.6-0.8-6.9,1-10.3
				c1.7-3.2,5.2-5.9,7.8-8.1c3.7-3.1,7.8-5.7,12.7-5.8C348.8,519.8,348.8,511.2,343.3,511.4L343.3,511.4z"/>
		</g>
	</g>
	<g>
		<g>
			<path class="st8" d="M354.2,528.2c-1,2.7-1,5.6,0.3,8.3c0.6,1.3,1.4,2.5,2.5,3.4c1,0.9,2.8,1.4,3.6,2.3c0.9,1,0.8,2.7,1.2,4
				c0.6,1.8,1.6,3.4,2.6,5c1.3,2.1,4.9,6.1,2.2,8.4c-1.7,1.5-1.7,4.6,0,6.1c7.6,6.7-15,17.2-18.6,20.9c-3.8,4,2.3,10.1,6.1,6.1
				c2.7-2.9,6.5-4,9.7-6.2c3.6-2.4,6.4-5.6,9.1-8.9c4.5-5.6,5.8-12.8-0.2-18.1c0,2,0,4.1,0,6.1c5.5-4.8,3.3-12.2,0-17.5
				c-1.2-1.9-2.4-3.5-3-5.7c-0.4-1.6-0.5-3.1-1.3-4.5c-1.8-2.9-7.2-3.5-5.8-7.4C364.4,525.3,356,523,354.2,528.2L354.2,528.2z"/>
		</g>
	</g>
	<g>
		<g>
			<path class="st9" d="M345.4,597.5c0,10.1-0.3,20.2-0.7,30.3c-0.2,5.6,8.4,5.5,8.6,0c0.4-10.1,0.6-20.2,0.7-30.3
				C354.1,591.9,345.5,591.9,345.4,597.5L345.4,597.5z"/>
		</g>
	</g>
	<g>
		<g>
			<path class="st10" d="M332.7,594.6c-0.3,11.9-0.5,23.9-0.8,35.8c-0.1,5.6,8.5,5.6,8.6,0c0.3-11.9,0.5-23.9,0.8-35.8
				C341.4,589,332.8,589,332.7,594.6L332.7,594.6z"/>
		</g>
	</g>
</g>
<g>
	<g>
		<g>
			<path class="st5" d="M693.1,630.3c-0.1-7.2-0.1-14.4-0.2-21.5c0-3.3-0.1-6.5-0.1-9.8c0-3.5-0.9-8.1-0.1-11.4c-1,1-2,2-3,3
				c1.5-0.4,3.9-0.1,5.5,0c-1.4-1.4-2.9-2.9-4.3-4.3c-0.2,14.4-0.4,28.8-0.6,43.3c-0.1,5.6,8.6,5.6,8.6,0
				c0.2-14.4,0.4-28.8,0.6-43.3c0-2.4-2-4.3-4.3-4.3c-2.6,0-5.2-0.4-7.8,0.4c-1.4,0.4-2.7,1.6-3,3c-1.6,6.6-0.2,14.8-0.2,21.6
				c0.1,7.8,0.1,15.7,0.2,23.5C684.6,635.9,693.2,635.9,693.1,630.3L693.1,630.3z"/>
		</g>
	</g>
	<g>
		<g>
			<path class="st6" d="M686.6,579.4c-1.4,0.3-10.6,1.5-8.2-2.1c1-1.5,0.7-4-0.7-5.2c-9.3-8.6-10.5-25.4-6.8-36.8
				c1.1-3.3,2.5-6.5,5.5-8.5c2.4-1.6,5.2-2.8,7.8-4.1c2.9-1.4,6.7-3.6,9.9-1.5c2.2,1.5,3.3,4.5,4.2,6.9c2.1,5.1,3.4,13.1,7.5,17
				c1.8,1.8,4.5,2.1,6.3,3.9c2.4,2.4,3,6,3.1,9.2c0.1,5.5-0.6,14.8-5.7,17.9c-5.8,3.6-14.1,4.4-20.7,4.7c-5.5,0.2-5.6,8.9,0,8.6
				c12.5-0.5,29.7-2.9,33.1-17.1c1.5-6.4,2.8-13.6,1.3-20.1c-0.7-2.8-1.9-5.6-3.7-7.8c-2-2.6-4.6-3.3-7-5.2c-2.3-2-3.3-7-4.4-9.9
				c-1.2-3-2.3-6.1-3.8-9c-2.8-5.2-7.5-8.9-13.7-8.6c-6.1,0.4-12.5,4.2-17.7,7.2c-5.9,3.4-9,9.3-10.7,15.7
				c-3.8,14.1-1.7,33.2,9.5,43.6c-0.2-1.7-0.4-3.5-0.7-5.2c-2.7,3.9-1.7,9.1,1.6,12.4c4.4,4.4,10.9,3.6,16.4,2.4
				C694.3,586.6,692,578.3,686.6,579.4L686.6,579.4z"/>
		</g>
	</g>
	<g>
		<g>
			<path class="st6" d="M694.7,579.3c-4.2,0.8-8.1-1.2-10.2-4.9c-1.6,2.1-3.2,4.2-4.9,6.3c7.2,2.9,14.8,4,22.6,3.2
				c4.4-0.5,6.4-7.6,1.1-8.5c-4.5-0.8-9-1.5-13.5-2.3c-3.5-0.6-10.7-0.4-8.7-5.9c1.3-3.7,5.5-5.3,9-3.4c1.5,0.8,1.8,3,2.4,0.9
				c-0.9-0.7-1-1.6-0.4-2.5c0.5-0.4,1-0.5,1.6-0.5c2,0.1,1.5,1.2,1.5,2.7c-0.9,0.6-0.9,1.1,0,1.5c0.6,0.8,1.3,0.8,2.3,0.2
				c1-0.1,1.9,0,2.8,0.4c1.1,0.4,2,1.1,2.6,2.1c0.7-0.1,1.3-0.3,2-0.4c-1.2,0.4-2.1,1.2-2.9,2.1c-2.8,1.8-7.5,3.7-10.7,1.9
				c-1.6-0.9-2.8-2.7-2.7-4.6c0.1-1.3,0.6-2.5,1.6-3.4c2.4-0.9,2.4-1.4,0-1.5c-0.4-1-0.8-2-1.3-3.1c-0.7-0.9-1.5-1.6-2.4-2.2
				c-0.9-0.9-1.3-2-1.3-3.3c-0.1-1.9,1.2-3.8,2.4-5.1c2.7-2.7,6.7-3.4,10.3-3.4c3.1,0,7,0.4,9.6,2.3c2.4,1.8,4,5.7,0.6,7.4
				c2,0.5,3.9,1,5.9,1.5c-0.7-1.7-1.6-1.6-2.8,0.4c-1-0.4-2-0.8-3.1-1.3c2.2,2.2,2.2,8.9,2.1,12c0,1.7,0.2,4.9-1.5,6
				c-2.1,1.4-2.4-0.7-2.7-2.5c-0.5-3.3-0.8-7-0.4-10.3c0.2-1.4,0.4-2.9,0.9-4.3c0.4-1.1,2.8-3.9,1.5-4.2c-0.9-0.7-1.7-1.3-2.6-2
				c0.1,0.2,0.2,0.4,0.3,0.6c0.2-1.7,0.4-3.5,0.7-5.2c-3.4,3.2-5.9-3.3-6.2-5.7c-2.5,1-4.9,2-7.4,3.1c5,5.4-4.2,12.4-9.4,9
				c-1.7-1.1-3.2-4.4-0.9-5.6c3.1-1.6,2.5,3.7,2.2,5c0.4,0.8,0.5,0.7,0.1-0.3c-0.3-1-0.4-2-0.4-3c0.1-0.7,0.2-1.4,0.3-2.2
				c-1.2,0.4-2.5,0.8-3.7,1.2c-0.4,0.6-0.3,2.9-0.4,3.8c-0.3,1.2-0.6,2.5-1.2,3.7c-1.2,2.6-2.9,3.7-5,5.4c0.4,0.2,0.8,0.3,1.2,0.5
				c-0.3-0.5-0.5-1-0.8-1.5c0-1.2-0.6-4,1.7-3.2c5.4,1.7,7.2-6.2,2.3-8.3c-1.6-0.7-2-6.2-2.1-7.4c-0.1-2,0.2-6.8,3.2-7.2
				c2-0.2,4,2.8,3.3,4.5c-0.6,1.5-2.6,1-1.7-0.3c-0.5,0.7,1,1.7,0.1,2.7c1-0.4,2-0.8,3.1-1.3c-0.3,0-0.6,0-1,0c1,0.4,2,0.8,3.1,1.3
				c-1.4-1.4-0.8-3.3-1.3-4.8c-0.3-1,0-2.3-0.8,0.5c2.8,0.4,5.6,0.8,8.5,1.1c0.1-2.9,0.5-7.9,3-10c0.2-0.4,0.4-0.7,0.6-1.1
				c0.6,0.8,1.1,1.6,1.3,2.6c0.1,0.4,0.2,0.8,0.3,1.2c1.6-1.2,2.4-2.8,2.2-4.6c-2.8,0.4-5.6,0.8-8.5,1.1c0.3,1,1.8,7.2,1.1,7.6
				c1.1-0.1,2.2-0.3,3.3-0.4c-3.2-0.7-3.9-8.1-3.9-10.4c-1.8,1.4-3.6,2.8-5.5,4.2c0.6,0.1-2-4-2-4.1c-1.1-3.6-5.8-4.2-7.9-1
				c-5.4,8.3-11.7,19.1-12.6,29.2c-0.8,9.8,7.2,13.3,15.5,14.3c-1.2-2.2-2.5-4.3-3.7-6.5c-4.6,6.2-4.7,13.9-4.4,21.3
				c2.5-1,4.9-2,7.4-3.1c-10-8.3-9.9-21.6-9.7-33.6c0.1-5.6-8.6-5.6-8.6,0c-0.2,14.2,0.5,29.9,12.3,39.7c2.7,2.2,7.5,1,7.4-3.1
				c-0.3-6-0.5-11.9,3.2-16.9c2.2-2.9-0.9-6.2-3.7-6.5c-2.5-0.3-5.9-0.6-6.8-3.3c-0.9-2.6,1-6.5,1.9-8.9c2.4-6.5,5.6-12.5,9.3-18.3
				c-2.6-0.3-5.3-0.7-7.9-1c2,6.3,8.5,11.8,15.1,7.5c5.7-3.7,4.2-12.7-2.5-14.1c-2.7-0.6-5.5,1.2-5.5,4.2c0,6.2,2.8,18.4,10.8,18.8
				c8.7,0.4,7.3-12.7,5.6-17.9c-1.5-4.7-8.2-3.7-8.5,1.1c-0.3,5.7,2.1,12.7,9.1,11.9c6.8-0.8,6.6-8.1,4.5-13
				c-2.4-5.3-8.1-8.7-13.5-4.9c-5.4,3.8-7.4,11.8-7.5,18c-0.1,4.9,7.2,5.8,8.5,1.1c1.6-5.8-1-13.4-8.2-13c-6.8,0.4-8.9,8.3-7.8,13.9
				c0.9,4.9,6.4,12.5,11.4,6.5c3.8-4.6,1.8-13.4-3.1-16.4c-13.4-8.2-17.9,20-3.4,19.6c13.8-0.4,12.3-23.1-0.6-24.1
				c-16.2-1.3-17.3,26.3-4.8,31.5c0.8-2.8,1.5-5.5,2.3-8.3c-7.3-2.3-13.5,4.1-12.8,11.3c0.7,7.2,6.6,12.3,13.5,8.4
				c6.5-3.7,9.7-11.4,10.2-18.6c0.2-3.1-0.1-6.6-2.8-8.7c-2.8-2.2-6.7-2.1-9,0.8c-3.9,4.9-2.8,16.4,3.4,19.2
				c7.4,3.3,12.5-6.1,12.4-12.2c-0.1-7.1-6.7-11.7-13.4-9.7c-6.7,2.1-9.2,9.9-6.2,16c9.2,18.4,39.7-1,24.9-17.1
				c-2.4-2.6-7.8-0.7-7.4,3.1c0.6,5.3,2.4,10.8,7.5,13.6c4.5,2.5,9.8,1.7,13.5-1.8c1.5-1.3,1.5-3.6,0.7-5.2
				c-2.1-4.1-7.1-3.3-10.1-0.5c-3.7,3.5-5.5,8.4-6.1,13.3c-1,7.8-0.9,24.4,10.6,23.8c13.4-0.7,11.9-19.1,9.4-27.9
				c-1.2-4.2-4.1-8.8-9.2-6.5c-5.2,2.3-4.4,8.3-1.5,12.1c1.5,1.9,3.6,2.7,5.9,1.5c6.1-3.1,7.8-11.1,4.6-16.9
				c-3.8-6.9-12.6-9.1-20-8.9c-8.3,0.3-16.7,4-19.7,12.3c-2.6,7.2,1.1,15.7,8.8,17.7c5.8,1.5,15.6-4.6,9.6-10.8
				c-5.5-5.6-14.1,2.5-15.5,8c-4.9,18.2,23.1,22.5,30.5,8.6c3.1-5.9-1.5-14.8-8.9-13c-7.1,1.8-7.6,13.6-1.2,16.5
				c7,3.1,12.6-4.8,10.1-11.1c-2.7-6.9-11.7-9.7-18.2-6.9c-6,2.6-9.1,11.8-1.7,15c6.7,2.9,13.1-3.7,13.1-10.2c0-7-6.6-11.6-13.2-9.9
				c-7,1.8-9.8,9.6-5.9,15.6c3.9,6,15.9,7,16.6-2c0.7-8.2-10-13.6-16.9-12.5c-8.4,1.4-14.5,10.4-12,18.6c1.3,4.4,4.8,6.4,9.1,7.2
				c6.4,1.3,12.8,2.2,19.2,3.3c0.4-2.8,0.8-5.6,1.1-8.5c-7.1,0.8-13.7-0.2-20.3-2.9c-3.6-1.5-6.7,3.4-4.9,6.3
				c4.3,7.1,11.9,10.3,20,8.8C702.4,586.7,700.1,578.3,694.7,579.3L694.7,579.3z"/>
		</g>
	</g>
	<g>
		<g>
			<path class="st7" d="M691.5,511.4c-9.3,0.3-16.6,5.9-23,12.2c-2.8,2.7-5.5,5.9-6.6,9.7c-0.6,2-0.5,4-0.3,6.1
				c0.2,2.6-0.4,3.9-1.5,6.2c-1.4,3-2.7,6.1-1.5,9.4c0.5,1.6,2.5,3.1,2.7,4.7c0.1,1.5-1.4,3.7-1.7,5.2c-0.7,3.5,0.3,6.6,2.4,9.4
				c1.6,2.2,5.3,4.6,4.9,7.6c-0.3,2.3,2.2,4.4,4.3,4.3c1.7-0.1,3.9,4.1,5.5,5.2c2.3,1.5,4.6,1.8,7.1,1c5.3-1.7,3-10-2.3-8.3
				c-0.5,0.1-4-4.3-4.7-4.8c-1.8-1.3-3.5-1.8-5.6-1.7c1.4,1.4,2.9,2.9,4.3,4.3c0.3-2.7-0.6-5.1-2.1-7.3c-1.4-2.1-4.4-4-5.2-6.4
				c-0.9-2.7,1.6-5.8,1.7-8.5c0-1.2-0.1-2.4-0.6-3.5c-0.5-1.2-2.5-2.8-2.7-3.8c-0.3-1.9,2.8-6,3.3-8c0.9-3.6-0.8-6.9,1-10.3
				c1.7-3.2,5.2-5.9,7.8-8.1c3.7-3.1,7.8-5.7,12.7-5.8C697.1,519.8,697.1,511.2,691.5,511.4L691.5,511.4z"/>
		</g>
	</g>
	<g>
		<g>
			<path class="st8" d="M702.4,528.2c-1,2.7-1,5.6,0.3,8.3c0.6,1.3,1.4,2.5,2.5,3.4c1,0.9,2.8,1.4,3.6,2.3c0.9,1,0.8,2.7,1.2,4
				c0.6,1.8,1.6,3.4,2.6,5c1.3,2.1,4.9,6.1,2.2,8.4c-1.7,1.5-1.7,4.6,0,6.1c7.6,6.7-15,17.2-18.6,20.9c-3.8,4,2.3,10.1,6.1,6.1
				c2.7-2.9,6.5-4,9.7-6.2c3.6-2.4,6.4-5.6,9.1-8.9c4.5-5.6,5.8-12.8-0.2-18.1c0,2,0,4.1,0,6.1c5.5-4.8,3.3-12.2,0-17.5
				c-1.2-1.9-2.4-3.5-3-5.7c-0.4-1.6-0.5-3.1-1.3-4.5c-1.8-2.9-7.2-3.5-5.8-7.4C712.6,525.3,704.3,523,702.4,528.2L702.4,528.2z"/>
		</g>
	</g>
	<g>
		<g>
			<path class="st9" d="M693.7,597.5c0,10.1-0.3,20.2-0.7,30.3c-0.2,5.6,8.4,5.5,8.6,0c0.4-10.1,0.6-20.2,0.7-30.3
				C702.4,591.9,693.7,591.9,693.7,597.5L693.7,597.5z"/>
		</g>
	</g>
	<g>
		<g>
			<path class="st10" d="M680.9,594.6c-0.3,11.9-0.5,23.9-0.8,35.8c-0.1,5.6,8.5,5.6,8.6,0c0.3-11.9,0.5-23.9,0.8-35.8
				C689.7,589,681.1,589,680.9,594.6L680.9,594.6z"/>
		</g>
	</g>
</g>
<g>
	<g>
		<g>
			<path class="st5" d="M418.8,630.3c-0.1-7.2-0.1-14.4-0.2-21.5c0-3.3-0.1-6.5-0.1-9.8c0-3.5-0.9-8.1-0.1-11.4c-1,1-2,2-3,3
				c1.5-0.4,3.9-0.1,5.5,0c-1.4-1.4-2.9-2.9-4.3-4.3c-0.2,14.4-0.4,28.8-0.6,43.3c-0.1,5.6,8.6,5.6,8.6,0
				c0.2-14.4,0.4-28.8,0.6-43.3c0-2.4-2-4.3-4.3-4.3c-2.6,0-5.2-0.4-7.8,0.4c-1.4,0.4-2.7,1.6-3,3c-1.6,6.6-0.2,14.8-0.2,21.6
				c0.1,7.8,0.1,15.7,0.2,23.5C410.2,635.9,418.9,635.9,418.8,630.3L418.8,630.3z"/>
		</g>
	</g>
	<g>
		<g>
			<path class="st6" d="M412.2,579.4c-1.4,0.3-10.6,1.5-8.2-2.1c1-1.5,0.7-4-0.7-5.2c-9.3-8.6-10.5-25.4-6.8-36.8
				c1.1-3.3,2.5-6.5,5.5-8.5c2.4-1.6,5.2-2.8,7.8-4.1c2.9-1.4,6.7-3.6,9.9-1.5c2.2,1.5,3.3,4.5,4.2,6.9c2.1,5.1,3.4,13.1,7.5,17
				c1.8,1.8,4.5,2.1,6.3,3.9c2.4,2.4,3,6,3.1,9.2c0.1,5.5-0.6,14.8-5.7,17.9c-5.8,3.6-14.1,4.4-20.7,4.7c-5.5,0.2-5.6,8.9,0,8.6
				c12.5-0.5,29.7-2.9,33.1-17.1c1.5-6.4,2.8-13.6,1.3-20.1c-0.7-2.8-1.9-5.6-3.7-7.8c-2-2.6-4.6-3.3-7-5.2c-2.3-2-3.3-7-4.4-9.9
				c-1.2-3-2.3-6.1-3.8-9c-2.8-5.2-7.5-8.9-13.7-8.6c-6.1,0.4-12.5,4.2-17.7,7.2c-5.9,3.4-9,9.3-10.7,15.7
				c-3.8,14.1-1.7,33.2,9.5,43.6c-0.2-1.7-0.4-3.5-0.7-5.2c-2.7,3.9-1.7,9.1,1.6,12.4c4.4,4.4,10.9,3.6,16.4,2.4
				C420,586.6,417.7,578.3,412.2,579.4L412.2,579.4z"/>
		</g>
	</g>
	<g>
		<g>
			<path class="st6" d="M420.3,579.3c-4.2,0.8-8.1-1.2-10.2-4.9c-1.6,2.1-3.2,4.2-4.9,6.3c7.2,2.9,14.8,4,22.6,3.2
				c4.4-0.5,6.4-7.6,1.1-8.5c-4.5-0.8-9-1.5-13.5-2.3c-3.5-0.6-10.7-0.4-8.7-5.9c1.3-3.7,5.5-5.3,9-3.4c1.5,0.8,1.8,3,2.4,0.9
				c-0.9-0.7-1-1.6-0.4-2.5c0.5-0.4,1-0.5,1.6-0.5c2,0.1,1.5,1.2,1.5,2.7c-0.9,0.6-0.9,1.1,0,1.5c0.6,0.8,1.3,0.8,2.3,0.2
				c1-0.1,1.9,0,2.8,0.4c1.1,0.4,2,1.1,2.6,2.1c0.7-0.1,1.3-0.3,2-0.4c-1.2,0.4-2.1,1.2-2.9,2.1c-2.8,1.8-7.5,3.7-10.7,1.9
				c-1.6-0.9-2.8-2.7-2.7-4.6c0.1-1.3,0.6-2.5,1.6-3.4c2.4-0.9,2.4-1.4,0-1.5c-0.4-1-0.8-2-1.3-3.1c-0.7-0.9-1.5-1.6-2.4-2.2
				c-0.9-0.9-1.3-2-1.3-3.3c-0.1-1.9,1.2-3.8,2.4-5.1c2.7-2.7,6.7-3.4,10.3-3.4c3.1,0,7,0.4,9.6,2.3c2.4,1.8,4,5.7,0.6,7.4
				c2,0.5,3.9,1,5.9,1.5c-0.7-1.7-1.6-1.6-2.8,0.4c-1-0.4-2-0.8-3.1-1.3c2.2,2.2,2.2,8.9,2.1,12c0,1.7,0.2,4.9-1.5,6
				c-2.1,1.4-2.4-0.7-2.7-2.5c-0.5-3.3-0.8-7-0.4-10.3c0.2-1.4,0.4-2.9,0.9-4.3c0.4-1.1,2.8-3.9,1.5-4.2c-0.9-0.7-1.7-1.3-2.6-2
				c0.1,0.2,0.2,0.4,0.3,0.6c0.2-1.7,0.4-3.5,0.7-5.2c-3.4,3.2-5.9-3.3-6.2-5.7c-2.5,1-4.9,2-7.4,3.1c5,5.4-4.2,12.4-9.4,9
				c-1.7-1.1-3.2-4.4-0.9-5.6c3.1-1.6,2.5,3.7,2.2,5c0.4,0.8,0.5,0.7,0.1-0.3c-0.3-1-0.4-2-0.4-3c0.1-0.7,0.2-1.4,0.3-2.2
				c-1.2,0.4-2.5,0.8-3.7,1.2c-0.4,0.6-0.3,2.9-0.4,3.8c-0.3,1.2-0.6,2.5-1.2,3.7c-1.2,2.6-2.9,3.7-5,5.4c0.4,0.2,0.8,0.3,1.2,0.5
				c-0.3-0.5-0.5-1-0.8-1.5c0-1.2-0.6-4,1.7-3.2c5.4,1.7,7.2-6.2,2.3-8.3c-1.6-0.7-2-6.2-2.1-7.4c-0.1-2,0.2-6.8,3.2-7.2
				c2-0.2,4,2.8,3.3,4.5c-0.6,1.5-2.6,1-1.7-0.3c-0.5,0.7,1,1.7,0.1,2.7c1-0.4,2-0.8,3.1-1.3c-0.3,0-0.6,0-1,0c1,0.4,2,0.8,3.1,1.3
				c-1.4-1.4-0.8-3.3-1.3-4.8c-0.3-1,0-2.3-0.8,0.5c2.8,0.4,5.6,0.8,8.5,1.1c0.1-2.9,0.5-7.9,3-10c0.2-0.4,0.4-0.7,0.6-1.1
				c0.6,0.8,1.1,1.6,1.3,2.6c0.1,0.4,0.2,0.8,0.3,1.2c1.6-1.2,2.4-2.8,2.2-4.6c-2.8,0.4-5.6,0.8-8.5,1.1c0.3,1,1.8,7.2,1.1,7.6
				c1.1-0.1,2.2-0.3,3.3-0.4c-3.2-0.7-3.9-8.1-3.9-10.4c-1.8,1.4-3.6,2.8-5.5,4.2c0.6,0.1-2-4-2-4.1c-1.1-3.6-5.8-4.2-7.9-1
				c-5.4,8.3-11.7,19.1-12.6,29.2c-0.8,9.8,7.2,13.3,15.5,14.3c-1.2-2.2-2.5-4.3-3.7-6.5c-4.6,6.2-4.7,13.9-4.4,21.3
				c2.5-1,4.9-2,7.4-3.1c-10-8.3-9.9-21.6-9.7-33.6c0.1-5.6-8.6-5.6-8.6,0c-0.2,14.2,0.5,29.9,12.3,39.7c2.7,2.2,7.5,1,7.4-3.1
				c-0.3-6-0.5-11.9,3.2-16.9c2.2-2.9-0.9-6.2-3.7-6.5c-2.5-0.3-5.9-0.6-6.8-3.3c-0.9-2.6,1-6.5,1.9-8.9c2.4-6.5,5.6-12.5,9.3-18.3
				c-2.6-0.3-5.3-0.7-7.9-1c2,6.3,8.5,11.8,15.1,7.5c5.7-3.7,4.2-12.7-2.5-14.1c-2.7-0.6-5.5,1.2-5.5,4.2c0,6.2,2.8,18.4,10.8,18.8
				c8.7,0.4,7.3-12.7,5.6-17.9c-1.5-4.7-8.2-3.7-8.5,1.1c-0.3,5.7,2.1,12.7,9.1,11.9c6.8-0.8,6.6-8.1,4.5-13
				c-2.4-5.3-8.1-8.7-13.5-4.9c-5.4,3.8-7.4,11.8-7.5,18c-0.1,4.9,7.2,5.8,8.5,1.1c1.6-5.8-1-13.4-8.2-13c-6.8,0.4-8.9,8.3-7.8,13.9
				c0.9,4.9,6.4,12.5,11.4,6.5c3.8-4.6,1.8-13.4-3.1-16.4c-13.4-8.2-17.9,20-3.4,19.6c13.8-0.4,12.3-23.1-0.6-24.1
				c-16.2-1.3-17.3,26.3-4.8,31.5c0.8-2.8,1.5-5.5,2.3-8.3c-7.3-2.3-13.5,4.1-12.8,11.3c0.7,7.2,6.6,12.3,13.5,8.4
				c6.5-3.7,9.7-11.4,10.2-18.6c0.2-3.1-0.1-6.6-2.8-8.7c-2.8-2.2-6.7-2.1-9,0.8c-3.9,4.9-2.8,16.4,3.4,19.2
				c7.4,3.3,12.5-6.1,12.4-12.2c-0.1-7.1-6.7-11.7-13.4-9.7c-6.7,2.1-9.2,9.9-6.2,16c9.2,18.4,39.7-1,24.9-17.1
				c-2.4-2.6-7.8-0.7-7.4,3.1c0.6,5.3,2.4,10.8,7.5,13.6c4.5,2.5,9.8,1.7,13.5-1.8c1.5-1.3,1.5-3.6,0.7-5.2
				c-2.1-4.1-7.1-3.3-10.1-0.5c-3.7,3.5-5.5,8.4-6.1,13.3c-1,7.8-0.9,24.4,10.6,23.8c13.4-0.7,11.9-19.1,9.4-27.9
				c-1.2-4.2-4.1-8.8-9.2-6.5c-5.2,2.3-4.4,8.3-1.5,12.1c1.5,1.9,3.6,2.7,5.9,1.5c6.1-3.1,7.8-11.1,4.6-16.9
				c-3.8-6.9-12.6-9.1-20-8.9c-8.3,0.3-16.7,4-19.7,12.3c-2.6,7.2,1.1,15.7,8.8,17.7c5.8,1.5,15.6-4.6,9.6-10.8
				c-5.5-5.6-14.1,2.5-15.5,8c-4.9,18.2,23.1,22.5,30.5,8.6c3.1-5.9-1.5-14.8-8.9-13c-7.1,1.8-7.6,13.6-1.2,16.5
				c7,3.1,12.6-4.8,10.1-11.1c-2.7-6.9-11.7-9.7-18.2-6.9c-6,2.6-9.1,11.8-1.7,15c6.7,2.9,13.1-3.7,13.1-10.2c0-7-6.6-11.6-13.2-9.9
				c-7,1.8-9.8,9.6-5.9,15.6c3.9,6,15.9,7,16.6-2c0.7-8.2-10-13.6-16.9-12.5c-8.4,1.4-14.5,10.4-12,18.6c1.3,4.4,4.8,6.4,9.1,7.2
				c6.4,1.3,12.8,2.2,19.2,3.3c0.4-2.8,0.8-5.6,1.1-8.5c-7.1,0.8-13.7-0.2-20.3-2.9c-3.6-1.5-6.7,3.4-4.9,6.3
				c4.3,7.1,11.9,10.3,20,8.8C428.1,586.7,425.8,578.3,420.3,579.3L420.3,579.3z"/>
		</g>
	</g>
	<g>
		<g>
			<path class="st7" d="M417.2,511.4c-9.3,0.3-16.6,5.9-23,12.2c-2.8,2.7-5.5,5.9-6.6,9.7c-0.6,2-0.5,4-0.3,6.1
				c0.2,2.6-0.4,3.9-1.5,6.2c-1.4,3-2.7,6.1-1.5,9.4c0.5,1.6,2.5,3.1,2.7,4.7c0.1,1.5-1.4,3.7-1.7,5.2c-0.7,3.5,0.3,6.6,2.4,9.4
				c1.6,2.2,5.3,4.6,4.9,7.6c-0.3,2.3,2.2,4.4,4.3,4.3c1.7-0.1,3.9,4.1,5.5,5.2c2.3,1.5,4.6,1.8,7.1,1c5.3-1.7,3-10-2.3-8.3
				c-0.5,0.1-4-4.3-4.7-4.8c-1.8-1.3-3.5-1.8-5.6-1.7c1.4,1.4,2.9,2.9,4.3,4.3c0.3-2.7-0.6-5.1-2.1-7.3c-1.4-2.1-4.4-4-5.2-6.4
				c-0.9-2.7,1.6-5.8,1.7-8.5c0-1.2-0.1-2.4-0.6-3.5c-0.5-1.2-2.5-2.8-2.7-3.8c-0.3-1.9,2.8-6,3.3-8c0.9-3.6-0.8-6.9,1-10.3
				c1.7-3.2,5.2-5.9,7.8-8.1c3.7-3.1,7.8-5.7,12.7-5.8C422.7,519.8,422.8,511.2,417.2,511.4L417.2,511.4z"/>
		</g>
	</g>
	<g>
		<g>
			<path class="st8" d="M428.1,528.2c-1,2.7-1,5.6,0.3,8.3c0.6,1.3,1.4,2.5,2.5,3.4c1,0.9,2.8,1.4,3.6,2.3c0.9,1,0.8,2.7,1.2,4
				c0.6,1.8,1.6,3.4,2.6,5c1.3,2.1,4.9,6.1,2.2,8.4c-1.7,1.5-1.7,4.6,0,6.1c7.6,6.7-15,17.2-18.6,20.9c-3.8,4,2.3,10.1,6.1,6.1
				c2.7-2.9,6.5-4,9.7-6.2c3.6-2.4,6.4-5.6,9.1-8.9c4.5-5.6,5.8-12.8-0.2-18.1c0,2,0,4.1,0,6.1c5.5-4.8,3.3-12.2,0-17.5
				c-1.2-1.9-2.4-3.5-3-5.7c-0.4-1.6-0.5-3.1-1.3-4.5c-1.8-2.9-7.2-3.5-5.8-7.4C438.3,525.3,430,523,428.1,528.2L428.1,528.2z"/>
		</g>
	</g>
	<g>
		<g>
			<path class="st9" d="M419.4,597.5c0,10.1-0.3,20.2-0.7,30.3c-0.2,5.6,8.4,5.5,8.6,0c0.4-10.1,0.6-20.2,0.7-30.3
				C428,591.9,419.4,591.9,419.4,597.5L419.4,597.5z"/>
		</g>
	</g>
	<g>
		<g>
			<path class="st10" d="M406.6,594.6c-0.3,11.9-0.5,23.9-0.8,35.8c-0.1,5.6,8.5,5.6,8.6,0c0.3-11.9,0.5-23.9,0.8-35.8
				C415.4,589,406.7,589,406.6,594.6L406.6,594.6z"/>
		</g>
	</g>
</g>
<g>
	<g>
		<g>
			<path class="st5" d="M970.1,630.3c-0.1-7.2-0.1-14.4-0.2-21.5c0-3.3-0.1-6.5-0.1-9.8c0-3.5-0.9-8.1-0.1-11.4c-1,1-2,2-3,3
				c1.5-0.4,3.9-0.1,5.5,0c-1.4-1.4-2.9-2.9-4.3-4.3c-0.2,14.4-0.4,28.8-0.6,43.3c-0.1,5.6,8.6,5.6,8.6,0
				c0.2-14.4,0.4-28.8,0.6-43.3c0-2.4-2-4.3-4.3-4.3c-2.6,0-5.2-0.4-7.8,0.4c-1.4,0.4-2.7,1.6-3,3c-1.6,6.6-0.2,14.8-0.2,21.6
				c0.1,7.8,0.1,15.7,0.2,23.5C961.5,635.9,970.1,635.9,970.1,630.3L970.1,630.3z"/>
		</g>
	</g>
	<g>
		<g>
			<path class="st6" d="M963.5,579.4c-1.4,0.3-10.6,1.5-8.2-2.1c1-1.5,0.7-4-0.7-5.2c-9.3-8.6-10.5-25.4-6.8-36.8
				c1.1-3.3,2.5-6.5,5.5-8.5c2.4-1.6,5.2-2.8,7.8-4.1c2.9-1.4,6.7-3.6,9.9-1.5c2.2,1.5,3.3,4.5,4.2,6.9c2.1,5.1,3.4,13.1,7.5,17
				c1.8,1.8,4.5,2.1,6.3,3.9c2.4,2.4,3,6,3.1,9.2c0.1,5.5-0.6,14.8-5.7,17.9c-5.8,3.6-14.1,4.4-20.7,4.7c-5.5,0.2-5.6,8.9,0,8.6
				c12.5-0.5,29.7-2.9,33.1-17.1c1.5-6.4,2.8-13.6,1.3-20.1c-0.7-2.8-1.9-5.6-3.7-7.8c-2-2.6-4.6-3.3-7-5.2c-2.3-2-3.3-7-4.4-9.9
				c-1.2-3-2.3-6.1-3.8-9c-2.8-5.2-7.5-8.9-13.7-8.6c-6.1,0.4-12.5,4.2-17.7,7.2c-5.9,3.4-9,9.3-10.7,15.7
				c-3.8,14.1-1.7,33.2,9.5,43.6c-0.2-1.7-0.4-3.5-0.7-5.2c-2.7,3.9-1.7,9.1,1.6,12.4c4.4,4.4,10.9,3.6,16.4,2.4
				C971.3,586.6,969,578.3,963.5,579.4L963.5,579.4z"/>
		</g>
	</g>
	<g>
		<g>
			<path class="st6" d="M971.6,579.3c-4.2,0.8-8.1-1.2-10.2-4.9c-1.6,2.1-3.2,4.2-4.9,6.3c7.2,2.9,14.8,4,22.6,3.2
				c4.4-0.5,6.4-7.6,1.1-8.5c-4.5-0.8-9-1.5-13.5-2.3c-3.5-0.6-10.7-0.4-8.7-5.9c1.3-3.7,5.5-5.3,9-3.4c1.5,0.8,1.8,3,2.4,0.9
				c-0.9-0.7-1-1.6-0.4-2.5c0.5-0.4,1-0.5,1.6-0.5c2,0.1,1.5,1.2,1.5,2.7c-0.9,0.6-0.9,1.1,0,1.5c0.6,0.8,1.3,0.8,2.3,0.2
				c1-0.1,1.9,0,2.8,0.4c1.1,0.4,2,1.1,2.6,2.1c0.7-0.1,1.3-0.3,2-0.4c-1.2,0.4-2.1,1.2-2.9,2.1c-2.8,1.8-7.5,3.7-10.7,1.9
				c-1.6-0.9-2.8-2.7-2.7-4.6c0.1-1.3,0.6-2.5,1.6-3.4c2.4-0.9,2.4-1.4,0-1.5c-0.4-1-0.8-2-1.3-3.1c-0.7-0.9-1.5-1.6-2.4-2.2
				c-0.9-0.9-1.3-2-1.3-3.3c-0.1-1.9,1.2-3.8,2.4-5.1c2.7-2.7,6.7-3.4,10.3-3.4c3.1,0,7,0.4,9.6,2.3c2.4,1.8,4,5.7,0.6,7.4
				c2,0.5,3.9,1,5.9,1.5c-0.7-1.7-1.6-1.6-2.8,0.4c-1-0.4-2-0.8-3.1-1.3c2.2,2.2,2.2,8.9,2.1,12c0,1.7,0.2,4.9-1.5,6
				c-2.1,1.4-2.4-0.7-2.7-2.5c-0.5-3.3-0.8-7-0.4-10.3c0.2-1.4,0.4-2.9,0.9-4.3c0.4-1.1,2.8-3.9,1.5-4.2c-0.9-0.7-1.7-1.3-2.6-2
				c0.1,0.2,0.2,0.4,0.3,0.6c0.2-1.7,0.4-3.5,0.7-5.2c-3.4,3.2-5.9-3.3-6.2-5.7c-2.5,1-4.9,2-7.4,3.1c5,5.4-4.2,12.4-9.4,9
				c-1.7-1.1-3.2-4.4-0.9-5.6c3.1-1.6,2.5,3.7,2.2,5c0.4,0.8,0.5,0.7,0.1-0.3c-0.3-1-0.4-2-0.4-3c0.1-0.7,0.2-1.4,0.3-2.2
				c-1.2,0.4-2.5,0.8-3.7,1.2c-0.4,0.6-0.3,2.9-0.4,3.8c-0.3,1.2-0.6,2.5-1.2,3.7c-1.2,2.6-2.9,3.7-5,5.4c0.4,0.2,0.8,0.3,1.2,0.5
				c-0.3-0.5-0.5-1-0.8-1.5c0-1.2-0.6-4,1.7-3.2c5.4,1.7,7.2-6.2,2.3-8.3c-1.6-0.7-2-6.2-2.1-7.4c-0.1-2,0.2-6.8,3.2-7.2
				c2-0.2,4,2.8,3.3,4.5c-0.6,1.5-2.6,1-1.7-0.3c-0.5,0.7,1,1.7,0.1,2.7c1-0.4,2-0.8,3.1-1.3c-0.3,0-0.6,0-1,0c1,0.4,2,0.8,3.1,1.3
				c-1.4-1.4-0.8-3.3-1.3-4.8c-0.3-1,0-2.3-0.8,0.5c2.8,0.4,5.6,0.8,8.5,1.1c0.1-2.9,0.5-7.9,3-10c0.2-0.4,0.4-0.7,0.6-1.1
				c0.6,0.8,1.1,1.6,1.3,2.6c0.1,0.4,0.2,0.8,0.3,1.2c1.6-1.2,2.4-2.8,2.2-4.6c-2.8,0.4-5.6,0.8-8.5,1.1c0.3,1,1.8,7.2,1.1,7.6
				c1.1-0.1,2.2-0.3,3.3-0.4c-3.2-0.7-3.9-8.1-3.9-10.4c-1.8,1.4-3.6,2.8-5.5,4.2c0.6,0.1-2-4-2-4.1c-1.1-3.6-5.8-4.2-7.9-1
				c-5.4,8.3-11.7,19.1-12.6,29.2c-0.8,9.8,7.2,13.3,15.5,14.3c-1.2-2.2-2.5-4.3-3.7-6.5c-4.6,6.2-4.7,13.9-4.4,21.3
				c2.5-1,4.9-2,7.4-3.1c-10-8.3-9.9-21.6-9.7-33.6c0.1-5.6-8.6-5.6-8.6,0c-0.2,14.2,0.5,29.9,12.3,39.7c2.7,2.2,7.5,1,7.4-3.1
				c-0.3-6-0.5-11.9,3.2-16.9c2.2-2.9-0.9-6.2-3.7-6.5c-2.5-0.3-5.9-0.6-6.8-3.3c-0.9-2.6,1-6.5,1.9-8.9c2.4-6.5,5.6-12.5,9.3-18.3
				c-2.6-0.3-5.3-0.7-7.9-1c2,6.3,8.5,11.8,15.1,7.5c5.7-3.7,4.2-12.7-2.5-14.1c-2.7-0.6-5.5,1.2-5.5,4.2c0,6.2,2.8,18.4,10.8,18.8
				c8.7,0.4,7.3-12.7,5.6-17.9c-1.5-4.7-8.2-3.7-8.5,1.1c-0.3,5.7,2.1,12.7,9.1,11.9c6.8-0.8,6.6-8.1,4.5-13
				c-2.4-5.3-8.1-8.7-13.5-4.9c-5.4,3.8-7.4,11.8-7.5,18c-0.1,4.9,7.2,5.8,8.5,1.1c1.6-5.8-1-13.4-8.2-13c-6.8,0.4-8.9,8.3-7.8,13.9
				c0.9,4.9,6.4,12.5,11.4,6.5c3.8-4.6,1.8-13.4-3.1-16.4c-13.4-8.2-17.9,20-3.4,19.6c13.8-0.4,12.3-23.1-0.6-24.1
				c-16.2-1.3-17.3,26.3-4.8,31.5c0.8-2.8,1.5-5.5,2.3-8.3c-7.3-2.3-13.5,4.1-12.8,11.3c0.7,7.2,6.6,12.3,13.5,8.4
				c6.5-3.7,9.7-11.4,10.2-18.6c0.2-3.1-0.1-6.6-2.8-8.7c-2.8-2.2-6.7-2.1-9,0.8c-3.9,4.9-2.8,16.4,3.4,19.2
				c7.4,3.3,12.5-6.1,12.4-12.2c-0.1-7.1-6.7-11.7-13.4-9.7c-6.7,2.1-9.2,9.9-6.2,16c9.2,18.4,39.7-1,24.9-17.1
				c-2.4-2.6-7.8-0.7-7.4,3.1c0.6,5.3,2.4,10.8,7.5,13.6c4.5,2.5,9.8,1.7,13.5-1.8c1.5-1.3,1.5-3.6,0.7-5.2
				c-2.1-4.1-7.1-3.3-10.1-0.5c-3.7,3.5-5.5,8.4-6.1,13.3c-1,7.8-0.9,24.4,10.6,23.8c13.4-0.7,11.9-19.1,9.4-27.9
				c-1.2-4.2-4.1-8.8-9.2-6.5c-5.2,2.3-4.4,8.3-1.5,12.1c1.5,1.9,3.6,2.7,5.9,1.5c6.1-3.1,7.8-11.1,4.6-16.9
				c-3.8-6.9-12.6-9.1-20-8.9c-8.3,0.3-16.7,4-19.7,12.3c-2.6,7.2,1.1,15.7,8.8,17.7c5.8,1.5,15.6-4.6,9.6-10.8
				c-5.5-5.6-14.1,2.5-15.5,8c-4.9,18.2,23.1,22.5,30.5,8.6c3.1-5.9-1.5-14.8-8.9-13c-7.1,1.8-7.6,13.6-1.2,16.5
				c7,3.1,12.6-4.8,10.1-11.1c-2.7-6.9-11.7-9.7-18.2-6.9c-6,2.6-9.1,11.8-1.7,15c6.7,2.9,13.1-3.7,13.1-10.2c0-7-6.6-11.6-13.2-9.9
				c-7,1.8-9.8,9.6-5.9,15.6c3.9,6,15.9,7,16.6-2c0.7-8.2-10-13.6-16.9-12.5c-8.4,1.4-14.5,10.4-12,18.6c1.3,4.4,4.8,6.4,9.1,7.2
				c6.4,1.3,12.8,2.2,19.2,3.3c0.4-2.8,0.8-5.6,1.1-8.5c-7.1,0.8-13.7-0.2-20.3-2.9c-3.6-1.5-6.7,3.4-4.9,6.3
				c4.3,7.1,11.9,10.3,20,8.8C979.4,586.7,977.1,578.3,971.6,579.3L971.6,579.3z"/>
		</g>
	</g>
	<g>
		<g>
			<path class="st7" d="M968.5,511.4c-9.3,0.3-16.6,5.9-23,12.2c-2.8,2.7-5.5,5.9-6.6,9.7c-0.6,2-0.5,4-0.3,6.1
				c0.2,2.6-0.4,3.9-1.5,6.2c-1.4,3-2.7,6.1-1.5,9.4c0.5,1.6,2.5,3.1,2.7,4.7c0.1,1.5-1.4,3.7-1.7,5.2c-0.7,3.5,0.3,6.6,2.4,9.4
				c1.6,2.2,5.3,4.6,4.9,7.6c-0.3,2.3,2.2,4.4,4.3,4.3c1.7-0.1,3.9,4.1,5.5,5.2c2.3,1.5,4.6,1.8,7.1,1c5.3-1.7,3-10-2.3-8.3
				c-0.5,0.1-4-4.3-4.7-4.8c-1.8-1.3-3.5-1.8-5.6-1.7c1.4,1.4,2.9,2.9,4.3,4.3c0.3-2.7-0.6-5.1-2.1-7.3c-1.4-2.1-4.4-4-5.2-6.4
				c-0.9-2.7,1.6-5.8,1.7-8.5c0-1.2-0.1-2.4-0.6-3.5c-0.5-1.2-2.5-2.8-2.7-3.8c-0.3-1.9,2.8-6,3.3-8c0.9-3.6-0.8-6.9,1-10.3
				c1.7-3.2,5.2-5.9,7.8-8.1c3.7-3.1,7.8-5.7,12.7-5.8C974,519.8,974.1,511.2,968.5,511.4L968.5,511.4z"/>
		</g>
	</g>
	<g>
		<g>
			<path class="st8" d="M979.4,528.2c-1,2.7-1,5.6,0.3,8.3c0.6,1.3,1.4,2.5,2.5,3.4c1,0.9,2.8,1.4,3.6,2.3c0.9,1,0.8,2.7,1.2,4
				c0.6,1.8,1.6,3.4,2.6,5c1.3,2.1,4.9,6.1,2.2,8.4c-1.7,1.5-1.7,4.6,0,6.1c7.6,6.7-15,17.2-18.6,20.9c-3.8,4,2.3,10.1,6.1,6.1
				c2.7-2.9,6.5-4,9.7-6.2c3.6-2.4,6.4-5.6,9.1-8.9c4.5-5.6,5.8-12.8-0.2-18.1c0,2,0,4.1,0,6.1c5.5-4.8,3.3-12.2,0-17.5
				c-1.2-1.9-2.4-3.5-3-5.7c-0.4-1.6-0.5-3.1-1.3-4.5c-1.8-2.9-7.2-3.5-5.8-7.4C989.6,525.3,981.2,523,979.4,528.2L979.4,528.2z"/>
		</g>
	</g>
	<g>
		<g>
			<path class="st9" d="M970.7,597.5c0,10.1-0.3,20.2-0.7,30.3c-0.2,5.6,8.4,5.5,8.6,0c0.4-10.1,0.6-20.2,0.7-30.3
				C979.3,591.9,970.7,591.9,970.7,597.5L970.7,597.5z"/>
		</g>
	</g>
	<g>
		<g>
			<path class="st10" d="M957.9,594.6c-0.3,11.9-0.5,23.9-0.8,35.8c-0.1,5.6,8.5,5.6,8.6,0c0.3-11.9,0.5-23.9,0.8-35.8
				C966.7,589,958,589,957.9,594.6L957.9,594.6z"/>
		</g>
	</g>
</g>
<g>
	<g>
		<g>
			<path class="st5" d="M911.4,662.4c-0.1-7.2-0.1-14.4-0.2-21.5c0-3.3-0.1-6.5-0.1-9.8c0-3.5-0.9-8.1-0.1-11.4c-1,1-2,2-3,3
				c1.5-0.4,3.9-0.1,5.5,0c-1.4-1.4-2.9-2.9-4.3-4.3c-0.2,14.4-0.4,28.8-0.6,43.3c-0.1,5.6,8.6,5.6,8.6,0
				c0.2-14.4,0.4-28.8,0.6-43.3c0-2.4-2-4.3-4.3-4.3c-2.6,0-5.2-0.4-7.8,0.4c-1.4,0.4-2.7,1.6-3,3c-1.6,6.6-0.2,14.8-0.2,21.6
				c0.1,7.8,0.1,15.7,0.2,23.5C902.8,668,911.4,668,911.4,662.4L911.4,662.4z"/>
		</g>
	</g>
	<g>
		<g>
			<path class="st6" d="M904.8,611.5c-1.4,0.3-10.6,1.5-8.2-2.1c1-1.5,0.7-4-0.7-5.2c-9.3-8.6-10.5-25.4-6.8-36.8
				c1.1-3.3,2.5-6.5,5.5-8.5c2.4-1.6,5.2-2.8,7.8-4.1c2.9-1.4,6.7-3.6,9.9-1.5c2.2,1.5,3.3,4.5,4.2,6.9c2.1,5.1,3.4,13.1,7.5,17
				c1.8,1.8,4.5,2.1,6.3,3.9c2.4,2.4,3,6,3.1,9.2c0.1,5.5-0.6,14.8-5.7,17.9c-5.8,3.6-14.1,4.4-20.7,4.7c-5.5,0.2-5.6,8.9,0,8.6
				c12.5-0.5,29.7-2.9,33.1-17.1c1.5-6.4,2.8-13.6,1.3-20.1c-0.7-2.8-1.9-5.6-3.7-7.8c-2-2.6-4.6-3.3-7-5.2c-2.3-2-3.3-7-4.4-9.9
				c-1.2-3-2.3-6.1-3.8-9c-2.8-5.2-7.5-8.9-13.7-8.6c-6.1,0.4-12.5,4.2-17.7,7.2c-5.9,3.4-9,9.3-10.7,15.7
				c-3.8,14.1-1.7,33.2,9.5,43.6c-0.2-1.7-0.4-3.5-0.7-5.2c-2.7,3.9-1.7,9.1,1.6,12.4c4.4,4.4,10.9,3.6,16.4,2.4
				C912.5,618.7,910.2,610.4,904.8,611.5L904.8,611.5z"/>
		</g>
	</g>
	<g>
		<g>
			<path class="st6" d="M912.9,611.4c-4.2,0.8-8.1-1.2-10.2-4.9c-1.6,2.1-3.2,4.2-4.9,6.3c7.2,2.9,14.8,4,22.6,3.2
				c4.4-0.5,6.4-7.6,1.1-8.5c-4.5-0.8-9-1.5-13.5-2.3c-3.5-0.6-10.7-0.4-8.7-5.9c1.3-3.7,5.5-5.3,9-3.4c1.5,0.8,1.8,3,2.4,0.9
				c-0.9-0.7-1-1.6-0.4-2.5c0.5-0.4,1-0.5,1.6-0.5c2,0.1,1.5,1.2,1.5,2.7c-0.9,0.6-0.9,1.1,0,1.5c0.6,0.8,1.3,0.8,2.3,0.2
				c1-0.1,1.9,0,2.8,0.4c1.1,0.4,2,1.1,2.6,2.1c0.7-0.1,1.3-0.3,2-0.4c-1.2,0.4-2.1,1.2-2.9,2.1c-2.8,1.8-7.5,3.7-10.7,1.9
				c-1.6-0.9-2.8-2.7-2.7-4.6c0.1-1.3,0.6-2.5,1.6-3.4c2.4-0.9,2.4-1.4,0-1.5c-0.4-1-0.8-2-1.3-3.1c-0.7-0.9-1.5-1.6-2.4-2.2
				c-0.9-0.9-1.3-2-1.3-3.3c-0.1-1.9,1.2-3.8,2.4-5.1c2.7-2.7,6.7-3.4,10.3-3.4c3.1,0,7,0.4,9.6,2.3c2.4,1.8,4,5.7,0.6,7.4
				c2,0.5,3.9,1,5.9,1.5c-0.7-1.7-1.6-1.6-2.8,0.4c-1-0.4-2-0.8-3.1-1.3c2.2,2.2,2.2,8.9,2.1,12c0,1.7,0.2,4.9-1.5,6
				c-2.1,1.4-2.4-0.7-2.7-2.5c-0.5-3.3-0.8-7-0.4-10.3c0.2-1.4,0.4-2.9,0.9-4.3c0.4-1.1,2.8-3.9,1.5-4.2c-0.9-0.7-1.7-1.3-2.6-2
				c0.1,0.2,0.2,0.4,0.3,0.6c0.2-1.7,0.4-3.5,0.7-5.2c-3.4,3.2-5.9-3.3-6.2-5.7c-2.5,1-4.9,2-7.4,3.1c5,5.4-4.2,12.4-9.4,9
				c-1.7-1.1-3.2-4.4-0.9-5.6c3.1-1.6,2.5,3.7,2.2,5c0.4,0.8,0.5,0.7,0.1-0.3c-0.3-1-0.4-2-0.4-3c0.1-0.7,0.2-1.4,0.3-2.2
				c-1.2,0.4-2.5,0.8-3.7,1.2c-0.4,0.6-0.3,2.9-0.4,3.8c-0.3,1.2-0.6,2.5-1.2,3.7c-1.2,2.6-2.9,3.7-5,5.4c0.4,0.2,0.8,0.3,1.2,0.5
				c-0.3-0.5-0.5-1-0.8-1.5c0-1.2-0.6-4,1.7-3.2c5.4,1.7,7.2-6.2,2.3-8.3c-1.6-0.7-2-6.2-2.1-7.4c-0.1-2,0.2-6.8,3.2-7.2
				c2-0.2,4,2.8,3.3,4.5c-0.6,1.5-2.6,1-1.7-0.3c-0.5,0.7,1,1.7,0.1,2.7c1-0.4,2-0.8,3.1-1.3c-0.3,0-0.6,0-1,0c1,0.4,2,0.8,3.1,1.3
				c-1.4-1.4-0.8-3.3-1.3-4.8c-0.3-1,0-2.3-0.8,0.5c2.8,0.4,5.6,0.8,8.5,1.1c0.1-2.9,0.5-7.9,3-10c0.2-0.4,0.4-0.7,0.6-1.1
				c0.6,0.8,1.1,1.6,1.3,2.6c0.1,0.4,0.2,0.8,0.3,1.2c1.6-1.2,2.4-2.8,2.2-4.6c-2.8,0.4-5.6,0.8-8.5,1.1c0.3,1,1.8,7.2,1.1,7.6
				c1.1-0.1,2.2-0.3,3.3-0.4c-3.2-0.7-3.9-8.1-3.9-10.4c-1.8,1.4-3.6,2.8-5.5,4.2c0.6,0.1-2-4-2-4.1c-1.1-3.6-5.8-4.2-7.9-1
				c-5.4,8.3-11.7,19.1-12.6,29.2c-0.8,9.8,7.2,13.3,15.5,14.3c-1.2-2.2-2.5-4.3-3.7-6.5c-4.6,6.2-4.7,13.9-4.4,21.3
				c2.5-1,4.9-2,7.4-3.1c-10-8.3-9.9-21.6-9.7-33.6c0.1-5.6-8.6-5.6-8.6,0c-0.2,14.2,0.5,29.9,12.3,39.7c2.7,2.2,7.5,1,7.4-3.1
				c-0.3-6-0.5-11.9,3.2-16.9c2.2-2.9-0.9-6.2-3.7-6.5c-2.5-0.3-5.9-0.6-6.8-3.3c-0.9-2.6,1-6.5,1.9-8.9c2.4-6.5,5.6-12.5,9.3-18.3
				c-2.6-0.3-5.3-0.7-7.9-1c2,6.3,8.5,11.8,15.1,7.5c5.7-3.7,4.2-12.7-2.5-14.1c-2.7-0.6-5.5,1.2-5.5,4.2c0,6.2,2.8,18.4,10.8,18.8
				c8.7,0.4,7.3-12.7,5.6-17.9c-1.5-4.7-8.2-3.7-8.5,1.1c-0.3,5.7,2.1,12.7,9.1,11.9c6.8-0.8,6.6-8.1,4.5-13
				c-2.4-5.3-8.1-8.7-13.5-4.9c-5.4,3.8-7.4,11.8-7.5,18c-0.1,4.9,7.2,5.8,8.5,1.1c1.6-5.8-1-13.4-8.2-13c-6.8,0.4-8.9,8.3-7.8,13.9
				c0.9,4.9,6.4,12.5,11.4,6.5c3.8-4.6,1.8-13.4-3.1-16.4c-13.4-8.2-17.9,20-3.4,19.6c13.8-0.4,12.3-23.1-0.6-24.1
				c-16.2-1.3-17.3,26.3-4.8,31.5c0.8-2.8,1.5-5.5,2.3-8.3c-7.3-2.3-13.5,4.1-12.8,11.3c0.7,7.2,6.6,12.3,13.5,8.4
				c6.5-3.7,9.7-11.4,10.2-18.6c0.2-3.1-0.1-6.6-2.8-8.7c-2.8-2.2-6.7-2.1-9,0.8c-3.9,4.9-2.8,16.4,3.4,19.2
				c7.4,3.3,12.5-6.1,12.4-12.2c-0.1-7.1-6.7-11.7-13.4-9.7c-6.7,2.1-9.2,9.9-6.2,16c9.2,18.4,39.7-1,24.9-17.1
				c-2.4-2.6-7.8-0.7-7.4,3.1c0.6,5.3,2.4,10.8,7.5,13.6c4.5,2.5,9.8,1.7,13.5-1.8c1.5-1.3,1.5-3.6,0.7-5.2
				c-2.1-4.1-7.1-3.3-10.1-0.5c-3.7,3.5-5.5,8.4-6.1,13.3c-1,7.8-0.9,24.4,10.6,23.8c13.4-0.7,11.9-19.1,9.4-27.9
				c-1.2-4.2-4.1-8.8-9.2-6.5c-5.2,2.3-4.4,8.3-1.5,12.1c1.5,1.9,3.6,2.7,5.9,1.5c6.1-3.1,7.8-11.1,4.6-16.9
				c-3.8-6.9-12.6-9.1-20-8.9c-8.3,0.3-16.7,4-19.7,12.3c-2.6,7.2,1.1,15.7,8.8,17.7c5.8,1.5,15.6-4.6,9.6-10.8
				c-5.5-5.6-14.1,2.5-15.5,8c-4.9,18.2,23.1,22.5,30.5,8.6c3.1-5.9-1.5-14.8-8.9-13c-7.1,1.8-7.6,13.6-1.2,16.5
				c7,3.1,12.6-4.8,10.1-11.1c-2.7-6.9-11.7-9.7-18.2-6.9c-6,2.6-9.1,11.8-1.7,15c6.7,2.9,13.1-3.7,13.1-10.2c0-7-6.6-11.6-13.2-9.9
				c-7,1.8-9.8,9.6-5.9,15.6c3.9,6,15.9,7,16.6-2c0.7-8.2-10-13.6-16.9-12.5c-8.4,1.4-14.5,10.4-12,18.6c1.3,4.4,4.8,6.4,9.1,7.2
				c6.4,1.3,12.8,2.2,19.2,3.3c0.4-2.8,0.8-5.6,1.1-8.5c-7.1,0.8-13.7-0.2-20.3-2.9c-3.6-1.5-6.7,3.4-4.9,6.3
				c4.3,7.1,11.9,10.3,20,8.8C920.7,618.8,918.3,610.4,912.9,611.4L912.9,611.4z"/>
		</g>
	</g>
	<g>
		<g>
			<path class="st7" d="M909.8,543.5c-9.3,0.3-16.6,5.9-23,12.2c-2.8,2.7-5.5,5.9-6.6,9.7c-0.6,2-0.5,4-0.3,6.1
				c0.2,2.6-0.4,3.9-1.5,6.2c-1.4,3-2.7,6.1-1.5,9.4c0.5,1.6,2.5,3.1,2.7,4.7c0.1,1.5-1.4,3.7-1.7,5.2c-0.7,3.5,0.3,6.6,2.4,9.4
				c1.6,2.2,5.3,4.6,4.9,7.6c-0.3,2.3,2.2,4.4,4.3,4.3c1.7-0.1,3.9,4.1,5.5,5.2c2.3,1.5,4.6,1.8,7.1,1c5.3-1.7,3-10-2.3-8.3
				c-0.5,0.1-4-4.3-4.7-4.8c-1.8-1.3-3.5-1.8-5.6-1.7c1.4,1.4,2.9,2.9,4.3,4.3c0.3-2.7-0.6-5.1-2.1-7.3c-1.4-2.1-4.4-4-5.2-6.4
				c-0.9-2.7,1.6-5.8,1.7-8.5c0-1.2-0.1-2.4-0.6-3.5c-0.5-1.2-2.5-2.8-2.7-3.8c-0.3-1.9,2.8-6,3.3-8c0.9-3.6-0.8-6.9,1-10.3
				c1.7-3.2,5.2-5.9,7.8-8.1c3.7-3.1,7.8-5.7,12.7-5.8C915.3,551.9,915.4,543.3,909.8,543.5L909.8,543.5z"/>
		</g>
	</g>
	<g>
		<g>
			<path class="st8" d="M920.7,560.3c-1,2.7-1,5.6,0.3,8.3c0.6,1.3,1.4,2.5,2.5,3.4c1,0.9,2.8,1.4,3.6,2.3c0.9,1,0.8,2.7,1.2,4
				c0.6,1.8,1.6,3.4,2.6,5c1.3,2.1,4.9,6.1,2.2,8.4c-1.7,1.5-1.7,4.6,0,6.1c7.6,6.7-15,17.2-18.6,20.9c-3.8,4,2.3,10.1,6.1,6.1
				c2.7-2.9,6.5-4,9.7-6.2c3.6-2.4,6.4-5.6,9.1-8.9c4.5-5.6,5.8-12.8-0.2-18.1c0,2,0,4.1,0,6.1c5.5-4.8,3.3-12.2,0-17.5
				c-1.2-1.9-2.4-3.5-3-5.7c-0.4-1.6-0.5-3.1-1.3-4.5c-1.8-2.9-7.2-3.5-5.8-7.4C930.9,557.4,922.5,555.1,920.7,560.3L920.7,560.3z"
				/>
		</g>
	</g>
	<g>
		<g>
			<path class="st9" d="M911.9,629.6c0,10.1-0.3,20.2-0.7,30.3c-0.2,5.6,8.4,5.5,8.6,0c0.4-10.1,0.6-20.2,0.7-30.3
				C920.6,624,912,624,911.9,629.6L911.9,629.6z"/>
		</g>
	</g>
	<g>
		<g>
			<path class="st10" d="M899.2,626.7c-0.3,11.9-0.5,23.9-0.8,35.8c-0.1,5.6,8.5,5.6,8.6,0c0.3-11.9,0.5-23.9,0.8-35.8
				C907.9,621.1,899.3,621.1,899.2,626.7L899.2,626.7z"/>
		</g>
	</g>
</g>
<g>
	<g>
		<path class="st11" d="M346.4,805.7c2-2.5,3.6-6.9,8.2-4.6c2.1,1,4.2,3.8,5.8,5.5c1,1,2.7,1,3.7,0c1.5-1.6,3.6-4.8,5.6-5.8
			c3.2-1.6,5.8,2.2,7.6,4.6c1.2,1.5,3.4,1.8,4.5,0c0.9-1.5,3.6-7.2,5.5-7.4c1.8-0.2,5.3,4.5,6.5,5.9c2.2,2.6,5.9-1.1,3.7-3.7
			c-2.3-2.7-6.7-8-10.8-7.7c-4.3,0.3-7.5,7.1-9.4,10.2c1.5,0,3,0,4.5,0c-2.3-3.1-6.1-8.7-10.5-8.7c-4.3,0-8.4,6-10.9,8.8
			c1.2,0,2.5,0,3.7,0c-2.9-3-7.1-8.3-11.5-8.8c-5-0.6-7.3,4.7-9.9,7.9C340.6,804.6,344.2,808.3,346.4,805.7L346.4,805.7z"/>
	</g>
</g>
<g>
	<g>
		<path class="st11" d="M409.3,843.8c2-2.5,3.6-6.9,8.2-4.6c2.1,1,4.2,3.8,5.8,5.5c1,1,2.7,1,3.7,0c1.5-1.6,3.6-4.8,5.6-5.8
			c3.2-1.6,5.8,2.2,7.6,4.6c1.2,1.5,3.4,1.8,4.5,0c0.9-1.5,3.6-7.2,5.5-7.4c1.8-0.2,5.3,4.5,6.5,5.9c2.2,2.6,5.9-1.1,3.7-3.7
			c-2.3-2.7-6.7-8-10.8-7.7c-4.3,0.3-7.5,7.1-9.4,10.2c1.5,0,3,0,4.5,0c-2.3-3.1-6.1-8.7-10.5-8.7c-4.3,0-8.4,6-10.9,8.8
			c1.2,0,2.5,0,3.7,0c-2.9-3-7.1-8.3-11.5-8.8c-5-0.6-7.3,4.7-9.9,7.9C403.5,842.7,407.1,846.4,409.3,843.8L409.3,843.8z"/>
	</g>
</g>
<g>
	<g>
		<path class="st11" d="M633.3,847.2c2-2.5,3.6-6.9,8.2-4.6c2.1,1,4.2,3.8,5.8,5.5c1,1,2.7,1,3.7,0c1.5-1.6,3.6-4.8,5.6-5.8
			c3.2-1.6,5.8,2.2,7.6,4.6c1.2,1.5,3.4,1.8,4.5,0c0.9-1.5,3.6-7.2,5.5-7.4c1.8-0.2,5.3,4.5,6.5,5.9c2.2,2.6,5.9-1.1,3.7-3.7
			c-2.3-2.7-6.7-8-10.8-7.7c-4.3,0.3-7.5,7.1-9.4,10.2c1.5,0,3,0,4.5,0c-2.3-3.1-6.1-8.7-10.5-8.7c-4.3,0-8.4,6-10.9,8.8
			c1.2,0,2.5,0,3.7,0c-2.9-3-7.1-8.3-11.5-8.8c-5-0.6-7.3,4.7-9.9,7.9C627.5,846.1,631.2,849.8,633.3,847.2L633.3,847.2z"/>
	</g>
</g>
<g>
	<g>
		<path class="st11" d="M899.6,802c2-2.5,3.6-6.9,8.2-4.6c2.1,1,4.2,3.8,5.8,5.5c1,1,2.7,1,3.7,0c1.5-1.6,3.6-4.8,5.6-5.8
			c3.2-1.6,5.8,2.2,7.6,4.6c1.2,1.5,3.4,1.8,4.5,0c0.9-1.5,3.6-7.2,5.5-7.4c1.8-0.2,5.3,4.5,6.5,5.9c2.2,2.6,5.9-1.1,3.7-3.7
			c-2.3-2.7-6.7-8-10.8-7.7c-4.3,0.3-7.5,7.1-9.4,10.2c1.5,0,3,0,4.5,0c-2.3-3.1-6.1-8.7-10.5-8.7c-4.3,0-8.4,6-10.9,8.8
			c1.2,0,2.5,0,3.7,0c-2.9-3-7.1-8.3-11.5-8.8c-5-0.6-7.3,4.7-9.9,7.9C893.8,800.9,897.5,804.7,899.6,802L899.6,802z"/>
	</g>
</g>
<g>
	<g>
		<path class="st11" d="M874.3,841.7c2-2.5,3.6-6.9,8.2-4.6c2.1,1,4.2,3.8,5.8,5.5c1,1,2.7,1,3.7,0c1.5-1.6,3.6-4.8,5.6-5.8
			c3.2-1.6,5.8,2.2,7.6,4.6c1.2,1.5,3.4,1.8,4.5,0c0.9-1.5,3.6-7.2,5.5-7.4c1.8-0.2,5.3,4.5,6.5,5.9c2.2,2.6,5.9-1.1,3.7-3.7
			c-2.3-2.7-6.7-8-10.8-7.7c-4.3,0.3-7.5,7.1-9.4,10.2c1.5,0,3,0,4.5,0c-2.3-3.1-6.1-8.7-10.5-8.7c-4.3,0-8.4,6-10.9,8.8
			c1.2,0,2.5,0,3.7,0c-2.9-3-7.1-8.3-11.5-8.8c-5-0.6-7.3,4.7-9.9,7.9C868.5,840.6,872.2,844.3,874.3,841.7L874.3,841.7z"/>
	</g>
</g>
<g>
	<g>
		<path class="st12" d="M299.2,658.2c5.6,0,5.6-8.6,0-8.6C293.6,649.5,293.6,658.2,299.2,658.2L299.2,658.2z"/>
	</g>
</g>
<g>
	<g>
		<path class="st12" d="M349.7,741.5c5.6,0,5.6-8.6,0-8.6C344.1,732.8,344.1,741.5,349.7,741.5L349.7,741.5z"/>
	</g>
</g>
<g>
	<g>
		<path class="st12" d="M385,654.4c5.6,0,5.6-8.6,0-8.6C379.5,645.8,379.4,654.4,385,654.4L385,654.4z"/>
	</g>
</g>
<g>
	<g>
		<path class="st12" d="M993.4,653.1c5.6,0,5.6-8.6,0-8.6C987.8,644.5,987.8,653.1,993.4,653.1L993.4,653.1z"/>
	</g>
</g>
<g>
	<g>
		<path class="st12" d="M929,685.9c5.6,0,5.6-8.6,0-8.6C923.5,677.3,923.4,685.9,929,685.9L929,685.9z"/>
	</g>
</g>
<g>
	<g>
		<path class="st12" d="M920.2,745.3c5.6,0,5.6-8.6,0-8.6C914.6,736.6,914.6,745.3,920.2,745.3L920.2,745.3z"/>
	</g>
</g>
<g>
	<g>
		<path class="st12" d="M963.1,721.3c5.6,0,5.6-8.6,0-8.6C957.5,712.6,957.5,721.3,963.1,721.3L963.1,721.3z"/>
	</g>
</g>
<g>
	<g>
		<path class="st12" d="M309.3,720c5.6,0,5.6-8.6,0-8.6C303.7,711.4,303.7,720,309.3,720L309.3,720z"/>
	</g>
</g>
<g>
	<g>
		<path class="st13" d="M634.7,705c-35.2-17-69.2-36.4-101.5-58.4c-3.8-2.6-7.6-5.2-11.4-7.9c-1.6-1.2-3.3-2.4-4.9-3.6
			c-0.9-0.7-1.9-1.4-2.8-2.1c-0.7-0.5-3.1-2.4-1.3-1c-7.3-5.6-14.3-11.6-21-18c-6.4-6.1-12.5-12.6-18.1-19.6c-0.2-0.3-2.3-3-1.2-1.5
			c1.1,1.5-0.9-1.3-1.1-1.6c-1.1-1.6-2.3-3.2-3.4-4.8c-2.6-3.9-5.1-8-7.4-12.1c-2-3.7-3.9-7.4-5.5-11.2c1.2,2.8-1.2-3-1.4-3.6
			c-0.8-2.1-1.5-4.2-2.1-6.3c-1.3-4.2-2.4-8.5-3.2-12.8c-0.2-1.1-0.4-2.2-0.6-3.3c0-0.2-0.4-2.9-0.1-1c0.2,2.1-0.1-1.4-0.1-1.8
			c-0.1-1.4-0.2-2.7-0.3-4.1c-0.2-3.9-0.2-7.7,0.1-11.6c0.1-1,0.2-2,0.3-2.9c0.1-2.6-0.5,2.8-0.1,0.2c0.4-2.2,0.7-4.4,1.2-6.5
			c0.8-3.6,1.8-7.2,3.1-10.7c0.4-1.1,2.1-5.2,0.7-2.1c0.9-2,1.8-4,2.9-6c1.7-3.2,3.6-6.4,5.7-9.4c0.6-0.8,1.1-1.6,1.7-2.4
			c-2,2.6-0.4,0.6,0,0.1c1.5-1.6,2.9-3.3,4.4-4.8c1.2-1.2,2.4-2.4,3.7-3.5c0.7-0.6,1.5-1.2,2.2-1.9c-2.5,2.1-0.6,0.4,0,0.1
			c3.6-2.3,7.1-4.5,11-6.3c3.2-1.5,1.5-0.6,0.8-0.4c1.1-0.4,2.2-0.8,3.4-1.2c2.3-0.8,4.6-1.5,6.9-2.1c4.7-1.2,9.4-2.1,14.1-2.9
			c0.4-0.1,3.4-0.5,0.7-0.1c1.2-0.1,2.4-0.3,3.5-0.4c2.1-0.2,4.2-0.4,6.2-0.5c5.1-0.3,10.1-0.4,15.2-0.3c2.4,0.1,4.8,0.2,7.1,0.4
			c1.2,0.1,2.4,0.2,3.5,0.3c5.6,0.6-1.6-0.3,1.6,0.2c5.3,0.8,10.5,1.9,15.6,3.4c2.6,0.7,5.1,1.6,7.6,2.5c1.1,0.4,2.2,0.8,3.3,1.3
			c-1.6-0.6-0.9-0.4,0.3,0.2c4.1,1.9,8,4,11.9,6.5c1.9,1.2,3.7,2.6,5.6,3.8c2.2,1.5-1.9-1.7,0.1,0.1c0.9,0.8,1.9,1.6,2.9,2.4
			c3.4,3,6.5,6.2,9.4,9.6c0.6,0.8,1.3,1.5,1.9,2.3c-1-1.3-0.9-1.2,0,0.1c1.3,1.8,2.5,3.7,3.6,5.6c1.1,1.9,2.2,3.9,3.2,5.9
			c0.4,0.9,0.9,1.8,1.2,2.7c-1.2-2.8,0,0.3,0.4,1.4c2.4,6.6,7.2,11.4,14.3,12.4c6.4,0.9,14.1-2.1,17.2-8.2c3.9-7.8,8-15.4,12.6-22.7
			c2.1-3.3,4.4-6.6,6.6-9.8c1.9-2.7,0.6-0.8,0.1-0.3c0.6-0.8,1.3-1.6,2-2.4c1.5-1.8,3-3.6,4.6-5.3c2.8-3,5.7-5.9,8.8-8.6
			c0.7-0.6,4.3-3.5,1.9-1.7c2-1.5,4.2-3,6.3-4.4c1.7-1.1,3.5-2.1,5.4-3.1c0.9-0.5,1.9-0.9,2.8-1.4c0,0,2.6-1.2,1.2-0.6
			c-1.7,0.7,1.7-0.6,2-0.8c1.1-0.4,2.2-0.8,3.3-1.1c2.5-0.8,5-1.5,7.6-2.1c2.3-0.5,4.6-0.9,6.9-1.4c0.4-0.1,3.4-0.5,0.6-0.1
			c1.2-0.2,2.3-0.3,3.5-0.4c4.7-0.5,9.4-0.7,14.1-0.7c4.7-0.1,9.4,0,14,0.4c0.6,0,7.2,0.8,4.1,0.3c2.6,0.4,5.2,0.9,7.7,1.5
			c2.3,0.5,4.5,1.2,6.7,2c0.3,0.1,3.7,1.4,2,0.7c-1.4-0.6,1,0.5,1,0.5c2,1,3.9,2,5.8,3.2c0.9,0.6,1.9,1.2,2.8,1.8
			c0.1,0.1,4.2,3.2,1.8,1.3c6.9,5.6,12.9,12.2,18.5,19.1c0.7,0.9,1.4,1.8,2.1,2.6c-0.5-0.6-1.6-2.2,0.4,0.5c1.3,1.8,2.6,3.6,3.9,5.5
			c2.5,3.7,4.9,7.5,7.1,11.5c1.1,2,2.1,3.9,3.1,6c0.3,0.5,2.8,6.4,1.7,3.5c1.7,4.4,3.2,9,4.3,13.6c0.3,1.1,0.5,2.3,0.7,3.4
			c0.1,0.4,0.7,3.9,0.4,2c-0.3-1.8,0.1,1,0.1,1.1c0.1,1.1,0.2,2.3,0.3,3.4c0.3,4.9,0.3,9.8-0.1,14.7c-0.1,1.2-0.2,2.3-0.3,3.5
			c-0.2,2.9,0.4-2.3-0.1,0.6c-0.4,2.3-0.8,4.6-1.3,6.9c-1,4.8-2.4,9.6-3.9,14.3c-0.7,2.2-1.6,4.4-2.4,6.6c-0.1,0.3-1.3,3-0.3,0.7
			c-0.5,1.1-0.9,2.1-1.4,3.2c-2,4.2-4.1,8.3-6.5,12.3c-2.3,4-4.8,7.9-7.4,11.7c-1.3,1.9-2.6,3.8-4,5.7c-0.7,0.9-1.4,1.9-2.1,2.8
			c-0.3,0.5-0.7,0.9-1,1.4c0.7-1,0.8-1,0-0.1c-11.9,14.9-25.2,28.7-38.9,42c-32.1,31.2-63.7,56.4-100.7,80.5
			c-7.6,4.9-11.4,15.5-6.2,23.6c4.9,7.5,15.5,11.5,23.6,6.2c36.3-23.6,70.5-50.5,101.9-80.3c31-29.4,61.4-61.7,76.9-102.2
			c8-20.9,10.5-43.4,7.3-65.5c-3-20.4-12.8-39.6-25-56c-13.1-17.7-28.2-34.5-48.8-43.3c-20.2-8.5-43.9-9.3-65.5-6.7
			c-24.8,3-46.9,12-65.2,29.2c-15.9,15-27.6,34.1-37.3,53.5c10.5,1.4,21,2.7,31.5,4.1c-13.7-38.3-48.8-64.5-88.4-71.4
			c-22.5-3.9-45.5-3.3-67.8,1.6c-19.7,4.3-38.6,13.8-52,29.1c-26.6,30.2-32.9,72.7-20.7,110.5c13.1,40.6,42.5,71.7,75.8,97.1
			c37.8,28.8,79.9,52.8,122.6,73.5c8.1,3.9,19,2.5,23.6-6.2C645,720.9,643.4,709.2,634.7,705L634.7,705z"/>
	</g>
</g>
<g>
	<g>
		<path class="st13" d="M672.3,733c-11.6-10.7-23.1-21.3-34.7-32c-1.2,9-2.3,18.1-3.5,27.1c12.3-7.9,25-15,38.2-21.3
			c3.2-1.5,6.5-3,9.8-4.4c0.8-0.4,1.6-0.7,2.5-1.1c-1.1,0.5-1.1,0.5,0,0c1.7-0.7,3.3-1.3,5-2c6.9-2.7,14-5.2,21.1-7.5
			c-6.5-8.5-13-16.9-19.5-25.4c-1,1.9-2.2,3.6-3.3,5.4c-1.2,1.6-1.2,1.7-0.2,0.3c-0.7,0.8-1.3,1.6-2,2.4c-2.5,2.8-5.1,5.4-7.9,7.8
			c-1.6,1.4-3.3,2.8-4.9,4.1c2.3-1.8-1.1,0.8-1.6,1.2c-3.4,2.5-7,5-10.5,7.4c7.9,7.9,15.7,15.7,23.6,23.6c0.9-1.9,1.9-3.8,3-5.6
			c0.6-0.9,1.2-1.8,1.8-2.6c-1.1,1.4-1,1.4,0.3-0.2c1.5-1.5,2.9-3,4.6-4.4c-2.6,2.2,2.4-1.5,3-1.8c-8.5-6.5-16.9-13-25.4-19.5
			c-0.6,1.6-0.6,1.9-0.2,0.7c0.5-1.2,0.3-1-0.5,0.5c1.9-1.5,0.3-0.8-0.5,0.5c-1.2,1.9,2.7-2-0.5,0.5c-2.7,2,2.3-0.5-1.2,0.6
			c4.4,10.5,8.9,21,13.3,31.5c19.7-14.4,39.6-28.6,59.2-43.2c19.4-14.5,36.4-30.1,50.1-50.2c12.5-18.5,21.6-39.1,29.4-60
			c4.2-11.2,8.5-22.4,9.9-34.4c1.5-11.7-0.9-23.6-5.4-34.4c-8.8-21.2-22.6-43-41.2-56.9c-20-15-46.3-15.3-69.3-7.4
			c-21.7,7.5-41.5,20.1-58.6,35.4c-8.1,7.2-16.5,15.4-22.4,24.6c-5.2,8-5.6,17.4-1.5,26c2.4,5.1,6.1,9.7,9.3,14.4
			c15.5,22.5,32,44.3,49.3,65.5c8,9.8,15.9,19.9,24.8,28.9c11.2,11.2,24.7,17.8,40.7,14.9c12.7-2.4,16.7-20.5,7.6-28.8
			c-9-8.3-17.6-17-25.7-26.2c-4-4.6-7.9-9.3-11.7-14.1c1.9,2.4-1-1.3-1.4-1.8c-1-1.3-2-2.7-3-4c-1.8-2.5-3.6-5-5.3-7.5
			c-6.9-10.1-13.3-20.6-19.1-31.4c-2.9-5.4-5.6-10.9-8.2-16.4c-1.3-2.8-2.5-5.6-3.7-8.4c1.3,3-0.8-1.9-0.8-2
			c-0.6-1.5-1.2-3.1-1.8-4.7c-9.6,5.6-19.2,11.2-28.8,16.8c36.3,33.7,71.1,69.1,104.7,105.5c13.1,14.2,38.2-4.5,27.1-20.9
			c-14.6-21.5-29.2-43-43.7-64.5c-13.6-20.1-28.6-39.9-39.1-61.8c-7.9,7.9-15.7,15.7-23.6,23.6c18.6,11.4,36.7,23.6,54.1,36.8
			c3.1,2.4,5.9,4.5,10.1,7.9c4.3,3.4,8.5,6.9,12.6,10.4c8.6,7.2,16.9,14.7,25.1,22.4c6.6,6.2,18,7,24.4,0c7-7.6,5.9-16.8,0-24.4
			c-28.4-36.6-56.9-73.2-85.3-109.9c-5.6,9.6-11.2,19.2-16.8,28.8c1.8,0.8,1.8,0.7,0,0c0.9,0.4,1.8,0.8,2.7,1.2
			c1.8,0.8,3.6,1.7,5.4,2.5c3.6,1.7,7.1,3.6,10.6,5.6c7,3.9,13.7,8.3,20,13.2c-3-2.3,1.8,1.5,2.3,2c1.5,1.3,3,2.6,4.5,3.9
			c2.6,2.3,5.1,4.7,7.5,7.2c2.7,2.8,5.3,5.8,7.8,8.8c1.2,1.5,1.2,1.5,0,0c0.6,0.8,1.2,1.6,1.7,2.4c1.1,1.6,2.2,3.2,3.3,4.8
			c2.1,3.3,4.1,6.6,5.9,10.1c0.9,1.7,1.7,3.5,2.6,5.3c0.8,1.8,0.8,1.8,0-0.1c0.4,0.9,0.7,1.8,1.1,2.7c1.2,3.2,2.3,6.5,3.2,9.8
			c0.2,0.7,1.5,6.6,1.1,4.1c0.1,1.2,0.2,2.4,0.2,3.6c0.4-1.6,0.3-1.3-0.2,0.8c1-2,1-2.1,0-0.3c1.4-1.6,1.4-1.7,0.1-0.3
			c2.3-1.7,3.6-1.3,6.1-1.9c1.5,0.7,1.3,0.6-0.6-0.3c-1.1-0.6-2.1-1.2-3.2-1.8c-2.3-1.3-4.5-2.6-6.7-3.8c-9-5.1-18-10.3-27-15.4
			c-13.2-7.6-29,4.9-25.4,19.5c1.8,7.3,3.6,14.7,5,22.1c0.3,1.7,0.6,3.3,0.9,5c0.1,0.8,0.3,1.7,0.4,2.5c-0.1-0.7-0.3-3.1,0,0.4
			c0.4,3.6,0.7,7.2,0.8,10.8c0.1,3.5-0.1,7.1-0.3,10.6c0,0.2-0.2,2.9,0,0.9c0.2-2.1-0.2,1.2-0.3,1.7c-0.3,1.8-0.7,3.7-1.2,5.5
			c-0.4,1.5-0.9,3.1-1.4,4.6c-1,3.1-0.3,1.1,0,0.4c-0.3,0.7-0.7,1.5-1,2.2c-0.7,1.5-1.5,2.9-2.3,4.3c-0.4,0.7-0.8,1.3-1.2,2
			c0-0.1-2.6,3.6-1.4,2c0.9-1.1-1.7,1.8-2.1,2.4c-1.2,1.3-2.5,2.6-3.8,3.8c-1.1,1.1-2.3,2.1-3.5,3.1c-0.1,0.1-2.1,1.7-0.7,0.6
			c1.4-1.1-1.1,0.8-1.4,1c-5.8,4.1-11.9,7.7-18.2,11c-7.1,3.7-14.3,7.2-21.6,10.4c-1.7,0.8-3.4,1.5-5,2.2c-0.8,0.4-1.7,0.7-2.5,1.1
			c0.4-0.2,1.7-0.7-0.1,0c-4,1.6-8,3.2-12,4.7c-17.5,6.6-35.4,12.1-53.6,16.4c7.1,4,14.2,8,21.2,12.1c0.7,2.2,0.5,4.1-0.5,5.8
			c-0.6,1.2-0.5,1,0.3-0.5c-1.6,1.9-0.3,0.4,0.7-0.6c2.2-2.2,4.6-4,6.9-6c2.5-2.1,5.1-4.1,7.7-6.2c0.6-0.4,3.2-2.5,1.5-1.1
			c1.4-1.1,2.9-2.2,4.3-3.2c10.3-7.7,20.8-15,31.6-22c21.9-14,44.8-26.4,68.5-37c-7.9-2.1-15.7-4.1-23.6-6.2c-1.8-4.3-1.6-5.4-0.3-9
			c-1,2.8,1.7-1.3-0.7,0.8c-2.7,2.3,2.2-0.9-1.2,1c-1.1,0.6-2.1,1.3-3.2,1.8c-6.8,3.5-9.8,4.4-16.8,7.1c-13.3,5.3-26.8,10-40.5,14.2
			c-27.4,8.4-55.4,14.5-83.8,18.4c5.6,9.6,11.2,19.2,16.8,28.8c10.5-8.4,18.8-14.8,30.3-23.2c10.7-7.8,21.6-15.4,32.6-22.8
			c22.3-14.9,45.2-28.9,68.7-41.9c-8.5-6.5-16.9-13-25.4-19.5c-0.6,3.3,1.1-1,1.7-1.8c-2.5,3,2.8-1.1-0.8,0.8
			c-2.7,1.4-5.3,2.8-8.1,4c-7.2,3.1-14.5,6.2-21.7,9.3c-13.9,5.9-27.8,11.8-41.7,17.7c-13.9,5.9-27.8,11.8-41.7,17.7
			c-6.2,2.7-12,5.6-17,10.2c-3,2.8-5.5,6.2-7.9,9.5c-0.2,0.3-3.5,4.1-1.2,1.6c-0.7,0.8-1.4,1.5-2.1,2.2c1.5-1.1,1.7-1.2,0.7-0.6
			c-1,0.6-2,1.2-3,1.7c3.6-1.9-0.4-0.1-1.1,0.2c-3.9,1.5,3.2,0.2-1,0.3c-1.4,0-2.9,0-4.3,0c-3.2,0-0.5,0,0.3,0.1
			c-1.4-0.3-2.9-0.6-4.3-0.9c-0.6-0.2-5.1-1.8-1.3-0.2c-2-0.8-3.8-1.9-5.6-3c-4.4-2.7-6.8-5-11.7-10.2c-4.8-5.1-9.2-10.6-13.7-16
			c-9.3-11.2-18.8-22.3-27.9-33.6c-1.1-1.3-2.2-2.7-3.2-4c1.9,2.5-1.5-2-1.5-2c-1.9-2.5-3.7-5.1-5.4-7.7
			c-3.9-5.9-7.6-12.1-10.4-18.6c0.3,0.7,0.9,2.5-0.2-0.5c-0.5-1.5-1.1-3-1.6-4.5c-1-3.1-1.6-6.2-2.3-9.3c-1.2-4.9,0.1,3.3-0.3-1.7
			c-0.1-1.1-0.2-2.1-0.2-3.2c-0.2-3.7-0.1-7.4,0.3-11c-0.5,4,0.3-1.1,0.4-1.6c0.2-1,0.5-2,0.8-3c0.4-1.5,0.9-3,1.5-4.4
			c-1.3,3.5,0.7-1.2,0.9-1.5c0.8-1.4,1.6-2.7,2.5-4.1c2.5-4.1-2,1.8,1.3-1.6c2.3-2.4,4.5-4.6,7-6.8c3.8-3.3-2.6,1.5,1.7-1.3
			c1.4-0.9,2.7-1.8,4.1-2.7c2.3-1.4,4.6-2.8,7-4.1c2.8-1.5,5.6-2.8,8.5-4.2c4.7-2.1-3.1,1.1,1.7-0.7c1.5-0.5,3-1.1,4.4-1.6
			c6-2.1,12.1-3.7,18.3-4.9c1-0.2,2.1-0.4,3.1-0.6c0.5-0.1,5.6-0.7,1.7-0.3c3.7-0.4,7.3-0.7,11-0.8c5.8-0.2,11.5,0.2,17.2,0.7
			c5.1,0.5-3.4-0.7,1.6,0.2c1,0.2,2.1,0.4,3.1,0.5c3.6,0.7,7.1,1.5,10.6,2.6c2.7,0.8,5.4,1.7,8.1,2.7c0.8,0.3,3.9,1.7,0.9,0.3
			c1.4,0.6,2.8,1.3,4.2,2c5.8,2.9,11.3,6.3,16.4,10.2c-2.6-2,1.7,1.4,1.8,1.5c1.3,1.1,2.5,2.2,3.8,3.3c2.1,1.9,4.1,3.8,6.1,5.8
			c4.8,4.8,9.2,9.9,13.5,15.1c2.2,2.6,4.3,5.3,6.4,8c-2-2.6,1.4,1.8,1.4,1.9c1,1.3,2.1,2.7,3.1,4c4.1,5.4,8.2,10.8,12,16.4
			c3.5,5.1,6.5,10.4,9.3,15.9c2.3,4.6-0.8-2.9,0.8,2c0.4,1.3,0.9,2.6,1.3,3.9c0.1,0.4,1.1,4,1.1,4c-0.2-1-0.1-2,0.3-3
			c0.7-2.5,2-4.4,4.1-5.5c-3.3,2.3,3.3-0.7-0.7,0.5c-1.4,0.4-2.8,0.9-4.2,1.3c-2.8,0.8-5.6,1.7-8.4,2.6c-6.7,2.2-13.4,4.6-19.9,7.2
			c-26.6,10.6-51.9,24-75.1,40.8c-2.3,1.7-4.6,3.5-7,5.1c-1.4,1-2.9,1.9-4.4,2.7c3.1-1.6-1.8,1.2-2.1,0.6c-0.4-0.7,4.3,0.1,3.9,0.5
			c-0.3,0.3-4.6-3.2-1.8-1c-2.8-2.2-5.4-4.7-8.1-7.2c-10.4-9.5-20.3-19.6-29.6-30.1c-2.3-2.7-4.6-5.3-6.9-8.1
			c-1.1-1.3-2.1-2.6-3.2-4c-3.4-4.3,1,1.4-0.9-1.2c-4.2-5.7-8.2-11.5-11.5-17.8c-1.3-2.5-2.6-5-3.7-7.6c1.3,3.1-0.7-2-0.7-2.1
			c-0.5-1.6-1.1-3.1-1.5-4.7c-0.7-2.5-1.2-5-1.7-7.6c-1-4.9,0,3.4-0.2-1.6c-0.1-2.1-0.3-4.2-0.2-6.2c0-1.6,0.1-3.1,0.2-4.7
			c0.2-3.3,0-0.8-0.1,0c0.5-3,1.2-6.1,2.1-9c0.2-0.5,2.2-5,0.5-1.6c0.7-1.4,1.4-2.7,2.1-4.1c0.5-0.9,1.1-1.7,1.7-2.6
			c1.2-1.6,1.2-1.7,0-0.1c0.6-0.8,1.3-1.5,2-2.2c1-1.1,2.2-2,3.2-3.1c3.3-3.2-2.7,1.5,1.2-1c2.1-1.4,4.1-2.7,6.4-3.9
			c1.3-0.7,2.7-1.4,4.1-1.9c-3.6,1.5,1.1-0.3,1.5-0.4c2.9-1,5.8-1.8,8.8-2.4c1.5-0.3,3-0.6,4.5-0.8c-4.1,0.7,0.9-0.1,1.4-0.1
			c3.1-0.3,6.2-0.4,9.2-0.4c2.6,0,5.2,0.1,7.8,0.3c1.6,0.1,3.1,0.3,4.6,0.4c2,0.2,2.1,0.2,0,0c1,0.2,2,0.3,3.1,0.5
			c5.6,1,11.1,2.4,16.5,4.2c2.5,0.8,4.9,1.7,7.3,2.6c0.4,0.1,5.1,2.2,1.6,0.7c1.9,0.9,3.8,1.7,5.7,2.6c5.2,2.6,10.3,5.4,15.1,8.5
			c2.7,1.7,5.3,3.5,7.9,5.3c1.1,0.8,2.2,1.5,3.2,2.3c0.6,0.5,1.3,1,1.9,1.4c-1.4-1.1-1.3-1,0.3,0.2c9.8,7.9,18.9,16.5,27.2,25.9
			c1.9,2.2,3.9,4.3,5.7,6.6c-2.1-2.8,0.9,1.6,1,1.8c1.8,3,0-0.1-0.1-1.4c-0.5-6,1.3-3,2.1-5.8c0.4-0.4,0.8-0.7,1.2-1.1
			c-0.8,0.5-1.7,0.9-2.5,1.3c-4,1.9-8.1,3.6-12.2,5.4c-13.9,6.1-27.9,12.3-41.8,18.4s-27.9,12.3-41.8,18.4c-1.8,0.8-3.6,1.7-5.5,2.4
			c3.6-1.4-1.9,0.7-1.9,0.5c-0.1-0.3,4.1,0,4.5,0.8c-0.1-0.2-2.1-1.2-2.5-1.5c3.1,2.2-0.6-0.9-1-1.2c-1.2-1.1-2.4-2.3-3.5-3.5
			c-2.7-2.8-5.4-5.6-7.9-8.5c-0.7-0.8-1.4-1.7-2.2-2.5c-0.1-0.1-3.4-4.4-1.4-1.7c-2-2.6-3.8-5.4-5.5-8.2c-1.4-2.4-2.6-4.8-3.9-7.2
			c-2.4-4.5,0.8,2.9-0.8-1.9c-0.7-2-1.4-3.9-1.9-5.9c-0.4-1.5-0.7-3-1-4.5c-0.7-3.3-0.1-0.7-0.1,0c-0.3-3-0.4-6.1-0.3-9.1
			c0-0.6,0.7-5.5,0-1.4c0.3-1.5,0.6-3,0.9-4.4c0.3-1,0.6-1.9,0.8-2.9c0.7-1.9,0.7-1.9-0.1,0c0.4-0.9,0.8-1.8,1.3-2.7
			c0.7-1.3,1.5-2.6,2.3-3.8c-2,3.1,0.6-0.7,1.1-1.2c0.9-0.9,1.9-1.7,2.7-2.6c1.7-1.9-3.1,1.8,0.7-0.5c2.6-1.6,5.1-3.2,7.9-4.4
			c-3.5,1.5,1.2-0.3,1.6-0.4c1.5-0.5,3-0.9,4.4-1.3c1.5-0.4,3-0.7,4.5-1c0.5-0.1,5.6-0.7,1.5-0.3c2.8-0.3,5.6-0.5,8.4-0.5
			c2.7-0.1,5.4,0,8.2,0.1c1.5,0.1,3,0.2,4.4,0.3c1,0.1,2,0.2,2.9,0.3c-2.1-0.3-2.2-0.3-0.2,0c5.4,1,10.6,2.2,15.8,3.8
			c2.4,0.7,4.7,1.6,7,2.5c4.6,1.7-3.1-1.5,1.4,0.5c1.8,0.8,3.6,1.7,5.4,2.6c4.9,2.5,9.6,5.3,14,8.4c1.2,0.8,2.4,1.7,3.6,2.6
			c-3.1-2.3,0.8,0.7,1.2,1c2.3,1.9,4.5,3.9,6.6,5.9c2.1,2.1,4.2,4.2,6.1,6.4c1,1.1,1.9,2.3,2.9,3.4c0.4,0.5,1.9,2.6,0,0
			c3.5,4.8,6.7,9.8,9.5,15.1c5-8.7,9.9-17.3,14.9-26c-43.4-0.7-87.1,6.6-127.7,21.9c7.1,4,14.2,8,21.2,12.1c-2.4,7.8-2.7,10.2-1,7.2
			c0.5-0.8,0.5-0.9,0-0.1c-1.4,1.6,1.8-1.7,2.1-2c2-2.1,4.1-4.2,6.2-6.3c4.2-4.1,8.5-8.2,12.9-12.1c4.2-3.7,8.4-7.4,12.8-10.9
			c1.1-0.9,2.3-1.9,3.4-2.8c0.3-0.2,3.6-2.8,2.4-1.9c-1,0.8,2.5-1.9,2.5-1.9c1.2-0.9,2.4-1.8,3.6-2.6c9.3-6.8,18.9-13.1,28.8-18.9
			c2.6-1.5,5.2-2.9,7.9-4.3c1.1-0.5,2.1-1,3.2-1.5c5-2.3-2.7,0.8,2.5-1c2.5-0.9,5-1.7,7.6-2.3c1-0.2,3.9-0.8,1.5-0.4
			c1.7-0.3,3.5-0.3,5.3-0.3c-4.1-9.8-8.1-19.6-12.2-29.5c-15.7,16.7-32.1,32.6-49.2,47.7c-8.5,7.4-17.1,14.7-25.9,21.7
			c-8.1,6.4-16,12.4-25.7,19.3c8.5,6.5,16.9,13,25.4,19.5c0.5-1.9,1-3.7,1.7-5.5c-1.3,3.4,0.8-1.3,1.4-2.3c0.4-0.6,0.8-1.2,1.2-1.8
			c1.2-2.2-1.8,1.9-0.1,0.1c1.5-1.5,3-3.1,4.5-4.6c0.6-0.6,2.5-1.6-0.1,0c0.8-0.5,1.6-1.1,2.4-1.6c0.6-0.4,4.8-2.6,3-1.7
			c-2,1,0.7-0.3,1.3-0.4c0.9-0.3,1.8-0.6,2.7-0.8c0.7-0.2,1.4-0.3,2.1-0.5c2.9-0.6,0,0.1-1.1-0.3c-0.7-0.2-4.6-2.2-4.4-3.3
			c0,0.3,1,1.7,1.1,2c0.5,0.9,0.9,1.8,1.3,2.7c1.2,2.3-0.7-2.5,0,0c1.1,3.8,2.2,7.6,3.1,11.5c0.6,2.6-0.1-2.8,0-0.2c0,1,0.2,2,0.2,3
			c0.1,1.7,0.1,3.5,0,5.2c0,1.2-0.9,6.5-0.1,2.8c-0.4,2.2-0.9,4.3-1.5,6.4c-0.5,1.6-1,3.3-1.7,4.8c1.4-3.4-0.9,1.5-1.5,2.4
			c-0.4,0.8-3.8,5.2-1.5,2.5c-1.3,1.5-2.7,3-4.2,4.4c-0.5,0.5-1,0.9-1.5,1.3c2.5-2.3,1-0.7,0.2-0.3c-1.5,1-3,1.9-4.7,2.8
			c-0.8,0.4-1.6,0.8-2.4,1.2c0.6-0.3,3.3-1.2,0.3-0.2c-1.7,0.5-3.4,1.1-5.2,1.5c-0.9,0.2-1.8,0.3-2.7,0.5c3.6-0.8,1.6-0.2,0.6-0.1
			c-1.8,0-3.6,0.2-5.4,0.1c-0.7,0-1.3-0.1-2-0.1c-2.4-0.1,2.9,0.9,0.6,0.1c-1.8-0.7-3.9-1-5.8-1.6c-1.2-0.4-2.1-1.5,0.5,0.2
			c-0.7-0.5-1.6-0.8-2.4-1.3c-0.8-0.4-1.5-1-2.3-1.4c0.2,0.1,2.1,1.9,0.7,0.5c-1.4-1.3-2.8-2.8-4.2-4.1c-1.4-1.2,0.2,0.4,0.4,0.7
			c-0.9-1.2-1.7-2.4-2.4-3.6c-0.9-1.5-1.7-3-2.5-4.5c-0.2-0.5-1.4-3.3-0.6-1.3c0.8,2-0.3-1-0.5-1.4c-1.3-3.8-2.3-7.7-3.1-11.7
			c-0.2-1-0.3-2-0.5-3c-0.6-2.6,0.3,2.8,0,0.1c-0.2-1.8-0.4-3.7-0.6-5.5c-0.4-5.1-0.6-10.2-0.6-15.4c0-4.5,0.2-9,0.6-13.5
			c0.2-2.4,0.4-4.8,0.8-7.2c-0.1,0.8-0.4,2.8,0.1-0.8c0.2-1.5,0.5-3,0.8-4.5c1.7-9.2,4.1-18.2,7.2-27.1c0.8-2.3,1.7-4.5,2.6-6.8
			c0.2-0.5,1.6-3.1,0.2-0.5c0.4-0.9,0.8-1.8,1.3-2.6c0.8-1.6,1.7-3.1,2.7-4.5c0.3-0.4,2.2-2.9,0.9-1.3c-1.4,1.7,1.3-1.3,1.5-1.6
			c0.7-0.7,1.4-1.3,2.1-2c-0.5,0.4-2.7,1.9-0.1,0.3c1.4-0.8,2-0.3-0.5,0.1c0.6-0.1,2.3-1,0.2-0.3c-2.9,1,2.2-0.1-0.7-0.1
			c-3,0,2,0.9-0.4-0.1c-2.6-1.1,1.9,1.6-0.2-0.1c-1.8-1.4,1.2,1.4,1.3,1.5c-2.2-2.4,0.3,0.8,0.9,1.9c0.5,0.9,0.8,1.8,1.3,2.6
			c1.3,2.3-1-2.8,0,0c1.6,4.7,3.4,9.4,4.7,14.2c1.1,4,1.9,8,2.6,12c0.2,1.2,0.4,2.3,0.6,3.5c-0.4-2.7,0,0.2,0.1,0.6
			c0.2,2.6,0.5,5.3,0.6,7.9c0.3,5.3,0.2,10.6-0.1,15.8c-0.2,2.6-0.4,5.3-0.7,7.9c0.3-2.8-0.5,3.2-0.7,4.1c-1,5.2-2.2,10.3-3.8,15.4
			c-0.3,1.1-0.8,2.2-1.1,3.3c0.9-2,1.1-2.4,0.5-1.2c-0.5,0.8-0.4,0.8,0.3-0.2c0.2-0.2,0.4-0.5,0.6-0.7c7.8-4.2,13.6-4,17.5,0.6
			c1.1,1.6,1.5,3.1,0.5,0.4c-3.8-10.6-6.8-21.4-8.6-32.5c-0.2-0.9-0.3-1.8-0.4-2.8c-0.2-1.2-0.2-1.2,0,0c-0.1-0.6-0.1-1.2-0.2-1.9
			c-0.3-2.8-0.6-5.6-0.7-8.4c-0.4-5.9-0.4-11.8-0.2-17.8c-11.3,1.5-22.6,3.1-33.9,4.6c0.9,4-0.9-2.3,0.1,1.3c-0.1,2-0.1,2,0.2-0.1
			c-0.1,0.7-0.3,1.5-0.5,2.2c-0.4,1.2-0.2,1,0.4-0.6c-0.3,0.7-0.7,1.3-1,2c-0.4,0.7-0.8,1.3-1.2,1.9c1.2-1.5,1.1-1.6-0.2-0.1
			c9.6,2.5,19.2,5.1,28.8,7.6c-0.9-3.2-1.7-6.4-2.4-9.7c-0.2-0.8-0.6-4.1-0.3-1.7c-0.2-1.8-0.4-3.6-0.5-5.4
			c-0.1-1.4-0.1-2.8-0.1-4.2c-0.1-3.2-0.7-0.5-0.3,0.3c-0.1-0.2,0.7-3.5,0.9-3.6c-0.3,0.7-0.5,1.3-0.8,2c0.8-1.3,0.8-1.3-0.1,0
			c-3.3,2.5-5.9,5.4-10.9,3.7c-0.7-0.2-3.8-2.5-2.4-1.2c1.3,1.4-1.1-2.2,0.4,0.5c0.8,1.5,1.7,3,2.5,4.6c0.2,0.5,0.5,1.1,0.7,1.6
			c-0.5-1.2-0.6-1.2-0.1-0.1c0.4,1.4,0.9,2.8,1.3,4.2c0.4,1.7,0.8,3.4,1.1,5.1c-0.4-3,0,1.8,0,2.4c0.4,9,7.7,17.7,17.3,17.3
			c9-0.4,17.6-7.6,17.3-17.3c-0.5-11.8-3.4-23.4-9.3-33.7c-6.6-11.5-19.1-20.8-32.9-16.4c-25.1,8-20.2,41.5-14.6,60.8
			c3.6,12.4,19.6,16.9,28.8,7.6c10.6-10.7,14.4-25.5,11.2-40.1c-1.8-8.4-10.9-13.4-18.9-12.4c-8.6,1.2-14.7,8.3-15,16.9
			c-0.4,14,0.8,28,3.2,41.9c2.2,12.7,5.5,26.2,11.3,37.8c3.9,7.7,11.5,13.8,20.5,13.8c9,0,16.4-5.3,20.7-12.9
			c6.4-11.3,8.3-26.3,9.8-39c2.9-24.5-0.5-50.4-9.8-73.3c-5.2-12.6-13-24.3-27.1-27.9c-13.9-3.5-27.9,3.6-36.5,14.3
			c-16.1,20.1-22,48.4-24.8,73.4c-2.6,23.8-1.4,49.6,8.5,71.7c9.7,21.6,31.5,36,55.4,34.2c25.1-1.9,45.8-16.8,55.3-40.1
			c5.1-12.6,5.9-26.2,4-39.5c-1.9-12.9-7.3-30.5-19.8-36.8c-13.8-6.9-32.1-1.4-43.9,7.4c-11.3,8.4-19.9,19.8-23.3,33.7
			c-1.6,6.8,0.6,13.8,6.2,18.1c5.1,3.9,13.6,5.3,19.2,1.3c38.9-27.9,75.1-59.2,107.9-94.1c9.9-10.5,3.2-29.9-12.2-29.5
			c-29.3,0.7-55.8,19.5-78.4,36.5c-11.5,8.7-22.7,17.8-33.3,27.7c-10.7,10-29.8,24.8-23.2,41.6c3.2,8.1,11.7,15.6,21.2,12.1
			c19.3-7.2,39.3-12.7,59.6-16.3c2.5-0.4,4.9-0.8,7.4-1.2c1.2-0.2,2.5-0.4,3.7-0.5c-1.9,0.3,0.4,0,1-0.1c5-0.6,9.9-1.1,14.9-1.5
			c10.6-0.8,21.2-1.1,31.9-0.9c13.6,0.2,20.8-14.7,14.9-26c-13.2-25-35.3-45.7-61.1-57.4c-26.4-12-58.4-17.6-86.5-8.1
			c-15.5,5.3-30.1,15.4-37.2,30.6c-7.1,15.2-8.4,31.8-4.5,48.1c3.8,15.9,13,30,23.4,42.3c11.3,13.5,24.9,28.5,44.2,25
			c8.7-1.6,17.3-6.7,25.4-10.3c8.2-3.6,16.4-7.2,24.6-10.8c16.1-7.1,32.1-14.2,48.2-21.2c7.7-3.4,17.2-6.1,23.2-12.2
			c8.8-8.8,9.5-20.8,4.7-31.7c-3.2-7.4-9.2-13.6-14.5-19.5c-4.8-5.3-9.9-10.5-15.2-15.3c-21.9-20-47.9-36.6-76.8-44.1
			c-28.3-7.3-63.1-6.9-87.7,10.8c-13.4,9.7-23.4,23-27.2,39.3c-3.7,15.4-2.7,32,2.4,47c10.6,31.1,34.5,56.9,57.7,79.4
			c13.4,12.9,27.9,29,48.4,23.9c8.6-2.1,15.4-7.6,22.4-12.6c6.5-4.6,13.1-9,19.9-13.1c13.3-8.1,27.2-15.3,41.5-21.5
			c-2.1,0.9,1.8-0.7,2.4-1c1.9-0.8,3.8-1.5,5.7-2.3c3.6-1.4,7.2-2.7,10.8-3.9c7.4-2.6,15-4.4,22.2-7.5c40.1-16.9-0.7-68.1-16.3-88.5
			c-19.8-25.8-41.1-49.3-71.9-61.8c-27.7-11.2-59.9-11.4-88.4-3.2c-30.2,8.6-62.2,27.2-71.4,59.2c-9.1,31.7,4.5,64,23.3,89.1
			c10.3,13.7,21.5,26.7,32.5,39.9c10.7,12.8,20.9,26.1,34.8,35.6c13.1,9,30.8,12.9,46.3,8.2c8.8-2.7,16.2-7.7,21.8-15
			c1.3-1.6,2.6-3.2,3.7-5c1.1-1.6-0.1,0-0.3,0.3c0.5-0.6,1-1.2,1.6-1.8c0.3-0.3,2.8-2.5,1.2-1.2c-1.5,1.1,0.6-0.3,0.8-0.4
			c1.6-0.9,3.2-1.8,4.8-2.6c15.5-7.4,31.7-13.6,47.6-20.3c16-6.8,32-13.6,48-20.4c14.3-6.1,34.4-11.8,37.5-29.7
			c1.2-7-0.3-13.6-6.2-18.1c-5.5-4.3-13-4.8-19.2-1.3c-48.8,27.1-95,58.4-138.5,93.2c-5.7,4.5-6.5,15-2.7,20.9
			c4.5,7,11.5,9,19.5,7.9c32.7-4.5,64.9-11.9,96.2-22.4c16.2-5.4,32.1-11.6,47.7-18.4c7-3,13.7-6.9,18.7-12.7
			c8.2-9.6,9.4-20.1,4.5-31.6c-1.5-3.5-6.7-7.1-10.3-7.9c-4.8-1.1-8.8-0.3-13.3,1.7c-26.4,11.9-51.9,25.9-76,41.9
			c-12.7,8.4-24.9,17.5-36.9,26.9c-13.6,10.7-27.9,21.6-24,41c1.9,9.4,12.7,14.1,21.2,12.1c35.2-8.4,69.6-21.1,101.7-37.7
			c14.1-7.3,28.3-16.2,38.5-28.5c12.1-14.5,18-31.8,18.9-50.5c0.9-19.3-3.6-38.7-8.2-57.2c-8.5,6.5-16.9,13-25.4,19.5
			c8.4,4.8,16.9,9.6,25.3,14.4c9,5.2,18.2,11.7,29.1,11.5c12-0.2,21.8-8.6,26.3-19.3c4.3-10.1,2.7-21.4-0.2-31.7
			c-9-31.5-30.2-57.1-56-76.6c-14.2-10.8-30-18.8-46.5-25.5c-6.7-2.7-16.2,1.8-19.5,7.9c-3.9,7.4-2.2,14.6,2.7,20.9
			c28.4,36.6,56.9,73.2,85.3,109.9c8.1-8.1,16.3-16.3,24.4-24.4c-33.4-31.2-70-59.1-109-82.9c-6.3-3.8-15.8-2.8-20.9,2.7
			c-5.5,6-6.2,13.7-2.7,20.9c10.6,22,25.5,41.7,39.1,61.8c14.6,21.5,29.2,43,43.7,64.5c9-7,18.1-13.9,27.1-20.9
			C749.8,558,715,522.7,678.6,488.9c-5.4-5-14.4-6.9-20.9-2.7c-6,3.9-10.8,12.3-7.9,19.5c19.6,50.1,49.9,95.4,89.6,131.8
			c2.5-9.6,5.1-19.2,7.6-28.8c3.3-0.6,1.1-0.2,0.2-0.2c2.9-0.1,1.6,0.3,0.3-0.1c-3.1-1-0.6-0.2,0,0.1c-0.9-0.5-1.8-1-2.6-1.5
			c-2.7-1.5-1-0.6-0.3,0c-0.8-0.6-1.6-1.4-2.4-2.1c-2-1.8-3.8-3.7-5.6-5.7c-6.8-7.5-13.3-15.4-19.8-23.2c-3.2-3.8-6.3-7.7-9.4-11.6
			c-1.6-1.9-3.1-3.9-4.6-5.9c-0.8-1-1.5-2-2.3-2.9c-0.7-0.9-0.8-1-0.2-0.2c-0.4-0.5-0.8-1-1.1-1.5c-6.4-8.4-12.7-16.9-18.9-25.5
			c-2.9-4.1-5.8-8.1-8.6-12.2c-1.4-2-2.8-4.1-4.2-6.2c-0.8-1.2-3.7-7.1-4.9-7.5c1,0.3,0.1,7.6,0.3,8.1c0,0-2.6,3.1,0.4-0.5
			c1.4-1.7,2.8-3.4,4.3-5c3.1-3.5,6.4-6.8,9.8-10c3.2-3,6.5-5.9,9.9-8.6c2.2-1.8-1.8,1.4,0.4-0.3c0.9-0.7,1.8-1.3,2.6-2
			c2-1.4,4-2.9,6.1-4.2c3.7-2.4,7.4-4.7,11.3-6.8c1.9-1.1,3.9-2.1,5.8-3.1c1-0.5,2-1,3-1.5c0,0,4.9-2.1,2.3-1
			c4.3-1.7,8.8-3.2,13.3-4.3c2.2-0.6,4.5-1,6.8-1.4c-0.8,0.1-2.9,0.2,0.5,0c1.4-0.1,2.8-0.2,4.3-0.2c1.1,0,2.3,0,3.4,0
			c0.4,0,3.9,0.3,1.9,0.1c-2-0.2,1.4,0.3,1.9,0.4c1.1,0.2,2.2,0.5,3.3,0.8c1.1,0.3,2.1,0.7,3.2,1c2.7,0.8-1.9-1,0.4,0.2
			c2.1,1.1,4.1,2.3,6.1,3.6c2.7,1.8,0.9,0.6,0.3,0.1c1,0.8,2,1.7,3,2.6c1.6,1.4,3,3,4.5,4.5c0.7,0.8,1.4,1.6,2.1,2.4
			c0.3,0.3,2.4,2.9,1.2,1.4c-1.2-1.5,0.8,1.1,1.1,1.5c0.8,1.1,1.6,2.2,2.3,3.3c5.4,7.9,10.5,16.1,14.5,24.8
			c-1.2-2.6,1.2,3.3,1.4,3.8c0.7,2.2,1.2,4.3,1.8,6.5c0.1,0.5,0.6,3.4,0.2,0.4c0.1,1.1,0.2,2.2,0.3,3.4c0,1.1,0,2.3,0,3.4
			c0,0.4-0.5,4.7-0.2,2.9c0.3-1.9-0.4,1.7-0.5,2.1c-0.3,1.2-0.6,2.3-0.9,3.4c-0.6,2.3-1.4,4.5-2.1,6.8c-1.6,4.6-3.2,9.1-4.9,13.7
			c-1.6,4.2-3.2,8.4-4.9,12.6c-1.3,3.2-0.5,1.3-0.2,0.6c-0.4,1-0.9,2.1-1.3,3.1c-1.1,2.6-2.3,5.2-3.5,7.7c-4,8.4-8.4,16.5-13.3,24.4
			c-1.3,2.1-2.7,4.2-4.2,6.3c-0.6,0.9-1.3,1.8-1.9,2.7c0,0.1-3.2,4.3-1.3,1.9c-3.2,4.2-6.8,8.2-10.5,12c-3.9,4-8.1,7.8-12.4,11.5
			c-2.1,1.7-4.2,3.4-6.3,5.1c-2.3,1.8,1.6-1.2-0.8,0.6c-1.2,0.9-2.4,1.8-3.6,2.7c-19.6,14.6-39.5,28.8-59.2,43.2
			c-7,5.1-10.6,13.1-7.1,21.6c3.2,7.6,12.1,12.6,20.4,10c13.3-4.2,22.7-13.7,27.2-26.8c4.9-14.4-12.9-27-25.4-19.5
			c-10.6,6.4-19.6,15.7-25,26.9c-3.2,6.7-3.2,15.5,2.7,20.9c5.4,4.9,14.5,7.1,20.9,2.7c16.4-11.3,32.9-23.3,42.9-41
			c7.1-12.6-4.8-30.1-19.5-25.4c-29.8,9.6-58.4,22.9-84.7,39.8c-9,5.8-12,19.3-3.5,27.1c11.6,10.7,23.1,21.3,34.7,32
			c6.6,6.1,17.9,7.1,24.4,0C678.4,750.8,679.4,739.6,672.3,733L672.3,733z"/>
	</g>
</g>
<g>
	<g>
		<path class="st14" d="M521.8,424.2c-37.5,2.1-72.4,25-89.6,58.4c-9.1,17.6-13.4,37.3-11.3,57.1c2.4,23,10.6,44.4,21.9,64.4
			c11.5,20.3,26.2,39.2,46.3,51.6c7.7,4.8,19.3,1.9,23.6-6.2c4.5-8.4,2-18.5-6.2-23.6c-1.8-1.1-3.6-2.3-5.3-3.5
			c-0.5-0.3-2.5-2-0.3-0.2c-0.8-0.7-1.6-1.4-2.4-2.1c-3.2-2.8-6.2-5.8-9.1-9c-1.3-1.4-2.4-2.8-3.6-4.3c-1.8-2.1,1.4,1.9-0.3-0.3
			c-0.7-0.9-1.3-1.7-1.9-2.6c-2.5-3.5-4.9-7.1-7.1-10.8c-4.9-7.9-9.3-16.2-13-24.7c-0.8-1.8-0.1-0.4,0,0c-0.4-1.1-0.9-2.2-1.3-3.3
			c-0.8-2.2-1.6-4.5-2.3-6.7c-1.4-4.5-2.6-9.1-3.6-13.7c-0.1-0.6-1.1-7.1-0.7-4.1c-0.3-2.3-0.4-4.7-0.5-7c-0.2-4.4,0.1-8.7,0.4-13
			c-0.3,3.9,0.2-1.1,0.5-2.3c0.3-1.6,0.7-3.2,1.1-4.8c0.4-1.6,0.9-3.1,1.4-4.7c0.3-0.9,0.6-1.8,0.9-2.6c0,0,1.6-4.1,0.7-1.8
			c-0.9,2.1,0.3-0.6,0.5-1.1c0.4-0.8,0.8-1.7,1.2-2.5c0.7-1.5,1.5-2.9,2.3-4.3c0.9-1.6,1.9-3.2,2.9-4.8c0.5-0.8,1-1.6,1.6-2.3
			c0.3-0.4,2.6-3.5,1.2-1.6c-1.2,1.5,1.7-2,2.2-2.6c1.2-1.4,2.5-2.8,3.8-4.1c2.6-2.7,5.5-5.1,8.3-7.5c-2.8,2.4,1.7-1.2,2.7-1.9
			c1.7-1.2,3.5-2.3,5.3-3.4c1.8-1.1,3.7-2.1,5.5-3c0.8-0.4,1.7-0.8,2.5-1.2c2.3-1.2-3.8,1.4,0.4-0.2c3.7-1.4,7.5-2.6,11.3-3.5
			c2-0.5,4.1-0.8,6.2-1.2c-3.6,0.7-1.3,0.1-0.4,0.1c1.4-0.1,2.8-0.2,4.2-0.3c9-0.5,17.7-7.6,17.3-17.3
			C538.7,432.6,531.5,423.7,521.8,424.2L521.8,424.2z"/>
	</g>
</g>
<g>
	<g>
		<path class="st14" d="M548.7,696.3c7.8,4.2,15.2,9,22.4,14.2c1.7,1.3,3.5,2.6,5.2,3.9c0.9,0.6,1.7,1.3,2.6,2
			c2.2,1.7-1.8-1.4,0.4,0.3c4.4,3.4,8.7,6.8,13.1,10.1c14.9,11.5,30,21.6,47.5,28.7c8.4,3.4,19.3-3.7,21.2-12.1
			c2.3-10-3.1-17.6-12.1-21.2c3.2,1.3-2.6-1.2-3.2-1.5c-1.9-0.9-3.8-1.9-5.7-2.9c-3.7-2.1-7.4-4.3-10.9-6.6
			c-3.6-2.4-7.1-4.8-10.5-7.4c-1.7-1.3-3.4-2.6-5.2-3.9c-0.9-0.7-1.7-1.3-2.6-2c1.4,1.1,1.2,1-0.3-0.3
			c-14.3-11.1-28.5-22.6-44.5-31.2c-8-4.2-19.1-2.3-23.6,6.2C538.3,680.7,540.2,691.8,548.7,696.3L548.7,696.3z"/>
	</g>
</g>
<g>
	<g>
		<path class="st15" d="M805.8,483.5c2.5,2,4.9,4,7.1,6.4c0.6,0.7,4,5,1.6,1.7c1,1.5,2.1,2.9,3,4.4c0.8,1.3,1.6,2.7,2.3,4.1
			c0.7,1.3,2.1,4.6,0.8,1.4c1.4,3.4,2.5,6.8,3.4,10.4c0.4,1.6,0.7,3.1,1,4.7c0.3,1.6,0.5,5,0.3,1.6c0.2,3.7,0.6,7.4,0.5,11.2
			c0,3.3-0.4,6.5-0.6,9.8c0.4-4.4-0.3,1.4-0.5,2.3c-0.4,1.8-0.8,3.7-1.2,5.5c-0.8,3.2-1.8,6.4-3,9.6c-0.4,1.1-0.8,2.1-1.2,3.2
			c0.3-0.7,1.2-2.6-0.2,0.5c-0.9,2-1.9,4.1-2.9,6.1c-3.8,7.5-8.4,14.6-13.3,21.5c-0.7,0.9-1.3,1.8-2,2.7c0,0-1.7,2.2-0.7,1
			c1.1-1.5-1,1.3-1.3,1.6c-0.5,0.7-1.1,1.3-1.6,2c-2.9,3.5-5.8,7-8.8,10.4c-5.6,6.4-11.5,12.6-17.3,18.8
			c-15.4,16.3-30.8,32.5-46.2,48.8c-6.2,6.6-7,18,0,24.4c6.7,6.2,17.8,7,24.4,0c14.8-15.6,29.6-31.2,44.4-46.8
			c13.4-14.1,26.5-28.3,38-44c21.4-29.1,33.6-64.2,26.3-100.4c-3.6-17.9-13.2-35.6-27.8-46.9c-7.1-5.5-17.6-7.5-24.4,0
			C800.1,465.3,798.2,477.6,805.8,483.5L805.8,483.5z"/>
	</g>
</g>
<g>
	<g>
		<g>
			<g>
				<g>
					<g>
						<path class="st16" d="M596.7,726.2c-24.4,1.1-47.7,7.6-69.4,18.7c-6.3,3.2-9.4,11.1-8.5,17.7c1,7.3,5.9,12.5,12.8,14.8
							c10.6,3.7,22.5,3.7,33.1,0.1c-4.6-10.9-9.1-21.7-13.7-32.6c-8.4,5-16.9,9.8-25.7,14.1c-2,0.9-2.2,1-0.7,0.4
							c-1.1,0.5-2.2,0.9-3.3,1.3c-2.2,0.8-4.5,1.6-6.8,2.2c-1.7,0.5-3.4,0.9-5.2,1.3c-1.2,0.2-2.3,0.5-3.5,0.6
							c1.8-0.2,1.6-0.2-0.5,0c-2.4,0.1-4.7,0.2-7,0.1c-1.2,0-2.3-0.1-3.5-0.3c1.8,0.2,1.7,0.2-0.5-0.2c-2.3-0.6-4.6-1.1-6.8-2
							c1.4,0.6,1.3,0.5-0.4-0.3c-1.7-1.1-1.6-0.9,0.4,0.5c-1.8-3.4,1.5,3.1-0.1,0.1c-1.4-2.7,1.1,4-0.3-0.8
							c-0.9-2.8-1.3-5.8-2.2-8.6c-3-9.5-8.6-17-17-22.3c-8.6-5.4-18.7-8.5-28.1-12.1c-1.1-0.4-2.2-0.8-3.2-1.3
							c1.6,0.7,1.4,0.6-0.5-0.2c-1.6-0.7-3.1-1.5-4.6-2.3c-4-2.1-7.8-4.7-11.5-7.3c-1.7-1.3-1.8-1.4-0.5-0.4
							c-0.9-0.7-1.8-1.4-2.7-2.2c-1.8-1.5-3.6-3-5.3-4.5c-3.5-3.1-7-6.3-10.5-9.5c-7.2,9.3-14.4,18.6-21.6,28
							c5.3,2.7,10.3,5.7,15.1,9.1c0.8,0.5,4.2,3.2,0.9,0.6c1.1,0.9,2.2,1.7,3.3,2.6c1.9,1.6,3.9,3.3,5.7,5
							c7.8,7.1,14.9,14.8,22.3,22.3c16.4,16.6,34.8,30.8,57.8,36.6c9,2.3,19.7-2.9,21.9-12.4c2.1-9.2-2.8-19.5-12.4-21.9
							c-2.8-0.7-5.6-1.5-8.3-2.5c-0.9-0.3-4.9-2-0.9-0.3c-1-0.5-2.1-0.9-3.1-1.4c-4.5-2.2-8.9-4.9-13-7.9c-0.7-0.5-4-3.3-0.5-0.4
							c-1-0.8-2-1.6-3-2.5c-1.8-1.5-3.6-3.1-5.3-4.8c-3.7-3.4-7.2-7-10.8-10.6c-15.7-16.1-31.5-32.2-51.8-42.4c-8-4-17.4-2.7-23,4.6
							c-5.2,6.7-5.2,17.3,1.4,23.4c11.7,10.7,23.7,21.9,37.8,29.4c7.5,4,15.5,6.8,23.4,9.8c1.6,0.6,3.2,1.2,4.8,1.9
							c3.3,1.3,1.2,0.5,0.5,0.2c0.8,0.4,1.6,0.7,2.4,1.1c1.6,0.8,3.1,1.6,4.6,2.5c0.7,0.4,1.4,0.8,2,1.3c-1.2-0.8-1.6-1.6-0.5-0.1
							c-2-2.6-0.9-0.8,0.2,0.9c1.1,1.6-0.9-1.5-0.7-1.6c0,0,0.5,1.5,0.5,1.6c0.6,2.3,1.1,4.7,1.7,7c1.9,6.9,5.3,13.5,10.8,18.3
							c14.7,12.6,36.6,13.6,54.7,10c18.4-3.6,35.2-13.6,51.1-23c7.7-4.5,10.7-14.1,7.3-22.2c-3.3-7.7-12.6-13.2-21-10.3
							c-1.7,0.6-3.3,1-5,1.4c3.1-0.8-1.3,0-2.1,0c-0.9,0-5.4-0.9-2.1-0.1c-1.7-0.4-3.3-0.9-5-1.4c1.4,10.9,2.8,21.7,4.3,32.6
							c2.2-1.1,4.4-2.2,6.6-3.2c1.1-0.5,2.2-1,3.3-1.5c-1.8,0.7,0.1,0,0.8-0.3c4.8-1.8,9.6-3.4,14.6-4.8c4.6-1.2,9.3-2.3,14-3
							c0.3-0.1,3.7-0.5,2-0.3c-1.7,0.2,1.7-0.2,2.1-0.2c2.7-0.3,5.3-0.4,8-0.5c9.3-0.4,18.3-7.9,17.8-17.8
							C614.1,734.7,606.6,725.7,596.7,726.2L596.7,726.2z"/>
					</g>
				</g>
				<g>
					<g>
						<path class="st16" d="M410.7,729c29.1,0.9,58.2,2,87.3,3.2c13.9,0.5,27.7,1.1,41.6,1.6c7.3,0.3,14.6,0.5,21.9,0.8
							c3.9,0.1,7.7,0.3,11.6,0.4c2.1,0.1,4.1,0.2,6.2,0.2c0.5,0,1.1,0.1,1.6,0.1c-2.6-0.1-5-0.8-7.3-2.1c-2.1-2.1-4.3-4.3-6.4-6.4
							c0,0,0,0.1,0.1,0.1c-0.6-4.6-1.2-9.1-1.8-13.7c-0.2,0.7,2.3-5.2,1.6-3.8c-0.4,0.7-1.6,3.7-1.9,4.4c-1.7,5.4-0.1,11.5,3.2,15.8
							c3.7,4.8,8.9,7,14.7,8.2c-2.6-9.9-5.2-19.8-7.9-29.8c-6.1,6.3-9,14.6-6.9,23.3c0.6,2.6,1.9,4.9,3.3,7.2
							c0.3,0.4,0.6,0.9,0.9,1.3c2.8,3.4-1.2-10-1.6-6.5c0.8-3,1.6-6,2.4-9c-0.7,1.5,0.1,0.8,2.3-2.2c1.2-1.9,2.8-3.1,5-3.7
							c-0.9,0.9-3.4,1.1-4.5,1.5c-3.3,1.1-6.7,2.1-10.1,3c-6.4,1.8-12.9,3.4-19.4,4.7c-6.5,1.4-13,2.4-19.6,3.4
							c3.3-0.5-1.9,0.2-2.1,0.3c-1.3,0.2-2.6,0.3-3.9,0.5c-2.6,0.3-5.2,0.5-7.9,0.7c-4.4,0.3-8.8,0.2-13.2,0c-3.5-0.2,0-0.6,0.7,0.2
							c-0.3-0.3-3-0.5-3.4-0.6c-1.9-0.4-3.7-0.9-5.6-1.5c-1.1-0.4-2.2-0.8-3.4-1.2c-3.1-1.1,2.2,1.2,0.3,0.1
							c-2.1-1.2-4.4-2.1-6.5-3.3c-5.1-2.8-10-6.1-14.8-9.5c-7.7-5.4-20.1-1.6-24.4,6.4c-4.8,9.1-1.8,18.7,6.4,24.4
							c11.9,8.4,25.1,16.4,39.6,19.2c15.3,2.9,30.3,1.2,45.6-0.9c18.2-2.5,36.2-6.5,53.6-12.3c11.4-3.8,21.1-12.4,17.6-25.7
							c-0.7-2.7-1.9-4.9-3.5-7.2c-1.2-1.7-1.1-3.7,0.3,1.3c0.6,2.2,0.6,4.5,0.1,6.7c-3.8,5.5-4.6,7.1-2.4,4.7
							c8.9-9.2,5.6-26.8-7.9-29.8c-0.9-0.2-2.4-0.9-3.3-0.8c-1-0.3-0.7-0.1,1.1,0.5c1.8,0.6,3.3,1.6,4.7,3c1.5,2.6,3.1,5.2,4.6,7.9
							c0-0.1,0-0.1-0.1-0.2c0,3.2,0,6.3,0,9.5c-2,3.8-2.5,5.1-1.6,3.8c0.9-1.3,1.5-2.8,1.9-4.4c1.1-4,0.7-7.9-0.9-11.7
							c-2.3-5.4-6.7-9.1-12.3-10.6c-8.4-2.2-18.3-1.2-26.9-1.5c-16.4-0.6-32.7-1.2-49.1-1.8c-33.2-1.3-66.5-2.6-99.8-3.6
							c-9.3-0.3-18.2,8.4-17.8,17.8C393.3,721.1,400.7,728.7,410.7,729L410.7,729z"/>
					</g>
				</g>
				<g>
					<g>
						<path class="st16" d="M356.4,714.9c6.2,3.3,12,7.3,17.6,11.5c-2.3-1.7,1.8,1.4,2,1.6c1.2,0.9,2.3,1.8,3.5,2.8
							c2.6,2,5.2,4,7.7,6.1c9.6,7.6,19,15.6,28.6,23.2c19.7,15.5,40.3,27.7,64.7,34.6c9,2.5,19.8-3.1,21.9-12.4
							c2.2-9.5-2.8-19.2-12.4-21.9c-3.2-0.9-6.4-1.9-9.5-2.9c-1.5-0.5-3-1-4.4-1.6c-0.4-0.2-4.3-1.7-2.1-0.8
							c2.2,0.9-1.5-0.7-1.9-0.9c-1.3-0.6-2.6-1.2-3.9-1.9c-2.5-1.2-5-2.6-7.4-4c-4.4-2.5-8.6-5.3-12.7-8.2c-2.3-1.6-4.5-3.3-6.7-4.9
							c1.9,1.5,1.1,0.9-0.3-0.2c-1.1-0.9-2.3-1.8-3.4-2.7c-9.4-7.5-18.6-15.3-28-22.7c-11.4-8.9-22.4-18.6-35.3-25.4
							c-8.2-4.3-19.7-2.4-24.4,6.4C345.6,698.8,347.6,710.3,356.4,714.9L356.4,714.9z"/>
					</g>
				</g>
				<g>
					<g>
						<path class="st16" d="M553.6,775.2c1.2,0,2.4,0,3.6,0.1c-0.1,0,4.7,0.6,3,0.3c-1.6-0.3,1.8,0.4,2.1,0.5c1.5,0.3,2.9,0.6,4.4,1
							c5,1.3,9.9,3,14.8,4.8c5.2,1.9,10.4,4,15.5,5.9c0.4,0.1,3.7,1.6,1.8,0.7c-2-1,1.1,0.7,1.5,0.9c1.2,0.7,2.2,1.4,3.3,2.1
							c7.1,4.7,15.2,4.8,23,1.7c5.2-2.1,10.4-4.3,15.3-7c2.2-1.2,4.3-2.4,6.5-3.4c-2.3,1.1-0.4,0.2,0.9-0.2c1-0.3,4.1-0.4,0.6-0.2
							c-4.2-10.1-8.4-20.3-12.6-30.4c-1.2,1.2-2.4,2.3-3.6,3.4c-3.6,3.4,2.6-1.6-1.5,1.2c-2.4,1.6-4.9,3.2-7.5,4.5
							c-1.4,0.7-3.1,1.2-0.7,0.4c-1.5,0.5-2.9,1-4.4,1.4c-1.5,0.4-3,0.7-4.4,1c-3.3,0.7,1.6,0.1-0.5,0c-2.8-0.1-5.5,0.1-8.3-0.1
							c4.1,0.3,0.1-0.1-0.8-0.4c-0.4-0.1-0.8-0.2-1.2-0.4c-1.9-0.7-1.5-0.5,1.1,0.5c-0.1-0.3-2-1.1-2.2-1.3c-3-1.7,0.9,0.1,0.9,0.8
							c0-0.6-3.2-3.2-3.8-3.8c-7.7-8.3-16.1-13.2-27.5-14.6c-14.3-1.8-29.3,3.2-41.1,11.1c-7.7,5.2-11.8,15.9-6.4,24.4
							c5,7.7,16.1,12,24.4,6.4c2.8-1.9,5.8-3.7,8.9-5c-2.8,1.2,1.3-0.3,2-0.5c1.3-0.4,2.7-0.6,4-0.9c1.3-0.2,1.1-0.2-0.7,0.1
							c0.8-0.1,1.6-0.1,2.4-0.1c1.3,0,2.5,0.1,3.8,0c4,0-2.9-1,0.2,0.1c3.8,1.4-0.1-0.7-0.4-0.4c0.1-0.1,2.4,1.4,2.4,1.4
							c-0.1,0.2-3.7-3.5-0.9-0.5c1.1,1.1,2.2,2.3,3.3,3.5c3.2,3.5,6.7,6.7,10.8,9.2c11.9,7.3,27.2,7.4,40.4,4.6
							c13.8-3,26.4-10.9,36.2-20.8c10.4-10.5,3.2-31.3-12.6-30.4c-12.2,0.7-21.2,6.8-31.9,11.7c-1.4,0.6-3.6,1.4-0.9,0.4
							c-0.7,0.3-1.4,0.6-2.2,0.8c-0.5,0.2-1.2,0.3-1.7,0.5c-1.3,0.3-0.9,0.2,1.1-0.1c1.2-0.3,2.4-0.3,3.7,0c1.2,0.2,4.8,1.1,5,1.6
							c-0.1-0.3-0.9-0.6-1.2-0.8c-1-0.8-2.1-1.4-3.2-2.1c-9.2-5.4-20.4-8.7-30.5-12.3c-11.2-4-22.8-6.8-34.7-7
							c-9.3-0.1-18.2,8.3-17.8,17.8C536.2,767.1,543.6,775,553.6,775.2L553.6,775.2z"/>
					</g>
				</g>
				<g>
					<g>
						<path class="st16" d="M649.7,783.5c5.8-0.4,11.7-0.9,17.5-1c3.1-0.1,6.1-0.1,9.2,0.1c1.5,0.1,3.1,0.2,4.6,0.3
							c1,0.1,2.7,0.2,0.7,0c11.9,1.4,22.8,7.2,34.1,10.9c7.9,2.6,15.3,4.3,23.4,1.1c4.6-1.8,9.2-3.6,13.8-5.3c2.7-1,5.4-2,8.2-2.8
							c1.5-0.4,2.1-0.3,0.2-0.2c1.7-0.1,3.3,0,5,0.2c9.3,1.2,18.2-9,17.8-17.8c-0.5-10.7-7.9-16.6-17.8-17.8
							c-11.8-1.5-23.3,4.1-34,8.3c-1.6,0.6-3.2,1.2-4.8,1.9c-0.8,0.4-3.1,0.6,0.5,0.2c1.5-0.2,2.6-1,4.7,0.3
							c-2.9-1.8-7.8-2.4-11-3.4c-5.6-1.9-10.9-4.3-16.4-6.2c-6-2.1-12.2-3.3-18.5-4.1c-12.4-1.7-24.8-1-37.3,0
							c-9.3,0.7-18.3,7.7-17.8,17.8C632.3,774.8,639.8,784.2,649.7,783.5L649.7,783.5z"/>
					</g>
				</g>
				<g>
					<g>
						<path class="st16" d="M763.3,749.2c-29.9,2.8-59.8,3.5-89.7,0.1c-1.6-0.2-3.2-0.4-4.8-0.6c-2.1-0.3-2.1-0.3-0.1,0
							c-0.8-0.1-1.6-0.2-2.4-0.3c-3.5-0.5-7.1-1.1-10.6-1.7c-7.4-1.2-14.7-2.7-22-4.2c-7.9-1.7-15.8-3.4-23.7-5.4
							c-1.8-0.4-3.6-0.9-5.3-1.4c-1.1-0.3-4.6-2.2-0.9-0.2c-1.2-0.7-2.4-1.3-3.6-2.1c3.4,2.1-0.8-1.2-1.6-2.3
							c-2.6,9.9-5.2,19.8-7.9,29.8c3.8-0.8,7.7-1.5,11.5-2.1c1.9-0.3,3.8-0.6,5.8-0.9c-2.7,0.4,3.1-0.4,3-0.3
							c7.7-0.9,15.5-1.5,23.2-1.9c15.5-0.9,31.1-1,46.6-1.2c0-11.9,0-23.7,0-35.6c-2,0.1-3.9,0-5.9,0c-1.3-0.1-1.1-0.1,0.6,0.1
							c-1.1-0.2-2.2-0.4-3.3-0.7c-3.3-0.8-6.6-1.9-9.8-3c-7.5-2.7-14.7-5.9-22.4-8c-16.7-4.5-34.3-5.1-51.5-5.6
							c3,11.1,6,22.1,9,33.2c0.9-0.7,1.8-1.3,2.7-1.8c-1.9,0.6-1.9,0.6,0.1,0c1.4-0.3,4.6-0.8,1.4-0.5c3.7-0.3,7.3-0.1,11,0.1
							c8.8,0.5,17.5,1.1,26.2,1.7c15.9,1.1,31.8,2.3,47.7,3.5c15.4,1.2,30.9,2.3,46.4,3.4c8.5,0.6,17.1,1.2,25.6,1.7
							c4.3,0.3,8.7,0.8,13,0.9c1.3,0.1,1.2,0.1-0.3-0.1c1.2,0.2,2.3,0.4,3.5,0.7c2.3,0.5,4.6,1.3,6.8,2.2
							c-4.1-7.3-8.3-14.6-12.4-21.9c1.3-4.1,3.8-6.7,7.5-7.6c-0.7,0.3-1.5,0.5-2.2,0.6c-1.8,0.5-3.7,0.8-5.5,1.2
							c-3.9,0.9-7.8,1.7-11.7,2.5c-3.4,0.7-6.9,1.3-10.3,1.9c-0.5,0.1-5.9,0.9-3.2,0.5c2.8-0.4-2.5,0.3-3,0.3
							c-14.3,1.5-28.6,0.7-42.8-0.7c-9.3-0.9-18.2,8.8-17.8,17.8c0.5,10.4,7.8,16.9,17.8,17.8c17.8,1.7,35.2,1.9,52.9-0.6
							c8.1-1.1,16.1-2.7,24-4.5c5-1.1,9.8-2,14.5-4c7.1-3,11.7-8.7,14.1-15.9c3.3-9.9-4-18.4-12.4-21.9c-9.3-3.9-19.6-4.1-29.5-4.8
							c-9.2-0.6-18.4-1.2-27.6-1.8c-16.3-1.1-32.6-2.4-48.8-3.6c-16.6-1.3-33.1-2.5-49.7-3.6c-18-1.2-40.1-5.7-55.8,5.6
							c-6.2,4.5-10.8,12.1-8.2,20.1c2.5,7.6,9.1,12.9,17.2,13.1c8,0.2,16,0.4,24,1.1c0.6,0.1,7.4,0.8,4.4,0.4
							c1.8,0.3,3.7,0.6,5.5,0.9c4,0.8,7.9,1.7,11.7,2.9c15.5,4.9,29.9,12.9,46.7,11.8c9.3-0.6,18.3-7.8,17.8-17.8
							c-0.4-9.6-7.8-17.9-17.8-17.8c-33.4,0.3-66.8,1-99.6,7.7c-6,1.2-10.9,6.8-12.4,12.4c-1.9,6.7,0.6,12.1,4.6,17.3
							c10.5,13.5,29.9,15.9,45.5,19.3c16.5,3.6,33.1,6.5,49.9,8.6c31.4,4,63,3.5,94.4,0.5c9.2-0.9,18.3-7.6,17.8-17.8
							C780.7,758.1,773.2,748.2,763.3,749.2L763.3,749.2z"/>
					</g>
				</g>
				<g>
					<g>
						<path class="st16" d="M684.3,779.8c17.9,19.4,46,24.5,69.4,12.3c8.3-4.3,11.4-16.6,6.4-24.4c-5.4-8.4-15.5-11-24.4-6.4
							c-0.8,0.5-1.7,0.9-2.6,1.3c2.1-0.9,2.2-1,0.3-0.3c-1.8,0.4-3.6,1.2-5.4,1.3c5-0.1-1.2-0.2-2.1-0.2c-0.9,0-1.8-0.1-2.8-0.2
							c2.4,0.3,2.7,0.3,0.6,0c-1.8-0.5-3.6-1-5.4-1.6c4.2,1.4-1.3-0.7-2.2-1.3c-0.8-0.5-5.3-4.2-2.4-1.5c-1.5-1.4-3-2.7-4.3-4.2
							c-6.3-6.9-18.9-6.9-25.2,0C677.6,761.9,677.5,772.5,684.3,779.8L684.3,779.8z"/>
					</g>
				</g>
				<g>
					<g>
						<path class="st16" d="M629.4,790.6c11.3,1.2,22.5,0.2,33.6-2.1c2.5-0.5,4.9-1.1,7.4-1.6c0.6-0.1,5.7-0.7,2.7-0.5
							c0.8-0.1,7.5,0.3,4.4-0.2c2.4,0.3,4.8,1,7.1,1.6c20.1,5,40.6,7.3,61.3,5.4c9.3-0.8,18.3-7.6,17.8-17.8
							c-0.4-8.9-7.9-18.7-17.8-17.8c-10.1,0.9-20.3,1-30.4,0c-1.3-0.1-2.5-0.3-3.8-0.4c1.6,0.2,1.3,0.2-0.9-0.2
							c-1.9-0.3-3.8-0.6-5.6-1c-4.9-1-9.7-2.3-14.6-3.4c-11.5-2.6-21.9-1.8-33.3,0.8c-9.5,2.1-16.7,2.8-27.8,1.6
							c-9.3-1-18.2,8.9-17.8,17.8C612,783.3,619.4,789.6,629.4,790.6L629.4,790.6z"/>
					</g>
				</g>
				<g>
					<g>
						<path class="st16" d="M746.7,797.1c6.4-0.7,12.2-1.7,17-6.3c4.1-4,5.9-9,6.2-14.7c0-0.5,0.2-1.5,0-1.9
							c1.6,3.3-2.9,8.4-5.2,10.5c-1.8,0.8-1.7,0.8,0.3,0.1c1-0.3,2.1-0.7,3.1-1c1.6-0.4,3.1-0.7,4.7-1.1c-3.5,0.9,0.7,0,1.6,0
							c1,0,2.1,0,3.1,0.1c-1.9-0.3-2.2-0.3-0.9-0.1c1,0.3,5.3,2.4,2.4,0.6c0.1,0.1,4.5,2.9,2,1.1c4.1,3,7.7,6.3,12.3,8.5
							c4.6,2.2,9.4,3.6,14.3,4.7c0-11.4,0-22.9,0-34.3c-1,0.5-2,0.8-3,1.1c2.1-0.2,2.1-0.3,0-0.3c1.8,0.3,2.1,0.3,0.8,0.1
							c-0.8-0.2-1.6-0.4-2.4-0.6c-1-0.3-2.1-0.7-3.1-1.1c1.2,0.5,1.2,0.5,0.1,0c-1.9-0.9-3.8-1.8-5.8-2.7c-4.7-2.1-9.3-4-14.3-4.8
							c-1.7-0.3-3.4-0.4-5.1-0.7c-1.1-0.2-2.2-0.4-3.3-0.7c-2-0.6-2.2-0.7-0.5-0.1c-8.3-4.2-19.7-2.5-24.4,6.4
							c-4.3,8.1-2.5,19.9,6.4,24.4c5.5,2.8,10.6,4.1,16.6,5c2.3,0.4,4.5,0.8,6.8,1.5c0.3,0.1,3.3,1.3,2.1,0.7
							c-1.4-0.6,2.9,1.4,2.8,1.4c11.1,5.2,23.8,9.8,35.9,4.9c7.1-2.9,13.5-8.8,13.1-17.2c-0.3-7.6-5.2-15.4-13.1-17.2
							c-2.3-0.5-4.5-1.1-6.8-1.7c-4.4-1.3,1.8,1.3-2.2-1.1c-1.7-1.2-1.9-1.3-0.6-0.2c-0.9-0.7-1.8-1.4-2.7-2.2
							c-2.1-1.6-4.1-3.4-6.4-4.8c-8-4.9-17.9-6.9-27.2-6.1c-9.9,0.9-21.6,3.4-29.3,10.1c-3.4,3-6,6.9-6.9,11.4
							c-0.4,2-0.7,4.1-0.7,6.1c0.1,8.2,5.5-12.6,12.4-13.3c-9.2,1-18.3,7.5-17.8,17.8C729.3,788.1,736.8,798.2,746.7,797.1
							L746.7,797.1z"/>
					</g>
				</g>
				<g>
					<g>
						<path class="st16" d="M760.8,780.1c9.2,0,18.4,0,27.5,0c2.2,0,4.5,0.2,6.6,0c7,0.5,4-3.4-9-11.5c0,0.7,0,1.3,0,2
							c-0.5,4.6-0.5,9.4-0.8,14c-0.5,9.6,8.2,16.1,16.8,16.8c14.9,1.2,27.9-9,37.4-19.4c9.2-10.1,17.9-20.6,26.8-30.9
							c4.5-5.2,6.3-11.8,3.5-18.4c-2.5-5.8-8.7-10.8-15.4-10.3c-22.2,1.4-44.4,1.7-66.6,1c1.5,11,3,22,4.5,33
							c15.8-6.1,27.7-6.1,44.9-6.6c0-11.2,0-22.4,0-33.6c-7.5,0.4-15.1,0.8-22.7,0.4c-1.7-0.1-3.5-0.2-5.2-0.4
							c3,0.3-1.8-0.3-2.4-0.5c-4-0.8-7.8-2-11.6-3.6c-1.5,11-3,22-4.5,33c23.1,0.7,42,3.2,64.3,8.4c8.6,2,18.6-2.6,20.7-11.7
							c2-8.6-2.6-18.6-11.7-20.7c-24-5.6-48.6-8.8-73.3-9.6c-8.4-0.3-15.4,6.6-16.5,14.6c-1.2,8.9,4.2,15.2,12,18.5
							c16,6.6,33.8,6.2,50.8,5.3c8.8-0.5,17.2-7.4,16.8-16.8c-0.4-8.9-7.4-17.1-16.8-16.8c-18.1,0.5-36.7,1.2-53.8,7.8
							c-7.9,3-13.2,9.6-12,18.5c1.1,8.4,8.1,14.3,16.5,14.6c22.2,0.7,44.4,0.4,66.6-1c-4-9.6-7.9-19.1-11.9-28.7
							c-7.8,9-15.6,18.1-23.4,27.1c-3.3,3.8-6.7,7.6-10.6,10.9c-2.1,1.8,1.7-1.1-0.6,0.4c-1.1,0.7-2.3,1.5-3.5,2.1
							c1.6-0.8,0.4-0.4-0.5,0.1c1.6-0.1,1.8-0.1,0.6,0c-0.8,0-1.6,0-2.4-0.1c5.6,5.6,11.2,11.2,16.8,16.8c0.3-5.7,1.1-11.6,0.6-17.3
							c-1-10.8-7.9-19.1-18.9-20.5c-6.5-0.9-13.3-0.3-19.8-0.4c-6.6,0-13.3,0-19.9,0c-8.8,0-17.2,7.7-16.8,16.8
							C744.4,772.4,751.4,780.1,760.8,780.1L760.8,780.1z"/>
					</g>
				</g>
				<g>
					<g>
						<path class="st16" d="M879.5,736.7c1.4-2.6,2.8-4.6,5-6.7c-6.6-3.9-13.2-7.7-19.8-11.6c7.4-3.7,9.3-5.4,5.6-5.1
							c-1,0-1.9,0-2.9,0c-1.6,0-3.2,0.1-4.8,0.1c-3.5,0.1-7,0.1-10.6,0.2c-7,0.1-14.1,0.2-21.1,0.3c-15.3,0.3-15.3,24,0,23.7
							c10.2-0.2,20.5-0.3,30.7-0.5c9.7-0.2,24,0.2,25.9-12.5c0.8-5.3-0.5-10.5-5.5-13.4c-4.6-2.7-10.6-1.8-14.4,1.9
							c-3.5,3.3-6.4,7.2-8.7,11.5C851.8,738.1,872.2,750.1,879.5,736.7L879.5,736.7z"/>
					</g>
				</g>
				<g>
					<g>
						<path class="st17" d="M351.7,700.4c13.2,14.3,28,26.8,43.4,38.6c7.4,5.6,15,11,22.7,16.3c7.1,4.9,15.1,9.3,21.8,14.7
							c4.8,3.9,6.5,8.4,10.4,13.8c5.5,7.5,12.6,11.8,21.3,14.9c18.6,6.6,40.1,8.4,58.9,1.3c9.8-3.7,18.5-9.9,28.5-13
							c6.7-2,12.2-1.9,17,3.6c4.2,4.8,12.5,4.3,16.8,0c4.8-4.8,4.2-11.9,0-16.8c-13.5-15.4-34.2-13-51-5.3
							c-8.2,3.7-15.7,8.6-24.5,10.8c-8,2-16.5,2-24.6,0.5c-4.4-0.8-8.8-2-13.1-3.4c-3.5-1.2-6.7-2.7-8.5-4.4c-0.2-0.2-1.8-2-0.9-0.9
							c0.8,0.9-0.3-0.5-0.4-0.6c-0.8-1.2-1.6-2.5-2.3-3.7c-2-3.3-4.1-6.4-6.6-9.3c-6-7.1-14.6-11.7-22.2-16.8
							c-7.7-5.2-15.4-10.4-22.9-15.9c-16.9-12.3-32.8-25.8-47-41.1C358,672.4,341.3,689.2,351.7,700.4L351.7,700.4z"/>
					</g>
				</g>
				<g>
					<g>
						<path class="st17" d="M582.2,791.9c5.4,1.3,6.1,1.5,10.6,4.6c4.1,2.7,8.5,3.8,13.4,4c14.6,0.6,28.6-5.4,42.3-9.5
							c25.9-7.8,51.9-3.2,74.3,12c5.3,3.6,13.2,1,16.2-4.3c3.4-5.9,1.1-12.6-4.3-16.2c-24.5-16.6-55-23.1-84-16.6
							c-13.8,3.1-27.1,10.1-41.4,10.9c-1.2,0.1-2.5,0.1-3.7,0c-1.2,0,2.3,0.3-0.6-0.2c1.3,0.2,2.1,1.2,0.5,0
							c-0.5-0.4-1.1-0.8-1.6-1.1c-4.7-3.1-10-5.1-15.5-6.4c-6.2-1.5-12.9,1.9-14.6,8.3C572.2,783.3,575.9,790.5,582.2,791.9
							L582.2,791.9z"/>
					</g>
				</g>
				<g>
					<g>
						<path class="st17" d="M727.1,804.7c11.6,2.7,21.4-2.5,30.8-8.9c3.9-2.6,7.6-5.6,11.3-8.6c0.6-0.5,1.2-1,1.8-1.4
							c2.5-2.1-1.1,0.6,0.3-0.3c0.5-0.3,1-0.6,1.5-0.9c1.1-0.8-2.6,0.7-0.2,0.1c1.6-0.4-0.1,0.1-0.7,0.1c1.3,0.2,0.6-0.1-0.3-0.2
							c1.8,0.3,3.7,0.9,5.4,1.6c4,1.5,7.5,3.9,11.2,6.1c10.1,6.1,20.6,9.9,32.5,9.8c15.3-0.1,15.3-23.9,0-23.7
							c-18.4,0.2-30.9-18.4-49.6-17.2c-7.8,0.5-13.3,5.1-19,9.8c-3,2.5-6.2,4.6-9.6,6.8c-2.4,1.6-6.4,4.7-8.9,4.1
							c-6.2-1.5-12.9,1.9-14.6,8.3C717.1,796.1,720.8,803.2,727.1,804.7L727.1,804.7z"/>
					</g>
				</g>
				<path class="st18" d="M371.4,718.7L336.6,684l560,27.2l-1.5,3c-12,24.4-27.6,45.9-45.9,63.4l-27.8,26.5c0,0-17.6,3-31.6-4.7
					c-4.3-2.4-8.8-3.8-13.5-4.8c-11.4-2.4-29.7-4.9-37.1,1.9c0,0-0.8,14.2-27.6,3.6c0,0-44.8-18.8-65.8-6.6c0,0-7.7,22.4-36.9,5.1
					c0,0-29.6-20.3-53-11.2c0,0-55.9,35.1-94.2,6.6C461.9,794,441.2,775.7,371.4,718.7z"/>
				<ellipse class="st19" cx="625.4" cy="753.3" rx="12.3" ry="14.2"/>
				<ellipse class="st19" cx="773.7" cy="753.3" rx="12.3" ry="14.2"/>
				
					<ellipse transform="matrix(0.1549 -0.9879 0.9879 0.1549 -154.2705 1326.2021)" class="st19" cx="698" cy="753.3" rx="14.8" ry="11.9"/>
			</g>
			<g>
				<g>
					<path class="st20" d="M454.1,841.1c17.2,3.7,34.1,2.4,51.1-1.7c14-3.4,27.6-8.4,41.6-11.6c1.5-0.3,3.1-0.7,4.6-1
						c0.9-0.2,7.1-1.2,3-0.6c-3.9,0.6,1.3-0.1,2.2-0.1c2.1-0.1,4.1-0.2,6.2-0.2c1.5,0,3.1,0.1,4.6,0.2c5.6,0.4-3.5-0.9,0.6,0.1
						c1.4,0.3,2.9,0.6,4.3,1.1c0.6,0.2,1.3,0.5,1.9,0.7c2.4,0.7-5.2-2.9-1.7-0.6c0.9,0.6,1.9,1.1,2.9,1.7c0.4,0.3,0.8,0.6,1.3,0.9
						c2.1,1.2-3.4-2.3-2.8-2.2c1.4,0.2,3.8,3.4,4.9,4.3c5.6,4.9,11.4,9.1,18.8,11.1c18.4,4.9,34.2-4.5,50.1-12.4
						c0.6-0.3,1.8-0.6,2.2-1.1c-0.5,0.5-4.9,1.7-1.3,0.7c1.4-0.4,2.7-0.8,4.1-1.1c0.7-0.2,1.4-0.2,2.1-0.4c2.5-0.6-3,0.4-2.9,0.4
						c1.7,0.3,3.8-0.2,5.5-0.2c1.4,0,2.8,0.2,4.2,0.2c4.1,0.3-5.4-1-0.1,0.1c3.3,0.6,6.6,1.4,9.8,2.4c12.8,3.7,25,9.2,38,12.1
						c16.8,3.8,39.1,5.7,52.4-7.4c4.7-4.6,8.5-13.2,7.4-19.9c0-0.3,0-0.7,0-1c0-2.1-0.5-0.5-1.4,4.7c-0.1,3.6-1.7,6.4-4.6,8.4
						c1.8-1.8-6.1,6.2-6.4,4.8c0-0.1,4-1,4.3-1.1c0.4-0.1,2.3-0.2,2.6-0.5c-0.6,0.7-4.8,0.4-1.1,0.2c2.3-0.1,4.6-0.2,6.9-0.1
						c0.9,0,1.7,0.1,2.6,0.1c0.7,0,4.6,0.6,1.2,0c-3.3-0.5-0.3,0,0.3,0.1c1.4,0.3,2.9,0.5,4.3,0.9c4.4,1,8.6,2.3,12.8,3.8
						c0.9,0.3,1.7,0.6,2.6,1c0.6,0.2,4.1,1.9,1.4,0.5c-2.9-1.5,0.7,0.3,1.4,0.6c1.1,0.5,2.2,1,3.4,1.6c8.7,4.1,17.1,8.8,25.5,13.6
						c10.8,6.2,26.5,2.9,32.5-8.5c6-11.3,3-25.9-8.5-32.5c-30.9-17.6-68.1-36.8-104.6-25.5c-12.4,3.8-23.3,14.3-22.5,28.3
						c0,0.6-0.1,1.4,0.1,2c1.7-2.9,3.4-5.9,5.1-8.8c0.6-5.1,2.9-8.3,6.9-9.6c0.6-0.3,1.2-0.5,1.8-0.8c-0.7,0.2-1.4,0.4-2.2,0.5
						c-2.4,0.7,2.8-0.3,2.8-0.3c-0.7,0-1.4,0.1-2.1,0.2c-1.9,0.1-3.8,0.1-5.6,0c-1,0-5.8-0.6-1.8,0c4.1,0.6-1.4-0.3-2.5-0.5
						c-3.3-0.7-6.6-1.5-9.9-2.5c-6.4-1.9-12.7-4.2-19-6.4c-13.5-4.7-28.2-9-42.6-7.9c-10.3,0.8-18.9,3.3-28.2,7.7
						c-3.3,1.6-6.4,3.4-9.6,5.1c-0.7,0.4-1.5,0.7-2.2,1.1c-3.7,2,0.5-0.3,1.2-0.4c-1.5,0-3.7,1.3-5.2,1.7c-5.2,1.3,4.4,0.1,0.7,0.1
						c-0.5,0-1.2-0.1-1.6,0c-2.1,0.5,4,0,3.9,0.6c-0.1,0.4-6.3-2.2-0.5,0.2c4.3,1.8,1,0.2-0.1-0.4c-3-1.7,4.9,4.2,1.8,1.4
						c-0.7-0.6-1.3-1.2-2-1.8c-2.9-2.6-6-5.1-9.2-7.4c-12.7-9.4-30.2-12-45.6-10.8c-17.6,1.4-34.2,6.6-51,11.6
						c-4.1,1.2-8.2,2.3-12.3,3.3c-1.8,0.4-3.6,0.8-5.4,1.2c-0.8,0.2-1.5,0.3-2.3,0.5c-0.9,0.2-5.5,0.8-1.5,0.3c3.9-0.4-2,0.2-3,0.3
						c-2,0.2-4.1,0.2-6.1,0.2c-1.8,0-3.6-0.2-5.4-0.3c-3.2-0.1,4.9,0.9,1.7,0.3c-1.3-0.3-2.6-0.5-3.8-0.8
						c-12.1-2.6-26.3,3.6-29.2,16.6C434.8,823.8,441.1,838.2,454.1,841.1L454.1,841.1z"/>
				</g>
			</g>
		</g>
	</g>
	<g>
		<g>
			<path class="st21" d="M445.5,797.8c28.1,3.8,54.9-4.4,82.2-10.1c12.3-2.6,24.8-4.5,37.5-4.1c6.1,0.2,12.1,1,18,2.6
				c6.3,1.7,11.9,4.7,17.9,7.3c5.4,2.4,10.5,3.3,16.3,1.8c6.7-1.8,13.1-4.2,19.9-5.5c13-2.6,26.5-2.9,39.6-1
				c6.4,0.9,12.8,2.4,19,4.3c6.3,2,12.4,4.7,18.9,6.2c13.4,3,26.8-1.4,40-3.5c28.1-4.6,58.2-3.4,79.6,17.7c5.5,5.3,13.9-3,8.4-8.4
				c-18.2-17.8-42.9-24.5-67.8-23.4c-14.3,0.7-28,3.8-42.1,6.1c-6.4,1.1-12.3,1-18.5-0.8c-7-2-13.7-4.9-20.8-6.8
				c-12.9-3.4-26.5-4.9-39.8-4.2c-13.6,0.7-25.9,4.2-38.9,7.8c-6.2,1.7-11-2.1-16.5-4.5c-6.1-2.7-12.4-4.7-18.9-5.9
				c-12.5-2.2-25.2-1.8-37.8-0.1c-30.9,4.2-61.6,17.5-93.2,13.2c-3.2-0.4-6.3,0.8-7.3,4.1C440.5,793.3,442.3,797.4,445.5,797.8
				L445.5,797.8z"/>
		</g>
	</g>
</g>
<g>
	<g>
		<path class="st22" d="M887.9,133.8c5.8-5.8,11.5-11.7,17.3-17.5c5.2-5.3-2.9-13.4-8.1-8.1c-5.8,5.8-11.5,11.7-17.3,17.5
			C874.5,131,882.6,139.1,887.9,133.8L887.9,133.8z"/>
	</g>
</g>
<g>
	<g>
		<path class="st22" d="M897.8,154.8c7.6-3,15.2-6,22.8-9c6.8-2.7,3.8-13.8-3.1-11.1c-7.6,3-15.2,6-22.8,9
			C887.9,146.4,890.9,157.5,897.8,154.8L897.8,154.8z"/>
	</g>
</g>
<g>
	<g>
		<path class="st22" d="M895.3,175.6c8.1,1.2,16.2,2.4,24.3,3.6c7.2,1.1,10.4-10,3.1-11.1c-8.1-1.2-16.2-2.4-24.3-3.6
			C891.1,163.5,888,174.5,895.3,175.6L895.3,175.6z"/>
	</g>
</g>
<g>
	<g>
		<path class="st22" d="M397.6,129.1c-5.3-5.4-10.7-10.8-16-16.3c-4.8-4.9-12.4,2.7-7.6,7.6c5.3,5.4,10.7,10.8,16,16.3
			C394.8,141.5,402.4,134,397.6,129.1L397.6,129.1z"/>
	</g>
</g>
<g>
	<g>
		<path class="st22" d="M383.6,145.8c-7.1-2.8-14.2-5.6-21.2-8.4c-6.4-2.5-9.2,7.8-2.8,10.3c7.1,2.8,14.2,5.6,21.2,8.4
			C387.2,158.6,390,148.3,383.6,145.8L383.6,145.8z"/>
	</g>
</g>
<g>
	<g>
		<path class="st22" d="M380.3,165.2c-7.5,1.1-15.1,2.2-22.6,3.3c-6.8,1-3.9,11.3,2.8,10.3c7.5-1.1,15.1-2.2,22.6-3.3
			C389.9,174.5,387,164.2,380.3,165.2L380.3,165.2z"/>
	</g>
</g>
</svg>
